<?xml version="1.0" encoding="UTF-8" standalone="no"?>
<svg
   width="284.73444"
   height="237.49554"
   viewBox="-702 0 284.73444 237.49554"
   version="1.2"
   id="svg924"
   xmlns="http://www.w3.org/2000/svg"
   xmlns:svg="http://www.w3.org/2000/svg"><defs
   id="defs924" />
<title
   id="title1">Notebook 3</title>
\n<g
   id="g936"
   transform="matrix(1.1579325,0,0,0.92827423,-77.991333,-791.96062)">
  <g
     id="g107">
    <path
       fill="none"
       stroke="#000000"
       stroke-width="4"
       stroke-linecap="round"
       stroke-linejoin="round"
       d="m -367.855,983.75 -0.4,0.441 -0.291,0.033 -0.274,-0.464 -0.354,0.232 -0.686,1.396 -0.451,-0.279 -0.101,0.324 0.065,-0.92 0.106,0.67 0.482,-0.513 -0.579,-0.019 0.193,-0.189 -0.357,-0.503 -0.672,0.016 -0.164,-0.457 -0.582,-0.078 0.309,-0.092 -0.347,-0.1 -0.072,-0.857 -0.449,-0.355 -0.327,0.656 -0.04,-0.332 -0.923,0.307 0.217,0.231 -0.045,-0.726 -0.678,0.88 -0.172,-0.528 -0.493,0.281 -0.058,-0.587 -1.027,0.344 -0.495,-0.519 -1.057,0.64 -0.509,-0.208 -2.479,0.422 -0.43,1.11 -0.279,-0.463 -0.573,0.04 -0.464,1.369 -0.478,-0.614 -1.296,-0.459 -1.246,0.661 -0.69,1.186 -1.388,0.756 -0.162,-0.486 -0.265,0.004 -1.245,1.124 -0.78,1.246 -1.052,0.396 -0.399,0.601 -2.168,1.332 -0.968,0.983 -0.544,1.453 0.176,0.454 -0.168,-0.274 -1.212,0.496 -0.053,0.882 -0.219,-0.261 -1.205,0.62 -0.348,1.375 -0.056,-0.393 -1.277,0.662 -0.51,1.232 -0.136,-0.188 -1.285,0.623 -1.322,1.183 -1.113,1.723 -2.436,1.76 -0.72,1.28 -0.465,0.25 -2.442,4.45 -0.269,-0.4 -0.867,4.9 -0.658,1.46 -0.367,0.2 -0.926,3.62 0.139,1.48 -0.681,1.3 0.332,0.59 -0.393,0.31 -0.299,1.59 0.401,0.62 -0.834,1.33 0.61,1.28 -1.239,2.22 -0.302,1.88 -0.051,-0.4 -0.405,0.18 0.27,1.81 -0.72,3.34 0.251,0.55 -0.135,1.1 -0.018,-0.25 -0.352,0.16 0.068,2.24 -0.642,1.38 0.051,4.2 0.463,0.9 -0.43,0.96 0.313,1.22 0.004,2.96 0.436,0.42 0.156,1.48 0.594,0.17 0.606,2.19 0.287,-0.65 0.213,0.15 0.584,1.69 1.901,0.93 2.108,2.23 0.06,0.66 1.838,0.81 0.046,0.61 2.562,1.48 0.448,0.62 1.459,0.67 1.046,1.34 2.801,0.83 5.091,3.6 1.475,0.08 3.389,1.8 1.712,0.2 1.18,-0.38 0.777,0.48 1.294,0.13 0.347,-0.62 0.391,-0.09 0.58,0.53 1.022,0.27 0.85,-0.47 0.423,0.48 1.395,0.09 1.022,-1.18 0.451,0.59 0.681,0.09 0.937,-0.1 0.935,-1.03 1.626,0.64 0.719,-0.61 0.981,0.36 1.064,-0.87 1.72,0.15 0.688,-0.95 0.952,0.37 3.387,-1.53 0.41,0.54 0.695,-1.05 0.791,-0.42 -0.054,-0.36 0.994,-0.15 0.496,-0.69 0.981,-0.17 0.546,-0.48 -0.291,0.04 1.537,-0.57 0.241,-1.73 -0.032,0.53 0.942,-0.2 1.092,-1.24 1.715,-0.56 0.744,-1.67 0.183,0.33 0.838,-0.27 2.604,-1.64 0.518,-0.82 1.027,-0.4 0.703,-0.99 1.129,-0.8 0.303,-0.87 0.157,0.63 0.413,0.08 0.054,-1.21 0.366,-0.79 0.266,0.25 0.811,-2.22 0.173,0.96 0.426,0.16 0.02,-1.88 0.407,-0.7 0.23,0.08 1.118,-3.29 -0.372,-0.65 0.89,-0.87 -0.009,-0.53 1.101,-1.51 -0.318,-0.02 0.537,-0.48 0.381,-1.28 0.566,-0.31 -0.227,-0.69 0.341,-0.54 -0.009,-1.51 0.533,-0.81 -0.229,-0.32 0.953,-1.48 0.123,-1.76 0.569,-0.31 0.205,-0.76 -0.28,-0.95 0.765,-1.68 -0.346,-0.73 -0.201,0.51 0.304,-0.97 -0.467,-0.99 -0.311,0.17 0.12,-0.84 -0.234,-0.59 -0.171,0.13 -0.187,-3.01 -0.483,-0.64 0.048,-1.42 -0.356,-0.28 -0.473,-2.59 -1.146,-2.2 -0.273,-1.32 -0.793,-0.97 -0.493,-1.8 -0.648,-0.64 -0.732,-1.7 -1.336,-1.04 0.032,-0.95 -0.686,-0.7 -0.526,-1.49 -1.227,-1.26 -0.986,0.02 -0.015,-1.1 -1.48,-1.16 -0.427,-1.01 -0.76,-0.63 -1.001,-0.12 -0.789,-1.79 -0.874,-0.635 -0.796,-2.103 -1.139,-0.611 0.076,-0.457 -0.767,-1.646 -0.544,-0.528 -0.553,-0.054 -2.918,-5.463 -1.718,-1.724 -0.661,-1.59 -0.596,-0.139 -0.432,0.252 -1.116,-0.337 -0.767,-1.37 -0.236,0.356 -1.338,-0.292 -0.556,-1.64 -0.969,0.615 -0.707,0.068 -0.619,-0.606 -0.093,0.258 -0.664,-0.151 -0.161,-1.006 -0.71,0.41 -0.099,-0.225 -0.765,0.139 0.164,-0.177 -0.236,-0.071 0.205,-0.046 -0.1,0.574"
       id="path107" />
  </g>
  <g
     id="g108">
    <path
       fill="none"
       stroke="#000000"
       stroke-width="4"
       stroke-linecap="round"
       stroke-linejoin="round"
       d="m -379.646,995.32 0.335,-2.094 -0.074,-1.646 -0.153,-0.271 -0.188,0.423 0.093,-0.386 0.259,0.148 -0.268,1.54 0.274,0.527 -0.407,0.563 0.213,0.952 -0.363,1.425 -0.282,4.599 -0.027,8.87 0.145,5.24 1.097,11.8 -0.402,3.95 0.183,0.8 -0.554,2.88 0.303,0.05 -0.307,0.76 -0.307,0.06 0.301,-0.28 -0.338,0.08 0.216,0.56 -0.153,-0.23 -0.149,0.23 0.391,0.41 -0.296,-0.03 0.369,-0.46 -0.47,0.27 0.391,0.02 -0.08,-0.2 0.213,0.92 -0.047,-0.72 -0.293,-0.15 0.075,0.47 0.315,-0.5 -0.378,-1.26 0.017,0.86 0.471,-0.31 0.074,0.41 0.114,-0.19"
       id="path108" />
  </g>
  <g
     id="g109">
    <path
       fill="none"
       stroke="#000000"
       stroke-width="4"
       stroke-linecap="round"
       stroke-linejoin="round"
       d="m -380.129,1038.24 -0.035,-1.88 0.235,-0.35 0.068,0.53 0.067,-0.45 1.27,0.18 0.455,0.42 1.118,-0.15 0.518,-0.5 0.104,0.36 6.428,0.27 1.168,0.4 0.509,-0.3 2.998,0.25 1.969,-0.47 0.481,0.7 0.667,0.2 0.524,-0.53 1.257,-0.31 0.745,0.39 1.841,-0.75 0.699,0.44 0.651,-0.48 0.547,0.41 0.595,-0.37 0.426,0.48 0.616,-0.6 0.119,0.27 h 0.49 l 0.189,-0.41 0.588,0.3 0.893,-0.05 0.229,-0.35"
       id="path109" />
  </g>
  <g
     id="g110">
    <path
       fill="none"
       stroke="#000000"
       stroke-width="4"
       stroke-linecap="round"
       stroke-linejoin="round"
       d="m -401.828,996.606 -0.279,-0.8 0.514,-0.543 -0.672,-0.453 0.019,0.22 0.238,-0.458 3.94,-2.423 3.172,-1.05 0.625,-0.809 1.431,0.288 2.952,-0.55 0.918,-0.919 1.904,0.434 3.004,-0.129 2.221,-0.88 3.995,-0.52 3.084,-0.852 2.461,0.278 1.408,1.076 0.367,0.843 0.938,0.701 0.218,-0.132 0.139,0.55 0.96,0.613 0.187,-0.389 0.101,0.529 0.682,0.524 0.214,-0.296 0.726,1.039 0.474,-0.446 0.087,0.476 0.565,0.417 0.416,-0.148 0.608,0.456 1.517,0.233 0.94,0.466 0.209,0.852 0.036,-0.796 -0.333,0.021 0.211,-0.065 0.026,0.47 -0.183,-0.207 0.359,-0.492 -0.388,0.414 0.261,-0.32 -1.055,0.296 0.335,-0.18 -0.491,0.07 0.295,-0.248 -0.227,0.004 -0.02,0.503 0.083,-0.321 -0.37,-0.219 0.325,-0.285 -0.308,-0.329 -0.11,0.389 0.678,-3.457 -0.17,-1.598 -0.459,-0.121 0.108,-0.474 -0.737,-1.37 -1.612,-0.547 -0.26,-0.653 -1.075,-0.776 -2.016,-0.958 -3.637,-0.629 -3.929,0.062 -1.883,0.668 -1.021,-0.063 -2.308,1.036 -1.106,0.031 -1.959,1.559 -1.191,0.104 -4.329,3.684 -2.17,2.764 -0.516,0.098"
       id="path110" />
  </g>
  <g
     id="g111">
    <path
       fill="none"
       stroke="#000000"
       stroke-width="4"
       stroke-linecap="round"
       stroke-linejoin="round"
       d="m -430.055,1102.86 -0.437,-0.06 0.039,-0.68 -0.339,0.11 0.16,-0.18 -0.269,-0.07 0.521,-0.43 0.012,-0.48 -0.1,0.29 0.035,-0.38 -0.187,0.12 0.338,-0.67 -0.336,0.18 0.55,0.01 0.248,-0.77 0.073,0.3 0.772,-0.17 0.652,-1.1 0.088,0.34 1.115,-0.12 3.793,-0.93 9.975,-0.33 0.874,-0.74 0.809,0.24 1.058,-0.16 0.903,-0.89 1.599,0.07 0.788,-0.28 1.059,-1.04 1.59,0.15 3.853,-0.49 1.528,-0.79 2.684,0.34 2.802,-0.75 1.988,0.08 2.133,-0.48 0.816,0.28 1.681,-0.44 1.344,0.5 1.904,-0.64 0.912,0.55 1.663,-0.92 0.783,0.75 2.434,-1.21 0.737,0.15 1.73,-0.73 0.85,0.07 1.636,-0.65 h 0.977 l 7.918,-1.92 0.869,0.16 0.462,-0.57 1.162,-0.4 1.482,0.04 0.717,-0.74 1.049,-0.26 1.066,0.56 0.458,-0.56 1.324,-0.45 0.388,0.03 0.384,0.54 0.715,-0.04 0.684,-0.79 3.555,-1.02 0.369,0.17 1.364,-0.76 2.069,0.59 1.918,-0.57 0.902,0.24 6.749,-2.09 2.616,0.17 6.073,-1.16 0.89,-0.88 2.036,0.31 0.8,-0.65 1.148,0.59 1.679,0.14 0.33,-0.6 0.3,0.32 h 0.488 l 0.176,-0.39 0.928,0.23 0.463,-0.59 0.944,0.15 0.489,-0.36 0.769,0.03 -0.032,-0.56 0.035,0.38 0.44,-0.02 0.173,-0.79 -0.444,0.11 0.026,0.3 0.778,-0.02 0.046,-0.93 0.041,0.41 0.61,0.22 0.192,-1.16 -0.139,0.78 0.318,0.26 0.035,-0.35 0.107,0.38 -0.031,-0.51 0.09,0.49 -0.013,-0.48 -0.141,0.72 -0.133,-0.29 0.12,0.64 0.158,-0.72 -0.675,-0.56 0.416,0.37 -0.006,-0.44 -0.274,0.16 0.356,0.11 0.111,-0.47 -0.533,0.41 0.252,0.28 0.281,-0.24 -0.376,0.34 0.374,0.15 -0.316,0.06 0.259,0.41 0.061,-0.35 -0.235,-0.06 -0.074,0.36 0.293,0.13 0.054,-0.39 -0.342,-0.17 -0.34,1.24 0.301,-0.16 0.073,-0.49 -0.412,-0.05 -0.405,1.07 -0.085,-0.67 -0.712,-0.55 -0.522,0.57 -0.428,-0.63 -1.986,-0.5 -1.668,0.57 -3.23,-0.05 -6.366,0.75 -16.184,3.57 -11.623,1.51 -3.635,1.14 -4.024,0.59 -18.777,4.35 -9.036,2.57 -1.581,-0.1 -1.454,0.32 -1.532,0.83 -4.314,1.5 -2.76,0.57 -0.986,0.77 -7.354,2.15 -1.685,0.66 0.262,0.23 -0.195,0.13 -0.559,0.05 0.967,-0.3 0.444,-0.8 0.939,0.39 0.765,-0.27 1.718,0.51 1.349,-0.87 1.027,0.34 3.016,-0.17 2.559,-1.5 3.061,0.01 4.826,-0.57 3.429,-1.08 3.659,-0.28 3.711,-0.7 4.015,-1.45 10.458,-1.26 2.124,-1.02 2.269,-0.64 2.202,0.06 6.216,-0.74 4.099,-1.12 9.368,-1.27 11.758,-2.51 3.018,-1.05 0.93,0.03 1.063,-0.95 -2.123,0.2 -4.609,-1.1 -4.226,0.13 -2.57,-0.43 -1.974,0.09 -2.841,0.67 -6.915,0.72 -8.9,1.53 -4.041,0.23 -22.084,4.35 -7.811,1.15 -5.504,1.52 -5.416,0.38 -1.56,0.3 -1.537,0.99 -1.531,0.42 -1.654,-0.35 -3.715,0.51 -2.061,1.51 -1.214,0.12 -1.096,-0.44 -2.369,0.13 -1.16,1.09 -1.718,-0.29 -0.33,1.06 0.351,-0.87 1.451,-0.6 7.532,0.16 2.805,-0.22 12.487,-2.52 6.816,-1.75 8.901,-1.66 6.884,-1.87 9.217,-1.98 4.628,-1.44 8.139,-1.77 5.895,-2.07 1.787,0.18 4.194,-0.69 1.28,-0.59 2.721,-0.11 2.884,-0.76 0.182,0.2 -1.887,0.71 -3.2,0.38 -4.475,1.05 -11.721,3.54"
       id="path111" />
  </g>
  <g
     id="g112">
    <path
       fill="none"
       stroke="#000000"
       stroke-width="4"
       stroke-linecap="round"
       stroke-linejoin="round"
       d="m -312.611,961.353 -0.654,-2.087 0.638,4.152 0.192,7.596 0.457,4.091 2.977,15.696 -0.024,6.424 0.63,1.993 -0.2,4.592 0.291,7.76 -0.526,1.7 0.399,1.41 0.24,6.07 0.785,4.68 -0.091,2.11 0.748,4.08 1.279,13.47 -0.085,2.8 0.67,7.95 0.089,-0.55 0.365,0.3 -0.046,3.48 0.339,1.12 0.749,8.62 -0.166,0.83 0.651,6.73 -0.262,0.52 0.403,1.81 -0.387,0.61 0.705,0.86 -0.213,0.43 0.449,0.65 -0.214,0.16 0.476,0.17 -0.299,0.3 0.303,-0.32 -0.203,-0.26 h 0.387 l 0.083,-0.4 -0.437,-0.19 -0.119,-0.54 -0.048,0.73 0.394,-1.07 -0.727,-2.26 0.359,-1.94 -0.821,-3.85 0.113,-3.47 -0.528,-4.86 -0.749,-45.3 -1.592,-19.39 -1.166,-10.42 -0.508,-10.316 0.2,-1.29 -0.397,-3 0.299,-0.03 -0.192,0.573 0.222,0.353 -0.254,1.863 0.558,0.619 -0.326,3.258 0.295,2.72 -0.199,9.796 -0.557,3.157 0.479,3.768 -0.222,11.999 0.686,11.47 -0.328,3.98 0.433,1.7 0.421,5.59 -0.184,5.92 0.352,5.43 -0.803,22.93 0.322,2.97 0.114,-0.5 0.2,0.22 -0.04,2.4 0.156,1.19 0.247,-0.07 0.176,2.4 0.344,-0.97 0.187,0.47 -0.252,0.27 -0.327,-0.47 0.355,-1.4 -0.155,-1.96 0.605,-4.04 -0.224,-1.14 0.459,-4.96 -0.355,-3.05 0.149,-1.88 -0.58,-5.87 -1.275,-5.02 0.315,0.02 -0.544,0.85 0.425,1.14 0.099,3.74 0.428,0.81 0.096,1.59 -0.423,1.48 0.06,4.48 0.605,3.26 -0.364,3.79 0.676,1.1 -0.356,0.52 -0.175,2.67 0.135,1.01 0.236,-0.45 -0.013,0.35 -0.407,0.58 0.018,1.36 -0.44,1.5 -0.76,1.33 -0.569,0.38 -0.554,-0.07 -0.336,0.59 -1.001,0.07 -1.156,0.8 -0.166,-0.36 -0.828,0.44 -0.285,-0.25 -0.219,0.87 -0.984,-0.39 -0.242,-0.43 -0.433,-0.06 -0.137,0.28 -1.479,-0.27 -0.47,0.29 0.003,0.41 -2.492,0.29 -1.411,1.3 -0.21,-0.29 -1.433,0.22 -7.094,2.34 -1.793,0.19 -2.051,0.69 -0.551,0.4 0.365,0.11 0.426,-0.32 -0.25,0.16 0.208,-1.05 0.045,0.33 0.606,0.11"
       id="path112" />
  </g>
  <g
     id="g113">
    <path
       fill="none"
       stroke="#000000"
       stroke-width="4"
       stroke-linecap="round"
       stroke-linejoin="round"
       d="m -408.835,971.439 -2.265,-0.062 -0.496,-0.266 0.126,0.328 2.827,-0.553 15.742,-1.715 3.775,-0.931 8.508,-1.327 4.826,-1.515 7.639,-1.543 18.516,-5.069 5.23,-0.889 5.486,-2.017 5.26,-0.805 16.986,-3.924 4.44,-1.961 -0.479,-0.413 -1.204,-0.144 -1.113,0.403 -12.308,0.498 -23.422,3.381 -2.009,-0.365 -1.863,0.143 -2.028,0.819 -6.003,1.31 -3.966,0.359 -10.271,2.902 -2.003,-0.163 -1.905,0.304 -2.052,0.963 -10.576,2.323 -9.422,3.468 -3.377,0.281 -1.385,0.793 -6.042,2.147 -0.886,0.665 6.077,-1.307 1.943,0.087 2.082,-0.855 9.706,-2.646 9.045,-3.422 4.882,-0.904 17.182,-5.263 13.782,-2.766 11.182,-2.867 2.058,-1.064 2.449,-0.658 2.109,0.04 13.149,-2.586 -10.119,2.136 -3.515,1.481 -1.954,0.121 -8.089,2.218 -4.334,1.541 -8.9,2.069 -2.138,1.519 -2.376,0.826 -1.988,-0.192 -6.535,1.837 -4.834,1.846 -7.132,1.336 -5.408,1.441 -5.483,2.548 -2.763,0.422 -7.518,2.728 -15.441,4.66 -9.177,3.673 -1.322,1.038 0.37,-0.35 4.357,-0.196 5.312,-0.912 3.764,-1.361 4.856,-1.151 18.669,-5.798 13.543,-4.84 10.917,-3.137 2.756,-0.446 12.584,-3.413 4.674,-1.652 12.947,-2.827 7.98,-2.13 0.236,-0.263 -0.278,-0.077 -2.913,0.62 -0.903,-0.467 -0.73,0.479 -5.8,0.558 -9.424,2.16 -2.212,-0.264 -2.153,0.317 -2.118,1.066 -6.8,1.787 -3.859,0.272 -1.971,0.517 -7.28,2.556 -1.772,-0.115 -1.771,0.286 -1.53,0.82 -4.767,1.086 -3.085,0.15 -6.959,2.777 -2.261,0.276 -3.072,1.807 -0.984,1.093"
       id="path113" />
  </g>
  <g
     id="g114">
    <path
       fill="none"
       stroke="#000000"
       stroke-width="4"
       stroke-linecap="round"
       stroke-linejoin="round"
       d="m -531.065,942.08 -0.612,-0.864 -1.547,-5.868 -0.54,-0.779 0.463,-0.987 0.214,0.842 0.357,-0.605 0.095,1.036 0.449,0.374 0.395,-0.311 -0.227,0.714 0.402,0.348 0.289,-0.184 0.527,0.97 -0.18,2.507 0.356,0.975 -0.33,2.033 0.008,4.908 0.678,2.921 -0.267,1.348 0.059,4.445 0.703,3.275 -0.218,7.416 0.883,3.85 0.003,15.257 0.686,9.476 0.039,9.393 -0.297,3.41 1.721,17.33 -0.136,2.03 0.543,3.26 -0.02,4.44 0.838,7.99 0.524,0.44 -0.297,1.04 0.771,0.08 -0.381,-0.17 0.295,0.13 -0.459,0.25 0.169,-0.3 -0.263,-0.24 0.528,-0.07 0.563,-2.8"
       id="path114" />
  </g>
  <g
     id="g115">
    <path
       fill="none"
       stroke="#000000"
       stroke-width="4"
       stroke-linecap="round"
       stroke-linejoin="round"
       d="m -533.706,929.472 0.324,-0.902 0.677,0.222 0.131,-0.386 -0.208,0.853 0.385,1.502 -0.133,2.269 1.072,7.383 0.051,6.124 0.504,3.225 -0.083,8.934 0.498,4.171 0.01,6.616 0.519,4.527 0.158,7.563 0.562,6.738 0.96,5.686 1.47,18.063 1.436,9.08 1.251,4.91 0.68,8.3 -0.113,3.45 0.656,5.33 -0.137,3.72 0.871,3.81 -0.101,10.41 0.393,4.22 -0.18,1.81 0.401,1.07 -0.252,1 0.523,0.33 -0.358,0.39 0.311,-0.09 -0.285,-0.27 0.494,-0.19 h -0.243 l -0.033,-0.54 0.449,-0.33 0.147,-1.47 0.454,-0.52"
       id="path115" />
  </g>
  <g
     id="g116">
    <path
       fill="none"
       stroke="#000000"
       stroke-width="4"
       stroke-linecap="round"
       stroke-linejoin="round"
       d="m -520.34,1056.93 -0.911,0.8 -2.655,0.39 -0.563,-0.4 -0.463,-1.32 0.31,-0.57 -0.776,-1.45 0.354,-0.76 0.476,-0.12 0.716,1.34 2.069,0.89 0.854,-0.06 1.104,0.42 8.506,6.87 6.552,4.34 5.849,4.46 11.281,6.95 4.583,2.05 5.403,3.7 1.233,-0.07 1.162,0.6 0.812,1.41 3.564,2.48 1.833,0.23 2.092,2.46 1.652,1.25 1.633,0.57 0.199,0.73 0.541,0.45 3.063,0.91 0.809,0.68 1.143,0.18 0.653,-0.42 -0.495,-0.23 -1.05,-2.04 -1.314,-1.09 -1.023,-1.42"
       id="path116" />
  </g>
  <g
     id="g117">
    <path
       fill="none"
       stroke="#000000"
       stroke-width="4"
       stroke-linecap="round"
       stroke-linejoin="round"
       d="m -523.163,1049.96 -2.92,-0.32 -0.391,0.58 -0.917,-1.61 0.822,-0.06 0.548,0.58 2.139,0.11 1.625,1.14 1.442,0.29 2.84,1.46 1.615,0.96 3.285,2.92 3.897,2.12 8.127,6.15 4.675,2.69 3.362,2.59 3.819,1.72 3.475,2.52 5.657,2.86 3.108,2.53 3.504,1.4 3.009,1.66 1.26,1.4 1.42,0.8 0.61,-0.05 3.957,1.45 2.393,1.69 5.149,1.79 1.929,1.51 2.803,1.18 1.216,1.38 2.928,1.77 0.076,0.31 -0.342,-0.14 -6.51,-4.91"
       id="path117" />
  </g>
  <g
     id="g118">
    <path
       fill="none"
       stroke="#000000"
       stroke-width="4"
       stroke-linecap="round"
       stroke-linejoin="round"
       d="m -520.691,1049.26 -1.844,0.04 -2.68,-1.01 -2.02,-1.24 -0.135,-0.24 0.461,-0.55 2.26,-0.63 1.732,1.57 2.168,0.96 6.923,5.49 3.644,2.31 2.131,1.75 3.686,3.75 3.997,3.48 14.89,10.54 9.552,5.31 3.589,2.5 6.634,2.77 2.256,1.91 1.271,0.08 2.99,1.36 2.68,1.75 0.89,0.08 4.291,1.87 0.999,0.61 0.55,0.86 0.935,-0.67"
       id="path118" />
  </g>
  <g
     id="g119">
    <path
       fill="none"
       stroke="#000000"
       stroke-width="4"
       stroke-linecap="round"
       stroke-linejoin="round"
       d="m -528.547,923.974 -1.887,-2.084 -0.656,-1.96 -0.912,-1.015 -0.315,-0.877 -0.729,-0.462 0.461,0.01 -0.885,0.343 -0.185,-0.391 0.789,0.136 -0.436,0.304 0.148,-0.591 -0.293,-0.303 0.787,0.682 -0.092,0.424 0.443,0.805 0.316,-0.634 0.169,0.149 0.373,1.107 1.957,2.108 0.444,0.131 1.86,2.487 0.438,-0.388 0.277,0.19 0.299,0.965 6.132,5.205 2.369,0.756 1.206,1.106 1.993,1.081 1.36,2.064 1.688,0.439 0.825,1.213 2.043,0.781 0.329,0.39 -0.133,0.554 1.736,1.115 0.58,0.834 3.659,1.736 0.714,0.788 2.633,1.147 0.37,0.644 1.842,0.724 1.13,1.01 4.131,2.175 0.848,0.879 0.014,-0.203 1.249,0.52 0.744,0.732 2.356,0.485 0.428,1.151 0.834,0.626 0.285,-0.564 0.034,0.229 0.747,0.054 0.655,0.849 1.169,-0.106 0.823,0.442 0.29,0.856 0.768,0.574 0.469,-0.319 1.482,0.946 0.662,0.893 1.624,0.614 3.926,3.378 0.917,0.548 0.785,-0.057 0.983,1.172 2.659,1.945 2.583,0.808 2.002,1.265 1.055,-0.033 2.036,1.212 0.78,0.023 2.05,1.613 0.28,-0.303 0.303,0.125 0.904,0.626 -0.119,0.243 0.842,0.792 1.463,0.615 -0.176,0.311 0.671,0.798 1.467,0.535 0.112,0.487 0.21,-0.135 1.214,0.85 0.871,1.044 1.797,0.617 0.473,-0.607 0.695,0.754 1.461,0.785 0.645,-0.331 -0.31,0.889 1.439,0.769 0.144,-0.371 0.159,0.56 0.956,0.467 0.261,-0.241 0.19,0.633 0.069,-1.125 -0.091,0.515 0.504,0.254 -0.075,0.308 0.569,0.292 0.23,-0.19 -0.681,0.232 0.403,-0.029 0.208,0.707 0.416,0.15 0.108,-0.489 0.319,-0.072 0.313,1.269 0.784,-0.952 0.187,0.371 0.103,-0.242 0.008,0.841 -0.275,-0.259 0.3,-0.294 -0.185,-0.474 -0.763,-0.313 0.315,-0.204 -0.149,0.471 -0.405,-0.332 0.162,-0.213 -2.43,-0.963 -2.154,-1.427 -0.188,0.128 0.239,0.123 -0.946,-0.445 0.047,0.41 -1.031,-0.73 -0.206,0.34 0.488,-0.103 -0.039,-0.545 -1.725,-0.747 -0.334,0.426 -0.076,-0.747 -1.871,-0.973 -0.989,-0.115 -0.168,-1.248 -2.049,-1.59 -0.528,0.3 -0.454,-1.132 -6.201,-4.901 -1.333,-0.023 -3.394,-2.343 -1.499,-0.568 -2.858,-2.485 -1.578,-0.766 -3.408,-2.413 -0.751,-1.361 -1.584,-0.164 -1.756,-1.367 -2.429,-1.268 -1.07,-1.735 -1.011,0.19 -0.912,-0.265 -0.999,-0.588 -1.364,-1.434 -1.362,-0.107 -1.259,-0.648 -1.104,-1.124 -5.596,-2.738 0.175,-0.172 -0.274,-0.308 -2.645,-1.175 -0.269,-0.661 -1.751,-0.793 -1.176,-1.249 -2.625,-1.112 -5.609,-4.242 -1.244,-0.585 -1.394,-1.228 -0.447,-1.418 -0.917,-0.918 -0.307,0.353 -1.444,-1.085 -1.086,-1.729 -1.269,-0.241 -1.055,-0.733 -0.234,-1.271 -0.726,-0.696 -0.217,0.689 -0.39,-0.316 -0.26,-0.991 -1.358,0.256 -0.193,-0.754 -0.677,-0.503 -0.227,0.468 0.148,-0.151 -0.871,-0.242 -0.338,-0.783 -1.585,-1.269 0.337,-0.302 -1.35,-0.726 -0.26,-0.561 -1.945,-0.294 -0.091,-0.805 -1.549,-1.283 -0.963,-0.493 -0.696,0.195 -0.974,-1.184 -0.255,0.309 -0.499,-0.084 -0.638,-0.528"
       id="path119" />
  </g>
  <g
     id="g120">
    <path
       fill="none"
       stroke="#000000"
       stroke-width="4"
       stroke-linecap="round"
       stroke-linejoin="round"
       d="m -498.826,988.543 0.39,-0.548 -0.283,-0.792 -0.467,0.091 -0.145,-0.666 -0.718,-0.086 0.221,-0.975 0.495,-0.28 -0.422,-0.848 2.037,-2.701 0.675,0.185 0.117,-0.959 1.11,-1.295 1.028,-0.489 0.714,-0.825 1.87,-0.815"
       id="path120" />
  </g>
  <g
     id="g121">
    <path
       fill="none"
       stroke="#000000"
       stroke-width="4"
       stroke-linecap="round"
       stroke-linejoin="round"
       d="m -514.273,911.111 0.172,0.477 0.194,2.118 2.227,7.976 0.094,6.079"
       id="path121" />
  </g>
  <g
     id="g122">
    <path
       fill="none"
       stroke="#000000"
       stroke-width="4"
       stroke-linecap="round"
       stroke-linejoin="round"
       d="m -516.488,911.394 0.006,0.509 0.697,2.182 -0.063,1.67 0.759,2.948 -0.312,1.48 0.158,0.748 -0.598,1.255 0.291,0.412 -0.452,0.222 0.327,-0.247 -0.297,-0.026 -0.076,-0.473 0.408,-0.305 -0.4,-0.509 0.114,-1.12"
       id="path122" />
  </g>
  <g
     id="g123">
    <path
       fill="none"
       stroke="#000000"
       stroke-width="4"
       stroke-linecap="round"
       stroke-linejoin="round"
       d="m -514.322,910.87 -0.129,0.955 0.724,5.181 -0.336,1.364 1.599,6.808 0.606,1.043 0.4,-0.077 0.111,0.723 -0.291,-0.719 0.511,-0.945"
       id="path123" />
  </g>
  <g
     id="g124">
    <path
       fill="none"
       stroke="#000000"
       stroke-width="4"
       stroke-linecap="round"
       stroke-linejoin="round"
       d="m -433.316,978.901 -1.182,0.01 -0.383,0.435 -0.817,-0.42 -0.112,0.3 -0.034,-0.406 -0.446,-0.294 0.215,-0.488 -0.413,-0.272 -0.281,0.289 -1.748,-0.329 -5.216,0.342 -1.365,-0.269 0.503,-0.409 0.709,0.134 0.554,-0.421 3.995,-0.959 2.053,0.191 3.522,-1.627 5.444,-1.377 6.469,-2.161 1.662,0.141 1.779,-0.317 1.814,-1.017 5.927,-1.961 4.15,-0.763 12.209,-3.838 5.162,-0.967 5.023,-2.13 18.29,-5.121 28.196,-9.007 4.982,-0.661 -1.356,0.558 -0.381,-0.397 -0.328,0.741 0.212,0.195 -1.932,0.113 -1.236,0.709 0.018,-0.223 -0.864,0.005"
       id="path124" />
  </g>
  <g
     id="g125">
    <path
       fill="none"
       stroke="#000000"
       stroke-width="4"
       stroke-linecap="round"
       stroke-linejoin="round"
       d="m -536.899,916.981 0.273,0.382 -0.133,1.13 0.544,0.887 0.2,2.17 1.106,1.102 -0.369,1.348 0.38,1.585 -0.315,2.142 1.015,1.403 -1.41,3.815 -0.041,-0.748 -0.169,0.159 0.878,1.359 -0.311,0.673 -0.111,-0.535 -0.327,1.93 0.462,0.278 0.071,-0.459 -0.036,0.546 -0.024,-0.573 0.266,0.245 0.687,-0.591 1.249,-2.403 1.631,-4.36"
       id="path125" />
  </g>
  <g
     id="g126">
    <path
       fill="none"
       stroke="#000000"
       stroke-width="4"
       stroke-linecap="round"
       stroke-linejoin="round"
       d="m -530.699,915.576 5.582,5.099 3.239,1.545 5.08,3.755 7.854,4.363 1.625,0.393 1.438,0.763 15.616,9.685 1.351,0.228 1.002,0.551 1.018,0.958 5.28,3.222 3.809,2.787 6.544,3.973 1.025,1.036 3.564,1.823"
       id="path126" />
  </g>
  <g
     id="g127">
    <path
       fill="none"
       stroke="#000000"
       stroke-width="4"
       stroke-linecap="round"
       stroke-linejoin="round"
       d="m -486.055,902.782 0.248,-0.413 -0.069,0.833 0.145,-0.711 -0.841,-0.404 0.424,-0.025 0.068,0.673 -0.009,-0.485 0.437,0.113 -0.931,-0.056 1.061,-0.048 -0.289,0.084 0.543,0.548 -0.787,-0.128 1.056,-0.138 -0.419,-0.21 -0.042,0.956 0.46,0.343 -0.013,-0.792 -0.398,0.079 -0.12,-0.397 -0.123,0.684 0.68,-0.171 0.304,-0.416 -0.56,-0.233 -0.027,0.662 0.079,-0.423 -0.568,-0.257 -0.145,0.521 0.27,-0.521 -0.327,-0.006 0.016,0.503 0.458,-0.477 -0.384,0.051 0.104,-0.186 0.048,0.209"
       id="path127" />
  </g>
  <g
     id="g128">
    <path
       fill="none"
       stroke="#000000"
       stroke-width="4"
       stroke-linecap="round"
       stroke-linejoin="round"
       d="m -485.834,902.832 0.552,0.149 0.771,0.617 0.264,0.891 0.656,0.359 0.544,-0.345 1.058,0.884 0.645,1.366 1.139,0.078 0.827,0.514 0.332,1.085 0.658,0.492 0.329,-0.462 1.206,0.328 0.688,0.625 1.895,0.182 0.923,0.791 1.567,0.533 3.407,2.17 2.721,2.25 1.502,0.849 1.071,0.211 0.802,1.016 1.391,0.094 0.785,0.744 1.093,0.248 1.307,0.943 0.774,0.187 -0.124,0.228 0.022,-0.274 0.679,0.27 -0.36,0.447 0.669,-0.027 1.151,0.872 -0.152,0.376 1.051,0.49 0.243,-0.163 0.309,0.466 1.46,0.687 -0.205,0.572 0.697,0.491 0.071,-0.306 -0.017,0.301 0.29,0.279 0.046,-0.264 -0.11,0.369 0.166,-1.225 -0.183,0.885 0.259,0.159 -0.201,0.202 0.126,-0.58 -0.082,0.856 0.273,0.056 -0.07,0.396 -0.308,-0.15 0.427,-0.103 -0.731,-0.125 0.942,0.336 -0.342,0.082 -0.158,0.734 0.597,-0.172 -0.596,0.055 0.281,1.021 0.109,-0.628 -0.383,-0.252 -0.114,0.524 0.495,-0.548 -0.465,-0.169 0.171,1.395 -0.171,-1.412 -10e-4,0.694 -0.182,-0.418 0.179,-0.253 0.564,0.247 0.253,1.124 0.184,-0.685 0.295,0.486 -0.212,0.219 0.016,-0.319 0.537,0.282 -0.681,0.141 0.599,-0.084 -0.46,-0.232 0.432,0.079 -0.861,0.299 0.023,-0.402 -0.013,0.264 0.413,-0.229 -0.545,0.026 0.35,0.148 -0.139,-0.517 -0.091,0.434 0.455,-0.204 -0.338,0.151 0.343,0.068 0.012,-0.717 -0.28,-0.234 -0.174,0.727 0.294,-0.871 -0.379,0.97 0.287,-0.147 -0.141,-0.266"
       id="path128" />
  </g>
  <g
     id="g129">
    <path
       fill="none"
       stroke="#000000"
       stroke-width="4"
       stroke-linecap="round"
       stroke-linejoin="round"
       d="m -451.863,927.831 0.495,-0.376 0.406,0.28 -0.222,0.041 0.826,0.684 0.22,0.734 1.292,0.655 0.315,-0.149 0.304,0.561 1.048,0.552 0.27,0.577 0.754,0.15 0.267,-0.474 0.064,0.488 0.411,-0.203 -0.163,0.392 0.126,-0.529 -0.114,0.594 1.047,0.889 0.611,1.073 0.707,0.403 0.252,0.816 0.541,-0.032 0.122,1.072 -0.025,-0.843 -0.155,0.281 -0.403,-0.553 0.091,-0.324 0.187,0.125 -0.477,-0.118 0.642,0.106 -0.308,0.033 0.131,0.16 -0.251,-0.342 0.241,-0.108 -0.302,0.108 0.007,0.465 0.096,-0.215 -0.504,-0.102 -0.313,-0.742 -1.015,-0.231"
       id="path129" />
  </g>
  <g
     id="g130">
    <path
       fill="none"
       stroke="#000000"
       stroke-width="4"
       stroke-linecap="round"
       stroke-linejoin="round"
       d="m -438.421,967.514 -2.085,1.105 -1.027,-0.004 -1.949,0.851 -0.811,-0.099 -1.411,0.83 -0.147,-0.308 0.285,0.235 0.232,-0.285 3.737,0.503 3.847,-0.137 8.276,-1.036 23.968,-4.06 6.889,-1.483 10.357,-1.574 5.282,-1.583 2.631,-0.138 13.148,-2.623 12.109,-1.425 4.512,-1.254 22.984,-2.304 9.212,0.246 0.074,0.21 -0.547,-0.211 0.767,-0.396 -0.328,-0.087 -0.049,-0.555 -0.403,-0.367"
       id="path130" />
  </g>
  <g
     id="g131">
    <path
       fill="none"
       stroke="#000000"
       stroke-width="4"
       stroke-linecap="round"
       stroke-linejoin="round"
       d="m -451.63,933.545 -0.408,0.571 -0.665,0.187 -0.371,0.871 -0.203,-0.12 0.386,-0.23 1.607,-0.449 10.276,-2.26 21.803,-5.866 5.281,-0.898 14.116,-4.02 14.854,-3.413 8.295,-1.143 10.473,-2.213 6.969,-0.676 7.63,-1.371 3.053,0.137 4.252,-0.979 1.636,0.079 2.089,-0.904 0.176,0.276 -0.122,-0.246 -2.059,0.071 -3.907,0.993 -0.576,-0.229 -0.951,0.482 0.873,-0.642 0.627,0.125 0.165,-0.235 -0.315,-0.016 0.34,0.234 0.025,-0.221 -0.563,0.262 -0.108,0.335"
       id="path131" />
  </g>
  <g
     id="g132">
    <path
       fill="none"
       stroke="#000000"
       stroke-width="4"
       stroke-linecap="round"
       stroke-linejoin="round"
       d="m -527.932,915.219 0.378,0.528 7.501,6.887 7.582,5.897 5.376,3.468 3.5,3.055 5.492,3.153 2.304,1.978 2.73,1.716 2.617,1.067 5.378,3.901 2.002,0.766 5.848,4.311 3.483,3.674 2.915,2.14 1.045,1.326 3.59,2.829 3.548,3.472 3.846,2.211 0.849,0.009 3.533,2.171 1.208,0.042 0.557,0.626 2.305,0.822 0.914,-0.129 0.329,0.408 1.488,0.573 0.695,-0.093 0.092,0.485 1.173,0.768 0.364,-0.43 -0.018,0.678 1.285,1.275 0.074,0.691 0.672,0.925 0.363,-0.068 0.222,1.626 0.205,-0.079 -0.332,0.664 0.031,-0.699 -0.357,-0.321 -0.067,0.36 -0.113,-0.407 -1.43,-0.516 -1.925,-2.903"
       id="path132" />
  </g>
  <g
     id="g133">
    <path
       fill="none"
       stroke="#000000"
       stroke-width="4"
       stroke-linecap="round"
       stroke-linejoin="round"
       d="m -388.817,871.984 0.17,0.401 0.725,0.002 2.092,1.077 0.316,1.162 0.452,-0.404 0.079,0.068"
       id="path133" />
  </g>
  <g
     id="g134">
    <path
       fill="none"
       stroke="#000000"
       stroke-width="4"
       stroke-linecap="round"
       stroke-linejoin="round"
       d="m -375.401,879.247 0.471,0.205 0.335,0.577 0.927,0.08 0.658,0.977 -0.118,0.396 0.942,-0.008 0.967,0.485 0.041,1.123 1.531,0.002 0.298,0.584 -0.322,0.356 0.075,-0.281 1.165,0.181 0.392,1.097 0.19,-0.353 0.618,0.041 2.803,1.514 0.284,0.644 1.409,0.67 0.354,-0.497 0.382,0.956 0.318,-0.44 0.271,0.895 0.284,-0.681 0.442,1.339 0.335,-0.649 0.433,1.122 0.273,-0.819 -0.158,0.989 0.606,0.512 0.085,-0.561 1.034,1.052 -0.059,0.271 1.246,0.332 0.083,-0.356 0.487,-0.114 -0.298,0.403 1.175,0.628 -0.012,0.363 0.559,-0.258 -0.077,0.683 0.467,0.295 0.191,-0.492 0.418,-0.071 -0.011,0.8 0.049,-0.389 0.434,-0.131 -0.035,0.842 0.323,-0.172 0.512,0.783 0.785,0.481 0.157,0.448 -0.233,0.257 0.784,0.085 0.224,0.779 1.058,0.028 0.283,0.783 0.613,-0.09 0.142,0.927 0.412,-0.477 0.834,0.682 0.166,-0.294 -0.071,0.407 0.275,-0.411 0.456,0.549 0.002,-0.382 0.902,-0.091 0.796,0.983 0.617,0.247 -0.039,0.71 1.176,-0.171 0.441,0.769 -0.359,0.212 0.169,-0.371 0.611,0.004 0.137,0.502 -0.342,-0.047 0.556,-0.198 0.125,0.403 -0.009,0.005"
       id="path134" />
  </g>
  <g
     id="g135">
    <path
       fill="none"
       stroke="#000000"
       stroke-width="4"
       stroke-linecap="round"
       stroke-linejoin="round"
       d="m -352.355,898.492 0.648,0.851 0.145,-0.651 0.429,-0.102 0.377,1.216 0.244,-0.464 0.017,0.689 0.476,0.37 0.214,-0.68 0.099,0.455 -0.292,0.282 -0.092,-0.232"
       id="path135" />
  </g>
  <g
     id="g136">
    <path
       fill="none"
       stroke="#000000"
       stroke-width="4"
       stroke-linecap="round"
       stroke-linejoin="round"
       d="m -338.637,909.369 -1.236,-2.06 -0.562,-0.417 0.05,-0.762 -0.118,0.434 -0.178,-0.451 0.236,0.629 0.089,-0.368 0.311,3.105 -0.419,1.734 0.372,1.059 0.91,9.58 0.49,1.969 -0.065,2.376 0.844,3.872 0.464,4.379 0.435,0.89 -0.181,3.634 0.295,1.691 -0.122,2.75 0.368,1.034 -0.164,0.632 0.537,0.776 0.17,0.953 0.871,0.859"
       id="path136" />
  </g>
  <g
     id="g137">
    <path
       fill="none"
       stroke="#000000"
       stroke-width="4"
       stroke-linecap="round"
       stroke-linejoin="round"
       d="m -339.261,918.127 -0.159,5.177 1.262,9.922 3.24,11.098"
       id="path137" />
  </g>
  <g
     id="g138">
    <path
       fill="none"
       stroke="#000000"
       stroke-width="4"
       stroke-linecap="round"
       stroke-linejoin="round"
       d="m -446.796,934.6 -0.895,0.231 -0.512,-0.305 -0.433,-1.332 0.638,-1.51 0.263,0.031 -0.27,0.011 0.228,0.613 0.11,-0.22 -0.203,0.771 0.782,-0.194 -0.687,-0.029 -0.054,0.842 0.288,0.432 0.109,-0.66 -0.53,-0.013 -0.15,1.365 0.403,0.106 -0.301,1.078 0.482,8.756 -0.188,2.549 0.643,10.932 1.053,5.439 0.03,2.272 1.418,3.757 0.045,1.739 1.303,6.517 -0.188,1.673 0.505,4.067 0.54,0.537 0.166,1.175 1.039,0.646 0.197,0.591 1.151,0.263 0.756,-0.56"
       id="path138" />
  </g>
  <g
     id="g139">
    <path
       fill="none"
       stroke="#000000"
       stroke-width="4"
       stroke-linecap="round"
       stroke-linejoin="round"
       d="m -519.483,879.696 3.083,-1.021 8.616,-1.337 1.679,-0.658 2.825,-0.095 10.753,-1.68 3.33,-0.821 9.619,-1.049 11.96,-2.149 3.812,-1.234 14.67,-2.05 20.054,-4.121 3.268,-0.998 1.315,0.177 0.422,-0.422 1.936,-0.57 1,0.091 1.724,-0.792 -0.056,-0.575 -0.282,-0.047 0.313,0.81"
       id="path139" />
  </g>
  <g
     id="g140">
    <path
       fill="none"
       stroke="#000000"
       stroke-width="4"
       stroke-linecap="round"
       stroke-linejoin="round"
       d="m -450.505,865.511 4.475,-1.134 2.211,-0.033 3.791,-1.166 1.617,-10e-4 7.318,-1.364 1.224,0.097 2.807,-0.747 1.332,0.121 9.5,-3.315"
       id="path140" />
  </g>
  <g
     id="g141">
    <path
       fill="none"
       stroke="#000000"
       stroke-width="4"
       stroke-linecap="round"
       stroke-linejoin="round"
       d="m -511.586,899.617 -2.256,1.612 -0.435,-0.203"
       id="path141" />
  </g>
  <g
     id="g142">
    <path
       fill="none"
       stroke="#000000"
       stroke-width="4"
       stroke-linecap="round"
       stroke-linejoin="round"
       d="m -520.536,882.832 -0.23,-0.515 0.041,0.22 -0.589,0.051 0.399,0.002 1.085,1.81 0.272,2.89 0.59,2.025 1.057,7.676 0.851,3.858 2.139,17.149 0.803,3.468 0.371,3.36 2.487,7.683 0.412,3.051"
       id="path142" />
  </g>
  <g
     id="g143">
    <path
       fill="none"
       stroke="#000000"
       stroke-width="4"
       stroke-linecap="round"
       stroke-linejoin="round"
       d="m -521.469,879.885 0.619,0.434 -0.433,0.132 0.206,-0.011 -0.207,-1.161 -0.123,0.478 0.514,0.147 -0.296,0.051 0.246,0.239 -0.397,-0.094 0.347,0.07 -0.045,0.571 0.447,-0.492 -0.598,-0.359 -0.224,0.221 0.755,0.031 -0.362,0.298 0.557,-0.007 0.257,-0.456 -0.55,0.157 0.012,0.31 1.014,0.562 0.177,-0.166 0.257,0.453 2.034,0.236 -0.026,0.341 0.513,0.417 1.066,0.366 0.341,0.665 0.566,0.148 0.287,0.646 0.525,-0.231 0.284,0.507 0.245,-0.333 0.085,0.831 0.747,-0.624 0.22,1.007 0.104,-0.837 -0.479,0.01 0.405,0.028 0.121,0.954 -0.053,-0.361 0.348,0.06 -0.285,-0.125 0.86,0.004 1.118,0.773 -0.407,0.144 2.786,0.774 -0.37,0.076 0.362,0.216 -0.032,0.633 0.805,-0.016 -0.26,0.081 0.197,0.379 0.499,-0.161 -0.153,0.375 0.657,-0.052 -0.262,0.345 -0.005,-0.477 0.58,0.455 0.164,-0.405 -0.399,0.455 0.567,0.181 -0.055,-0.489 0.024,0.431 0.491,0.381 0.235,-0.713 0.188,1.13 0.102,-0.44 0.574,0.975 0.217,-0.3 0.542,0.203 0.158,0.688 0.402,-0.968 0.342,1.131 0.524,0.286 -0.136,0.365 0.111,-0.198 0.921,0.839 0.041,0.459 1.403,0.642 0.234,0.29 -0.528,-10e-4 1.27,0.193 -0.192,0.251 0.797,0.22 0.384,-0.495 -0.716,0.238 -0.175,0.375 1.375,0.321 0.146,-0.284 -0.164,0.489 1.014,0.392 0.532,-0.144 -0.099,0.515 1.002,0.608 0.621,0.008 2.134,2.079 1.138,0.325 0.54,1.138 0.209,-0.372 0.48,0.172 0.36,0.915 1.238,0.06 0.219,0.971 0.461,0.513 0.381,-0.478 0.373,0.833 0.482,-0.557 0.464,1.277 -0.109,-0.664 1.404,-0.073 1.347,1.235 0.673,0.862 -0.186,0.087 1.375,0.606 0.096,0.569 1.548,0.857 0.772,1.033 1.036,0.088 0.505,0.428 -0.223,0.18 0.23,0.256 0.432,-0.228 0.478,0.624 0.947,0.19 -0.226,0.28 0.823,-0.198 -0.307,0.388 -0.386,-0.094 0.237,-0.05 -0.301,-0.31 0.304,0.166 -0.108,0.307 -0.875,0.202 0.767,0.069 -0.151,-0.322 0.044,0.347"
       id="path143" />
  </g>
  <g
     id="g144">
    <path
       fill="none"
       stroke="#000000"
       stroke-width="4"
       stroke-linecap="round"
       stroke-linejoin="round"
       d="m -417.756,856.772 0.014,-0.346 0.402,-0.106 -0.526,-0.27 0.319,-0.176 -0.439,-0.031 0.353,-0.018 -0.185,-0.184 0.444,-0.488 -0.216,0.556 0.34,1.302 0.749,0.048 2.032,0.972"
       id="path144" />
  </g>
  <g
     id="g145">
    <path
       fill="none"
       stroke="#000000"
       stroke-width="4"
       stroke-linecap="round"
       stroke-linejoin="round"
       d="m -407.973,862.486 0.117,0.35 5.296,2.204 0.78,-0.078 0.579,0.704 0.851,-0.025 0.68,0.579 0.585,-0.458 0.93,0.823 0.366,-0.256 0.323,1.022"
       id="path145" />
  </g>
  <g
     id="g146">
    <path
       fill="none"
       stroke="#000000"
       stroke-width="4"
       stroke-linecap="round"
       stroke-linejoin="round"
       d="m -512.691,884.617 -0.729,0.425 -0.116,1.869 0.421,0.54 0.854,9.055 0.546,2.643 0.528,5.795 0.792,3.599 0.141,2.902 0.357,0.84 0.596,4.766 0.753,2.229 0.825,5.986 0.39,0.596 -0.18,2.282 0.577,2.853"
       id="path146" />
  </g>
  <g
     id="g147">
    <path
       fill="none"
       stroke="#000000"
       stroke-width="4"
       stroke-linecap="round"
       stroke-linejoin="round"
       d="m -509.577,893.565 -0.01,3.95 0.83,5.666 0.246,4.355 0.565,1.76 0.571,4.707 0.997,2.242 0.296,3.824 0.765,1.516 0.376,3.692 0.692,0.984 -0.014,3.421 1.058,3.597 0.083,1.228"
       id="path147" />
  </g>
  <g
     id="g148">
    <path
       fill="none"
       stroke="#000000"
       stroke-width="4"
       stroke-linecap="round"
       stroke-linejoin="round"
       d="m -503.085,896.593 -0.495,-0.1 -0.332,-0.713 -0.28,0.197 0.581,0.875 0.524,4.622 -0.366,1.626 1.21,5.821 0.24,7.787 0.474,4.393 0.687,1.674 0.229,3.621 0.447,1.036 0.272,0.042 0.496,3.049 1.22,4.385"
       id="path148" />
  </g>
  <g
     id="g149">
    <path
       fill="none"
       stroke="#000000"
       stroke-width="4"
       stroke-linecap="round"
       stroke-linejoin="round"
       d="m -498.744,897.206 0.77,2.542 -0.181,1.122 0.578,3.51 -0.454,1.862 0.785,2.545 0.848,7.288 -0.334,2.086 3.086,18.77"
       id="path149" />
  </g>
  <g
     id="g150">
    <path
       fill="none"
       stroke="#000000"
       stroke-width="4"
       stroke-linecap="round"
       stroke-linejoin="round"
       d="m -492.763,905.063 0.563,2.08 -0.215,3.407 0.879,1.52 -0.342,0.875 -0.232,5.067 1.337,10.465 -0.262,1.814 0.863,2.984 0.593,4.424 -0.208,1.535 1.1,5.409"
       id="path150" />
  </g>
  <g
     id="g151">
    <path
       fill="none"
       stroke="#000000"
       stroke-width="4"
       stroke-linecap="round"
       stroke-linejoin="round"
       d="m -486.453,906.349 -0.028,7.06 -0.273,1.546 0.997,6.409 0.389,5.708 0.735,1.927 1.05,9.825 1.046,5.337"
       id="path151" />
  </g>
  <g
     id="g152">
    <path
       fill="none"
       stroke="#000000"
       stroke-width="4"
       stroke-linecap="round"
       stroke-linejoin="round"
       d="m -481.226,910.609 0.703,0.835 0.527,3.599 0.184,14.778 0.762,5.226 0.57,1.432 0.27,7.019 0.289,0.317 0.166,3.042 0.426,0.288 0.045,0.438"
       id="path152" />
  </g>
  <g
     id="g153">
    <path
       fill="none"
       stroke="#000000"
       stroke-width="4"
       stroke-linecap="round"
       stroke-linejoin="round"
       d="m -475.739,910.42 0.496,0.438 0.715,2.166 -0.025,2.526 -0.527,2.214 1.003,6.745 0.428,8.713 2.597,13.577"
       id="path153" />
  </g>
  <g
     id="g154">
    <path
       fill="none"
       stroke="#000000"
       stroke-width="4"
       stroke-linecap="round"
       stroke-linejoin="round"
       d="m -468.443,918.099 0.777,2.368 -0.367,5.249 0.747,10.117 -0.149,2.247 0.652,5.925 0.342,2.289 0.514,0.989 -0.059,1.751 0.897,3.908 0.57,0.984 0.22,1.246 0.381,0.118"
       id="path154" />
  </g>
  <g
     id="g155">
    <path
       fill="none"
       stroke="#000000"
       stroke-width="4"
       stroke-linecap="round"
       stroke-linejoin="round"
       d="m -463.447,925.113 0.026,15.312 0.494,3.888 0.017,3.472 0.407,1.414 0.389,4.403 -0.211,2.532 0.272,2.527 -0.249,1.044 0.348,2.347 -0.322,1.175 0.313,1.97"
       id="path155" />
  </g>
  <g
     id="g156">
    <path
       fill="none"
       stroke="#000000"
       stroke-width="4"
       stroke-linecap="round"
       stroke-linejoin="round"
       d="m -456.693,924.884 -0.449,0.925 -0.236,2.335 0.408,1.475 0.526,5.493 0.146,6.414 0.581,7.718 0.878,5.765 -0.15,0.902 3.23,8.555"
       id="path156" />
  </g>
  <g
     id="g157">
    <path
       fill="none"
       stroke="#000000"
       stroke-width="4"
       stroke-linecap="round"
       stroke-linejoin="round"
       d="m -511.687,884.049 11.004,-1.681 6.42,-0.505 9.857,-1.804 19.443,-2.712 21.341,-3.933 10.257,-1.577 7.967,-0.893 11.55,-0.554 3.991,0.251 0.245,0.216 -1.779,0.488"
       id="path157" />
  </g>
  <g
     id="g158">
    <path
       fill="none"
       stroke="#000000"
       stroke-width="4"
       stroke-linecap="round"
       stroke-linejoin="round"
       d="m -491.995,887.503 8.255,-2.102 8.324,-1.664 13.858,-1.966 17.25,-3.054 27.249,-4.295 14.632,-2.086 9.973,-1.154"
       id="path158" />
  </g>
  <g
     id="g159">
    <path
       fill="none"
       stroke="#000000"
       stroke-width="4"
       stroke-linecap="round"
       stroke-linejoin="round"
       d="m -495.745,895.579 -0.248,-0.21 0.557,-0.476 1.256,-0.469 11.762,-2.564 20.572,-5.166 33.684,-6.695 10.824,-1.644 15.06,-1.4 6.547,-0.248 0.575,0.758"
       id="path159" />
  </g>
  <g
     id="g160">
    <path
       fill="none"
       stroke="#000000"
       stroke-width="4"
       stroke-linecap="round"
       stroke-linejoin="round"
       d="m -486.87,900.617 2.38,-0.831 6.405,-1.201 28.669,-6.643 13.907,-3.682 8.453,-1.836 26.713,-3.519 14.355,-1.044 0.993,0.55"
       id="path160" />
  </g>
  <g
     id="g161">
    <path
       fill="none"
       stroke="#000000"
       stroke-width="4"
       stroke-linecap="round"
       stroke-linejoin="round"
       d="m -482.427,907.069 -0.014,-0.421 3.535,-1.256 11.604,-3.245 18.859,-4.752 12.836,-2.78 20.349,-3.81 11.061,-1.633 32.707,-3.466"
       id="path161" />
  </g>
  <g
     id="g162">
    <path
       fill="none"
       stroke="#000000"
       stroke-width="4"
       stroke-linecap="round"
       stroke-linejoin="round"
       d="m -467.704,909.933 1.672,-0.828 3.574,-0.737 11.207,-3.223 26.787,-6.039 42.499,-6.678 19.015,-4.071 0.187,-0.018"
       id="path162" />
  </g>
  <g
     id="g163">
    <path
       fill="none"
       stroke="#000000"
       stroke-width="4"
       stroke-linecap="round"
       stroke-linejoin="round"
       d="m -459.876,916.179 1.233,-0.555 17.61,-4.549 22.781,-4.875 25.386,-3.88 33.126,-5.872"
       id="path163" />
  </g>
  <g
     id="g164">
    <path
       fill="none"
       stroke="#000000"
       stroke-width="4"
       stroke-linecap="round"
       stroke-linejoin="round"
       d="m -450.672,920.723 1.846,-0.03 14.197,-4.031 13.433,-2.801 46.273,-7.484 15.181,-2.046 14.244,-2.617"
       id="path164" />
  </g>
  <g
     id="g165">
    <path
       fill="none"
       stroke="#000000"
       stroke-width="4"
       stroke-linecap="round"
       stroke-linejoin="round"
       d="m -441.239,924.224 1.954,-0.514 56.194,-8.349 22.184,-2.831 24.759,-4.482"
       id="path165" />
  </g>
  <g
     id="g166">
    <path
       fill="none"
       stroke="#000000"
       stroke-width="4"
       stroke-linecap="round"
       stroke-linejoin="round"
       d="m -431.207,941.005 0.976,-0.403 7.4,-1.069 6.602,-1.808 11.634,-2.315 5.025,-1.534 2.707,-0.174"
       id="path166" />
  </g>
  <g
     id="g167">
    <path
       fill="none"
       stroke="#000000"
       stroke-width="4"
       stroke-linecap="round"
       stroke-linejoin="round"
       d="m -417.01,948.268 3.589,-1.445 10.056,-1.651 5.048,-1.044 2.101,-0.838 2.511,-0.248 0.193,-0.259 0.006,0.392"
       id="path167" />
  </g>
  <g
     id="g168">
    <path
       fill="none"
       stroke="#000000"
       stroke-width="4"
       stroke-linecap="round"
       stroke-linejoin="round"
       d="m -427.832,957.03 0.515,0.446 10.427,-1.06 13.904,-2.834 6.172,-0.847 8.513,-2.491 1.772,-0.009"
       id="path168" />
  </g>
  <g
     id="g169">
    <path
       fill="none"
       stroke="#000000"
       stroke-width="4"
       stroke-linecap="round"
       stroke-linejoin="round"
       d="m -381.974,931.835 6.447,-0.826 1.309,-0.501 2.683,-0.351 11.381,-2.575 13.551,-2.363 0.492,-0.331 -0.673,0.381"
       id="path169" />
  </g>
  <g
     id="g170">
    <path
       fill="none"
       stroke="#000000"
       stroke-width="4"
       stroke-linecap="round"
       stroke-linejoin="round"
       d="m -377.543,940.759 9.53,-1.843 17.349,-2.577 1.35,-0.544 -0.688,0.456"
       id="path170" />
  </g>
  <g
     id="g171">
    <path
       fill="none"
       stroke="#000000"
       stroke-width="4"
       stroke-linecap="round"
       stroke-linejoin="round"
       d="m -374.486,946.791 7.406,-1.317 1.189,-0.545 3.324,-0.596 16.532,-4.58"
       id="path171" />
  </g>
  <g
     id="g172">
    <path
       fill="none"
       stroke="#000000"
       stroke-width="4"
       stroke-linecap="round"
       stroke-linejoin="round"
       d="m -415.971,856.037 -0.803,-0.082 0.153,-0.179 0.208,0.349 0.06,-0.712 0.114,0.714 1.576,1.696 2.463,1.299 1.155,0.497 2.693,0.319 4.129,2.28 0.502,-0.213 0.965,0.553 1.03,0.111 0.179,0.313 0.636,-0.176 1.558,0.819 0.042,-0.2 0.54,0.52 -0.045,-0.435 0.739,0.615 0.142,-0.343 1.315,1.086 0.464,-0.176 0.232,0.592 1.054,0.4 0.686,0.738 1.426,0.269 0.194,0.492 0.439,-0.104 2.878,1.751 2.101,2.01 1.868,0.854 1.089,1.191 0.861,0.276 1.218,1.137 0.243,-0.152 1.413,0.732 0.084,0.409 2.496,1.386 0.798,0.143 1.409,1.137 0.181,-0.322 0.489,0.702 0.316,-0.397 0.436,0.798 0.307,-0.148 0.552,0.982 1.806,1.619 6.019,3.734 4.486,4.138 4.242,2.331 1.589,1.405 1.13,0.5 1.071,1.01 0.337,-0.067 0.57,0.772 0.202,-0.354 1.29,1.794 0.429,-0.31 0.473,0.981 0.759,0.265 0.912,1.02 3.707,2.233 0.204,0.492 0.602,0.021 1.449,1.197 4.31,2.284 2.232,2.23 -0.132,0.221 0.463,-0.014 -0.012,0.278 -0.111,-0.217 0.256,-0.003 0.127,0.295 0.123,-0.4 0.337,0.878 0.182,-0.423 -0.552,0.633 -0.844,-0.271 -0.424,0.35 -2.614,0.457 -3.314,-0.819"
       id="path172" />
  </g>
  <g
     id="g256">
    <path
       fill="#201c1c"
       fill-rule="evenodd"
       opacity="0.500008"
       d="m -364.25,989.75 -1.25,0.25 -2.5,-2.5 0.25,-1.25 1.25,-0.25 2.5,2.5 -0.25,1.25"
       id="path256" />
  </g>
  <g
     id="g257">
    <path
       fill="#201c1c"
       fill-rule="evenodd"
       opacity="0.500008"
       d="m -339,1012 -8.25,-10.75 -1.25,-0.25 -1.5,-1.5 -0.5,-1.5 -2.75,-4.75 -1.5,-0.5 -0.75,-1.75 -1,-2 -0.5,-1.5 -2,-2 0.5,-0.5 1.5,0.375 3.5,0.625 2,2 h 1 l 7.5,7.5 0.5,1.5 2,5 1,4 0.5,6"
       id="path257" />
  </g>
  <g
     id="g258">
    <path
       fill="#201c1c"
       fill-rule="evenodd"
       opacity="0.500008"
       d="m -376,986 h -1 v -1 h 1 v 1"
       id="path258" />
  </g>
  <g
     id="g259">
    <path
       fill="#201c1c"
       fill-rule="evenodd"
       opacity="0.500008"
       d="m -359,985 h -1 v -1 h 1 v 1"
       id="path259" />
  </g>
  <g
     id="g260">
    <path
       fill="#000000"
       fill-rule="evenodd"
       d="m -482.25,1035.88 -5.75,-0.63 -1.75,-0.5 -0.25,-2.25 1.5,-1.5 h 3 l 1,-1 2.5,2.5 -0.25,3.38"
       id="path260" />
  </g>
  <g
     id="g264">
    <path
       fill="#201c1c"
       fill-rule="evenodd"
       opacity="0.500008"
       d="m -407.5,922 h -2.5 l 0.5,-1 h 2.5 l -0.5,1"
       id="path264" />
  </g>
  <g
     id="g265">
    <path
       fill="#000000"
       fill-rule="evenodd"
       d="m -484.5,1023 h -2 l -1.5,-1.5 -1,-8 -2,-2 -1,-6 3.5,-3.5 5.5,-3.5 1.5,-0.5 1.5,-1.5 -0.75,-6.5 -1.5,-4.75 -4.25,-1.25 -2.5,2.5 -0.5,1.5 -1,2 -0.75,1.75 h -2.5 l -0.25,-1.25 1,-1 -1,-1 v -3 l 3,-3 v -1 l 1.5,-1.5 6,-1 2,2 1.25,0.25 0.5,1.5 1.5,0.5 1.25,4.25 1,1 -1,1 0.5,0.5 1.25,0.25 -0.25,5.75 0.5,2.5 -2.5,2.5 -1.5,0.5 -4,2 -1.5,0.5 -2.5,2.5 v 3 l 3,3 0.5,1.5 0.25,2 -0.75,4.5 -1,1 1,1 -0.5,0.5"
       id="path265" />
  </g>
  <g
     id="g266">
    <path
       fill="#201c1c"
       fill-rule="evenodd"
       opacity="0.500008"
       d="M -463.25,958.75 -467.5,958 h -0.5 l 0.5,-1 4.25,0.125 v 1.625"
       id="path266" />
  </g>
  <g
     id="g267">
    <path
       fill="#201c1c"
       fill-rule="evenodd"
       opacity="0.500008"
       d="m -472.5,963 -4.5,-0.625 -4.5,-1.375 -3.5,-3.5 v -1 l -1,-1 0.5,-0.5 2.5,0.625 2,0.875 2.5,1.5 3.5,2.5 2.5,1.5 h 0.5 l -0.5,1"
       id="path267" />
  </g>
  <g
     id="g268">
    <path
       fill="#201c1c"
       fill-rule="evenodd"
       opacity="0.500008"
       d="m -479,945 -1,-0.5 V 941 l 1,0.5 v 3.5"
       id="path268" />
  </g>
  <g
     id="g269">
    <path
       fill="#201c1c"
       fill-rule="evenodd"
       opacity="0.500008"
       d="m -466.5,953 -5.5,-3.5 -1.5,-0.5 -1.5,-1.5 v -7 l -1,-1 1.5,-1.5 0.5,0.5 0.25,1.5 1.5,6 0.25,1.5 1.5,1.5 2,-2 1.375,0.25 0.125,4.25 1,1 -0.5,0.5"
       id="path269" />
  </g>
  <g
     id="g270">
    <path
       fill="#201c1c"
       fill-rule="evenodd"
       opacity="0.500008"
       d="m -450.5,954 -1.25,-0.25 -2,-13.75 v -2.75 l 2.75,-0.875 2,-0.125 v 16.25 l -1.5,1.5"
       id="path270" />
  </g>
  <g
     id="g271">
    <path
       fill="#201c1c"
       fill-rule="evenodd"
       opacity="0.500008"
       d="m -474,936 h -1 v -1 h 1 v 1"
       id="path271" />
  </g>
  <g
     id="g272">
    <path
       fill="#201c1c"
       fill-rule="evenodd"
       opacity="0.500008"
       d="m -480,935 -1,-1 v -1 l 1,0.5 v 1.5"
       id="path272" />
  </g>
  <g
     id="g273">
    <path
       fill="#201c1c"
       fill-rule="evenodd"
       opacity="0.500008"
       d="m -495,934 h -1 v -1 h 1 v 1"
       id="path273" />
  </g>
  <g
     id="g274">
    <path
       fill="#201c1c"
       fill-rule="evenodd"
       opacity="0.500008"
       d="m -500,932 h -1 v -1 h 1 v 1"
       id="path274" />
  </g>
  <g
     id="g275">
    <path
       fill="#201c1c"
       fill-rule="evenodd"
       opacity="0.500008"
       d="m -496,930 -1,-0.5 V 927 l 1,0.5 v 2.5"
       id="path275" />
  </g>
  <g
     id="g276">
    <path
       fill="#201c1c"
       fill-rule="evenodd"
       opacity="0.500008"
       d="m -453.5,933 -0.5,-0.5 v -8 l 0.5,-0.5 1.5,1.5 -1,3 2.5,2.5 h 1.5 l -0.5,1 h -3 l -1,1"
       id="path276" />
  </g>
  <g
     id="g277">
    <path
       fill="#201c1c"
       fill-rule="evenodd"
       opacity="0.500008"
       d="m -492,927 -1,-0.5 V 924 l 1,0.5 v 2.5"
       id="path277" />
  </g>
  <g
     id="g278">
    <path
       fill="#201c1c"
       fill-rule="evenodd"
       opacity="0.500008"
       d="m -497,927 -1,-0.5 V 921 l 1,0.5 v 5.5"
       id="path278" />
  </g>
  <g
     id="g296">
    <path
       fill="#201c1c"
       fill-rule="evenodd"
       opacity="0.500008"
       d="m -429,942.625 34.75,-7.875 v -2.625 l -6.75,0.5 -29.5,6.375 -1.5,1.5 0.25,2.25 2.75,-0.125 m 15,6.875 18,-3.875 4.75,-0.75 0.25,-2.375 -1.5,-1.5 -3.5,0.5 -4,1 -11,2 -5.5,1.5 -1.5,1.5 0.25,2.25 3.75,-0.25 m -9,16.5 -8.75,0.875 -0.5,-1.875 -0.875,-4.75 -4.375,-1.25 -4.5,-4.5 -1.25,-3.25 -1.75,-0.5 v -14.5 l 1.5,-0.25 2,2 2.5,-2.5 -1,-1 0.5,-0.5 52.5,-13.5 31.5,-4.5 4.5,4.5 0.5,1.5 0.25,1.75 -31.25,6.25 -1.5,1.5 v 1 l 1.5,1.5 28.5,-5.5 3.75,-0.25 -0.125,1.75 -0.625,2.5 -2.5,2.5 -18.5,2.5 -5,1.25 -1.5,0.25 -1.5,1.5 2.5,2.5 1.5,-0.25 13.5,-2.75 0.5,0.5 -1.5,1.5 -12.25,3.25 -0.25,1.25 -1.5,1.5 -1.5,0.375 -3,1.125 -2.5,0.5 -2,-2 -3.5,0.5 -7,2 -21,3.875 -10.5,0.625 -1.5,1.5 v 1 l 1.5,1.5 10.5,-0.625 15,-2.875 4.5,-0.5 0.5,0.5 -1.5,1.5 -1.5,0.375 -6.5,2.625 -3.5,3 -1,-0.25 -4.5,-0.75 -3,3 -1,-1 h -2 l -1.5,2"
       id="path296" />
  </g>
  <g
     id="g297">
    <path
       fill="#201c1c"
       fill-rule="evenodd"
       opacity="0.500008"
       d="m -377.5,898 h -1.5 l 0.5,-1 h 1.5 l -0.5,1"
       id="path297" />
  </g>
  <g
     id="g298">
    <path
       fill="#201c1c"
       fill-rule="evenodd"
       opacity="0.500008"
       d="m -442.5,931 -4.5,-3.5 -1,-4 1.5,-1.5 6.5,-1.5 72,-13 6.75,-0.375 v 3.75 L -440.5,922 l -1.5,1.5 0.25,2.375 30.25,-3.875 h 0.5 l -0.5,1 -23.5,5.5 -3,1 -3.5,0.5 -1,1"
       id="path298" />
  </g>
  <g
     id="g299">
    <path
       fill="#201c1c"
       fill-rule="evenodd"
       opacity="0.500008"
       d="m -382,899 h -1 v -1 h 1 v 1"
       id="path299" />
  </g>
  <g
     id="g300">
    <path
       fill="#201c1c"
       fill-rule="evenodd"
       opacity="0.500008"
       d="m -440.5,881 h -1.5 l 0.5,-1 h 1.5 l -0.5,1"
       id="path300" />
  </g>
  <g
     id="g301">
    <path
       fill="#201c1c"
       fill-rule="evenodd"
       opacity="0.500008"
       d="m -435,880 h -1 v -1 h 1 v 1"
       id="path301" />
  </g>
  <g
     id="g302">
    <path
       fill="#201c1c"
       fill-rule="evenodd"
       opacity="0.500008"
       d="m -408.5,876 h -1.5 l 0.5,-1 h 1.5 l -0.5,1"
       id="path302" />
  </g>
  <g
     id="g303">
    <path
       fill="#201c1c"
       fill-rule="evenodd"
       opacity="0.500008"
       d="m -402,875 h -1 v -1 h 1 v 1"
       id="path303" />
  </g>
  <g
     id="g304">
    <path
       fill="#201c1c"
       fill-rule="evenodd"
       opacity="0.500008"
       d="m -436,875.5 -7,0.5 0.5,-1 12.5,-1 -0.5,1 -5.5,0.5"
       id="path304" />
  </g>
  <g
     id="g305">
    <path
       fill="#201c1c"
       fill-rule="evenodd"
       opacity="0.500008"
       d="m -423.5,874 h -6.5 l 0.5,-1 h 6.5 l -0.5,1"
       id="path305" />
  </g>
  <g
     id="g306">
    <path
       fill="#201c1c"
       fill-rule="evenodd"
       opacity="0.500008"
       d="m -457.5,957 -1.375,-0.25 -2.125,-32.25 -1.5,-1.5 -1.25,0.25 -0.25,1.25 v 0.5 l -1,-0.5 0.125,-6.25 1.875,0.25 4,2 1.5,0.5 1.5,1.5 -2,2 v 2 l -1,1 1,1 2,27 -1.5,1.5"
       id="path306" />
  </g>
  <g
     id="g307">
    <path
       fill="#201c1c"
       fill-rule="evenodd"
       opacity="0.500008"
       d="m -465,918 h -1 v -1 h 1 v 1"
       id="path307" />
  </g>
  <g
     id="g308">
    <path
       fill="#201c1c"
       fill-rule="evenodd"
       opacity="0.500008"
       d="m -498,921 -1,-0.5 V 916 l 1,0.5 v 4.5"
       id="path308" />
  </g>
  <g
     id="g309">
    <path
       fill="#201c1c"
       fill-rule="evenodd"
       opacity="0.500008"
       d="M -451,919.625 -455.5,918 h -0.5 l 0.5,-1 2.5,-0.5 82,-16 6.5,-0.5 2.5,2.5 -0.5,0.5 -66.5,10.5 -19,5 -3,1.125"
       id="path309" />
  </g>
  <g
     id="g310">
    <path
       fill="#201c1c"
       fill-rule="evenodd"
       opacity="0.500008"
       d="m -493,920 -1,-0.5 V 914 l 1,0.5 v 5.5"
       id="path310" />
  </g>
  <g
     id="g311">
    <path
       fill="#201c1c"
       fill-rule="evenodd"
       opacity="0.500008"
       d="m -468,945 -1,-0.5 -3,-31 0.5,-0.5 1,1 h 1 l 1.5,1.5 -1,19 1,1 -1,1 1,8 v 0.5"
       id="path311" />
  </g>
  <g
     id="g312">
    <path
       fill="#201c1c"
       fill-rule="evenodd"
       opacity="0.500008"
       d="m -475,935 -1.125,-1.5 -1.75,-20.5 0.125,-1.75 h 1.75 l 1,23.75"
       id="path312" />
  </g>
  <g
     id="g313">
    <path
       fill="#201c1c"
       fill-rule="evenodd"
       opacity="0.500008"
       d="m -493,912 h -1 v -1 h 1 v 1"
       id="path313" />
  </g>
  <g
     id="g314">
    <path
       fill="#201c1c"
       fill-rule="evenodd"
       opacity="0.500008"
       d="m -498,913 -1,-0.5 V 909 l 1,0.5 v 3.5"
       id="path314" />
  </g>
  <g
     id="g315">
    <path
       fill="#201c1c"
       fill-rule="evenodd"
       opacity="0.500008"
       d="m -481,932 -1,-0.5 -2,-24.5 1,0.5 1.25,5.5 0.75,19"
       id="path315" />
  </g>
  <g
     id="g316">
    <path
       fill="#201c1c"
       fill-rule="evenodd"
       opacity="0.500008"
       d="m -442,909.5 -4,1 -12,3.125 -2,0.875 h -2 l -1.5,-0.5 -2.5,-2.5 0.5,-0.5 3.5,-0.5 68,-14 7,0.25 1.5,0.25 1.5,1.5 -0.5,0.5 -44.5,7.5 -13,3"
       id="path316" />
  </g>
  <g
     id="g317">
    <path
       fill="#201c1c"
       fill-rule="evenodd"
       opacity="0.500008"
       d="m -439,900.5 -5,1 -19,5 -3.5,0.5 -2,2 h -3 l -2,-2 h -1.5 l 0.5,-1 3.5,-0.5 65,-14 16.75,-1.375 v 1.75 l -36.75,5.625 -13,3"
       id="path317" />
  </g>
  <g
     id="g318">
    <path
       fill="#201c1c"
       fill-rule="evenodd"
       opacity="0.500008"
       d="m -499,908 -1,-0.5 V 899 l 1,0.5 v 8.5"
       id="path318" />
  </g>
  <g
     id="g319">
    <path
       fill="#201c1c"
       fill-rule="evenodd"
       opacity="0.500008"
       d="m -485.125,936.75 h -1.75 L -489,910.5 l -1,-1 1,-1 -1,-4 -1.5,-1.5 h -1 l -1.5,1.5 1,4 -0.5,0.5 -1.5,-1.5 v -9 l 0.5,-0.5 2,2 4,2 2.5,2.5 -2,2 0.5,11.5 2.375,18.75"
       id="path319" />
  </g>
  <g
     id="g320">
    <path
       fill="#201c1c"
       fill-rule="evenodd"
       opacity="0.500008"
       d="m -495,898 h -1 v -1 h 1 v 1"
       id="path320" />
  </g>
  <g
     id="g321">
    <path
       fill="#201c1c"
       fill-rule="evenodd"
       opacity="0.500008"
       d="m -500,899 -1,-1 v -1 l 1,0.5 v 1.5"
       id="path321" />
  </g>
  <g
     id="g322">
    <path
       fill="#201c1c"
       fill-rule="evenodd"
       opacity="0.500008"
       d="m -499.5,896 h -1.5 l 0.5,-1 h 1.5 l -0.5,1"
       id="path322" />
  </g>
  <g
     id="g323">
    <path
       fill="#201c1c"
       fill-rule="evenodd"
       opacity="0.500008"
       d="m -439,893.5 -5,1 -31,7.875 -4.5,0.625 -1.5,-1.5 0.5,-0.5 3.5,-0.5 73,-15 15.75,-1.375 V 886 l -9.75,0.5 -37,6 -4,1"
       id="path323" />
  </g>
  <g
     id="g324">
    <path
       fill="#201c1c"
       fill-rule="evenodd"
       opacity="0.500008"
       d="m -440,887.5 -4,1 -41.5,9.5 -1,1 -2,-2 h -1 l -0.5,-0.5 1.5,-1.5 8.5,-1.5 62,-12.875 24.75,-1.625 0.25,-1.5 0.5,-0.5 2.5,2.5 -0.5,0.5 -36.5,4.5 -13,3"
       id="path324" />
  </g>
  <g
     id="g325">
    <path
       fill="#201c1c"
       fill-rule="evenodd"
       opacity="0.500008"
       d="m -455.5,884 h -3.5 l 0.5,-1 h 3.5 l -0.5,1"
       id="path325" />
  </g>
  <g
     id="g326">
    <path
       fill="#201c1c"
       fill-rule="evenodd"
       opacity="0.500008"
       d="m -450.5,883 h -3.5 l 0.5,-1 h 3.5 l -0.5,1"
       id="path326" />
  </g>
  <g
     id="g327">
    <path
       fill="#201c1c"
       fill-rule="evenodd"
       opacity="0.500008"
       d="m -445.5,882 h -2.5 l 0.5,-1 h 2.5 l -0.5,1"
       id="path327" />
  </g>
  <g
     id="g328">
    <path
       fill="#201c1c"
       fill-rule="evenodd"
       opacity="0.500008"
       d="m -494.5,893 -3,-1 -4,-4 -1.25,-0.25 v -1.5 l 3.75,-1.5 25.5,-3.75 h 0.5 l -0.5,1 -5.5,0.5 -12.5,2.5 -1.5,1.5 0.25,2.375 5.75,-0.375 21,-4 6,-0.5 -0.5,1 -4.5,0.5 -28.5,6.5 -1,1"
       id="path328" />
  </g>
  <g
     id="g329">
    <path
       fill="#201c1c"
       fill-rule="evenodd"
       opacity="0.500008"
       d="m -466.5,881 h -6.5 l 0.5,-1 h 6.5 l -0.5,1"
       id="path329" />
  </g>
  <g
     id="g330">
    <path
       fill="#201c1c"
       fill-rule="evenodd"
       opacity="0.500008"
       d="m -460.5,880 h -4.5 l 0.5,-1 h 4.5 l -0.5,1"
       id="path330" />
  </g>
  <g
     id="g331">
    <path
       fill="#201c1c"
       fill-rule="evenodd"
       opacity="0.500008"
       d="m -454.5,879 h -5.5 l 0.5,-1 h 5.5 l -0.5,1"
       id="path331" />
  </g>
  <g
     id="g332">
    <path
       fill="#201c1c"
       fill-rule="evenodd"
       opacity="0.500008"
       d="m -480.5,878 h -1.5 l 0.5,-1 h 1.5 l -0.5,1"
       id="path332" />
  </g>
  <g
     id="g333">
    <path
       fill="#201c1c"
       fill-rule="evenodd"
       opacity="0.500008"
       d="m -443.5,877 -10.5,1 0.5,-1 10.5,-1 -0.5,1"
       id="path333" />
  </g>
  <g
     id="g334">
    <path
       fill="#201c1c"
       fill-rule="evenodd"
       opacity="0.500008"
       d="m -437,870.5 -7,1 -35.5,5.5 h -0.5 l 0.5,-1 2.5,-0.5 15,-3.875 34,-6.125 10.75,-2.75 0.25,-2.25 0.5,-0.5 3.5,3.5 0.375,1.5 0.375,2.75 -24.75,2.75"
       id="path334" />
  </g>
  <g
     id="g335">
    <path
       fill="#201c1c"
       fill-rule="evenodd"
       opacity="0.500008"
       d="m -512,909 -1.375,-1.5 -0.375,-4.25 h 1.625 L -512,909"
       id="path335" />
  </g>
  <g
     id="g336">
    <path
       fill="#201c1c"
       fill-rule="evenodd"
       opacity="0.500008"
       d="m -513.25,898.75 h -1.5 l -0.25,-3.25 0.5,-0.5 1.5,1.5 -0.25,2.25"
       id="path336" />
  </g>
  <g
     id="g337">
    <path
       fill="#201c1c"
       fill-rule="evenodd"
       opacity="0.500008"
       d="m -503.25,911.75 h -1.5 l -2.375,-19.5 -2.625,-0.5 v -1.5 l 1.25,-0.25 1,-1 2,2 4.25,2.25 0.25,1.25 -0.5,0.5 -1,-1 -2.375,0.25 0.5,4.75 -0.375,5 1.375,5 0.125,2.75"
       id="path337" />
  </g>
  <g
     id="g921">
    <path
       fill="#000000"
       fill-rule="evenodd"
       d="m -334,1074.38 -4.75,-0.63 v -2.5 l 2.5,-0.5 V 1069 l -0.625,-4.75 h 1.625 l 0.25,1.25 0.5,0.5 1,-1 1.5,1.5 -1.25,3.25 -1.25,0.25 h -0.5 l 0.5,1 h 1 l 1.5,1.5 -0.25,1.25 -1.75,0.63"
       id="path921" />
  </g>
  <g
     id="g922">
    <path
       fill="#201c1c"
       fill-rule="evenodd"
       opacity="0.500008"
       d="m -376.5,1071 -1,-1 -1,1 -9.5,-0.75 -3,-0.87 -4.5,-2.38 -1.5,-1.5 -1.5,-2.5 -5.5,-7.5 -1.375,-2.5 -2,-5 -0.875,-3 v -22 l 0.875,-3 2,-5 7.875,-13 0.5,-1.5 6.5,-6.5 1.25,-0.25 0.25,-1.25 1.5,-1.5 6.5,0.125 1,38.375 -1,1 1,1 -1,1 0.125,7.25 2.875,-0.37 2,-0.75 25.5,-0.63 1.5,-1.5 v -1 l -1.5,-1.5 -3.5,0.63 -2,-0.13 -2,-0.37 -18.75,-0.25 -0.25,-1.38 1,-1 -1,-1 1,-1 -1,-39.25 4.5,-1.25 4,4 h 1 l 2,2 4,1 1,1 1.5,-1.5 v -1 l 0.5,-0.5 2.5,2.5 2.5,4.5 0.75,1.75 1.25,0.25 2.5,2.5 v 1 l 1.5,1.5 1.25,0.25 0.75,1.75 3,5 2,5 2,8 -0.125,7 -2,7 -1.875,4 -4.5,6.5 -2.5,2.5 -2,1 -5.5,3.5 -2,1 -1.75,0.75 -0.25,1.25 -5.5,5.5 -4.5,1.38 -4.5,0.62 -1,1"
       id="path922" />
  </g>
  <g
     id="g923">
    <path
       fill="#000000"
       fill-rule="evenodd"
       d="m -308,1065.63 -1.75,0.12 -6.25,-57.25 -1,-1 1,-1 -1.375,-6.5 -0.625,-7.5 -1,-1 1,-1 -1,-29 1,-1 -0.5,-0.5 -30.25,2 0.375,-3 0.625,-1.75 1.25,-0.25 1.5,-1.5 -1,-1 0.25,-2.25 1.25,-0.25 3,-3 9,-1 1.5,1.5 v 1 l -1.5,1.5 h -2.5 l 0.5,1 3.5,-0.625 1.5,-0.375 1.5,-1.5 v -1 l 1.5,-1.5 h 1 l 1,1 0.5,-0.5 0.25,-2.25 2.25,-0.25 2,2 1.25,-0.25 0.5,-2.5 1.75,-0.5 8.5,-0.75 1.5,1.5 -1.25,3.25 -2.5,0.5 -0.25,1.25 0.5,0.5 1,-1 1,1 11,2 1,-1 1,1 1.25,0.25 0.25,2.25 -1.5,1.5 -10.5,1.125 V 980.5 l 1,1 -1,1 0.375,1.5 0.25,11 0.375,1.5 -1,1 1,1 0.5,4.5 1.5,5.5 -1,1 1,1 -1,1 -0.25,1.25 -1.625,0.5 2.875,23.25 -1,1 1,1 v 18 l -3,3 1,1 v 2 l -1,1 1,1 -0.5,0.5 -3.5,0.63 M -336,954 v -1 h -1 v 1 h 1 m 22,9 v -1.5 l -1,-0.5 v 1 l 1,1 m 0,5 v -2.5 l -1,-0.5 v 2.5 l 1,0.5 m 4.75,50.75 0.25,-1.25 -1,-1 1,-1 -1,-1 1,-1 -1,-1 v -9 l -1,-1 1,-1 -1,-1 v -6 l 1,-1 -1,-1 -2,-22 -1.5,-1.5 -0.5,0.5 4.125,49.25 h 1.625 m 0.25,5.25 v -1.5 l -1,-0.5 v 1 l 1,1 m 0,2 v -1 h -1 v 1 h 1"
       id="path923" />
  </g>
  <g
     id="g924">
    <path
       fill="#000000"
       fill-rule="evenodd"
       d="m -423,966 1.5,-2 h 2 l 1,1 3,-3 4.5,0.75 1,0.25 0.25,2 12.25,1 1,-1 1,1 8.5,0.75 4.75,1.5 0.25,1.25 -1.5,1.5 h -15 l -1,1 -1,-1 -1,1 -8.5,0.75 -10,2.75 -4.5,0.5 -1.5,1.5 7,7 1,4 3,3 -0.5,0.5 -4,1 -1.5,-1.5 -0.5,-1.5 -1,-2 -0.75,-1.75 -1.5,-0.5 -0.25,-1.25 -2.5,-2.5 -1.5,1.5 v 1 l 1,1 -2,2 v 26 l -1,1 1,1 v 3 l -1,1 1,1 v 4 l -1,1 1,1 -1,3 1,1 -1,1 1,1 v 2 l -1,1 1,1 -1,1 -1,29 -1,1 1,1 -1,1 v 19.38 l 9.75,-0.75 1.25,5.37 -1,1 0.5,0.5 1.25,0.25 0.25,2.25 -2.5,2.5 -5.5,0.75 -5,2.63 -2.5,0.62 -1.5,1.5 0.5,1.5 0.25,1.88 -4.25,0.12 -1.5,-1.5 v -1 l -1,-1 1,-1 -0.25,-1.25 -1.5,-0.5 -0.5,-3.5 -1.75,-0.5 -4.5,-0.75 -3,-3 -2,-1 -2.25,-0.75 -0.25,2.25 -2.5,2.5 -1.25,-0.25 -1.25,-4.25 -1.5,-1.5 -2,-1 -6.5,-4.37 -2.5,-0.63 -2,-2 h -1 l -2,-2 -2.5,-0.5 -11.75,-4.75 -0.25,-2.25 1,-1 -1,-1 v -1 l 1.5,-1.5 h 2 l 2,2 4,1 0.5,-0.5 -1.5,-1.5 -3,-1 -6.5,-6.5 0.25,-2.25 h 3.5 l 0.5,1.5 2.25,1.25 5.5,3.5 2,1 8,6 21,12 1.5,0.5 2,2 4,1 2,2 1,-1 4.375,-0.12 -0.375,-7.88 -2.125,-18 -1.125,-6 0.75,-61.75 -1.5,-0.25 -1.5,-1.5 1,-1 3.25,-12.25 1.5,-0.5 0.5,-1.5 1.75,0.25 1.875,0.75 0.125,6.75 1,-0.5 v -8.25 l 1.5,-0.25 1,1 0.5,-0.5 v -3 l 3.5,-3.5 3.25,-1.25 0.75,-2.75 0.5,-3 m 13,0 v -1 h -1 v 1 h 1 m -10,1 v -1 h -1 v 1 h 1 m 2.5,2 0.5,-1 h -2.5 l -0.5,1 h 2.5 m -11.5,13 v -1 h -1 v 1 h 1 m -5,15 v -7.5 l -1,-0.5 v 7.5 l 1,0.5 m 0,3 v -1.5 l -1,-0.5 v 1 l 1,1 m 0,6 v -1.5 l -1,-0.5 v 1 l 1,1 m -47.5,70 0.5,-0.5 -2.5,-2.5 h -2 l -0.5,0.5 1.5,1.5 3,1 m 1.5,1 v -1 h -1 v 1 h 1 m 2,1 v -1 h -1 v 1 h 1 m 1.5,1 0.5,-1 h -1.5 l -0.5,1 h 1.5 m 5.5,3 v -1 h -1 v 1 h 1 m 10,14 v -1 h -1 v 1 h 1"
       id="path924" />
  </g>
</g>
</svg>
