<?xml version="1.0" encoding="UTF-8" standalone="no"?>
<svg
   width="214.4845"
   height="223.37659"
   viewBox="-702 0 214.4845 223.37659"
   version="1.2"
   id="svg924"
   xmlns="http://www.w3.org/2000/svg"
   xmlns:svg="http://www.w3.org/2000/svg"><defs
   id="defs924" />
<title
   id="title1">Notebook 3</title>
\n<g
   id="g942"
   transform="matrix(1.2259481,0,0,0.93855712,-1066.1066,-144.5378)">
  <g
     id="g927">
    <g
       id="g1">
      <path
         fill="none"
         stroke="#000000"
         stroke-width="4"
         stroke-linecap="round"
         stroke-linejoin="round"
         d="m 450.146,174.965 -1.059,-2.111 -1.132,-1.22 0.286,0.255 0.099,-0.208 0.263,1.504 -0.516,11.046 0.261,8.37 1.498,15.025 0.28,8.131 1.676,8.656 -0.086,1.42 0.822,3.345 -0.008,1.238 0.699,2.18 -0.026,1.38 1.595,4.396"
         id="path1" />
    </g>
    <g
       id="g2">
      <path
         fill="none"
         stroke="#000000"
         stroke-width="4"
         stroke-linecap="round"
         stroke-linejoin="round"
         d="m 448.242,162.435 -0.497,-1.983 0.05,-1.067 0.278,-1.412 0.473,0.486 0.214,-0.404 -0.319,2.048 0.385,0.487 -0.35,2.145 0.145,4.645 0.285,2.622 0.728,1.563 0.288,2.689 0.346,0.568 0.389,5.138 0.468,1.743 0.066,5.81 0.471,0.735 -0.236,2.863 0.03,0.954 0.418,0.701 -0.111,6.162 0.396,0.463 0.049,5.064 0.615,3.413 -0.006,4.453 0.328,0.94 -0.311,1.26 0.275,0.877 -0.295,2.244 0.592,3.928 -0.059,5.236 0.499,4.189 -0.387,1.636 0.31,1.355 -0.397,1.043 0.291,1.076 0.129,-0.484 -0.257,1.612 0.273,0.826 -0.347,1.196 0.566,8.207 0.382,1.292 0.222,9.076 0.562,4.875 -0.382,1.443 0.821,5.4 -0.339,1.6 0.63,2.481 -0.139,1.54 0.689,1.839 -0.117,0.603 0.523,2.141 0.214,6.442 0.739,6.737 -0.216,1.624 1.18,6.385 0.913,8.365 -0.222,1.218 0.753,3.111 -0.2,1.278 0.607,5.638 0.436,1.262 -0.218,0.619 0.149,2.096 0.374,0.99 0.033,3.766 0.58,0.471 0.129,0.604 -0.362,0.581 -0.223,3.983 0.348,9.599 1.786,6.913 0.382,3.441 -0.174,0.859 0.359,0.562 -0.253,0.839 0.696,0.565 -0.271,0.313 0.243,1.414 -0.216,1.061 0.789,0.987 -0.374,1.484 0.526,1.479 -0.125,0.195 -0.145,-0.318 0.046,0.438 -0.711,-4.523 0.09,-3.855 -0.256,-1.541 0.304,-0.854 -0.346,-2.135 -0.279,-0.26 -0.029,-2.049 -0.327,-0.498 0.09,-2.689 -0.501,-1.843 0.047,-2.645 -0.582,-2.02 0.2,-3.015 -0.523,-2.653 -1.225,-14.261 -0.566,-3.636 -0.267,-8.213 -1.043,-12.349 -0.582,-1.54 0.113,-1.694 -0.717,-0.929 0.211,-2.766 -0.472,-0.822 0.15,-1.015 -0.409,-1.857 0.118,-2.287 -0.249,-1.328 0.337,-6.271 -0.187,-5.415 -0.547,-1.732 -0.143,-3.029 -0.505,-0.862 -0.239,0.952 0.465,1.729 -0.161,1.48 0.952,5.611 0.468,6.414 0.528,0.689 0.13,1.118 -0.222,1.199 0.255,4.015 0.539,2.165 0.214,6.827 0.562,1.699 -0.024,4.722 0.475,2.34 0.006,4.715 0.529,4.821 1.018,5.38 -0.169,-2.721 -0.218,0.925 0.292,-2.398 0.465,-0.85 -0.3,-0.567 -0.193,-8.011 0.441,-2.236 -0.421,-1.173 -0.413,-5.144 -0.464,-7.671 0.214,-2.549 -1.094,-13.822 0.172,3.043 -0.314,2.45 0.371,1.015 0.524,7.579 3.895,28.244 0.783,8.346 0.868,3.542 1.308,16.757 0.573,2.702 0.242,5.434 0.546,1.599 0.197,2.526 0.291,0.24 0.396,1.835 0.111,-0.967 -0.434,-1.331 0.154,-2.607 -0.292,-4.636 -0.547,-2.684 0.199,-5.997 -0.548,-3.843 -0.804,-12.348 -1.962,-16.849 0.122,-1.987 -0.232,-0.329 -0.25,0.148 0.321,-0.063 -0.116,0.949 0.51,1.755 -0.272,0.718 0.505,0.983 0.363,1.927 0.014,3.91 0.349,1.45 0.437,6.785 0.408,11.224 -0.225,3.005 0.066,17.086 -0.341,5.192 0.273,1.802 -0.222,2.999 0.536,1.06 -0.314,1.192 0.275,0.947 0.213,-0.853 -0.307,-0.74 0.113,-2.745 0.245,-3.123 0.346,-0.642 -0.151,-1.816 0.447,-5.072 -0.354,-5.824 0.15,-2.458 -1.687,-21.622 -0.977,-7.78 -1.285,-6.697 0.009,-1.591 -0.623,-1.425 0.345,0.119 0.262,1.722 -0.099,1.735 0.817,6.57 0.599,18.169 0.77,11.787 -0.399,14.984 0.19,2.127 -0.428,2.124 0.118,0.875 -0.199,0.359 -0.237,-0.198 0.608,-1.524 -0.136,-14.992 -0.325,-5.533 -0.489,-0.913 -0.098,-1.175 0.182,-1.261 -0.337,-4.5 -0.554,-3.052 -0.286,-8.498 -0.693,-2.945 -0.556,-6.996 -0.74,-3.51 -1.232,-10.721 -1.48,-9.466 0.313,0.366 -0.046,1.863 0.74,4.157 1.251,13.216 1.49,22.938 -0.238,2.126 0.361,3.572 0.147,8.241 0.773,6.332 -0.471,1.1 0.393,0.547 0.347,2.287 0.384,1.014 0.209,-0.063 -0.454,-0.548 0.829,-2.182 0.791,-4.653 0.319,-13.747 -0.451,-12.289 -5.974,-49.508 -0.721,-3.383 -0.437,-6.033 -0.464,-1.971 0.089,-3.064 -0.362,-1.14 0.353,-0.629 0.398,0.323 0.132,1.515 0.251,0.166 -0.231,0.482 0.186,2.031 0.531,0.536 0.224,1.074 0.572,7.642 0.844,3.801 0.97,11.933 0.747,4.348 2.12,39.128 0.168,0.477 0.061,-0.348 0.605,-5.071 0.395,-8.661 -0.518,-7.729 0.223,-3.213 -0.504,-1.603 -0.578,-5.437 -0.017,-3.542 -1.68,-9.174 -0.006,-3.769 -0.578,-1.832 -2.864,-18.55 -0.09,-3.206 -1.212,-9.49 -0.28,-9.687 0.182,-1.995 0.344,-0.317 0.093,3.166 1.799,9.978 2.32,25.089 0.645,4.082 0.497,7.808 0.677,3.328 0.232,6.584 0.641,2.441 0.255,4.908 0.52,2.33 0.218,-0.181 -0.231,1.535 0.22,0.321 0.157,-0.646 -0.42,0.331 0.255,-0.091 0.138,-1.234 -0.582,-3.378 -0.386,-11.796 -5.161,-55.139 -3.592,-27.22 -0.784,-3.238 -0.019,-4.828 -0.49,-1.277 0.651,-1.515 -0.262,0.764 0.346,0.481 -0.289,2.431 0.869,2.992 2.38,34.882 2.618,28.178 0.696,20.866 -0.129,4.308 0.127,-2.206 -0.3,-0.773 0.304,-3.973 -0.557,-2.715 -0.023,-6.445 -0.587,-3.78 -0.379,-9.191 -1.781,-15.186 -1.909,-10.613 -0.114,-2.745 -1.994,-11.168 -0.462,-5.035 -1.553,-10.08 -1.341,-20.27 0.022,-3.72 0.4,-1.282 -0.184,2.728 0.421,1.658 1.989,18.113 0.136,10.257 1.013,19.049 0.664,2.123 0.235,2.206 -0.194,2.199 1.004,11.075 0.168,9.189 0.624,2.513 -0.132,2.659 0.624,6.819 -0.058,-0.861 0.354,-0.684 -0.261,-1.178 -0.024,-4.839 -0.491,-2.036 0.114,-7.158 -0.516,-11.583 -0.907,-5.841 -2.237,-20.995 -0.289,-6.274 -1.242,-8.717 -1.025,-11.155 -0.275,-4.201 0.208,-4.847 -0.874,-11.466 -0.314,-10.602 0.291,-4.464 -0.328,2.91 0.393,1.179 -0.195,1.413 0.376,0.91 0.608,4.816 1.123,14.429 0.012,8.875 0.521,2.857 1.377,15.208 1.12,7.656 0.043,4.395 1.703,16.086 0.026,3.611 -0.442,-4.289 -0.735,-1.625 -2.983,-24.974 -0.661,-2.492 0.24,-8.804"
         id="path2" />
    </g>
    <g
       id="g648">
      <path
         fill="#000000"
         fill-rule="evenodd"
         d="m 299,194 h -0.5 l -0.5,-0.5 1,-0.5 v 1"
         id="path648" />
    </g>
    <g
       id="g649">
      <path
         fill="#000000"
         fill-rule="evenodd"
         d="M 299,185 298.25,184.75 299,183 v 2"
         id="path649" />
    </g>
    <g
       id="g763">
      <path
         fill="#201c1c"
         fill-rule="evenodd"
         opacity="0.500008"
         d="m 396,293 v -0.5 l 1.5,-1.5 0.5,1 v 0.5 l -0.5,0.5 H 396"
         id="path763" />
    </g>
    <g
       id="g764">
      <path
         fill="#201c1c"
         fill-rule="evenodd"
         opacity="0.500008"
         d="m 412,283 -9,2.625 -2,0.75 -3.75,0.375 -1.75,-7.75 -0.5,-5.5 -1,-1 0.5,-0.5 8.5,-1.75 8,-2.875 2.5,-1.375 2.5,-0.75 v 9.25 l 1,1 -1,1 v 1.5 h -0.5 l -2.5,2.5 v 1.5 h -0.5 l -0.5,0.5 v 0.5"
         id="path764" />
    </g>
    <g
       id="g765">
      <path
         fill="#201c1c"
         fill-rule="evenodd"
         opacity="0.500008"
         d="m 421,268 -0.75,-5.75 1.75,-0.75 5,-2.5 v 1.5 l -2,2 -2,4 -2,1.5"
         id="path765" />
    </g>
    <g
       id="g766">
      <path
         fill="#201c1c"
         fill-rule="evenodd"
         opacity="0.500008"
         d="m 427,259 v -0.5 l 0.5,-0.5 h 0.5 v 1 h -1"
         id="path766" />
    </g>
    <g
       id="g767">
      <path
         fill="#201c1c"
         fill-rule="evenodd"
         opacity="0.500008"
         d="m 398,267.5 -3.75,0.25 -0.5,-1.75 -2.75,-18.5 -1,-1 0.5,-0.5 h 1 l 1,-1 1,1 1.5,-0.25 10.75,-3 0.5,-1.5 2.5,-0.5 0.5,-1.5 h 1.5 l 3.625,15.75 0.5,5.75 -1.875,0.75 -11,4.875 -4,1.125"
         id="path767" />
    </g>
    <g
       id="g768">
      <path
         fill="#201c1c"
         fill-rule="evenodd"
         opacity="0.500008"
         d="m 422,256.375 -2.75,0.375 -3.875,-15.75 -1,-3 -0.125,-1.75 3.25,-1.25 2,-2 h 2 l 2,-2 h 1 l 1.5,1.5 v 3 l 1,1 -1,1 2,2 0.75,9.5 -0.75,2.5 -1.25,2.25 -4.75,2.625"
         id="path768" />
    </g>
    <g
       id="g769">
      <path
         fill="#201c1c"
         fill-rule="evenodd"
         opacity="0.500008"
         d="m 415,231.375 -2.75,0.375 -0.875,-3.75 -1.75,-4 -0.375,-2.75 2.25,-0.25 2,-2 3,-1 1.5,1.5 3,5 1,1 -1,1 1,1 -0.5,0.5 -1.5,0.5 -5,2.875"
         id="path769" />
    </g>
    <g
       id="g770">
      <path
         fill="#000000"
         fill-rule="evenodd"
         d="M 462.875,209.75 461.5,210 460,208.5 v -1 l -1,-1 1,-1 -1,-1 -1.25,-4.5 -0.75,-5.5 1,-1 -0.5,-0.5 -1.375,-0.25 -0.125,-7.25 1.5,-1.5 h 2 l 0.5,0.5 -1,1 1,1 v 5 l -1,1 0.5,0.5 h 1 l 0.5,0.5 -1,1 1,1 0.75,4.5 v 1.75 L 460.5,202 H 460 l 0.5,1 2.375,0.25 v 6.5 M 459,197 v -1 h -1 v 1 h 1"
         id="path770" />
    </g>
    <g
       id="g771">
      <path
         fill="#000000"
         fill-rule="evenodd"
         d="m 459,179 1,0.5 -0.25,3.25 -2.25,0.25 -1,1 -0.5,-0.5 1,-3.5 h 1.5 l 0.5,-0.5 V 179 m -1,3 v -1 h -1 v 1 h 1"
         id="path771" />
    </g>
    <g
       id="g772">
      <path
         fill="#000000"
         fill-rule="evenodd"
         d="m 457,180 -0.75,-0.25 0.25,-1.75 0.75,-1.75 h 2.5 L 459,179 h -1.5 l -0.5,0.5 v 0.5"
         id="path772" />
    </g>
    <g
       id="g773">
      <path
         fill="#201c1c"
         fill-rule="evenodd"
         opacity="0.500008"
         d="m 407.5,218 -2.5,-3 -2.5,-5 -0.5,-1.5 -2,-2 0.5,-0.5 h 1 l 1.5,1.5 v 1 l 0.5,0.5 1,-1 3,3 h 1 l 3.5,3.5 -0.25,1.25 -3.25,1.25 -1,1"
         id="path773" />
    </g>
    <g
       id="g774">
      <path
         fill="#201c1c"
         fill-rule="evenodd"
         opacity="0.500008"
         d="m 400,206 h -1 v -1 h 1 v 1"
         id="path774" />
    </g>
    <g
       id="g775">
      <path
         fill="#201c1c"
         fill-rule="evenodd"
         opacity="0.500008"
         d="m 399,205 h -1 v -1 h 1 v 1"
         id="path775" />
    </g>
    <g
       id="g776">
      <path
         fill="#201c1c"
         fill-rule="evenodd"
         opacity="0.500008"
         d="m 404,202 h 0.5 l 0.5,0.5 v 0.5 h -0.5 L 404,202.5 V 202"
         id="path776" />
    </g>
    <g
       id="g777">
      <path
         fill="#201c1c"
         fill-rule="evenodd"
         opacity="0.500008"
         d="m 403,201 h 0.5 l 0.5,0.5 v 0.5 h -0.5 L 403,201.5 V 201"
         id="path777" />
    </g>
    <g
       id="g778">
      <path
         fill="#201c1c"
         fill-rule="evenodd"
         opacity="0.500008"
         d="m 391,196 8.5,1 3.5,4 h -1.5 l -2,-2 -2.5,-0.625 -6,-2.375"
         id="path778" />
    </g>
    <g
       id="g805">
      <path
         fill="#201c1c"
         fill-rule="evenodd"
         opacity="0.500008"
         d="m 391.5,288 h -11.25 l -0.25,-1.5 1,-1 -1.5,-1.5 h -1 l -3,3 -2.5,-2.5 -0.5,-1.5 -6.5,-10.5 0.5,-0.5 1,1 4.5,0.625 h 3 l 4.5,-0.625 1,1 1,-1 h 8 l 1.5,1.5 1,11 1,1 -1.5,1.5"
         id="path805" />
    </g>
    <g
       id="g806">
      <path
         fill="#201c1c"
         fill-rule="evenodd"
         opacity="0.500008"
         d="m 393,294 -13,0.375 -16,-3.125 -5,-1.875 -4.5,-2.375 -5.5,-5.5 -0.5,-1.5 -2.875,-6 -0.625,-3 1,0.5 v 1 l 11.5,11.5 3,1 2,2 2.5,0.5 7,2.875 4,1 17,2.625"
         id="path806" />
    </g>
    <g
       id="g807">
      <path
         fill="#000000"
         fill-rule="evenodd"
         d="m 357,269 -0.5,1 -0.5,-1 h 1"
         id="path807" />
    </g>
    <g
       id="g808">
      <path
         fill="#201c1c"
         fill-rule="evenodd"
         opacity="0.500008"
         d="m 345,271 h -0.5 L 344,270.5 V 269 h 0.5 l 0.5,0.5 v 1.5"
         id="path808" />
    </g>
    <g
       id="g809">
      <path
         fill="#201c1c"
         fill-rule="evenodd"
         opacity="0.500008"
         d="m 356,269 v -0.5 l 0.5,-0.5 0.5,1 h -1"
         id="path809" />
    </g>
    <g
       id="g810">
      <path
         fill="#201c1c"
         fill-rule="evenodd"
         opacity="0.500008"
         d="m 354,267 h -1 v -1 h 1 v 1"
         id="path810" />
    </g>
    <g
       id="g811">
      <path
         fill="#201c1c"
         fill-rule="evenodd"
         opacity="0.500008"
         d="m 357,269 5,4.5 1,2 3.5,5.5 0.5,1.5 1,1 -0.5,0.5 -1.5,-0.5 -5,-3 -1.5,-0.5 -1.5,-1.5 -0.25,-1.25 -1.25,-0.25 -5.5,-5.5 -2,-4 -1,-1 1,-1 v -1 l 0.5,-0.5 1.5,1.5 0.25,1.25 1.75,0.75 3,1.5 0.5,1 0.5,-1"
         id="path811" />
    </g>
    <g
       id="g812">
      <path
         fill="#201c1c"
         fill-rule="evenodd"
         opacity="0.500008"
         d="m 353,264 h -1 v -1 h 1 v 1"
         id="path812" />
    </g>
    <g
       id="g813">
      <path
         fill="#201c1c"
         fill-rule="evenodd"
         opacity="0.500008"
         d="m 389.5,269 -25,-1 -1.5,-1.5 -1,-4 -1,-1 1,-1 -1,-12.375 24.5,-2.125 1.5,1.5 2,20 1,1 -0.5,0.5"
         id="path813" />
    </g>
    <g
       id="g814">
      <path
         fill="#201c1c"
         fill-rule="evenodd"
         opacity="0.500008"
         d="m 357.5,266 -5,-4 -4.25,0.125 -0.25,1.375 v 0.5 l -1,-0.5 -0.5,-2.5 -3,-12 -0.5,-3.5 0.5,-0.5 1,1 3.5,0.5 4,1 5,0.625 1,17.375 -0.5,0.5"
         id="path814" />
    </g>
    <g
       id="g815">
      <path
         fill="#201c1c"
         fill-rule="evenodd"
         opacity="0.500008"
         d="m 389.5,242 -0.5,-0.5 -1.5,-8.5 -1,-4 -0.25,-2.875 7.75,-0.75 9.5,-2.375 1,-1 0.5,0.5 0.625,2.5 2.75,7 0.625,2.5 -1.5,1.5 h -1 l -3,3 -5.5,1.25 -7.5,0.75 -1,1"
         id="path815" />
    </g>
    <g
       id="g816">
      <path
         fill="#201c1c"
         fill-rule="evenodd"
         opacity="0.500008"
         d="m 367,243.5 -5.75,0.375 L 363,226 l 1,0.5 0.25,1.375 11.25,-0.875 1,1 1,-1 4.25,0.125 3,11.875 0.25,1.5 -1.5,1.5 -10.5,0.625 -6,0.875"
         id="path816" />
    </g>
    <g
       id="g817">
      <path
         fill="#201c1c"
         fill-rule="evenodd"
         opacity="0.500008"
         d="m 357,225 h -1 v -1 h 1 v 1"
         id="path817" />
    </g>
    <g
       id="g818">
      <path
         fill="#201c1c"
         fill-rule="evenodd"
         opacity="0.500008"
         d="m 346,227 v -1 h 0.5 l 0.5,-0.5 v -0.5 -1.5 l 0.5,-0.5 3,3 1,-1 1,1 6.375,1.25 -0.875,11.25 -1,1 1,1 -1,1 -0.25,2.25 -3.75,-0.25 -5.5,-1.5 -1,-1 -1,1 -1,-1 H 343 l 2.5,-11 0.5,-3"
         id="path818" />
    </g>
    <g
       id="g819">
      <path
         fill="#201c1c"
         fill-rule="evenodd"
         opacity="0.500008"
         d="m 351,223 h -1 v -1 h 1 v 1"
         id="path819" />
    </g>
    <g
       id="g820">
      <path
         fill="#000000"
         fill-rule="evenodd"
         d="m 344,220 h -1 v -1 h 1 v 1"
         id="path820" />
    </g>
    <g
       id="g821">
      <path
         fill="#201c1c"
         fill-rule="evenodd"
         opacity="0.500008"
         d="M 358.75,222.75 349.5,221 349,220.5 360.5,209 l 1.25,0.25 V 211 l -3,11.75"
         id="path821" />
    </g>
    <g
       id="g822">
      <path
         fill="#201c1c"
         fill-rule="evenodd"
         opacity="0.500008"
         d="m 363,209 h -1 v -1 h 1 v 1"
         id="path822" />
    </g>
    <g
       id="g823">
      <path
         fill="#201c1c"
         fill-rule="evenodd"
         opacity="0.500008"
         d="m 372.5,224 -1,-1 -1,1 -1,-1 h -3 l -1,1 -1.5,-1.5 0.5,-4.5 1.125,-5 1.375,-4.5 1.5,-1.5 1.5,-0.375 2.75,-0.375 4.25,12.25 2,2 -0.25,2.375 -5.25,0.125 -1,1"
         id="path823" />
    </g>
    <g
       id="g824">
      <path
         fill="#201c1c"
         fill-rule="evenodd"
         opacity="0.500008"
         d="m 357,206 v -0.5 l 0.5,-0.5 h 0.5 v 0.5 l -0.5,0.5 H 357"
         id="path824" />
    </g>
    <g
       id="g825">
      <path
         fill="#201c1c"
         fill-rule="evenodd"
         opacity="0.500008"
         d="m 392,221.5 -6.5,0.5 -1,1 -1.5,-1.5 -0.625,-2.5 -0.75,-2 -0.625,-2.5 -2,-2 -1,-5 -1,-1 0.5,-0.5 h 2 l 1.5,1.5 0.25,1.25 1.75,0.75 1.75,0.25 0.25,-2.25 1,-1 -1,-1 v -1 l -1.5,-1.5 h -1 l -0.5,-0.5 1.5,-1.5 h 2 l 1,1 1,-1 4,2 2.5,2.5 4,6 2,2 v 2 l 3,3 -0.5,0.5 -10.5,2.5"
         id="path825" />
    </g>
    <g
       id="g826">
      <path
         fill="#000000"
         fill-rule="evenodd"
         d="m 392,221.5 10.5,-2.5 0.5,-0.5 -3,-3 v -2 l -2,-2 -4,-6 -2.5,-2.5 -4,-2 -1,1 -1,-1 h -2 l -1.5,1.5 0.5,0.5 h 1 l 1.5,1.5 v 1 l 1,1 -1,1 -0.25,2.25 -1.75,-0.25 -1.75,-0.75 -0.25,-1.25 -1.5,-1.5 h -2 l -0.5,0.5 1,1 1,5 2,2 0.625,2.5 0.75,2 0.625,2.5 1.5,1.5 1,-1 6.5,-0.5 m -19.5,2.5 1,-1 5.25,-0.125 0.25,-2.375 -2,-2 -4.25,-12.25 -2.75,0.375 -1.5,0.375 -1.5,1.5 -1.375,4.5 -1.125,5 -0.5,4.5 1.5,1.5 1,-1 h 3 l 1,1 1,-1 1,1 M 363,209 v -1 h -1 v 1 h 1 m -4.25,13.75 3,-11.75 v -1.75 L 360.5,209 349,220.5 l 0.5,0.5 9.25,1.75 M 351,223 v -1 h -1 v 1 h 1 m 6,2 v -1 h -1 v 1 h 1 m 10,18.5 6,-0.875 10.5,-0.625 1.5,-1.5 -0.25,-1.5 -3,-11.875 -4.25,-0.125 -1,1 -1,-1 -11.25,0.875 L 364,226.5 363,226 361.25,243.875 367,243.5 m 22.5,-1.5 1,-1 7.5,-0.75 5.5,-1.25 3,-3 h 1 l 1.5,-1.5 -0.625,-2.5 -2.75,-7 -0.625,-2.5 -0.5,-0.5 -1,1 -9.5,2.375 -7.75,0.75 0.25,2.875 1,4 1.5,8.5 0.5,0.5 M 343,241 h 1.5 l 1,1 1,-1 1,1 5.5,1.5 3.75,0.25 0.25,-2.25 1,-1 -1,-1 1,-1 0.875,-11.25 -6.375,-1.25 -1,-1 -1,1 -3,-3 -0.5,0.5 v 1.5 h -0.5 l -0.5,0.5 v 0.5 1 l -2,1.5 -1.375,5.5 -0.5,6.75 L 343,241 m 14.5,25 0.5,-0.5 -1,-17.375 -5,-0.625 -4,-1 -3.5,-0.5 -1,-1 -0.5,0.5 0.5,3.5 3,12 0.5,2.5 1,0.5 v -0.5 l 0.25,-1.375 4.25,-0.125 5,4 m 32,3 0.5,-0.5 -1,-1 -2,-20 -1.5,-1.5 -24.5,2.125 1,12.375 -1,1 1,1 1,4 1.5,1.5 25,1 M 353,264 v -1 h -1 v 1 h 1 m 1,3 v -1 h -1 v 1 h 1 m 2,2 -3,-1.5 -1.75,-0.75 -0.25,-1.25 -1.5,-1.5 -0.5,0.5 v 1 l -1,1 1,1 2,4 5.5,5.5 1.25,0.25 0.25,1.25 1.5,1.5 1.5,0.5 5,3 1.5,0.5 0.5,-0.5 -1,-1 -0.5,-1.5 -3.5,-5.5 -1,-2 -5,-4.5 -0.5,-1 -0.5,0.5 v 0.5 m 35.5,19 1.5,-1.5 -1,-1 -1,-11 -1.5,-1.5 h -8 l -1,1 -1,-1 -4.5,0.625 h -3 l -4.5,-0.625 -1,-1 -0.5,0.5 6.5,10.5 0.5,1.5 2.5,2.5 3,-3 h 1 l 1.5,1.5 -1,1 0.25,1.5 h 11.25 m 7.5,-83 v -1 h -1 v 1 h 1 m 1,1 v -1 h -1 v 1 h 1 m 7.5,12 1,-1 3.25,-1.25 0.25,-1.25 -3.5,-3.5 h -1 l -3,-3 -1,1 -0.5,-0.5 v -1 l -1.5,-1.5 h -1 l -0.5,0.5 2,2 0.5,1.5 2.5,5 2.5,3 m 7.5,13.375 5,-2.875 1.5,-0.5 0.5,-0.5 -1,-1 1,-1 -1,-1 -3,-5 -1.5,-1.5 -3,1 -2,2 -2.25,0.25 0.375,2.75 1.75,4 0.875,3.75 2.75,-0.375 m 7,25 4.75,-2.625 1.25,-2.25 0.75,-2.5 -0.75,-9.5 -2,-2 1,-1 -1,-1 v -3 l -1.5,-1.5 h -1 l -2,2 h -2 l -2,2 -3.25,1.25 0.125,1.75 1,3 3.875,15.75 2.75,-0.375 m -24,11.125 4,-1.125 11,-4.875 1.875,-0.75 -0.5,-5.75 -3.625,-15.75 h -1.5 l -0.5,1.5 -2.5,0.5 -0.5,1.5 -10.75,3 -1.5,0.25 -1,-1 -1,1 h -1 l -0.5,0.5 1,1 2.75,18.5 0.5,1.75 3.75,-0.25 m 30,-8.5 1,-1.5 -1,-0.5 v 1 h -0.5 l -0.5,0.5 v 0.5 l -5,2.5 -1.75,0.75 0.75,5.75 v 1.5 l -1,1 1,1 v 4 l 1,0.5 v -1.5 l 4,-4 2,-11.5 m -15,23 2.75,-1.25 L 416,278 v -1.5 l 1,-1 -1,-1 v -9.25 l -2.5,0.75 -2.5,1.375 -8,2.875 -8.5,1.75 -0.5,0.5 1,1 0.5,5.5 1.75,7.75 3.75,-0.375 2,-0.75 9,-2.625 h 0.5 l 0.5,-0.5 V 282 m 3,4 v -1 h -1 v 1 h 1 m -20,7 h -0.5 l -1,1 H 393 l -17,-2.625 -4,-1 -7,-2.875 -2.5,-0.5 -2,-2 -3,-1 -11.5,-11.5 v -1 l -1,-0.5 v -1.5 L 344.5,269 H 344 l -0.5,-3 -4,-15 -0.875,-5 0.125,-13 0.875,-4 4.875,-9 0.5,-1.5 12,-12.5 h 0.5 l 0.5,-0.5 V 205 l 3,-0.5 3,-1.125 4.5,-2.375 1,1 1.5,-1.5 v -1 l -2,-2 1,-1 -1,-1 1.5,-1.5 h 2 l 1.5,1.5 v 1 l 1.5,1.5 h 3 l 1,-1 1,1 1,-1 2.5,-1 1,-0.5 v -1 l 1.5,-1.5 h 1 l 3.5,3 6,2.375 2.5,0.625 2,2 h 1.5 v 0.5 l 0.5,0.5 h 0.5 v 0.5 l 0.5,0.5 h 0.5 l 1.5,2 2,1 6.25,4.25 0.5,1.5 2.25,0.25 2,-2 6,-1 1.5,1.5 v 2 l -1,1 1,1 -0.5,0.5 -2.25,-0.25 -0.25,-1.25 -0.5,-0.5 -1,1 h -1 l -1.5,1.5 1,1 0.25,1.25 1.5,0.5 1.25,2.25 2,3 1,2 2,2 2.5,11.5 0.5,5.5 3,3 -1.25,3.5 -1.75,12.5 -1,1 1,1 -1,1 -0.75,4.5 -8.25,10.5 -1.25,2.5 -0.875,7.75 -1.875,0.75 -1.75,0.25 -1.25,-3.25 -1,-1 1,-1 -0.5,-0.5 -3.5,0.625 -2,0.75 -7,2.125 -4,1.5 -0.5,-1 -1.5,1.5 v 0.5"
         id="path826" />
    </g>
    <g
       id="g827">
      <path
         fill="#201c1c"
         fill-rule="evenodd"
         opacity="0.500008"
         d="m 358,205 v -1.5 l 2,-2 1,-3 4.5,-4.5 1.5,-0.5 2,-0.875 3,-1 h 5 l 2.5,0.375 2,2 h 1 l 1.5,2 -2.5,1 -1,1 -1,-1 -1,1 h -3 l -1.5,-1.5 v -1 l -1.5,-1.5 h -2 l -1.5,1.5 1,1 -1,1 2,2 v 1 l -1.5,1.5 -1,-1 -4.5,2.375 -3,1.125 -3,0.5"
         id="path827" />
    </g>
    <g
       id="g828">
      <path
         fill="#000000"
         fill-rule="evenodd"
         d="m 312,168 v -1 h -1 v 1 h 1 m 3.5,5 0.5,-1 h -1.5 l -0.5,1 h 1.5 m 2.5,0 v -1 h -1 v 1 h 1 m -18,1 v -1 h -1 v 1 h 1 m 1,2 v -1 h -1 v 1 h 1 m 160.75,192.75 0.25,-2.25 -1.5,-1.5 -1.25,-0.25 -4.25,-67.25 -1,-1 1,-1 -0.375,-1.5 v -3 l 0.25,-2 -0.875,-11.5 -1,-1 1,-1 -5,-47 -1,-1 1,-1 -1,-1 -5,-39 1,-1 -1,-1 -0.5,-5.5 -2.5,-10.5 -1.5,-1.5 -3,1 -0.5,0.5 1,1 v 2 l -1.5,1.5 -4,1 -2,-2 -9,-1 -1,1 -1,-1 -58,1 -1,-1 -1,1 -14.5,0.625 -17.5,2.375 -1,1 -1,-1 -1,1 -1.5,-0.5 -1.75,-0.25 -0.5,1.5 -1.25,0.25 -2,-2 -1.5,1.5 1,1 -1,1 1,39 1,1 -1,1 1,1 -1,1 1,1 v 13 l 1,1 -1,1 8,85 1,1 -1,1 1,1 v 4 l 1,1 -1,1 1,1 0.625,7.5 2.875,14 2.5,13.5 0.5,0.5 2,-2 1.5,-0.5 5.5,-3.5 4.5,-2.5 1.5,-0.5 2,-2 h 2 l 5,-5 3.25,-1.25 0.25,-1.25 3.5,-3.5 2.5,-1.5 4,-3 2.5,-1.5 1.5,-1.5 0.25,-1.25 4.25,-2.25 5,-5 h 4 l 2,2 h 1 l 1,1 1.5,-1.5 0.25,-2.375 5.25,-0.125 1.5,1.5 -1,1 -0.5,1.5 -0.25,1.75 4.75,1.625 4.5,0.625 1.5,1.5 -1,1 1.5,1.5 5.5,3.5 9,4 7,3 5.5,3.5 2.5,1.375 10,4.25 1.5,0.375 2,2 2.25,0.25 0.5,1.5 6.5,4 M 302,177 v -1 h -1 v 1 h 1 m 6,0 v -1 h -1 v 1 h 1 m -7,3 v -1 h -1 v 1 h 1 m 7,0 v -1 h -1 v 1 h 1 m -6,2 v -1 h -1 v 1 h 1 m 7,3 v -1.5 l -1,-0.5 v 1 l 1,1 m -8,2 v -1 h -1 v 1 h 1 m 8.5,1 0.5,-1 h -1.5 l -0.5,1 h 1.5 m 0.5,3 v -1.5 l -1,-0.5 v 1 l 1,1 m -1,1 v -1 h -1 v 1 h 1 m 1,1 v -1 h -1 v 1 h 1 m -11,0 v -0.5 l 1,-1 -1,-1 1,-1 -1,-1 v -1 l -1,-1 1,-1.5 1,-1.5 -1,-0.5 -0.625,-3 -0.625,-2 -0.75,-4.5 1.5,-1.5 2.25,0.25 1.25,3.25 0.5,0.5 1.5,-1.5 0.25,-1.25 1.25,-0.25 1,1 0.5,-0.5 -1.25,-4.5 -0.625,-5.75 50.375,-0.25 1,-1 1,1 11,-1 1,1 1,-1 10,-1 1,1 1,-1 h 1 l 1,1 1,-1 h 3 l 1,1 1,-1 h 4 l 1,1 1,-1 h 7 l 1,1 1,-1 1,1 1,-1 29.5,-2.875 2,0.375 1.5,0.5 0.5,-0.5 -1,-1 v -2 l 1.5,-1.5 h 1 l 2.5,2.5 0.25,1.25 2.25,0.25 1.5,1.5 v 2 l 2,2 -1,1 1,1 v 1 l -1,1 2,2 -1,1 1,1 0.625,8.5 0.75,4 v 11 l 6.625,43.5 1,1 -1,1 1,1 2.75,21.5 -0.625,5 0.875,15.5 1,1 -1,1 2,25 1,1 -1,1 1,1 1.5,31.5 1.5,12.5 -1,1 1,1 -0.75,4.5 -0.5,1.75 -1.25,0.25 -1,-1 -0.5,0.5 1.625,11.5 -0.25,4 -0.375,1.5 -0.5,0.5 -1,-1 h -1 l -1.5,-1.5 -0.25,-1.25 -1.75,-0.75 -4.75,-2.75 -0.5,-1.5 -1.25,-0.25 -2.5,-2.5 v -1 l -2.5,-2.5 -1.5,-0.5 -5,-3 -1.5,-0.5 -0.5,0.5 2,2 v 2 l -1.5,1.5 H 440 l 0.5,1 1.25,0.25 0.25,1.25 1,1 -1,1 v 1 l -0.5,0.5 -1,-1 -1.5,-0.5 -2.5,-1.5 -10.25,-7.25 -10.25,-12.25 -1.5,-1.5 -4,-1 -2,-2 h -2 l -2,-2 -1.5,-0.5 -5.5,-3.5 -5,-5 -1,1 h -1 l -3,3 -4,1 -1.5,1.5 -0.25,1.25 -2.25,0.25 -2,2 -4,1 -3,3 h -2 l -2,2 -2,1 -14,10 -10,8 -1.5,1.5 -0.25,1.25 -1.25,0.25 -3.5,3.5 1,1 -2.5,2.5 h -2 l -2.5,2.5 v 2 l -4.5,4.5 -3.375,-0.25 -0.125,-4.25 1.5,-1.5 h 1 l 0.5,-0.5 -1,-1 v -2 l -0.5,-0.5 -1.5,1.5 -0.25,1.25 h -3.625 l 0.875,-9.25 -1,-1 1,-1 v -1 l -2,-2 -2,-27 1,-1 -1,-1 v -15 l -1,-1 1,-1 -1,-1 v -4 l -1,-1 1,-1 -1,-1 -1,-7 1,-1 -1,-1 v -2 l -1,-1 1,-1 -1,-1 -6,-46 1,-1 -1,-1 -1,-20 -1,-1 1,-1 -1,-1 -2,-24 1,-1 -1,-1 0.75,-8.5 -0.75,-3 1,-0.5 -1,-0.5 m 10.5,2 0.5,-0.5 -1.5,-1.5 -0.5,0.5 0.25,1.25 1.25,0.25 m -0.5,4 v -1 h -1 v 1 h 1 m 0,2 v -1 h -1 v 1 h 1 m 0,2 v -1 h -1 v 1 h 1 m 0,3 v -1 h -1 v 1 h 1 m -7,1 v -1 h -1 v 1 h 1 m 0,4 v -2.5 l -1,-0.5 v 2.5 l 1,0.5 m 7,2 v -1 h -1 v 1 h 1 m -1,5 v -1 h -1 v 1 h 1 m 2,0 v -1 h -1 v 1 h 1 m -7,9 v -1.5 l -1,-0.5 v 1 l 1,1 m 8,0 v -1 h -1 v 1 h 1 m 0,3 v -1 h -1 v 1 h 1 m -2,5 v -4.5 l -1,-0.5 v 4.5 l 1,0.5 m 2,-2 v -1.5 l -1,-0.5 v 1 l 1,1 m 1,3 v -1 h -1 v 1 h 1 m -3,1 v -1 h -1 v 1 h 1 m 3,1 v -1 h -1 v 1 h 1 m -3,1 v -1 h -1 v 1 h 1 m 1,8 v -1 h -1 v 1 h 1 m 0,2 v -1 h -1 v 1 h 1 m 2,3 v -1 h -1 v 1 h 1 m 1,8 v -1 h -1 v 1 h 1 m -2,5 v -1 h -1 v 1 h 1 m 3,0 v -1 h -1 v 1 h 1 m 0,3 v -1 h -1 v 1 h 1 m 1,1 v -1 h -1 v 1 h 1 m -1,3 v -1.5 l -1,-0.5 v 1 l 1,1 m 2,8 v -4.5 l -1,-0.5 v 4.5 l 1,0.5 m -3,2 v -1 h -1 v 1 h 1 m 2.5,0 0.5,-1 h -1.5 l -0.5,1 h 1.5 m 1,3 0.5,-0.5 v -2 l -0.5,-0.5 -1.5,1.5 1.5,1.5 m 0.5,5 v -3.5 l -1,-0.5 v 3.5 l 1,0.5 m -3,1 v -1 h -1 v 1 h 1 m -4,8 v -1 h -1 v 1 h 1 m 5,0 v -1 h -1 v 1 h 1 m 2,9 v -1 h -1 v 1 h 1 m -1,4 v -1 h -1 v 1 h 1 m 1,8 v -2.5 l -1,-0.5 v 2.5 l 1,0.5 m 6,21 v -1 h -1 v 1 h 1 m 1,6 v -1 h -1 v 1 h 1 m 1,5 v -1 h -1 v 1 h 1 m -3,24 v -7.5 l -1,-0.5 v 1.5 l -1,1 1,1 v 4 l 1,0.5 m 12,-203 v -1 h -1 v 1 h 1 m -8,186 v -3.5 l -1,-0.5 v 3.5 l 1,0.5 m 1,5 v -4.5 l -1,-0.5 v 4.5 l 1,0.5 m 1,2 v -1 h -1 v 1 h 1 m 0,2 v -1 h -1 v 1 h 1 m 7,4 v -1 h -1 v 1 h 1 m -1,1 v -1 h -1 v 1 h 1 M 443,156 v -1 h -1 v 1 h 1 m -37,11 v -1 h -1 v 1 h 1 m 3,0 v -1 h -1 v 1 h 1 m 12.5,0 0.5,-1 h -7.5 l -0.5,1 h 7.5 m 13,1 0.5,-1 h -8.5 l -0.5,1 h 8.5 m 15.5,1 v -1 h -1 v 1 h 1 m 1,4 v -1.5 l -1,-0.5 v 1 l 1,1 m 0,3 v -1 h -1 v 1 h 1 m 0.5,6 0.5,-1 h -1.5 l -0.5,1 h 1.5 m 9.5,137 v -1.5 l -1,-0.5 v 1 l 1,1 m -33,41 v -1 h -1 v 1 h 1 m 8.5,7 0.5,-0.5 -1.5,-1.5 -7,-5 -0.5,0.5 5.5,5.5 3,1 m 0.5,-6 v -1 h -1 v 1 h 1 m 1.5,1 0.5,-1 h -1.5 l -0.5,1 h 1.5 m 2,2 0.5,-0.5 -0.25,-1.25 -1.25,-0.25 -0.5,0.5 1.5,1.5 m -2.5,4 v -1 h -1 v 1 h 1 m 1,1 v -1 h -1 v 1 h 1 m 1,1 v -1 h -1 v 1 h 1 m 23,2 v -1 h -1 v 1 h 1"
         id="path828" />
    </g>
  </g>
</g>
</svg>
