<?xml version="1.0" encoding="UTF-8" standalone="no"?>
<svg
   width="448.26868"
   height="134.13696"
   viewBox="-702 0 448.26868 134.13696"
   version="1.2"
   id="svg924"
   xmlns="http://www.w3.org/2000/svg"
   xmlns:svg="http://www.w3.org/2000/svg"><defs
   id="defs924" />
<title
   id="title1">Notebook 3</title>
\n<g
   id="g930"
   transform="matrix(1.1399311,0,0,0.96592549,-985.23644,-1167.1675)">
  <g
     id="g203">
    <path
       fill="none"
       stroke="#000000"
       stroke-width="4"
       stroke-linecap="round"
       stroke-linejoin="round"
       d="m 434.859,1232.27 -0.974,-0.43 -0.952,0.89 -0.201,-1.09 -0.671,-0.52 0.051,1.11 1.709,-1.96 0.275,0.59 0.561,0.05 2.455,-1.78 1.028,0.17 5.159,-2.34 3.164,-0.95 4.856,-2.98 2.046,-0.41 1.12,-0.74 0.327,-0.02 0.193,0.91 0.237,-0.39 0.36,0.24 0.769,3.06 0.04,5.62 -2.707,17.92 -1.002,12.11 0.389,13.22 0.356,0.39 -0.309,2.45 0.942,7.2 -0.077,2.64 0.331,-1.51 -0.415,1.28 -0.044,-0.58 -0.239,0.51 0.875,-5.34 -1.373,-9.61"
       id="path203" />
  </g>
  <g
     id="g204">
    <path
       fill="none"
       stroke="#000000"
       stroke-width="4"
       stroke-linecap="round"
       stroke-linejoin="round"
       d="m 431.199,1248.15 -0.608,-0.54 0.148,-0.78 5.774,0.79 2.353,0.89 0.917,-0.38 0.629,0.62 -0.003,-0.63 -0.778,0.6"
       id="path204" />
  </g>
  <g
     id="g205">
    <path
       fill="none"
       stroke="#000000"
       stroke-width="4"
       stroke-linecap="round"
       stroke-linejoin="round"
       d="m 435.384,1260.47 -0.233,-0.93 1.352,-0.03 3.584,-1.1"
       id="path205" />
  </g>
  <g
     id="g206">
    <path
       fill="none"
       stroke="#000000"
       stroke-width="4"
       stroke-linecap="round"
       stroke-linejoin="round"
       d="m 465.874,1231.8 -0.343,-1.94 -0.27,0.23 -0.191,-0.59 0.465,-1.26 1.282,-0.18 1.523,-2.07 0.259,0.73 4.522,-0.77 1.296,-0.44 1.364,-1.24 2.388,-0.07 4.273,-2.38 0.421,0.41 0.535,-0.6 -0.315,-0.56 0.189,1.12 0.265,-0.41 0.226,2.9 0.286,-0.22 0.234,0.52 0.367,7.78 -1.745,17.59 -0.273,8.24 0.3,8.33 -0.391,4.09 -1.755,8.39 0.614,-2 -0.627,0.43 0.442,-0.96 0.122,0.31 -0.075,-1.36 -0.512,0.48 0.06,-2.32 -0.338,0.87 -0.742,-0.41 0.096,-2.05 -0.689,0.55 -0.724,-0.64 -0.196,-1.57 -0.464,0.05"
       id="path206" />
  </g>
  <g
     id="g207">
    <path
       fill="none"
       stroke="#000000"
       stroke-width="4"
       stroke-linecap="round"
       stroke-linejoin="round"
       d="m 463.803,1244.04 -0.653,-1.03 -0.147,0.44 0.36,-0.64 0.231,0.46 1.995,-0.29 1.891,0.73 2.875,-0.33 0.273,0.41 1.146,-0.82 0.34,-0.91 0.704,0.51 0.426,-0.71"
       id="path207" />
  </g>
  <g
     id="g208">
    <path
       fill="none"
       stroke="#000000"
       stroke-width="4"
       stroke-linecap="round"
       stroke-linejoin="round"
       d="m 470.486,1256.23 -0.591,0.08 0.795,-0.04 0.032,0.61 0.72,-0.2 0.923,1.36 1.496,-0.47 -0.022,1.1 0.447,0.26 0.537,-0.71 1.189,-0.32 0.732,-1.33 -0.021,1.58 0.618,-0.34 -0.318,0.58"
       id="path208" />
  </g>
  <g
     id="g209">
    <path
       fill="none"
       stroke="#000000"
       stroke-width="4"
       stroke-linecap="round"
       stroke-linejoin="round"
       d="m 446.671,1276.48 1.291,-0.24 0.346,-0.94 -0.241,0.87 0.761,-1.33 0.412,0.59 0.646,-1.37 0.342,1.38 0.94,-1.13 0.082,0.69 0.717,0.4 0.907,-0.83 1.187,0.86 1.124,-0.92 0.112,0.42 2.175,0.54 0.431,0.9 0.252,-0.44 0.189,0.23 -0.119,1.68 0.247,-0.75 0.137,1.84 0.804,-1.12 0.192,0.48"
       id="path209" />
  </g>
  <g
     id="g210">
    <path
       fill="none"
       stroke="#000000"
       stroke-width="4"
       stroke-linecap="round"
       stroke-linejoin="round"
       d="m 448.498,1290.47 0.462,-2.53 0.556,-0.18 0.247,-1.29 -0.686,3.44 -1.803,4.08 0.064,-0.88 -0.408,-0.01 -2.465,4.58 -1.722,1.46 -0.751,1.26 -2.483,1.25 -1.248,1.8 -0.373,-0.3 -1.969,0.59 -1.059,1.65 -1.217,-0.31 -1.657,0.42 -1.02,1.14 -1.707,0.13 -0.882,1.37 3.021,-2.09 8.092,-9.06 0.253,2.31 1.247,3.1 2.439,13.03 1.228,11.67 -0.314,2.08 0.354,-0.99 -0.399,-0.36 0.223,1.54 0.195,-1.19 0.08,1.14 0.753,-0.72 0.517,0.57 3.173,-2.63"
       id="path210" />
  </g>
  <g
     id="g211">
    <path
       fill="none"
       stroke="#000000"
       stroke-width="4"
       stroke-linecap="round"
       stroke-linejoin="round"
       d="m 473.625,1279.87 -0.869,-0.3 -0.436,1.65 0.282,-1 -0.047,0.38 0.622,0.26 0.754,2.97 0.303,-0.19 0.821,5.92 0.485,-0.51 0.046,1.43 0.478,-0.87 0.403,1.27 0.432,-1.07 -0.036,1.04 0.256,-0.53 0.13,0.72 0.352,-0.87"
       id="path211" />
  </g>
  <g
     id="g212">
    <path
       fill="none"
       stroke="#000000"
       stroke-width="4"
       stroke-linecap="round"
       stroke-linejoin="round"
       d="m 462.719,1295.35 -1.076,0.37 0.268,0.41 2.231,0.81 3.511,0.47 4.702,0.04 3.647,-1.18 1.12,0.5 2.047,-1.06 0.094,1.23 0.753,0.53 0.801,-1.16 1.703,-1.02 0.496,1.14 2.682,-2.6 0.594,0.85 1.85,-1.66 0.005,0.79 1.048,-2.69 -0.189,0.68 -1.416,0.93 -4.826,2.79 -1.142,0.28 -3.284,2.91"
       id="path212" />
  </g>
  <g
     id="g213">
    <path
       fill="none"
       stroke="#000000"
       stroke-width="4"
       stroke-linecap="round"
       stroke-linejoin="round"
       d="m 470.811,1310.45 -0.888,0.3 -0.017,0.46 0.384,-0.71 0.481,0.66 0.341,-0.56 1.236,-0.4 0.794,1.06 3.118,-1.46 0.292,1.04 0.736,0.28 0.735,-0.99 1.653,-0.89 0.739,0.89 2.829,-1.42 0.281,1.29 0.768,0.57 0.873,-1.15 1.796,-1.19 0.928,0.27 2.845,-1.86 1.84,-0.45 0.177,-0.73 -2.599,0.25 -0.654,-0.46 -2.165,0.64"
       id="path213" />
  </g>
  <g
     id="g214">
    <path
       fill="none"
       stroke="#000000"
       stroke-width="4"
       stroke-linecap="round"
       stroke-linejoin="round"
       d="m 477.078,1299.59 -2.936,-2.34 -0.282,0.17 0.504,0.17 1.043,1.92 0.833,3.74 -0.473,7.57 -3.091,15.01 0.224,4.7 0.924,1.5 0.569,4.64 0.478,0.17 -0.199,1.5 0.578,0.52 0.402,-1.07 -0.331,0.02 -0.006,-0.68 -0.019,1.11 0.247,-1.5 -0.147,0.71 0.293,0.26 0.216,-0.63 -0.22,-0.46 -0.049,0.67 -0.047,-1.75 -0.391,0.56 -0.198,-0.94"
       id="path214" />
  </g>
  <g
     id="g215">
    <path
       fill="none"
       stroke="#000000"
       stroke-width="4"
       stroke-linecap="round"
       stroke-linejoin="round"
       d="m 458.462,1327.01 -0.427,-1.34 -0.441,0.76 0.203,0.43 1.059,-2.64 0.029,1.39 1.381,1.2 1.6,-0.09 3.913,1.44 1.949,-0.57 4.175,0.47 2.281,-1.03 0.938,0.09 2.556,-1.52 0.973,0.2 2.179,-1.14 0.715,0.29 1.483,-0.8 1.119,0.21 0.641,-0.43 0.049,0.75 -7.598,4.59"
       id="path215" />
  </g>
  <g
     id="g216">
    <path
       fill="none"
       stroke="#000000"
       stroke-width="4"
       stroke-linecap="round"
       stroke-linejoin="round"
       d="m 459.758,1338.36 -2.256,1.4 -0.555,1.32 5.932,0.63 6.968,-1.08 1.96,-1.84 0.276,0.71 2.001,-0.43 1.411,-1.73 1.205,0.81 2.156,0.26 1.601,-1.87 0.239,0.88 1.858,0.44 1.046,-1.67 0.608,1.94 0.399,-0.75 -0.619,0.74 0.401,-2.4 -0.696,1.45"
       id="path216" />
  </g>
  <g
     id="g217">
    <path
       fill="none"
       stroke="#000000"
       stroke-width="4"
       stroke-linecap="round"
       stroke-linejoin="round"
       d="m 254.848,1214.23 h -0.334 l -0.297,-1.8 0.428,-2.09 0.575,5.8 0.31,-0.52 0.318,0.38 0.839,2.83 0.865,-0.03 1.141,0.9 0.185,1.7 0.566,0.92 0.638,-0.77 1.419,0.58 0.828,1.43 1.881,-0.47 0.871,1.37 0.262,-0.69 1.383,0.12 0.372,-0.33 0.445,0.53 0.651,-0.15 0.863,1.04 0.731,-1.08 -0.018,-0.8 -0.053,0.63 0.433,-0.58 0.147,0.82 0.179,-1.07 -0.533,2.03"
       id="path217" />
  </g>
  <g
     id="g218">
    <path
       fill="none"
       stroke="#000000"
       stroke-width="4"
       stroke-linecap="round"
       stroke-linejoin="round"
       d="m 250.68,1240.18 -0.212,1.01 0.518,0.11 0.398,-0.74 0.932,2.11 0.362,-0.61 0.429,0.15 0.668,2.59 0.735,-1.16 0.63,3.18 0.471,-1.35 0.606,-0.42 -0.018,1.36 0.548,0.96 0.66,-0.8 1.049,1.35 0.798,-1.17 0.191,0.33 0.888,-0.3 1.65,-1.74 0.187,0.57 0.677,-0.5 v 1.78 l 0.411,-1.03"
       id="path218" />
  </g>
  <g
     id="g219">
    <path
       fill="none"
       stroke="#000000"
       stroke-width="4"
       stroke-linecap="round"
       stroke-linejoin="round"
       d="m 351.246,1241.47 -1.611,0.37 -0.081,0.92 0.337,-0.1 0.261,2.17 0.273,-0.67 0.472,0.32 0.285,2.31 0.545,-0.28 3.149,4.01 5.399,2.64 0.545,1.08 -1.368,0.21 -0.126,-0.37"
       id="path219" />
  </g>
  <g
     id="g220">
    <path
       fill="none"
       stroke="#000000"
       stroke-width="4"
       stroke-linecap="round"
       stroke-linejoin="round"
       d="m 253.209,1276.36 -2.509,-0.96 0.272,-1 0.562,0.04 0.463,-0.8 1.329,0.02 0.786,-1.08 1.702,-0.1 0.777,-0.79 1.625,-0.57 0.999,0.1 2.862,-1.66 0.382,0.83 0.493,0.01 0.582,-0.92 1.853,-1.28 0.742,0.74 2.62,-3.51 0.386,0.2"
       id="path220" />
  </g>
  <g
     id="g221">
    <path
       fill="none"
       stroke="#000000"
       stroke-width="4"
       stroke-linecap="round"
       stroke-linejoin="round"
       d="m 285.167,1216.45 -2.265,-1.34 -0.123,0.53 0.268,-0.53 0.137,0.44 1.358,-0.17 0.067,1.21 0.458,0.58 0.481,-0.78 1.196,-0.22 1.032,1.78 1.475,-0.91 2.303,-0.26 1.523,1 0.88,-0.52 3.101,-0.3 3.781,0.91 2.729,-0.94 5.298,-0.39 4.896,-0.97 2.011,0.11 4.834,-1.39 1.733,-0.1 4.637,-1.82 0.65,-0.89 -0.119,0.35 -0.117,-0.51 -0.18,1.04 h 0.332 l 0.71,1.7 0.92,6.42 -0.732,13.5 -0.072,12.09 1.344,11.14 0.474,0.54 -0.221,9.17 -0.709,3.28 -0.615,1.22 -0.247,-0.18 -0.177,1.01 -0.07,-0.55 -0.051,1.12 -0.113,-1.76 -0.23,0.64 -0.449,-1.32 -0.431,1.39 -0.233,-1.11 -0.951,-0.79 -0.703,0.88 0.026,-0.96 -1.197,-1.16 -0.713,0.7 -1.599,-2.86 -0.687,0.48 -0.667,-3.57"
       id="path221" />
  </g>
  <g
     id="g222">
    <path
       fill="none"
       stroke="#000000"
       stroke-width="4"
       stroke-linecap="round"
       stroke-linejoin="round"
       d="m 306.491,1220.82 -0.619,1.09 h -0.882 l -0.528,1.46 0.077,-0.61 0.325,0.07 0.829,4.7 -0.761,14.67 -1.206,10.18 -2.517,14.32 -3.335,6.22 -0.782,0.33 -1.235,1.77 -1.098,0.25 -0.332,0.55 -0.025,-0.72 -1.063,0.49 -0.663,-0.4 -0.18,-0.81 -0.813,0.17 -0.651,-0.8 -1.441,-0.12 -0.275,-1.32 -0.269,0.23 -0.688,-0.92 -0.07,-2.28 -0.511,-0.07 -0.041,-0.45"
       id="path222" />
  </g>
  <g
     id="g223">
    <path
       fill="none"
       stroke="#000000"
       stroke-width="4"
       stroke-linecap="round"
       stroke-linejoin="round"
       d="m 283.577,1243.97 -0.746,-0.02 -1.143,0.98 -0.311,-0.56 -0.761,0.33 -0.641,1.87 -0.072,-0.54 -0.275,0.37 -1.315,6.07 -0.035,-0.39 -0.579,0.41 -0.755,1.24 -1.304,-0.02 -0.703,1.19 -0.449,-1 0.647,-0.5 0.969,0.08"
       id="path223" />
  </g>
  <g
     id="g224">
    <path
       fill="none"
       stroke="#000000"
       stroke-width="4"
       stroke-linecap="round"
       stroke-linejoin="round"
       d="m 256.81,1296.88 -0.484,2.57 0.248,-1.06 0.506,-0.17 0.081,1.42 0.999,0.86 1.47,-1.47 1.308,1.23 2.741,0.61 2.3,-0.9 2.218,0.57 4.017,0.03 24.737,-1.52 4.063,0.67 2.022,-0.47 6.118,-0.23 3.645,0.57 9.102,-0.45 3.049,-0.63 6.142,0.77 1.531,1.05 3.825,-1.09 1.809,-6.02 -0.315,0.38 -1.227,-1.18 -1.113,0.76 -0.284,-0.54 -1.609,-0.39 -8.793,0.59"
       id="path224" />
  </g>
  <g
     id="g225">
    <path
       fill="none"
       stroke="#000000"
       stroke-width="4"
       stroke-linecap="round"
       stroke-linejoin="round"
       d="m 302.273,1279.48 -1.072,-0.78 -0.568,-1.14 -0.628,1.09 0.37,-1.44 -0.468,8.23 -3.101,20.76 -0.908,11.32 0.484,1.05 0.394,4.39 3.104,9.7 0.481,5.51 -0.377,0.99 -0.615,-0.01 0.006,-2.37 -0.598,-1.12 -1.283,-8.69"
       id="path225" />
  </g>
  <g
     id="g226">
    <path
       fill="none"
       stroke="#000000"
       stroke-width="4"
       stroke-linecap="round"
       stroke-linejoin="round"
       d="m 289.53,1301.19 -0.602,-0.59 -0.992,0.27 -2.189,6.14 -0.21,-0.35 -0.474,0.29 -1.501,2.88 -2.056,2.53 -2.408,1.45 -1.311,0.22 -4.603,3.28 -2.111,0.9 -4.419,3.97 -3.463,2.18 -0.738,1.73 -1.015,0.99 -0.393,-0.52 -1.105,0.71 -1.084,2.49 -0.419,-0.37 -0.754,0.35 -0.885,2.03 0.021,-0.92 0.012,1.25 0.789,-2.42 0.823,-0.92 1.425,-0.99 1.284,-0.25 2.094,-2.15"
       id="path226" />
  </g>
  <g
     id="g227">
    <path
       fill="none"
       stroke="#000000"
       stroke-width="4"
       stroke-linecap="round"
       stroke-linejoin="round"
       d="m 292.374,1307.6 -0.115,-0.55 -0.365,0.24 0.594,-1.17 0.65,2.54 0.919,0.69 3.432,5.05 2.066,1.18 6.423,5.88 7.506,5.25 9.998,3.5 2.671,0.33 1.256,0.78 0.32,0.94 1.109,-0.26 0.461,-0.78 1.341,-0.32 0.81,-1.6 -0.009,0.48 0.728,0.19 0.804,-0.82"
       id="path227" />
  </g>
  <g
     id="g228">
    <path
       fill="none"
       stroke="#000000"
       stroke-width="4"
       stroke-linecap="round"
       stroke-linejoin="round"
       d="m 381.911,1266.43 -0.937,0.37 -0.646,-0.23 0.423,0.23 0.315,-0.85 0.844,1.87 0.446,-0.51 0.613,3.8 0.88,0.58 0.791,-1.45 0.307,1.33 0.763,0.79 1.002,-0.8 0.13,0.68 0.805,0.61 1.06,-0.08 1.54,1.01 1.128,-0.13 0.349,0.78 0.2,-0.47 0.631,0.01 0.023,1.21 0.98,-1.03"
       id="path228" />
  </g>
  <g
     id="g229">
    <path
       fill="none"
       stroke="#000000"
       stroke-width="4"
       stroke-linecap="round"
       stroke-linejoin="round"
       d="m 411.097,1251.77 -1.402,-0.5 -0.213,-0.69 -0.201,2.4 -1.578,4.1 -2.107,3.4 -1.81,1.78 -2.838,4.05 -0.477,1.27 0.147,1 0.344,-0.01"
       id="path229" />
  </g>
  <g
     id="g230">
    <path
       fill="none"
       stroke="#000000"
       stroke-width="4"
       stroke-linecap="round"
       stroke-linejoin="round"
       d="m 400.696,1222.03 -2.033,2.09 -0.843,3.09 -0.764,1.13 -0.738,4.42 -1.598,35.4 0.784,13.15 -0.821,8.42 0.331,0.21 0.245,-1.76 -0.156,-3.41"
       id="path230" />
  </g>
  <g
     id="g231">
    <path
       fill="none"
       stroke="#000000"
       stroke-width="4"
       stroke-linecap="round"
       stroke-linejoin="round"
       d="m 369.659,1290.65 -1.973,-0.92 -0.234,0.4 0.223,-0.76 4.232,-1.75 4.409,-0.24 1.989,-0.93 0.763,0.47 3.254,-0.13 2.298,-1.34 2.391,0.73 3.781,-0.25 1.516,-1.82 1.472,-1 0.903,0.97 3.664,0.13 1.36,-1.71 1.353,-0.91 0.734,1.02 4.462,-0.78 2.208,-2.16 0.527,0.5 2.354,-0.48 1.453,-1.44 1.941,-0.05 0.544,-1.18 -0.186,0.37 -1.102,-0.41 -1.238,0.23 -1.087,1.02 -0.348,-0.45 -1.941,0.39 -1.442,1.51 -1.452,-0.51 -1.469,0.29"
       id="path231" />
  </g>
  <g
     id="g232">
    <path
       fill="none"
       stroke="#000000"
       stroke-width="4"
       stroke-linecap="round"
       stroke-linejoin="round"
       d="m 399.522,1284.03 -2.936,-0.3 -0.221,-0.53 -1.125,7.86 -3.005,7.34 -3.935,7.57 -4.116,6.38 -4.969,6.48 -3.588,4.34 -2.597,2.42 -0.996,2.6 -0.318,0.5 -0.143,-0.37 -0.421,0.22 -1.125,2.63 -0.36,-0.3 -1.521,2.14 0.396,-0.32 0.378,-2.18 0.211,1.08 0.85,-1.9 0.75,-0.36 1.067,-1.62"
       id="path232" />
  </g>
  <g
     id="g233">
    <path
       fill="none"
       stroke="#000000"
       stroke-width="4"
       stroke-linecap="round"
       stroke-linejoin="round"
       d="m 387.534,1294.64 0.593,-4.75 -0.121,1.22 0.233,0.69 0.127,-0.64 -0.989,10.25 -2.301,12.43 0.412,9.59 1.949,5.54 1.681,2.64 0.6,0.7 0.725,-0.12 0.579,0.45 0.417,1.11 2.358,2.33 2.065,1.52 2.313,0.91 1.516,-0.23 0.583,0.48 2.104,0.14 1.416,-0.4 1.204,0.52 2.005,-0.82 4.087,-3.27 1.848,-3.63 1.08,-4.86 -0.103,-2.87 -0.867,-2.68 0.155,-1.47 -0.385,-0.85 -0.262,0.54 -0.614,-1.27 -0.794,-0.45 -0.881,-3.14 0.253,-2.09"
       id="path233" />
  </g>
  <g
     id="g234">
    <path
       fill="none"
       stroke="#000000"
       stroke-width="4.5"
       stroke-linecap="round"
       stroke-linejoin="round"
       d="m 550.77,1235.03 -0.381,-0.43 0.094,-2.84 0.702,2.31 0.068,4.09 -2.98,27.26 -0.422,8.9 0.893,2.52 -0.359,1.77 0.313,0.67 0.439,-0.72 0.364,1.14 -0.25,1.4 1.112,-1.75 1.438,-6.11 -0.154,-10.23"
       id="path234" />
  </g>
  <g
     id="g235">
    <path
       fill="none"
       stroke="#000000"
       stroke-width="4.5"
       stroke-linecap="round"
       stroke-linejoin="round"
       d="m 547.962,1230.6 -1.842,-6.82 0.214,-2.3 0.028,0.7 0.267,-0.18 1.126,1.73 3.218,1.79 0.481,0.95 1.835,-0.37 2.822,0.62 2.005,1.28 7.642,-1.07 1.278,0.95 1.618,-0.01 1.779,-1.02 5.47,-0.55 1.774,0.28 3.335,-0.8 6.933,-0.63 3.322,0.55 5.782,-0.51 2.559,-0.69 3.799,0.91 2.622,0.01 2.99,1.07 0.649,0.85 -1.487,13.71 -4.705,26.73 -0.642,7.66 0.029,6.45 -0.561,4.91 -0.972,2.39 0.134,1.09 -1.002,2.11 -0.218,-1.48 0.785,-1.93 -0.24,0.78 -0.623,-0.3 -0.305,-1.42 -1.832,-1.59 -0.545,-3.63 -0.606,0.59 -2.301,-2.13"
       id="path235" />
  </g>
  <g
     id="g236">
    <path
       fill="none"
       stroke="#000000"
       stroke-width="4.5"
       stroke-linecap="round"
       stroke-linejoin="round"
       d="m 567.167,1251.23 -0.59,-0.31 -0.753,0.48 -0.006,-0.61 0.45,-0.02 0.068,0.51 2.2,-0.87 1.909,0.41 10.506,-0.4 1.909,-0.93 1.681,0.03 4.114,-1.55 2.584,-0.38 1.411,-2.27 0.686,0.69 0.992,-0.2 0.914,-2.39 -0.045,0.69 0.326,-0.11 0.242,-1.47 0.381,-0.3 -0.02,0.76 -0.443,-1.69 -0.29,0.41 -0.622,-0.21 -2.854,-1.65"
       id="path236" />
  </g>
  <g
     id="g237">
    <path
       fill="none"
       stroke="#000000"
       stroke-width="4.5"
       stroke-linecap="round"
       stroke-linejoin="round"
       d="m 582.419,1234.47 -3.638,2.98 -1.031,4.06 -2.826,18.47 -3.008,5.58 -1.97,4.85 -1.086,1.28 0.38,-0.31 -0.337,1.18 1.143,-4.67 0.061,0.7 0.543,-0.65 6.175,-10.75 0.866,-1.21 0.409,0.23 0.954,-1.68 0.336,0.76 0.333,-0.28 0.113,1.98 0.591,0.17 0.788,2.7 1.232,-0.29 2.116,4.24 0.822,-0.73 0.645,0.37 0.263,1.68 1.608,1.53 1.245,-0.87 0.949,1.72 1.645,1.33 0.881,-0.51 1.315,1 0.098,0.84 1.345,-0.61 -0.134,0.76 0.375,-1.08 -0.525,0.69 0.137,-0.87 -0.296,1.01 -0.404,-0.3"
       id="path237" />
  </g>
  <g
     id="g238">
    <path
       fill="none"
       stroke="#000000"
       stroke-width="4.5"
       stroke-linecap="round"
       stroke-linejoin="round"
       d="m 550.205,1280.59 -2.174,0.51 -1.624,-0.51 -1.744,2.78 0.508,-1.01 0.018,0.87 0.782,0.66 4.058,1.15 7.415,0.16 20.03,-3.54 6.817,-0.06 3.719,-1.72 1.572,0.48 5.266,0.16 1.527,-2.07 1.523,-0.56 0.558,1.53 2.374,0.37 2.038,-1.57 1.756,1.5 0.462,-1.34 -1.218,1.05 -0.568,-0.73 -1.105,1.04 -0.645,-0.98 -2.041,2.59 -4.303,3.05 -4.5,1.82 -2.259,1.58 -0.956,-0.17"
       id="path238" />
  </g>
  <g
     id="g239">
    <path
       fill="none"
       stroke="#000000"
       stroke-width="4.5"
       stroke-linecap="round"
       stroke-linejoin="round"
       d="m 544.407,1316.8 -0.709,1.09 0.485,-0.7 0.293,3.77 0.815,0.62 1.47,4.91 0.764,-0.87 0.755,0.29 v 1.92 l 0.718,2.24 0.97,0.37 0.434,0.82 0.909,3.53 1.123,0.4 1.231,3.78 0.799,0.37 0.728,-0.53 2.549,2.66 4.493,0.47 0.386,1.43 1.079,0.58 1.271,-0.75 3.591,0.53 2.2,1.07 7.253,-0.43 1.175,0.59 7.873,-1.04 1.553,-0.01 1.23,0.58 2.825,-1.24 4.042,-0.98 1.945,0.51 2.739,-1.75 1.154,-0.29 0.318,0.38 1.599,-0.65 0.623,0.56 -0.527,0.41 0.436,-0.36 0.717,1.12 0.333,-0.86 1.148,-0.46 1.156,-1.74 -0.668,-2.72 -0.876,-0.45 -2.667,-3.64 -3.248,-2.37 -1.496,-1.69"
       id="path239" />
  </g>
  <g
     id="g240">
    <path
       fill="none"
       stroke="#000000"
       stroke-width="4.5"
       stroke-linecap="round"
       stroke-linejoin="round"
       d="m 570.751,1314.32 -1.701,-0.82 -1.107,0.16 -0.769,0.78 0.812,-0.33 0.223,1.39 0.388,-0.76 1.499,-0.53 0.431,0.82 1.526,-0.57 0.34,0.93 2.217,-0.8 1.066,0.57 3.6,-1.18 1.27,0.54 4.129,-1.55 2.088,0.37"
       id="path240" />
  </g>
  <g
     id="g241">
    <path
       fill="none"
       stroke="#000000"
       stroke-width="4.5"
       stroke-linecap="round"
       stroke-linejoin="round"
       d="m 622.808,1317.9 -0.463,1.75 0.84,-0.49 0.774,0.1 0.647,0.76 h 4.112 l 1.897,1.35 8.845,-1.67 -0.14,-0.52 -0.501,0.51 -0.444,-0.39 -1.643,0.04 -0.289,0.56"
       id="path241" />
  </g>
  <g
     id="g242">
    <path
       fill="none"
       stroke="#000000"
       stroke-width="4.5"
       stroke-linecap="round"
       stroke-linejoin="round"
       d="m 533.875,1312.55 -1.369,0.76 -0.938,-1.46 -0.458,1.79 0.012,-1.22 0.211,0.86 -6.856,7.57 -2.221,1.22 -0.953,1.26 -2.489,1.12 -1.411,1.65 -1.384,0.04 -0.963,0.68 0.189,1.13 0.939,0.14 1.22,-0.43 1.876,0.46 1.71,-0.97"
       id="path242" />
  </g>
</g>
</svg>
