<?xml version="1.0" encoding="UTF-8" standalone="no"?>
<svg
   width="268.63522"
   height="232.05902"
   viewBox="-702 0 268.63522 232.05902"
   version="1.2"
   id="svg924"
   xmlns="http://www.w3.org/2000/svg"
   xmlns:svg="http://www.w3.org/2000/svg"><defs
   id="defs924" />
<title
   id="title1">Notebook 3</title>
\n<g
   id="g945"
   transform="matrix(1.0412217,0,0,0.92086902,-110.58608,-462.27625)">
  <g
     id="g339">
    <path
       fill="#201c1c"
       fill-rule="evenodd"
       opacity="0.500008"
       d="m -437,732 v -1.5 l 0.5,-0.5 1.5,2 h -2"
       id="path339" />
  </g>
  <g
     id="g340">
    <path
       fill="#201c1c"
       fill-rule="evenodd"
       opacity="0.500008"
       d="m -396,729 h -1.5 l -0.5,-0.5 0.5,-0.5 h 3.5 v 1 h -1 -1"
       id="path340" />
  </g>
  <g
     id="g341">
    <path
       fill="#201c1c"
       fill-rule="evenodd"
       opacity="0.500008"
       d="m -401,729 h -1 v -1 h 1 v 1"
       id="path341" />
  </g>
  <g
     id="g342">
    <path
       fill="#201c1c"
       fill-rule="evenodd"
       opacity="0.500008"
       d="m -415,730 -14.5,1 -2.5,-2.5 0.5,-0.5 16.5,1 v 1"
       id="path342" />
  </g>
  <g
     id="g343">
    <path
       fill="#201c1c"
       fill-rule="evenodd"
       opacity="0.500008"
       d="m -448,731 v -0.5 l 0.5,-0.5 0.5,1 h -1"
       id="path343" />
  </g>
  <g
     id="g344">
    <path
       fill="#000000"
       fill-rule="evenodd"
       d="m -365,686 v -0.5 l 0.5,-0.5 0.5,1 h -1"
       id="path344" />
  </g>
  <g
     id="g345">
    <path
       fill="#201c1c"
       fill-rule="evenodd"
       opacity="0.500008"
       d="m -432,697 h -1 v -1 h 1 v 1"
       id="path345" />
  </g>
  <g
     id="g346">
    <path
       fill="#201c1c"
       fill-rule="evenodd"
       opacity="0.500008"
       d="m -441,697 h -1 v -1 h 1 v 1"
       id="path346" />
  </g>
  <g
     id="g347">
    <path
       fill="#201c1c"
       fill-rule="evenodd"
       opacity="0.500008"
       d="m -418,695 h -1 v -1 h 1 v 1"
       id="path347" />
  </g>
  <g
     id="g348">
    <path
       fill="#201c1c"
       fill-rule="evenodd"
       opacity="0.500008"
       d="m -434,695 v -0.5 l 0.5,-0.5 h 4.5 v 0.5 l -0.5,0.5 h -4.5"
       id="path348" />
  </g>
  <g
     id="g349">
    <path
       fill="#201c1c"
       fill-rule="evenodd"
       opacity="0.500008"
       d="m -420,693 -0.5,1 -0.5,-1 h 1"
       id="path349" />
  </g>
  <g
     id="g350">
    <path
       fill="#201c1c"
       fill-rule="evenodd"
       opacity="0.500008"
       d="m -424,694 v -0.5 l 0.5,-0.5 h 0.5 v 0.5 l -0.5,0.5 h -0.5"
       id="path350" />
  </g>
  <g
     id="g351">
    <path
       fill="#201c1c"
       fill-rule="evenodd"
       opacity="0.500008"
       d="m -383.5,687 h -2.5 l 0.5,-1 h 2.5 l -0.5,1"
       id="path351" />
  </g>
  <g
     id="g352">
    <path
       fill="#201c1c"
       fill-rule="evenodd"
       opacity="0.500008"
       d="m -389,687 h -1 v -1 h 1 v 1"
       id="path352" />
  </g>
  <g
     id="g353">
    <path
       fill="#201c1c"
       fill-rule="evenodd"
       opacity="0.500008"
       d="m -377,686 h -3.5 l -0.5,-0.5 4.5,-4.5 1.5,1 v 1.5 l -2,2 v 0.5"
       id="path353" />
  </g>
  <g
     id="g354">
    <path
       fill="#201c1c"
       fill-rule="evenodd"
       opacity="0.500008"
       d="m -391.5,687 h -8.5 l 0.5,-1 2.5,-0.625 4,-1.75 2.75,-0.375 0.25,2.25 -1.5,1.5"
       id="path354" />
  </g>
  <g
     id="g355">
    <path
       fill="#201c1c"
       fill-rule="evenodd"
       opacity="0.500008"
       d="m -399.5,682 h -1.5 l 0.5,-1 h 1.5 l -0.5,1"
       id="path355" />
  </g>
  <g
     id="g356">
    <path
       fill="#201c1c"
       fill-rule="evenodd"
       opacity="0.500008"
       d="m -397.5,681 h -1.5 l 0.5,-1 h 1.5 l -0.5,1"
       id="path356" />
  </g>
  <g
     id="g357">
    <path
       fill="#201c1c"
       fill-rule="evenodd"
       opacity="0.500008"
       d="m -388.5,679 h -1.5 l 0.5,-1 h 1.5 l -0.5,1"
       id="path357" />
  </g>
  <g
     id="g358">
    <path
       fill="#201c1c"
       fill-rule="evenodd"
       opacity="0.500008"
       d="m -387,678 h -1 v -1 h 1 v 1"
       id="path358" />
  </g>
  <g
     id="g359">
    <path
       fill="#201c1c"
       fill-rule="evenodd"
       opacity="0.500008"
       d="m -391,675 h -1 v -1 h 1 v 1"
       id="path359" />
  </g>
  <g
     id="g360">
    <path
       fill="#201c1c"
       fill-rule="evenodd"
       opacity="0.500008"
       d="m -389,673 h -1 v -1 h 1 v 1"
       id="path360" />
  </g>
  <g
     id="g361">
    <path
       fill="#201c1c"
       fill-rule="evenodd"
       opacity="0.500008"
       d="m -386,672 h -1 v -1 h 1 v 1"
       id="path361" />
  </g>
  <g
     id="g362">
    <path
       fill="#201c1c"
       fill-rule="evenodd"
       opacity="0.500008"
       d="m -397.5,672 h -1.5 l 0.5,-1 h 1.5 l -0.5,1"
       id="path362" />
  </g>
  <g
     id="g363">
    <path
       fill="#201c1c"
       fill-rule="evenodd"
       opacity="0.500008"
       d="m -404,672 h -1 v -1 h 1 v 1"
       id="path363" />
  </g>
  <g
     id="g364">
    <path
       fill="#201c1c"
       fill-rule="evenodd"
       opacity="0.500008"
       d="m -395,671 h -1 v -1 h 1 v 1"
       id="path364" />
  </g>
  <g
     id="g365">
    <path
       fill="#201c1c"
       fill-rule="evenodd"
       opacity="0.500008"
       d="m -418,670 h -1 v -1 h 1 v 1"
       id="path365" />
  </g>
  <g
     id="g366">
    <path
       fill="#201c1c"
       fill-rule="evenodd"
       opacity="0.500008"
       d="m -390,669 h -1 v -1 h 1 v 1"
       id="path366" />
  </g>
  <g
     id="g367">
    <path
       fill="#201c1c"
       fill-rule="evenodd"
       opacity="0.500008"
       d="m -409.5,670 -1.5,-0.5 h -2 l -1.5,0.5 -0.5,-0.5 1.5,-1.5 h 5 l 0.5,0.5 -1.5,1.5"
       id="path367" />
  </g>
  <g
     id="g368">
    <path
       fill="#201c1c"
       fill-rule="evenodd"
       opacity="0.500008"
       d="m -414.5,665 h -1.5 l 0.5,-1 h 1.5 l -0.5,1"
       id="path368" />
  </g>
  <g
     id="g369">
    <path
       fill="#201c1c"
       fill-rule="evenodd"
       opacity="0.500008"
       d="m -452,726 1,0.5 -1,0.5 v -1"
       id="path369" />
  </g>
  <g
     id="g370">
    <path
       fill="#000000"
       fill-rule="evenodd"
       d="m -460,714 -0.5,1 -0.5,-1 h 1"
       id="path370" />
  </g>
  <g
     id="g371">
    <path
       fill="#201c1c"
       fill-rule="evenodd"
       opacity="0.500008"
       d="m -453,712 h -1 v -1 h 1 v 1"
       id="path371" />
  </g>
  <g
     id="g372">
    <path
       fill="#201c1c"
       fill-rule="evenodd"
       opacity="0.500008"
       d="m -454,711 -1,-1 v -1 l 1,0.5 v 1.5"
       id="path372" />
  </g>
  <g
     id="g373">
    <path
       fill="#201c1c"
       fill-rule="evenodd"
       opacity="0.500008"
       d="m -388,724 -19.5,1 -1,-1 -1,1 -13.5,-0.75 -3,-0.875 -8,0.125 -1.5,0.5 -9.5,-9.5 v -1 l -2.5,-2.5 -1,1 -0.5,-0.5 v -1 l -3,-3 -0.25,-2.25 L -454,704 v -2 l 1.5,-1 h 2 l 1,-1 1,1 17,-2 1,1 1,-1 1.5,0.5 h 2 l 1.5,-0.5 1,-1 1,1 1,-1 2.5,0.625 2,0.125 6.5,-0.75 1,-1 1,1 13,1 1,-1 1.5,1 0.375,5 -0.875,2 -0.25,1.75 3.5,1.5 0.25,1.25 2.5,2.5 h 0.5 v 1 1.5 l 0.5,0.5 h 0.5 l -0.5,4 -1.5,4"
       id="path373" />
  </g>
  <g
     id="g374">
    <path
       fill="#201c1c"
       fill-rule="evenodd"
       opacity="0.500008"
       d="m -455,690 h -1 v -1 h 1 v 1"
       id="path374" />
  </g>
  <g
     id="g375">
    <path
       fill="#201c1c"
       fill-rule="evenodd"
       opacity="0.500008"
       d="m -497,686 h -1 v -1 h 1 v 1"
       id="path375" />
  </g>
  <g
     id="g376">
    <path
       fill="#201c1c"
       fill-rule="evenodd"
       opacity="0.500008"
       d="m -477,684 h -1 v -1 h 1 v 1"
       id="path376" />
  </g>
  <g
     id="g377">
    <path
       fill="#201c1c"
       fill-rule="evenodd"
       opacity="0.500008"
       d="m -471,683 h -1 v -1 h 1 v 1"
       id="path377" />
  </g>
  <g
     id="g378">
    <path
       fill="#201c1c"
       fill-rule="evenodd"
       opacity="0.500008"
       d="m -479,683 h -1 v -1 h 1 v 1"
       id="path378" />
  </g>
  <g
     id="g379">
    <path
       fill="#201c1c"
       fill-rule="evenodd"
       opacity="0.500008"
       d="m -494,683 h -1 v -1 h 1 v 1"
       id="path379" />
  </g>
  <g
     id="g380">
    <path
       fill="#201c1c"
       fill-rule="evenodd"
       opacity="0.500008"
       d="m -498,684.625 -1.75,0.125 v -1.5 l 1.25,-0.25 1,-1 1,1 h 1.5 l -0.5,1 -2.5,0.625"
       id="path380" />
  </g>
  <g
     id="g381">
    <path
       fill="#201c1c"
       fill-rule="evenodd"
       opacity="0.500008"
       d="m -501,683 h -1 v -1 h 1 v 1"
       id="path381" />
  </g>
  <g
     id="g382">
    <path
       fill="#201c1c"
       fill-rule="evenodd"
       opacity="0.500008"
       d="m -494,688 0.25,-0.75 2.25,-0.25 2,-2 h 1 l 1.5,-1.5 v -1 l 3,-2.5 2,7.5 1.5,1.5 1.5,-0.25 5,-1.375 2.5,-0.375 2,-2 1.375,-0.25 0.125,-4.25 1.5,-1.5 1,1 1,-1 0.5,0.5 v 3 l 5,5 -0.25,1.25 -2.25,0.25 -1,-1 -1,1 -9.5,1.75 -11.5,-0.75 -1,-1 -1,1 h -1.5 l -0.25,-0.75 L -494,688"
       id="path382" />
  </g>
  <g
     id="g383">
    <path
       fill="#201c1c"
       fill-rule="evenodd"
       opacity="0.500008"
       d="m -471,680 h -1 v -1 h 1 v 1"
       id="path383" />
  </g>
  <g
     id="g384">
    <path
       fill="#201c1c"
       fill-rule="evenodd"
       opacity="0.500008"
       d="m -474,682.375 -2.75,0.375 v -2.5 l 1.25,-0.25 1,-1 1,1 1.25,0.25 v 1.5 l -1.75,0.625"
       id="path384" />
  </g>
  <g
     id="g385">
    <path
       fill="#201c1c"
       fill-rule="evenodd"
       opacity="0.500008"
       d="m -479,680 h -1 v -1 h 1 v 1"
       id="path385" />
  </g>
  <g
     id="g386">
    <path
       fill="#201c1c"
       fill-rule="evenodd"
       opacity="0.500008"
       d="m -428.5,685 -5,-1 -1,1 -1,-1 -14,-1 -1,1 -1,-1 -1,1 h -4 l -3.5,-3.5 0.25,-1.25 1.75,-0.375 34.5,0.125 0.5,0.5 -1,1 v 2 l 1,1 -0.5,0.5 h -4 l -1,1"
       id="path386" />
  </g>
  <g
     id="g387">
    <path
       fill="#000000"
       fill-rule="evenodd"
       d="m -501,683 v -1 h -1 v 1 h 1 m 3,1.625 2.5,-0.625 0.5,-1 h -1.5 l -1,-1 -1,1 -1.25,0.25 v 1.5 l 1.75,-0.125 m 4,-1.625 v -1 h -1 v 1 h 1 m -11,1 2,-1.5 -1,-1 1,-3 1.5,-1.5 1,1 1.5,0.375 3.5,0.625 1,-1 1,1 1,-1 7,-1 1.5,1.5 v 1.5 l -3,2.5 v 1 l -1.5,1.5 h -1 l -2,2 -2.25,0.25 -0.25,0.75 h -2.5 l -2,2 -1,-1 h -2 l -1.5,-1.5 1,-1 -0.5,-0.5 h -1 l -1.5,-2 m 8,2 v -1 h -1 v 1 h 1"
       id="path387" />
  </g>
  <g
     id="g388">
    <path
       fill="#000000"
       fill-rule="evenodd"
       d="m -486,675 -0.5,1 -0.5,-1 h 1"
       id="path388" />
  </g>
  <g
     id="g389">
    <path
       fill="#201c1c"
       fill-rule="evenodd"
       opacity="0.500008"
       d="m -487,675 v -0.5 l 0.5,-0.5 0.5,1 h -1"
       id="path389" />
  </g>
  <g
     id="g390">
    <path
       fill="#201c1c"
       fill-rule="evenodd"
       opacity="0.500008"
       d="m -462.5,675 -2.25,-0.25 v -2.5 l 3.25,-0.25 1,-1 0.5,0.5 v 1 l -2.5,2.5"
       id="path390" />
  </g>
  <g
     id="g391">
    <path
       fill="#201c1c"
       fill-rule="evenodd"
       opacity="0.500008"
       d="m -467,671 h -1 v -1 h 1 v 1"
       id="path391" />
  </g>
  <g
     id="g392">
    <path
       fill="#201c1c"
       fill-rule="evenodd"
       opacity="0.500008"
       d="m -479.5,670 -6,-1 -0.5,-0.5 2.5,-2.5 h 4 l 1.5,1.5 v 1 l -1.5,1.5"
       id="path392" />
  </g>
  <g
     id="g393">
    <path
       fill="#201c1c"
       fill-rule="evenodd"
       opacity="0.500008"
       d="m -488,667 h -1 v -1 h 1 v 1"
       id="path393" />
  </g>
  <g
     id="g394">
    <path
       fill="#201c1c"
       fill-rule="evenodd"
       opacity="0.500008"
       d="m -449,666 h -1 v -1 h 1 v 1"
       id="path394" />
  </g>
  <g
     id="g395">
    <path
       fill="#201c1c"
       fill-rule="evenodd"
       opacity="0.500008"
       d="m -465,665 h -1 v -1 h 1 v 1"
       id="path395" />
  </g>
  <g
     id="g396">
    <path
       fill="#201c1c"
       fill-rule="evenodd"
       opacity="0.500008"
       d="m -486,664 h -1 v -1 h 1 v 1"
       id="path396" />
  </g>
  <g
     id="g397">
    <path
       fill="#201c1c"
       fill-rule="evenodd"
       opacity="0.500008"
       d="m -494.25,672 -8.75,-0.75 -2,0.125 -2.5,0.625 h -0.5 l 0.5,-1 h 1.5 l -0.5,-1 h -1.5 l 0.5,-1 13.25,-1 v 4"
       id="path397" />
  </g>
  <g
     id="g398">
    <path
       fill="#201c1c"
       fill-rule="evenodd"
       opacity="0.500008"
       d="m -514,664 h 2.5 l 0.5,0.5 -1,1 v 6.5 l -0.75,-0.25 -0.5,-1.75 -0.75,-6"
       id="path398" />
  </g>
  <g
     id="g413">
    <path
       fill="#201c1c"
       fill-rule="evenodd"
       opacity="0.500008"
       d="m -441,667.375 -2.75,0.375 -0.5,-2.5 -1.25,-0.25 h -0.5 l 0.5,-1 4,-1 1,-1 0.5,0.5 v 3 l 1,1 -0.5,0.5 -1.5,0.375"
       id="path413" />
  </g>
  <g
     id="g414">
    <path
       fill="#201c1c"
       fill-rule="evenodd"
       opacity="0.500008"
       d="m -397,661 h -1 v -1 h 1 v 1"
       id="path414" />
  </g>
  <g
     id="g415">
    <path
       fill="#201c1c"
       fill-rule="evenodd"
       opacity="0.500008"
       d="m -421.5,665 -7,-1 -0.5,-0.5 1,-1 v -1 l 1.5,-1.5 1,1 h 3 l 1,-1 1,1 h 1 l 0.5,0.5 -1,1 v 1 l -1.5,1.5"
       id="path415" />
  </g>
  <g
     id="g416">
    <path
       fill="#201c1c"
       fill-rule="evenodd"
       opacity="0.500008"
       d="m -403.5,663 -6.25,-0.125 -0.75,-1.875 -0.25,-1.75 8.5,0.875 0.25,1.375 -1.5,1.5"
       id="path416" />
  </g>
  <g
     id="g417">
    <path
       fill="#201c1c"
       fill-rule="evenodd"
       opacity="0.500008"
       d="m -397.25,666.75 -3.25,0.25 -0.5,-0.5 3.5,-3.5 h 1 l 1,-1 1,1 1.375,-0.25 0.125,-4.75 1,0.5 0.25,1.375 8.25,-0.875 1,-1 0.5,0.5 -0.25,3.25 -5.75,1.625 -7.5,0.625 -1.5,1.5 -0.25,1.25"
       id="path417" />
  </g>
  <g
     id="g418">
    <path
       fill="#201c1c"
       fill-rule="evenodd"
       opacity="0.500008"
       d="m -412,658 h -1 v -1 h 1 v 1"
       id="path418" />
  </g>
  <g
     id="g419">
    <path
       fill="#201c1c"
       fill-rule="evenodd"
       opacity="0.500008"
       d="m -433.5,660 -0.5,-0.5 0.25,-2.25 h 1.5 l 0.25,1.25 -1.5,1.5"
       id="path419" />
  </g>
  <g
     id="g420">
    <path
       fill="#201c1c"
       fill-rule="evenodd"
       opacity="0.500008"
       d="m -414,657 -1,-0.5 V 654 l 1,0.5 v 2.5"
       id="path420" />
  </g>
  <g
     id="g421">
    <path
       fill="#201c1c"
       fill-rule="evenodd"
       opacity="0.500008"
       d="m -401.125,654.75 -7.375,-0.75 -1.5,-1.5 0.25,-2.5 h 8.625 v 4.75"
       id="path421" />
  </g>
  <g
     id="g422">
    <path
       fill="#201c1c"
       fill-rule="evenodd"
       opacity="0.500008"
       d="m -432,651 h -1 v -1 h 1 v 1"
       id="path422" />
  </g>
  <g
     id="g423">
    <path
       fill="#201c1c"
       fill-rule="evenodd"
       opacity="0.500008"
       d="m -369,671 -3,0.5 -2.75,0.75 -1.25,3.25 1,1 -1.5,1.5 -1,-1 h -7.5 l 0.5,-1 h 3 l 5.5,-5.5 -2.5,-2.5 -10.5,1 0.5,-1 7,-1 2.5,-2.5 1.375,-4.5 0.625,-4.5 -1.5,-1.5 -1.375,-0.25 -0.125,-4.75 3,0.5 6,1.5 1,0.5 0.25,1.25 1.5,0.5 0.75,1.75 1,2 0.5,1.5 2,2 v 2.5 l -1,3.5 -4,4 v 0.5"
       id="path423" />
  </g>
  <g
     id="g424">
    <path
       fill="#201c1c"
       fill-rule="evenodd"
       opacity="0.500008"
       d="m -384,649 -0.125,4.875 h -5.625 l -0.25,-3.375 1.5,-1.5 h 3.5 1"
       id="path424" />
  </g>
  <g
     id="g425">
    <path
       fill="#201c1c"
       fill-rule="evenodd"
       opacity="0.500008"
       d="m -395,649 v 3.5 l -1.5,1.5 -0.5,-0.5 1,-4.5 h 1"
       id="path425" />
  </g>
  <g
     id="g426">
    <path
       fill="#201c1c"
       fill-rule="evenodd"
       opacity="0.500008"
       d="m -423,655.25 -4.5,0.75 -0.5,-0.5 1,-1 -2,-2 1.25,-3.25 1.25,-0.25 1,1 1,-1 h 2 l 1,1 1,-1 1,1 1.25,0.25 0.25,2.25 -1.5,1.5 -3.5,1.25"
       id="path426" />
  </g>
  <g
     id="g427">
    <path
       fill="#201c1c"
       fill-rule="evenodd"
       opacity="0.500008"
       d="m -409,649 h -1 v -1 h 1 v 1"
       id="path427" />
  </g>
  <g
     id="g428">
    <path
       fill="#201c1c"
       fill-rule="evenodd"
       opacity="0.500008"
       d="m -413,648 h -1 v -1 h 1 v 1"
       id="path428" />
  </g>
  <g
     id="g429">
    <path
       fill="#201c1c"
       fill-rule="evenodd"
       opacity="0.500008"
       d="m -409,646 h -0.5 l -0.5,-0.5 V 645 h 0.5 l 0.5,0.5 v 0.5"
       id="path429" />
  </g>
  <g
     id="g430">
    <path
       fill="#201c1c"
       fill-rule="evenodd"
       opacity="0.500008"
       d="m -467,663 -1,-1 v -1 l 1,0.5 v 1.5"
       id="path430" />
  </g>
  <g
     id="g431">
    <path
       fill="#201c1c"
       fill-rule="evenodd"
       opacity="0.500008"
       d="m -412,686.5 -5.75,0.375 -1.25,-4.375 -1,-1 1,-1 -0.125,-5.25 -1.875,-0.375 -14.5,-0.875 -1,-1 -1,1 h -6 l -1,-1 -1,1 h -1 l -1,-1 -1,1 h -7 l -0.5,-0.5 1,-1 1.5,-6.5 0.5,-6 1,0.5 v 2 l 1,1 -1,1 2,4 1.5,1.5 3.5,1.25 h 5 l 3.5,-1.25 1.5,-1.5 -1,-7 1.5,-1.5 0.5,0.5 0.25,3.25 1.5,0.5 0.25,1.25 -1,1 1.5,1.5 7,1 1,1 1,-1 3,1 1.5,1.5 -1,1 v 1 l 1.5,1.5 1,-1 0.5,0.5 -1,7 1.5,1.5 3.25,-0.25 0.25,-1.25 1.5,-1.5 h 1 l 1.5,-1.5 v -3 l -1,-1 1.5,-1.5 h 1 l 1,-1 1.5,1.5 -0.25,3.25 -1.5,0.5 -0.875,2.75 0.125,2 0.75,1.75 1.25,0.25 1.5,1.5 -0.5,0.5 h -3 l -1,-1 -1,1 -3.5,0.5"
       id="path431" />
  </g>
  <g
     id="g432">
    <path
       fill="#201c1c"
       fill-rule="evenodd"
       opacity="0.500008"
       d="m -458.25,665.75 -3.25,0.25 -2,-2 h -1 l -0.5,-0.5 1.5,-1.5 h 3 l 2,-2 1.25,0.25 -0.25,2.75 -0.75,2.75"
       id="path432" />
  </g>
  <g
     id="g433">
    <path
       fill="#201c1c"
       fill-rule="evenodd"
       opacity="0.500008"
       d="m -506,679 1.75,-0.25 0.25,-1.25 1.5,-1.5 10.5,-0.875 1.75,-0.375 0.25,-3.75 1,0.5 0.25,3.25 1.75,0.25 0.5,1 0.5,-1 9.5,-2 2.5,-2.5 -0.75,-5.5 -0.5,-1.75 -5.25,-1.25 -0.5,-0.5 2,-2 v -1 l 0.5,-0.5 1.5,1.5 0.25,1.25 5.5,-0.5 0.25,2.25 -1,1 1,1 1,3 -1,1 2,2 -1,1 v 1 l 1,1 -1.5,1.5 h -2 l -1,1 -1,-1 -1,1 -1,-1 -1,1 -1,-1 -1,1 h -1 l -1.5,1.5 -0.25,2.25 -1.75,0.25 v -1.5 l -1.5,-1.5 -7,1 -1,1 -1,-1 -1,1 -3.5,-0.625 -1.5,-0.375 -1,-1 -1.5,1.5 -1,3 1,1 -2,1.5 v -1.5 l -1,-1 V 679"
       id="path433" />
  </g>
  <g
     id="g434">
    <path
       fill="#201c1c"
       fill-rule="evenodd"
       opacity="0.500008"
       d="m -465,658 h -1 v -1 h 1 v 1"
       id="path434" />
  </g>
  <g
     id="g435">
    <path
       fill="#201c1c"
       fill-rule="evenodd"
       opacity="0.500008"
       d="m -472,658 h -1 v -1 h 1 v 1"
       id="path435" />
  </g>
  <g
     id="g436">
    <path
       fill="#201c1c"
       fill-rule="evenodd"
       opacity="0.500008"
       d="m -449,657 h -1 v -1 h 1 v 1"
       id="path436" />
  </g>
  <g
     id="g437">
    <path
       fill="#201c1c"
       fill-rule="evenodd"
       opacity="0.500008"
       d="m -472,656 h -1 v -1 h 1 v 1"
       id="path437" />
  </g>
  <g
     id="g438">
    <path
       fill="#000000"
       fill-rule="evenodd"
       d="m -492,655 1,0.5 -1,0.5 v -1"
       id="path438" />
  </g>
  <g
     id="g439">
    <path
       fill="#201c1c"
       fill-rule="evenodd"
       opacity="0.500008"
       d="m -492,656 h -1.5 l -0.5,-0.5 0.5,-0.5 h 1.5 v 1"
       id="path439" />
  </g>
  <g
     id="g440">
    <path
       fill="#201c1c"
       fill-rule="evenodd"
       opacity="0.500008"
       d="m -439.5,658 -2,-1 -1,1 -1,-1 -1,1 h -2 l -1,1 -0.5,-0.5 0.125,-6.25 8.875,-2 h 1.875 l 0.125,5.25 -2.5,2.5"
       id="path440" />
  </g>
  <g
     id="g441">
    <path
       fill="#201c1c"
       fill-rule="evenodd"
       opacity="0.500008"
       d="m -476,652 h -1 v -1 h 1 v 1"
       id="path441" />
  </g>
  <g
     id="g442">
    <path
       fill="#201c1c"
       fill-rule="evenodd"
       opacity="0.500008"
       d="m -492,655 0.5,-1 0.75,-1.875 4.25,-0.125 1,-1 1,1 h 1 l 1,-1 0.5,0.5 1,4 -4.5,4.5 -1,-1 -4,-1 -1.5,-2 1,-0.5 -1,-0.5"
       id="path442" />
  </g>
  <g
     id="g443">
    <path
       fill="#201c1c"
       fill-rule="evenodd"
       opacity="0.500008"
       d="M -461.25,655.875 -471.5,655 l -1.5,-1.5 0.25,-1.25 5.75,-1.625 6.75,-0.5 -0.125,1.875 -0.875,3.875"
       id="path443" />
  </g>
  <g
     id="g444">
    <path
       fill="#201c1c"
       fill-rule="evenodd"
       opacity="0.500008"
       d="m -410,645 -2,0.5 -2,1 -2,0.125 -3,-0.875 -8.5,-0.75 -1,1 -1,-1 -1,1 h -2 l -1,1 -1,-1 -17,2 -1.5,1.5 -0.125,6.25 -3.375,0.25 -0.5,-0.5 1,-1 0.875,-7.25 -1.875,-0.375 -10.5,-0.875 -1,1 -1,-1 -1,1 -1.5,0.5 -2,0.875 -2.5,0.625 -1,1 -2,-2 -4,-1 -1,1 -1,-1 -1,1 h -1 l -1,-1 -1,1 -2.5,0.5 -4.75,1.75 -0.25,2.25 1,1 -1,1 0.25,1.5 1.5,6 0.25,1.5 -0.5,0.5 -1,-1 -1,1 -1,-1 -6,1 h -0.5 l 0.5,-1 h 2 l 2.5,-2.5 1,-3 -1,-1 1,-1 v -4 l -3,-3.5 h 1.5 l 1,-1 h 1.5 1 1.5 l 0.5,-0.5 V 646 l 14.5,-1 1,-1 1,1 1,-1 h 2.5 2 8.5 l 1,-1 1,1 1,-1 h 7.5 1 4 2 l 6,-0.75 h 5 l 1.5,-0.25 1,-1 1,1 h 2 l 1,1 1,-1 h 3 l 1,1 1,-1 12.5,1 v 0.5 l 1,1 v 0.5"
       id="path444" />
  </g>
  <g
     id="g445">
    <path
       fill="#201c1c"
       fill-rule="evenodd"
       opacity="0.500008"
       d="m -487,637 0.25,-0.875 7.25,-1.125 1,1 1,-1 h 21 l 1,-1 1,1 h 3 l 1,-1 0.5,1 -0.5,1 -36.5,1"
       id="path445" />
  </g>
  <g
     id="g446">
    <path
       fill="#201c1c"
       fill-rule="evenodd"
       opacity="0.500008"
       d="m -485,609 h -1 v -1 h 1 v 1"
       id="path446" />
  </g>
  <g
     id="g447">
    <path
       fill="#000000"
       fill-rule="evenodd"
       d="m -487,611.625 -2.5,0.375 -1,-1 -1,1 h -2 l -1,-1 -1,1 -4.25,-0.125 -0.25,-3.375 1.5,-1.5 1.5,0.375 h 4 l 1.5,-0.375 1,-1 1,1 5.5,-0.75 2,0.25 1.5,0.5 0.5,0.5 -1,1 v 1 l -1.5,1.5 -4.5,0.625 m 2,-2.625 v -1 h -1 v 1 h 1"
       id="path447" />
  </g>
  <g
     id="g448">
    <path
       fill="#201c1c"
       fill-rule="evenodd"
       opacity="0.500008"
       d="m -511,662 h -1 v -1 h 1 v 1"
       id="path448" />
  </g>
  <g
     id="g449">
    <path
       fill="#000000"
       fill-rule="evenodd"
       d="m -525,657 v -0.5 l 0.5,-0.5 h 0.5 v 1 h -1"
       id="path449" />
  </g>
  <g
     id="g450">
    <path
       fill="#201c1c"
       fill-rule="evenodd"
       opacity="0.500008"
       d="m -508,654 v -0.5 l 0.5,-0.5 1,1 1.5,-0.5 1.75,-0.25 V 655 l -0.875,4.875 L -512,659 l 2.5,-3 1.25,-0.25 0.25,-1.75"
       id="path450" />
  </g>
  <g
     id="g451">
    <path
       fill="#000000"
       fill-rule="evenodd"
       d="m -532,620 h 0.5 l 0.5,0.5 v 0.5 h -0.5 l -0.5,-0.5 V 620"
       id="path451" />
  </g>
  <g
     id="g452">
    <path
       fill="#201c1c"
       fill-rule="evenodd"
       opacity="0.500008"
       d="m -528,616 h -1 v -1 h 1 v 1"
       id="path452" />
  </g>
  <g
     id="g453">
    <path
       fill="#201c1c"
       fill-rule="evenodd"
       opacity="0.500008"
       d="m -526,615 h -1 v -1 h 1 v 1"
       id="path453" />
  </g>
  <g
     id="g454">
    <path
       fill="#201c1c"
       fill-rule="evenodd"
       opacity="0.500008"
       d="m -523,614 h -1 v -1 h 1 v 1"
       id="path454" />
  </g>
  <g
     id="g455">
    <path
       fill="#201c1c"
       fill-rule="evenodd"
       opacity="0.500008"
       d="m -519,613 h -1 v -1 h 1 v 1"
       id="path455" />
  </g>
  <g
     id="g456">
    <path
       fill="#201c1c"
       fill-rule="evenodd"
       opacity="0.500008"
       d="m -529,612 h -1 v -1 h 1 v 1"
       id="path456" />
  </g>
  <g
     id="g457">
    <path
       fill="#201c1c"
       fill-rule="evenodd"
       opacity="0.500008"
       d="m -530,610 -0.5,1 -0.5,-1 h 1"
       id="path457" />
  </g>
  <g
     id="g458">
    <path
       fill="#000000"
       fill-rule="evenodd"
       d="m -531,610 v -0.5 l 0.5,-0.5 0.5,1 h -1"
       id="path458" />
  </g>
  <g
     id="g459">
    <path
       fill="#201c1c"
       fill-rule="evenodd"
       opacity="0.500008"
       d="m -541,606 h 0.5 l 0.5,0.5 v 2.5 h -0.5 l -0.5,-0.5 V 606"
       id="path459" />
  </g>
  <g
     id="g460">
    <path
       fill="#201c1c"
       fill-rule="evenodd"
       opacity="0.500008"
       d="m -532,603 h -1 v -1 h 1 v 1"
       id="path460" />
  </g>
  <g
     id="g461">
    <path
       fill="#201c1c"
       fill-rule="evenodd"
       opacity="0.500008"
       d="m -542,602 h 0.5 l 0.5,0.5 v 1.5 h -0.5 l -0.5,-0.5 V 602"
       id="path461" />
  </g>
  <g
     id="g462">
    <path
       fill="#201c1c"
       fill-rule="evenodd"
       opacity="0.500008"
       d="m -522.5,602 h -1.5 l 0.5,-1 h 1.5 l -0.5,1"
       id="path462" />
  </g>
  <g
     id="g463">
    <path
       fill="#000000"
       fill-rule="evenodd"
       d="m -534,601 h -1 v -1 h 1 v 1"
       id="path463" />
  </g>
  <g
     id="g469">
    <path
       fill="#201c1c"
       fill-rule="evenodd"
       opacity="0.500008"
       d="m -420,596 h -1 v -1 h 1 v 1"
       id="path469" />
  </g>
  <g
     id="g470">
    <path
       fill="#201c1c"
       fill-rule="evenodd"
       opacity="0.500008"
       d="m -392,573 h -1 v -1 h 1 v 1"
       id="path470" />
  </g>
  <g
     id="g471">
    <path
       fill="#000000"
       fill-rule="evenodd"
       d="m -388.5,575 h -9 l -2,-2 -0.5,0.5 -0.25,1.25 h -2.5 L -403,573.5 V 573 l -1,0.5 v 1 l -0.5,0.5 -1.5,-1.5 0.25,-1.25 7.25,-2.25 1,1 1,-1 1,1 h 1 l 1,1 1,-1 5.25,0.125 0.25,2.375 -1.5,1.5 m -3.5,-2 v -1 h -1 v 1 h 1"
       id="path471" />
  </g>
  <g
     id="g472">
    <path
       fill="#000000"
       fill-rule="evenodd"
       d="m -409,566 -0.5,1 -0.5,-1 h 1"
       id="path472" />
  </g>
  <g
     id="g473">
    <path
       fill="#201c1c"
       fill-rule="evenodd"
       opacity="0.500008"
       d="m -410,566 v -0.5 l 0.5,-0.5 0.5,1 h -1"
       id="path473" />
  </g>
  <g
     id="g474">
    <path
       fill="#201c1c"
       fill-rule="evenodd"
       opacity="0.500008"
       d="m -399,560 h -1 v -1 h 1 v 1"
       id="path474" />
  </g>
  <g
     id="g475">
    <path
       fill="#201c1c"
       fill-rule="evenodd"
       opacity="0.500008"
       d="m -400,559 h -1 v -1 h 1 v 1"
       id="path475" />
  </g>
  <g
     id="g476">
    <path
       fill="#000000"
       fill-rule="evenodd"
       d="m -400,559 v -1 h -1 v 1 h 1 m 1,1 v -1 h -1 v 1 h 1 m -11,6 h -0.5 l -2.5,-2.5 v -1 l 0.5,-0.5 1,1 1,-1 h 3 l 1,1 1,-1 h 3 l 1,-1 1,1 h 2.5 l -0.5,-1 -3.25,-1.25 -0.25,-3.25 0.5,-0.5 1,1 h 4 l 1,1 2,-2 0.5,0.5 v 1.5 l 1,-0.5 v -1 l 0.5,-0.5 1,1 1.25,0.25 v 2.5 l -3.25,0.25 -1,-1 -0.5,0.5 -0.25,1.25 -2.25,0.25 -0.5,0.5 1.5,1.5 h 2 l 1.5,1.5 v 1 l -1.5,1.5 h -2 l -1,1 -0.5,-0.5 -0.25,-1.25 -1.25,-0.25 -2,-2 -2,2 -1,-1 -1,1 h -4.5 l -0.5,-1 -0.5,0.5 v 0.5"
       id="path476" />
  </g>
  <g
     id="g477">
    <path
       fill="#201c1c"
       fill-rule="evenodd"
       opacity="0.500008"
       d="m -407,552 h -1 v -1 h 1 v 1"
       id="path477" />
  </g>
  <g
     id="g478">
    <path
       fill="#000000"
       fill-rule="evenodd"
       d="m -404,550 h -1 v -1 h 1 v 1"
       id="path478" />
  </g>
  <g
     id="g479">
    <path
       fill="#000000"
       fill-rule="evenodd"
       d="m -397.25,553.75 -1.25,0.25 -1,-1 -1,1 -2,-2 -0.5,0.5 -0.25,1.25 h -1.5 l -0.25,-1.25 -0.5,-0.5 -1,1 h -5 l -1.5,-1.5 1.5,-1.5 h 1 l 1,-1 1,1 h 1 l 1,-1 2,2 1.25,-0.25 0.5,-1.5 h 2.5 l 0.25,1.25 v 0.5 l 1,-0.5 0.25,-1.25 2.25,-0.25 1.5,1.5 v 2 l -0.5,0.5 -1,-1 -0.5,0.5 -0.25,1.25 M -407,552 v -1 h -1 v 1 h 1"
       id="path479" />
  </g>
  <g
     id="g480">
    <path
       fill="#201c1c"
       fill-rule="evenodd"
       opacity="0.500008"
       d="m -409,544 h -1 v -1 h 1 v 1"
       id="path480" />
  </g>
  <g
     id="g481">
    <path
       fill="#201c1c"
       fill-rule="evenodd"
       opacity="0.500008"
       d="m -398.5,538 h -1.5 l 0.5,-1 h 1.5 l -0.5,1"
       id="path481" />
  </g>
  <g
     id="g482">
    <path
       fill="#201c1c"
       fill-rule="evenodd"
       opacity="0.500008"
       d="m -406,538 h -1 v -1 h 1 v 1"
       id="path482" />
  </g>
  <g
     id="g483">
    <path
       fill="#201c1c"
       fill-rule="evenodd"
       opacity="0.500008"
       d="m -394,537 h -1 v -1 h 1 v 1"
       id="path483" />
  </g>
  <g
     id="g484">
    <path
       fill="#201c1c"
       fill-rule="evenodd"
       opacity="0.500008"
       d="m -392,536 h -1 v -1 h 1 v 1"
       id="path484" />
  </g>
  <g
     id="g485">
    <path
       fill="#201c1c"
       fill-rule="evenodd"
       opacity="0.500008"
       d="m -402,537 -1,-1 v -1 l 1,0.5 v 1.5"
       id="path485" />
  </g>
  <g
     id="g486">
    <path
       fill="#201c1c"
       fill-rule="evenodd"
       opacity="0.500008"
       d="m -487,611.625 4.5,-0.625 1.5,-1.5 v -1 l 1,-1 -0.5,-0.5 -1.5,-0.5 -2,-0.25 -5.5,0.75 -1,-1 -1,1 -1.5,0.375 h -4 l -1.5,-0.375 -1.5,1.5 0.25,3.375 4.25,0.125 1,-1 1,1 h 2 l 1,-1 1,1 2.5,-0.375 M -433,631 h -9.5 l -1,1 -2,-2 -1.5,0.375 -22.5,0.625 -1,1 -1,-1 -1,1 -1,-1 -9.5,0.625 -5.5,1.375 -1,-1 -1,1 h -5.5 v -0.5 l -2.5,-2.5 h -0.5 v -2.5 l -1,-1 1,-1 -2,-2 -0.75,-5.5 -1.25,-3.5 1,-1 -1,-1 0.625,-2.5 v -2 l -1.125,-3 -0.25,-2.75 1.25,-0.25 1,-1 1,1 21,-3 1,1 1,-1 1,1 1,-1 9.5,0.75 5.5,-0.75 1,-1 1,1 21,-1 1,1 1,-1 11,1 1,1 1,-1 h 1 l 1.5,1.5 1,28 1,1 -1.5,1.5 -1,-1 -7.5,1 -1.5,-2 -3.25,1.25 -0.25,0.75"
       id="path486" />
  </g>
  <g
     id="g487">
    <path
       fill="#201c1c"
       fill-rule="evenodd"
       opacity="0.500008"
       d="m -485,598 h -1 v -1 h 1 v 1"
       id="path487" />
  </g>
  <g
     id="g488">
    <path
       fill="#201c1c"
       fill-rule="evenodd"
       opacity="0.500008"
       d="m -467.5,586 h -1.5 l 0.5,-1 h 1.5 l -0.5,1"
       id="path488" />
  </g>
  <g
     id="g489">
    <path
       fill="#201c1c"
       fill-rule="evenodd"
       opacity="0.500008"
       d="m -487,586 h -1 v -1 h 1 v 1"
       id="path489" />
  </g>
  <g
     id="g490">
    <path
       fill="#201c1c"
       fill-rule="evenodd"
       opacity="0.500008"
       d="m -464,586 -1,-1 v -1 l 1,0.5 v 1.5"
       id="path490" />
  </g>
  <g
     id="g491">
    <path
       fill="#201c1c"
       fill-rule="evenodd"
       opacity="0.500008"
       d="m -473,585 h -1 v -1 h 1 v 1"
       id="path491" />
  </g>
  <g
     id="g492">
    <path
       fill="#201c1c"
       fill-rule="evenodd"
       opacity="0.500008"
       d="m -483,585 h -1 v -1 h 1 v 1"
       id="path492" />
  </g>
  <g
     id="g493">
    <path
       fill="#201c1c"
       fill-rule="evenodd"
       opacity="0.500008"
       d="m -470,584 h -1 v -1 h 1 v 1"
       id="path493" />
  </g>
  <g
     id="g494">
    <path
       fill="#201c1c"
       fill-rule="evenodd"
       opacity="0.500008"
       d="m -475,584 h -1 v -1 h 1 v 1"
       id="path494" />
  </g>
  <g
     id="g495">
    <path
       fill="#201c1c"
       fill-rule="evenodd"
       opacity="0.500008"
       d="m -487,583 -0.5,1 -0.5,-1 h 1"
       id="path495" />
  </g>
  <g
     id="g496">
    <path
       fill="#000000"
       fill-rule="evenodd"
       d="m -488,583 v -0.5 l 0.5,-0.5 0.5,1 h -1"
       id="path496" />
  </g>
  <g
     id="g497">
    <path
       fill="#201c1c"
       fill-rule="evenodd"
       opacity="0.500008"
       d="m -468.5,582 -4.25,-0.125 v -1.625 l 2.75,0.375 1.5,0.375 h 0.5 l -0.5,1"
       id="path497" />
  </g>
  <g
     id="g498">
    <path
       fill="#201c1c"
       fill-rule="evenodd"
       opacity="0.500008"
       d="m -473,579 h -1 v -1 h 1 v 1"
       id="path498" />
  </g>
  <g
     id="g499">
    <path
       fill="#201c1c"
       fill-rule="evenodd"
       opacity="0.500008"
       d="m -496,578 h -1 v -1 h 1 v 1"
       id="path499" />
  </g>
  <g
     id="g500">
    <path
       fill="#201c1c"
       fill-rule="evenodd"
       opacity="0.500008"
       d="m -480,577 h -1 v -1 h 1 v 1"
       id="path500" />
  </g>
  <g
     id="g501">
    <path
       fill="#201c1c"
       fill-rule="evenodd"
       opacity="0.500008"
       d="m -483,577 h -1 v -1 h 1 v 1"
       id="path501" />
  </g>
  <g
     id="g502">
    <path
       fill="#201c1c"
       fill-rule="evenodd"
       opacity="0.500008"
       d="m -486,577 h -1 v -1 h 1 v 1"
       id="path502" />
  </g>
  <g
     id="g503">
    <path
       fill="#201c1c"
       fill-rule="evenodd"
       opacity="0.500008"
       d="m -492,577 h -1 v -1 h 1 v 1"
       id="path503" />
  </g>
  <g
     id="g504">
    <path
       fill="#000000"
       fill-rule="evenodd"
       d="m -473,579 v -1 h -1 v 1 h 1 m 4.5,3 0.5,-1 h -0.5 l -1.5,-0.375 -2.75,-0.375 v 1.625 l 4.25,0.125 m -18.5,1 10.875,-1.125 0.125,-4.375 2.5,-2.5 2,2 5.25,0.125 0.5,1.625 1.25,0.25 0.5,-0.5 -1,-1 0.25,-1.25 5.25,-1.25 1,1 1,-1 h 4 l 1.5,1.5 -0.25,2.25 -1.25,0.25 -1,-1 -1,1 -6,1 -1,-1 -0.5,0.5 -0.25,1.25 -2.25,0.25 -0.5,0.5 1.5,1.5 7,-1 1.5,1.5 -0.25,1.25 -3.25,1.25 -1,-1 -0.5,0.5 -0.25,1.375 -6.25,1.125 -2,-2 -8.5,-0.75 -5,1.25 -1.5,-0.5 -1,-1 -0.5,0.5 -0.25,2.25 -3.25,0.25 -0.5,-0.5 1,-1 -1,-1 0.25,-2.25 1.75,-0.25 0.5,1 0.5,-1 m 12,1 v -1 h -1 v 1 h 1 m 5,0 v -1 h -1 v 1 h 1 m -13,1 v -1 h -1 v 1 h 1 m 10,0 v -1 h -1 v 1 h 1 m 9,1 v -1.5 l -1,-0.5 v 1 l 1,1 m -23,0 v -1 h -1 v 1 h 1 m 19.5,0 0.5,-1 h -1.5 l -0.5,1 h 1.5"
       id="path504" />
  </g>
  <g
     id="g505">
    <path
       fill="#000000"
       fill-rule="evenodd"
       d="m -499.5,581 h -1 l -1.5,-1.5 0.625,-3.5 0.375,-1.5 0.5,-0.5 1,1 1,-1 2.25,0.25 0.25,1.25 0.5,0.5 1,-1 h 3 l 1,1 1,-1 3.5,0.625 1.5,0.375 2,-2 h 3 l 1.5,1.5 -1,1 v 1 l -1.5,1.5 -0.5,-0.5 v -1 l -0.5,-0.5 -1,1 -6,1 -1,-1 -1,1 -1,-1 -1,1 -4,1 -1,-1 -2,2 m 7.5,-4 v -1 h -1 v 1 h 1 m 6,0 v -1 h -1 v 1 h 1 m 3,0 v -1 h -1 v 1 h 1 m 3,0 v -1 h -1 v 1 h 1 m -16,1 v -1 h -1 v 1 h 1"
       id="path505" />
  </g>
  <g
     id="g506">
    <path
       fill="#201c1c"
       fill-rule="evenodd"
       opacity="0.500008"
       d="m -487,566 h -1 v -1 h 1 v 1"
       id="path506" />
  </g>
  <g
     id="g507">
    <path
       fill="#201c1c"
       fill-rule="evenodd"
       opacity="0.500008"
       d="m -479,565 h -1 v -1 h 1 v 1"
       id="path507" />
  </g>
  <g
     id="g508">
    <path
       fill="#201c1c"
       fill-rule="evenodd"
       opacity="0.500008"
       d="m -476,564 h -1 v -1 h 1 v 1"
       id="path508" />
  </g>
  <g
     id="g509">
    <path
       fill="#201c1c"
       fill-rule="evenodd"
       opacity="0.500008"
       d="m -460,563 h -1 v -1 h 1 v 1"
       id="path509" />
  </g>
  <g
     id="g510">
    <path
       fill="#000000"
       fill-rule="evenodd"
       d="m -486,567.5 -4.5,0.5 -1.5,-1.5 1,-1 0.25,-1.25 6.25,-1.25 1,-1 1,1 8,-1 1,1 1,-1 h 1 l 1,1 1,-1 4.5,-0.5 6.5,-1.5 1.5,1.5 v 2 l -1.5,1.5 h -5 l -1,1 -1,-1 -1,1 h -2 l -1,-1 -1,1 -1,-1 -6,1 -1,-1 -0.5,0.5 -0.25,1.25 -1.25,0.25 -1,-1 -1,1 -3.5,0.5 m 26,-4.5 v -1 h -1 v 1 h 1 m -16,1 v -1 h -1 v 1 h 1 m -3,1 v -1 h -1 v 1 h 1 m -8,1 v -1 h -1 v 1 h 1"
       id="path510" />
  </g>
  <g
     id="g511">
    <path
       fill="#201c1c"
       fill-rule="evenodd"
       opacity="0.500008"
       d="m -489,560 h -1 v -1 h 1 v 1"
       id="path511" />
  </g>
  <g
     id="g512">
    <path
       fill="#201c1c"
       fill-rule="evenodd"
       opacity="0.500008"
       d="m -480,559 h -1 v -1 h 1 v 1"
       id="path512" />
  </g>
  <g
     id="g513">
    <path
       fill="#201c1c"
       fill-rule="evenodd"
       opacity="0.500008"
       d="m -474,558 h -1 v -1 h 1 v 1"
       id="path513" />
  </g>
  <g
     id="g514">
    <path
       fill="#201c1c"
       fill-rule="evenodd"
       opacity="0.500008"
       d="m -477,558 h -1 v -1 h 1 v 1"
       id="path514" />
  </g>
  <g
     id="g515">
    <path
       fill="#201c1c"
       fill-rule="evenodd"
       opacity="0.500008"
       d="m -470.5,556 h -1.5 l 0.5,-1 h 1.5 l -0.5,1"
       id="path515" />
  </g>
  <g
     id="g516">
    <path
       fill="#000000"
       fill-rule="evenodd"
       d="m -488,561.5 -2.75,0.25 -0.25,-1.25 -1,-1 0.5,-0.5 1.5,-0.5 2,-0.875 3.5,-0.625 1,-1 1,1 1,-1 15.25,-1.875 0.25,2.375 -1.5,1.5 -1,-1 -0.5,0.5 v 1 l -0.5,0.5 -1,-1 -6,1 -1,1 -1,-1 -1.25,0.25 -0.25,1.25 -0.5,0.5 -1,-1 -6.5,1.5 m 17.5,-5.5 0.5,-1 h -1.5 l -0.5,1 h 1.5 m -6.5,2 v -1 h -1 v 1 h 1 m 3,0 v -1 h -1 v 1 h 1 m -6,1 v -1 h -1 v 1 h 1 m -9,1 v -1 h -1 v 1 h 1"
       id="path516" />
  </g>
  <g
     id="g517">
    <path
       fill="#201c1c"
       fill-rule="evenodd"
       opacity="0.500008"
       d="m -481,552 h -1 v -1 h 1 v 1"
       id="path517" />
  </g>
  <g
     id="g518">
    <path
       fill="#201c1c"
       fill-rule="evenodd"
       opacity="0.500008"
       d="m -495,552 h -1 v -1 h 1 v 1"
       id="path518" />
  </g>
  <g
     id="g519">
    <path
       fill="#201c1c"
       fill-rule="evenodd"
       opacity="0.500008"
       d="m -492,551 h -1 v -1 h 1 v 1"
       id="path519" />
  </g>
  <g
     id="g520">
    <path
       fill="#000000"
       fill-rule="evenodd"
       d="m -477,550 h -1 v -1 h 1 v 1"
       id="path520" />
  </g>
  <g
     id="g521">
    <path
       fill="#000000"
       fill-rule="evenodd"
       d="m -493.5,556 -2.25,-1.25 -1.25,-4.25 1.5,-1.5 17,1 2,2 0.5,-0.5 V 549 l 1,0.5 -0.25,3.25 -13.25,1.25 -1,1 -1,-1 -1,1 -1,-1 -0.5,0.5 v 1 l -0.5,0.5 m 1.5,-5 v -1 h -1 v 1 h 1 m -3,1 v -1 h -1 v 1 h 1 m 14,0 v -1 h -1 v 1 h 1"
       id="path521" />
  </g>
  <g
     id="g522">
    <path
       fill="#201c1c"
       fill-rule="evenodd"
       opacity="0.500008"
       d="m -503,544 h -1 v -1 h 1 v 1"
       id="path522" />
  </g>
  <g
     id="g523">
    <path
       fill="#201c1c"
       fill-rule="evenodd"
       opacity="0.500008"
       d="m -496,543 h -1 v -1 h 1 v 1"
       id="path523" />
  </g>
  <g
     id="g524">
    <path
       fill="#201c1c"
       fill-rule="evenodd"
       opacity="0.500008"
       d="m -487,542 h -1 v -1 h 1 v 1"
       id="path524" />
  </g>
  <g
     id="g525">
    <path
       fill="#201c1c"
       fill-rule="evenodd"
       opacity="0.500008"
       d="m -494,542 h -1 v -1 h 1 v 1"
       id="path525" />
  </g>
  <g
     id="g526">
    <path
       fill="#000000"
       fill-rule="evenodd"
       d="m -502.5,548 h -1 l -1.5,-1.5 -0.5,-1.5 v -2 l 0.5,-1.5 1.5,-1.5 1,1 9,-1 1,-1 1,1 2,-2 3.25,1.25 0.5,1.5 1.25,0.25 0.5,0.5 -1.5,1.5 -10,1 -2,2 h -3 l -1,-1 -1.5,1.5 1,1 -0.5,0.5 m 8.5,-6 v -1 h -1 v 1 h 1 m 7,0 v -1 h -1 v 1 h 1 m -9,1 v -1 h -1 v 1 h 1 m -7,1 v -1 h -1 v 1 h 1"
       id="path526" />
  </g>
  <g
     id="g527">
    <path
       fill="#201c1c"
       fill-rule="evenodd"
       opacity="0.500008"
       d="m -536,606 -1,-0.5 -1,-7 0.5,-0.5 1,1 h 2 l 1.5,1.5 v 1 l -1.5,1.5 -1.25,0.25 -0.25,2.75 m 2,-5 v -1 h -1 v 1 h 1"
       id="path527" />
  </g>
  <g
     id="g528">
    <path
       fill="#201c1c"
       fill-rule="evenodd"
       opacity="0.500008"
       d="m -538,598 h -1 v -1 h 1 v 1"
       id="path528" />
  </g>
  <g
     id="g529">
    <path
       fill="#000000"
       fill-rule="evenodd"
       d="m -522.5,594 -3.25,-1.25 -0.25,-1.25 V 591 l -1,0.5 -0.25,1.25 -2.25,0.25 -1,-1 -2,2 -3.25,-0.25 -0.25,-2.25 -1,-1 0.5,-0.5 1.5,-0.5 2,-0.25 4.5,0.75 1,-1 1,1 1,-1 h 3 l 2.5,2.5 -2.5,2.5"
       id="path529" />
  </g>
  <g
     id="g530">
    <path
       fill="#000000"
       fill-rule="evenodd"
       d="m -535,589 h -1 v -1 h 1 v 1"
       id="path530" />
  </g>
  <g
     id="g531">
    <path
       fill="#201c1c"
       fill-rule="evenodd"
       opacity="0.500008"
       d="m -526,586 h -1 v -1 h 1 v 1"
       id="path531" />
  </g>
  <g
     id="g532">
    <path
       fill="#201c1c"
       fill-rule="evenodd"
       opacity="0.500008"
       d="m -519,584 h -1 v -1 h 1 v 1"
       id="path532" />
  </g>
  <g
     id="g533">
    <path
       fill="#201c1c"
       fill-rule="evenodd"
       opacity="0.500008"
       d="m -517,583 h -1 v -1 h 1 v 1"
       id="path533" />
  </g>
  <g
     id="g534">
    <path
       fill="#000000"
       fill-rule="evenodd"
       d="m -518.25,585.75 -4.5,-1 -0.25,-2.25 1.5,-1.5 h 4 l 1.5,1.5 v 2 l -0.5,0.5 -1,-1 -0.5,0.5 -0.25,1.25 M -517,583 v -1 h -1 v 1 h 1 m -2,1 v -1 h -1 v 1 h 1"
       id="path534" />
  </g>
  <g
     id="g535">
    <path
       fill="#201c1c"
       fill-rule="evenodd"
       opacity="0.500008"
       d="m -532,580 h -1 v -1 h 1 v 1"
       id="path535" />
  </g>
  <g
     id="g536">
    <path
       fill="#201c1c"
       fill-rule="evenodd"
       opacity="0.500008"
       d="m -521,579 h -1 v -1 h 1 v 1"
       id="path536" />
  </g>
  <g
     id="g537">
    <path
       fill="#201c1c"
       fill-rule="evenodd"
       opacity="0.500008"
       d="m -527,579 h -1 v -1 h 1 v 1"
       id="path537" />
  </g>
  <g
     id="g538">
    <path
       fill="#000000"
       fill-rule="evenodd"
       d="m -526.5,587 -7.375,-1.25 -0.125,-4.25 -0.5,-0.5 -1,1 -1.25,-0.25 -1.25,-3.25 1.5,-1.5 1,1 8,-1 1,-1 0.5,0.5 v 1 l 0.5,0.5 2,-2 3.25,0.25 v 3.625 l -4.25,0.125 -1,1 -1,-1 -1,1 -1,-1 -1,1 h -1 l -1,-1 -0.5,0.5 v 1 l -1,1 0.5,0.5 8.25,-0.875 -0.25,1.875 -0.5,1.5 -1.5,1.5 m -0.5,-8 v -1 h -1 v 1 h 1 m 6,0 v -1 h -1 v 1 h 1 m -11,1 v -1 h -1 v 1 h 1 m 6,6 v -1 h -1 v 1 h 1"
       id="path538" />
  </g>
  <g
     id="g539">
    <path
       fill="#201c1c"
       fill-rule="evenodd"
       opacity="0.500008"
       d="m -538,571 h -2 v -1 -0.5 l 1.5,-1.5 1,1 h 2 l 1,-1 1,1 0.5,-0.5 0.25,-1.25 h 1.5 v 2.5 l -2.75,0.875 -3,1.375 v -0.5 l -0.5,-0.5 h -0.5"
       id="path539" />
  </g>
  <g
     id="g540">
    <path
       fill="#201c1c"
       fill-rule="evenodd"
       opacity="0.500008"
       d="m -537,568 h -1 v -1 h 1 v 1"
       id="path540" />
  </g>
  <g
     id="g541">
    <path
       fill="#201c1c"
       fill-rule="evenodd"
       opacity="0.500008"
       d="m -527,567 h -1 v -1 h 1 v 1"
       id="path541" />
  </g>
  <g
     id="g542">
    <path
       fill="#201c1c"
       fill-rule="evenodd"
       opacity="0.500008"
       d="m -532,559 h -1 v -1 h 1 v 1"
       id="path542" />
  </g>
  <g
     id="g543">
    <path
       fill="#201c1c"
       fill-rule="evenodd"
       opacity="0.500008"
       d="m -553,557 h -1 v -1 h 1 v 1"
       id="path543" />
  </g>
  <g
     id="g544">
    <path
       fill="#000000"
       fill-rule="evenodd"
       d="m -532,559.5 -3.75,0.25 -0.75,-1.75 -0.25,-1.875 8.25,-1.125 1,-1 0.5,0.5 v 1.5 l 1,-0.5 0.25,-1.25 2.75,0.375 1.5,0.375 h 0.5 l -0.5,1 h -1 l -0.5,0.5 1,1 v 1 l -0.5,0.5 -1,-1 -8.5,1.5 m 0,-0.5 v -1 h -1 v 1 h 1"
       id="path544" />
  </g>
  <g
     id="g545">
    <path
       fill="#201c1c"
       fill-rule="evenodd"
       opacity="0.500008"
       d="m -538,551 h -1 v -1 h 1 v 1"
       id="path545" />
  </g>
  <g
     id="g546">
    <path
       fill="#201c1c"
       fill-rule="evenodd"
       opacity="0.500008"
       d="m -530,549 h -1 v -1 h 1 v 1"
       id="path546" />
  </g>
  <g
     id="g547">
    <path
       fill="#201c1c"
       fill-rule="evenodd"
       opacity="0.500008"
       d="m -535,549 h -1 v -1 h 1 v 1"
       id="path547" />
  </g>
  <g
     id="g548">
    <path
       fill="#201c1c"
       fill-rule="evenodd"
       opacity="0.500008"
       d="m -543,548 h -1 v -1 h 1 v 1"
       id="path548" />
  </g>
  <g
     id="g549">
    <path
       fill="#201c1c"
       fill-rule="evenodd"
       opacity="0.500008"
       d="m -543.5,551 -2.25,-0.25 -0.25,-3.25 0.5,-0.5 1.5,1.5 v 1 l 1,1 -0.5,0.5"
       id="path549" />
  </g>
  <g
     id="g550">
    <path
       fill="#201c1c"
       fill-rule="evenodd"
       opacity="0.500008"
       d="m -527,548 -1,-1 v -1 l 1,0.5 v 1.5"
       id="path550" />
  </g>
  <g
     id="g551">
    <path
       fill="#201c1c"
       fill-rule="evenodd"
       opacity="0.500008"
       d="m -551,565 -1,-3.5 -1,-1 1,-1 v -5 l -1,-1 1,-1 -0.25,-1.5 -1.75,-7 h 0.5 l 1,-1 h 0.5 l 1,0.5 -1,1 1,1 5,22.5 -2.5,-1 -2.5,-2"
       id="path551" />
  </g>
  <g
     id="g552">
    <path
       fill="#201c1c"
       fill-rule="evenodd"
       opacity="0.500008"
       d="m -547,542 -1,-1 v -1 l 1,0.5 v 1.5"
       id="path552" />
  </g>
  <g
     id="g553">
    <path
       fill="#201c1c"
       fill-rule="evenodd"
       opacity="0.500008"
       d="m -548,538 h -1 v -1 h 1 v 1"
       id="path553" />
  </g>
  <g
     id="g555">
    <path
       fill="#201c1c"
       fill-rule="evenodd"
       opacity="0.500008"
       d="m -414,535 h -1 v -1 h 1 v 1"
       id="path555" />
  </g>
  <g
     id="g556">
    <path
       fill="#201c1c"
       fill-rule="evenodd"
       opacity="0.500008"
       d="m -392.25,533.875 -4.75,-0.625 -1.75,-0.5 v -1.625 l 5.25,-0.125 1.5,1.5 -0.25,1.375"
       id="path556" />
  </g>
  <g
     id="g557">
    <path
       fill="#201c1c"
       fill-rule="evenodd"
       opacity="0.500008"
       d="m -390.25,541.875 -5.25,0.125 -1,-1 -1,1 -2.5,-0.625 -2,-0.125 -7.5,0.75 -2.5,-2.5 v -3 l -1,-1 1,-1 v -2 l 1.5,-1.5 h 10.25 l 0.25,1.5 -0.5,0.5 -1,-1 -1,1 -2.5,-0.625 h -2 l -2.5,0.625 -1.5,1.5 1,1 1,3 1.5,1.5 3.25,-0.25 0.25,-1.25 0.5,-0.5 1,1 9,-1 1,1 1,-1 1.25,0.25 v 3.625"
       id="path557" />
  </g>
  <g
     id="g558">
    <path
       fill="#201c1c"
       fill-rule="evenodd"
       opacity="0.500008"
       d="m -411,531 h -1 v -1 h 1 v 1"
       id="path558" />
  </g>
  <g
     id="g559">
    <path
       fill="#201c1c"
       fill-rule="evenodd"
       opacity="0.500008"
       d="m -413,531 h -1 v -1 h 1 v 1"
       id="path559" />
  </g>
  <g
     id="g560">
    <path
       fill="#201c1c"
       fill-rule="evenodd"
       opacity="0.500008"
       d="m -404,529 h -1 v -1 h 1 v 1"
       id="path560" />
  </g>
  <g
     id="g561">
    <path
       fill="#201c1c"
       fill-rule="evenodd"
       opacity="0.500008"
       d="m -436,529 h -1 v -1 h 1 v 1"
       id="path561" />
  </g>
  <g
     id="g562">
    <path
       fill="#201c1c"
       fill-rule="evenodd"
       opacity="0.500008"
       d="m -441,529 h -1 v -1 h 1 v 1"
       id="path562" />
  </g>
  <g
     id="g563">
    <path
       fill="#000000"
       fill-rule="evenodd"
       d="m -387,547 -5.5,-1 -1,-1 -1,1 h -6 l -1,-1 -1,1 h -7 l -1,1 -2,-2 -1.25,-0.25 -1.625,-3.75 -0.625,-2.5 1,-1 -1,-1 v -1 l -2,-2 0.5,-0.5 3,-1 0.5,-0.5 -1,-1 v -2 l 1.5,-1.5 h 22.5 l 3,2.5 0.625,4.5 0.75,3 0.625,6.5 1,1 -2,2.5 m -17,-18 v -1 h -1 v 1 h 1 m -9,2 v -1 h -1 v 1 h 1 m 2,0 v -1 h -1 v 1 h 1 m 20.75,10.875 v -3.625 l -1.25,-0.25 -1,1 -1,-1 -9,1 -1,-1 -0.5,0.5 -0.25,1.25 -3.25,0.25 -1.5,-1.5 -1,-3 -1,-1 1.5,-1.5 2.5,-0.625 h 2 l 2.5,0.625 1,-1 1,1 0.5,-0.5 -0.25,-1.5 h -10.25 l -1.5,1.5 v 2 l -1,1 1,1 v 3 l 2.5,2.5 7.5,-0.75 2,0.125 2.5,0.625 1,-1 1,1 5.25,-0.125 m -2,-8 0.25,-1.375 -1.5,-1.5 -5.25,0.125 v 1.625 l 1.75,0.5 4.75,0.625 M -414,535 v -1 h -1 v 1 h 1 m 12,2 v -1.5 l -1,-0.5 v 1 l 1,1 m 10,-1 v -1 h -1 v 1 h 1 m -2,1 v -1 h -1 v 1 h 1 m -12,1 v -1 h -1 v 1 h 1 m 7.5,0 0.5,-1 h -1.5 l -0.5,1 h 1.5 m -10.5,6 v -1 h -1 v 1 h 1"
       id="path563" />
  </g>
  <g
     id="g564">
    <path
       fill="#000000"
       fill-rule="evenodd"
       d="m -394,524 h -0.5 l -0.5,-0.5 V 523 h 0.5 l 0.5,0.5 v 0.5"
       id="path564" />
  </g>
  <g
     id="g565">
    <path
       fill="#201c1c"
       fill-rule="evenodd"
       opacity="0.500008"
       d="m -418,517 h -0.5 l -0.5,-0.5 V 516 h 0.5 l 0.5,0.5 v 0.5"
       id="path565" />
  </g>
  <g
     id="g566">
    <path
       fill="#201c1c"
       fill-rule="evenodd"
       opacity="0.500008"
       d="m -420,516 h -1.5 l -0.5,-0.5 V 515 h 1.5 l 0.5,0.5 v 0.5"
       id="path566" />
  </g>
  <g
     id="g567">
    <path
       fill="#201c1c"
       fill-rule="evenodd"
       opacity="0.500008"
       d="m -438,514 0.25,-1 12.75,0.75 3,1.25 h -9.5 l -1,-1 -1,1 -4.5,-1"
       id="path567" />
  </g>
  <g
     id="g568">
    <path
       fill="#201c1c"
       fill-rule="evenodd"
       opacity="0.500008"
       d="m -463,529 h -1 v -1 h 1 v 1"
       id="path568" />
  </g>
  <g
     id="g569">
    <path
       fill="#201c1c"
       fill-rule="evenodd"
       opacity="0.500008"
       d="m -468,529 h -1 v -1 h 1 v 1"
       id="path569" />
  </g>
  <g
     id="g570">
    <path
       fill="#201c1c"
       fill-rule="evenodd"
       opacity="0.500008"
       d="m -480,529 h -1 v -1 h 1 v 1"
       id="path570" />
  </g>
  <g
     id="g571">
    <path
       fill="#201c1c"
       fill-rule="evenodd"
       opacity="0.500008"
       d="m -489,529 h -1 v -1 h 1 v 1"
       id="path571" />
  </g>
  <g
     id="g572">
    <path
       fill="#201c1c"
       fill-rule="evenodd"
       opacity="0.500008"
       d="m -444,528 h -1 v -1 h 1 v 1"
       id="path572" />
  </g>
  <g
     id="g573">
    <path
       fill="#201c1c"
       fill-rule="evenodd"
       opacity="0.500008"
       d="m -459,528 h -1 v -1 h 1 v 1"
       id="path573" />
  </g>
  <g
     id="g574">
    <path
       fill="#201c1c"
       fill-rule="evenodd"
       opacity="0.500008"
       d="m -461,528 h -1 v -1 h 1 v 1"
       id="path574" />
  </g>
  <g
     id="g575">
    <path
       fill="#201c1c"
       fill-rule="evenodd"
       opacity="0.500008"
       d="m -479,528 h -1 v -1 h 1 v 1"
       id="path575" />
  </g>
  <g
     id="g576">
    <path
       fill="#201c1c"
       fill-rule="evenodd"
       opacity="0.500008"
       d="m -488,528 h -1 v -1 h 1 v 1"
       id="path576" />
  </g>
  <g
     id="g577">
    <path
       fill="#201c1c"
       fill-rule="evenodd"
       opacity="0.500008"
       d="m -490,528 h -1 v -1 h 1 v 1"
       id="path577" />
  </g>
  <g
     id="g578">
    <path
       fill="#201c1c"
       fill-rule="evenodd"
       opacity="0.500008"
       d="m -387,547 1.5,6 1,6 -1.375,39 -2.75,11 -2,5 -4.375,8.5 -7.5,7.5 -1.25,0.25 -0.25,0.75 -10.5,-1 -0.5,-0.5 1,-1 -2,-36 1,-1 -1,-1 -1,-28 1,-1 -1,-1 -1,-10 1,-1 -1,-1 -1,-25 -2.5,-2.5 h -1 l -1.5,1.5 v 5 l -0.5,0.5 -1,-1 h -1 l -1,-1 -1,1 h -2 l -1,1 -0.5,-0.5 -0.25,-1.25 H -443 l -1.5,-0.25 -1,1 -1,-1 -2.375,-0.25 0.625,-6.75 0.5,-1.75 h 1.75 l 5.5,0.75 1,1 1,-1 1,1 14.5,0.75 9,1.875 6,-0.25 6,1.125 7,0.5 v 0.5 l 0.5,0.5 h 0.5 0.5 l 2.5,2.5 v 0.5 h -22.5 l -1.5,1.5 v 2 l 1,1 -0.5,0.5 -3,1 -0.5,0.5 2,2 v 1 l 1,1 -1,1 0.625,2.5 1.625,3.75 1.25,0.25 2,2 1,-1 h 7 l 1,-1 1,1 h 6 l 1,-1 1,1 5.5,1 m -10.25,6.75 0.25,-1.25 0.5,-0.5 1,1 0.5,-0.5 v -2 l -1.5,-1.5 -2.25,0.25 -0.25,1.25 -1,0.5 v -0.5 l -0.25,-1.25 h -2.5 l -0.5,1.5 -1.25,0.25 -2,-2 -1,1 h -1 l -1,-1 -1,1 h -1 l -1.5,1.5 1.5,1.5 h 5 l 1,-1 0.5,0.5 0.25,1.25 h 1.5 l 0.25,-1.25 0.5,-0.5 2,2 1,-1 1,1 1.25,-0.25 M -404,550 v -1 h -1 v 1 h 1 m -5,16 h 4.5 l 1,-1 1,1 2,-2 2,2 1.25,0.25 0.25,1.25 0.5,0.5 1,-1 h 2 l 1.5,-1.5 v -1 l -1.5,-1.5 h -2 l -1.5,-1.5 0.5,-0.5 2.25,-0.25 0.25,-1.25 0.5,-0.5 1,1 3.25,-0.25 v -2.5 l -1.25,-0.25 -1,-1 -0.5,0.5 v 1 l -1,0.5 v -1.5 l -0.5,-0.5 -2,2 -1,-1 h -4 l -1,-1 -0.5,0.5 0.25,3.25 3.25,1.25 0.5,1 h -2.5 l -1,-1 -1,1 h -3 l -1,1 -1,-1 h -3 l -1,1 -1,-1 -0.5,0.5 v 1 l 2.5,2.5 h 0.5 l 0.5,1 0.5,-1 m 20.5,9 1.5,-1.5 -0.25,-2.375 -5.25,-0.125 -1,1 -1,-1 h -1 l -1,-1 -1,1 -1,-1 -7.25,2.25 -0.25,1.25 1.5,1.5 0.5,-0.5 v -1 l 1,-0.5 v 0.5 l 0.25,1.25 h 2.5 l 0.25,-1.25 0.5,-0.5 2,2 h 9"
       id="path578" />
  </g>
  <g
     id="g579">
    <path
       fill="#201c1c"
       fill-rule="evenodd"
       opacity="0.500008"
       d="m -452,517 h -1 v -1 h 1 v 1"
       id="path579" />
  </g>
  <g
     id="g580">
    <path
       fill="#201c1c"
       fill-rule="evenodd"
       opacity="0.500008"
       d="m -454.5,528 -2,-2 -11.5,0.5 -3.5,-0.5 -1,1 -0.5,-0.5 1.25,-10.5 13.25,1 1,-1 1,1 h 1 l 1,-1 1.5,1.5 -1,1 1,1 -1,8 -0.5,0.5"
       id="path580" />
  </g>
  <g
     id="g581">
    <path
       fill="#201c1c"
       fill-rule="evenodd"
       opacity="0.500008"
       d="m -484,517 1.5,-1 1,1 1,-1 1,1 h 1 l 1,-1 1.5,1.5 -1,1 -0.125,7.25 -3.375,0.25 -1,1 -1,-1 h -9 l -1.5,-1.5 1,-1 v -5 l -1,-1 0.5,-0.5 h 2.5 l 2.5,3 2,-2 h 1 l 0.5,-1"
       id="path581" />
  </g>
  <g
     id="g582">
    <path
       fill="#201c1c"
       fill-rule="evenodd"
       opacity="0.500008"
       d="m -493,517 h -1 v -1 h 1 v 1"
       id="path582" />
  </g>
  <g
     id="g583">
    <path
       fill="#201c1c"
       fill-rule="evenodd"
       opacity="0.500008"
       d="m -460,514 h -1 v -1 h 1 v 1"
       id="path583" />
  </g>
  <g
     id="g584">
    <path
       fill="#201c1c"
       fill-rule="evenodd"
       opacity="0.500008"
       d="m -450,513 -11.5,-1 -1,1 -1,-1 -8.5,-1 v -1 l 8.5,1 1,-1 1,1 h 9.5 l 1.75,1.25 0.25,0.75"
       id="path584" />
  </g>
  <g
     id="g585">
    <path
       fill="#201c1c"
       fill-rule="evenodd"
       opacity="0.500008"
       d="m -423.5,596 -3.5,-1.25 -14.5,-0.75 -1,1 -1,-1 -14.5,0.25 -1.5,-0.25 -1,1 -1,-1 -1,1 h -5 l -1,1 -2,-2 -1,1 h -8 l -1,-1 -1,1 -4.5,0.5 -18.5,2.5 -0.5,-0.5 1,-1 -1,-1 -3.25,-39.5 -1.125,-6 -1.5,-18.875 10.375,0.875 1,-1 1,1 1,-1 6,-1 1,-1 1,1 h 1 l 1,-1 1,1 24,1 1,-1 1,1 1,-1 h 7 l 1,-1 1,1 1,-1 1,1 7,1 1,-1 1,1 h 2 l 1,-1 1,1 1,-1 4,1 1,1 0.5,-0.5 v -1 l 0.5,-0.5 1,1 0.5,-0.5 v -1 l 0.5,-0.5 1,1 1.25,0.25 0.25,1.25 0.5,0.5 1,-1 0.5,0.5 -0.25,1.5 -0.125,5 0.375,2.5 -1,1 1,1 1,30 1,1 -1,1 1,1 v 18 l -1.5,1.5 h -1 l -1,1 m -79,-48 0.5,-0.5 -1,-1 1.5,-1.5 1,1 h 3 l 2,-2 10,-1 1.5,-1.5 -0.5,-0.5 -1.25,-0.25 -0.5,-1.5 -3.25,-1.25 -2,2 -1,-1 -1,1 -9,1 -1,-1 -1.5,1.5 -0.5,1.5 v 2 l 0.5,1.5 1.5,1.5 h 1 m 9,8 0.5,-0.5 v -1 l 0.5,-0.5 1,1 1,-1 1,1 1,-1 13.25,-1.25 0.25,-3.25 -1,-0.5 v 2.5 l -0.5,0.5 -2,-2 -17,-1 -1.5,1.5 1.25,4.25 2.25,1.25 m 16.5,-6 v -1 h -1 v 1 h 1 m -11,11.5 6.5,-1.5 1,1 0.5,-0.5 0.25,-1.25 1.25,-0.25 1,1 1,-1 6,-1 1,1 0.5,-0.5 v -1 l 0.5,-0.5 1,1 1.5,-1.5 -0.25,-2.375 -15.25,1.875 -1,1 -1,-1 -1,1 -3.5,0.625 -2,0.875 -1.5,0.5 -0.5,0.5 1,1 0.25,1.25 2.75,-0.25 m 2,6 3.5,-0.5 1,-1 1,1 1.25,-0.25 0.25,-1.25 0.5,-0.5 1,1 6,-1 1,1 1,-1 1,1 h 2 l 1,-1 1,1 1,-1 h 5 l 1.5,-1.5 v -2 l -1.5,-1.5 -6.5,1.5 -4.5,0.5 -1,1 -1,-1 h -1 l -1,1 -1,-1 -8,1 -1,-1 -1,1 -6.25,1.25 -0.25,1.25 -1,1 1.5,1.5 4.5,-0.5 m -13.5,13.5 2,-2 1,1 4,-1 1,-1 1,1 1,-1 1,1 6,-1 1,-1 0.5,0.5 v 1 l 0.5,0.5 1.5,-1.5 v -1 l 1,-1 -1.5,-1.5 h -3 l -2,2 -1.5,-0.375 -3.5,-0.625 -1,1 -1,-1 h -3 l -1,1 -0.5,-0.5 -0.25,-1.25 -2.25,-0.25 -1,1 -1,-1 -0.5,0.5 -0.375,1.5 -0.625,3.5 1.5,1.5 h 1 m 11.5,2 -1.75,0.25 -0.25,2.25 1,1 -1,1 0.5,0.5 3.25,-0.25 0.25,-2.25 0.5,-0.5 1,1 1.5,0.5 5,-1.25 8.5,0.75 2,2 6.25,-1.125 0.25,-1.375 0.5,-0.5 1,1 3.25,-1.25 0.25,-1.25 -1.5,-1.5 -7,1 -1.5,-1.5 0.5,-0.5 2.25,-0.25 0.25,-1.25 0.5,-0.5 1,1 6,-1 1,-1 1,1 1.25,-0.25 0.25,-2.25 -1.5,-1.5 h -4 l -1,1 -1,-1 -5.25,1.25 -0.25,1.25 1,1 -0.5,0.5 -1.25,-0.25 -0.5,-1.625 -5.25,-0.125 -2,-2 -2.5,2.5 -0.125,4.375 L -487,583 l -0.5,-1 -0.5,0.5 v 0.5"
       id="path585" />
  </g>
  <g
     id="g586">
    <path
       fill="#201c1c"
       fill-rule="evenodd"
       opacity="0.500008"
       d="m -507,530 -1,-1 v -1 l 1,0.5 v 1.5"
       id="path586" />
  </g>
  <g
     id="g587">
    <path
       fill="#201c1c"
       fill-rule="evenodd"
       opacity="0.500008"
       d="m -509,528 -0.5,1 -0.5,-1 h 1"
       id="path587" />
  </g>
  <g
     id="g588">
    <path
       fill="#000000"
       fill-rule="evenodd"
       d="m -510,528 v -0.5 l 0.5,-0.5 0.5,1 h -1"
       id="path588" />
  </g>
  <g
     id="g589">
    <path
       fill="#201c1c"
       fill-rule="evenodd"
       opacity="0.500008"
       d="m -530,526 h -1 v -1 h 1 v 1"
       id="path589" />
  </g>
  <g
     id="g590">
    <path
       fill="#201c1c"
       fill-rule="evenodd"
       opacity="0.500008"
       d="m -532,526 h -1 v -1 h 1 v 1"
       id="path590" />
  </g>
  <g
     id="g591">
    <path
       fill="#201c1c"
       fill-rule="evenodd"
       opacity="0.500008"
       d="m -535,526 h -1 v -1 h 1 v 1"
       id="path591" />
  </g>
  <g
     id="g592">
    <path
       fill="#201c1c"
       fill-rule="evenodd"
       opacity="0.500008"
       d="m -532,559.5 8.5,-1.5 1,1 0.5,-0.5 v -1 l -1,-1 0.5,-0.5 h 1 l 0.5,-1 h -0.5 l -1.5,-0.375 -2.75,-0.375 -0.25,1.25 -1,0.5 v -1.5 l -0.5,-0.5 -1,1 -8.25,1.125 0.25,1.875 0.75,1.75 3.75,-0.25 m 5.5,27.5 1.5,-1.5 0.5,-1.5 0.25,-1.875 -8.25,0.875 -0.5,-0.5 1,-1 v -1 l 0.5,-0.5 1,1 h 1 l 1,-1 1,1 1,-1 1,1 1,-1 4.25,-0.125 v -3.625 l -3.25,-0.25 -2,2 -0.5,-0.5 v -1 l -0.5,-0.5 -1,1 -8,1 -1,-1 -1.5,1.5 1.25,3.25 1.25,0.25 1,-1 0.5,0.5 0.125,4.25 7.375,1.25 m 8.25,-1.25 0.25,-1.25 0.5,-0.5 1,1 0.5,-0.5 v -2 l -1.5,-1.5 h -4 l -1.5,1.5 0.25,2.25 4.5,1 M -535,589 v -1 h -1 v 1 h 1 m 12.5,5 2.5,-2.5 -2.5,-2.5 h -3 l -1,1 -1,-1 -1,1 -4.5,-0.75 -2,0.25 -1.5,0.5 -0.5,0.5 1,1 0.25,2.25 3.25,0.25 2,-2 1,1 2.25,-0.25 0.25,-1.25 1,-0.5 v 0.5 l 0.25,1.25 3.25,1.25 m -8.5,27 v -0.5 l -0.5,-0.5 h -0.5 l 0.375,-1 0.625,-2.5 V 616 l 1,0.5 v 1 l 0.5,0.5 1,-1 h 1 l 1,-1 1,1 0.5,-0.5 0.25,-1.25 3.75,0.375 3.5,-0.625 1,-1 1,1 1,-1 h 2 l 1.5,-1.5 v -1 l -2.5,-2.5 -1,1 -6,1 -1,1 -1,-1 -7.5,-1 -0.5,-1 -0.5,0.5 v 0.5 h -1.5 l -1.5,1.5 1,1 0.25,1.25 1.25,0.25 h 0.5 l -0.5,1 h -2 l -1,1 -0.5,-0.5 -0.875,-6.25 3.625,-0.5 0.5,-3.5 1.25,-0.25 1,-1 0.5,0.5 0.25,1.25 1.75,-0.125 4,-1 8.5,-0.625 1.5,-1.5 -0.25,-3.25 H -516 l -11.5,1.75 -3,-3 h -1 l -3,-3 -1,1 -1,-1 h -1 l -1,1 -0.5,-0.5 v -2 l -1,-1 1,-1 -1,-1 -1,-9.5 1.625,-4 0.375,-2 7.5,-1 1,-1 1,1 h 4 l 1,1 1.5,-1.5 v -1 l -2.5,-2.5 -4.25,-0.125 -0.25,-1.375 0.5,-0.5 1,1 2.25,-0.25 0.25,-3.25 -1.5,-1.5 -3,1 -1,1 -1,-1 -0.5,0.5 -0.25,1.25 -2.75,0.25 0.5,-1 h 1.5 l -0.5,-1 h -8.25 l -0.75,-4 -0.5,-4.5 0.5,-0.5 1,1 1.5,-1.5 -1,-1 0.5,-0.5 5,-3 1,-1 1,1 1,-1 h 3 l 1,-1 1,1 h 3 l 1,-1 1,1 0.5,-0.5 -0.25,-3.25 -4.25,-1.25 -2,2 -1,-1 -2.25,0.25 -0.25,1.25 -0.5,0.5 -1,-1 -7,-1 -1,1 -0.5,-0.5 -0.25,-1.25 -3.25,-1.25 -0.5,-0.5 1.5,-1.5 h 1 l 2,-2 h 8 l 1,1 1,-1 h 1 l 1,-1 1,1 6,-1 1.5,-1.5 -0.25,-1.25 -3.75,-0.75 -4,-0.25 -11.5,0.75 -2,2 -1,-1 -3.5,-1 2,-2.5 v -1 l 1,-1.5 h 0.5 l 0.5,-0.5 V 530 h 0.5 l 0.5,-0.5 V 529 h 0.5 l 0.5,-0.5 V 527 h 6.5 l 1,-1 1,1 h 1 l 1,-1 1,1 1.25,-0.25 0.25,-1.25 1.5,-1.5 0.5,0.5 0.25,1.25 h 3.5 l 0.25,-1.25 0.5,-0.5 1,1 h 2 l 2.5,-2.5 v -1 l -1.5,-1.5 h -2 l -1,1 -1,-1 -2,2 -11.5,1 v -0.5 l 1.5,-1.5 h 1 l 1.5,-2 h 1 1 l 1.5,-1 h 2 l 1,1 1,-1 h 26.25 l 0.5,2.75 1.25,0.25 0.5,0.5 -1,1 -0.125,4.25 -3.375,0.25 -1,1 -1,-1 -6.5,1 -0.5,-1 -0.5,0.5 v 0.5 l -0.75,-0.25 -0.25,-1.25 -1,-1 1,-1 -1,-1 1,-1 -1,-1 v -1 l -1.5,-1.5 h -1 l -1.5,1.5 1,1 -1,1 -0.125,5.25 -2.625,0.5 -0.25,1.25 1.5,1.5 2.375,0.25 0.125,7.25 1,1 -1,1 2,17 1,1 -1,1 2,24 1,1 -1,1 1,1 v 6 l 1,1 -1,1 1,1 1,5 -1,1 1,1 1.75,15.5 1.75,7 0.5,3 -11,-0.75 -4,-0.75 -10,-4 -1.5,-0.5 -0.5,-1"
       id="path592" />
  </g>
  <g
     id="g593">
    <path
       fill="#201c1c"
       fill-rule="evenodd"
       opacity="0.500008"
       d="m -525,517 h -1 v -1 h 1 v 1"
       id="path593" />
  </g>
  <g
     id="g594">
    <path
       fill="#201c1c"
       fill-rule="evenodd"
       opacity="0.500008"
       d="m -508,516 h -1 v -1 h 1 v 1"
       id="path594" />
  </g>
  <g
     id="g595">
    <path
       fill="#201c1c"
       fill-rule="evenodd"
       opacity="0.500008"
       d="m -510,516 h -1 v -1 h 1 v 1"
       id="path595" />
  </g>
  <g
     id="g596">
    <path
       fill="#201c1c"
       fill-rule="evenodd"
       opacity="0.500008"
       d="m -521,516 h -1 v -1 h 1 v 1"
       id="path596" />
  </g>
  <g
     id="g597">
    <path
       fill="#201c1c"
       fill-rule="evenodd"
       opacity="0.500008"
       d="m -523,516 h -1 v -1 h 1 v 1"
       id="path597" />
  </g>
  <g
     id="g598">
    <path
       fill="#201c1c"
       fill-rule="evenodd"
       opacity="0.500008"
       d="m -519,514 0.25,-0.75 8.75,-1.75 7,0.125 4,1.375 -4.5,1 -1,1 -1,-1 h -3 l -1,1 -1,-1 h -8.5"
       id="path598" />
  </g>
  <g
     id="g599">
    <path
       fill="#000000"
       fill-rule="evenodd"
       d="m -315.5,747 -2.5,-0.375 -7,-0.125 -26.5,2.5 -1,-1 -1,1 h -2 l -1,-1 -1,1 h -20 l -1,-1 -1,1 -12,1 -1,-1 -1,1 -13.5,-0.125 -4,-0.625 -13.5,1.75 -1,1 -1,-1 -49,1 -2.5,-2.5 v -1 l -1.5,-1.5 -4,-1 -1.5,-1.5 V 743 l -1,0.5 -1.125,9.25 -3.375,1.25 -2.5,-2.5 v -4 l -2,-2 v -1 l -3.5,-3.5 h -1 l -4.5,-4.5 -0.625,-2.5 -2.375,-4.5 -2,-2 -0.5,-2.5 -2,-5 -1,-2 -0.75,-1.75 -1.5,-0.5 -1.25,-4.25 -3,-3 v -3 l -4,-4 -0.25,-1.25 -1.5,-0.5 -2.25,-4.25 -4,-4 v -2 l -2,-2 -1.5,-2.5 -5.75,-7.75 -1.25,-0.25 -2.5,-2.5 -0.5,-1.5 -3,-5 -0.5,-1.5 -2.5,-2.5 -1.25,-0.25 -0.5,-1.5 -2.5,-0.5 -1.5,-3.5 h -1.625 l -0.125,4.25 -1.5,1.5 h -1 l -1.5,-1.5 -0.5,-1.5 v -2 l 2,-4 0.5,-1.5 1.5,-1.5 1.25,-0.25 0.25,-1.25 2,-2 -2,-2 v -1 l -3,-3 0.25,-2.25 2.5,-0.5 0.5,-1.5 1.25,-0.25 1,1 0.5,-0.5 -1,-18 -1,-1 1,-1 -1,-1 v -4 l 1,-1 -1,-1 -0.375,-1.5 -1.125,-3 -0.5,-2.5 1,-1 -2,-2 1,-1 -1,-1 1,-1 v -2 l -1,-1 1,-1 -1,-1 -2,-9 -1,-1 1,-1 -1,-1 -0.5,-3.5 -0.75,-3 -2.25,-15 -1,-4 -0.5,-3.5 1,-1 -1,-1 v -5 l -1,-1 1,-1 -1,-1 v -1 l 1,-1 -1,-1 1,-12 1,-1 -1,-1 1,-1 v -1 l 1,-1 -1,-1 1,-1 1.25,-7.25 1.5,-0.5 0.5,-2.5 2.25,-0.25 1.5,1.5 -1,1 0.25,1.25 1.75,-0.125 7.75,-2.875 0.25,-1.25 -0.5,-0.5 -1,1 -10,-1 -1,-1 -1,1 -1,-1 -2,2 -1.25,-0.25 -1.25,-4.25 1.5,-1.5 10.5,1.375 10.5,0.625 1,-1 1,1 9,-1 1,-1 1,1 1,-1 h 4 l 1,-1 1,1 1,-1 1,1 11.5,0.25 1.5,-0.25 1,1 1,-1 1,1 1,-1 5.5,-0.5 7.5,-1.5 1,1 1,-1 h 13 l 1,1 1,-1 1,1 69,2 1,1 1,-1 9,1 1,-1 1,1 18,2 4.5,4.5 0.625,11.5 0.875,5 2.5,9.5 1,1 -1,1 1,1 -1,25 -1,1 1,1 -0.25,1.5 -0.25,6 0.5,3.5 1,1 -1,1 1.375,6.5 0.625,8.5 -1,1 1,1 -1,1 -1,14 1,1 -1,1 v 12.25 l 3.5,1.25 1.5,1.5 v 1 l -1,1 2,2 1,4 0.5,0.5 1,-1 2.25,0.25 1.25,5.25 2,2 0.5,1.5 0.875,2 0.625,2.5 1,1 -1,1 0.5,0.5 h 1 l 4.5,4.5 0.5,1.5 2.125,5 2.375,4.5 3,3 0.625,3.5 3.75,6 0.625,2.5 4,4 0.5,1.5 2.5,4.5 5.5,7.5 3.875,7 0.625,2.5 2,2 1,4 2,2 -2,14 1,1 -2,2 -1,3 1,1 -1,1 v 4 l -1.5,1.5 M -523,516 v -1 h -1 v 1 h 1 m 2,0 v -1 h -1 v 1 h 1 m 11,0 v -1 h -1 v 1 h 1 m 2,0 v -1 h -1 v 1 h 1 m -34,1 v -1 h -1 v 1 h 1 m 17,0 v -1 h -1 v 1 h 1 m -20,8 v -1 h -1 v 1 h 1 m 6,0 v -1 h -1 v 1 h 1 m -7,1 v -1 h -1 v 1 h 1 m 11,0 v -1 h -1 v 1 h 1 m 3,0 v -1 h -1 v 1 h 1 m 2,0 v -1 h -1 v 1 h 1 m -17.5,3 1.5,-1.5 -0.5,-0.5 h -2 l -0.5,0.5 1.5,1.5 m 40.5,1 v -1.5 l -1,-0.5 v 1 l 1,1 m 83.5,66 1,-1 h 1 l 1.5,-1.5 v -18 l -1,-1 1,-1 -1,-1 -1,-30 -1,-1 1,-1 -0.375,-2.5 0.125,-5 0.25,-1.5 -0.5,-0.5 -1,1 -0.5,-0.5 -0.25,-1.25 -1.25,-0.25 -1,-1 -0.5,0.5 v 1 l -0.5,0.5 -1,-1 -0.5,0.5 v 1 l -0.5,0.5 -1,-1 -4,-1 -1,1 -1,-1 -1,1 h -2 l -1,-1 -1,1 -7,-1 -1,-1 -1,1 -1,-1 -1,1 h -7 l -1,1 -1,-1 -1,1 -24,-1 -1,-1 -1,1 h -1 l -1,-1 -1,1 -6,1 -1,1 -1,-1 -1,1 -10.375,-0.875 1.5,18.875 1.125,6 3.25,39.5 1,1 -1,1 0.5,0.5 18.5,-2.5 4.5,-0.5 1,-1 1,1 h 8 l 1,-1 2,2 1,-1 h 5 l 1,-1 1,1 1,-1 1.5,0.25 14.5,-0.25 1,1 1,-1 14.5,0.75 3.5,1.25 M -554,534 v -1 h -1 v 1 h 1 m 94,-20 v -1 h -1 v 1 h 1 m -29,1 v -1 h -1 v 1 h 1 m -4,2 v -1 h -1 v 1 h 1 m 38.5,11 0.5,-0.5 1,-8 -1,-1 1,-1 -1.5,-1.5 -1,1 h -1 l -1,-1 -1,1 -13.25,-1 -1.25,10.5 0.5,0.5 1,-1 3.5,0.5 11.5,-0.5 2,2 m 2.5,-11 v -1 h -1 v 1 h 1 m -38,0 h -2.5 l -0.5,0.5 1,1 v 5 l -1,1 1.5,1.5 h 9 l 1,1 1,-1 3.375,-0.25 0.125,-7.25 1,-1 -1.5,-1.5 -1,1 h -1 l -1,-1 -1,1 -1,-1 -1.5,1 h -6 m 0,11 v -1 h -1 v 1 h 1 m 2,0 v -1 h -1 v 1 h 1 m 9,0 v -1 h -1 v 1 h 1 m 18,0 v -1 h -1 v 1 h 1 m 2,0 v -1 h -1 v 1 h 1 m 15,0 v -1 h -1 v 1 h 1 m -45,1 v -1 h -1 v 1 h 1 m 9,0 v -1 h -1 v 1 h 1 m 12,0 v -1 h -1 v 1 h 1 m 5,0 v -1 h -1 v 1 h 1 m 45,-12 1.5,1 1,-1 1,1 20,1 1,1 1,-1 4,1 1,1 1,-1 1,1 1.5,-0.5 h 2 l 1.5,0.5 1.5,1.5 3.375,27.5 -0.375,20.5 1,1 -1,1 v 1 l 1,1 -1,1 v 17 l 1,1 -1,1 0.375,1.5 0.625,3.5 1,0.5 v -15.5 l 1,-1 -1,-1 1,-7 1,-1 -1,-1 0.25,-1.5 0.375,-9 0.375,-1.5 -1,-1 1,-1 -1,-1 0.375,-2.5 -0.375,-15.5 -1,-1 1,-1 -2,-14 -2,-2 -1,-3 -4.5,-4.5 h -1 l -1,-1 -1,1 -1,-1 -10,-1 -1,-1 -1,1 -18.5,-2.5 -6,0.125 -2.5,0.375 -1,-1 -1,1 h -22 l -1,-1 -1.5,1 h -9.5 l -1,-1 -1,1 -8.5,-1 -42.5,-1 -1,1 -1,-1 -1,1 -21.5,2.5 -4,1 -3,1.125 -1.5,0.375 -1,-1 -2,2 h -2 l -0.5,1 h 1.5 l 1,1 2,-2 6,-1 2,2 0.5,-0.5 0.25,-1.375 6.25,-0.125 1,1 1,-1 12.5,-1 h 8.5 l 1,1 1,-1 h 3 l 1,1 1,-1 4.5,-1 h 4.5 l 1,-1 1,1 h 6 l 1,1 1,-1 h 5 l 1,-1 1,1 1,-1 4.5,-1 8.5,1 1,1 1,-1 11.5,1 4.75,0.125 0.25,1.375 0.5,0.5 1,-1 h 5.5 l 4.5,1 1,-1 1,1 h 9.5 v 0.5 l 0.5,0.5 h 1.5 1 v 0.5 l 0.5,0.5 h 0.5 m 23,6 -7,-0.5 -6,-1.125 -6,0.25 -9,-1.875 -14.5,-0.75 -1,-1 -1,1 -1,-1 -5.5,-0.75 h -1.75 l -0.5,1.75 -0.625,6.75 2.375,0.25 1,1 1,-1 1.5,0.25 h 10.75 l 0.25,1.25 0.5,0.5 1,-1 h 2 l 1,-1 1,1 h 1 l 1,1 0.5,-0.5 v -5 l 1.5,-1.5 h 1 l 2.5,2.5 1,25 1,1 -1,1 1,10 1,1 -1,1 1,28 1,1 -1,1 2,36 -1,1 0.5,0.5 10.5,1 2,0.5 h 2 l 1.5,-0.5 1,1 1,-1 1,1 12,1 1,-1 1,1 1,-1 1.5,-0.25 0.875,-21.75 -2.875,-21.5 1,-1 -1,-1 1,-1 v -29 l 1,-1 -1,-1 1,-1 -1,-1 v -1 l 1,-1 -1,-1 -1.375,-10.5 -0.625,-13.5 -1.5,-1.5 -1,1 h -2 l -1,-1 -1,1 -1,-1 -1.5,-0.5 -2,-1 -1.75,-0.25 -0.25,0.75 m -46,6 v -1 h -1 v 1 h 1 m 5,0 v -1 h -1 v 1 h 1 m 58.5,-16 0.5,-1 h -1.5 l -0.5,1 h 1.5 m 1.5,1 v -1 h -1 v 1 h 1 m 1,3 v -1 h -1 v 1 h 1 m -190,21 v -1 h -1 v 1 h 1 m 17,0 v -1 h -1 v 1 h 1 m -16,2 v -1 h -1 v 1 h 1 m 9,1 v -1 h -1 v 1 h 1 m 8,1 v -1.5 l -1,-0.5 v 1 l 1,1 m -14,1 v -1 h -1 v 1 h 1 m 5,1 v -1 h -1 v 1 h 1 m 29,4 v -1.5 l -1,-0.5 v 1 l 1,1 m -16.5,3 0.5,-0.5 -1,-1 v -1 l -1.5,-1.5 -0.5,0.5 0.25,3.25 2.25,0.25 m 0.5,-3 v -1 h -1 v 1 h 1 m 8,1 v -1 h -1 v 1 h 1 m 5,0 v -1 h -1 v 1 h 1 m -33,1 v -1 h -1 v 1 h 1 m 25,1 v -1 h -1 v 1 h 1 m -26,3 v -1 h -1 v 1 h 1 m 2,1 v -1 h -1 v 1 h 1 m 9,2 v -1 h -1 v 1 h 1 m -8,8 v -1 h -1 v 1 h 1 m 8,0 v -1 h -1 v 1 h 1 m 26,2 v -1 h -1 v 1 h 1 m -10,1 v -1 h -1 v 1 h 1 m -17,7 v -3.5 l -1,-0.5 v 3.5 l 1,0.5 m 17,-3 3,-1.375 2.75,-0.875 v -2.5 h -1.5 l -0.25,1.25 -0.5,0.5 -1,-1 -1,1 h -2 l -1,-1 -1.5,1.5 v 0.5 h -1.5 l -0.5,0.5 0.5,0.5 h 1.5 2 v 0.5 l 0.5,0.5 h 0.5 m -22,3 v -2.5 l -1,-0.5 v 2.5 l 1,0.5 m -3,-1 v -1 h -1 v 1 h 1 m 4,4 v -1.5 l -1,-0.5 v 1 l 1,1 m 7,-1 v -1 h -1 v 1 h 1 m -10,1 v -1 h -1 v 1 h 1 m 8,0 v -1 h -1 v 1 h 1 m -6,4 v -1 h -1 v 1 h 1 m 2,1 v -1.5 l -1,-0.5 v 1 l 1,1 m 1,4 v -2.5 l -1,-0.5 v 2.5 l 1,0.5 m -2,2 v -1 h -1 v 1 h 1 m 3,1 v -1 h -1 v 1 h 1 m 1,6 v -1.5 l -1,-0.5 v 1 l 1,1 m 16,2 v -1 h -1 v 1 h 1 m 2,8 0.25,-2.75 1.25,-0.25 1.5,-1.5 v -1 l -1.5,-1.5 h -2 l -1,-1 -0.5,0.5 1,7 1,0.5 m 51,-8 v -1 h -1 v 1 h 1 m 65,-2 v -1 h -1 v 1 h 1 m 43,-44 v -1 h -1 v 1 h 1 m 8,38 v -1.5 l -1,-0.5 v 1 l 1,1 m 0,2 v -1 h -1 v 1 h 1 m -182.5,19 0.5,-0.5 -2.25,-11.25 -1.25,-0.25 -0.5,0.5 1,1 v 1 l -1,1 1,1 1,6 1.5,1.5 m 29,-9 0.5,-1 h -1.5 l -0.5,1 h 1.5 m -9.5,1 v -1 h -1 v 1 h 1 m -9,3 v -2 -1.5 l -0.5,-0.5 h -0.5 l -4,-34 -5,-22.5 -1,-1 1,-1 -1,-0.5 v -2.5 l 1,-1 -0.5,-0.5 -2.25,-0.25 v -2.5 l 1.25,-0.25 0.5,-0.5 -1.5,-1.5 -1.5,1.5 1,8.5 1.75,7 0.25,1.5 -1,1 1,1 v 5 l -1,1 1,1 1,3.5 2,14.5 -1,1 1,1 v 6 l 1,1 -1,1 1,1 -1,1 1,1 1,16 1,1 -1,1 1,1 1,12 1,1 -1,1 1,1 v 1 l 1.5,1.5 h 3 l 2.5,2.5 -0.5,0.5 h -1 l -0.5,1 3.75,-0.25 0.25,-1.25 -1,-1 1,-1 -2,-2 -1.5,-6.5 -1.5,-12 v -2.5 l -0.5,-0.5 h -0.5 m 12,6 v -1 h -1 v 1 h 1 m -20,14 v -0.5 l -1.5,-7.5 -0.5,-5.5 -1,-0.5 0.625,8 1,4.5 1.375,1.5 m 30,-13 v -1 h -1 v 1 h 1 m -34,1 v -1 h -1 v 1 h 1 m 30,0 v -1 h -1 v 1 h 1 m -3,1 v -1 h -1 v 1 h 1 m -2,1 v -1 h -1 v 1 h 1 m -25,2 v -1 h -1 v 1 h 1 m 49,10 -0.5,-3 -1.75,-7 -1.75,-15.5 -1,-1 1,-1 -1,-5 -1,-1 1,-1 -1,-1 v -6 l -1,-1 1,-1 -1,-1 -2,-24 1,-1 -1,-1 -2,-17 1,-1 -1,-1 -0.125,-7.25 -2.375,-0.25 -1.5,-1.5 0.25,-1.25 2.625,-0.5 0.125,-5.25 1,-1 -1,-1 1.5,-1.5 h 1 l 1.5,1.5 v 1 l 1,1 -1,1 1,1 -1,1 1,1 0.25,1.25 0.75,0.25 0.5,1 0.5,-1 6.5,-1 1,1 1,-1 3.375,-0.25 0.125,-4.25 1,-1 -0.5,-0.5 -1.25,-0.25 -0.5,-2.75 h -26.25 l -1,1 -1,-1 h -2 l -1.5,1 -0.5,-1 -0.5,0.5 v 0.5 h -1 l -3,0.625 -2,-0.125 -1.5,-0.5 -1,-1 -1,1 h -2 l -1,1 -1,-1 -3,1 -1,-1 -1,1 -3.25,-0.25 -0.5,-2.5 -1.25,-0.25 -1,1 -1,-1 -2.5,2.5 v 1 l -2,2 1,22 1,1 -1,1 1,1 v 4 l 1,1 -1,1 1,1 0.5,4.5 1,5 0.5,4.5 1,0.5 -2,-17.5 1,-1 -1,-1 v -1 l -1,-1 1,-1 -1,-1 v -3 l -1,-1 1,-1 -1,-1 v -3 l -1,-1 1,-1 -1,-1 2.5,-2.5 1,1 1,-1 1,1 0.5,-0.5 0.625,-3.5 v -2 l -0.625,-3.5 1.5,-1.5 h 2 l 2,2 h 1 l 1,1 2,-2 1,1 h 1 l 1,1 1,-1 h 4.5 l 11.5,-1 2,-2 1,1 1,-1 h 2 l 1.5,1.5 v 1 l -2.5,2.5 h -2 l -1,-1 -0.5,0.5 -0.25,1.25 h -3.5 l -0.25,-1.25 -0.5,-0.5 -1.5,1.5 -0.25,1.25 -1.25,0.25 -1,-1 -1,1 h -1 l -1,-1 -1,1 h -6.5 -0.5 l -0.5,0.5 v 1.5 0.5 l -0.5,0.5 h -0.5 -0.5 l -0.5,0.5 v 0.5 h -1.5 l -2.5,2.5 0.25,2.25 0.75,0.25 3.5,1 1,1 2,-2 11.5,-0.75 4,0.25 3.75,0.75 0.25,1.25 -1.5,1.5 -6,1 -1,-1 -1,1 h -1 l -1,1 -1,-1 h -8 l -2,2 h -1 l -1.5,1.5 0.5,0.5 3.25,1.25 0.25,1.25 0.5,0.5 1,-1 7,1 1,1 0.5,-0.5 0.25,-1.25 2.25,-0.25 1,1 2,-2 4.25,1.25 0.25,3.25 -0.5,0.5 -1,-1 -1,1 h -3 l -1,-1 -1,1 h -3 l -1,1 -1,-1 -1,1 -5,3 -0.5,0.5 1,1 -1.5,1.5 -1,-1 -0.5,0.5 0.5,4.5 0.75,4 h 8.25 l 0.5,1 h -1.5 l -0.5,1 2.75,-0.25 0.25,-1.25 0.5,-0.5 1,1 1,-1 3,-1 1.5,1.5 -0.25,3.25 -2.25,0.25 -1,-1 -0.5,0.5 0.25,1.375 4.25,0.125 2.5,2.5 v 1 l -1.5,1.5 -1,-1 h -4 l -1,-1 -1,1 -7.5,1 -1,-1.5 -1.5,-1.5 -0.5,0.5 1,8.5 1,9.5 1,1 -1,1 1,1 v 2 l 0.5,0.5 1,-1 h 1 l 1,1 1,-1 3,3 h 1 l 3,3 11.5,-1.75 h 2.75 l 0.25,3.25 -1.5,1.5 -8.5,0.625 -4,1 -1.75,0.125 -0.25,-1.25 -0.5,-0.5 -1,1 -1.25,0.25 -0.5,3.5 -3.625,0.5 0.875,6.25 0.5,0.5 1,-1 h 2 l 0.5,-1 h -0.5 l -1.25,-0.25 -0.25,-1.25 -1,-1 1.5,-1.5 h 1.5 l 0.5,1 0.5,-1 7.5,1 1,1 1,-1 6,-1 1,-1 2.5,2.5 v 1 l -1.5,1.5 h -2 l -1,1 -1,-1 -1,1 -3.5,0.625 -3.75,-0.375 -0.25,1.25 -0.5,0.5 -1,-1 -1,1 h -1 l -1,1 -0.5,-0.5 v -1 l -1,-0.5 v 0.5 l -0.625,2.5 -0.375,1 -1.75,0.25 -0.25,2.25 1,1 -1,1 2,2 0.625,3.5 1.625,3.75 25.5,-0.75 0.25,-3.5 1,-1 -1,-0.5 m -49,-5 v -1 h -1 v 1 h 1 m 4,10 v -5.5 l -1,-0.5 v 5.5 l 1,0.5 m 10,-2 v -1 h -1 v 1 h 1 m -0.5,6 0.5,-1 h -1.5 l -0.5,1 h 1.5 m -16.5,4 v -1 h -1 v 1 h 1 m 6,4 v -1 h -1 v 1 h 1 m -1,1 v -1 h -1 v 1 h 1 m 26,1 v -1 h -1 v 1 h 1 m 4,0 v -1 h -1 v 1 h 1 m 9.5,1 0.5,-1 h -1.5 l -0.5,1 h 1.5 m -36,2 0.5,-1 h -3.5 l -0.5,1 h 3.5 m -1.5,2 v -1 h -1 v 1 h 1 m 16.5,28 0.5,-0.5 v -2 l -3,-3 v -1 l -2,-2 v -2 l -3,-3 -3,-5 -3,-3 -1.25,-4.25 -1.25,-0.25 -2,-2 h -2 l -2.5,2.5 0.5,0.5 h 1 l 9.5,9.5 0.5,1.5 3,5 0.5,1.5 1.5,1.5 h 1 l 1.5,2 3.5,4 m 20.5,-21 7.875,0.875 0.875,-4.875 v -1.75 l -1.75,0.25 -1.5,0.5 -1,-1 -0.5,0.5 v 0.5 l -6,0.375 -2.5,-0.375 -0.5,0.5 1,1 -0.5,0.5 -1.25,0.25 -0.25,1.25 1.5,1.5 h 4.5 m -8.5,6 0.5,-0.5 -1,-1 v -2 l -1,-0.5 0.25,3.75 1.25,0.25 m 9.5,-3 v -1 h -1 v 1 h 1 m 34,-19 v -1 h -1 v 1 h 1 m -29,2 v -1 h -1 v 1 h 1 m 44.75,10.875 0.875,-3.875 0.125,-1.875 -6.75,0.5 -5.75,1.625 -0.25,1.25 1.5,1.5 10.25,0.875 M -476,652 v -1 h -1 v 1 h 1 m 36.5,6 2.5,-2.5 -0.125,-5.25 H -439 l -8.875,2 -0.125,6.25 0.5,0.5 1,-1 h 2 l 1,-1 1,1 1,-1 2,1 m -52.5,-2 1.5,2 4,1 1,1 4.5,-4.5 -1,-4 -0.5,-0.5 -1,1 h -1 l -1,-1 -1,1 -4.25,0.125 -0.75,1.875 -0.5,1 h -1.5 l -0.5,0.5 0.5,0.5 h 1.5 m 20,0 v -1 h -1 v 1 h 1 m 23,1 v -1 h -1 v 1 h 1 m -23,1 v -1 h -1 v 1 h 1 m 7,0 v -1 h -1 v 1 h 1 m 6.75,7.75 0.75,-2.75 0.25,-2.75 -1.25,-0.25 -2,2 h -3 l -1.5,1.5 0.5,0.5 h 1 l 2,2 3.25,-0.25 m 46.25,20.75 3.5,-0.5 1,-1 1,1 h 3 l 0.5,-0.5 -1.5,-1.5 -1.25,-0.25 -0.75,-1.75 -0.125,-2 0.875,-2.75 1.5,-0.5 0.25,-3.25 -1.5,-1.5 -1,1 h -1 l -1.5,1.5 1,1 v 3 l -1.5,1.5 h -1 l -1.5,1.5 -0.25,1.25 -3.25,0.25 -1.5,-1.5 1,-7 -0.5,-0.5 -1,1 -1.5,-1.5 v -1 l 1,-1 -1.5,-1.5 -3,-1 -1,1 -1,-1 -7,-1 -1.5,-1.5 1,-1 -0.25,-1.25 -1.5,-0.5 -0.25,-3.25 -0.5,-0.5 -1.5,1.5 1,7 -1.5,1.5 -3.5,1.25 h -5 l -3.5,-1.25 -1.5,-1.5 -2,-4 1,-1 -1,-1 v -2 l -1,-0.5 -0.5,6 -1.5,6.5 -1,1 0.5,0.5 h 7 l 1,-1 1,1 h 1 l 1,-1 1,1 h 6 l 1,-1 1,1 14.5,0.875 1.875,0.375 0.125,5.25 -1,1 1,1 1.25,4.375 5.75,-0.375 M -467,663 v -1.5 l -1,-0.5 v 1 l 1,1 m 39,-32 7.5,-1 1,1 1.5,-1.5 -1,-1 -1,-28 -1.5,-1.5 h -1 l -1,1 -1,-1 -11,-1 -1,1 -1,-1 -21,1 -1,-1 -1,1 -5.5,0.75 -9.5,-0.75 -1,1 -1,-1 -1,1 -1,-1 -21,3 -1,-1 -1,1 -1.25,0.25 0.25,2.75 1.125,3 v 2 l -0.625,2.5 1,1 -1,1 1.25,3.5 0.75,5.5 2,2 -1,1 1,1 v 2.5 3.5 l 0.5,0.5 1,-1 h 1.5 5.5 l 1,-1 1,1 5.5,-1.375 9.5,-0.625 1,1 1,-1 1,1 1,-1 22.5,-0.625 1.5,-0.375 2,2 1,-1 h 9.5 5 m 15,17 v -1 h -1 v 1 h 1 m 4,1 v -1 h -1 v 1 h 1 m -14,6.25 3.5,-1.25 1.5,-1.5 -0.25,-2.25 -1.25,-0.25 -1,-1 -1,1 -1,-1 h -2 l -1,1 -1,-1 -1.25,0.25 -1.25,3.25 2,2 -1,1 0.5,0.5 4.5,-0.75 m 39,-6.25 -0.5,-1 -0.5,0.5 v 0.5 h -3.5 l -1.5,1.5 0.25,3.375 h 5.625 L -384,649 m -48,2 v -1 h -1 v 1 h 1 m 30.875,3.75 V 650 h -8.625 l -0.25,2.5 1.5,1.5 7.375,0.75 M -414,657 v -2.5 l -1,-0.5 v 2.5 l 1,0.5 m -19.5,3 1.5,-1.5 -0.25,-1.25 h -1.5 l -0.25,2.25 0.5,0.5 m 21.5,-2 v -1 h -1 v 1 h 1 m 14.75,8.75 0.25,-1.25 1.5,-1.5 7.5,-0.625 5.75,-1.625 0.25,-3.25 -0.5,-0.5 -1,1 -8.25,0.875 -0.25,-1.375 -1,-0.5 -0.125,4.75 -1.375,0.25 -1,-1 -1,1 h -1 l -3.5,3.5 0.5,0.5 3.25,-0.25 m -6.25,-3.75 1.5,-1.5 -0.25,-1.375 -8.5,-0.875 0.25,1.75 0.75,1.875 6.25,0.125 m -18,2 1.5,-1.5 v -1 l 1,-1 -0.5,-0.5 h -1 l -1,-1 -1,1 h -3 l -1,-1 -1.5,1.5 v 1 l -1,1 0.5,0.5 7,1 m 24.5,-4 v -1 h -1 v 1 h 1 m -44,6.375 1.5,-0.375 0.5,-0.5 -1,-1 v -3 l -0.5,-0.5 -1,1 -4,1 -0.5,1 h 0.5 l 1.25,0.25 0.5,2.5 2.75,-0.375 M -377,601 v -1 h -1 v 1 h 1 m 3,29 v -1 h -1 v 1 h 1 m -4,3 v -1 h -1 v 1 h 1 m 26,100.5 9.5,-1.5 1,-1 1,1 16.5,-3.5 3.5,-0.5 2,-2 1.25,0.25 0.25,1.25 1,0.5 v -0.5 l 0.625,-2.5 -0.625,-2.5 -4.375,-7.5 -2.125,-5 -4,-6 -1,-2 -0.75,-1.75 -1.25,-0.25 -2.5,-2.5 -0.5,-1.5 -4,-8 -5.5,-8.5 -3.5,-6.5 -0.5,-1.5 -2,-2 2,-2 -1,-1 -1.25,-4.25 -1.25,-0.25 -6.5,-6.5 -0.5,-1.5 -4,-7 -0.75,-1.75 -2.25,-0.25 -1.5,-1.5 -1,-3 -1,-0.5 v 0.5 l -0.25,1.25 -2.5,0.5 v 3.5 l 1.25,0.25 1.5,1.5 6.375,11.5 0.625,2.5 2,2 0.625,5.5 1.875,6 0.5,2.5 2,2 1,4 1,1 -1,1 -0.25,1.25 -2.25,0.25 -1.5,1.5 -0.25,1.25 -5.5,-0.5 -0.25,2.25 -1.5,1.5 -21,-2 -1,-1 -1,1 h -6 l -0.5,1 2.75,0.25 0.25,1.25 0.5,0.5 1,-1 h 4 l 1.5,1.5 2.75,9.5 0.75,2 5.5,7.5 1.375,2.5 1.25,3 0.375,1.5 3,3 1,5 1,1 -1,1 -0.25,1.25 -1.25,0.25 -0.5,1 h 3.5 l 1,1 1,-1 1,1 10.5,-0.5 m -4,-91.5 v -1 h -1 v 1 h 1 m -6,2 v -1 h -1 v 1 h 1 m -152,20 -1.5,-1 -2,2 -2.25,0.25 1.75,3.25 3.5,4.5 1.5,2.5 0.5,0.5 1.5,-1.5 v -1 l -1,-1.5 v -6.5 l 1,-1 -0.5,-0.5 h -2.5 m 19.75,8 v -4 l -13.25,1 -0.5,1 h 1.5 l 0.5,1 h -1.5 l -0.5,1 h 0.5 l 2.5,-0.625 2,-0.125 8.75,0.75 m -36.25,11 0.5,-0.5 v -1 l -1.5,-1.5 -0.5,1 1.5,2 m 1.5,1 v -1 h -1 v 1 h 1 m 1.5,3 0.5,-0.5 v -1 l -1.5,-1.5 -0.5,1 1.5,2 m 19.5,0 v -1 h -1 v 1 h 1 m -16.5,5 0.5,-0.5 -1,-3 -1.5,-1.5 -0.5,0.5 0.5,2 2,2.5 m 1.5,1 v -1 h -1 v 1 h 1 m 1,2 v -1 h -1 v 1 h 1 m 1,2 v -1 h -1 v 1 h 1 m 7,10 v -1 h -1 v 1 h 1 m 6,0 v -1 h -1 v 1 h 1 m -4.5,3 0.5,-0.5 v -1 l -1.5,-1.5 -0.5,1 1.5,2 m 2.25,2.75 0.25,-1.25 -1.5,-1.5 -0.5,0.5 0.25,2.25 h 1.5 M -509,715 v -1.5 l -1,-0.5 v 1 l 1,1 m 1,1 v -1 h -1 v 1 h 1 m 18,27 v -2.5 l 1,-1 -3,-3 -0.25,-1.25 -4.5,-1.5 -0.75,-1.75 -7,-11 -1,-2 -0.5,-1.5 -1.5,-1.5 -0.5,0.5 0.375,1.5 0.625,3.5 2,2 0.5,1.5 2.875,5 1.25,3 0.375,1.5 2.5,2.5 2.25,0.25 0.25,1.25 2.5,2.5 1.25,0.75 1.25,1.25 m 4,-79 v -1 h -1 v 1 h 1 m 21,1 v -1 h -1 v 1 h 1 m 16,1 v -1 h -1 v 1 h 1 m -39,1 v -1 h -1 v 1 h 1 m 8.5,3 1.5,-1.5 v -1 l -1.5,-1.5 h -4 l -2.5,2.5 0.5,0.5 6,1 m 12.5,1 v -1 h -1 v 1 h 1 m 4.5,4 2.5,-2.5 v -1 l -0.5,-0.5 -1,1 -3.25,0.25 v 2.5 l 2.25,0.25 m 34,10 1,-1 h 4 l 0.5,-0.5 -1,-1 v -2 l 1,-1 -0.5,-0.5 -34.5,-0.125 -1.75,0.375 -0.25,1.25 3.5,3.5 h 4 l 1,-1 1,1 1,-1 14,1 1,1 1,-1 5,1 m -50.5,-5 v -1 h -1 v 1 h 1 m 5,2.375 1.75,-0.625 v -1.5 l -1.25,-0.25 -1,-1 -1,1 -1.25,0.25 v 2.5 l 2.75,-0.375 m 3,-2.375 v -1 h -1 v 1 h 1 m -13,0 1.75,-0.25 0.25,-2.25 1.5,-1.5 h 1 l 1,-1 1,1 1,-1 1,1 1,-1 1,1 1,-1 h 2 l 1.5,-1.5 -1,-1 v -1 l 1,-1 -2,-2 1,-1 -1,-3 -1,-1 1,-1 -0.25,-2.25 -5.5,0.5 -0.25,-1.25 -1.5,-1.5 -0.5,0.5 v 1 l -2,2 0.5,0.5 5.25,1.25 0.5,1.75 0.75,5.5 -2.5,2.5 -9.5,2 -0.5,-1 -0.5,0.5 v 0.5 l -1.75,-0.25 -0.25,-3.25 -1,-0.5 -0.25,3.75 -1.75,0.375 -10.5,0.875 -1.5,1.5 -0.25,1.25 -1.75,0.25 h -1.5 l -2,-2 -0.5,0.5 1.25,5.25 1.5,0.5 0.5,2.5 1.5,0.5 0.25,1.25 2.5,2.5 h 1 l 2,2 1,-1 10.5,-1 h 1.5 l 1,-1 1,1 11.5,0.75 9.5,-1.75 1,-1 1,1 2.25,-0.25 0.25,-1.25 -5,-5 v -3 l -0.5,-0.5 -1,1 -1,-1 -1.5,1.5 -0.125,4.25 -1.375,0.25 -2,2 -2.5,0.375 -5,1.375 -1.5,0.25 -1.5,-1.5 -2,-7.5 m 5,3 v -1 h -1 v 1 h 1 m 8,0 v -1 h -1 v 1 h 1 m -6,1 v -1 h -1 v 1 h 1 m 22,6 v -1 h -1 v 1 h 1 m -17,2 v -1 h -1 v 1 h 1 m -26,1 v -1 h -1 v 1 h 1 m 40,7 v -1 h -1 v 1 h 1 m -5.5,3 0.5,-1 h -1.5 l -0.5,1 h 1.5 m 4.5,1 v -1 h -1 v 1 h 1 m 4,5 v -1 h -1 v 1 h 1 m 1,2 v -1.5 l -1,-0.5 v 1 l 1,1 m -7,0 v -1 h -1 v 1 h 1 m 8,1 v -1 h -1 v 1 h 1 m -6,1 v -1 h -1 v 1 h 1 m 44.5,-48 0.5,-1 h -1.5 l -0.5,1 h 1.5 m 5,5 1.5,-1.5 -0.5,-0.5 h -5 l -1.5,1.5 0.5,0.5 1.5,-0.5 h 2 l 1.5,0.5 m 19.5,-1 v -1 h -1 v 1 h 1 m -28,1 v -1 h -1 v 1 h 1 m 23,1 v -1 h -1 v 1 h 1 m -9,1 v -1 h -1 v 1 h 1 m 6.5,0 0.5,-1 h -1.5 l -0.5,1 h 1.5 m 11.5,0 v -1 h -1 v 1 h 1 m -3,1 v -1 h -1 v 1 h 1 m -2,2 v -1 h -1 v 1 h 1 m 4,3 v -1 h -1 v 1 h 1 m -1.5,1 0.5,-1 h -1.5 l -0.5,1 h 1.5 m -9,2 0.5,-1 h -1.5 l -0.5,1 h 1.5 m -2,1 0.5,-1 h -1.5 l -0.5,1 h 1.5 m 8,5 1.5,-1.5 -0.25,-2.25 -2.75,0.375 -4,1.75 -2.5,0.625 -0.5,1 h 8.5 m 2.5,0 v -1 h -1 v 1 h 1 m 5.5,0 0.5,-1 h -2.5 l -0.5,1 h 2.5 m -9.5,4 v -1 h -1 v 1 h 1 m -25,4 v -1 h -1 v 1 h 1 m -23,2 v -1 h -1 v 1 h 1 m 9,0 v -1 h -1 v 1 h 1 m 50.5,15 0.5,-0.5 -1.5,-1.5 -0.5,0.5 0.25,1.25 1.25,0.25 m -4.5,4 v -1.5 l -0.5,-0.5 h -0.5 v -1 l -0.625,-4 -1.625,-4 -2,-6.75 h -1.5 l -0.25,0.75 -1.5,-1 -1,1 -13,-1 -1,-1 -1,1 -6.5,0.75 -2,-0.125 -2.5,-0.625 -1,1 -1,-1 -1,1 -1.5,0.5 h -2 l -1.5,-0.5 -1,1 -1,-1 -17,2 -1,-1 -1,1 h -2 l -1.5,1 h -2.5 l -0.5,0.5 0.5,0.5 1.5,0.5 1,0.5 1.75,1.25 0.25,2.25 3,3 v 1 l 0.5,0.5 1,-1 2.5,2.5 v 1 l 9.5,9.5 1.5,-0.5 8,-0.125 3,0.875 13.5,0.75 1,-1 1,1 19.5,-1 2,-0.5 1.75,-0.75 -0.25,-3.75 -0.5,-2.5 -1,-0.5 m 17,-40 v -1 h -1 v 1 h 1 m 5,10 6.75,-2.25 -0.25,-1.75 -0.875,-2 -4.375,-15 -0.25,-1.5 -1,-0.5 v -2.5 l -2,-2 -0.5,-1.5 -1,-2 -0.75,-1.75 -1.5,-0.5 -0.25,-1.25 -1,-0.5 v -1.5 l -2,-2 -0.25,-1.25 -2.5,-0.5 -0.5,-3.75 -26.25,1 -1,-1 -1,1 h -6.5 l -12.5,-1 -1,1 -1,-1 h -3 l -1,1 -1,-1 h -2 l -1,-1 -1,1 -1.5,0.25 h -5 l -6,0.75 -1.75,-0.75 -0.25,0.75 h -4 l -0.5,-1 -0.5,0.5 v 0.5 h -7.5 l -1,1 -1,-1 -1,1 h -8.5 l -1.75,-0.75 -0.25,0.75 h -2.5 l -1,1 -1,-1 -1,1 -14.5,1 h -1.5 l -0.5,0.5 v 0.5 h -1 l -3,-1.625 -2,0.125 -1.5,0.5 -1,1 -1,-1 -1,1 h -2 l -0.5,0.5 1,1 v 1 l 0.5,0.5 1,-1 5.5,-1 3,3.5 v 4 l -1,1 1,1 -1,3 -2.5,2.5 h -2 l -0.5,1 h 0.5 l 6,-1 1,1 1,-1 1,1 0.5,-0.5 -0.25,-1.5 -1.5,-6 -0.25,-1.5 1,-1 -1,-1 0.25,-2.25 4.75,-1.75 2.5,-0.5 1,-1 1,1 h 1 l 1,-1 1,1 1,-1 4,1 2,2 1,-1 2.5,-0.625 2,-0.875 1.5,-0.5 1,-1 1,1 1,-1 10.5,0.875 1.875,0.375 -0.875,7.25 -1,1 0.5,0.5 3.375,-0.25 0.125,-6.25 1.5,-1.5 17,-2 1,1 1,-1 h 2 l 1,-1 1,1 1,-1 8.5,0.75 3,0.875 2,-0.125 2,-1 2,-0.5 v 0.5 l 0.5,0.5 h 0.5 l 10.5,-1 2.5,2.5 v 1.5 l -1,4.5 0.5,0.5 1.5,-1.5 v -3.5 -1.5 l 1.5,-1.5 2.5,-0.375 5,-1.25 3,0.25 1.5,0.375 1.5,1.5 v 2.5 l 0.125,4.75 1.375,0.25 1.5,1.5 -0.625,4.5 -1.375,4.5 -2.5,2.5 -7,1 -0.5,1 10.5,-1 2.5,2.5 -5.5,5.5 h -3 l -0.5,1 h 7.5 l 1,1 1.5,-1.5 -1,-1 1.25,-3.25 2.75,-0.75 3,-0.5 h 5.5 l 1.5,1.5 v 2 l -5.5,5.5 -1.5,0.375 -3,1.125 -3,0.5 -1.5,-1 -4.5,4.5 0.5,0.5 h 3.5 l 0.5,1 1,-1 3.5,-0.5 6,0.25 1,0.25 0.5,1 0.5,-1 m -13,34 v -1.5 l -1,-0.5 v 1 l 1,1 m -71,11 -1.5,2 -1,-1 h -1 l -1.5,-1.5 1,-1 v -1 l -1,-1 0.5,-0.5 h 0.5 l 1,-0.5 -1,-0.5 -1.625,-4 -5.375,-7.5 -1,-0.5 -0.5,-1 -0.5,0.5 v 0.5 l -2,-1.5 v -2 l -0.5,-0.5 -1,1 -0.5,-0.5 -0.25,-1.25 -1.5,-0.5 -0.75,-3.75 0.125,-6 0.625,-2.75 h 2.5 l 0.5,1.625 5.25,0.125 2,-2 2.5,0.5 20,-1.5 h 4.5 l 0.5,-0.5 V 694 h 5 0.5 l 0.5,-0.5 V 693 h 2 l 0.5,1 0.5,-1 24.5,-1 0.5,-1 h -38.5 l -1,-1 -1,1 h -17 l -1,1 -1,-1 -1,1 -8.5,1.625 -3,1 -2,0.125 -8.5,-0.75 -1,1 -2,-2 -1,1 h -13.25 l -0.25,1.5 -1.5,1.5 h -2 l -1,1 -5,-5 h -1 l -2.5,-2.5 -0.25,-1.25 -1.5,-0.5 -2.625,-4.75 -0.625,-2.5 -1.5,-1.5 h -1 l -0.5,-0.5 1,-1 -0.5,-0.5 -1.25,-0.25 -1.25,-2.25 -5.25,-7.25 -1.5,-0.5 -0.75,-1.75 -5,-9 -0.5,-1.5 -2,-2 v -2 l 1.5,-1.5 h 2 l 1.5,1.5 1,4 1.5,1.5 h 0.5 v 1.5 l 0.5,0.5 0.5,-0.5 V 657 l 1,-0.5 -1,-0.5 v -1.5 l 1.5,-1.5 h 1 l 2,-2 1,1 3.5,-0.625 1.5,-0.375 0.5,-0.5 -2,-2 -0.25,-1.25 -1.25,-0.25 -1,1 -1,-1 -2,2 h -1 l -1,-1 -1,1 h -8 l -1.5,-1.5 0.25,-2.25 1.75,-0.5 8,-0.125 5,-2 7,0.125 8,-1.5 19.5,-0.25 1,-1 1,1 1,-1 h 7 l 1,-1 1,1 1,-1 1.5,0.5 2,0.125 2.5,-0.625 1,1 1,-1 h 5 l 1,-1 1,1 h 9 l 1,-1 1,1 h 1 l 1,-1 1,1 2.5,-0.625 2,-0.875 2,-0.625 25.5,-0.875 0.5,-1 h -0.5 l -6,-1 -1,1 -1,-1 -1,1 h -1 l -1,-1 -1,1 H -450 l -0.5,-1 -1,1 h -3 l -1,-1 -1,1 h -21 l -1,1 -1,-1 -7.25,1.125 -0.25,0.875 -8.5,1 -1,-1 -1,1 -1.25,0.25 -0.5,1.75 h -15.25 l -1,-1 -1,1 h -3 l -1,-1 -1,1 -9.5,0.625 -4,1 h -2 l -2.5,-0.625 -1,1 -1,-1 h -3 l -1,1 -1,-1 h -1 l -0.5,0.5 2,2 7.375,12.5 0.625,2.5 2,2 v 1 l 1.5,1.5 2.25,0.25 0.5,1.5 1.5,0.5 0.25,2.25 -1,1 4,4 1.5,2.5 5.75,7.75 1.5,0.5 5.25,7.25 6.5,9.5 5,9 2.125,5 1.375,2.5 5.25,8.25 4.25,2.25 1.5,1.5 v 1 l 3.5,3.5 h 8 l 2,2 1,-1 1,1 h 9 l 1,-1 1,1 1,-1 6.5,0.75 2,0.5 5.5,0.75 1.5,-1.5 -3,-3.5 -0.5,-1 -0.5,0.5 v 0.5 m 5,5 v -1 h -1 v 1 h 1 m -30.5,8 0.5,-0.5 -2,-2 -0.25,-2.25 -1.75,-0.75 -1.75,-0.25 -0.625,1.75 -0.375,2.75 2.25,0.25 1,1 1,-1 1,1 h 1 m 11.5,-2 v -0.5 l 0.25,-1.375 6.5,-0.25 v -1.625 l -11.25,0.75 -0.5,1 h 0.5 l 3.25,0.75 1.25,1.25 m -5.5,-1 0.5,-1 h -1.5 l -0.5,1 h 1.5 m 11.5,1 v -1 h -1 v 1 h 1 m -15.5,2 0.5,-0.5 -0.25,-1.25 -1.25,-0.25 -0.5,0.5 1.5,1.5 m 4,0 0.5,-1 h -1.5 l -1,-1 -0.5,0.5 0.25,1.25 2.25,0.25 m 2.5,0 v -1.5 l -1,-0.5 v 1 l 1,1 m 6,-1 v -1 h -1 v 1 h 1 m 14.5,3 0.5,-1 h -1.5 l -0.5,1 h 1.5 m -21,3 0.5,-1 h -4.5 l -0.5,1 h 4.5 m 82.5,-21 v -1 h -1 v 1 h 1 m -18,1 v -1 h -1 v 1 h 1 m 15,2 v -1.5 l 1,-1 -0.5,-0.5 h -3 l -0.5,1 h 0.5 l 1.25,0.75 1.25,1.25 m -29,-2 -16.5,-1 -0.5,0.5 2.5,2.5 14.5,-1 h 3.5 l 0.5,-0.5 -0.5,-0.5 h -3.5 m 6,1 v -1 h -1 v 1 h 1 m 14,-1 h 1 1.5 l 0.5,-0.5 -0.5,-0.5 h -1.5 -3.5 l -0.5,0.5 0.5,0.5 h 1.5 l 0.5,1 0.5,-1 m -22,3 v -1 h -1 v 1 h 1 m 9,0 v -1 h -1 v 1 h 1 m -27,0 -1.5,-2 -0.5,0.5 v 1.5 l -0.75,1.75 1.25,0.25 1.5,-2 m 10.5,2 1.5,-1.5 -0.5,-0.5 -1.25,0.75 0.25,1.25 m 9.5,-1 v -1 h -1 v 1 h 1 m 16,0 v -1 h -1 v 1 h 1 m 3.5,0 0.5,-1 h -1.5 l -0.5,1 h 1.5 m 6,0 0.5,-1 h -1.5 l -0.5,1 h 1.5 m -32.5,1 v -1 h -1 v 1 h 1 m -10,1 v -1 h -1 v 1 h 1 m 36.5,5 0.5,-1 h -1.5 l -0.5,1 h 1.5 m 3.5,0 v -1 h -1 v 1 h 1 m -44,4.5 22.5,-2.5 1,1 0.5,-0.5 0.25,-1.375 5.25,-0.125 0.5,-1 -20.5,2 -1,-1 -1,1 -6.5,0.5 -7.5,1.5 -0.5,1 7,-0.5 m 32,-3.5 v -1 h -1 v 1 h 1 m 45,3.5 1.5,-0.5 1,-1 1,1 h 1 l 1,-1 1,1 6.5,-0.75 2,0.25 10,-0.25 1.5,-0.25 0.5,-1 -36,-0.25 -1.5,0.25 -1,-1 -1,1 h -3 l -1,-1 -1,1 h -4 l -1,1 -1,-1 -1,1 -19,1 -0.5,1 h 7.5 l 1,1 1,-1 10,-1 1,1 1,-1 h 5 l 1,1 1,-1 8.5,0.75 3,-0.375 2,0.125 h 2 m -50.5,1.5 0.5,-1 h -1.5 l -0.5,1 h 1.5 m -30.5,2 v -1.5 l -1,-0.5 v 1 l 1,1 m 122,-20 v -1 h -1 v 1 h 1 m -0.5,14 0.5,-0.5 0.75,-8.25 -2.75,-0.75 h -3 l -3,1 -2.5,0.5 -0.5,0.5 1,1 -1,1 0.5,0.5 6.25,0.125 0.25,2.375 -2,2 0.5,0.5 1.5,-0.375 3.5,0.375 m -11.5,0 v -1 h -1 v 1 h 1 m 2,1 v -1 h -1 v 1 h 1"
       id="path599" />
  </g>
</g>
</svg>
