<?xml version="1.0" encoding="UTF-8" standalone="no"?>
<svg
   width="192.68372"
   height="258.22885"
   viewBox="-702 0 192.68372 258.22885"
   version="1.2"
   id="svg924"
   xmlns="http://www.w3.org/2000/svg"
   xmlns:svg="http://www.w3.org/2000/svg"><defs
   id="defs924" />
<title
   id="title1">Notebook 3</title>
\n<g
   id="g940"
   transform="matrix(1.0199999,0,0,0.94471247,-1043.7,-464.79853)">
  <g
     id="g928">
    <g
       id="g941"
       transform="matrix(1.2032205,0,0,0.99036666,-68.078852,4.7396017)">
      <g
         id="g30">
        <path
           fill="none"
           stroke="#000000"
           stroke-width="4"
           stroke-linecap="round"
           stroke-linejoin="round"
           d="m 418.745,517.352 1.966,-0.34 3.701,0.029 6.6,-1.813 -0.598,-0.316 -1.338,0.622 -1.241,-0.345 -2.351,0.236 -1.77,-0.702 -6.433,0.808 -8.422,0.414 -5.324,-0.329 -24.742,0.538 -4.518,0.269 -2.973,0.639 -5.747,0.47 -1.455,0.715 -0.81,-0.118 0.618,0.965 0.988,-0.611 0.851,-0.114 1.411,0.095 1.751,0.614 1.008,-0.318 3.955,-0.13 3.106,0.508 8.245,-1.21 7.354,-0.572 24.282,-4.008 7.808,-0.695 17.053,-2.214 5.135,-0.351 1.735,0.193 -7.131,1.16 -7.814,0.39 -11.678,1.207 -11.664,1.685 -17.678,0.827 -10.348,1.369 -4.892,1.121 -10.309,0.763 -3.495,0.7 -8.199,0.457 -1.162,-0.103 0.196,-0.38 2.127,-0.055 1.536,-0.497 4.395,-0.562 2.888,-1.319 5.64,-0.531 9.55,-2.232 10.987,-1.374 5.619,-1.615 14.599,-2.18 5.43,-1.685 5.102,-0.376 8.774,-1.741 6.939,-0.734 2.446,-0.594 2.725,0.173 1.2,-0.213 -3.559,0.441 -2.983,-0.332 -11.909,-0.156 -10.83,0.443 -4.447,0.705 -6.368,0.45 -4.102,-0.234 -4.38,1.102 -5.925,0.736 -3.557,0.033 -6.681,1.391 -2.858,-0.163 -6.084,1.435 -1.686,-0.139 -0.616,0.472 -1.017,0.202 1.971,0.053 1.322,-0.41 4.39,0.429 11.607,-0.859 8.836,-2.012 6.763,-0.373 2.432,-0.739 7.181,-1.287 4.494,-0.112 6.187,-1.475 4.071,-0.296 1.944,0.45 1.91,-0.023 1.754,-0.644 3.214,-0.516 4.44,-0.123 4.814,-1.057 0.498,0.288 0.577,-0.619 -5.611,0.185 -3.869,-0.436 -10.002,0.504 -29.895,2.948 -6.92,1.06 -8.488,0.276 -6.035,0.592 -7.563,1.034 -3.374,1.013 -4.327,0.031 -3.266,0.908 -2.155,-0.126 -0.002,0.241 1.541,-0.592 0.973,0.338 10.713,-1.186 4.063,-0.836 17.419,-2.155 14.866,-1.244 11.985,-0.04 2.13,-0.74 2.211,-0.265 4.293,0.385 3.982,-0.129 4.008,-0.588 8.65,0.121 2.719,-0.943 3.177,0.167 1.424,-0.578 0.117,0.291 -0.762,0.259 -1.006,-0.199 -1.308,0.25 -6.286,-0.036 -34.168,2.48 -21.394,0.804 -21.902,2.311 -10.88,2.297 -6.232,1.96 0.07,0.518 0.572,-0.275 2.811,0.895 8.536,1.367 12.823,0.274 13.546,-0.498 5.495,0.391 13.627,-0.548 5.725,0.425 2.735,-0.488 7.776,-0.568 4.84,0.305 10.582,-1.345 3.468,0.44 1.496,-0.582 6.51,-1.018 -3.007,-0.01 -9.201,-1.624 -10.306,-0.516 -23.647,-0.094 -22.724,0.757 -7.069,0.535 -12.928,1.548 -8.239,1.625 -5.21,1.711 -0.811,0.425 -0.156,0.652 0.444,0.128 10.88,1.551 8.612,-0.105 8.257,-0.526 9.265,-0.666 6.264,-0.857 15.522,-1.053 6.291,-1.022 12.018,-0.306 5.781,-1.221 13.391,-0.679 2.502,-1.094 2.388,-0.54 2.175,0.43 2.158,-0.086 3.491,-0.244 2.679,-0.836 4.043,0.087 0.54,-0.506 0.118,0.282 -0.537,0.111 -3.893,-0.253 -1.617,-0.499 -9.407,-0.051 -45.614,2.758 -22.918,2.412 -4.195,1.092 -5.051,0.836 -0.519,0.318 0.369,0.277 2.184,0.003 4.901,1.076 9.241,0.313 8.656,-0.887 7.062,-0.144 2.511,-0.611 5.415,-0.637 8.152,-0.449 12.94,-1.539 5.013,0.241 2.397,-0.721 7.185,-1.028 6.307,-0.237 7.119,-1.213 2.932,0.28 2.476,-0.848 2.232,-0.391 1.691,0.206 1.459,-0.574 -0.416,0.376 -9.82,-0.551 -10.348,0.932 -5.313,0.096 -11.629,1.143 -6.035,-0.103 -14.572,1.374 -5.565,0.164 -11.46,1.613 -5.3,0.076 -23.218,3.679 -1.17,0.795 0.789,0.359 8.853,0.635 8.941,-0.272 12.396,-1.221 27.486,-3.694 5.286,-1.405 2.645,0.213 2.682,-0.195 5.192,-0.585 4.909,-1.102 10.327,-0.706 2.898,-0.933 1.252,0.243 2.799,-0.13 1.061,-0.674 0.324,0.299 -0.599,0.247 -0.976,-0.152 -1.999,0.439 -11.87,0.663 -8.912,1.124 -4.994,0.974 -9.517,0.494 -4.409,0.859 -5.818,0.086 -6.75,1.216 -6.145,0.076 -2.456,0.855 -3.156,-0.007 -1.107,0.16 -0.485,0.4 7.695,-0.291 50.507,-6.247 7.718,-0.507 1.494,0.35 -0.029,0.466 -0.481,0.215 -0.428,-0.297"
           id="path30" />
      </g>
      <g
         id="g682">
        <path
           fill="#201c1c"
           fill-rule="evenodd"
           opacity="0.500008"
           d="m 473,731 h -1 v -1 h 1 v 1"
           id="path682" />
      </g>
      <g
         id="g683">
        <path
           fill="#201c1c"
           fill-rule="evenodd"
           opacity="0.500008"
           d="m 391,745 h -1 v -1 h 1 v 1"
           id="path683" />
      </g>
      <g
         id="g684">
        <path
           fill="#201c1c"
           fill-rule="evenodd"
           opacity="0.500008"
           d="m 472,744 -16,0.75 -24,5.75 -4.5,0.5 -1,1 -1,-1 -1,1 -14.5,0.25 -1.5,-0.25 -2,2 h -9.5 -2 l 0.25,-0.875 5.75,-0.875 22.5,-6.25 1,-1 1,1 1,-1 46.5,-3 v 1 h -0.5 l -0.5,0.5 v 0.5"
           id="path684" />
      </g>
      <g
         id="g685">
        <path
           fill="#201c1c"
           fill-rule="evenodd"
           opacity="0.500008"
           d="m 419,741 h -1 v -1 h 1 v 1"
           id="path685" />
      </g>
      <g
         id="g686">
        <path
           fill="#201c1c"
           fill-rule="evenodd"
           opacity="0.500008"
           d="m 414,740 1,0.5 -1,0.5 v -1"
           id="path686" />
      </g>
      <g
         id="g687">
        <path
           fill="#000000"
           fill-rule="evenodd"
           d="m 414,741 h -0.5 l -0.5,-0.5 1,-0.5 v 1"
           id="path687" />
      </g>
      <g
         id="g688">
        <path
           fill="#201c1c"
           fill-rule="evenodd"
           opacity="0.500008"
           d="m 429,740 h -1 v -1 h 1 v 1"
           id="path688" />
      </g>
      <g
         id="g689">
        <path
           fill="#201c1c"
           fill-rule="evenodd"
           opacity="0.500008"
           d="m 422,740 h -1 v -1 h 1 v 1"
           id="path689" />
      </g>
      <g
         id="g690">
        <path
           fill="#201c1c"
           fill-rule="evenodd"
           opacity="0.500008"
           d="m 417,740 h -1 v -1 h 1 v 1"
           id="path690" />
      </g>
      <g
         id="g691">
        <path
           fill="#201c1c"
           fill-rule="evenodd"
           opacity="0.500008"
           d="m 429,736 h -1 v -1 h 1 v 1"
           id="path691" />
      </g>
      <g
         id="g692">
        <path
           fill="#201c1c"
           fill-rule="evenodd"
           opacity="0.500008"
           d="m 423,736 h -1 v -1 h 1 v 1"
           id="path692" />
      </g>
      <g
         id="g693">
        <path
           fill="#201c1c"
           fill-rule="evenodd"
           opacity="0.500008"
           d="m 458,714 h -1 v -1 h 1 v 1"
           id="path693" />
      </g>
      <g
         id="g694">
        <path
           fill="#201c1c"
           fill-rule="evenodd"
           opacity="0.500008"
           d="m 479,735.75 h -2 L 476.25,721 474.75,713.25 473.5,713 H 473 l 0.5,-1 h 1 l 1,-1 0.5,0.5 0.25,1.5 2,9 0.75,13.75"
           id="path694" />
      </g>
      <g
         id="g695">
        <path
           fill="#201c1c"
           fill-rule="evenodd"
           opacity="0.500008"
           d="M 455.5,710 H 453 l 0.5,-1 h 2.5 l -0.5,1"
           id="path695" />
      </g>
      <g
         id="g696">
        <path
           fill="#201c1c"
           fill-rule="evenodd"
           opacity="0.500008"
           d="m 462.5,713 -0.5,-1 3.5,-4 0.5,0.5 v 1 l 2,2 -0.5,0.5 h -4 l -1,1"
           id="path696" />
      </g>
      <g
         id="g697">
        <path
           fill="#201c1c"
           fill-rule="evenodd"
           opacity="0.500008"
           d="m 459,709 h -1 v -1 h 1 v 1"
           id="path697" />
      </g>
      <g
         id="g698">
        <path
           fill="#201c1c"
           fill-rule="evenodd"
           opacity="0.500008"
           d="m 460,708 h -1 v -1 h 1 v 1"
           id="path698" />
      </g>
      <g
         id="g699">
        <path
           fill="#201c1c"
           fill-rule="evenodd"
           opacity="0.500008"
           d="m 471.5,709 -1,-1.5 -0.25,-2.25 1.5,-0.5 0.25,-1.25 -0.5,-0.5 -1,1 -0.5,-0.5 -0.25,-2.25 L 468.5,701 H 468 l 0.5,-1 1.25,-0.25 0.25,-3.25 2,-2 v -1 l 0.5,-0.5 1.5,1.5 v 3 l 1,1 -1,1 1,1 v 5 l -3.5,3.5"
           id="path699" />
      </g>
      <g
         id="g700">
        <path
           fill="#201c1c"
           fill-rule="evenodd"
           opacity="0.500008"
           d="m 468,687 -0.25,3.75 -4.25,2.25 -1.5,-1.5 V 687 h 6"
           id="path700" />
      </g>
      <g
         id="g701">
        <path
           fill="#201c1c"
           fill-rule="evenodd"
           opacity="0.500008"
           d="m 472,670 h -1 v -1 h 1 v 1"
           id="path701" />
      </g>
      <g
         id="g702">
        <path
           fill="#201c1c"
           fill-rule="evenodd"
           opacity="0.500008"
           d="m 467,678 h -0.5 l -2,-2 -1.375,-0.25 0.875,-8.75 1,0.5 0.25,1.25 2.25,0.25 2,-2 0.5,0.5 0.875,8.25 L 469,677 h -1.5 l -0.5,0.5 v 0.5"
           id="path702" />
      </g>
      <g
         id="g703">
        <path
           fill="#201c1c"
           fill-rule="evenodd"
           opacity="0.500008"
           d="m 406,727 h -1 v -1 h 1 v 1"
           id="path703" />
      </g>
      <g
         id="g704">
        <path
           fill="#201c1c"
           fill-rule="evenodd"
           opacity="0.500008"
           d="M 407.5,726 H 406 l 0.5,-1 h 1.5 l -0.5,1"
           id="path704" />
      </g>
      <g
         id="g705">
        <path
           fill="#201c1c"
           fill-rule="evenodd"
           opacity="0.500008"
           d="m 414,741 -0.5,1 -7.5,-1.125 v -9.625 l 5,-2.5 5,-1.5 1.5,-0.25 1,-1 1,1 5,-1 1,-1 1,1 3.5,-0.625 2,-0.875 7.75,-0.25 1.75,8.75 0.25,3.75 -6.75,1.875 -2.5,0.375 -0.5,-0.5 1,-1 v -1 l 1,-1 -1.5,-1.5 -16,1 -2.5,2.5 v 2.5 l -1,0.5 0.5,0.5 h 0.5"
           id="path705" />
      </g>
      <g
         id="g706">
        <path
           fill="#201c1c"
           fill-rule="evenodd"
           opacity="0.500008"
           d="M 409.5,725 H 408 l 0.5,-1 h 1.5 l -0.5,1"
           id="path706" />
      </g>
      <g
         id="g707">
        <path
           fill="#201c1c"
           fill-rule="evenodd"
           opacity="0.500008"
           d="M 423.5,722 H 422 l 0.5,-1 h 1.5 l -0.5,1"
           id="path707" />
      </g>
      <g
         id="g708">
        <path
           fill="#201c1c"
           fill-rule="evenodd"
           opacity="0.500008"
           d="m 457,738.625 -8.5,-0.625 -0.5,-0.5 1,-1 v -3 l 1,-1 -1,-1 -1,-8 -1,-1 2.5,-2.5 2.5,-0.375 7,-1.875 4.5,-0.75 1,-1 1,1 1,-1 4.25,0.125 0.75,3.875 1.125,3 v 2 l -0.625,2.5 -2.5,2.5 h -3 l -1.5,-1.5 0.5,-0.5 4.25,-1.25 0.25,-2.25 -0.5,-0.5 -1,1 -1,-1 -1.5,0.5 h -2 l -1.5,-0.5 -2.5,2.5 v 1 l 1,1 -1,1 3,3 -1,1 v 1 l 1.5,1.5 6,-1 2,-2 1.5,1.5 -0.25,1.25 -15.75,2.875"
           id="path708" />
      </g>
      <g
         id="g709">
        <path
           fill="#201c1c"
           fill-rule="evenodd"
           opacity="0.500008"
           d="M 437.5,720 H 435 l 0.5,-1 h 2.5 l -0.5,1"
           id="path709" />
      </g>
      <g
         id="g710">
        <path
           fill="#201c1c"
           fill-rule="evenodd"
           opacity="0.500008"
           d="m 427.5,722 -2,-1 H 425 l 0.5,-1 1.5,-0.5 1.75,-0.25 0.25,1.25 -1.5,1.5"
           id="path710" />
      </g>
      <g
         id="g711">
        <path
           fill="#201c1c"
           fill-rule="evenodd"
           opacity="0.500008"
           d="m 411,719 h -1 v -1 h 1 v 1"
           id="path711" />
      </g>
      <g
         id="g712">
        <path
           fill="#201c1c"
           fill-rule="evenodd"
           opacity="0.500008"
           d="m 411,717 h -1 v -1 h 1 v 1"
           id="path712" />
      </g>
      <g
         id="g713">
        <path
           fill="#201c1c"
           fill-rule="evenodd"
           opacity="0.500008"
           d="m 398.5,725 -0.875,-1.5 -1.125,-4.5 -0.5,-3.5 -1,-1 0.5,-0.5 h 9.25 l 0.5,2 0.625,4.75 -1.875,0.75 -4.5,2.5 -1,1"
           id="path713" />
      </g>
      <g
         id="g714">
        <path
           fill="#201c1c"
           fill-rule="evenodd"
           opacity="0.500008"
           d="m 443,718.375 -5,0.625 0.5,-1 h 3 l 5,-5 1.5,1.5 -0.25,2.25 -4.75,1.625"
           id="path714" />
      </g>
      <g
         id="g715">
        <path
           fill="#201c1c"
           fill-rule="evenodd"
           opacity="0.500008"
           d="m 409,713 h -1 v -1 h 1 v 1"
           id="path715" />
      </g>
      <g
         id="g716">
        <path
           fill="#201c1c"
           fill-rule="evenodd"
           opacity="0.500008"
           d="m 448.75,712.75 h -1.5 v -1.5 h 1.5 v 1.5"
           id="path716" />
      </g>
      <g
         id="g717">
        <path
           fill="#201c1c"
           fill-rule="evenodd"
           opacity="0.500008"
           d="m 408,712 h -1 v -1 h 1 v 1"
           id="path717" />
      </g>
      <g
         id="g718">
        <path
           fill="#201c1c"
           fill-rule="evenodd"
           opacity="0.500008"
           d="m 417,718.625 -1.875,0.125 -0.875,-4.75 -0.625,-2 -0.625,-3.5 1.5,-1.5 1,1 h 1 l 2,-2 1,1 4,-2 2.5,2.5 -0.625,5.5 -0.625,2.75 -7.75,2.875"
           id="path718" />
      </g>
      <g
         id="g719">
        <path
           fill="#201c1c"
           fill-rule="evenodd"
           opacity="0.500008"
           d="M 406.75,709.75 396,709 l 0.5,-1 5.5,-0.75 4.5,-1.25 2,-2 0.5,0.5 -0.25,3.25 -1.5,0.5 -0.5,1.5"
           id="path719" />
      </g>
      <g
         id="g720">
        <path
           fill="#201c1c"
           fill-rule="evenodd"
           opacity="0.500008"
           d="m 410,704 h -1 v -1 h 1 v 1"
           id="path720" />
      </g>
      <g
         id="g721">
        <path
           fill="#201c1c"
           fill-rule="evenodd"
           opacity="0.500008"
           d="m 434.5,715 -2.375,-1.25 -0.875,-4.75 -0.625,-2 -0.375,-2.75 2.25,-0.25 2,-2 1,1 1,-1 h 2 l 1.5,1.5 0.375,1.5 0.625,3.5 -1.5,1.5 -3,1 -1.5,1.5 v 2 l -0.5,0.5"
           id="path721" />
      </g>
      <g
         id="g722">
        <path
           fill="#201c1c"
           fill-rule="evenodd"
           opacity="0.500008"
           d="m 459.5,705 -4.5,-0.5 -2.75,0.25 -0.25,-3.25 1.5,-1.5 h 4 l 1.5,1.5 1,3 -0.5,0.5"
           id="path722" />
      </g>
      <g
         id="g723">
        <path
           fill="#201c1c"
           fill-rule="evenodd"
           opacity="0.500008"
           d="m 427,702 -1,-1 v -1 l 1,0.5 v 1.5"
           id="path723" />
      </g>
      <g
         id="g724">
        <path
           fill="#201c1c"
           fill-rule="evenodd"
           opacity="0.500008"
           d="m 402,701 h -1 v -1 h 1 v 1"
           id="path724" />
      </g>
      <g
         id="g725">
        <path
           fill="#201c1c"
           fill-rule="evenodd"
           opacity="0.500008"
           d="m 446.5,706 -1.25,-0.25 -1.625,-3.75 -0.625,-2.5 1.5,-1.5 1.5,1.5 -1,1 1,4 1,1 -0.5,0.5"
           id="path725" />
      </g>
      <g
         id="g726">
        <path
           fill="#201c1c"
           fill-rule="evenodd"
           opacity="0.500008"
           d="m 402,698 h -1 v -1 h 1 v 1"
           id="path726" />
      </g>
      <g
         id="g727">
        <path
           fill="#201c1c"
           fill-rule="evenodd"
           opacity="0.500008"
           d="m 401,696 h -1 v -1 h 1 v 1"
           id="path727" />
      </g>
      <g
         id="g728">
        <path
           fill="#201c1c"
           fill-rule="evenodd"
           opacity="0.500008"
           d="m 435,695 h -1 v -1 h 1 v 1"
           id="path728" />
      </g>
      <g
         id="g729">
        <path
           fill="#201c1c"
           fill-rule="evenodd"
           opacity="0.500008"
           d="m 442,694 h -1 v -1 h 1 v 1"
           id="path729" />
      </g>
      <g
         id="g730">
        <path
           fill="#201c1c"
           fill-rule="evenodd"
           opacity="0.500008"
           d="m 428,699 -1,-0.5 V 692 l 1,0.5 v 6.5"
           id="path730" />
      </g>
      <g
         id="g731">
        <path
           fill="#201c1c"
           fill-rule="evenodd"
           opacity="0.500008"
           d="m 404.5,702 -1,-2.5 0.5,-2 -1,-1 1,-1 -1.5,-1.5 -1,1 -1,-1 -3,1 -2,2 -2.25,-0.25 -0.25,-2.25 -1,-1 1,-1 -1,-1 0.25,-1.25 11.75,-2 h 3 l -0.75,8.75 -1.25,4.5 -0.5,0.5"
           id="path731" />
      </g>
      <g
         id="g732">
        <path
           fill="#201c1c"
           fill-rule="evenodd"
           opacity="0.500008"
           d="m 432.5,695 -0.5,-0.5 v -5 l 1.5,-1.5 h 2 l 1,1 1,-1 4,-1 0.5,0.5 -1.5,1.5 -1.5,0.5 -4.75,2.75 -0.25,1.25 -1.5,1.5"
           id="path732" />
      </g>
      <g
         id="g733">
        <path
           fill="#201c1c"
           fill-rule="evenodd"
           opacity="0.500008"
           d="m 418,699.5 -2.75,0.25 -1.875,-5.75 0.625,-2.5 1,-2 1.5,-1.5 h 2 l 1,-1 1.5,1.5 2,7 -1,1 1,1 -0.5,0.5 -1.5,0.375 -3,1.125"
           id="path733" />
      </g>
      <g
         id="g734">
        <path
           fill="#201c1c"
           fill-rule="evenodd"
           opacity="0.500008"
           d="m 456,688 v 5.5 l -1.5,1.5 -2.5,0.5 -2.75,0.25 -0.25,-3.25 -1,-1 1,-1 -0.375,-1.5 -0.375,-2.75 2.75,-0.75 3,-0.5 v 1.5 l 1.5,1.5 h 0.5"
           id="path734" />
      </g>
      <g
         id="g735">
        <path
           fill="#201c1c"
           fill-rule="evenodd"
           opacity="0.500008"
           d="m 425,684 h -1 v -1 h 1 v 1"
           id="path735" />
      </g>
      <g
         id="g736">
        <path
           fill="#201c1c"
           fill-rule="evenodd"
           opacity="0.500008"
           d="m 439.5,684 h -1 l -0.5,-0.5 2,-2 V 680 l 1,0.5 v 2 l -1.5,1.5"
           id="path736" />
      </g>
      <g
         id="g737">
        <path
           fill="#201c1c"
           fill-rule="evenodd"
           opacity="0.500008"
           d="m 408.5,684 h -1 l -0.5,-0.5 1,-1 V 680 l 1,0.5 v 1 l 1,1 -1.5,1.5"
           id="path737" />
      </g>
      <g
         id="g738">
        <path
           fill="#201c1c"
           fill-rule="evenodd"
           opacity="0.500008"
           d="m 398,680 h -1 v -1 h 1 v 1"
           id="path738" />
      </g>
      <g
         id="g739">
        <path
           fill="#201c1c"
           fill-rule="evenodd"
           opacity="0.500008"
           d="m 409,679 h -1 v -1 h 1 v 1"
           id="path739" />
      </g>
      <g
         id="g740">
        <path
           fill="#201c1c"
           fill-rule="evenodd"
           opacity="0.500008"
           d="m 414,677 h -1 v -1 h 1 v 1"
           id="path740" />
      </g>
      <g
         id="g741">
        <path
           fill="#201c1c"
           fill-rule="evenodd"
           opacity="0.500008"
           d="M 394.5,676 H 393 l 0.5,-1 h 1.5 l -0.5,1"
           id="path741" />
      </g>
      <g
         id="g742">
        <path
           fill="#201c1c"
           fill-rule="evenodd"
           opacity="0.500008"
           d="m 431.5,682 -1.875,-2.5 -1.125,-3.5 -0.5,-2.5 0.5,-0.5 1,1 h 2 l 2,2 h 1 l 1.5,1.5 v 1 l -2.5,2.5 h -1 l -1,1"
           id="path742" />
      </g>
      <g
         id="g743">
        <path
           fill="#201c1c"
           fill-rule="evenodd"
           opacity="0.500008"
           d="M 398,684.5 393.5,684 H 393 l 0.5,-1 h 5 l 1.5,-1.5 v -1 l -1,-1 0.5,-0.5 h 1 l 0.5,-0.5 -1,-1 0.5,-0.5 h 1 l 1.5,-1.5 -1,-1 1.5,-1.5 0.5,0.5 v 3 l -1,1 1,1 -1.25,3.25 -4.75,2.75"
           id="path743" />
      </g>
      <g
         id="g744">
        <path
           fill="#201c1c"
           fill-rule="evenodd"
           opacity="0.500008"
           d="m 448,679 v -1.5 l -2,-2 1,-1 v -1 l 1.5,-1.5 9,-1 1.5,1.5 -1,1 -0.25,3.25 -1.75,0.625 -3,0.625 h -2.5 l -1,1 H 448"
           id="path744" />
      </g>
      <g
         id="g745">
        <path
           fill="#201c1c"
           fill-rule="evenodd"
           opacity="0.500008"
           d="m 418,681.5 -2.75,0.25 -0.25,-2.25 -1,-1 0.5,-0.5 3,-1 1.5,-1.5 -1.5,-1.5 h -2 l -1,1 -0.5,-0.5 0.25,-1.25 1.75,-0.5 5,-0.625 v 8.625 l -3,0.75"
           id="path745" />
      </g>
      <g
         id="g746">
        <path
           fill="#201c1c"
           fill-rule="evenodd"
           opacity="0.500008"
           d="m 441.5,676 -0.875,-1.5 -0.375,-3.25 h 1.5 l 0.25,2.25 1,1 -1.5,1.5"
           id="path746" />
      </g>
      <g
         id="g747">
        <path
           fill="#201c1c"
           fill-rule="evenodd"
           opacity="0.500008"
           d="m 408,671 h -1 v -1 h 1 v 1"
           id="path747" />
      </g>
      <g
         id="g748">
        <path
           fill="#201c1c"
           fill-rule="evenodd"
           opacity="0.500008"
           d="m 440,670 h -1 v -1 h 1 v 1"
           id="path748" />
      </g>
      <g
         id="g749">
        <path
           fill="#000000"
           fill-rule="evenodd"
           d="m 391,664 h -1 v -1 h 1 v 1"
           id="path749" />
      </g>
      <g
         id="g750">
        <path
           fill="#201c1c"
           fill-rule="evenodd"
           opacity="0.500008"
           d="m 468.75,658.75 -1.25,0.25 -0.5,-0.5 1.5,-1.5 0.5,0.5 -0.25,1.25"
           id="path750" />
      </g>
      <g
         id="g751">
        <path
           fill="#201c1c"
           fill-rule="evenodd"
           opacity="0.500008"
           d="M 425.875,665.75 H 424.25 L 424.625,663 425,661.5 V 661 l 1,0.5 -0.125,4.25"
           id="path751" />
      </g>
      <g
         id="g752">
        <path
           fill="#201c1c"
           fill-rule="evenodd"
           opacity="0.500008"
           d="m 418,664.25 -7.75,0.625 v -2.625 l 3.75,-0.75 5.75,-0.375 v 2.625 l -1.75,0.5"
           id="path752" />
      </g>
      <g
         id="g753">
        <path
           fill="#201c1c"
           fill-rule="evenodd"
           opacity="0.500008"
           d="m 426,659 h -1 v -1 h 1 v 1"
           id="path753" />
      </g>
      <g
         id="g754">
        <path
           fill="#201c1c"
           fill-rule="evenodd"
           opacity="0.500008"
           d="m 460.5,665 -13.375,-0.25 v -4.5 L 448.5,660 450,658.5 449.75,656.25 448.5,656 H 448 l 0.5,-1 7.25,0.125 0.25,1.375 1.5,1.5 1.5,-0.5 1.875,-0.25 0.125,7.25 -0.5,0.5"
           id="path754" />
      </g>
      <g
         id="g755">
        <path
           fill="#201c1c"
           fill-rule="evenodd"
           opacity="0.500008"
           d="m 432,665.75 h -1.875 L 430,659.5 l -1,-1 1,-1 0.25,-2.375 4.25,-0.125 1,1 1,-1 1.25,0.25 0.25,1.25 -1,1 0.5,0.5 h 1 l 1.5,1.5 -0.125,4.25 -7.875,2"
           id="path755" />
      </g>
      <g
         id="g756">
        <path
           fill="#201c1c"
           fill-rule="evenodd"
           opacity="0.500008"
           d="m 425,658 -1,-0.5 V 655 l 1,0.5 v 2.5"
           id="path756" />
      </g>
      <g
         id="g757">
        <path
           fill="#201c1c"
           fill-rule="evenodd"
           opacity="0.500008"
           d="m 415.5,657 -4,-1 H 411 l 0.5,-1 8.25,-0.875 v 1.625 l -3.25,0.25 -1,1"
           id="path757" />
      </g>
      <g
         id="g758">
        <path
           fill="#201c1c"
           fill-rule="evenodd"
           opacity="0.500008"
           d="m 412,581 v -0.5 l 0.5,-0.5 h 1.5 v 0.5 l -0.5,0.5 H 412"
           id="path758" />
      </g>
      <g
         id="g759">
        <path
           fill="#201c1c"
           fill-rule="evenodd"
           opacity="0.500008"
           d="m 414,580 v -0.5 l 1.5,-1.5 3.5,-1 -1.5,2 -3.5,1"
           id="path759" />
      </g>
      <g
         id="g760">
        <path
           fill="#201c1c"
           fill-rule="evenodd"
           opacity="0.500008"
           d="m 421,575 v -0.5 l 0.5,-0.5 h 0.5 v 0.5 l -0.5,0.5 H 421"
           id="path760" />
      </g>
      <g
         id="g761">
        <path
           fill="#000000"
           fill-rule="evenodd"
           d="m 393,516 v -1 h 1 v 1 h -1"
           id="path761" />
      </g>
      <g
         id="g762">
        <path
           fill="#000000"
           fill-rule="evenodd"
           d="m 452,507 h 0.5 l 0.5,0.5 v 1.5 h -0.5 L 452,508.5 V 507"
           id="path762" />
      </g>
      <g
         id="g779">
        <path
           fill="#201c1c"
           fill-rule="evenodd"
           opacity="0.500008"
           d="m 386,744 2.75,0.25 0.25,1.25 -0.5,0.5 -1,-1 H 386 v -1"
           id="path779" />
      </g>
      <g
         id="g780">
        <path
           fill="#201c1c"
           fill-rule="evenodd"
           opacity="0.500008"
           d="m 381,734 14,-3.5 4.5,-0.5 1.5,1.5 -1.5,1.5 -1.25,0.25 -0.75,1.75 -0.25,1.75 1.25,0.25 1.5,1.5 0.625,3.5 0.75,2 0.375,2.75 -2.75,0.875 -2,-0.125 -1.75,-0.75 -0.25,-3.25 2,-2 -1.5,-1.5 -2.25,0.25 -0.25,1.25 -0.5,0.5 -4,-4 h -5 l -1,-1 -1.5,1 v -4"
           id="path780" />
      </g>
      <g
         id="g781">
        <path
           fill="#201c1c"
           fill-rule="evenodd"
           opacity="0.500008"
           d="m 384,727 h 0.5 l 0.5,-0.5 V 726 l 1.5,-1 2.5,-1 1,0.5 -2.5,2.5 -3.5,1 v -1"
           id="path781" />
      </g>
      <g
         id="g782">
        <path
           fill="#201c1c"
           fill-rule="evenodd"
           opacity="0.500008"
           d="m 386,716 2,1.5 1,5.5 -0.75,-0.25 L 386.625,719 386,716"
           id="path782" />
      </g>
      <g
         id="g783">
        <path
           fill="#201c1c"
           fill-rule="evenodd"
           opacity="0.500008"
           d="m 389.5,712 -3,-1 -0.5,-0.5 2.5,-2.5 2.25,0.25 0.25,2.25 -1.5,1.5"
           id="path783" />
      </g>
      <g
         id="g784">
        <path
           fill="#000000"
           fill-rule="evenodd"
           d="m 377,701 h -1 v -1 h 1 v 1"
           id="path784" />
      </g>
      <g
         id="g785">
        <path
           fill="#201c1c"
           fill-rule="evenodd"
           opacity="0.500008"
           d="m 378,703 2,-1.5 -0.75,-5.25 2.75,-0.75 2.75,-0.25 1.25,3.25 2,2 v 2 l 1,1 -0.5,0.5 -5.5,1.625 -2,0.875 -1.75,0.25 L 378,704 v -1"
           id="path785" />
      </g>
      <g
         id="g786">
        <path
           fill="#201c1c"
           fill-rule="evenodd"
           opacity="0.500008"
           d="m 388,692 h -1 v -1 h 1 v 1"
           id="path786" />
      </g>
      <g
         id="g787">
        <path
           fill="#201c1c"
           fill-rule="evenodd"
           opacity="0.500008"
           d="m 375,691 h -1 v -1 h 1 v 1"
           id="path787" />
      </g>
      <g
         id="g788">
        <path
           fill="#201c1c"
           fill-rule="evenodd"
           opacity="0.500008"
           d="m 356,689 h -0.5 L 355,688.5 V 683 h 0.5 l 0.5,0.5 v 5.5"
           id="path788" />
      </g>
      <g
         id="g789">
        <path
           fill="#201c1c"
           fill-rule="evenodd"
           opacity="0.500008"
           d="m 369.5,689 -1.5,-1.5 v -8 l 1.5,-1.5 h 1 l 0.5,0.5 -2,2 v 1 l 4.5,4.5 h 1 l 0.5,0.5 -1.5,1.5 -1,-1 h -1 l -2,2"
           id="path789" />
      </g>
      <g
         id="g790">
        <path
           fill="#201c1c"
           fill-rule="evenodd"
           opacity="0.500008"
           d="m 382.75,689.875 h -4.5 v -1.625 l 1.25,-0.25 1.5,-1.5 -0.25,-1.25 -3.25,-1.25 -2.5,-2.5 3,-3 0.25,-1.25 2.25,-0.25 3,3 1.375,0.25 -0.625,5.75 -1.5,3.875"
           id="path790" />
      </g>
      <g
         id="g791">
        <path
           fill="#201c1c"
           fill-rule="evenodd"
           opacity="0.500008"
           d="m 383,673 h -1 v -1 h 1 v 1"
           id="path791" />
      </g>
      <g
         id="g792">
        <path
           fill="#201c1c"
           fill-rule="evenodd"
           opacity="0.500008"
           d="m 369,672 h -1 v -1 h 1 v 1"
           id="path792" />
      </g>
      <g
         id="g793">
        <path
           fill="#201c1c"
           fill-rule="evenodd"
           opacity="0.500008"
           d="m 384,670 h -1 v -1 h 1 v 1"
           id="path793" />
      </g>
      <g
         id="g794">
        <path
           fill="#201c1c"
           fill-rule="evenodd"
           opacity="0.500008"
           d="m 385,667 h -1 v -1 h 1 v 1"
           id="path794" />
      </g>
      <g
         id="g795">
        <path
           fill="#000000"
           fill-rule="evenodd"
           d="m 372,668 -1,-0.5 -1.75,-0.75 -0.25,-1.25 2.5,-2.5 h 1 l 1,1 1.5,-1 1.75,0.25 0.25,1.25 1,1 -1,1 -0.25,1.375 L 372,668"
           id="path795" />
      </g>
      <g
         id="g796">
        <path
           fill="#201c1c"
           fill-rule="evenodd"
           opacity="0.500008"
           d="m 375,663 v -0.5 l 1.5,-1.5 h 0.5 l 1,1.5 0.25,1.25 1.5,0.5 -0.375,2.75 -0.625,1.75 -1.25,0.25 -1,1 -1,-1 -1,1 -3,1 -1,-1 -1,1 -0.5,-1 0.25,-0.75 2.75,-1.25 4.75,-0.125 0.25,-1.375 1,-1 -1,-1 -0.25,-1.25 L 375,663"
           id="path796" />
      </g>
      <g
         id="g797">
        <path
           fill="#201c1c"
           fill-rule="evenodd"
           opacity="0.500008"
           d="m 399,669.625 -1.5,0.375 -1,-1 -1,1 -4.25,-1.25 -0.5,-1.5 -1.5,-0.5 -0.25,-1.25 -1,-1 2,-2 -0.25,-2.25 -2.75,-0.25 0.5,-1 6.5,-1.5 3.75,-0.25 0.5,2.5 3.5,1.5 0.875,2.75 v 2 l -0.875,2.75 -2.75,0.875 M 391,664 v -1 h -1 v 1 h 1"
           id="path797" />
      </g>
      <g
         id="g798">
        <path
           fill="#201c1c"
           fill-rule="evenodd"
           opacity="0.500008"
           d="m 378,660 v -0.5 l 0.5,-0.5 h 0.5 v 0.5 l -0.5,0.5 H 378"
           id="path798" />
      </g>
      <g
         id="g799">
        <path
           fill="#201c1c"
           fill-rule="evenodd"
           opacity="0.500008"
           d="m 387,570 h 1.5 l 2,2 3,1 2,2 h 2 l 2,2 4,1 1.5,2 -8.5,-1 -2,-2 -3,-1 -2.5,-2.5 v -1 l -2,-2.5"
           id="path799" />
      </g>
      <g
         id="g800">
        <path
           fill="#201c1c"
           fill-rule="evenodd"
           opacity="0.500008"
           d="m 386,568 h 0.5 l 0.5,0.5 v 0.5 h -0.5 L 386,568.5 V 568"
           id="path800" />
      </g>
      <g
         id="g801">
        <path
           fill="#201c1c"
           fill-rule="evenodd"
           opacity="0.500008"
           d="m 380,555 1.5,-1 1,1 h 4 l 1,-1 1,1 37.5,-5.5 8.5,-0.5 2,-2 2.5,-0.625 1.75,-0.125 0.25,1.25 -2.5,2.5 -1.25,0.25 -0.5,1.5 -5.5,3.5 -0.5,1.5 -1.5,0.5 0.25,1.75 0.5,1.5 -1.5,1.5 -2.5,0.625 -5,2.875 -1.75,0.75 -0.25,1.25 -1.5,1.5 h -1 l -2.5,2.5 v 1 l -0.5,0.5 -1,-1 -3.5,0.5 h -3 l -3,-1 -2.5,-0.5 -2,-2 -1.5,-0.375 -5,-2.125 -8,-5 -2,-1 -2,-0.5 v -5"
           id="path801" />
      </g>
      <g
         id="g802">
        <path
           fill="#000000"
           fill-rule="evenodd"
           d="m 441,539 h 5.5 l 1,1 1,-1 9,-1 1.5,1.5 -0.25,2.25 -2.25,0.25 -1.5,1.5 1,24 -1,1 1,1 -1,1 v 15 l -1,1 2,2 -0.5,3.5 0.125,7 -0.625,4.5 -1.5,1.5 -1,-1 -1.5,-0.5 -2,-0.125 -3,1 h -7 l -3,-0.75 -5.5,-0.625 -1,-1 -1,1 -1,-1 -1,1 -6,-1 -2,2 -1,-1 -23,3 -1,1 -1,-1 -18,3 -1,1 -1.5,-1.5 -0.75,-11.5 -6.25,-31.5 -3,-3 v -3 l 1.5,-1.5 h 1.5 l -0.5,-1 -1.25,-0.25 -0.25,-3.25 2,-2 0.25,-3.25 3.5,-0.5 0.25,-1.25 1.5,-1.5 3.25,1.25 0.25,1.25 0.5,0.5 1,-1 1,1 5.5,-0.625 2,-0.375 h 7.5 l 1,-1 1,1 h 1 l 1,-1 1,1 1,-1 9,-1 1,1 1,-1 7.25,-0.125 0.5,-1.75 4.5,-0.25 0.25,-1.375 1.5,-1.5 15,-1 1,1 1,-1 h 1.5 m -61,16 -1,-1.5 -0.5,-0.5 -2,2 h -2 l -0.5,1 h 0.5 l 1.25,0.25 0.5,1.5 1.25,0.25 2,2 h 0.5 l 2,0.5 2,1 8,5 5,2.125 1.5,0.375 2,2 2.5,0.5 3,1 h 3 l 3.5,-0.5 1,1 0.5,-0.5 v -1 l 2.5,-2.5 h 1 l 1.5,-1.5 0.25,-1.25 1.75,-0.75 5,-2.875 2.5,-0.625 1.5,-1.5 -0.5,-1.5 -0.25,-1.75 1.5,-0.5 0.5,-1.5 5.5,-3.5 0.5,-1.5 1.25,-0.25 2.5,-2.5 -0.25,-1.25 -1.75,0.125 -2.5,0.625 -2,2 -8.5,0.5 -37.5,5.5 -1,-1 -1,1 h -4 l -1,-1 -1.5,1 m -2.5,49 0.5,-1 h -1.5 l -0.5,1 h 1.5 m 34.5,-23 -3.5,4 -3.375,-0.25 L 405,580 l -1.5,-2 -4,-1 -2,-2 h -2 l -2,-2 -3,-1 -2,-2 H 387 v -1 -0.5 l -0.5,-0.5 h -0.5 -1.5 l -2,-2 -2.5,-0.625 -8,-3.875 -1.75,-0.25 -0.25,3.25 1,1 -1,1 1,1 v 2 l 1,1 -1,1 1,1 1,6 2,2 0.5,4.5 1.125,4 0.875,2 0.5,1.5 1,1 -1,1 0.25,2.375 6.25,0.125 1,1 1,-1 1.5,0.375 3.5,0.625 1,-1 1,1 1,-1 2.5,-0.25 8,-1.5 2,-0.625 9,-0.125 6,-0.875 11.5,-0.625 1,-1 1,1 h 9 l 2,-2 h 3 l 0.5,-0.5 -1,-1 -1,-14 -1,-1 1,-1 -1.75,-11.5 -0.5,-1.75 -1.75,0.125 -2.5,0.625 -3,3 -3.5,1.25 -4.75,0.875 -0.5,1.625 -7.5,5.5 L 422,574 h -0.5 l -0.5,0.5 v 0.5 0.5 l -1.5,1.5 H 419 l -3.5,1 -1.5,1.5 v 0.5 h -1.5 l -0.5,0.5 v 0.5"
           id="path802" />
      </g>
      <g
         id="g803">
        <path
           fill="#201c1c"
           fill-rule="evenodd"
           opacity="0.500008"
           d="m 384,547 0.25,-0.75 4.75,-2.625 8,-3 6.5,-0.625 1,1 1,-1 7.5,-0.75 3,-0.875 5,-1.75 6,-1.25 h 3 l 6,1.25 3,1 2,1.375 h -1.5 l -1,1 -1,-1 -15,1 -1.5,1.5 -0.25,1.375 -4.5,0.25 -0.5,1.75 -7.25,0.125 -1,1 -1,-1 -9,1 -1,1 -1,-1 -1,1 h -1 l -1,-1 -1,1 H 384"
           id="path803" />
      </g>
      <g
         id="g804">
        <path
           fill="#000000"
           fill-rule="evenodd"
           d="m 379.5,507 2,-2 1.25,-0.25 0.25,-1.25 -0.5,-0.5 -1,1 h -3 l -0.5,0.5 1,1.5 0.5,1 m 9,-2 1.5,-1.5 -0.5,-0.5 -1.25,0.75 0.25,1.25 m -13,1 0.5,-1 h -1.5 l -0.5,1 h 1.5 m -3.5,2.5 1.75,-0.75 v -1.5 h -2.5 l -0.25,1.25 -1,1 0.5,0.5 1.5,-0.5 m 13,-1.5 v -1 h -1 v 1 h 1 m -29.5,1 0.5,-1 h -1.5 l -0.5,1 h 1.5 m 23.5,0 v -1 h -1 v 1 h 1 m 9,0 v -1 h -1 v 1 h 1 m -36,1.5 1.5,-0.5 0.5,-1 h -2.5 l -1.5,1.5 0.5,0.5 1.5,-0.5 m 12,0.5 v -1.5 l -1,-0.5 v 1 l 1,1 m 23,-1 v -1 h -1 v 1 h 1 m -17,1 v -1 h -1 v 1 h 1 m 19,0 v -1 h -1 v 1 h 1 m -39,1 v -1 h -1 v 1 h 1 m 19,0 v -1 h -1 v 1 h 1 m 3,0 v -1 h -1 v 1 h 1 m 11,0 v -1 h -1 v 1 h 1 m -34,1 v -1 h -1 v 1 h 1 m 13,1 v -1.5 l -1,-0.5 v 1 l 1,1 m 11,0 v -1.5 l -1,-0.5 v 1 l 1,1 m 9,-1 v -1 h -1 v 1 h 1 m 4,1 v -1.5 l -1,-0.5 v 1 l 1,1 m -15,0 v -1 h -1 v 1 h 1 m 13.75,7.75 0.25,-2.25 0.5,-0.5 1,1 0.5,-0.5 -0.25,-1.25 -1.25,-0.25 -1.5,-1.5 v -1 l 1,-1 -1.5,-1.5 -0.5,0.5 -0.25,2.25 -6.25,4.25 -0.5,1 h 0.5 l 8.25,0.75 m 3.75,-7.75 0.5,-1 h -1.5 l -0.5,1 h 1.5 m -25,2 1.5,-1.5 -0.5,-0.5 -1.25,0.75 0.25,1.25 m 17.5,-1 v -1 h -1 v 1 h 1 m -4,1 v -1 h -1 v 1 h 1 m 2,0 v -1 h -1 v 1 h 1 m -36,2 v -1.5 l -1,-0.5 v 1 l 1,1 m 8.5,1 1.5,-1.5 -1.5,-1.5 -1.5,1.5 0.25,1.25 1.25,0.25 m 5.5,-2 v -1 h -1 v 1 h 1 m 4,1 v -1.5 l -1,-0.5 v 1 l 1,1 m 19,-1 v -1 h -1 v 1 h 1 m -25,1 v -1 h -1 v 1 h 1 m 3.5,0 0.5,-1 h -1.5 l -0.5,1 h 1.5 m 8.5,0 v -1 h -1 v 1 h 1 m 4.5,2 0.5,-0.5 -1,-1 v -1 l -0.5,-0.5 -1.5,1.5 1.5,1.5 h 1 m -27.5,0 v -1.5 l -1,-0.5 v 1 l 1,1 m 10,-1 v -1 h -1 v 1 h 1 m 8,0 v -1 h -1 v 1 h 1 m -5,7.5 1.5,-0.5 0.5,-1 h -0.5 l -3.25,-1.25 -0.25,-2.25 1,-1 -1.5,-1.5 -0.5,0.5 v 3 l -2,2 1.5,1.5 3.5,0.5 m 4,-6.5 v -1 h -1 v 1 h 1 m -8,1 v -1 h -1 v 1 h 1 m 11,0 v -1 h -1 v 1 h 1 m -25,6 v -5.5 l -1,-0.5 v 5.5 l 1,0.5 m 31,-5 v -1 h -1 v 1 h 1 m -12,1 v -1 h -1 v 1 h 1 m 5,0 v -1 h -1 v 1 h 1 m -2,1 v -1 h -1 v 1 h 1 m -21,4 v -1 h -1 v 1 h 1 m 121.5,98 1.5,-1.5 0.625,-4.5 -0.25,-3 0.125,-2 0.375,-2 -1.875,-44.5 1,-1 -1,-1 -3,-32 1,-1 -1,-1 v -1 l 1,-1 -0.5,-0.5 h -1 l -0.5,-0.5 1,-1 -0.25,-1.25 -2.25,-0.25 -1,-1 -1,1 -1,-1 h -1 l -1,-1 -1,1 -3.5,0.625 -2,-0.125 -2,-0.875 -2.5,-0.625 -1,-1 -1,1 -23,2 -1,-1 -1,1 h -2 l -1,-1 -1,1 -1,-1 h -3 l -1,1 -1,-1 -1.5,0.375 -3.5,0.625 -1,-1 -1,1 -5.5,0.75 -6,-0.25 -3,0.75 -11.75,0.75 -0.5,1.75 -5.75,-0.25 -3,1 -2.5,0.5 -1.5,1.5 1,10 -2.5,2.5 h -1 l -1,-1 -0.5,0.5 6,42 1,1 -1,1 1,1 2,16 1.5,1.5 h 1 l 1.5,1.5 v 2 l 3,3 1,15.25 3.5,0.25 2,2 1,-1 h 2 l 1,-1 1,1 1,-1 h 1 l 1,-1 1,1 1,-1 1.5,-0.5 2,-0.25 6.75,0.875 0.25,1.375 0.5,0.5 1,-1 2.25,0.25 0.25,1.25 0.5,0.5 1,-1 1,1 1,-1 h 9 l 1,-1 1,1 1,-1 h 2 l 1,1 1,-1 31,-4 1,-1 1,1 2.5,-0.375 5,0.125 1.5,0.25 m -114.5,5 -1,-9.5 1,-1 -1,-1 -3.125,-27.5 -1.875,-46.5 -1,-1 1,-1 -1,-4 1,-1 -1,-1 -0.125,-6.25 H 338 v 9.25 l 1,1 -1,1 1,1 -1,1 0.875,5.5 1.125,36.5 -1,1 1,1 2,18 1,1 -1,1 1,1 2.75,20 1.25,1.5 m 4,-73 v -1 h -1 v 1 h 1 m 0,3 v -1 h -1 v 1 h 1 m 1,4 v -1.5 l -1,-0.5 v 1 l 1,1 m 1,6 v -2.5 l -1,-0.5 v 2.5 l 1,0.5 m 9,37 v -1 h -1 v 1 h 1 m 1,6 v -1.5 l -1,-0.5 v 1 l 1,1 m 3,-1 v -1 h -1 v 1 h 1 m -2,5 v -1 h -1 v 1 h 1 m 5,5 v -1 h -1 v 1 h 1 m -3.5,7 0.5,-0.5 -0.25,-1.25 -1.25,-0.25 -0.5,0.5 1.5,1.5 m 2.5,3 v -1 h -1 v 1 h 1 m 21,0 v -1 h -1 v 1 h 1 m -41,1 v -1 h -1 v 1 h 1 m 22,3 -0.25,-2.75 -1.25,-0.25 -0.5,0.5 1,1.5 1,1 m 19,-1 v -1.5 l -1,-0.5 v 1 l 1,1 m -43,10 v -1 h -1 v 1 h 1 m 16,7 v -1 h -1 v 1 h 1 m 26,3 v -1 h -1 v 1 h 1 m 11,14.625 2.75,-0.875 0.875,-2.75 v -2 l -0.875,-2.75 -3.5,-1.5 -0.5,-2.5 -3.75,0.25 -6.5,1.5 -0.5,1 2.75,0.25 0.25,2.25 -2,2 1,1 0.25,1.25 1.5,0.5 0.5,1.5 4.25,1.25 1,-1 1,1 1.5,-0.375 M 364,661 v -1 h -1 v 1 h 1 m 13,0 v -0.5 l 0.5,-0.5 h 0.5 0.5 l 0.5,-0.5 V 659 l 0.75,-1.875 -6.25,-0.125 -2,2 -1,-1 -4.375,0.125 1.125,11.625 1.75,0.25 0.5,1 1,-1 1,1 3,-1 1,-1 1,1 1,-1 1.25,-0.25 0.625,-1.75 0.375,-2.75 -1.5,-0.5 -0.25,-1.25 -1,-1.5 m -15,2 v -1 h -1 v 1 h 1 m 1.5,1 0.5,-1 h -1.5 l -0.5,1 h 1.5 m -0.5,5 v -3.5 l -1,-0.5 v 3.5 l 1,0.5 m 22,-2 v -1 h -1 v 1 h 1 m -1,3 v -1 h -1 v 1 h 1 m -20,2 v -1 h -1 v 1 h 1 m 5,0 v -1 h -1 v 1 h 1 m 14,1 v -1 h -1 v 1 h 1 m -0.25,16.875 1.5,-3.875 0.625,-5.75 -1.375,-0.25 -3,-3 -2.25,0.25 -0.25,1.25 -3,3 2.5,2.5 3.25,1.25 0.25,1.25 -1.5,1.5 -1.25,0.25 v 1.625 h 4.5 M 369.5,689 l 2,-2 h 1 l 1,1 1.5,-1.5 -0.5,-0.5 h -1 l -4.5,-4.5 v -1 l 2,-2 -0.5,-0.5 h -1 l -1.5,1.5 v 8 l 1.5,1.5 m -14.5,-6 -1,-13.5 -1,-1 1,-1 -0.5,-0.5 -2.25,-0.25 -1.75,-4.75 -0.875,-4 -0.625,-7.5 -0.5,-0.5 -1,1 -1.25,-0.25 -0.5,-1.75 -0.75,-5.5 1,-1 -1,-1 -1,-8 -1,-1 1,-1 -2,-2 -4,-30 -1,-1 1,-1 -1,-1 v -7 l -1,-1 1,-1 -1,-1 v -73 l 1.5,-1.5 1.5,-0.375 3.5,-0.625 1,1 2.5,-2.5 0.5,-1.5 v -2 l -0.5,-1.5 1.5,-1.5 10.5,-2.5 7,0.25 23.5,-4.75 1,1 1,-1 13,-2 1,1 1,-1 1,1 1,-1 h 17 l 1,-1 1,1 h 11 l 1,1 1,-1 3.5,-0.625 1.5,-0.375 1,1 1,-1 1.5,0.5 2,1 2,0.125 3.5,-0.625 1,-1 1,1 1,-1 h 3 l 1,-1 5.5,5.5 0.5,1.5 2,4 0.75,2 1,5 1.75,16.5 -1,1 1,1 0.375,17.5 0.875,7 0.75,36.5 1,1 -1,1 1,1 -1,1 1,1 1,9 -1,1 1,1 v 3 l 1,1 -1,1 1,1 2,22 -1,1 1,1 -0.375,13.5 0.875,4 -0.125,4 -0.375,1.5 -2,2 1,1 0.5,4.5 2.875,17 0.625,13.5 1,1 -1,1 1,1 -1,1 1,1 0.375,2.5 4.75,18 0.875,10.75 1.75,0.5 0.25,2.25 -1.5,1.5 h -1 l -0.5,0.5 1,1 -1.5,1.5 -1.25,0.25 -2.25,15.25 -1.5,1.5 -4.5,1.25 -16.5,0.75 -1,-1 -1,1 -4,1 -1,-1 -1,1 -13.5,0.75 -34,2.75 -23,-1.5 0.5,1 1.25,0.25 0.25,2.25 -1.5,1.5 -2.5,0.5 h -6 l -2.5,0.5 -3.5,-3.5 v -2 l 1,-1 -0.5,-0.5 -1.25,-0.25 -0.25,-2.25 -1,-1 1,-1 -1,-1 v -3 l -2,-2 -4.375,-8.5 -1.125,-4 -0.5,-3.5 -1,-1 1,-1 -3,-20 1,-1 -1,-1 -1,-21.5 v -5.5 L 355.5,683 H 355 m 20,8 v -1 h -1 v 1 h 1 m 13,1 v -1 h -1 v 1 h 1 m -10,12 1.25,2.75 1.75,-0.25 2,-0.875 5.5,-1.625 0.5,-0.5 -1,-1 v -2 l -2,-2 -1.25,-3.25 -2.75,0.25 -2.75,0.75 0.75,5.25 -2,1.5 v -1.5 l 1,-1 -0.5,-0.5 h -1 l -2,-2 -1.5,1.5 0.625,3.5 0.625,1.75 1.75,-0.25 1,-0.5 m -6,-4 v -1 h -1 v 1 h 1 m -2,9 v -1 h -1 v 1 h 1 m 19.5,3 1.5,-1.5 -0.25,-2.25 -2.25,-0.25 -2.5,2.5 0.5,0.5 3,1 m -18.5,1 v -2.5 l -1,-0.5 v 2.5 l 1,0.5 m 13,15 3.5,-1 2.5,-2.5 -1,-0.5 v -1 l -1,-5.5 -2,-1.5 -2,-1.375 -4,-0.125 -3.5,0.5 -2,2 h -2 l -1.5,1.5 1,1 0.625,5.5 -0.25,3 -0.375,1.5 0.5,0.5 1,-1 h 1 l 1.5,-1.5 -1,-1 v -1 l 1.5,-1.5 3,-1 1,1 1,-1 h 2 l 1.5,1.5 v 1.5 h -0.5 l -0.5,0.5 v 0.5 l -4.75,1.25 v 1.5 l 2.25,0.25 2,-2 h 0.5 m -20,5 v -4.5 l -1,-0.5 v 4.5 l 1,0.5 m 17,5 1.5,-1 1,1 h 5 l 4,4 0.5,-0.5 0.25,-1.25 2.25,-0.25 1.5,1.5 -2,2 0.25,3.25 1.75,0.75 2,0.125 2.75,-0.875 -0.375,-2.75 -0.75,-2 -0.625,-3.5 -1.5,-1.5 -1.25,-0.25 0.25,-1.75 0.75,-1.75 1.25,-0.25 1.5,-1.5 -1.5,-1.5 -4.5,0.5 -14,3.5 -1,4.5 1,0.5 v -1 m -16,0 v -1.5 l -1,-0.5 v 1 l 1,1 m 1,3 v -1 h -1 v 1 h 1 m 10,2 v -1.5 l -1,-0.5 v 1 l 1,1 m 10,1 h -4.5 l -0.5,0.5 1.5,1.5 2.5,-0.625 1,-0.375 h 1.5 l 1,1 0.5,-0.5 -0.25,-1.25 L 386,744 m -9,2 v -1 h -1 v 1 h 1 m 5,1 v -1 h -1 v 1 h 1 m -4,2 v -1 h -1 v 1 h 1 m 6.5,6 0.5,-0.5 -1.5,-1.5 h -1 l -0.5,0.5 1.5,1.5 h 1 m 2.5,0 v -1 h -1 v 1 h 1 m -4,8 v -1 h -1 v 1 h 1 m -4,1 v -1 h -1 v 1 h 1 m 22,-263 v -1 h -1 v 1 h 1 m 3,0 v -1 h -1 v 1 h 1 m 9,0 v -1 h -1 v 1 h 1 m 2,0 v -1 h -1 v 1 h 1 m 3,6.375 5.75,-3.625 0.5,-1.5 1.25,-0.25 0.5,-0.5 -1.5,-1.5 -1,1 h -1 l -1,-1 -0.5,0.5 v 2 l -1.5,1.5 -1,-1 -1.5,1.5 1,1 -0.5,0.5 h -1 l -1.5,1.5 0.5,0.5 2.5,-0.625 M 430,501 v -1 h -1 v 1 h 1 m 12,0 v -1 h -1 v 1 h 1 m -43.5,1 0.5,-1 h -1.5 l -0.5,1 h 1.5 m 36.5,0 v -1 h -1 v 1 h 1 m 3,0 v -1 h -1 v 1 h 1 m 3,0 v -1 h -1 v 1 h 1 m -49.5,1 0.5,-1 h -1.5 l -0.5,1 h 1.5 m 11.5,0 v -1 h -1 v 1 h 1 m 49,2 -0.25,-2.75 -1.25,-0.25 -0.5,0.5 1,1.5 1,1 m -56.5,-1 0.5,-1 h -1.5 l -0.5,1 h 1.5 m 9.5,0 v -1 h -1 v 1 h 1 m 2,0 v -1 h -1 v 1 h 1 m 22,0 v -1 h -1 v 1 h 1 m 21,1 v -1.5 l -1,-0.5 v 1 l 1,1 m -58,0 v -1 h -1 v 1 h 1 m 10,0 v -1 h -1 v 1 h 1 m 7,0 v -1 h -1 v 1 h 1 m 22.5,0 0.5,-1 h -1.5 l -0.5,1 h 1.5 m 13,4 3.5,-3.5 -0.25,-1.25 -1.25,-0.25 -2.5,2.5 v 1 l -1,1 0.5,0.5 h 1 M 405,506 v -1 h -1 v 1 h 1 m 6,0 v -1 h -1 v 1 h 1 m 14,0 v -1 h -1 v 1 h 1 m 15,0 v -1 h -1 v 1 h 1 m -49.5,1 0.5,-1 h -1.5 l -0.5,1 h 1.5 m 10.5,0 v -1 h -1 v 1 h 1 m 23,0 v -1 h -1 v 1 h 1 m 15,0 v -1 h -1 v 1 h 1 m 3,0 v -1 h -1 v 1 h 1 m -19,1 v -1 h -1 v 1 h 1 m 13,0 v -1 h -1 v 1 h 1 m 17,1 h 1.5 l 2.5,-2.5 -0.5,-0.5 h -1 l -1,1 -2,-2 -0.5,0.5 v 1.5 l -2,1.5 1,1 v 1 l 0.5,0.5 1.5,-2 m -63,0 v -1 h -1 v 1 h 1 m 8,0 v -1 h -1 v 1 h 1 m 6,0 v -1 h -1 v 1 h 1 m 6,0 v -1 h -1 v 1 h 1 m 9,0 v -1 h -1 v 1 h 1 m 2,0 v -1 h -1 v 1 h 1 m 11,0 v -1 h -1 v 1 h 1 m 3,0 v -1 h -1 v 1 h 1 m 2,0 v -1 h -1 v 1 h 1 m -40,1 v -1 h -1 v 1 h 1 m 8,0 v -1 h -1 v 1 h 1 m 20,0 v -1 h -1 v 1 h 1 m 6,0 v -1 h -1 v 1 h 1 m 3,0 v -1 h -1 v 1 h 1 m 7.5,1 1.5,-1.5 -0.5,-0.5 -1.25,0.75 0.25,1.25 m -39.5,0 v -1 h -1 v 1 h 1 m 11.75,0.75 0.25,-1.25 -0.5,-0.5 -1,1 h -1 l -0.5,1 2.75,-0.25 M 432,512 v -1.5 l -1,-0.5 v 1 l 1,1 m 7,-1 v -1 h -1 v 1 h 1 m 5,0 v -1 h -1 v 1 h 1 m 6,0 v -1 h -1 v 1 h 1 m -46,1 v -1 h -1 v 1 h 1 m 17.5,5 1.5,-1.5 0.25,-1.25 1.25,-0.25 1.5,-1.5 v -1 l -0.5,-0.5 -2,2 h -1 l -3.5,3.5 0.5,0.5 h 2 m 15,-4 1.5,-1.5 -0.5,-0.5 -1.25,0.75 0.25,1.25 m 12.5,-1 v -1 h -1 v 1 h 1 m -52,1 v -1 h -1 v 1 h 1 m 5.5,0 0.5,-1 h -1.5 l -0.5,1 h 1.5 m 5.5,0 v -1 h -1 v 1 h 1 m 27,0 v -1 h -1 v 1 h 1 m 5,0 v -1 h -1 v 1 h 1 m 7,0 v -1 h -1 v 1 h 1 m -33,1 v -1 h -1 v 1 h 1 m 31,0 v -1 h -1 v 1 h 1 m 6,0 v -1 h -1 v 1 h 1 m -43,1 v -1 h -1 v 1 h 1 m 5.5,1 0.5,-0.5 -1.5,-1.5 -1.5,1.5 0.5,0.5 h 2 m 23.5,0 v -1.5 l -1,-0.5 v 1 l 1,1 m 4,-1 v -1 h -1 v 1 h 1 m 3,0 v -1 h -1 v 1 h 1 m 3,0 v -1 h -1 v 1 h 1 m 3,0 v -1 h -1 v 1 h 1 m 5.5,2 1,-1 3.25,-1.25 0.25,-1.25 2,-2 -2.5,-2.5 -3,3 -1.25,0.25 -0.5,1.5 -2.25,0.25 -1.5,1.5 0.5,0.5 4,1 M 403,516 v -1 h -1 v 1 h 1 m 30,0 v -1 h -1 v 1 h 1 m 9.5,0 0.5,-1 h -1.5 l -0.5,1 h 1.5 m 3.5,0 v -1 h -1 v 1 h 1 m -52,0 1,-0.5 -1,-0.5 1,-2.5 -0.5,-0.5 -1,1 h -1 l -0.5,0.5 1,1 v 0.5 l -3,0.625 -1.75,0.625 v 1.5 h 2.5 l 0.5,-1.5 1.75,-0.25 0.5,1 0.5,-1 m 16.75,2.75 0.25,-2.25 -0.5,-0.5 -2,2 h -1 l -0.5,1 3.75,-0.25 M 395.5,518 396,517 h -1.5 l -0.5,1 h 1.5 m 20.5,0 v -1 h -1 v 1 h 1 m 2.5,0 0.5,-1 h -1.5 l -0.5,1 h 1.5 m -19.5,2 v -1 h -1 v 1 h 1 m 47,1 v -1 h -1 v 1 h 1 m 15.5,-22 0.5,-0.5 -1.5,-1.5 h -2 l -0.5,1 h 0.5 l 3,1 m -5.5,6 v -1 h -1 v 1 h 1 m 9,0 v -1 h -1 v 1 h 1 m -7,1 v -1 h -1 v 1 h 1 m -1,4 v -1.5 l -1,-0.5 v 1 l 1,1 m 5,0 v -1 h -1 v 1 h 1 m -6,1 v -1 h -1 v 1 h 1 m 5,5 v -1 h -1 v 1 h 1 m 2,27 v -1 h -1 v 1 h 1 m 1,2 v -1 h -1 v 1 h 1 m 0,7 v -1 h -1 v 1 h 1 m 5,26 v -1 h -1 v 1 h 1 m 0,3 v -1.5 l -1,-0.5 v 1 l 1,1 m -79,52 v -1 h -1 v 1 h 1 m 3,0 v -1 h -1 v 1 h 1 m 5.5,1 0.5,-0.5 -0.25,-1.25 -1.25,-0.25 -0.5,0.5 1.5,1.5 m 2.5,0 v -1.5 l -1,-0.5 v 1 l 1,1 m 5,-1 v -1 h -1 v 1 h 1 m -3,1 v -1 h -1 v 1 h 1 m 6,0 v -1 h -1 v 1 h 1 m 44,6 v -1 h -1 v 1 h 1 m -27,4 v -1 h -1 v 1 h 1 m 3,1 v -1 h -1 v 1 h 1 m -34,8 v -1 h -1 v 1 h 1 m 20.5,4 1,-1 3.25,-0.25 v -1.625 L 411.5,655 411,656 h 0.5 l 4,1 m 9.5,1 v -2.5 l -1,-0.5 v 2.5 l 1,0.5 m 7,7.75 7.875,-2 0.125,-4.25 -1.5,-1.5 h -1 l -0.5,-0.5 1,-1 -0.25,-1.25 -1.25,-0.25 -1,1 -1,-1 -4.25,0.125 -0.25,2.375 -1,1 1,1 0.125,6.25 H 432 m 28.5,-0.75 0.5,-0.5 -0.125,-7.25 -1.875,0.25 -1.5,0.5 -1.5,-1.5 -0.25,-1.375 -7.25,-0.125 -0.5,1 h 0.5 l 1.25,0.25 0.25,2.25 -1.5,1.5 -1.375,0.25 v 4.5 L 460.5,665 M 426,659 v -1 h -1 v 1 h 1 m -8,5.25 1.75,-0.5 v -2.625 l -5.75,0.375 -3.75,0.75 v 2.625 L 418,664.25 m 7.875,1.5 0.125,-4.25 -1,-0.5 v 0.5 l -0.375,1.5 -0.375,2.75 h 1.625 M 469,601 v -1.5 l -1,-0.5 v 1 l 1,1 m 1,3 v -1.5 l -1,-0.5 v 1 l 1,1 m -1,2 v -1 h -1 v 1 h 1 m 1,3 v -1 h -1 v 1 h 1 m -0.5,11 0.5,-0.5 v -8 l -1,-0.5 v 6.5 l -1,1 1.5,1.5 M 455,637 v -1 h -1 v 1 h 1 m 3,12 v -1 h -1 v 1 h 1 m 10.75,9.75 0.25,-1.25 -0.5,-0.5 -1.5,1.5 0.5,0.5 1.25,-0.25 M 440,670 v -1 h -1 v 1 h 1 m -32,1 v -1 h -1 v 1 h 1 m 33.5,5 1.5,-1.5 -1,-1 -0.25,-2.25 h -1.5 l 0.375,3.25 0.875,1.5 m -23.5,5.5 3,-0.75 v -8.625 l -5,0.625 -1.75,0.5 -0.25,1.25 0.5,0.5 1,-1 h 2 l 1.5,1.5 -1.5,1.5 -3,1 -0.5,0.5 1,1 0.25,2.25 2.75,-0.25 m -20,3 4.75,-2.75 1.25,-3.25 -1,-1 1,-1 v -3 l -0.5,-0.5 -1.5,1.5 1,1 -1.5,1.5 h -1 l -0.5,0.5 1,1 -0.5,0.5 h -1 l -0.5,0.5 1,1 v 1 l -1.5,1.5 h -5 l -0.5,1 h 0.5 l 4.5,0.5 m 33.5,-2.5 1,-1 h 1 l 2.5,-2.5 v -1 l -1.5,-1.5 h -1 l -2,-2 h -2 l -1,-1 -0.5,0.5 0.5,2.5 1.125,3.5 1.875,2.5 m -37,-6 0.5,-1 h -1.5 l -0.5,1 h 1.5 m 19.5,1 v -1 h -1 v 1 h 1 m -5,2 v -1 h -1 v 1 h 1 m -11,1 v -1 h -1 v 1 h 1 m 55,-2 3,-0.625 1.75,-0.625 0.25,-3.25 1,-1 -1.5,-1.5 -9,1 -1.5,1.5 v 1 l -1,1 2,2 v 1.5 l 3,0.375 1.5,-0.375 0.5,-1 m -44.5,6 1.5,-1.5 -1,-1 v -1 l -1,-0.5 v 2.5 l -1,1 0.5,0.5 h 1 m 31,0 1.5,-1.5 v -2 l -1,-0.5 v 1.5 l -2,2 0.5,0.5 h 1 m -14.5,0 v -1 h -1 v 1 h 1 m -7,15.5 3,-1.125 1.5,-0.375 0.5,-0.5 -1,-1 1,-1 -2,-7 -1.5,-1.5 -1,1 h -2 l -1.5,1.5 -1,2 -0.625,2.5 1.875,5.75 2.75,-0.25 m 14.5,-4.5 1.5,-1.5 0.25,-1.25 4.75,-2.75 1.5,-0.5 1.5,-1.5 -0.5,-0.5 -4,1 -1,1 -1,-1 h -2 l -1.5,1.5 v 5 l 0.5,0.5 m -28,7 0.5,-0.5 1.25,-4.5 0.75,-8.75 h -3 l -11.75,2 -0.25,1.25 1,1 -1,1 1,1 0.25,2.25 2.25,0.25 2,-2 3,-1 1,1 1,-1 1.5,1.5 -1,1 1,1 -0.5,2 1,2.5 m 23.5,-3 v -6.5 l -1,-0.5 v 6.5 l 1,0.5 m 14,-5 v -1 h -1 v 1 h 1 m -7,1 v -1 h -1 v 1 h 1 m -34,1 v -1 h -1 v 1 h 1 m 1,2 v -1 h -1 v 1 h 1 m 44.5,8 0.5,-0.5 -1,-1 -1,-4 1,-1 -1.5,-1.5 -1.5,1.5 0.625,2.5 1.625,3.75 1.25,0.25 M 402,701 v -1 h -1 v 1 h 1 m 25,1 v -1.5 l -1,-0.5 v 1 l 1,1 m 32.5,3 0.5,-0.5 -1,-3 -1.5,-1.5 h -4 l -1.5,1.5 0.25,3.25 2.75,-0.25 4.5,0.5 m -25,10 0.5,-0.5 v -2 l 1.5,-1.5 3,-1 1.5,-1.5 -0.625,-3.5 -0.375,-1.5 -1.5,-1.5 h -2 l -1,1 -1,-1 -2,2 -2.25,0.25 0.375,2.75 0.625,2 0.875,4.75 2.375,1.25 M 410,704 v -1 h -1 v 1 h 1 m -3.25,5.75 0.5,-1.5 1.5,-0.5 0.25,-3.25 -0.5,-0.5 -2,2 -4.5,1.25 -5.5,0.75 -0.5,1 10.75,0.75 m 10.25,8.875 7.75,-2.875 0.625,-2.75 0.625,-5.5 -2.5,-2.5 -4,2 -1,-1 -2,2 h -1 l -1,-1 -1.5,1.5 0.625,3.5 0.625,2 0.875,4.75 1.875,-0.125 M 408,712 v -1 h -1 v 1 h 1 m 40.75,0.75 v -1.5 h -1.5 v 1.5 h 1.5 M 409,713 v -1 h -1 v 1 h 1 m 34,5.375 4.75,-1.625 0.25,-2.25 -1.5,-1.5 -5,5 h -3 l -0.5,1 5,-0.625 m -44.5,6.625 1,-1 4.5,-2.5 1.875,-0.75 -0.625,-4.75 -0.5,-2 h -9.25 l -0.5,0.5 1,1 0.5,3.5 1.125,4.5 0.875,1.5 m 12.5,-8 v -1 h -1 v 1 h 1 m 0,2 v -1 h -1 v 1 h 1 m 16.5,3 1.5,-1.5 -0.25,-1.25 -1.75,0.25 -1.5,0.5 -0.5,1 h 0.5 l 2,1 m 10,-2 0.5,-1 h -2.5 l -0.5,1 h 2.5 m 19.5,18.625 15.75,-2.875 0.25,-1.25 -1.5,-1.5 -2,2 -6,1 -1.5,-1.5 v -1 l 1,-1 -3,-3 1,-1 -1,-1 v -1 l 2.5,-2.5 1.5,0.5 h 2 l 1.5,-0.5 1,1 1,-1 0.5,0.5 -0.25,2.25 -4.25,1.25 -0.5,0.5 1.5,1.5 h 3 l 2.5,-2.5 0.625,-2.5 v -2 l -1.125,-3 -0.75,-3.875 -4.25,-0.125 -1,1 -1,-1 -1,1 -4.5,0.75 -7,1.875 -2.5,0.375 -2.5,2.5 1,1 1,8 1,1 -1,1 v 3 l -1,1 0.5,0.5 8.5,0.625 M 423.5,722 424,721 h -1.5 l -0.5,1 h 1.5 m -14,3 0.5,-1 h -1.5 l -0.5,1 h 1.5 m -2,1 0.5,-1 h -1.5 l -0.5,1 h 1.5 m -1.5,1 v -1 h -1 v 1 h 1 m 66,-57 v -1 h -1 v 1 h 1 m -3,7 1.875,-1.25 -0.875,-8.25 -0.5,-0.5 -2,2 -2.25,-0.25 -0.25,-1.25 -1,-0.5 -0.875,8.75 1.375,0.25 2,2 h 0.5 1.5 l 0.5,-0.5 V 677 m -15,8 -3,0.5 -2.75,0.75 0.375,2.75 0.375,1.5 -1,1 1,1 0.25,3.25 2.75,-0.25 2.5,-0.5 1.5,-1.5 V 688 l 1,-1.5 -1.5,-1.5 H 454 m 19,2 v -1 h -1 v 1 h 1 m -5,0 -0.25,-2.75 h -2.5 l -0.5,1.5 -2.25,0.25 -1,-1 -0.5,0.5 0.25,1.25 0.75,0.25 v 4.5 l 1.5,1.5 4.25,-2.25 L 468,687 m 5,2 v -1 h -1 v 1 h 1 m -1.5,20 3.5,-3.5 v -5 l -1,-1 1,-1 -1,-1 v -3 l -1.5,-1.5 -0.5,0.5 v 1 l -2,2 -0.25,3.25 -1.25,0.25 -0.5,1 h 0.5 l 1.25,0.25 0.25,2.25 0.5,0.5 1,-1 0.5,0.5 -0.25,1.25 -1.5,0.5 0.25,2.25 1,1.5 M 460,708 v -1 h -1 v 1 h 1 m -1,1 v -1 h -1 v 1 h 1 m 3.5,4 1,-1 h 4 l 0.5,-0.5 -2,-2 v -1 l -0.5,-0.5 -3.5,4 0.5,1 m -7,-3 0.5,-1 h -2.5 l -0.5,1 h 2.5 m 23.5,25.75 -0.75,-13.75 -2,-9 -0.25,-1.5 -0.5,-0.5 -1,1 h -1 l -0.5,1 h 0.5 l 1.25,0.25 1.5,7.75 0.75,14.75 h 2 M 458,714 v -1 h -1 v 1 h 1 m -35,22 v -1 h -1 v 1 h 1 m 6,0 v -1 h -1 v 1 h 1 m -12,4 v -1 h -1 v 1 h 1 m 5,0 v -1 h -1 v 1 h 1 m 7,0 v -1 h -1 v 1 h 1 m -15,0 v -2.5 l 2.5,-2.5 16,-1 1.5,1.5 -1,1 v 1 l -1,1 0.5,0.5 2.5,-0.375 6.75,-1.875 -0.25,-3.75 -1.75,-8.75 -7.75,0.25 -2,0.875 -3.5,0.625 -1,-1 -1,1 -5,1 -1,-1 -1,1 -1.5,0.25 -5,1.5 -5,2.5 v 9.625 l 7.5,1.125 0.5,-1 1,-0.5 -1,-0.5 m 5,1 v -1 h -1 v 1 h 1 m -28,4 v -1 h -1 v 1 h 1 m 73,8.125 1.5,-0.125 2,-2 h 3 l 0.5,-1 h -0.5 l -8,-2 -1,1 -1,-1 -1.5,0.25 -21,5.25 -3.5,0.5 -1,1 -1,-1 -1,1 -7,1 -0.5,1 40,-3.875 M 473,731 v -1 h -1 v 1 h 1 m 0,12 1.75,-0.25 0.25,-1.25 -0.5,-0.5 -1.5,1 -46.5,3 -1,1 -1,-1 -1,1 -22.5,6.25 -5.75,0.875 L 395,754 h -4.5 l -0.5,0.5 0.5,0.5 h 6 l 0.5,-1 h 9.5 l 2,-2 1.5,0.25 14.5,-0.25 1,-1 1,1 1,-1 4.5,-0.5 24,-5.75 16,-0.75 h 0.5 l 0.5,-0.5 V 743 m 3,5 v -1 h -1 v 1 h 1 m -1,1 v -1 h -1 v 1 h 1 m 3,5.25 3.875,-1.5 0.125,-4.25 -0.5,-0.5 -4,4 -3,1 -1.5,1.5 0.5,0.5 4.5,-0.75 M 472,750 v -1 h -1 v 1 h 1"
           id="path804" />
      </g>
    </g>
  </g>
</g>
</svg>
