<?xml version="1.0" encoding="UTF-8" standalone="no"?>
<svg
   width="229.33252"
   height="206.95667"
   viewBox="-702 0 229.33252 206.95667"
   version="1.2"
   id="svg924"
   xmlns="http://www.w3.org/2000/svg"
   xmlns:svg="http://www.w3.org/2000/svg"><defs
   id="defs924" />
<title
   id="title1">Notebook 3</title>
\n<g
   id="g935"
   transform="matrix(1.0215257,0,0,1.0545565,-633.04701,-1252.8131)">
  <g
     id="g173">
    <path
       fill="none"
       stroke="#000000"
       stroke-width="4"
       stroke-linecap="round"
       stroke-linejoin="round"
       d="m 25.5806,1314.99 1.038,-4.58 -0.048,0.54 -0.1519,-0.95 -0.347,0.67 0.0603,-0.47 -0.2958,0.34 -0.0634,-0.71 -0.1725,0.4 -1.2193,-0.47 -0.8554,0.09 -3.2745,2.04 -0.4915,0.83 -1.3779,0.66 -1.4453,1.33 -0.6652,1.95 0.1687,0.56 0.3371,-0.15 0.4371,1.48 1.4777,2.09 0.6546,0.14 1.4279,1.5 1.5275,0.22 0.2164,0.9 0.3981,0.16 0.2924,-0.6 0.8745,-0.25 0.3378,0.76 0.5872,-0.85 0.8222,-0.74 0.4403,0.12 0.9921,-1.17 0.4689,0.33 0.1877,-0.63 0.7918,-0.78 0.2347,0.16 0.6102,-1.14 0.2138,0.31 0.7454,-1.86 -0.0685,-1.98 -1.2019,-3.78 -0.5266,-0.6 -0.2423,-1.11 -1.2747,-0.78 -0.1867,-0.82 -0.6909,0.28 -0.3074,-0.57 -0.4711,0.39 -0.0025,-0.9 -0.1032,0.81 0.1687,0.32 0.0289,-1.15 0.517,1.3 -0.2466,1.09 0.2767,0.01 0.1079,-0.68 0.0684,0.49 -0.005,-0.54 0.2027,0.57 0.096,-0.4 -0.4077,1.31 0.2526,-0.83 0.0029,0.72 0.0217,-0.93 -0.2015,0.74 -2e-4,-0.83 -0.1369,0.87 -0.063,-1.04 -0.3297,0.69 0.0513,-1.15 -0.1583,0.32 -0.5536,-0.8 -1.0677,-0.36 -0.6833,0.32 -0.7784,-0.41 -0.3703,0.17 -0.3854,-0.24 0.019,-0.47 -0.1075,0.5 -0.055,-0.39 -0.4705,0.39 0.0625,-0.6 -0.2347,0.55 -0.724,0.27 -0.3945,-0.7 -0.4788,0.8 -2.3991,2.06 -0.5302,-0.46 -1.3742,1.73 -0.5876,-0.11 -1.5476,1.86 -2.0299,3.48 -0.031,1.46 0.0562,-0.32 0.2338,0.11 0.3646,1.25 1.481,-0.38 0.68,0.43 2.4045,0.04 1.9841,-0.61 0.9429,-0.86 2.5497,-0.84 1.4522,-1.3 0.3637,0.13 1.5732,-0.67 2.2195,-1.88 0.1741,-1 -0.2486,-0.61 -0.284,0.59 -0.0304,-0.94 -0.5705,-1.31 -0.364,0.68 -0.8924,-1.91 -0.6591,0.72 -0.2921,-0.57 -0.9975,-0.61 -0.8598,0.6 -0.9987,-0.47 -1.3637,0.02 -1.1527,0.88 -2.2477,0.75 -3.7016,2.43 -2.2841,2.47 -1.09788,1.93 0.65428,1.18 0.3375,-0.35 0.5553,1.54 0.6151,-0.58 0.7634,1.59 0.5866,0.46 0.4995,-1.03 0.7196,-0.38 0.3458,0.95 1.4652,0.62 1.2735,-1.03 1.1734,0.61 1.7576,0.07 1.4551,-1.08 0.5288,0.4 5.248,-1.72 1.4154,-1.06 0.8238,-1.34 0.1277,-1.13 -0.0764,0.48 -0.3295,-1.94 -1.6344,-1.97 -2.193,-0.55 -0.3942,-0.41 -2.2701,0.97 -0.902,-0.21 -2.5246,2.21 -0.9689,0.39 -1.576,1.72 -1.0845,2.21 -0.7581,2.1 0.096,1.65 0.1778,0.4 0.1743,-0.16 0.676,0.58 0.3358,0.7 1.1399,-0.02 0.5919,0.54 1.3278,-0.33 0.2966,-0.4 0.4754,0.25 2.0761,-0.94 1.3994,-1.27 0.6621,-0.02 2.3344,-3.27 0.5736,-1.94 -0.9214,-3.26 -0.2357,0.15 -0.9637,-0.47 -0.4845,-1.07 -0.5775,0.27 -1.3986,-0.17 -0.8722,-0.72 -2.452,0.88 -1.0652,-0.85 -1.02,1.06 -1.8239,0.84 -0.3918,-0.63 -0.6587,0.07 -0.4658,0.99 -1.6653,1.32 -0.7833,-0.44 -0.8329,2.72 2.1944,3.66"
       id="path173" />
  </g>
  <g
     id="g832">
    <path
       fill="#201c1c"
       fill-rule="evenodd"
       opacity="0.500008"
       d="m 71,1373 v -0.5 l 0.5,-0.5 H 72 v 0.5 l -0.5,0.5 H 71"
       id="path832" />
  </g>
  <g
     id="g833">
    <path
       fill="#201c1c"
       fill-rule="evenodd"
       opacity="0.500008"
       d="m 70,1373 -1.5,2 -1.5,0.38 -16,6.12 -8,2 -5,0.75 H 12 l -11,-1.75 -4,-1 -3,-1.5 h 4.5 l 1,1 1,-1 13.5,1.88 11.5,-0.88 1,1 1,-1 h 4 l 1,-1 1,1 1,-1 1,1 1,-1 h 1 l 1,1 1,-1 14.5,-2.5 8,-2.12 5,-1.88 3,-0.5"
       id="path833" />
  </g>
  <g
     id="g834">
    <path
       fill="#201c1c"
       fill-rule="evenodd"
       opacity="0.500008"
       d="m -12,1378 h -0.5 l -0.5,-0.5 v -0.5 h 0.5 l 0.5,0.5 v 0.5"
       id="path834" />
  </g>
  <g
     id="g835">
    <path
       fill="#201c1c"
       fill-rule="evenodd"
       opacity="0.500008"
       d="M -1.5,1376 H -3 l 0.5,-1 H -1 l -0.5,1"
       id="path835" />
  </g>
  <g
     id="g836">
    <path
       fill="#201c1c"
       fill-rule="evenodd"
       opacity="0.500008"
       d="m -16,1376 h -0.5 l -0.5,-0.5 v -0.5 h 0.5 l 0.5,0.5 v 0.5"
       id="path836" />
  </g>
  <g
     id="g837">
    <path
       fill="#201c1c"
       fill-rule="evenodd"
       opacity="0.500008"
       d="m -19,1374 h -0.5 l -0.5,-0.5 v -0.5 h 0.5 l 0.5,0.5 v 0.5"
       id="path837" />
  </g>
  <g
     id="g842">
    <path
       fill="#201c1c"
       fill-rule="evenodd"
       opacity="0.500008"
       d="m 109,1329 v -2.5 l 0.5,-0.5 0.5,0.5 v 2.5 h -1"
       id="path842" />
  </g>
  <g
     id="g843">
    <path
       fill="#201c1c"
       fill-rule="evenodd"
       opacity="0.500008"
       d="m 109,1307 h -1 v -1 h 1 v 1"
       id="path843" />
  </g>
  <g
     id="g844">
    <path
       fill="#201c1c"
       fill-rule="evenodd"
       opacity="0.500008"
       d="m 17,1325 h -0.5 l -0.5,-0.5 v -0.5 h 0.5 l 0.5,0.5 v 0.5"
       id="path844" />
  </g>
  <g
     id="g845">
    <path
       fill="#201c1c"
       fill-rule="evenodd"
       opacity="0.500008"
       d="m 15,1324 h -0.5 l -0.5,-0.5 v -0.5 h 0.5 l 0.5,0.5 v 0.5"
       id="path845" />
  </g>
  <g
     id="g846">
    <path
       fill="#201c1c"
       fill-rule="evenodd"
       opacity="0.500008"
       d="m 14,1323 h -0.5 l -0.5,-0.5 v -0.5 h 0.5 l 0.5,0.5 v 0.5"
       id="path846" />
  </g>
  <g
     id="g847">
    <path
       fill="#201c1c"
       fill-rule="evenodd"
       opacity="0.500008"
       d="m 15,1317 h -1 v -1 h 1 v 1"
       id="path847" />
  </g>
  <g
     id="g848">
    <path
       fill="#201c1c"
       fill-rule="evenodd"
       opacity="0.500008"
       d="m 16,1315 h -1 v -1 h 1 v 1"
       id="path848" />
  </g>
  <g
     id="g849">
    <path
       fill="#201c1c"
       fill-rule="evenodd"
       opacity="0.500008"
       d="m 24,1314 h -1 v -1 h 1 v 1"
       id="path849" />
  </g>
  <g
     id="g850">
    <path
       fill="#201c1c"
       fill-rule="evenodd"
       opacity="0.500008"
       d="m 33,1314 1,-0.5 v -2 l 0.5,-0.5 1,1 1.25,0.25 0.5,1.75 0.75,4.5 -3.5,3.5 -6.5,3.38 -3,1 H 20 L 17,1325 h 9.5 l 2,-2 h 1 l 3.5,-3.5 v -5.5"
       id="path850" />
  </g>
  <g
     id="g851">
    <path
       fill="#000000"
       fill-rule="evenodd"
       d="m 26,1330.38 -6,0.12 -7.75,-1.75 -5.5,-7.75 v -6 l 0.25,-1.5 5.5,-5.5 1.5,-0.37 3,-1.25 2,-0.5 11,-0.13 8.5,2.25 3.5,3.5 -1,10 -3.5,3.5 -4,2 -2,2 -5.5,1.38 m -9,-5.38 3,1.38 h 5 l 3,-1 6.5,-3.38 3.5,-3.5 -0.75,-4.5 -0.5,-1.75 -1.25,-0.25 -1,-1 -0.5,0.5 v 2 l -1,0.5 h -1.5 l -1.5,-1.5 -0.25,-2.25 -2.75,-0.62 -5,-0.13 -4,1.13 -2,0.87 -1.5,0.5 -3.5,3.5 -0.5,1.5 0.5,2.5 1.25,2.25 0.75,0.25 v 0.5 l 0.5,0.5 H 14 v 0.5 l 0.5,0.5 h 0.5 1 v 0.5 l 0.5,0.5 H 17"
       id="path851" />
  </g>
  <g
     id="g852">
    <path
       fill="#201c1c"
       fill-rule="evenodd"
       opacity="0.500008"
       d="m -5.5,1375 -3.5,-0.62 -4,-1.88 -5.5,-3.5 -2,-1 -1.5,-1.5 0.5,-0.5 h 2 l 2,2 4,2 2,2 2.5,0.63 2,0.87 1.5,0.5 H -5 l -0.5,1"
       id="path852" />
  </g>
  <g
     id="g853">
    <path
       fill="#201c1c"
       fill-rule="evenodd"
       opacity="0.500008"
       d="m -56,1331 h -0.5 l -0.5,-0.5 v -0.5 h 0.5 l 0.5,0.5 v 0.5"
       id="path853" />
  </g>
  <g
     id="g871">
    <path
       fill="#201c1c"
       fill-rule="evenodd"
       opacity="0.500008"
       d="m 109,1303 -1,-1 v -1 l 1,0.5 v 1.5"
       id="path871" />
  </g>
  <g
     id="g872">
    <path
       fill="#201c1c"
       fill-rule="evenodd"
       opacity="0.500008"
       d="m 109,1298 -1,-1 v -1 l 1,0.5 v 1.5"
       id="path872" />
  </g>
  <g
     id="g873">
    <path
       fill="#201c1c"
       fill-rule="evenodd"
       opacity="0.500008"
       d="m 112,1285 1,0.5 v 29.5 -20.5 l -1,-1 1,-1 -1,-1 v -6.5"
       id="path873" />
  </g>
  <g
     id="g874">
    <path
       fill="#201c1c"
       fill-rule="evenodd"
       opacity="0.500008"
       d="m 111,1280 h 0.5 l 0.5,0.5 v 4.5 h -0.5 l -0.5,-0.5 v -4.5"
       id="path874" />
  </g>
  <g
     id="g875">
    <path
       fill="#201c1c"
       fill-rule="evenodd"
       opacity="0.500008"
       d="m 108,1296 -1,-0.5 -0.625,-4.5 -4.75,-17 -0.625,-4.5 v -0.5 l 1,0.5 0.375,1.5 3.875,10 1.125,5 0.625,10"
       id="path875" />
  </g>
  <g
     id="g876">
    <path
       fill="#201c1c"
       fill-rule="evenodd"
       opacity="0.500008"
       d="m 98,1250 2,1.5 0.5,1.5 2,4 0.5,1.5 2,2 0.625,2.5 4.875,13 0.5,4 -0.75,-0.25 -4.25,-12.25 -2,-2 v -2 l -2,-2 -0.625,-2.5 -2.875,-7 -0.5,-2"
       id="path876" />
  </g>
  <g
     id="g877">
    <path
       fill="#201c1c"
       fill-rule="evenodd"
       opacity="0.500008"
       d="m 97,1248 h 0.5 l 0.5,0.5 v 0.5 h -0.5 l -0.5,-0.5 v -0.5"
       id="path877" />
  </g>
  <g
     id="g878">
    <path
       fill="#000000"
       fill-rule="evenodd"
       d="m 72.5,1267 h -3 l -2,-2 -5.5,-1.37 -7,0.12 -10.75,3.5 -0.5,2.5 -2.75,-0.37 -1.5,-0.38 -1.5,-1.5 v -2 l 1.5,-1.5 2.5,-0.62 2,-0.75 3.5,-0.63 2,-2 15.5,-0.25 3,0.88 4.5,2.37 1.5,1.5 v 1 l -1.5,1.5"
       id="path878" />
  </g>
  <g
     id="g879">
    <path
       fill="#201c1c"
       fill-rule="evenodd"
       opacity="0.500008"
       d="m -14,1275 h -1 v -1 h 1 v 1"
       id="path879" />
  </g>
  <g
     id="g880">
    <path
       fill="#000000"
       fill-rule="evenodd"
       d="m 18.5,1269 h -2 l -2,-2 h -13 l -1,-1 -1,1 -3.5,0.63 -4,1.87 -1.5,0.5 -1.5,1.5 v 2 l -2.5,2.5 h -2 l -1.5,-1.5 v -3 l 5.5,-5.5 5,-3 1,1 2,-2 h 5 l 1,1 1,-1 14,1 2.5,2.5 v 2 l -1.5,1.5 m -32.5,6 v -1 h -1 v 1 h 1"
       id="path880" />
  </g>
  <g
     id="g881">
    <path
       fill="#201c1c"
       fill-rule="evenodd"
       opacity="0.500008"
       d="m -57,1330 h -0.5 l -5.5,-5.5 -0.5,-1.5 -2,-4 -0.75,-2 -1.25,-5 v -6 l 1.125,-6 1.375,-4 1,0.5 3.5,22.5 2.875,8 0.625,3"
       id="path881" />
  </g>
  <g
     id="g899">
    <path
       fill="#201c1c"
       fill-rule="evenodd"
       opacity="0.500008"
       d="m 86,1234 h 0.5 l 0.5,0.5 v 0.5 h -0.5 l -0.5,-0.5 v -0.5"
       id="path899" />
  </g>
  <g
     id="g900">
    <path
       fill="#201c1c"
       fill-rule="evenodd"
       opacity="0.500008"
       d="m 85,1233 h 0.5 l 0.5,0.5 v 0.5 h -0.5 l -0.5,-0.5 v -0.5"
       id="path900" />
  </g>
  <g
     id="g901">
    <path
       fill="#201c1c"
       fill-rule="evenodd"
       opacity="0.500008"
       d="m 81,1230 h 1.5 l 2.5,2.5 v 0.5 h -1.5 l -2.5,-2.5 v -0.5"
       id="path901" />
  </g>
  <g
     id="g902">
    <path
       fill="#201c1c"
       fill-rule="evenodd"
       opacity="0.500008"
       d="m 80,1229 h 0.5 l 0.5,0.5 v 0.5 h -0.5 l -0.5,-0.5 v -0.5"
       id="path902" />
  </g>
  <g
     id="g903">
    <path
       fill="#201c1c"
       fill-rule="evenodd"
       opacity="0.500008"
       d="m 78,1228 h 1.5 l 0.5,0.5 v 0.5 h -1.5 l -0.5,-0.5 v -0.5"
       id="path903" />
  </g>
  <g
     id="g904">
    <path
       fill="#000000"
       fill-rule="evenodd"
       d="m 113.5,1222 -1,-1 -1,1 -1,-1 -15,-1 -1,1 -1,-1 -1,1 -6.25,-0.12 -0.25,-1.38 -1,-1 1,-1 0.25,-1.25 1.75,-0.75 5,-3 2,-0.87 2.5,-0.63 1.5,-1.5 -2,-2 -0.25,-1.37 -5.25,-0.13 -1.5,-1.5 1,-1 0.25,-1.37 5.25,-0.13 1,1 1,-1 1,1 14,-1 1.5,1.5 v 1 l 1,1 -2.5,2.5 -6,4 -2.5,2.5 1.5,1.5 1,-1 h 3 l 1,1 1,-1 1.5,0.38 3.75,0.37 0.5,-1.5 2.75,-0.75 2.75,-0.25 -0.25,1.75 -2.5,4.5 -1.5,1.5 h -5 l -1,1"
       id="path904" />
  </g>
  <g
     id="g905">
    <path
       fill="#000000"
       fill-rule="evenodd"
       d="m 146.5,1207 -13.5,-1.75 -3,0.38 -1.5,0.37 -1,-1 -1,1 -1,-1 h -3 l -1.5,-1.5 v -1 l 2.5,-2.5 1.25,-0.25 0.5,-1.5 3.25,-1.25 2,-2 h 4.5 l -0.5,-1 -15,-1 -1.5,-1.5 0.25,-2.25 2.25,-0.25 1,-1 2,2 h 1 l 1,-1 1,1 4.5,-0.75 4,0.5 9.5,-1.75 1.5,1.5 v 3 l -2,2 -0.25,1.25 -9.75,3.75 -2.5,0.5 H 131 l 0.5,1 2.5,0.63 h 2 l 3,-0.38 12.5,0.75 2,-2 h 2 l 1.5,1.5 v 3 l -1.5,1.5 h -8 l -1,1 m -7.5,-13 v -1 h -1 v 1 h 1"
       id="path905" />
  </g>
  <g
     id="g906">
    <path
       fill="#201c1c"
       fill-rule="evenodd"
       opacity="0.500008"
       d="m 61,1223 2,0.5 3,1.13 3,1.87 4,3 2.75,1.75 0.5,1.5 2.75,1.75 4,3 2.5,1.5 4.5,4.5 0.25,1.25 1.5,0.5 2.25,7.25 v 0.5 l -1,-0.5 -1,-3 -5.5,-5.5 h -1 l -2,-2 h -2 l -3,-3 -8.5,-6.5 -4,-2 -6,-3.87 -3,-1.13 -2.5,-0.5 -2,-2 -4,-1 -0.5,-0.5 0.5,-0.5 h 5.5 1 1 v 0.5 l 0.5,0.5 h 1.5 2 v 0.5 l 0.5,0.5 H 61"
       id="path906" />
  </g>
  <g
     id="g907">
    <path
       fill="#201c1c"
       fill-rule="evenodd"
       opacity="0.500008"
       d="M 47.5,1221 H 45 l 0.5,-1 H 48 l -0.5,1"
       id="path907" />
  </g>
  <g
     id="g908">
    <path
       fill="#201c1c"
       fill-rule="evenodd"
       opacity="0.500008"
       d="m 34,1220 h -1 v -1 h 1 v 1"
       id="path908" />
  </g>
  <g
     id="g909">
    <path
       fill="#201c1c"
       fill-rule="evenodd"
       opacity="0.500008"
       d="m 18.5,1269 1.5,-1.5 v -2 l -2.5,-2.5 -14,-1 -1,1 -1,-1 h -5 l -2,2 -1,-1 -5,3 -5.5,5.5 v 3 l 1.5,1.5 h 2 l 2.5,-2.5 v -2 l 1.5,-1.5 1.5,-0.5 4,-1.87 3.5,-0.63 1,-1 1,1 h 13 l 2,2 h 2 m 54,-2 1.5,-1.5 v -1 l -1.5,-1.5 -4.5,-2.37 -3,-0.88 -15.5,0.25 -2,2 -3.5,0.63 -2,0.75 -2.5,0.62 -1.5,1.5 v 2 l 1.5,1.5 1.5,0.38 2.75,0.37 0.5,-2.5 10.75,-3.5 7,-0.12 5.5,1.37 2,2 h 3 m -33.5,23.5 4.5,-3.5 1.5,-1.5 -0.5,-0.5 h -1 l -1,-1 -6.5,6.5 v 1 l -2,2 0.5,0.5 4.5,-3.5 m -5,4.5 v -1 h -1 v 1 h 1 m -8,35.38 5.5,-1.38 2,-2 4,-2 3.5,-3.5 1,-10 -3.5,-3.5 -8.5,-2.25 -11,0.13 -2,0.5 -3,1.25 -1.5,0.37 -5.5,5.5 -0.25,1.5 v 6 l 5.5,7.75 7.75,1.75 6,-0.12 M 69,1317 v -1 h -1 v 1 h 1 m -1,1 v -1 h -1 v 1 h 1 m -1,1 v -1 h -1 v 1 h 1 m -1,1 v -1 h -1 v 1 h 1 m 3.5,-4 1.5,-1.5 3.5,-5.5 0.5,-1.5 -0.5,-0.5 -2.5,2.5 -2.5,5 v 1.5 m 26.5,35 -2,2.5 v 1 l -4.5,4.5 h -1 l -3,3 -2.5,0.63 -4,1.62 -25.5,5.75 -1,1 -1,-1 -1,1 -5.5,0.75 -2,0.63 -3.5,0.62 -1,1 -1,-1 -1,1 -11,2 -1,1 -1,-1 -4.5,-0.5 -5.5,-1.5 -1,1 -1,-1 -3.5,-0.62 -5,-1.88 -8,-2.12 -2,-0.88 -7,-4 -1.5,-0.5 -2,-2 -3.5,-0.62 -7,-2.75 -2.5,-0.63 -4,-4 -1.25,-0.25 -0.25,-1.25 -2,-2 v -1.5 l -1.75,-7 -0.25,-1.5 -1.5,-1.5 -4.5,-1 -1.5,-4 -0.5,-2.5 -2,-2 -0.5,-1.5 -3,-8 -1.125,-4 -3.75,-11 -1,-7 0.375,-14 0.5,-2 8,-12 5,-10 2,-3 3,-4 1.5,-2.5 4,-4.5 h 0.5 l 0.5,-0.5 v -0.5 h 0.5 l 0.5,-0.5 v -0.5 h 0.5 l 0.5,-0.5 v -0.5 h 0.5 l 0.5,-0.5 v -0.5 h 0.5 l 0.5,-0.5 v -0.5 h 0.5 l 1,-1 h 0.5 0.5 l 0.5,-0.5 v -0.5 l 1.5,-1 1.5,-0.5 10,-6 1.875,-0.25 0.125,4.25 2.5,2.5 h 1 l 1,1 1.5,-1.5 -0.625,-2.5 -0.875,-2 v -2 l 0.75,-1.75 11.75,-4.75 8,-2 4.5,-0.5 1,-1 1,1 1,-1 2.5,-0.62 h 2 l 2.5,0.62 2,2 h 1 l 1,1 1,-1 1.25,-0.25 0.25,-2.75 1,0.5 0.25,1.25 3.25,0.25 3,3 6.5,1.63 7,2.75 3.5,0.62 4,4 1.5,0.5 4,2 9,7 3,2 2,1 1.75,0.75 5.25,7.25 1.5,1.5 1.25,0.25 1.25,4.25 2,2 1.625,9.5 1,4 1.625,4 1.75,11.5 2,2 2.625,28.5 -3.25,18 -1.375,4 h -0.5 l -0.5,0.5 v 0.5 h -0.5 l -0.5,0.5 v 0.5 h -0.5 l -0.5,0.5 v 1.5 h -0.5 l -0.5,0.5 v 0.5 1 h -0.5 l -0.5,0.5 v 0.5"
       id="path909" />
  </g>
  <g
     id="g910">
    <path
       fill="#000000"
       fill-rule="evenodd"
       d="m -12,1226 v -1 h -1 v 1 h 1 m -3,2 v -1 h -1 v 1 h 1 m -2,1 v -1 h -1 v 1 h 1 m -2,1 v -1 h -1 v 1 h 1 m 53,-10 v -1 h -1 v 1 h 1 m 13.5,1 0.5,-1 h -2.5 l -0.5,1 h 2.5 m 12.5,1 h -2 v -0.5 L 57.5,1221 H 56 55 l -0.5,-1 -0.5,0.5 v 0.5 h -5.5 l -0.5,0.5 0.5,0.5 4,1 2,2 2.5,0.5 3,1.13 6,3.87 4,2 8.5,6.5 3,3 h 2 l 2,2 h 1 l 5.5,5.5 1,3 1,0.5 v -0.5 l -2.25,-7.25 -1.5,-0.5 -0.25,-1.25 -4.5,-4.5 -2.5,-1.5 -4,-3 -2.75,-1.75 -0.5,-1.5 -2.75,-1.75 -4,-3 -3,-1.87 -3,-1.13 -2,-0.5 v -1.5 l -0.5,-0.5 -0.5,0.5 v 0.5 m 48,74 -0.625,-10 -1.125,-5 -3.875,-10 -0.375,-1.5 -1,-0.5 v 0.5 l 0.625,4.5 4.75,17 0.625,4.5 1,0.5 m 1,2 v -1.5 l -1,-0.5 v 1 l 1,1 m 0,5 v -1.5 l -1,-0.5 v 1 l 1,1 m -114.5,72 0.5,-1 h -0.5 l -1.5,-0.5 -2,-0.87 -2.5,-0.63 -2,-2 -4,-2 -2,-2 h -2 l -0.5,0.5 1.5,1.5 2,1 5.5,3.5 4,1.88 3.5,0.62 M 109,1307 v -1 h -1 v 1 h 1 m 1,22 v -2.5 l -0.5,-0.5 -0.5,0.5 v 2.5 2.5 l 0.5,0.5 0.5,-0.5 v -2.5 m -1,6 v -1.5 l -1,-0.5 v 1 l 1,1 m -1,4 v -2.5 l -1,-0.5 v 2.5 l 1,0.5 m -11,11 v -1 h 0.5 l 0.5,-0.5 v -0.5 h 0.5 l 0.5,-0.5 v -1.5 h 0.5 l 0.5,-0.5 v -0.5 h 0.5 l 0.5,-0.5 v -0.5 l 1.375,-4 3.25,-18 -2.625,-28.5 -2,-2 -1.75,-11.5 -1.625,-4 -1,-4 -1.625,-9.5 -2,-2 -1.25,-4.25 -1.25,-0.25 -1.5,-1.5 -5.25,-7.25 -1.75,-0.75 -2,-1 -3,-2 -9,-7 -4,-2 -1.5,-0.5 -4,-4 -3.5,-0.62 -7,-2.75 -6.5,-1.63 -3,-3 -3.25,-0.25 -0.25,-1.25 -1,-0.5 -0.25,2.75 -1.25,0.25 -1,1 -1,-1 h -1 l -2,-2 -2.5,-0.62 h -2 l -2.5,0.62 -1,1 -1,-1 -1,1 -4.5,0.5 -8,2 -11.75,4.75 -0.75,1.75 v 2 l 0.875,2 0.625,2.5 -1.5,1.5 -1,-1 h -1 l -2.5,-2.5 -0.125,-4.25 -1.875,0.25 -10,6 -1.5,0.5 -1.5,1 h -0.5 l -0.5,0.5 v 0.5 h -0.5 l -1,1 h -0.5 -0.5 l -0.5,0.5 v 0.5 h -0.5 l -0.5,0.5 v 0.5 h -0.5 l -0.5,0.5 v 0.5 h -0.5 l -0.5,0.5 v 0.5 h -0.5 l -0.5,0.5 v 0.5 l -2,0.5 -2,1 -5.5,3.5 -1.5,1.5 -6,8 -1.5,2.5 -1.875,4 -0.625,2.5 -2,2 -1.625,9.5 -0.125,2.75 0.75,0.25 -0.375,14 1,7 3.75,11 1.125,4 3,8 0.5,1.5 2,2 0.5,2.5 1.5,4 1,3.5 3,3 v 1 l 3.5,3.5 h 0.5 v 1.5 l 2,2 0.25,1.25 1.25,0.25 4,4 2.5,0.63 7,2.75 3.5,0.62 2,2 1.5,0.5 7,4 2,0.88 8,2.12 5,1.88 3.5,0.62 1,1 1,-1 5.5,1.5 4.5,0.5 1,1 1,-1 11,-2 1,-1 1,1 1,-1 3.5,-0.62 2,-0.63 5.5,-0.75 1,-1 1,1 1,-1 25.5,-5.75 4,-1.62 2.5,-0.63 3,-3 h 1 l 4.5,-4.5 v -1 l 2,-2.5 h 0.5 l 0.5,-0.5 v -0.5 m -98.5,26 0.5,-1 h -1.5 l -0.5,1 h 1.5 m 72.5,-3 h -1 l -3,0.5 -5,1.88 -8,2.12 -14.5,2.5 -1,1 -1,-1 h -1 l -1,1 -1,-1 -1,1 -1,-1 -1,1 h -4 l -1,1 -1,-1 -11.5,0.88 -13.5,-1.88 -1,1 -1,-1 H -6 l -2,-0.5 -2,-1 -2,-0.5 v -0.5 l -0.5,-0.5 h -0.5 -1.5 l -1,-1 H -16 v -0.5 l -0.5,-0.5 h -0.5 -0.5 l -1,-1 H -19 v -0.5 l -0.5,-0.5 H -20 l -3,-1.5 -1.75,-0.75 -0.25,-1.25 -4.5,-4.5 -1.25,-0.25 -0.25,-1.25 -1.5,-1.5 -1.25,-0.25 -0.25,-1.25 -1.5,-1.5 h -1 l -2.5,-2.5 v -1 l -3.5,-3.5 h -1 l -1.5,-1.5 -5.5,-7.5 -2,-4 -0.5,-1.5 -2,-2 -1,-4.5 v -0.5 l -0.5,-0.5 H -57 l -0.625,-3 -2.875,-8 -3.5,-22.5 -1,-0.5 v -17.5 l 2,-2 0.5,-3.5 1.125,-4 5,-11 0.625,-1.75 1.5,-0.5 6.25,-8.25 2.5,-2.5 1.25,-0.25 4.25,-6.25 2.5,-2.5 5,-3 3,-3 2.5,-0.62 11,-6.88 4,-2 2,-0.75 8,-2.37 11,-3.63 14,-2.12 12.5,0.37 1.5,1.5 0.25,1.25 2.75,0.63 h 7 l 2.5,0.62 1,1 1,-1 11,1 2,2 3,1 2,2 h 2 l 6.5,6 v 0.5 l 0.5,0.5 H 80 v 0.5 l 0.5,0.5 H 81 v 0.5 l 2.5,2.5 H 85 v 0.5 l 0.5,0.5 H 86 v 0.5 l 0.5,0.5 H 87 l 8,7.5 0.5,1.5 1,2 0.5,2 v 0.5 l 0.5,0.5 H 98 v 1 l 0.5,2 2.875,7 0.625,2.5 2,2 v 2 l 2,2 4.25,12.25 0.75,0.25 v 4.5 l 0.5,0.5 h 0.5 v 6.5 l 1,1 -1,1 1,1 v 20.5 l 1,1.5 -1,1 0.25,16.5 -0.75,3 -3.125,8 -0.375,1.5 -2,2 v 2 l -4,4 v 1 l -2.5,2.5 h -2 l -3,3 h -2 l -4,4 -1.5,0.5 -7,3 -7,3 -2,0.5 h -0.5 l -0.5,0.5 v 0.5"
       id="path910" />
  </g>
</g>
</svg>
