<?xml version="1.0" encoding="UTF-8" standalone="no"?>
<svg
   width="634.91119"
   height="148.20361"
   viewBox="-702 0 634.91119 148.20361"
   version="1.2"
   id="svg924"
   xmlns="http://www.w3.org/2000/svg"
   xmlns:svg="http://www.w3.org/2000/svg"><defs
   id="defs924" />
<title
   id="title1">Notebook 3</title>
\n<g
   id="g931"
   transform="matrix(0.83962536,0,0,0.83987555,-651.69061,-1269.1215)">
  <g
     id="g948"
     transform="matrix(1.2165365,0,0,1.3464084,35.111603,-541.90179)">
    <g
       id="g243">
      <path
         fill="none"
         stroke="#000000"
         stroke-width="6.25"
         stroke-linecap="round"
         stroke-linejoin="round"
         d="m 222.203,1583.94 -3.748,-3.97 -0.397,-0.22 -0.444,1.66 -0.815,0.02 0.267,-1.88 0.072,0.6 0.79,-0.16 0.861,1.42 2.633,0.77 1.246,1.89 3.832,1.76 1.324,1.88 0.752,-0.09 2.34,1.53"
         id="path243" />
    </g>
    <g
       id="g244">
      <path
         fill="none"
         stroke="#000000"
         stroke-width="6.25"
         stroke-linecap="round"
         stroke-linejoin="round"
         d="m 253.132,1607.09 -0.473,-0.62 -0.046,1.22 0.708,-0.09 1.177,-1.19 0.612,0.34 0.732,-0.38 -0.601,0.95 -2.292,0.9 -4.423,3.13 -3.868,3.69 -2.037,3.11 -3.106,7.49 -1.438,5.66 -0.52,4.06 0.423,3.81 4.818,5.72 5.814,3.5 3.908,1.12 1.261,-0.46 1.415,0.85 0.544,0.01 3.913,-3.22 4.835,-5.1"
         id="path244" />
    </g>
    <g
       id="g245">
      <path
         fill="none"
         stroke="#000000"
         stroke-width="6.25"
         stroke-linecap="round"
         stroke-linejoin="round"
         d="m 273.632,1617.2 -1.295,-1.38 -0.385,-0.16 -0.114,0.44 0.02,-0.65 0.972,-0.43 1.175,0.44 4.208,-1.51 3.871,0.35 5.438,-0.59 9.779,0.08 5.408,-0.79 1.081,-0.68 1.411,-2.29 0.169,0.63 0.228,-1.24 -0.579,0.35 -1.078,-1.08"
         id="path245" />
    </g>
    <g
       id="g246">
      <path
         fill="none"
         stroke="#000000"
         stroke-width="6.25"
         stroke-linecap="round"
         stroke-linejoin="round"
         d="m 294.592,1582.72 -1.209,1 -0.448,-0.72 -0.644,0.35 -2.674,8.57 -0.38,5.12 0.234,32.19 1.46,7.21 0.867,2.21 1.785,2.28 0.122,0.85 -0.298,-0.78 -0.206,0.61"
         id="path246" />
    </g>
    <g
       id="g247">
      <path
         fill="none"
         stroke="#000000"
         stroke-width="6.25"
         stroke-linecap="round"
         stroke-linejoin="round"
         d="m 221.192,1608.9 0.378,-0.04 -0.813,1.46 -0.372,3.31 -0.618,23.41 0.449,3 1.103,0.82 1.116,-4.02"
         id="path247" />
    </g>
    <g
       id="g248">
      <path
         fill="none"
         stroke="#000000"
         stroke-width="6.25"
         stroke-linecap="round"
         stroke-linejoin="round"
         d="m 517.818,1609.29 0.272,-5.43 -0.772,-1.5 -3.47,0.94 -0.239,-1.13 -1,-0.19 -2.411,3.2 -2.452,1.53 -6.675,9.92 -2.657,7.33 -1.417,7.54 1.505,6.18 1.618,3.01 1.573,1.6 7.363,3.83 6.019,1.15 3.046,-0.81 4.291,-0.2 6.803,-2.92 7.166,-6.93 3.368,-5.37 0.598,-3.87 -0.24,-4.87 -1.086,-2.72 -0.504,-4 -1.864,-1.71 -3.409,-6.5 -0.69,-0.83 -0.736,-0.06 -0.346,-1.72 -3.102,-1.79 -0.746,0.3 -1.231,-0.65 -2.307,0.14 -3.468,1.54 -2.491,1.83 -3.28,3.52"
         id="path248" />
    </g>
    <g
       id="g249">
      <path
         fill="none"
         stroke="#000000"
         stroke-width="6.25"
         stroke-linecap="round"
         stroke-linejoin="round"
         d="m 387.316,1604.59 -0.14,-2.36 1.053,-2.67 1.122,2.46 -1.645,24.91 1.649,13.61 -0.372,2.15 0.268,-10.39 3.333,-14.54 5.409,-15.09 2.758,-4.29 1.478,-3.4 3.235,-2.66 1.522,-2.22 0.398,0.83 1.495,0.33 1.191,-0.84 1.462,1.56 1.936,0.96 4.128,4.13 1.143,2.94 1.279,7.84 0.753,24.29 1.01,12.87 0.866,3.33 0.688,0.08 1.052,-0.82 2.145,-4.16 1.31,-1.31 2.897,-7.09"
         id="path249" />
    </g>
    <g
       id="g250">
      <path
         fill="none"
         stroke="#000000"
         stroke-width="6.25"
         stroke-linecap="round"
         stroke-linejoin="round"
         d="m 445.584,1617.29 -0.029,1.63 0.965,0.71 1.051,-0.06 1.029,0.88 1.995,-0.51 1.371,1.05 2.757,-0.01 2.35,-1.63 1.791,-0.39 5.374,-5.2 0.351,0.4 1.647,-1.03 2.815,-6.49 -0.076,0.74 1.008,-1.83 -0.835,-5.14 -1.582,-2.93 -1.614,-1.2 -3.765,-1.09 -0.657,-0.63 -2.881,0.65 -9.472,6.23 -5.077,5.04 -5.355,8.84 -2.311,5.29 -0.987,5.03 0.485,4.26 3.851,7.45 3.608,3.95 5.925,4.67 4.368,2.45 4.549,0.32 7.32,1.48 2.429,-0.1 2.3,-0.87 4.652,-3.34 6.518,-8.08"
         id="path250" />
    </g>
    <g
       id="g251">
      <path
         fill="none"
         stroke="#000000"
         stroke-width="6.25"
         stroke-linecap="round"
         stroke-linejoin="round"
         d="m 55.8759,1609.67 -0.7414,-2.76 -0.6125,-0.24 -0.2878,0.59 -1.3267,17.77 0.6123,10.59 1.205,10.3 0.3452,0.08 -1.1454,4.24 -0.5976,-13.16 0.4295,-4.95 2.012,-7.2 3.9744,-10.11 2.8252,-5.61 3.5772,-3.45 3.6754,-1.96 5.6796,1.01 3.006,6 1.5793,6.1 2.101,23.54 1.1871,5.24 1.2121,2.85 0.3692,0.58 0.4676,-0.91 2.0665,-0.95 3.2223,-2.63"
         id="path251" />
    </g>
    <g
       id="g252">
      <path
         fill="none"
         stroke="#000000"
         stroke-width="6.25"
         stroke-linecap="round"
         stroke-linejoin="round"
         d="m 106.104,1635.83 -1.593,0.1 0.804,-0.94 3.128,-1.01 4.409,-2.27 8.268,-2.55 2.391,-0.2 5.548,-4.33 2.752,-1.69 0.897,-0.07 0.711,-0.79 3.625,-6.45 0.476,-3.76 -0.557,-2.41 -1.625,-3.43 -4.243,-4.54 -3.81,-1.13 -1.97,0.17 -1.256,-0.6 -1.336,0.31 -5.511,5.67 -7.263,9.1 -6.652,11.96 -3.146,6.71 -0.7962,6.87 0.3688,2.61 0.8544,1.96 5.166,3.58 2.933,0.82 0.773,1.12 2.948,1.24 1.163,-0.89 1.259,-0.21 7.642,-0.52 0.954,0.91 2.949,0.37 1.014,-1 1.981,-0.63 3.741,-0.46 0.698,-1.3"
         id="path252" />
    </g>
    <g
       id="g253">
      <path
         fill="none"
         stroke="#000000"
         stroke-width="6.25"
         stroke-linecap="round"
         stroke-linejoin="round"
         d="m 185.686,1611.08 -2.432,-3.75 -1.72,-1.14 -0.35,-0.79 -0.974,0.35 -1.288,-0.62 -1.352,-2.4 -1.289,0.83 -2.24,-0.82 -2.474,0.92 -0.644,-0.53 -2.463,0.4 -6.207,4.45 -6.084,6.31 -3.615,4.75 -5.178,8.27 -3.272,9.28 -0.514,2.86 0.224,3.42 3.479,4.54 4.302,1.73 1.789,-0.77 3.637,-0.29 3.125,-0.92 4.445,-2.99 3.06,-1.39 4.516,-3.54 6.164,-7.96 8.984,-18.54 3.011,-9.2 3.28,-14.38 3.999,-23.41 1.207,-11.15 0.058,-5.22 -0.302,0.29 -0.773,-0.53 -0.205,1.42 -1.336,2.38 -3.638,12.58 -2.103,11.79 -4.455,39.04 -0.485,16.42 1.746,7.06 4.388,6.55 2.69,0.46 1.485,-0.45 4.298,-4.41 1.922,-3.4 5.014,-6.16"
         id="path253" />
    </g>
    <g
       id="g254">
      <path
         fill="none"
         stroke="#000000"
         stroke-width="6.25"
         stroke-linecap="round"
         stroke-linejoin="round"
         d="m -58.797,1545.16 -0.341,-8.07 0.7316,-8.55 -0.0754,-0.63 -0.465,1.1 -5.3078,31.11 -1.4981,16.07 -1.0454,32.52 -1.6114,20.52 -2.4399,14.6 -2.6214,6.22 -0.219,0.33 -0.2983,-1.01 -0.1192,0.49 0.3064,-1.35 -0.8473,-4.81 -0.3424,-9.85 1.2294,-8.34 2.2358,-8.54 5.2351,-10.1 3.4837,-5.48 0.8317,-1.02 0.4907,0.24 1.7961,-1.18 2.6316,-3.28 4.9809,-1.86 4.7162,-0.13 2.067,0.13 6.082,2.25 6.4644,6.91 3.0435,5.26 3.0794,8.42 1.1692,5.23 0.0597,3.47 -1.2684,5.03 -2.7074,4.47 -2.7638,1.45 -2.0309,2.41 -5.2848,3.63 -2.278,0.9 -5.2537,0.72 -1.4015,0.94 -3.1713,0.94 -7.5338,0.94 -6.364,0.21 -3.1212,1.22 -1.6439,0.08 -2.598,-0.82 6.5762,-3.38"
         id="path254" />
    </g>
    <g
       id="g255">
      <path
         fill="none"
         stroke="#000000"
         stroke-width="6.25"
         stroke-linecap="round"
         stroke-linejoin="round"
         d="m -5.04773,1624.8 -2.04074,1.66 16.59778,-4.72 5.46419,-3.29 2.18,0.01 4.2802,-2.36 1.144,-0.16 2.4168,-2.58 1.53,-3.45 0.1174,-1.91 -0.577,-3.07 -1.4085,-3.3 -3.0035,-3.2 -0.6757,0.43 -2.2075,-0.23 -2.1771,-1.46 -5.7258,1.3 -7.26634,3.71 -7.0964,6.01 -6.85536,9.73 -2.0904,3.99 -2.1291,8.44 -0.1066,2.4 0.6981,4.03 2.5171,5.89 2.22267,2.48 2.71585,1.89 10.74563,4 6.56395,0.91 5.8627,-0.19 1.2587,0.53 5.7599,0.43 4.5537,-1.58 3.389,-3.86 3.0962,-2.66"
         id="path255" />
    </g>
  </g>
</g>
</svg>
