<?xml version="1.0" encoding="UTF-8" standalone="no"?>
<svg
   width="236.45233"
   height="251.12024"
   viewBox="-702 0 236.45233 251.12024"
   version="1.2"
   id="svg924"
   xmlns="http://www.w3.org/2000/svg"
   xmlns:svg="http://www.w3.org/2000/svg"><defs
   id="defs924" />
<title
   id="title1">Notebook 3</title>
\n<g
   id="g937"
   transform="matrix(1.1206331,0,0,1.0426595,-600.78901,-828.37634)">
  <g
     id="g92">
    <path
       fill="none"
       stroke="#000000"
       stroke-width="4"
       stroke-linecap="round"
       stroke-linejoin="round"
       d="m -51.749,868.814 -1.1402,-0.114 -0.5868,-0.495 0.0926,-0.584 0.4739,0.966 0.8674,0.469 0.9036,1.475 2.2345,6.485 5.3028,28.409 2.5893,10.09 4.1439,20.475 2.7544,16.755 5.6196,28.734 5.261,34.021 2.3198,7.49 1.6177,3.52 2.8396,4.67 2.523,2.08 0.3374,0.07 0.8794,-1.64 0.229,-8.84"
       id="path92" />
  </g>
  <g
     id="g93">
    <path
       fill="none"
       stroke="#000000"
       stroke-width="4"
       stroke-linecap="round"
       stroke-linejoin="round"
       d="m -46.9661,864.013 -1.8985,-0.663 -0.5055,-1.069 -1.4685,0.579 -0.4057,-0.556 -0.6068,0.414 -0.0349,-0.565 0.1611,0.462 0.2065,-0.392 0.5919,0.259 1.0903,-0.578 4.4971,-0.67 6.933,-0.714 4.0406,-0.072 8.2064,-0.994 3.701,-0.926 3.9823,-0.217 6.3369,-1.135 4.8062,-0.365 8.210874,-1.261 5.198426,-1.969 13.0128,-1.349 2.4506,-1.262 2.5053,-0.564 2.3658,0.406 6.957,-0.793 4.4443,-1.01 10,0.182 1.8379,-0.869 1.9842,-0.463 1.9164,0.606 3.5587,0.312 6.0029,0.174 4.8869,0.722 1.9396,-0.326 3.504,0.357 0.8429,0.434 2.9285,-0.062 0.4955,0.097 0.2053,0.415 2.0852,-1.023 1.7054,-0.468 0.1559,0.191 1.1087,-0.55 0.6754,0.153 1.5834,-0.759 0.5683,-0.784 1.6314,0.502 0.9994,-0.355 2.0605,0.217 0.2594,0.588 0.5912,-0.665 1.9642,0.606 0.2604,-0.287 1.1367,-0.121 0.3316,0.81 0.4757,0.035 0.4125,-0.694 1.295,0.173 0.8681,1.157 1.0226,-0.637 1.3178,-0.32 0.472,0.416 0.861,-0.461 1.403,-0.017 0.279,0.452 0.36,-0.006 0.205,-0.431 0.568,0.075 0.076,-0.302 0.117,0.323 -0.02,-0.396 -0.293,0.272 -0.118,-0.233 0.295,0.034 -0.046,0.28 0.058,-0.291 -0.046,0.3 0.104,-0.354 0.033,0.602 -1.251,3.065 -0.564,3.925 0.24,13.543 2.221,17.819 0.599,1.1 0.515,3.629 2.321,10.278 1.126,9.136 1.183,16.071 0.858,6.98 0.519,1.941 0.302,5.815 0.503,1.846 1.127,9.36 0.496,1.36 1.606,10.535 0.257,3.18 -0.434,5.574 -1.349,4.548 -3.009,15.432 -0.494,5.619 -0.833,3.254 -0.041,1.47 -0.044,-0.81 0.236,-0.9 0.199,1.62 0.003,-0.62 -0.416,0.55 -0.289,-0.43 0.049,1.05 -0.23,-0.56 -0.922,-0.04 -0.752,0.46"
       id="path93" />
  </g>
  <g
     id="g94">
    <path
       fill="none"
       stroke="#000000"
       stroke-width="4"
       stroke-linecap="round"
       stroke-linejoin="round"
       d="m -28.6642,1021.24 -0.31,-0.09 0.2609,-1.73 0.8815,-1.16 1.7476,-1.32 4.4703,-1.38 5.7715,-0.21 1.3992,-1.1 1.5873,-0.56 1.4927,0.55 3.61466,-0.16 2.09742,-0.24 4.48925,-1.32 12.25107,-0.76 5.3647,-1.87 2.802,0.14 5.7475,-0.72 11.8642,-1.95 11.5839,-1.36 6.0556,-1.31 11.9131,-0.98 2.6863,0.54 2.7642,-0.04 2.6563,-0.84 5.2749,-0.5 6.6543,-0.01 9.4364,-1.22 3.0018,0.29 1.2636,-0.41 4.175,-0.45 1.646,0.21 2.759,-0.49 0.81,-0.76 0.762,0.28 -0.161,0.5 0.167,-0.42 0.063,0.58 0.365,-0.03 0.239,-0.66 0.297,0.68 h 0.791 l 0.119,1.07 0.422,-0.79 -0.027,0.59 0.151,-0.24 -0.06,-0.85 0.178,1.09 -0.056,-1.08 0.305,-0.5 0.464,0.3 0.517,-0.34 0.043,0.4 0.388,-0.08 0.145,-0.41 0.207,0.28 0.689,-0.486 0.189,0.306 0.225,-0.757 -0.026,0.567 0.32,-0.429 0.028,0.509 0.302,-0.39 0.504,0.66 0.684,-0.835 0.471,0.026 0.43,-0.775 -0.016,0.326 -0.24,-0.045 -0.321,-0.865 -0.871,-0.657 -0.712,-1.895 -0.219,0.43 -1.079,-0.349 -0.518,-0.911 -1.792,0.36 -0.818,-1.681 -0.223,0.766 -0.814,0.244 -0.355,-1.446 -0.463,0.911"
       id="path94" />
  </g>
  <g
     id="g95">
    <path
       fill="none"
       stroke="#000000"
       stroke-width="4"
       stroke-linecap="round"
       stroke-linejoin="round"
       d="m -81.7813,838.539 -1.5775,-4.285 -0.0404,-1.234 0.2967,0.902 0.6744,17.946 2.1208,23.294 2.438,21.961 2.4508,17.143 3.582,19.671 4.7684,19.328 1.7514,5.594 0.4831,0.06 0.416,0.887 0.361,2.046 1.949,5.84 0.7856,6.401 0.4504,1.145 0.1071,4.079 0.5317,4.111 -0.2312,1.119 -0.1807,-1.907 -0.108,-0.304 -0.1395,0.472 -0.1611,-0.18 -1.4482,-7.046"
       id="path95" />
  </g>
  <g
     id="g96">
    <path
       fill="none"
       stroke="#000000"
       stroke-width="4"
       stroke-linecap="round"
       stroke-linejoin="round"
       d="m -82.7728,828.012 -0.8783,0.205 -1.2438,-1.129 -0.0265,0.658 -0.0399,-1.072 0.6489,-0.203 0.5475,0.455 1.5495,-0.51 2.6321,-0.169 15.3607,-3.937 3.7551,-0.544 10.6446,-3.138 5.1139,-0.845 2.5627,-0.951 8.2884,-2.014 5.8334,-0.427 5.9898,-1.831 23.83225,-5.76 2.59369,-0.602 4.78564,-0.484 9.95602,-2.913 3.1705,-0.157 1.3387,-0.612 4.1362,-0.833 1.6218,0.22 1.7967,-0.189 0.4997,0.546 -0.7095,0.562 0.2648,-1.046 0.2846,0.41 0.2841,-0.292 0.5577,0.102 0.277,-0.706 0.2922,0.388 1.7566,0.031 0.5553,-1.119 0.2128,0.474 1.928,0.477 0.4435,-0.345 0.4328,0.277 6.4904,0.232 1.4206,-0.817 2.3357,-0.003 1.0346,-0.848 0.4448,0.402 1.4229,-0.015 0.7988,-1.343 1.0748,1.257 0.272,-0.792 0.1987,1.109 -0.0135,-0.722 -0.0814,0.668 -0.2974,0.315 -0.0126,-0.856 -0.1879,0.63 0.2007,0.621 0.2315,-0.643 -0.1408,1 0.1604,-1.122 0.0877,1.084 -0.1566,-1.322 0.2139,0.241 0.13,-0.283 0.6399,0.913 0.5588,0.163 0.3413,0.788 0.0472,-0.379 0.3427,0.501 0.405,-0.508 0.2908,-0.058 0.2197,0.491 0.2616,-0.218 0.1002,0.773 0.4085,-0.572 -0.1644,0.128 -0.0562,-0.307 -0.0417,0.713 -0.077,-0.962 0.1541,0.194 0.2828,-0.704 0.3234,0.239 0.0705,-0.404 0.1895,0.137 0.0221,-1.454 0.051,1.27 0.5482,0.201 0.12,-0.738 1.8096,2.684 1.9123,6.181 0.9542,5.48 0.6166,3.915 0.4243,8.367 0.058,0.542 0.2735,0.085 0.2209,3.278 0.8891,3.521 1.2166,2.328 0.5338,0.28"
       id="path96" />
  </g>
  <g
     id="g97">
    <path
       fill="none"
       stroke="#000000"
       stroke-width="4"
       stroke-linecap="round"
       stroke-linejoin="round"
       d="m -66.4084,990.111 -1.579,0.946 -0.2732,-0.766 -0.4995,-0.24 -0.3983,1.26 0.2336,-0.485 0.4249,0.155 0.5777,-0.417 4.0209,-1.057 3.7457,-0.545 11.4066,-2.955 2.7523,-0.15 2.5818,-1.278 2.962,-0.859 1.5255,-1.116 1.5895,-0.635 1.489,0.068 5.788,-1.149 6.5043,-0.516 0.7432,-0.888 0.7583,-0.296 0.4286,0.748 0.8865,0.577 -0.3473,0.724 -0.7692,0.636 -0.2627,-0.466 -0.4692,0.048 -0.3964,0.728 -1.8214,1.622 -2.775,1.866"
       id="path97" />
  </g>
  <g
     id="g98">
    <path
       fill="none"
       stroke="#000000"
       stroke-width="4"
       stroke-linecap="round"
       stroke-linejoin="round"
       d="m -84.4567,865.238 -0.2286,-2.444 -1.8526,-6.771 -1.4208,-3.932 -0.3572,-1.981 0.0107,-1.534 0.0484,1.425 0.4461,-0.138 0.8567,2.382 0.7061,-0.033 0.2769,0.786 0.7206,-0.45"
       id="path98" />
  </g>
  <g
     id="g99">
    <path
       fill="none"
       stroke="#000000"
       stroke-width="4"
       stroke-linecap="round"
       stroke-linejoin="round"
       d="m -82.675,838.369 -2.0457,-1.191 0.1597,-0.277 1.1391,0.427 0.4256,-0.539 1.5569,-0.197 4.8369,-2.003 1.1681,-0.2 2.5505,-1.424 9.7944,-4.09 16.3306,-4.436 14.7176,-4.695 15.8735,-5.987 6.29713,-1.495 9.486942,-2.969 22.770228,-5.357 11.0258,-0.507 2.4099,0.49 0.7464,-0.435 1.1591,0.664 0.3408,-0.602 0.0889,0.588 -0.4702,0.265 0.1619,-1.024 0.2884,0.362 0.4262,-0.062 0.0865,-0.379 0.1982,0.987 -0.1754,-1.95 -0.042,0.627 -0.1175,-0.412 -0.1903,0.141 0.0293,-0.983 -0.2003,0.585 -0.3504,-0.12 0.3386,1.022 0.1799,-0.576 0.038,0.816 0.3206,-0.972 0.1895,0.81 0.4224,0.286 0.1714,-0.727 0.896,-0.577 0.6381,0.44 2.5856,-0.834 5.9597,-0.576 3.3631,-1.002 1.9554,-0.116 3.7498,-1.217 1.7412,-1.029 8.0994,-1.435 -0.0189,0.45 -0.4224,-0.203 -0.0268,0.757 -0.2018,-0.521 0.1009,0.537 0.1997,-1.016 -1.0255,1.361 -0.1244,-0.227 -0.0147,0.823 -0.1372,-0.39 -0.3413,0.941 0.0867,1.438 -0.1764,-0.269 0.2293,-0.039 0.0927,0.467 -0.1447,-1.428 0.2828,1.777 -0.1353,-1.167 -0.4309,1.718 -0.1818,-1.695 -0.2035,-0.288 -0.2007,0.612 -0.4807,9.396 0.2885,8.395 1.1805,7.463 3.7552,8.875 4.5707,8.09 0.0725,-0.223 0.4008,0.442 0.1156,-0.491 -0.1175,0.325 -0.2457,-0.457 -0.4774,0.406"
       id="path99" />
  </g>
  <g
     id="g100">
    <path
       fill="none"
       stroke="#000000"
       stroke-width="4"
       stroke-linecap="round"
       stroke-linejoin="round"
       d="m -53.9132,868.905 -0.5227,-0.965 -0.9166,0.052 0.1614,-0.958 0.6306,-0.052 2.3024,-1.488 3.0983,-1.355 9.6601,-3.556 3.9637,-1.061 6.5579,-1.034 23.82032,-6.43 6.40534,-1.442 19.63374,-3.265 6.71,-0.753 29.3779,-4.637 8.9583,-2.063 10.6159,-1.259 6.33,-1.392 1.8176,0.082 4.438,-0.556 2.7174,-1.234 1.9586,0.218 0.5247,-1.128 -0.0262,0.972 -0.4226,-0.602 -0.759,1.037 -0.1276,-0.497 -0.2517,0.559 -0.9875,0.64 -0.2602,-0.253 -0.2223,0.21 0.6919,0.069 0.2185,-0.654 -0.2612,0.485 -0.3103,-0.194 -1.0331,0.325 -0.496,-0.429 -0.2061,0.322 -0.898,0.163 -0.6229,-0.678 -1.004,0.717 -2.0639,0.699 -0.8038,0.184 -0.8993,-0.344 -3.3328,1.336 -14.0245,1.851"
       id="path100" />
  </g>
  <g
     id="g101">
    <path
       fill="none"
       stroke="#000000"
       stroke-width="4"
       stroke-linecap="round"
       stroke-linejoin="round"
       d="m -43.4772,861.672 -2.8684,0.112 -0.7469,0.861 0.1031,-0.42 10.6862,-0.713 10.5131,-1.969 12.7183,-1.913 2.7273,-0.694 17.89339,-2.631 18.77521,-3.503 3.0532,-0.979 3.2323,-0.553 12.8416,-1.98 3.0761,-0.099 6.5974,-2.008 12.3318,-1.157 2.6708,-1.047 2.6632,-0.567 2.5052,0.216 6.5653,-0.495 1.8445,-0.303 1.6914,-0.848 1.6298,-0.334 1.4399,0.256 3.3279,-0.274 1.4565,-1.045 0.5224,0.369 0.7724,-0.016 -0.0523,-0.621 -1.0694,0.724 -0.7076,-0.277 -2.559,0.893 -2.2147,0.228 -5.1895,1.297 -6.6184,2.13 -2.4967,1.466 -1.3918,0.393"
       id="path101" />
  </g>
  <g
     id="g102">
    <path
       fill="none"
       stroke="#000000"
       stroke-width="4"
       stroke-linecap="round"
       stroke-linejoin="round"
       d="m -40.2068,879.406 -1.0478,-1.743 -1.9197,-5.043 0.4731,1.251 0.3545,2.902 0.7187,13.894 1.1066,9.067 0.4565,1.411 3.1905,29.783 3.7148,26.692 3.8359,15.436 3.984,11.35 1.5475,5.632 2.8201,12.142 2.7975,14.03 0.5853,1.28 0.2487,-0.78 -0.3335,0.82 -0.2574,-0.85 -0.2795,-0.2 -0.3065,0.34 -0.1714,-0.71 -0.6947,0.47 -0.3685,-0.61 -0.7345,0.49 -0.2114,0.62 -0.3427,-0.69 -0.7954,0.8 -0.461,-0.23 -0.7384,1.32 -0.2436,-0.13 -0.8274,1.98 -0.2333,-0.25 -0.8809,1.89 -0.0625,-0.55 0.0304,0.58 0.143,-0.53 0.2058,0.13 0.0394,-0.84 1.0554,-0.51 0.3429,-0.74 0.4682,-0.23 0.2684,0.45 1.3922,0.03 1.377,-0.58 2.913,-0.02 2.7763,-0.9 7.40218,-0.89 9.17249,-1.91 4.18573,-1.61 9.2039,-1.9 5.1389,-1.76 10.6948,-1.1 5.3762,0.04 13.5454,-2.19 2.774,0.83 2.903,0.03 2.6898,-1.17 10.3126,-1.72 4.6146,-0.08 8.4016,-1.3 3.5081,0.01 6.3697,-1.94 2.5265,-0.16 5.3124,-2.583 1.4563,-1.203 2.023,-0.109 0.508,-0.298 0.453,0.456 0.224,-0.19 -0.009,1.397 0.351,0.263 2.732,0.285 0.426,-1.219 0.779,2.491 0.037,-0.749 0.111,0.619 0.489,-0.425 0.896,0.625 0.1,-0.49 0.069,0.28 0.417,-0.424 0.007,0.624 0.213,-0.715 0.185,0.425 1.352,-0.752 0.256,0.267 1.117,-0.284 0.537,-0.593 1.117,-0.379 0.649,-0.035 0.109,0.248 0.068,-0.393 -0.388,0.126 0.329,-1.025 -0.187,0.645 0.094,0.318 0.177,-0.607 0.006,0.41 -0.141,0.295 -0.048,-0.464 -0.1,0.705 -0.082,-0.569 -0.382,-0.238 -0.278,0.445 -0.493,-1.327 -0.403,0.88 -0.255,-1.38 -0.359,0.362 -0.312,-1.84 0.045,0.354 -0.234,-0.202 -0.116,0.334 0.242,-0.339 0.183,0.614 -0.134,-0.312 -0.173,0.237 -0.123,1.216 0.421,-0.94 -0.241,-1.115 0.072,0.357 0.29,-0.092 -0.308,0.201 0.252,-0.326 -0.232,0.06 -0.023,-0.609 0.234,-0.979 -0.406,-6.602 0.118,-5.543 -0.373,-4.17 0.471,-5.596 -0.277,-3.696 0.318,-0.418 -0.006,0.649 0.032,-1.452 0.206,1.135 0.03,-0.764 -0.339,0.315 0.381,-1.973 -0.32,-2.8 -0.221,0.031 0.038,1.025 0.096,-0.678 -0.243,0.32 -0.817,-0.966 -0.619,-0.022"
       id="path102" />
  </g>
  <g
     id="g103">
    <path
       fill="none"
       stroke="#000000"
       stroke-width="4"
       stroke-linecap="round"
       stroke-linejoin="round"
       d="m -84.4398,836.573 -2.7522,-5.504 0.1184,-0.189 0.2118,0.381 0.1268,-0.253 0.2421,1.084 0.169,-0.382 -0.0424,0.681 0.1633,-0.456 0.2217,3.827 2.0243,15.856 1.2827,16.383 1.8796,9.601 1.3404,9.47 0.8978,2.827 2.1366,11.024 2.0052,6.354 0.7198,4.808 0.6752,0.853 0.8248,3.042 1.0636,5.748 2.858,10.76 1.0054,8.267 1.142,15.992 1.4088,5.568 0.3697,5.795 1.41,5.467 1.2609,3.084 0.2739,-0.059 1.0093,3.824 0.1788,-0.281 0.3164,0.136 0.4518,1.959 0.1513,-0.635 0.1294,0.46 -0.089,-0.995 -0.3978,-0.343 0.0402,-1.914 -1.5034,-8.811"
       id="path103" />
  </g>
  <g
     id="g104">
    <path
       fill="none"
       stroke="#000000"
       stroke-width="4"
       stroke-linecap="round"
       stroke-linejoin="round"
       d="m -80.343,839.708 -0.5887,0.071 -1.4568,-1.544 -0.4357,0.346 -1.3096,-2.993 -0.1083,-0.715 1.3856,-3.38 0.0315,0.329 1.2428,-1.084 3.2447,-1.401 0.8584,0.025 0.8326,0.55 5.7576,-2.775 2.9987,-0.429 1.5671,-0.905 3.7706,-1.23 8.4742,-2.029 9.2081,-3.185 2.5759,-0.079 2.6771,-0.526 2.5961,-1.377 2.8024,-0.919 24.71882,-7.054 5.37689,-0.623 14.92099,-4.117 10.3487,-2.015 9.2001,-1.083 1.0782,0.17 3.7148,-0.306 1.8681,0.986 0.0702,1.169 0.3003,-1.158 0.775,-0.358 1.8237,0.121 0.6081,-0.49 0.1619,0.213 0.1547,-0.407 0.3127,0.387 0.3496,-1.038 0.1113,0.556 0.409,0.23 0.3248,-0.822 0.4027,0.509 0.7036,0.206 0.6513,-1.069 0.6365,0.405 0.6056,0.023 1.0567,-0.606 2.134,0.511 0.9512,-1 0.7967,0.623 3.1327,0.239 0.3844,-0.425 0.5674,0.431 0.3757,-0.191 -0.2516,-0.114 0.1012,-1.156 0.1489,1.003 0.1473,-0.933 0.1847,0.858 0.2398,-0.493 0.3002,0.877 0.2881,-0.342 1.2884,0.834 0.1943,0.766 0.8642,0.986 0.4663,1.854 0.5906,3.419 1.2094,16.261 1.715,9.538 0.5623,1.453 1.3216,1.219 1.8934,0.703 0.8428,-0.27 0.1175,-0.393"
       id="path104" />
  </g>
  <g
     id="g105">
    <path
       fill="none"
       stroke="#000000"
       stroke-width="4"
       stroke-linecap="round"
       stroke-linejoin="round"
       d="m -57.8127,995.414 -0.5027,-0.815 -6.6679,-3.724 0.1528,-0.176 0.3518,0.088 0.0696,0.961 0.3334,0.406 -0.0115,-0.646 0.1248,0.358 0.4343,-1.12 0.3457,0.124 1.7653,-1.282 4.8675,-2.014 8.7952,-1.793 4.2367,-1.202 2.1888,-0.257 4.2502,-1.11 1.8337,-1.083 2.7092,-0.392 0.929,-0.813 1.1141,0.128 -0.5799,0.295 -0.5476,-0.449 -1.4189,1.634 -0.2799,-0.399 -1.0213,-0.093 -2.848,0.393 -3.6593,0.921 -2.097,1.228 -5.1424,1.249 -5.3297,2.497 -1.6895,1.124 -2.8315,1.28 -1.4104,0.26 -3.1765,1.689 -1.2863,1.202 -0.2894,-0.853 0.0042,0.67 0.2779,-0.719 0.4932,0.769 0.1597,-1.213 0.2475,0.686 0.8852,0.455 0.6331,-1.087 0.8444,1.019 1.4001,0.407 1.6254,-0.947 0.6371,0.176 1.6106,-0.417 2.8283,-1.539 4.823,-1.919 2.938,-1.846 2.654,-1.379 1.5476,-0.439 2.2666,-1.469 0.8518,0.084 0.3584,-0.568 -0.7875,0.133 -0.7538,1.004 -0.2131,-0.264 -0.596,0.088 -0.4661,-0.768 -0.3024,0.362 -6.044,1.962 -0.7296,-0.519 -0.904,0.074 -0.7597,0.886 -7.356,3.469 -1.2029,-0.021 -2.2816,1.45 -0.9068,1.316 -0.3577,-0.263 -1.3153,0.468 -0.4439,0.927 -1.1009,0.017 0.0882,1.919 -0.0115,-0.96 -0.2552,-0.035 0.2511,-0.448 0.2058,0.67 0.162,-1.555 0.0263,0.313 0.268,-0.469 -0.2757,0.408 -0.2463,-0.621 -0.1918,0.693 0.1808,-0.936 -0.2524,-0.01 0.0355,0.291 -0.3518,-4.468 -0.8515,-2.139 -0.5286,-3.411 -0.3309,-0.498 0.2076,-2.416 -0.2452,-2.252 -0.3819,-0.719 -0.338,-2.586 -1.2915,-2.785 -0.5544,-3.566 -0.7048,-0.894 0.1643,-1.027 0.0875,1.859 0.2635,-0.734 0.0538,0.472 -0.8342,4.683 -0.3459,6.565 0.1126,5.603 0.7007,4.088 0.4054,0.047 0.1298,0.405 -0.2922,-2.161 0.2287,0.617 0.1276,-9.521 -0.7022,-7.987 -5.4362,-32.908 0.9034,3.272 0.1625,2.051 1.3485,3.841 1.0912,6.84 2.0813,9.143 1.0209,6.787 2.0288,7.556 2.0546,6.174 0.5397,3.572 0.0496,3.783 -0.2748,-1.213 0.2913,-0.68 0.0125,0.372 -0.339,-6.936 -1.9809,-18.879 -2.6073,-12.433 -1.2072,-3.662 -1.5767,-6.792 -0.27,-3.375 0.1508,-4.377 0.8782,-2.732 0.9842,-1.445"
       id="path105" />
  </g>
  <g
     id="g106">
    <path
       fill="none"
       stroke="#000000"
       stroke-width="4"
       stroke-linecap="round"
       stroke-linejoin="round"
       d="m -17.4476,1021.17 -2.3906,-0.37 -0.2684,-0.86 0.1357,0.49 0.5549,-0.57 0.4817,0.48 1.3551,0.41 1.4514,-0.65 0.781,0.51 2.8435,0.28 2.4581,-0.85 2.90946,0.25 5.51037,-0.55 17.06717,-4.01 38.8124,-7.45 28.794,-4.06 4.052,-1.15 1.687,0.21 9.7818,-0.94 0.393,-0.09 0.5042,-1.17 -0.2603,0.38 -0.7261,-0.34 -4.1908,0.67 -1.0314,-0.68 -1.1856,-0.23 -1.1659,0.69 -4.4533,0.83 -3.3781,0.19 -9.1649,1.88 -3.9368,0.02 -9.8637,2.25 -10.8583,1.57 -4.6582,1.26 -11.6479,2.02 -2.3823,1.37 -2.5818,0.7 -2.4922,-0.12 -7.3982,1.72 -4.9097,1.59 -11.38242,1.62 -11.99288,3.15 -4.2561,1.78 -1.0646,-0.05 -2.4279,0.64 -0.8355,-0.32 -0.1535,0.47 1.8236,0.07 10.26454,-1.06 16.88896,-3.79 8.3573,-2.21 17.8493,-3.49 3.1687,-1.07 33.2035,-8.63 3.2909,0.07 3.2542,-0.51 3.1363,-1.45 8.915,-2.625 5.1847,-0.751 9.9472,-2.909 2.751,0.207 1.125,-0.877 2.332,-0.923 0.577,0.311 -0.109,-0.351 -1.378,0.03 -1.451,0.425 -4.157,-0.104 -6.4915,0.564 -26.7818,3.649 -2.8089,0.678 -13.8619,2.016 -14.3234,3.37 -5.3181,0.62 -10.2925,2.86 -4.9072,0.4 -13.37749,4.75 -10.98419,2.97 3.421875,-0.45 0.939945,-0.38 3.91662,-0.05 7.94824,-0.89 13.8776,-2.8 6.0865,-1.84 3.1457,-0.34 15.6171,-3.33 16.1045,-3 3.1642,-1.15 3.2095,-0.74 3.1705,-0.23 9.259,-1.547 5.7421,-1.436 11.8576,-1.434 3.374,-1.325 1.437,0.236 2.947,-0.335 1.105,-0.81 0.449,0.329 -0.665,0.274 -1.102,-0.683 -1.331,0.718 -3.759,0.014 -10.4907,1.748 -7.3862,1.467 -3.5669,1.305 -1.7149,-0.044 -8.5551,2.063"
       id="path106" />
  </g>
  <g
     id="g261">
    <path
       fill="#201c1c"
       fill-rule="evenodd"
       opacity="0.500008"
       d="m 53,937 -1.625,-5 -0.125,-1.75 1.75,0.25 2,0.875 5,1.625 -1.5,2 -1.5,0.5 -2,1 -2,0.5"
       id="path261" />
  </g>
  <g
     id="g262">
    <path
       fill="#201c1c"
       fill-rule="evenodd"
       opacity="0.500008"
       d="m 26,952 v -0.5 L 25.5,951 H 24 l -5,-5.5 -1.25,-3.5 -0.75,-9 1.5,-1 h 2 l 2,-2 1.25,-0.25 0.25,-1.25 2.5,-2.5 h 7 l 2,-2 h 1 l 1,-1 1,1 4,2 3.5,3.5 v 2 l 2,2 v 6.5 l -1,-0.5 -1,-3 -2.5,-2.5 -2.5,2.5 0.5,4.5 1.125,4 0.125,1.75 -5.75,3.625 -3,1 -4.5,0.625 -1,1 -1.5,-1 h -1"
       id="path262" />
  </g>
  <g
     id="g263">
    <path
       fill="#201c1c"
       fill-rule="evenodd"
       opacity="0.500008"
       d="m 39,923 h -1 v -1 h 1 v 1"
       id="path263" />
  </g>
  <g
     id="g279">
    <path
       fill="#201c1c"
       fill-rule="evenodd"
       opacity="0.500008"
       d="m 83,899 -5.5,-1 H 77 l 0.5,-1 h 1 l 2.5,-2 v 0.5 l 2,2 v 1.5"
       id="path279" />
  </g>
  <g
     id="g280">
    <path
       fill="#201c1c"
       fill-rule="evenodd"
       opacity="0.500008"
       d="m 32,921.25 -5,0.125 -3,-1 -2,-0.875 -1.5,-0.5 -1.5,-1.5 1,-7 2,-2 0.25,-1.25 5.25,-3.25 5,5 2.25,-0.25 -0.375,-2.75 -0.875,-2 -0.5,-1.5 1.5,-1.5 1,1 8,1 1.5,1.5 0.375,1.5 v 4 L 45,911.5 43.5,913 42.25,913.25 42,914.5 40.5,916 38,917.5 34.5,920 32,921.25"
       id="path280" />
  </g>
  <g
     id="g281">
    <path
       fill="#201c1c"
       fill-rule="evenodd"
       opacity="0.500008"
       d="m 36,897 h -1 v -1 h 1 v 1"
       id="path281" />
  </g>
  <g
     id="g282">
    <path
       fill="#201c1c"
       fill-rule="evenodd"
       opacity="0.500008"
       d="m 32,890 h 2.5 l 1,1 H 36 L 35.75,894.75 34.5,895 33,893.5 32,890"
       id="path282" />
  </g>
  <g
     id="g283">
    <path
       fill="#201c1c"
       fill-rule="evenodd"
       opacity="0.500008"
       d="m 31,889 h 0.5 l 0.5,0.5 V 890 H 31.5 L 31,889.5 V 889"
       id="path283" />
  </g>
  <g
     id="g284">
    <path
       fill="#201c1c"
       fill-rule="evenodd"
       opacity="0.500008"
       d="m 43,884 v -0.5 L 43.5,883 H 44 v 0.5 L 43.5,884 H 43"
       id="path284" />
  </g>
  <g
     id="g285">
    <path
       fill="#201c1c"
       fill-rule="evenodd"
       opacity="0.500008"
       d="m 44,883 v -0.5 L 44.5,882 H 45 v 0.5 L 44.5,883 H 44"
       id="path285" />
  </g>
  <g
     id="g286">
    <path
       fill="#201c1c"
       fill-rule="evenodd"
       opacity="0.500008"
       d="m 27,882 h 0.5 l 0.5,0.5 V 883 H 27.5 L 27,882.5 V 882"
       id="path286" />
  </g>
  <g
     id="g287">
    <path
       fill="#201c1c"
       fill-rule="evenodd"
       opacity="0.500008"
       d="m 81,921 -0.5,1 h -2 l -2,2 -1.5,0.5 -4,1.875 -8,2.25 -3,-0.125 -4,-1.125 -2,-0.75 -2.5,-0.625 -2,-2 h -2 l -3,-3 -1.25,-0.25 0.75,-2.25 1,-2 1.5,-1.5 1.25,-0.25 0.25,-1.25 2,-2 0.625,-2.5 v -2 L 50,904.5 44.5,899 h -1 l -1.5,-1.5 -0.25,-1.25 -1.5,-0.5 v -3.5 l 8.75,-6.75 8,-3.875 3,-1 5,-1.125 5,-0.5 v 1.5 l 7,7 1,4.5 -6,3.375 -3,0.875 -7.5,0.75 -1,1 -1,-1 h -3 l -1,1 -1,-1 -4.25,1.25 -0.25,3.25 2.5,2.5 8.5,-0.75 9,-1.75 h 4 l 7,2 4,1.5 -0.75,8 -0.75,3 -0.5,3 h -0.5 l -0.5,0.5 v 0.5 h -0.5 l -0.5,0.5 v 0.5"
       id="path287" />
  </g>
  <g
     id="g288">
    <path
       fill="#201c1c"
       fill-rule="evenodd"
       opacity="0.500008"
       d="m 25,879 h 0.5 l 0.5,0.5 V 881 H 25.5 L 25,880.5 V 879"
       id="path288" />
  </g>
  <g
     id="g289">
    <path
       fill="#201c1c"
       fill-rule="evenodd"
       opacity="0.500008"
       d="m 21,876 h 0.5 l 0.5,0.5 V 877 H 21.5 L 21,876.5 V 876"
       id="path289" />
  </g>
  <g
     id="g290">
    <path
       fill="#201c1c"
       fill-rule="evenodd"
       opacity="0.500008"
       d="m 45,882 v -0.5 l 2.5,-2.5 4.5,-2.375 3,-0.875 8,0.25 -5,0.75 -8.5,3.25 -2,2 H 45"
       id="path290" />
  </g>
  <g
     id="g291">
    <path
       fill="#201c1c"
       fill-rule="evenodd"
       opacity="0.500008"
       d="M 3.5,907 H 2 l 0.5,-1 H 4 l -0.5,1"
       id="path291" />
  </g>
  <g
     id="g292">
    <path
       fill="#201c1c"
       fill-rule="evenodd"
       opacity="0.500008"
       d="m -4,906 4.5,5 3.5,0.625 2,-0.125 1.5,-0.5 1,1 1,-1 4.25,-0.125 0.25,-1.375 1,-1 -1,-1 -1.25,-3.25 L 1,901.375 -2,900 v -0.5 L -2.5,899 H -3 v -1 l 2,-18 1.5,-1 h 13 l 1,1 1,-1 h 1 l 2,2 h 2 l 1.5,1.5 0.25,1.25 1.5,0.5 4.75,8.75 0.5,1.5 1,1 -1.5,1.5 h -8 l -1,1 -1,-1 -1,1 -1.25,0.25 0.25,1.75 0.75,1.75 1.25,0.25 1.5,1.5 -1,1 -2.375,4.5 -1.125,4 0.25,5 1.25,3.5 1.5,1.5 h 1 l 0.5,0.5 -2.5,2.5 h -1 l -2,2 -8.5,0.625 -4,1 H 0 L -5.5,928 l -1,1 -1,-1 -1,1 -1.5,-0.5 -4,-1.875 -2.75,-0.875 -0.5,-1.5 -1.25,-0.25 -1.5,-1.5 -2.375,-4.5 -0.625,-2.5 -1,-1 1,-1 0.25,-1.25 1.25,-0.25 1.5,-1.5 v -1 l 2.5,-2.5 5.5,-1.375 5,-0.625 v 0.5 l 0.5,0.5 H -4"
       id="path292" />
  </g>
  <g
     id="g293">
    <path
       fill="#000000"
       fill-rule="evenodd"
       d="m -7,905 -5,0.625 -5.5,1.375 -2.5,2.5 v 1 l -1.5,1.5 -1.25,0.25 -0.25,1.25 -1,1 1,1 0.625,2.5 2.375,4.5 1.5,1.5 1.25,0.25 0.5,1.5 2.75,0.875 4,1.875 1.5,0.5 1,-1 1,1 1,-1 5.5,1.625 h 2 l 4,-1 8.5,-0.625 2,-2 h 1 L 20,923.5 19.5,923 h -1 l -1.5,-1.5 -1.25,-3.5 -0.25,-5 1.125,-4 2.375,-4.5 1,-1 -1.5,-1.5 -1.25,-0.25 -0.75,-1.75 -0.25,-1.75 1.25,-0.25 1,-1 1,1 1,-1 h 8 l 1.5,-1.5 -1,-1 -0.5,-1.5 -4.75,-8.75 -1.5,-0.5 L 22,882.5 20.5,881 h -2 l -2,-2 h -1 l -1,1 -1,-1 h -13 l -1.5,1 -1.75,0.25 -0.5,1.5 -1.5,0.5 -0.625,1.75 -0.125,4 1.75,9.75 L -3,898 v 1 0.5 l 0.5,0.5 H -2 l 3,1.375 11.75,2.875 1.25,3.25 1,1 -1,1 -0.25,1.375 -4.25,0.125 -1,1 -1,-1 L 6,911.5 4,911.625 0.5,911 -4,906 v -0.5 L -4.5,905 H -7 M 3.5,907 4,906 H 2.5 L 2,907 H 3.5 M 36,897 v -1 h -1 v 1 h 1 m -4,24.25 2.5,-1.25 3.5,-2.5 2.5,-1.5 1.5,-1.5 0.25,-1.25 1.25,-0.25 1.5,-1.5 0.375,-1.5 v -4 L 45,904.5 43.5,903 l -8,-1 -1,-1 -1.5,1.5 0.5,1.5 0.875,2 0.375,2.75 -2.25,0.25 -5,-5 -5.25,3.25 -0.25,1.25 -2,2 -1,7 1.5,1.5 1.5,0.5 2,0.875 3,1 5,-0.125 m 7,1.75 v -1 h -1 v 1 h 1 m 14,14 -1,1.5 -0.625,3.5 -0.375,1.5 -3,3 1.5,11.5 v 9 l -1.125,7 -2.75,10 -1.125,3 -0.5,2.5 -2.5,2.5 -2.25,-0.25 0.375,-3.75 3.875,-12 0.75,-4 0.75,-19.5 -1.5,-1.5 -3,3 -2.5,0.625 -2,0.75 -3,0.875 H 24 L 17,953.5 10.5,950 9,948.5 8.5,947 7.625,945 6.5,941 v -3 l 0.5,-2.5 2,-2 -0.5,-0.5 -10.5,0.5 -9,-1.25 -3,-0.75 -3,-1.125 -1.5,-0.375 -5.5,-5.5 -2.375,-4.5 -1,-3 0.125,-5 0.25,-1.5 6.5,-6.5 2.5,-0.625 5,-1.75 5.75,-0.75 L -7.5,899 -8,897.5 l -1,-1 1,-1 -1,-1 L -9.375,883 -8.75,880.25 -7.5,880 -6,878.5 -5.75,877.25 3,874 l 14.5,1 2,2 1.5,-1 v 0.5 l 0.5,0.5 h 0.5 0.5 l 2,2 H 25 v 1.5 l 0.5,0.5 h 0.5 0.5 l 0.5,0.5 v 0.5 0.5 l 0.5,0.5 H 28 l 2,2.5 1,3.5 v 0.5 l 0.5,0.5 H 32 l 1,3.5 1.5,1.5 1.25,-0.25 0.25,-3.75 1,-0.5 v -1 l 1.5,-1.5 h 1 l 3.5,-4 h 0.5 L 44,883.5 V 883 h 0.5 L 45,882.5 V 882 h 2.5 l 2,-2 8.5,-3.25 5,-0.75 1.5,-1 7.5,0.75 7,1.875 2,0.875 4.75,2.75 1.625,3.75 v 4 l -1.625,3.75 -2.25,0.25 -2.5,2 -2.5,2 h -1 l -0.5,1 h 0.5 l 5.5,1 1.5,1 2.5,0.625 2,0.75 3.5,0.625 3.5,3.5 -1,1 1,1 -1,1 v 3 l -2,2 -0.5,1.5 -1,2 -0.5,1.5 -4.5,4.5 -6.5,3.5 -1.5,0.5 -2,2 h -2 l -2,2 -12.5,2 -5,-1.625 -2,-0.875 -1.75,-0.25 0.125,1.75 1.625,5 m -26,15 1.5,1 1,-1 4.5,-0.625 3,-1 5.75,-3.625 -0.125,-1.75 -1.125,-4 -0.5,-4.5 2.5,-2.5 2.5,2.5 1,3 1,0.5 v -6.5 l -2,-2 v -2 l -3.5,-3.5 -4,-2 -1,-1 -1,1 h -1 l -2,2 h -7 l -2.5,2.5 -0.25,1.25 -1.25,0.25 -2,2 h -2 l -1.5,1 -0.5,-1 -1,1 h -1 l -2.5,2.5 -0.25,1.5 -0.25,5 0.75,3.75 1.75,0.75 5,3 2,0.875 3,0.625 v 0.5 l 0.5,0.5 H 26 l 0.5,1 0.5,-1 m 55,-32 h 0.5 L 83,919.5 V 919 h 1.5 l 3.5,-3.5 0.5,-1.5 1.875,-4 0.375,-3.75 L 89,905.625 85,905 l -4,-1.5 -7,-2 h -4 l -9,1.75 -8.5,0.75 -2.5,-2.5 0.25,-3.25 4.25,-1.25 1,1 1,-1 h 3 l 1,1 1,-1 7.5,-0.75 3,-0.875 6,-3.375 2.5,-2 h 1 l 2.5,-2.5 v -1 L 80.5,883 74,880.5 71.5,880 70,879 l -5,0.5 -5,1.125 -3,1 -8,3.875 -8.75,6.75 v 3.5 l 1.5,0.5 0.25,1.25 1.5,1.5 h 1 l 5.5,5.5 0.625,2.5 v 2 l -0.625,2.5 -2,2 -0.25,1.25 -1.25,0.25 -1.5,1.5 -1,2 -0.75,2.25 1.25,0.25 3,3 h 2 l 2,2 2.5,0.625 2,0.75 4,1.125 3,0.125 8,-2.25 4,-1.875 1.5,-0.5 2,-2 h 2 l 0.5,-1 h 0.5 L 82,920.5 V 920"
       id="path293" />
  </g>
  <g
     id="g294">
    <path
       fill="#201c1c"
       fill-rule="evenodd"
       opacity="0.500008"
       d="m 3,874 v -0.5 L 5.5,871 8,870.625 h 5 l 2.5,0.375 2,2 h 1 l 2.5,3 -1.5,1 -2,-2 L 3,874"
       id="path294" />
  </g>
  <g
     id="g295">
    <path
       fill="#000000"
       fill-rule="evenodd"
       d="m -29.5,1007 h -1 l -1.5,-1.5 -11,-68 -1,-1 1,-1 -1,-1 -3,-19 1,-1 -1,-1 v -3 l -1,-1 1,-1 -1.5,-8.5 -0.5,-9.5 -1,-1 1,-1 -1,-1 v -12 l -1,-1 1,-1 v -1 l -1,-1 1,-1 -1,-1 0.25,-1.5 2,-6.75 h 2.5 l 0.25,1.25 0.5,0.5 1,-1 9,-1 1.5,1.5 v 1 l -1.5,1.5 -6.25,1.25 -0.5,1.5 -2.625,0.5 3.875,38.25 1,1 -1,1 22,95 -1.5,1.5 -2.25,-0.25 -6.75,-27.75 -2,-7 -0.5,-3.5 V 966 l -1,0.5 5,39 -1.5,1.5 M -35,956 v -1 h -1 v 1 h 1 m 1,4 v -1.5 l -1,-0.5 v 1 l 1,1 m 1,6 v -3.5 l -1,-0.5 v 3.5 l 1,0.5"
       id="path295" />
  </g>
  <g
     id="g338">
    <path
       fill="#000000"
       fill-rule="evenodd"
       d="m 113.5,984 h -3 l -1.5,-1.5 v -40 l -1,-1 1,-1 v -1 l -1,-1 1,-1 -1,-1 -0.75,-13.5 -1.25,-7.5 -1,-1 1,-1 -1,-1 -0.25,-1.5 -1.25,-5 -4.5,-28.5 1,-1 -1,-1 -1,-9 1,-1 -1,-1 -0.25,-2.25 -4.5,-2.5 -0.25,-1.25 -0.5,-0.5 -1,1 -2,-2 h -21 l -1,1 -1,-1 L 21,859.25 19.5,859 18,857.5 18.25,856.25 20,855.625 h 6 l 3.5,-0.625 2,-2 h 1 l 1,-1 1,1 1,-1 1,1 h 3 l 1,-1 1,1 1,-1 h 3 l 1,1 1,-1 h 5 l 0.5,-0.5 -1,-1 1.5,-1.5 3.5,-0.5 24,1.125 9.5,1.375 1,-1 1,1 1,-1 h 4 l 0.5,-0.5 -1,-1 v -1 l 1,-1 -1,-1 v -4 l 1.5,-1.5 h 2 l 1.5,1.5 v 3 l 1,1 -1,1 1,1 0.25,2.25 1.25,0.25 1.5,1.5 -0.375,1.5 0.125,4.75 -1.625,0.5 1.375,11.75 3,13 v 12 l 2,12 1,3 0.5,2.5 -1,1 1,1 0.75,11.5 -0.375,4 -0.375,1.5 1,1 -1,1 1,1 v 11 l 2,2 v 1 l -1,1 2,2 0.375,11.5 -0.375,2.5 1,1 -1,1 v 1 l 1,1 -1,1 v 7 l -1,1 1,1 -1,1 v 2 l -1.5,1.5 M 98,857 v -1 h -1 v 1 h 1"
       id="path338" />
  </g>
</g>
</svg>
