<?xml version="1.0" encoding="UTF-8" standalone="no"?>
<svg
   width="295.23779"
   height="252.48788"
   viewBox="-702 0 295.23779 252.48788"
   version="1.2"
   id="svg924"
   xmlns="http://www.w3.org/2000/svg"
   xmlns:svg="http://www.w3.org/2000/svg"><defs
   id="defs924" />
<title
   id="title1">Notebook 3</title>
\n<g
   id="g944"
   transform="matrix(1.2949027,0,0,1.3278531,-502.58501,-691.81146)">
  <g
     id="g31">
    <path
       fill="none"
       stroke="#000000"
       stroke-width="4"
       stroke-linecap="round"
       stroke-linejoin="round"
       d="m -50.7151,612.406 0.107,-0.7 0.4634,-0.462 0.6191,0.454 1.2028,-0.838 -0.2017,0.503 -0.1042,-1.261 -2.3483,-0.8 -0.2652,-0.571 -0.9287,0.102 -0.7181,-0.543 -0.9981,0.139 -0.4316,-0.632 -1.0832,0.183 -1.3439,-0.367 -1.7573,0.056 -0.7592,-0.617 -2.2459,0.149 -1.4283,-0.48 -2.6528,0.34 -2.6025,-0.685 -3.8982,-0.528 -1.3413,0.097 -0.8821,-0.409 -1.0823,0.665 -0.7249,-0.241 -1.33,0.782 -0.4586,-0.478 -1.2379,1.432 -0.5638,-0.16 -1.2073,0.786 -0.3475,-0.539 -1.6593,0.991 -0.7309,-0.083 -1.9245,1.012 -2.256,0.69 -0.5687,0.65 -1.9482,0.56 -0.6392,0.646 -1.3321,0.207 -0.4946,0.759 -1.0704,0.014 -0.3417,1.017 -0.1585,-0.378 -0.48,-0.016 -0.3922,0.854 -0.3706,-0.628 -0.1028,0.854 -0.2612,-0.323 -0.3666,0.191 -0.6237,1.015 -0.9594,0.675 -1.7877,3.574 -2.048,2.842 -0.815,2.506 -0.069,1.464 1.109,3.268 1.6438,1.651 0.9653,3.097 0.1782,-0.625 0.5614,1.649 0.148,-0.337 0.5223,1.041 0.4712,-0.154 0.5707,0.722 0.0449,-0.55 1.1801,0.977 0.3224,0.121 0.1864,-0.421 0.6747,0.82 0.4586,-0.183 0.5304,0.305 3.8905,-4.519 -0.7359,-1.89 -0.12,0.808 -0.2179,-0.789 -0.544,-0.439 -0.3001,0.664 -0.7467,-1.364 -0.605,0.363 -0.7625,-0.788 -0.6662,-0.086 -0.5429,0.895 -1.0758,-1.019 -0.6887,0.178 -1.0054,-0.732 -0.1144,0.416 -0.5382,-0.603 -0.8496,-0.099 -0.5783,0.328 -0.5849,-0.232 -0.1544,0.298 0.6573,0.005 0.1947,-0.509 0.4976,1.549 0.4639,-0.442 1.3178,0.813 1.3658,-3.683 0.3789,-6.295 -0.6297,-1.13 -0.5794,-3.137 -0.6535,-0.89 -0.0052,-0.874 0.4615,1.924 -0.2246,7.949 0.3905,1.814 -0.6971,-8.635 0.0094,-3.459 0.4689,-3.508 0.1643,3.014 -0.3836,4.405 -0.2828,0.591 -0.014,2.949 0.3832,2.102 1.1468,3.023 0.3848,0.18 1.5276,3.228 0.7154,0.377 0.1297,0.686 0.4261,-0.052 0.7184,0.774 0.2222,-0.212 0.6318,1.318 0.6044,0.652 0.3097,-0.241 1.5215,2.116 0.6883,0.024 0.9326,0.836 2.7775,0.975 0.7938,0.816 0.2273,-0.181 0.7219,0.323 0.8177,1.291 0.2678,-0.151 0.4443,0.314 0.8466,1.483 0.1849,-0.435 0.6454,0.103 0.3565,0.787 0.8651,-0.5 0.5639,0.598 0.4697,-0.603 0.4795,-0.168 0.3791,0.305 3.4893,-1.919 3.3442,-1.123 0.2763,-0.497 1.8112,-0.271 0.469,-0.695 2.2403,-0.691 1.1626,-0.949 0.1675,-0.472 0.5674,0.099 0.8719,-0.707 0.4587,0.179 1.5273,-0.683 1.9512,-1.298 0.2246,-0.709 0.5512,0.228 0.2772,-0.601 2.2387,-1.03 0.2234,-0.83 0.8942,0.023 0.6192,-1.138 0.3083,0.254 0.7721,-0.292 0.3549,-1.193 0.1487,0.286 0.6358,-0.178 0.5069,-0.871 1.1046,-0.24 0.4826,-0.6 1.7272,-0.738 1.0962,-1.168 0.541,0.254 2.7923,-3.456 1.8677,-1.414 1.2634,-2.548 1.1717,-1.222 1.0581,-0.458 0.7701,-0.777 0.5057,-0.014 0.9855,-0.908 0.4937,0.1 0.9052,-1.172 0.5405,0.14 0.7422,-1.295 0.1681,0.572 0.8783,-1.865 0.4435,-0.094 0.5902,-1.73 0.2898,-0.063 0.4435,-1.09 0.2657,0.131 0.6584,-1.421 3.2506,-3.583 1.3446,-1.977 0.9733,-0.477 0.3713,-0.852 0.7612,-0.375 1.7207,-2.313 3.4637,-2.006 0.6317,-0.784 1.9497,-0.539 1.5184,-1.444 2.5771,-1.741 3.71417,-1.718 0.73212,-1.038 1.93518,-0.127 0.83301,-0.855 0.45734,0.23 1.083981,-0.156 0.7267452,-1.26 1.1340338,0.64 0.5072,-0.994 0.414,0.769 0.27765,-1.135 0.13654,0.906 0.3006,-0.57 0.61731,0.836 1.38995,-0.108 0.67486,0.646 0.76917,-0.077 0.44824,0.773 0.68189,-0.47 0.62909,1.597 0.29962,-0.206 1.30371,1.553 3.13749,2.197 0.507,1.579 0.3553,0.109 0.4387,1.261 0.3606,0.091 0.0737,1.035 0.0789,-0.26 0.2118,0.237 0.4733,0.885 0.1332,1.005 0.093,-0.233 1.3133,1.371 0.6552,2.235 0.3081,2.933 0.2418,0.119 0.187,1.439 0.2181,-0.378 0.2601,3.051 0.1983,-0.145 -0.1616,3.2 -1.2423,3.134 -2.2875,4.107 -0.3759,-0.076 -0.3369,0.708 -0.7106,-0.193 -0.0742,0.917 -0.2594,0.091 -0.0932,-0.61 -0.5759,0.159 -0.492,1.094 -0.8267,-0.378 -0.3657,1.167 -0.2541,-0.744 -0.2483,0.388 -0.4313,-0.321 -0.33302,0.323 -4.4845,0.771 -2.36633,0.051 -0.67792,-0.369 -1.845825,0.364 -3.792545,0.065 -1.28027,-0.085 -0.45215,-0.312 -2.83911,0.343 -4.75693,-1.099 -0.8704,-0.645 -1.3768,-0.134 -0.1868,-0.276 -2.0596,0.038 -0.6231,-0.508 -1.2351,0.285 -0.327,-0.696 -1.3778,0.391 -0.1508,-0.763 -0.3793,-0.306 -0.6023,0.641 -0.2506,-0.686 -0.4559,0.362 -0.9198,0.042 -0.5917,-0.98 -0.2987,0.406 -0.8565,0.169 -0.3905,-0.6 -1.4275,0.251 -1.652,-0.848 -0.5272,0.166 -1.2046,-1.053 -0.4891,0.137 -0.2516,-0.63 -0.9519,-0.558 -0.7428,-0.959 -0.6529,0.14 -0.4239,-0.512 -2.5626,-1.344 -0.5899,0.368 -0.6795,-0.828 -0.8907,-0.21 -2.4424,-1.722 -1.3792,-0.265 -2.688,-1.161 -0.6952,0.172 -0.9594,-0.796 -0.6156,0.094 -1.5382,-1.219 -0.5664,0.338 -0.2683,-0.502 -0.9019,-0.486 -0.8472,0.423 -1.672,-0.918 -0.7158,0.282 -1.3595,-0.733 -1.1589,0.2 -1.2493,-0.589 -3.3067,-0.161 -2.7693,-0.723 -0.7625,-0.488 -0.9667,0.2 -0.3676,-0.7 -1.4713,0.518 -0.7388,-0.418 -1.372,0.589 -0.4934,-1.036 -1.6361,1.114 -0.6822,-0.062 -1.5146,0.566 -0.6402,-0.601 -0.8404,0.572 -2.0144,0.244 -1.5355,0.689 -5.3181,0.888 -1.8557,1.036 -0.3136,-0.469 -1.2903,1.65 -0.118,-0.432 -0.9903,1.425 -0.4184,0.074 -0.7373,0.959 -2.0944,1.575 -0.1739,0.741 -0.7724,0.199 -0.4148,0.997 -0.5421,-0.09 -0.6665,0.399 -0.603,1.022 -1.2628,0.508 -0.6002,1.468 -0.9767,0.127 0.0763,0.883 -0.0762,-0.398 -0.1603,0.29 -0.2969,1.09 0.3672,1.206 -0.2779,0.214 0.388,3.454 1.6602,6.14 1.7365,2.578 3.19,2.64 1.6754,1.032 0.5875,-0.513 0.9114,1.165 0.2541,0.191 0.2462,-0.229 0.6214,0.814 0.3516,-0.893 0.2214,1.185 0.2583,0.197 0.1046,-0.209 0.7141,1.046 0.6554,-0.228 0.0783,0.429 0.8518,0.37 0.2989,-0.449 1.2924,0.626 2.0012,-0.005 0.7835,0.511 1.4704,-0.562 0.3818,0.494 0.5615,0.13 0.3423,-0.637 1.406,-0.495 0.827,0.721 0.8631,-0.754 1.0362,-0.338 0.6609,0.245 0.7796,-0.649 0.5434,0.112 1.0384,-0.603 0.5316,0.207 1.1658,-0.822 1.8661,-0.514 8.7788,-4.065 0.5598,0.244 0.7974,-0.561 0.4484,0.221 0.646,-0.535 0.2341,0.523 0.9278,-0.938 0.4533,0.431 0.7371,-1.008 0.1319,0.472 1.5544,-0.941 0.8043,0.101 1.2263,-1.029 1.4842,-0.706 1.3674,-1.298 3.7708,-1.992 0.5452,-0.879 1.2249,-0.701 0.5538,-1.054 1.1515,-0.595 0.8816,-1.073 1.2129,-0.344 0.4729,-1.362 0.1032,0.37 0.5669,-0.17 0.6299,-1.365 0.2114,0.137 0.8145,-0.528 0.2133,-0.866 1.3328,-1.393 0.7292,-0.323 5.2515,-4.47 0.5636,-1.039 4.3125,-4.677 2.9849,-5.358 1.5893,-1.321 0.7033,-1.28 1.3667,-0.923 0.6822,-1.522 0.2363,0.267 0.315,-0.218 0.8073,-1.25 0.6576,-0.175 0.5115,-1.021 0.6582,-0.213 1.3356,-1.31 1.65734,-1.018 0.42426,0.434 0.96039,-0.939 0.58911,0.342 0.49444,-0.132 1.61933,-1.165 0.38464,0.605 0.54273,-0.024 0.45538,-0.719 1.38898,-0.98 0.821347,0.439 1.706113,-1.221 0.65772,0.502 1.09051,-0.975 0.40772,0.426 1.19977,-0.872 2.78534,-0.755 1.70843,0.085 0.34967,-0.259 1.07968,0.729 0.1842,0.698 0.3387,-0.411 0.4497,0.815 0.3139,-0.279 0.243,0.409 1.0278,-0.278 0.8045,0.259 0.5812,-0.499 0.6333,0.543 0.3348,-0.374 0.7895,1.21 0.1759,-0.558 0.1002,1.286 0.2834,-0.43 -0.0245,1.432 0.24,-0.313 0.1251,1.877 0.2437,-0.109 0.82,4.635 0.2308,5.283 0.817,3.005 0.3314,0.267 -0.3543,0.194 0.2137,0.393 -0.0779,-0.454 -0.1927,0.64 -1.3011,-6.959 -2.2638,-7.009 -0.0744,-1.616 -0.4202,-0.865 -0.3916,-7.447 -0.042,0.889 0.7764,1.01 4.5915,9.385 1.358,3.601 1.8613,2.788 0.64,4.122 -0.2384,1.535 -0.0875,-0.673 -0.1912,0.735 -0.0828,-0.577 -0.1527,-0.226 -0.1493,0.37 -0.2238,-0.618 -0.048,0.769 0.2165,-0.583 0.3323,1.048 -0.3412,4.488 -1.4454,3.853 -1.1766,0.755 -0.25,-0.476 -0.6174,0.948 -0.1797,-0.719 -1.0695,1.385 -0.5481,-0.312 -0.8707,1.395 -0.3713,-0.472 -1.0044,1.727 -0.0678,-0.471 -0.4167,1.785 -0.2067,-0.286 -0.0869,0.564 -0.0244,-0.415 -0.4479,0.764 -0.2696,-0.195 -0.2662,0.737 -0.264,-0.419 -1.7792,0.779 -0.9613,-0.228 -0.7323,0.518 -0.14499,0.264 0.48329,-0.323 0.1007,0.261 0.1631,-0.424 0.2323,0.276 0.2629,-0.645 0.1759,0.271 1.0059,-1.108 0.2309,0.529 0.3629,-0.11 0.2808,-0.649 2.569,-1.363 0.3774,0.429 1.2243,-0.682 1.3861,-0.199 0.2084,0.346 0.1196,-0.321 0.1274,0.415 0.0011,-0.607 0.0147,0.623 0.0724,-1.251 -0.0221,0.851 0.1495,-0.644 0.0037,0.458 0.182,-0.405 0.5573,-0.16 3.1028,-3.552 1.9257,-3.011 0.6222,-4.052 -0.1563,-3.441 -0.4086,-1.214 -0.4531,-3.941 -0.0432,7.502 0.3878,1.469 0.4106,5.61 -0.4011,1.771 -0.3041,-0.556 0.345,-0.238 -0.033,-0.844 0.2102,1.74 -0.3126,0.205 0.3214,-0.502 -0.0932,0.457 0.137,-0.46 0.0533,0.31 0.2048,-4.949 1.2695,-8.037 0.2261,-2.373 -0.2527,1.01 0.2321,0.151 -0.2223,-0.013 0.1479,1.032 0.1233,-1.324 0.1722,0.957 0.0571,-0.773 0.2334,0.825 0.0521,-0.654 -0.1477,0.773 0.2117,-0.841 -0.012,0.498 -0.2637,0.238 -0.2503,-0.196 -0.8553,-3.129 -3.0061,-5.947 -3.095,-3.383 -1.6838,-0.153 -1.0139,0.418"
       id="path31" />
  </g>
  <g
     id="g32">
    <path
       fill="none"
       stroke="#000000"
       stroke-width="4"
       stroke-linecap="round"
       stroke-linejoin="round"
       d="m -39.1451,552.466 -1.6342,0.215 -0.8312,-0.307 -0.426,0.24 -0.656,-0.877 -0.0962,0.472 -0.2175,-0.455 -0.2704,0.424 -0.361,-0.465 -0.3114,0.505 -2.0459,-0.905 0.5723,-1.006 2.3361,-0.897 4.0796,-2.281 2.3373,-0.538 5.0752,-2.004 2.7005,-0.303 1.3482,-0.767 4.4848,-1.321 3.0496,-0.257 3.0625,-1.139 5.2266,-1.378 3.39951,-0.224 1.74316,-0.844 3.74652,-1.038 6.17383,-1.161 4.13001,-1.221 9.60857,-1.948 6.1934,-1.638 6.2691,-0.434 1.1767,0.669 0.4618,1.062 0.219,-0.432 0.1489,0.476 0.1694,-1.122 0.3017,1.161 0.3025,-0.285 0.2773,0.603 0.2726,-0.667 0.0108,0.688 -0.3011,0.181 -2.6289,-0.366 -0.8009,-0.541 -2.8551,0.539 -2.5459,0.076 -1.2731,-0.336 -2.1617,0.402 -2.2499,-0.286 -2.8383,0.417 -1.4577,-0.295 -8.48783,1.181 -15.48117,3.778 -1.4059,1.343 -2.0535,0.192 -1.1636,0.341 -1.4448,0.931 -0.7295,-0.102 -2.1987,0.691 -5.7473,2.546 -1.8284,1.39 -3.6044,1.246 -4.8485,2.558 -1.0686,0.893 -3.6026,1.819 -1.8247,1.289 -1.3752,0.357 -1.9367,1.6 -1.5903,0.847 -0.2969,0.509 0.0034,-0.284 0.3525,0.059 0.7427,-0.774 1.4307,-0.364 1.1607,-1.049 3.1278,-1.225 2.0224,-1.782 5.7436,-1.824 2.5626,-1.78 5.157,-1.802 2.9443,-1.852 6.9391,-2.137 2.961,-1.666 1.4911,-0.023 2.91697,-0.723 12.56799,-3.489 3.04974,-1.225 14.7606,-2.882 2.7882,-0.039 2.6427,-1.016 1.0625,0.202 2.4593,-0.697 0.328,0.436 0.3877,-0.002 1.7342,-1.071 0.7639,0.109 0.875,-0.732 0.7257,0.184 0.2306,-0.269 0.0099,0.286 0.0236,-0.265 -0.188,0.87 0.0256,-0.791 -0.4388,-0.941 -0.2569,0.435 -0.1454,-1.024 -0.6708,-0.918 -1.4411,-0.926 -0.9915,-0.006 -0.4979,-0.375 -1.8713,0.162 -0.9054,-0.408 -2.3339,0.628 -1.1778,-0.287 -3.7588,1.006 -0.7083,-0.606 -0.9034,-0.025 -0.8478,0.707 -2.942,0.955 -1.7268,-0.125 -1.9212,1.023 -2.1498,0.659 -3.41856,0.548 -13.26795,4.546 -17.94949,6.787 -11.7217,5.365 -2.8926,1.739 -0.9955,0.17 -3.0285,2.54 -1.0113,0.325 -4.4467,3.691 -0.4903,1.19 0.3865,-0.671 0.1547,0.654 0.2888,-1.525 0.2761,0.21 0.8147,-0.566 0.5504,0.11 0.6019,-0.64 11.1599,-6.565 5.6636,-2.753 8.6502,-3.716 5.8908,-1.746 3.2436,-1.372 6.73423,-1.842 13.15527,-3.06 3.4888,-1.191 7.8426,-0.875 2.8195,0.142 6.126,-0.994 2.3672,-0.034 6.2363,-0.936 6.3484,-1.468 -0.4145,0.313 -0.133,-0.304 -0.0918,0.289 0.2096,-0.748 0.0118,0.767 0.2272,-0.746 0.0961,0.714 -0.1083,0.229 -0.2421,-0.179 -0.2493,0.757 -0.0712,-0.333 -0.1912,0.766 -0.0757,-0.412 -0.1915,0.193 -0.6037,1.833 0.0134,0.456 0.1969,-0.424 -0.2682,0.346 0.0572,0.272 0.1195,-0.403 0.0315,0.753 0.035,-0.958 -0.4237,1.561"
       id="path32" />
  </g>
  <g
     id="g33">
    <path
       fill="none"
       stroke="#000000"
       stroke-width="4"
       stroke-linecap="round"
       stroke-linejoin="round"
       d="m 11.9091,693.283 16.3649,-8.793 15.5292,-7.652 3.7549,-0.896 0.3571,-0.464 1.0164,-0.162 0.1147,-0.756 -0.4023,0.779 -0.1625,-0.847 -0.6368,1.01 -0.3793,-0.436 -1.0325,1.341 -0.2336,-0.63 -0.3874,-0.151 -0.2797,0.587 -1.3236,0.935 -4.3925,2.079 -1.6597,0.13 -5.9411,2.446 -4.6737,1.298 -2.4728,1.307 -6.6776,1.717 -2.8504,1.132 -7.01034,1.716 -2.35804,0.142 -3.92578,1.522 -1.315488,1.124 -0.464477,-0.242 -2.012755,0.123 1.5956405,-0.744 3.9836995,-1.061 8.00174,-2.815 3.7567,-0.743 6.8628,-2.423 1.3438,0.178 1.3953,-0.244 4.9299,-2.617 2.1529,0.164 2.2043,-1.435 3.023,-1.228 0.8221,0.452 0.8775,-0.063 0.7344,-0.721 1.6883,-0.611 1.811,-0.115 2.2465,-1.054 0.3846,0.468 0.1225,-0.592 -1.5604,0.194 -0.6769,0.495 -0.3105,-0.253 -8.4281,1.85 -6.0926,1.722 -1.2413,-0.145 -1.268,0.305 -1.1196,0.779 -3.1497,1.245 -2.1573,-0.006 -2.2206,1.36 -3.0505,1.278 -0.9391,-0.405 -1.0391,0.214 -0.8578,1.001 -1.0548,0.564 -1.76007,0.807 -1.42633,0.031 -2.93304,1.625 0.02069,0.499 6.09785,-1.315 12.2943,-3.898 6.4935,-2.621 3.1603,-0.825 5.9963,-2.705 9.079,-2.763 2.2546,-1.182 3.7955,-1.029 1.8346,-0.873 3.1784,-0.575 0.6976,-0.79 0.2045,0.711 -0.378,-0.258 -0.4665,0.636 -1.1414,0.488 -0.774,-0.421 -0.3837,0.453 -2.1621,0.841 -11.4999,2.874 -1.5604,0.712 -2.6885,0.411 -1.3689,0.641 -3.0479,0.259 -1.1194,1.014 -0.3955,-0.401 -1.1747,-0.096 -0.3877,0.769 0.3196,-0.965 0.4855,0.513 0.9338,-0.84 0.4047,0.284 1.7183,-1.039 11.8659,-2.487 8.0953,-0.89 7.672,-0.238 0.9658,-0.312 1.8742,0.151 0.2723,0.47 0.1097,-0.461 -0.4176,0.857 -0.3246,-0.47 -0.1083,0.349 -0.2089,-0.296 -0.5829,0.363 -0.3678,-0.309 -1.3773,0.883 -0.5159,-0.132 -1.3645,0.69 -0.5833,-0.506 -0.454,0.096 -0.2609,0.518 -0.9897,0.384 -0.5957,-0.312 -0.737,0.543 0.0194,-0.901 0.101,0.463 0.3629,0.069 0.3632,-0.753 0.3582,0.503 0.2583,-0.507 0.7056,0.521 1.0326,-0.173"
       id="path33" />
  </g>
  <g
     id="g34">
    <path
       fill="none"
       stroke="#000000"
       stroke-width="4"
       stroke-linecap="round"
       stroke-linejoin="round"
       d="m 61.0281,675.759 -1.7467,0.176 -0.7003,0.545 -1.4179,-0.134 -2.1706,0.554 -1.68,1.017 -4.6324,0.365 -1.8365,0.96 -1.0005,-0.237 -3.0239,0.361 -1.9502,1.43 -3.017,-0.13 -2.0414,0.405 -2.0365,0.972 -1.0119,0.032 -4.1351,1.179 -16.8655,6.275 -1.0897,-0.322 -2.01624,1.655 -0.57574,-0.127 -0.32263,0.807 0.47375,-0.662 0.49634,0.585 1.24194,0.134"
       id="path34" />
  </g>
  <g
     id="g35">
    <path
       fill="none"
       stroke="#000000"
       stroke-width="4"
       stroke-linecap="round"
       stroke-linejoin="round"
       d="m 27.1406,686.39 -3.5064,0.058 -3.4725,0.687 -2.7899,-0.042 -6.0729,1.922 -2.01057,-0.114 -2.26154,0.394"
       id="path35" />
  </g>
  <g
     id="g36">
    <path
       fill="none"
       stroke="#000000"
       stroke-width="4"
       stroke-linecap="round"
       stroke-linejoin="round"
       d="m -74.4757,691.363 -2.9824,-1.124 -5.4842,-1.681 -4.2371,0.052 0.6303,-0.197 1.6158,0.419 5.3011,2.835 0.36,0.089"
       id="path36" />
  </g>
  <g
     id="g37">
    <path
       fill="none"
       stroke="#000000"
       stroke-width="4"
       stroke-linecap="round"
       stroke-linejoin="round"
       d="m -46.9486,690.544 -2.0634,-1.242 -2.3758,-1.816 -9.0792,-4.002 -5.8183,-1.311 -2.8829,-1.151 -8.0756,0.587 -6.2052,1.097 -2.4375,-0.179 -6.6726,2.476 -3.5138,2.146 -0.5756,0.622 0.1298,0.327 1.874,0.307 3.2139,1.368 2.4213,0.403 15.9659,0.931 16.2006,0.394 4.4825,-0.631 1.328,-0.635 1.6412,-0.036 0.4014,-0.346 -0.5806,-0.265 -10.1321,-0.603 -1.199,-0.021 -2.3682,0.743 -6.0912,-0.647 -1.151,0.528 -1.1765,0.105 -1.0639,-0.452 -3.0039,-0.271 -1.9805,0.967 -3.4843,-0.81 -0.8479,-0.017 -1.5293,0.756 -0.7228,-0.511 -2.2748,-0.145 -1.2496,0.636 -1.8996,-0.555 -0.4091,0.757 -0.5106,-0.173 -0.3957,0.459 0.0063,0.443 0.4974,0.487"
       id="path37" />
  </g>
  <g
     id="g38">
    <path
       fill="none"
       stroke="#000000"
       stroke-width="4"
       stroke-linecap="round"
       stroke-linejoin="round"
       d="m -90.2317,692.209 -2.5261,-0.272 -2.8709,0.267 -4.8423,-0.952 -0.943,0.681 -1.003,0.162 -0.873,-0.709 -2.454,-0.557 -1.296,0.518 -2.395,-0.516 -0.408,0.64 -0.283,-0.519 0.31,0.378 0.974,-0.184 0.854,0.729 2.348,0.785"
       id="path38" />
  </g>
  <g
     id="g39">
    <path
       fill="none"
       stroke="#000000"
       stroke-width="4"
       stroke-linecap="round"
       stroke-linejoin="round"
       d="m -96.2986,692.844 -3.1645,-0.373 -8.8709,-0.07 1.067,0.15"
       id="path39" />
  </g>
  <g
     id="g40">
    <path
       fill="none"
       stroke="#000000"
       stroke-width="4"
       stroke-linecap="round"
       stroke-linejoin="round"
       d="m -69.0426,692.681 -1.9575,-0.025 -2.0084,-0.561 -0.8044,0.17 -2.1507,-1.18 -1.4903,-0.193 -0.8267,-0.638 -0.3379,0.231 -1.0858,-0.195 -0.7046,-0.73 -2.1718,-0.025 -0.4631,-0.869 -0.6822,-0.415 -0.4337,0.412 -1.6971,0.034 -1.1017,-0.771 -1.4463,0.112 -2.1119,-0.782 -2.3788,0.224 -1.1743,-0.395 -5.154,0.781 -3.1382,-0.05 -1.123,0.301 0.332,-0.212 4.7007,1.006 1.2816,-0.398 3.1975,0.083 1.6986,-0.896 0.8928,0.239 5.3422,-0.663 3.5446,0.055 1.7846,-0.63 4.0968,0.383 9.6526,-0.498 1.5937,0.516 0.68,-0.397 1.8799,-0.032 1.2801,0.516 2.9873,0.011 1.2876,0.854 0.4646,-0.256 1.372,0.151 0.7429,0.743 1.5969,0.485 0.6861,0.918 0.2621,-0.384 0.9478,0.292 0.5635,0.725 0.7319,-0.183 1.8639,0.49 10.3063,0.329 1.0304,0.007 1.0384,-0.469 3.19,1.36 2.1175,0.011 1.9322,0.763"
       id="path40" />
  </g>
  <g
     id="g41">
    <path
       fill="none"
       stroke="#000000"
       stroke-width="4"
       stroke-linecap="round"
       stroke-linejoin="round"
       d="m -21.2169,694.271 -0.8232,0.154 -0.5526,-0.56 -1.8221,-0.711 -1.3632,-0.064 -3.0504,-0.982 -1.6035,0.366 -3.816,-1.146 -1.4979,0.345 -2.7418,-0.887 -1.483,0.48 -2.2343,-0.748 -0.5644,0.388 -0.398,-0.621 0.9761,0.02 0.2918,-0.496 3.6454,1.21 1.0098,-0.7 1.7553,0.924 1.3262,0.241 0.6222,-0.739 0.7518,-0.143 0.6085,0.724 1.2776,0.392 0.5787,0.137 1.1863,-0.476 1.0039,0.599 1.5732,0.3 0.5479,-0.722 0.6629,-0.221 0.4872,0.604 1.6889,0.301 1.021,-0.567 0.4795,0.328 1.89,0.184 0.7067,-0.502 1.0551,0.433 -0.0634,0.356 -2.2327,-0.134 -4.3616,0.368 -0.6884,-0.44 -4.3763,0.726 -0.0613,-0.506 0.0852,0.347 0.6615,-0.05 0.1922,0.55 0.7435,-0.329 0.6777,0.626 0.2905,-0.375 1.2179,-0.021 0.9243,0.753 2.7378,-1.12 1.0288,0.587 0.3986,-0.537 1.2561,-0.595 0.4689,0.473 1.1968,-0.719 0.4807,0.745 0.1894,-0.463 1.8648,-0.769 0.6156,0.445 1.5547,-1.145 5.22482,-2.638 0.39136,-0.786 0.63208,-0.249 0.30426,-0.897 0.18317,0.191 -0.12824,-0.619 -0.45068,0.492 -2.16596,0.326 -6.10771,1.717 -2.4165,1.058 -0.8604,-0.411 -1.1892,1.121 -0.2649,-0.453 -0.312,0.77 0.3675,-1.165 0.1002,0.576 0.495,0.296 0.6175,-0.381 0.3659,0.499 0.8566,0.254 0.8762,-0.644 0.4291,0.348 1.6889,0.148 1.5193,-0.467 3.51206,-0.217 4.70453,-0.93 1.68744,0.071 3.362429,-0.844 4.245301,-0.603 0.63934,-0.041 0.60205,0.684 0.68732,0.095 0.5661,-0.622 1.51495,-0.714 0.80927,0.335 1.20011,-0.629 0.1156,0.84 -0.1067,-0.563 -0.2689,-0.04 -0.39995,0.603 -0.41632,-0.355 -2.0473,-0.029 -3.1424,0.647 -5.43823,2.536 -9.7307,3.548"
       id="path41" />
  </g>
  <g
     id="g42">
    <path
       fill="none"
       stroke="#000000"
       stroke-width="4"
       stroke-linecap="round"
       stroke-linejoin="round"
       d="m -108.522,693.027 -0.174,0.275 -0.524,-0.087 -1.103,-0.947 -0.568,0.026 -1.036,-0.678 0.863,0.167 4.765,-1.467 6.7276,-0.702 13.2268,-0.012 3.5133,-0.563 4.6219,0.254 1.9925,-0.514 3.1656,0.267 1.3557,-0.587 2.0502,0.574 0.1303,-0.306 0.0335,0.356 -11.1364,1.305 -2.3818,0.67 -6.9075,0.393 -2.6906,0.599 -1.3264,-0.165 -3.9608,0.195 -2.5989,0.527 -5.22,0.075 -3.584,0.902 -4.028,-0.147 -1.696,0.458 -3.17,-0.114 -0.785,0.369 -0.607,-0.321 11.527,-0.081 13.2639,-0.552 9.6459,-1.239 0.8592,0.187 1.1133,-0.261 0.287,0.421 0.0262,-0.226 -1.3901,0.257 -1.0754,-0.523 -2.0533,-0.141 -4.0067,0.254 -1.0398,-0.421 -2.729,0.617 -1.3884,-0.357 -1.0765,0.414 -4.5373,0.527 -0.985,-0.526 -0.697,0.574 -1.178,0.167 -0.877,0.53 -0.274,-0.193 -0.953,1.338 -0.161,1.079 -1.801,1.976 -4.796,2.6 -4.797,1.348 -0.71,0.708 -2.121,0.305 -0.604,0.931 -0.972,-0.472 -0.307,0.369 -0.354,-0.5 -0.001,0.726 -0.263,-0.643 0.509,-0.282 0.436,0.241 3.46,-2.655 7.094,-3.991 1.176,-1.253 0.627,0.015 0.59,-0.8 0.471,-0.132 -6.816,4.919 -4.56,2.505 -0.842,0.794 0.132,0.673 0.436,-0.024 0.019,-0.633 0.234,0.603 0.812,0.151 0.309,-0.726 0.235,0.27 0.678,-0.074 6.544,-3.677 1.033,-1.402 0.841,-0.275 0.824,-1.019 0.344,-0.015 0.476,-0.687 -0.287,-0.219 -1.478,0.607 0.939,0.2 0.14,-0.252 1.965,-0.305 0.89,0.202 1.689,-0.374 1.815,0.079 3.3804,-0.63 13.1081,-1.026 3.53,-0.58 6.0581,-0.27 1.9373,-0.411 3.7947,0.125 1.5332,-0.603 2.8422,0.66 0.7735,-0.222 1.1864,0.729 0.1307,-0.529 -0.1293,0.833 -2.6537,0.189 -0.9237,-0.408 -0.3413,0.191 -0.6959,-0.469 -0.5041,0.191 -0.9912,-0.71 -2.8487,-0.742 -3.6061,-1.775 -0.1425,0.155 2.3224,0.896 1.3828,0.303 8.6433,1.212 11.1636,-0.48 2.2523,0.533 5.0886,-0.318 1.9025,0.611 1.736,-0.446 1.5237,0.004 1.2514,0.453 2.2786,-0.137 0.6091,0.622 0.5516,-0.084 -0.5925,-0.061 0.0379,-0.403 0.2101,0.066 -0.0917,-0.966 -0.4467,-0.069 -0.8061,-0.983 3.2192,2.211 1.866,0.902 0.9841,-0.036 1.5385,0.702 2.0029,0.221 2.7794,1.001 3.7746,0.23 1.1141,-0.542 0.4505,0.302 3.1905,0.236 0.1364,-0.326 -0.2455,0.599 -0.4448,-0.079 -0.1396,0.313 -0.3192,-0.299 -4e-4,-0.328 0.2013,0.533 0.0598,-0.653 -0.4278,-0.139 -0.0318,0.414 -0.9969,-1.902 -0.8618,-0.465 -0.601,0.304 -0.2148,1.058 0.2041,1.867 0.7419,0.956 0.3339,1.066 0.277,-0.007 0.9709,1.268 0.337,-0.005 -1.1656,-4.638 -0.6647,-5.979 0.2722,6.073 2.2395,5.148 1.1758,1.823 0.4633,0.225 0.0022,0.384 -0.1023,-0.947 -0.1681,0.216 -0.7189,-1.085 -1.4427,-0.616 -1.4353,-1.094 -1.2497,-0.281 -0.5584,-0.964 -0.6554,0.037 -4.3982,-1.496 -1.3077,-0.935 -3.1445,-0.588 -1.2857,-0.63 -2.7145,-0.627 -1.5011,-0.827 -5.3183,-0.695 -7.5283,-1.917 1.689,0.229 1.5768,1.31 0.8727,0.215 1.6204,1.433 1.291,0.791 1.2878,0.338 2.9701,1.982 1.5791,0.472 3.7101,2.241 1.5637,0.323 2.913,1.623 1.4869,0.471 4.421,2.941 0.9561,1 -0.1002,0.548 -0.3352,-0.368 -0.0729,0.446 -0.3953,-0.714 -0.1195,0.615 -1,-1.607 -0.5963,-0.013 -1.3727,-1.604 -0.8875,-0.307 -1.8433,-1.543 -1.6914,-0.615 -1.1667,-1.006 -6.6905,-3.319 -7.4008,-2.498 -6.6556,-1.644 -6.5828,-2.637 -1.4302,-0.169 0.7032,0.634 1.1769,0.272 1.0423,0.836 2.0037,0.808 1.1202,0.961 13.6214,4.094 2.1868,0.408 5.4991,2.07 0.909,-0.818 1.4755,1.22 0.2686,-0.642 0.0513,0.686 -0.1153,-0.582 -0.2312,0.523 -0.1721,-0.578 -0.0608,0.495 -0.3264,0.088 -2.8311,-2.793 -3.6643,-1.942 -4.145,-1.747 -8.9321,-2.747 -7.1217,-1.773 -2.3167,0.225 -3.4361,-1.226 -2.0554,-0.18 -4.4188,-1.169 -0.8003,0.29 -0.9127,-0.636 1.5,0.39 3.7063,2.217 3.4514,1.178 9.715,2.022 2.4609,0.933 5.3321,0.571 2.023,0.587 4.368,0.35 1.5096,0.583 2.3979,0.178 0.9711,0.854 0.3708,-0.355 0.6302,0.053 -0.1178,-0.194 -0.2867,-0.036 -0.1437,0.613 -0.1796,-0.443 -3.7258,-1.461 -1.2907,-0.108 -5.5977,-1.758 -4.456,-0.572 -2.5517,-0.812 -4.9099,-0.268 -4.1478,-0.924 -5.6412,-0.198 -2.6159,-0.657 -6.0942,-0.354 -2.5622,-0.891 -2.4107,0.289 -7.9667,-0.614 -3.1631,-0.69 -3.03,0.119 1.5431,0.492 0.5299,0.718 5.8049,2.237 10.3133,2.152 2.8814,0.041 7.488,1.17 2.813,-0.263 1.4184,0.428 4.315,0.472 3.0289,-0.107 6.1597,0.719 1.9157,-0.432 0.8514,0.419 4.9982,0.913 -0.0104,-0.305 -0.3642,0.341 -1.5052,-0.376 -0.6522,0.235 -2.7414,-1.504 -0.6748,0.354 -0.7928,-0.056 -1.5841,-1.011 -1.5931,-0.452 -1.5988,0.236 -3.6915,-1.366 -0.6733,0.646 -0.7289,0.157 -0.6274,-0.725 -1.6684,-0.609 -0.8141,0.382 -1.4284,-0.896 -0.0202,0.298 -0.0059,-0.344 0.6017,0.418 1.044,-0.104 9.6333,2.338 7.8728,1.259 12.8402,3.329 1.4284,-0.089 2.0201,0.76 0.5751,0.599 1.0332,-0.176 0.0672,-0.283 -0.0303,0.317 -0.5035,-0.665 0.2056,-0.21 0.2027,0.345 -0.002,-0.451 0.3544,0.475 -0.026,-0.434 -0.0295,0.747 -0.207,-0.821 0.3669,0.772 0.3184,-0.456 0.1139,0.818 1.2686,1.211 -0.1249,1.269 0.0469,-0.311 1.613,1.395 0.041,-0.33 -0.1922,0.139 -0.5102,-0.807 -0.4188,-2.301 0.0472,-4.602 0.4975,-2.395 1.1312,-2.525 -0.0722,1.033 -0.2356,-0.294 0.0153,1.834 0.4468,4.677 0.7297,3.06 1.5836,2.292 0.3162,-0.052 -0.4724,-0.689 -0.5027,-4.979 -0.8392,-3.335 -0.3034,-2.735 0.1048,0.539 0.1932,-0.587 0.3347,3.587 0.9015,3.872 3.1912,6.629 -0.0524,-0.792 -0.0348,0.402 -0.0035,-0.323 -0.4451,-0.072 -1.1927,-5.84 -0.3759,-5.397 0.4821,-2.076 0.8004,1.5 0.1007,-0.348 0.1175,0.172 0.6446,2.298 1.8354,4.023 0.4511,2.082 1.9235,3.467 -0.1337,0.756 -0.3496,-1.043 -0.0088,0.501 -0.5764,-0.853 0.0609,0.587 0.0393,-0.527 -0.7802,-1.073 -0.6439,-3.422 -0.2973,-7.376 0.4869,-2.517 -0.2167,8.584 0.5741,2.867 1.3165,2.799 0.2359,-0.044 0.1482,0.88 -0.1278,-0.873 -0.2371,0.4 -0.0336,-0.709 -0.2451,-0.357 -0.0878,0.485 0.0669,-0.63 -0.2401,-0.106 -1.3054,-8.207 -0.3112,-3.443 0.2099,-1.517 0.7782,12.661 1.5261,5.782 0.0153,1.161 -0.5812,-0.977 -0.1796,0.207 -1.2635,-3.783 -0.4647,-0.621 -0.5004,-3.503 -0.0626,-3.691 0.3186,-1.837 0.6319,8.451 1.6882,4.666 -0.513,-1.413 0.9207,-3.123 5.63564,-6.674 3.98786,-3.142 8.21545,-5.408 2.36988,-2.091 0.65847,0.158 1.0059,-1.119 0.1906,0.15 -0.0716,-0.501 -0.2705,0.582 -0.0117,-0.442 -0.4277,-0.034 0.0432,0.842 -0.2605,-0.627 -0.1722,0.532 -0.0418,-0.241 -0.55715,0.271 -0.45477,1.091 -0.85181,-0.076 -0.79389,0.405 -4.14441,3.357 -2.875605,1.638 -4.061345,3.042 -0.51232,0.854 0.1759,0.367 0.08111,-0.338 0.40052,0.258 0.65881,-0.852 6.37708,-3.077 4.26281,-3.05 3.29887,-1.606 1.3003,-1.097 1.7902,-0.664 1.6806,-1.169 1.9575,-0.528 0.6337,-1.303 0.1168,0.508 -0.1546,0.171 -0.1782,-0.672 -1.1931,1.152 -0.2093,-0.592 -0.4247,-0.14 -0.2642,0.675 -1.4363,0.638 -6.60519,2.219 -2.49469,0.339 -5.5661612,2.52 -4.7164888,1.588 -1.81189,0.984 -3.69138,0.927 -1.0315,1.164 -0.3179,-0.34 -0.6891,0.154 -0.296,0.596 -0.0973,-0.281 0.0663,0.748 0.0797,-0.57 0.1928,-0.13 0.1307,0.376 0.2734,-0.614 0.2429,0.453 0.1109,-0.467 14.35503,-6.301 2.22717,-1.339 4.04199,-1.365 1.86391,-1.488 -0.0025,-0.571 -0.0549,0.602 -0.267,0.083 -0.2221,-0.439 -0.77071,-0.171 -0.74005,0.574 -2.74329,0.502 -1.70465,1.141 -1.0108,0.013 -4.339788,1.345 -6.159122,2.52 -4.67329,2.854 -2.0297,1.892 -0.1452,1.056 0.1884,-0.444 0.1026,0.654 0.0792,-0.813 -0.2417,-0.26 0.1736,0.674 -0.0041,-0.632 -0.0515,0.624 0.0662,-0.554 1.4109,-1.248 5.47579,-3.916 2.10968,-1.088 2.30566,-1.754 3.41724,-1.578 1.19928,-0.074 0.26379,-0.75 -0.5476,0.104 -0.08545,0.309 -0.57636,-0.613 -2.278806,1.536 -5.684694,2.699 -5.20513,3.589 -2.5561,2.637 -0.2844,1.483 0.2005,1.133 0.1207,-0.659 -0.0821,0.41 -0.0668,-0.777 -0.1781,0.198 -0.0198,-0.858 0.5213,-3.881 1.6881,-5.951 1.0717,-1.674 0.4074,-0.025 0.1571,-0.742 0.2008,2.777 2.48925,5.379 1.35284,1.229"
       id="path42" />
  </g>
  <g
     id="g399">
    <path
       fill="#000000"
       fill-rule="evenodd"
       d="M 48.75,645.75 45,645.375 43.25,644.75 v -1.5 l 4.25,-1.25 1.5,1.5 -0.25,2.25"
       id="path399" />
  </g>
  <g
     id="g400">
    <path
       fill="#201c1c"
       fill-rule="evenodd"
       opacity="0.500008"
       d="M -54.5,635 H -56 l 0.5,-1 h 1.5 l -0.5,1"
       id="path400" />
  </g>
  <g
     id="g401">
    <path
       fill="#201c1c"
       fill-rule="evenodd"
       opacity="0.500008"
       d="M -50.5,634 H -53 l 0.5,-1 h 2.5 l -0.5,1"
       id="path401" />
  </g>
  <g
     id="g402">
    <path
       fill="#201c1c"
       fill-rule="evenodd"
       opacity="0.500008"
       d="m -36,629 -0.5,1 -13,3 H -50 l 0.5,-1 1.5,-0.5 6,-4 1.5,-0.5 3.5,-3 v 0.5 l 1,1 v 3.5"
       id="path402" />
  </g>
  <g
     id="g403">
    <path
       fill="#201c1c"
       fill-rule="evenodd"
       opacity="0.500008"
       d="m -31,624 0.25,-2.75 6.75,0.75 -0.5,1 -6.5,1"
       id="path403" />
  </g>
  <g
     id="g404">
    <path
       fill="#201c1c"
       fill-rule="evenodd"
       opacity="0.500008"
       d="m -41,614 h -1 v -1 h 1 v 1"
       id="path404" />
  </g>
  <g
     id="g405">
    <path
       fill="#201c1c"
       fill-rule="evenodd"
       opacity="0.500008"
       d="m -43,602 h 1 l -0.5,1 -0.5,-1"
       id="path405" />
  </g>
  <g
     id="g406">
    <path
       fill="#201c1c"
       fill-rule="evenodd"
       opacity="0.500008"
       d="m -36,603 2,-0.375 4,-1.25 2,-0.375 -3,3.5 -0.25,1.25 -1.25,0.25 -2,2 -1.5,-1.5 V 603"
       id="path406" />
  </g>
  <g
     id="g407">
    <path
       fill="#201c1c"
       fill-rule="evenodd"
       opacity="0.500008"
       d="m -28,601 v -0.5 l 0.5,-0.5 h 1.5 v 0.5 l -0.5,0.5 H -28"
       id="path407" />
  </g>
  <g
     id="g408">
    <path
       fill="#201c1c"
       fill-rule="evenodd"
       opacity="0.500008"
       d="m -87,632 h 0.5 l 0.5,0.5 v 1.5 h -0.5 L -87,633.5 V 632"
       id="path408" />
  </g>
  <g
     id="g409">
    <path
       fill="#201c1c"
       fill-rule="evenodd"
       opacity="0.500008"
       d="m -89,630 -1,-0.5 -1.75,-0.75 -0.625,-1.75 0.375,-3 1,0.5 v 1 l 2,2 v 2.5"
       id="path409" />
  </g>
  <g
     id="g410">
    <path
       fill="#201c1c"
       fill-rule="evenodd"
       opacity="0.500008"
       d="m -92,621 1,0.5 -1,1.5 v -2"
       id="path410" />
  </g>
  <g
     id="g411">
    <path
       fill="#201c1c"
       fill-rule="evenodd"
       opacity="0.500008"
       d="m -93,619 h 0.5 l 0.5,0.5 v 0.5 h -0.5 L -93,619.5 V 619"
       id="path411" />
  </g>
  <g
     id="g412">
    <path
       fill="#201c1c"
       fill-rule="evenodd"
       opacity="0.500008"
       d="m -46,611 h 1.5 l 1.5,1.5 0.5,1.5 0.25,1.75 -4.25,2.25 -2.5,2.5 -0.25,1.25 -2.25,0.25 -2,2 -9,5 -2,2 h -3 l -2,2 -1,-1 -3,3 -1,-1 h -4 l -2,-2 h -1 l -1.5,-1.5 v -1 l -3,-3 -3,-13.5 3,-0.625 10,-3.75 4,-0.625 1.5,1 3.5,-1 v 0.5 l 0.5,0.5 h 8.5 v 0.5 l 0.5,0.5 h 3.5 2 v 2.5 l 1.5,1.5 4.25,-1.25 L -46,611"
       id="path412" />
  </g>
  <g
     id="g464">
    <path
       fill="#201c1c"
       fill-rule="evenodd"
       opacity="0.500008"
       d="m 10,618 -4,-0.5 -3,-1 -2.5,-0.5 -1,1 -1,-1 -2.5,0.375 -5,-0.125 -5,-2.75 -2,-0.75 -7,-1.75 3,-3.5 2,-4 1,-1.5 v -0.5 l 2.5,-2.5 h 2 l 3,-3 h 2 l 1.5,-1.5 0.25,-1.25 2.75,-1.25 3,0.5 3,0.125 5,-1.25 2.5,-0.375 1.5,1.5 v 1 l 2,2 v 2 l 2,2 0.5,3.5 1.25,5 -0.125,2 -0.625,2.5 -2,2.5 h -0.5 l -0.5,0.5 v 0.5 h -1.5 l -0.5,0.5 v 0.5 h -1.5 l -0.5,0.5 v 0.5"
       id="path464" />
  </g>
  <g
     id="g465">
    <path
       fill="#000000"
       fill-rule="evenodd"
       d="m -49,582 1,0.5 -1,0.5 v -1"
       id="path465" />
  </g>
  <g
     id="g466">
    <path
       fill="#000000"
       fill-rule="evenodd"
       d="m -53,582 h -0.5 l -0.5,-0.5 1,-0.5 v 1"
       id="path466" />
  </g>
  <g
     id="g467">
    <path
       fill="#000000"
       fill-rule="evenodd"
       d="m -49,583 -0.5,1 h -2 l -1.5,-2 1,-0.5 -1,-0.5 0.25,-0.75 2.25,-0.25 1.5,2 -1,0.5 0.5,0.5 h 0.5"
       id="path467" />
  </g>
  <g
     id="g468">
    <path
       fill="#000000"
       fill-rule="evenodd"
       d="m -153,586 h -0.5 l -0.5,-0.5 1,-0.5 v 1"
       id="path468" />
  </g>
  <g
     id="g554">
    <path
       fill="#000000"
       fill-rule="evenodd"
       d="m -121.5,560 0.5,-1 h -2.5 l -0.5,1 h 2.5 m -3,1 0.5,-1 h -1.5 l -0.5,1 h 1.5 m -10.5,4 v -1 h -1 v 1 h 1 m -2,1 v -1 h -1 v 1 h 1 m 1,8 v -1.5 l 2.5,-2.5 h 1 l 1,1 0.5,-0.5 -0.25,-2.25 -1.75,0.25 -2,1 -1.5,0.5 -1.5,1.5 1,1.5 1,1 m -2,3 v -2.5 l -1,-0.5 v 2.5 l 1,0.5 m 3,2 v -1 h -1 v 1 h 1 m 3,1 v -1 h -1 v 1 h 1 m -15,1 v -1 h -1 v 1 h 1 m 1,6 v -3.5 l -1,-0.5 v 3.5 l 1,0.5 m 16,1 v -1 h -1 v 1 h 1 m -14,7 v -0.5 l -1,-6 -1,-0.5 v 0.5 l 1,6 1,0.5 m 15,-3 v -1 h -1 v 1 h 1 m -1,4 v -1 h -1 v 1 h 1 m -13,4 v -3.5 l -1,-0.5 v 3.5 l 1,0.5 m 68,-48 v -1 h -1 v 1 h 1 m -9.5,1 0.5,-1 h -1.5 l -0.5,1 h 1.5 m 3,0 0.5,-1 h -1.5 l -0.5,1 h 1.5 m 9,0 0.5,-1 h -1.5 l -0.5,1 h 1.5 m -5.5,1 v -1 h -1 v 1 h 1 m 10.5,0 0.5,-1 h -4.5 l -0.5,1 h 4.5 m -44.5,3.5 5.5,-0.5 0.5,-1 -10.5,1 -0.5,1 5,-0.5 m -5.5,1.5 0.5,-1 h -3.5 l -0.5,1 h 3.5 M -32,545 v -1 h -1 v 1 h 1 m -10.5,22 0.5,-0.5 -0.25,-1.25 -1.25,-0.25 -0.5,0.5 1.5,1.5 m -2.5,2 v -1 h -1 v 1 h 1 m 5,3 v -1 h -1 v 1 h 1 m 60,49.375 3.75,-1.625 0.5,-2.5 1.5,-0.5 2.5,-4.75 0.125,-9 -1.125,-5 -1.875,-5 -4.625,-6.75 -1.25,-0.25 -3,-3 -5,-1 -0.5,0.5 1.5,1.5 2,1 4,3 3,2 1.5,1.5 1.25,4.5 -0.125,16 -0.625,2 -1,2 -0.5,1.5 -3.5,3.5 h -1 l -0.5,1 3,-0.625 M -128,600 v -1 h -1 v 1 h 1 m -14,4 v -2.5 l -1,-0.5 v 2.5 l 1,0.5 m 17,1 v -1 h -1 v 1 h 1 m -16,2 v -1.5 l -1,-0.5 v 1 l 1,1 m 1,5 v -2.5 l -1,-0.5 v 2.5 l 1,0.5 m 12,-1 v -1 h -1 v 1 h 1 m 2,1 v -1.5 l -1,-0.5 v 1 l 1,1 m -7,25 v -0.5 l -0.5,-3.5 -5,-17 -0.5,-3.5 -1,-0.5 v 0.5 l 0.625,4.5 3.875,13 1.5,6.5 1,0.5 m 8,-24 v -1 h -1 v 1 h 1 m 7,24 v -0.5 l -0.5,-3.5 -4,-11 -1.5,-6.5 -1.5,-1.5 -0.5,0.5 2.5,9.5 4,10 0.5,2.5 1,0.5 m -10,17 v -0.5 l -0.5,-3.5 -3,-10 -0.5,-2.5 -1,-0.5 v 0.5 l 0.5,3.5 3.125,11.5 1.375,1.5 m 1,4 v -2.5 l -1,-0.5 v 2.5 l 1,0.5 m 1,3 v -2.5 l -1,-0.5 v 2.5 l 1,0.5 m 1,3 v -1.5 l -1,-0.5 v 1 l 1,1 m 61.5,-61 0.5,-1 h -6.5 l -0.5,1 h 6.5 m 7,1 0.5,-1 h -4.5 l -0.5,1 h 4.5 m -63.5,17 v -1 h -1 v 1 h 1 m 23,0 v -1 h -1 v 1 h 1 m -21,4 v -1 h -1 v 1 h 1 m 31,7 v -0.5 L -88.5,630 H -89 v -2.5 l -2,-2 v -1 l -1,-0.5 v -1 l 1,-1.5 -1,-0.5 v -1 -0.5 L -92.5,619 H -93 v -6.5 l -0.5,-0.5 -0.5,0.5 -1.25,4.5 -0.75,9.5 5,5 v 1 l 5.5,5.5 h 4 l 0.5,-0.5 -1.5,-1.5 h -1 l -2.5,-2 v -1.5 L -86.5,632 H -87 m -30,8 v -2.5 l -1,-0.5 v 2.5 l 1,0.5 m 0.5,3 1.5,-1.5 -1.5,-1.5 -0.5,0.5 v 2 l 0.5,0.5 m 1.5,1 v -1 h -1 v 1 h 1 m 3,0 v -1 h -1 v 1 h 1 m -3,2 v -1 h -1 v 1 h 1 m 3,0 v -1 h -1 v 1 h 1 m -2,3 v -1.5 l -1,-0.5 v 1 l 1,1 m 5,3 v -1 h -1 v 1 h 1 m -2,1 v -1 h -1 v 1 h 1 m 1,2 v -1 h -1 v 1 h 1 m 2,1 v -1 h -1 v 1 h 1 m -4,1 v -1 h -1 v 1 h 1 m 2,0 v -1 h -1 v 1 h 1 m 3,4 v -2.5 l -1,-0.5 v 2.5 l 1,0.5 m 3,22.625 4.75,-1.875 -0.25,-1.75 -1.875,-4 -4.125,-12 -0.5,-2.5 -1,-0.5 v 0.5 l 1,7 1,1 -1,1 1,1 1,6 -1.5,1.5 -1,-1 -0.5,0.5 0.625,3.5 0.625,1.75 1.75,-0.125 M -54.5,605 -54,604 h -1.5 l -0.5,1 h 1.5 m 2.5,5 h -2 v -0.5 L -54.5,609 H -58 l -3.5,-1 -1,-1 -1,1 -1.5,-0.5 -1.75,-0.25 -0.25,0.75 -3.5,1 -1.5,-1 v -2.5 l 2,-2 -1.5,-1.5 -1,1 -4.5,0.75 -4,1.625 -2.5,0.625 -1.5,1.5 v 1 l -2.5,2.5 -1.25,0.25 -0.25,1.75 3,13.5 3,3 v 1 l 1.5,1.5 h 1 l 2,2 h 4 l 1,1 3,-3 1,1 2,-2 h 3 l 2,-2 9,-5 2,-2 2.25,-0.25 0.25,-1.25 2.5,-2.5 4.25,-2.25 -0.25,-1.75 -0.5,-1.5 -1.5,-1.5 h -1.5 -1.5 l -1,-1 H -52 m 11,4 v -1 h -1 v 1 h 1 m 14.5,3 0.5,-0.5 -1.5,-1.5 h -3 l -1,-1 -0.5,0.5 0.25,1.25 1.75,0.625 3.5,0.625 m 1.5,1 v -1 h -1 v 1 h 1 m 9,3 v -1 h -1 v 1 h 1 m -15,3 1.375,4 5.125,23 3.125,10 1.75,4 6.875,20.75 2.25,-0.75 2.5,-1.375 2.5,-0.625 2,-2 1.25,-0.25 0.5,-1.5 2.75,-0.75 5,-2 1.5,-0.5 2,-2 h 2 l 1,-1 1,1 1,-1 2.5,-0.5 5,-1.75 15,-3.125 23.75,-2.75 V 663 l -0.75,-4.5 -1,-1 1,-1 -0.25,-2.5 -6.375,-33 -1.875,-6 -3.75,-15.75 -1.5,-0.5 L 46.75,595 42.5,577 37.75,537.125 31.5,536 30,534.5 l 1,-1 -0.5,-0.5 -48.5,10.625 -6,2.75 -3.5,0.625 -2,2 -1.5,0.5 -2,1 -1.5,0.5 -1.5,1.5 -1.25,5.25 -2.25,0.25 -1.5,1.5 v 1 l 0.5,0.5 1,-1 1.5,1.5 -1,4 1,1 -1.5,1.5 -1,-1 -0.5,0.5 1,3 2,2 v 2 l -0.5,0.5 -1,-1 -0.5,0.5 v 10 l 1,1 -1,1 1,1 1,9 1,1 -1,1 1,1 0.25,3.25 0.75,0.25 v 3.5 l 1.5,1.5 2,-2 1.25,-0.25 0.25,-1.25 3,-3.5 h 1.5 l 0.5,-0.5 V 600 l 3.5,-3 1.25,-0.25 0.25,-1.25 3.5,-3.5 2,-1 8.5,-5.5 8,-3.125 5,-2.75 4,-1 7,0.125 4.75,2.5 0.5,1.5 1.5,0.5 4.25,6.25 2,2 0.625,3.5 0.75,2 1,4 v 10 l -1,4 -0.875,2 -3.75,5.75 -1.25,0.25 -2,2 -11.5,2.5 -5.5,0.5 -1,1 -1,-1 -1,1 -1,-1 -19.5,-2.75 -2,-0.75 -2,-1 -1.5,-0.5 -1.5,-1 -6.75,-0.75 L -31,624 m 19.5,-2 0.5,-1 h -2.5 l -0.5,1 h 2.5 m 2.5,0 v -1 h -1 v 1 h 1 m 6.5,1 0.5,-1 h -4.5 l -0.5,1 h 4.5 m 9,1 L 7,623.5 5.5,622 h -6 l -1.5,1.5 0.5,0.5 h 8 m -43.5,0 v -2.5 l -1.5,-1.5 -8.25,6.25 -0.25,1.25 -1.5,1.5 -4.5,2.5 -7,5 -1.5,0.5 -3,3 h -5 l -3,3 -8.5,0.625 -7,-1.375 -2,-0.75 -6,-3 -1.5,-0.5 -2.5,-2.5 -1.25,-3.5 -1.125,-5 -0.625,-7.5 1,-1 -1,-1 1,-1 0.5,-2.5 1.125,-3 0.375,-1.5 1,-1 -1,-1 1,-1 1,-3 1.5,-1.5 h 1 l 3,-3 3.5,-0.5 3,-1 3.5,-0.5 1,-1 1,1 1.5,-0.5 2,-0.375 23,2.5 8,2.875 3,0.5 0.5,1 0.5,-1 -6.5,-25 -0.5,-3.5 -1.5,-1.5 -3.5,-0.625 h -2 l -2.5,0.625 -1.5,-1.5 0.25,-2.25 3.75,0.5 4.75,-0.875 v -2.625 l -2.5,-0.5 -0.25,-2.25 1,-1 -0.5,-0.5 -3,-1 -1,-1 -1,1 -18,-2 -1,1 -1,-1 -6,1 -1,-1 -1,1 -12.5,0.75 -17,2.875 -5.75,1.625 -0.5,1.5 -3.25,1.25 -1.5,1.5 1,1 -0.125,5.25 -2.375,0.25 -1.5,-1.5 V 571 l -1,0.5 -1,3 -0.5,0.5 -1,-1 -0.5,0.5 0.25,1.25 1.5,0.5 7.875,27.75 0.75,2 1.125,4 1.875,5 0.625,3.5 2,2 v 3 l 1.5,1.5 1,-1 h 1 l 2.5,2.5 0.625,4.5 2,7 0.75,2 4.125,14 4,11 0.5,3.5 2,2 0.625,3.5 3,7 0.375,1.5 1.5,1.5 1,-1 5.5,0.875 16.5,-0.875 1,-1 1,1 h 5 l 1,1 1,-1 8.5,1.75 11,3.75 2.5,0.5 2.5,2.5 v 1 l -1.5,1.5 -17.5,-5.375 -5.5,-0.625 -1,-1 -1,1 -1,-1 h -11 l -1,1 -1,-1 -12.5,1 0.5,1 23,1 1,1 1,-1 0.5,0.5 -0.25,3.5 -20.25,-1 -1,-1 -1,1 h -5 l -1,1 -1,-1 h -1 l -3,3 -2,-2 -1,1 -4,-1 -2,-2 -2.5,0.5 -3,1 -3.5,0.5 -1,-1 -1,1 h -1 l -1.5,-1.5 -0.5,-1.5 -7,-16 -3,-10 -3,-8 -4.125,-15 -0.75,-2 -12.125,-47 -0.5,-3.5 -3,-3.5 1,-0.5 -1,-0.5 -0.25,-1 -0.25,-6 3.25,-11 1.25,-3.5 2.5,-2.5 3,-1 2,-2 3.5,-0.625 1.5,-0.375 1,-1 1,1 1,-1 2.5,-0.625 6,-2.75 3.5,-0.625 2,-2 3.5,-0.5 5,-1.875 h 5 l 3,-0.875 10,-1.375 h 4 l 12.5,1.625 1,1 1,-1 1,1 3.5,0.5 12,3.125 2,0.75 2.5,0.625 1,1 0.5,-0.5 0.25,-2.25 2.25,-0.25 1.5,1.5 v 1.5 l 1,-0.5 v -1 l 4.5,-4.5 4,-2 2,-2 2.5,-0.625 36,-11.75 4.5,-0.625 1,-1 1,1 1,-1 8,-1 1,-1 1,1 1,-1 h 1 l 1,1 1,-1 3.5,-0.625 1.5,-0.375 1,1 1,-1 h 1 l 1,1 1,-1 1,1 0.5,-0.5 0.125,-6.25 2.375,-0.25 1.5,1.5 0.125,4.25 2.375,0.25 1.5,1.5 8.625,52.5 17.875,69 1,6 3,12 0.5,3.5 -1.5,1.5 -2.25,0.25 -0.5,1.5 -1.25,0.25 -2,2 -2,-2 -1.5,-0.375 -4,-0.25 -16,2.375 -11,2.875 -2,0.75 -3.5,0.625 -1,1 -1,-1 -1,1 -1.5,0.5 -2,0.875 -2.5,0.625 -2,2 -4.5,2.5 -1.5,0.5 -1.5,1.5 0.5,0.5 1.5,-0.375 3,-1.125 9,-2 5.75,-0.375 v 2.625 L 11,694.625 9,695.375 5,696.5 H 2 l -3.5,-0.5 -1.5,-1.5 -0.25,-1.25 -1.5,-0.5 -0.5,-1.625 -4.25,-0.125 -0.5,0.5 1,1 v 2 l -2.5,2.5 -0.5,-0.5 -0.25,-1.25 -1.75,-0.5 -4.5,-0.75 -3.5,-3.5 -1,-4 1,-1 -1,-1 1.5,-1.5 1,1 0.5,-0.5 -0.625,-4.5 -1.375,-5.5 -2,-2 -0.625,-2.5 -0.75,-2 L -36,629 v -3.5 l -1,-1 V 624 m 49,-7 h 1.5 L 14,616.5 V 616 h 0.5 L 15,615.5 V 615 h 2.5 l 1.5,-1.5 1,-6 1,-1 -1,-1 v -1 l 1,-1 -1,-1 v -3 l 1,-1 -1,-1 -3,-5 L 15.5,591 11,588.5 9,587.75 H 2 L 0.25,588.25 0,589.5 -1.5,591 -2.75,591.25 -3,592 -5.75,593.25 -6,594.5 -7.5,596 h -2 l -3,3 h -2 l -2.5,2.5 v 0.5 h -1.5 l -2,2 -7,5 -0.5,1 h 0.5 l 4.5,1 7,1.75 2,0.75 5,2.75 5,0.125 2.5,-0.375 1,1 1,-1 2.5,0.5 3,1 4,0.5 h 1.5 L 12,617.5 V 617 m -136,50 v -1.5 l -1,-0.5 v 1 l 1,1 m 1,4 v -2.5 l -1,-0.5 v 2.5 l 1,0.5 m 16,-1 v -1 h -1 v 1 h 1 m -15,4 v -2.5 l -1,-0.5 v 2.5 l 1,0.5 m 16,-1 v -1 h -1 v 1 h 1 m -15,3 v -1.5 l -1,-0.5 v 1 l 1,1 m 16,-1 v -1 h -1 v 1 h 1 m -2,2 v -1.5 l -1,-0.5 v 1 l 1,1 m 9,6 v -1 h -1 v 1 h 1 m 1,2 v -1 h -1 v 1 h 1 m -4,9 v -1 h -1 v 1 h 1 M 5,683 v -1 H 4 v 1 h 1 m -4.5,2 0.5,-1 h -1.5 l -0.5,1 h 1.5 m -1.5,1 v -1 h -1 v 1 h 1 m -1.5,1 0.5,-1 h -1.5 l -0.5,1 h 1.5 m 7.5,1 v -1 H 4 v 1 h 1 m -13,2 v -1 h -1 v 1 h 1 m 7.5,2 L 2,689.5 1.5,689 h -1 l -1.5,2 0.5,1 m -0.5,1 v -1 h -1 v 1 h 1 m -10,2 v -1 h -1 v 1 h 1 M 9,681 v -1 H 8 v 1 h 1 m -2,1 v -1 H 6 v 1 h 1"
       id="path554" />
  </g>
</g>
</svg>
