<?xml version="1.0" encoding="UTF-8" standalone="no"?>
<svg
   width="276.62991"
   height="248.83252"
   viewBox="-702 0 276.62991 248.83252"
   version="1.2"
   id="svg924"
   xmlns="http://www.w3.org/2000/svg"
   xmlns:svg="http://www.w3.org/2000/svg"><defs
   id="defs924" />
<title
   id="title1">Notebook 3</title>
\n<g
   id="g934"
   transform="matrix(0.71405611,0,0,0.84948172,-184.86134,-976.79129)">
  <g
     id="g947"
     transform="matrix(1.2796248,0,0,1.2005031,-41.227189,-267.92682)">
    <g
       id="g919">
      <path
         fill="#000000"
         fill-rule="evenodd"
         d="m -425,1410 2.5,-2 h 1 l 3,-3 h 2 l 3.5,-4 3.5,-1 0.5,-1 2.5,-2 h 1 l 2,-2 h 2 l 2,-2 h 1 l 6.5,-6.5 2.25,-4.25 2.75,0.38 1.5,0.37 0.5,0.5 -1,1 1,1 1,3 1.5,1.5 h 0.5 l 1.5,2 1.25,0.25 0.5,1.5 6.75,1.88 2,0.75 4,1.12 8,3 10,3 6,1 6.75,0.38 -0.125,-2.88 -2.125,-9 -0.5,-3.5 -1,-0.5 -0.5,-2 -3,-6 -0.75,-1.75 -1.5,-0.5 v -2.5 l 1.75,-0.62 4,-0.5 31.5,0.87 1,-1 1,1 h 0.5 l 4.5,-1 1,1 1,-1 8.5,-1.5 8,0.25 1.5,0.25 1,-1 1,1 4.5,-0.5 3.75,-0.75 -0.75,-2.25 -4.5,-6.5 -0.5,-1.5 -4,-3.5 -0.25,-1.75 -6.75,-4.62 -2.5,-0.63 -2,-2 -3,-1 -1.5,-1.5 v -1.5 h 0.5 l 0.5,-0.5 v -0.5 -0.5 l 0.5,-0.5 h 0.5 l 5.5,-1 2,-2 h 2 l 2,-2 h 2 l 3,-3 4,-1 2,-2 2.5,-0.62 7,-3.88 1.75,-0.75 0.5,-1.5 1.75,-0.75 2,-1 5.5,-3.5 2.25,-1.25 0.5,-1.5 6.25,-4.25 2,-1 2.5,-2.5 -1.5,-1.5 -7.5,-5.5 -2,-0.5 -1.75,-0.25 -0.5,-1.5 -5.75,-1.5 -9,-1.5 -3,0.25 -2.5,0.5 -1.5,-1 v -4 h 0.5 l 0.5,-0.5 v -1.5 h 0.5 l 0.5,-0.5 v -0.5 h 0.5 l 0.5,-0.5 v -0.5 -0.5 l 3.5,-3.5 h 0.5 l 6,-5.5 0.25,-1.25 1.25,-0.25 2.5,-2.5 0.25,-1.25 1.25,-0.25 1.5,-1.5 0.5,-1.5 3,-5 1.875,-4 0.875,-3 0.75,-11.5 -4,-4 -1.25,-3.25 -1.75,0.13 -2.75,0.87 -0.25,0.75 h -2.5 l -2,2 -1.5,0.5 -2,1 -1.5,0.5 -2,2 -2.5,0.63 -2,0.87 -2.5,1.5 -6.5,4.5 -1.5,0.5 -1.5,-1 -1.5,-2 -0.875,-2 -5.125,-14 -0.5,-2.5 -1,-0.5 -0.5,-3 -3.125,-11 -0.875,-2 -0.5,-2 -0.5,-2 -5.5,-8.5 -5.25,-7.25 -1.5,-0.5 -0.25,-1.25 -1.5,-1.5 -0.5,0.5 -0.5,1.5 -1,2 -0.75,2 -3.25,13 -0.5,3 -1,6.5 -1.5,1.5 h -1 l -1,1 -4,-4 -1.25,-0.25 -0.5,-1.5 -1.25,-0.25 -1.5,-1 -2.5,-2 h -1 l -1.5,-1 -1.5,-2 -4.25,-1.25 -0.25,-1.25 -1.5,-1.5 -3,-1 -3,-3 h -1.5 v -0.5 l -0.5,-0.5 h -0.5 -1 l -3.5,-4 -1.5,-0.5 -4.75,-2.75 -0.5,-1.5 -3.25,-1.25 -2,-2 -5,-1 -2,-2 -2.5,-0.5 -7,-3 -1.75,-0.25 0.25,1.75 0.875,2 0.625,2.5 3,3 v 1 l 2,2 v 0.5 l 4,4.5 3.375,5.5 0.625,2.5 -2.5,2.5 -2.25,-0.25 -0.5,-1.5 -11.75,-3.5 -13,-3.12 -5,-0.63 v -0.5 l -0.5,-0.5 h -1.5 l -5,-0.62 -3,-0.75 -14,-2.13 -9.5,-0.5 -1,-1 -1,1 -1,-1 h -3 l -1,1 -1,-1 h -3.5 -8.5 l -1,-1 -1,1 h -4 l -1,-1 -0.5,0.5 0.5,1.5 7,15 0.75,1.75 0.75,0.25 8,8.5 v 1 l 2,2 0.5,2.5 2,5 0.5,2 h -0.5 l -2,2 h -1.5 l -14,-3.62 -14,-5.75 -2.5,-0.63 -2,-2 -4,-1 -2,-2 h -1.5 l -3.5,-1 -1,-1 -0.5,0.5 v 1 l -1,1 1,1 v 1.5 l 0.5,7 1.25,5 0.25,1.5 1.5,1.5 4.5,0.5 5.75,1.75 1.25,3.25 -2.5,2.5 -2,-2 -2.5,-0.62 -1.75,-0.13 v 2.5 l 1.25,0.25 1.5,1.5 1,3 -1.5,1.5 -3,-1 -2.5,-2.5 -1,-4 -1.5,-1.5 -4.5,1.25 -8.5,0.75 -1,1 -1,-1 -4,1 -1,1 -1,-1 -1,1 h -4.5 l -3.75,0.25 -0.25,1.25 1.5,1.5 2,1 3,2 4.5,2.5 1.75,0.75 0.5,1.5 0.75,0.25 4.5,4 1.25,0.25 0.25,1.25 10.5,10.5 h 0.5 l 1.5,2 1.25,0.25 0.5,1.5 1.5,0.5 1.5,3.5 0.75,0.25 2,2.5 v 1 l 1.5,1.5 h 1 l 3.5,3.5 v 4 l -2.5,2.5 -3.25,1.25 -0.5,1.5 -1.5,0.5 -2.25,4.25 -4.5,4.5 -1.25,0.25 -4.75,6.75 -0.5,1.5 -3,3 v 2 l -5,5 v 1 l -5.5,5.5 -1.25,0.25 -0.25,1.75 h -1.5 l -4,4 -1.25,0.25 -0.25,1.25 1.5,1.5 12.5,1 10.5,2 1,1 1,-1 1,1 h 3.5 l 5,1.5 6,1 4,1 3.5,0.5 2,2 3.5,0.5 12.75,3.75 0.5,1.5 3.75,1.63 3.75,0.87 0.5,1.75 1.75,10 0.625,14 1.125,7 1.25,3.5 1,1 -1,1 1,1 1.25,4.25 0.75,0.25 1,6.5 0.5,0.5 1,-1 2.5,-0.62 4.5,-2.38 3.5,-4 m 108,-29 h -2 l -0.5,-1 -1,1 -1,-1 -10.5,0.75 -3,-0.37 -1.5,-0.38 -1.5,1.5 2,2 v 1.5 l 1,1.5 0.375,1.5 1.125,3 2.875,13 -0.125,5 -0.5,1.75 -2.75,-0.37 -1.5,-0.38 -1,-1 -1,1 -5.5,-1.37 -7,-1.25 -7,-2 -5,-1.88 -3.5,-0.5 -2,-2 -3.5,-0.5 -6.5,-1.5 -2,-2 -1.5,-0.5 -2,-1 -1.75,-0.75 -1.25,-2.25 -2,-2.5 -0.5,-1 -0.5,0.5 v 0.5 h -0.5 l -7,7 h -1 l -2,2 -1,-1 -1.5,1.5 -0.25,1.25 -2.25,0.25 -2,2 -2,1 -6.5,4.38 -2.75,0.87 -0.5,1.5 -9.25,7.25 -2.5,1.5 -1.5,0.5 -2.5,2.5 v 1 l -1.5,1.5 -4.25,-1.25 -3.25,-12.75 -2.5,-7 -1.875,-8 -0.625,-10 -1.75,-13 -0.5,-1.75 -1.25,-0.25 -1,-1 -1,1 -3,-3 -2.5,-0.62 -2,-0.75 -2.5,-0.63 -2,-2 -5.5,-1.37 -4.5,-0.63 -2,-2 h -8 l -2,-2 -1,1 -1.5,-0.25 -12,-3.25 -3,-1.12 -1.5,-0.38 -1,1 -1,-1 -2.5,0.63 -2,0.12 -16.75,-4 -0.25,-2.25 1.5,-1.5 1.25,-0.25 0.5,-1.5 1.25,-0.25 1.5,-1.5 v -1 l 1.5,-1.5 1.25,-0.25 0.5,-1.5 2.5,-0.5 0.25,-1.75 h 1.5 l 2.5,-2.5 0.25,-1.25 1.25,-0.25 2.5,-2.5 3.5,-5.5 0.5,-1.5 2,-2 v -1.5 h 0.5 l 0.5,-0.5 v -0.5 h 0.5 l 0.5,-0.5 v -0.5 -0.5 l 3,-3 0.25,-1.25 1.25,-0.25 1.5,-1.5 0.25,-1.25 1.5,-0.5 3.25,-5.25 4.5,-4.5 1.5,-1 v -1.5 l -1.5,-1.5 h -0.5 v -0.5 l -0.5,-0.5 h -0.5 v -1.5 l -4,-4 v -1 l -4.5,-4.5 -1.25,-0.25 -0.25,-1.25 -3,-2.5 -6,-6.5 -0.25,-1.25 -1.25,-0.25 -3.5,-3 -0.25,-0.75 -1.5,-0.5 -0.5,-1.5 -1.75,-0.75 -12.5,-7.5 -2,-2 -2.25,-0.25 -0.625,-1.75 -0.375,-2.75 1.25,-0.25 1,-1 1,1 3.5,-1.25 5,-0.75 19.5,-3 1,1 1,-1 4,-1 0.5,-0.5 -2,-2 -1,-11.5 -0.25,-1 -0.75,-4.5 1,-1 -1,-1 -0.375,-1.5 -0.375,-2.87 9.25,0.87 2,2 1.5,0.38 3,1.12 2,0.5 2,1.5 2,1 5,2 2.5,0.5 2,2 1.5,0.38 3,1.25 7,1.87 4.75,0.38 -0.375,-3.88 -0.375,-1.5 -2.5,-2.5 -1.25,-0.25 -0.25,-1.25 -5,-5.5 -0.5,-1 -0.5,-1.5 -2,-2 v -2 l -2,-2 -0.5,-1.5 -0.875,-2 -0.625,-3.5 -2,-2 -1,-6 1.5,-1.5 h 6 l 1,1 1,-1 17.5,1 34,4 v 0.5 l 0.5,0.5 h 0.5 l 5,0.5 9,1.5 15,4.63 1.75,0.12 -1.25,-2.75 -1.5,-2.5 -2,-1.5 v -0.5 l -2,-2 -0.5,-1.5 -3.875,-8 -0.625,-2.5 -2,-2 v -2 l 1.5,-1.5 3.5,0.5 6,2.13 9,3.87 4,1.88 3.5,0.62 3,3 h 2 l 3,3 9,6 4,3 2.5,1.5 1.5,0.5 1.5,1.5 0.25,1.25 2.25,0.25 2,2 2,1 7.5,5 1.75,1.25 0.25,1.25 1,0.5 v -0.5 l 1,-3.5 0.5,-4 3.5,-14.5 2,-2 v -2 l 1,-1 -1,-1 1,-1 0.25,-1.25 3.25,-0.25 6.5,6.5 1.5,2.5 6,8 0.5,1.5 3,3 0.5,2.5 3,8 3.125,12 4.875,13 0.5,2.5 1.5,1.5 1,-1 2.5,-0.62 7,-4.38 h 1.5 l 0.5,-0.5 v -0.5 h 1.5 l 0.5,-0.5 v -0.5 h 1.5 l 0.5,-0.5 v -0.5 l 1.5,-1 h 1 l 2,-2 h 2 l 2,-2 1.5,-0.5 2,-0.12 3.5,0.62 2.5,2.5 1.25,3.25 1.5,0.5 1.625,4.75 0.625,5.5 1,1 -1,1 -0.5,5.5 -1.125,4 -0.875,2 -5.5,9.5 -9.5,9.5 -1.25,0.25 -0.25,1.25 -2.5,2.5 -1.25,0.25 -0.25,1.25 -2,2 0.5,0.5 10.5,1.63 3,0.87 6.5,2.5 2,2 2.25,0.25 0.5,1.5 2.25,1.25 3,2 2.25,1.25 0.25,1.25 2,2 v 2 l -2.5,2.5 h -2 l -2,2 -2,1 -19.5,13.5 -2,1 -1.5,0.5 -3,3 h -2 l -2,2 -1.5,0.5 -2,1 -1.5,0.5 -2,2 -4,1 -2,2 -3.5,1 -2,1.5 0.5,0.5 4.5,1 v 0.5 l 0.5,0.5 h 0.5 v 0.5 l 0.5,0.5 h 0.5 l 2.5,3 1.25,0.25 9.75,13.75 0.75,1.75 1.5,0.5 1.25,5.25 -1.5,1.5 h -1 l -1,1 -1,-1 -14,1 -1,-1 -1,1 -8.5,0.63 -7.5,1.37 -1,-1 -1,1 h -2 l -1,1 -1,-1 -2.5,0.63 -2,0.12 -5,-0.75 h -0.5 l -0.5,0.5 v 0.5"
         id="path919" />
    </g>
    <g
       id="g933">
      <g
         id="g838">
        <path
           fill="#201c1c"
           fill-rule="evenodd"
           opacity="0.500008"
           d="m -317,1381 v -0.5 l 0.5,-0.5 h 0.5 v 0.5 l -0.5,0.5 h -0.5"
           id="path838" />
      </g>
      <g
         id="g839">
        <path
           fill="#201c1c"
           fill-rule="evenodd"
           opacity="0.500008"
           d="m -336,1385 v -1.5 l -2,-2 1.5,-1.5 1.5,0.38 3,0.37 10.5,-0.75 1,1 1,-1 0.5,1 -0.5,1 -3.5,0.5 -3,0.75 -10,1.75"
           id="path839" />
      </g>
      <g
         id="g840">
        <path
           fill="#201c1c"
           fill-rule="evenodd"
           opacity="0.500008"
           d="m -389,1390 v -0.5 l 0.5,-0.5 0.5,1 h -1"
           id="path840" />
      </g>
      <g
         id="g841">
        <path
           fill="#201c1c"
           fill-rule="evenodd"
           opacity="0.500008"
           d="m -443,1411 -2,-0.5 -4.75,-2.75 -0.25,-1.25 -2,-2 -0.375,-2.5 v -7 l 1,-3 1.875,-4 1.5,-2 0.625,10 1.875,8 2.5,7"
           id="path841" />
      </g>
      <g
         id="g854">
        <path
           fill="#201c1c"
           fill-rule="evenodd"
           opacity="0.500008"
           d="m -282,1350 h 0.5 l 0.5,0.5 v 0.5 h -0.5 l -0.5,-0.5 v -0.5"
           id="path854" />
      </g>
      <g
         id="g855">
        <path
           fill="#201c1c"
           fill-rule="evenodd"
           opacity="0.500008"
           d="m -283,1349 h 0.5 l 0.5,0.5 v 0.5 h -0.5 l -0.5,-0.5 v -0.5"
           id="path855" />
      </g>
      <g
         id="g856">
        <path
           fill="#201c1c"
           fill-rule="evenodd"
           opacity="0.500008"
           d="m -283,1349 -4.5,-1 -0.5,-0.5 2,-1.5 0.5,1 h 1 l 1.5,2"
           id="path856" />
      </g>
      <g
         id="g857">
        <path
           fill="#201c1c"
           fill-rule="evenodd"
           opacity="0.500008"
           d="m -321,1328 h -1 v -1 h 1 v 1"
           id="path857" />
      </g>
      <g
         id="g858">
        <path
           fill="#201c1c"
           fill-rule="evenodd"
           opacity="0.500008"
           d="m -408,1357 h -1 v -1 h 1 v 1"
           id="path858" />
      </g>
      <g
         id="g859">
        <path
           fill="#201c1c"
           fill-rule="evenodd"
           opacity="0.500008"
           d="m -420,1353 h -1 v -1 h 1 v 1"
           id="path859" />
      </g>
      <g
         id="g860">
        <path
           fill="#201c1c"
           fill-rule="evenodd"
           opacity="0.500008"
           d="m -424.5,1352 h -1.5 l 0.5,-1 h 1.5 l -0.5,1"
           id="path860" />
      </g>
      <g
         id="g861">
        <path
           fill="#201c1c"
           fill-rule="evenodd"
           opacity="0.500008"
           d="m -426.5,1351 -4,-1 -1.5,-1.5 0.5,-0.5 4,1 1.5,1.5 -0.5,0.5"
           id="path861" />
      </g>
      <g
         id="g862">
        <path
           fill="#201c1c"
           fill-rule="evenodd"
           opacity="0.500008"
           d="m -439,1343 3.5,1 3.5,3.5 -0.5,0.5 -2.5,-0.62 -2,-0.88 -1.5,-0.5 -2.5,-3 h 2"
           id="path862" />
      </g>
      <g
         id="g863">
        <path
           fill="#201c1c"
           fill-rule="evenodd"
           opacity="0.500008"
           d="m -441,1343 h -1.5 l -0.5,-0.5 v -1.5 h 0.5 l 1.5,1.5 v 0.5"
           id="path863" />
      </g>
      <g
         id="g864">
        <path
           fill="#201c1c"
           fill-rule="evenodd"
           opacity="0.500008"
           d="m -443,1341 h -0.5 l -5.5,-5.5 -1,-3.5 h 1 l 2,1.5 2,4 2,1.5 v 2"
           id="path864" />
      </g>
      <g
         id="g865">
        <path
           fill="#201c1c"
           fill-rule="evenodd"
           opacity="0.500008"
           d="m -450,1332 h -0.5 l -0.5,-0.5 v -0.5 h 0.5 l 0.5,0.5 v 0.5"
           id="path865" />
      </g>
      <g
         id="g866">
        <path
           fill="#201c1c"
           fill-rule="evenodd"
           opacity="0.500008"
           d="m -504,1320 v -0.5 l 0.5,-0.5 h 0.5 v 0.5 l -0.5,0.5 h -0.5"
           id="path866" />
      </g>
      <g
         id="g867">
        <path
           fill="#201c1c"
           fill-rule="evenodd"
           opacity="0.500008"
           d="m -503,1319 v -0.5 l 0.5,-0.5 h 0.5 v 0.5 l -0.5,0.5 h -0.5"
           id="path867" />
      </g>
      <g
         id="g868">
        <path
           fill="#201c1c"
           fill-rule="evenodd"
           opacity="0.500008"
           d="m -452,1315 -0.75,-0.25 -0.625,-1.75 -0.625,-3 1,0.5 1,4.5"
           id="path868" />
      </g>
      <g
         id="g869">
        <path
           fill="#201c1c"
           fill-rule="evenodd"
           opacity="0.500008"
           d="m -454,1310 h -0.5 l -1.5,-1.5 v -1.5 h 0.5 l 1.5,1.5 v 1.5"
           id="path869" />
      </g>
      <g
         id="g870">
        <path
           fill="#201c1c"
           fill-rule="evenodd"
           opacity="0.500008"
           d="m -518,1337 0.5,-3 1.125,-3 0.375,-1.5 5.5,-5.5 4.25,-2.25 0.5,-1.5 1.75,-0.25 v 1.5 l -2,2 -0.5,1.5 -3.5,5.5 -2.5,2.5 -1.25,0.25 -0.25,1.25 -2.5,2.5 h -1.5"
           id="path870" />
      </g>
      <g
         id="g882">
        <path
           fill="#201c1c"
           fill-rule="evenodd"
           opacity="0.500008"
           d="m -270,1245 v -0.5 l 0.5,-0.5 h 1.5 v 0.5 l -0.5,0.5 h -1.5"
           id="path882" />
      </g>
      <g
         id="g883">
        <path
           fill="#201c1c"
           fill-rule="evenodd"
           opacity="0.500008"
           d="m -268,1244 v -0.5 l 0.5,-0.5 h 1.5 v 0.5 l -0.5,0.5 h -1.5"
           id="path883" />
      </g>
      <g
         id="g884">
        <path
           fill="#201c1c"
           fill-rule="evenodd"
           opacity="0.500008"
           d="m -266,1243 v -0.5 l 0.5,-0.5 h 1.5 v 0.5 l -0.5,0.5 h -1.5"
           id="path884" />
      </g>
      <g
         id="g885">
        <path
           fill="#201c1c"
           fill-rule="evenodd"
           opacity="0.500008"
           d="m -317,1282 h 0.5 l 0.5,0.5 v 1.5 h -0.5 l -0.5,-0.5 v -1.5"
           id="path885" />
      </g>
      <g
         id="g886">
        <path
           fill="#201c1c"
           fill-rule="evenodd"
           opacity="0.500008"
           d="m -318,1280 h 0.5 l 0.5,0.5 v 0.5 h -0.5 l -0.5,-0.5 v -0.5"
           id="path886" />
      </g>
      <g
         id="g887">
        <path
           fill="#000000"
           fill-rule="evenodd"
           d="m -352.5,1283 -4,-1 -4,-4 -8,1 -1.5,1.5 -0.25,1.25 -1.75,0.75 h -2 l -1.75,-0.75 -0.25,-2.25 1,-1 -1,-1 v -3 l 1.5,-1.5 4,1 1,1 1,-1 1,1 1.5,-0.37 3,-1.13 3.5,-0.5 3,3 1.5,0.5 2,1 1.75,0.75 0.25,1.25 1,1 -2.5,2.5"
           id="path887" />
      </g>
      <g
         id="g888">
        <path
           fill="#201c1c"
           fill-rule="evenodd"
           opacity="0.500008"
           d="m -360,1242 h -1 v -1 l 5,0.5 9,2 3,1 2.5,0.5 3.5,3.5 -0.5,0.5 -7.5,-1.62 -10,-3.75 -3,-0.63 v -0.5 l -0.5,-0.5 h -0.5"
           id="path888" />
      </g>
      <g
         id="g889">
        <path
           fill="#000000"
           fill-rule="evenodd"
           d="m -377,1323.38 -4,1.12 -6,-0.12 -3,-1 -2,-0.88 -8.75,-6.75 -0.25,-1.25 -1.5,-1.5 -1.25,-0.25 -0.75,-1.75 -5.5,-8.5 -1,-2 -2,-2 v -2 l 1.5,-1.5 h 2 l 1,1 1,-1 h 1 l 2.5,2.5 v 1 l -0.5,0.5 -1,-1 -1.5,1.5 1,1 0.5,1.5 3.5,5.5 10.5,10.5 h 1 l 2,2 2.5,0.5 h 4 l 3.5,-0.5 2,-2 2,-1 10.375,-8.25 -0.875,-9.25 1.5,-1.5 h 2 l 1.5,1.5 0.25,1.5 v 7 l -2.25,4.5 -2.5,2.5 -1.25,0.25 -0.5,1.5 -8.75,5.75 -2,0.88"
           id="path889" />
      </g>
      <g
         id="g890">
        <path
           fill="#000000"
           fill-rule="evenodd"
           d="m -408.25,1283.75 -2.25,0.25 -2.5,-2.5 2,-2 4.25,-6.25 3.25,-1.25 1,1 1,-1 1.5,0.5 4.5,2.5 1,1 1,-1 1,1 h 1 l 2.5,2.5 v 2 l -1.5,1.5 h -1 l -1,1 -0.5,-0.5 -0.25,-1.25 -1.75,-0.75 -5,-3 h -2 l -2,1 -1.5,0.5 -1.5,1.5 -1.25,3.25"
           id="path890" />
      </g>
      <g
         id="g891">
        <path
           fill="#201c1c"
           fill-rule="evenodd"
           opacity="0.500008"
           d="m -422,1243 h -1 v -1 h 1 v 1"
           id="path891" />
      </g>
      <g
         id="g892">
        <path
           fill="#201c1c"
           fill-rule="evenodd"
           opacity="0.500008"
           d="m -418.5,1242 h -2.5 l 0.5,-1 h 2.5 l -0.5,1"
           id="path892" />
      </g>
      <g
         id="g893">
        <path
           fill="#201c1c"
           fill-rule="evenodd"
           opacity="0.500008"
           d="m -485,1299 h -0.5 l -1.5,-1.5 v -1.5 h 0.5 l 1.5,1.5 v 1.5"
           id="path893" />
      </g>
      <g
         id="g894">
        <path
           fill="#201c1c"
           fill-rule="evenodd"
           opacity="0.500008"
           d="m -487,1296 h -0.5 l -0.5,-0.5 v -0.5 h 0.5 l 0.5,0.5 v 0.5"
           id="path894" />
      </g>
      <g
         id="g895">
        <path
           fill="#201c1c"
           fill-rule="evenodd"
           opacity="0.500008"
           d="m -455,1298 0.75,-7 4.25,-19.5 2,-1.5 1,0.5 1.25,3.5 v 9 l -0.75,2 -3,6 -3.5,5.5 -2,1.5"
           id="path895" />
      </g>
      <g
         id="g896">
        <path
           fill="#201c1c"
           fill-rule="evenodd"
           opacity="0.500008"
           d="m -458,1289 -1,-0.5 v -3 l 1,-1 -1,-1 1,-3 1,-1 -1,-1 0.625,-2.5 1.875,-4 0.5,-1.5 v -0.5 l 1,0.5 -4,18 v 0.5"
           id="path896" />
      </g>
      <g
         id="g897">
        <path
           fill="#201c1c"
           fill-rule="evenodd"
           opacity="0.500008"
           d="m -452,1268 h -1 v -1 h 1 v 1"
           id="path897" />
      </g>
      <g
         id="g898">
        <path
           fill="#201c1c"
           fill-rule="evenodd"
           opacity="0.500008"
           d="m -501,1280 -4.5,-1 -5.5,-5.5 -1,-4.5 3.5,3 1.25,0.25 0.25,1.25 6,6.5"
           id="path898" />
      </g>
      <g
         id="g911">
        <path
           fill="#201c1c"
           fill-rule="evenodd"
           opacity="0.500008"
           d="m -326,1218 v -0.5 l 0.5,-0.5 h 3.5 l -1,3.5 v 0.5 l -1,-0.5 -0.25,-1.25 -1.75,-1.25"
           id="path911" />
      </g>
      <g
         id="g912">
        <path
           fill="#201c1c"
           fill-rule="evenodd"
           opacity="0.500008"
           d="m -405,1238 -4,1.5 -4,1 -3.5,0.5 h -0.5 l 0.5,-1 1.5,-0.5 4,-1.87 4,-1 6.5,-0.63 0.5,0.5 -0.5,0.5 h -3.5 -0.5 l -0.5,0.5 v 0.5"
           id="path912" />
      </g>
      <g
         id="g913">
        <path
           fill="#000000"
           fill-rule="evenodd"
           d="m -404,1237 h 3.5 l 0.5,-0.5 -0.5,-0.5 -6.5,0.63 -4,1 -4,1.87 -1.5,0.5 -0.5,1 h 0.5 l 3.5,-0.5 4,-1 4,-1.5 h 0.5 l 0.5,-0.5 v -0.5 m -41,21 v -1 h -1 v 1 h 1 m -2,3 v -1 h -1 v 1 h 1 m -1,1 v -1 h -1 v 1 h 1 m -1,1 v -1 h -1 v 1 h 1 m -2,4 v -0.5 l 1,-3 -0.5,-0.5 -1.5,1.5 v 2 l 1,0.5 m -1,1 v -1 h -1 v 1 h 1 m -6,21 v -0.5 l 4,-18 -1,-0.5 v 0.5 l -0.5,1.5 -1.875,4 -0.625,2.5 1,1 -1,1 -1,3 1,1 -1,1 v 3 l 1,0.5 m 64,-49 v -1 h -1 v 1 h 1 m -24.5,2 0.5,-1 h -2.5 l -0.5,1 h 2.5 m -3.5,1 v -1 h -1 v 1 h 1 m 26,2 v -1 h -1 v 1 h 1 m -37,4 v -1 h -1 v 1 h 1 m -2,1 v -1 h -1 v 1 h 1 m -1,1 v -1 h -1 v 1 h 1 m -2.5,2 1.5,-1.5 -0.5,-0.5 h -1 l -1.5,1.5 0.5,0.5 h 1 m -1.5,1 v -1 h -1 v 1 h 1 m -2,2 v -1 h -1 v 1 h 1 m 83,-13 3,0.63 10,3.75 7.5,1.62 0.5,-0.5 -3.5,-3.5 -2.5,-0.5 -3,-1 -9,-2 -5,-0.5 h -1.5 l -0.5,0.5 0.5,0.5 h 1.5 1 v 0.5 l 0.5,0.5 h 0.5 m -93,72 3.5,9 0.5,1.5 2,2 0.25,2.25 1.5,0.5 1.25,3.25 1.5,1.5 13.5,9.5 1.5,0.5 2,2 2.5,0.5 7,2.88 2.5,0.62 1,1 1,-1 1,1 5.5,1.38 17,3 18,-0.25 3,-0.63 3,-1.12 1.5,-0.38 2,-2 h 2 l 2,-2 1.5,-0.5 15.5,-9.5 11.5,-11.5 2,-4 3.5,-3.5 1.25,-0.25 3.5,-10.75 1.125,-6 -0.375,-20 v -1.5 l -0.5,-0.5 h -0.5 v -1 -0.5 l -0.5,-0.5 h -0.5 l -0.5,-2 -0.875,-2 -0.625,-2.5 -2,-2 -0.625,-2.5 -1.875,-4 -4.5,-6.5 -2.5,-2.5 h -2 l -2,-2 -2.5,-0.5 -26,-8.12 -8,-2.13 -4.5,-2.25 -1,-1 -1,1 -1.5,-0.25 h -7 l -2,0.75 -2,1 -1.5,0.5 -4,4 -1,-1 -1.25,-0.25 0.25,-1.75 0.75,-1.75 1.25,-0.25 1.5,-1.5 -0.5,-0.5 -7,1 -2,2 -7,1 -2,2 -1,-1 -1,1 -4.5,0.5 -4,1.13 -2.5,1.37 -11.5,8.5 -2.5,1.5 -1.5,1.5 v 1 l -1.5,1.5 -1.25,0.25 -2.75,4.75 -0.5,2 -2,1.5 -4.25,19.5 -0.75,7 v 3.5 l -1,1 v 4.5 1.5 l 1.5,1.5 h 0.5 l 0.625,3 0.625,1.75 0.75,0.25 m -1,8 v -1 h -1 v 1 h 1 m 1,3 v -1 h -1 v 1 h 1 m 13,17 v -0.5 l -3.5,-3.5 h -0.5 l -2,-1.5 -2,-4 -2,-1.5 v -1.5 l -2,-2 v -1 l -1,-0.5 v 0.5 l 0.625,2.5 0.375,1 v 0.5 l 0.5,0.5 h 0.5 l 1,3.5 5.5,5.5 h 0.5 v 1.5 l 0.5,0.5 h 1.5 l 2.5,3 1.5,0.5 2,0.88 2.5,0.62 0.5,-0.5 -3.5,-3.5 -3.5,-1 m 12.5,8 0.5,-0.5 -1.5,-1.5 -4,-1 -0.5,0.5 1.5,1.5 4,1 m 2,1 0.5,-1 h -1.5 l -0.5,1 h 1.5 m 4.5,1 v -1 h -1 v 1 h 1 m 12,4 v -1 h -1 v 1 h 1 m 87,-29 v -1 h -1 v 1 h 1 m -5,6 v -1 h -1 v 1 h 1 m -28,23 -2,0.5 -2,0.88 -3.5,0.62 -2,2 -6.5,0.63 -5,1.37 -0.5,-1 -1,1 -1.5,-0.5 -2,-0.37 -21,0.87 v -0.5 l -0.5,-0.5 h -1.5 l -3,-0.5 -4,-1 -5.5,-0.5 -2,-2 -1,1 -1.5,-0.5 -2,-0.87 -4,-1.25 -4,-1.75 -2.5,-0.63 -2,-2 -2.5,-0.62 -3.75,-1.63 -0.5,-1.5 -4.25,-2.25 -1.5,-1.5 -5,-7 -2,-2 v -2 l -2,-2 -1,-4.5 v -1.5 l -0.5,-0.5 h -0.5 l -2.75,-19 -2.875,-15 v -3 l 2.125,-13 1.75,-5.75 1.5,-0.5 0.75,-1.75 2,-4 0.5,-1.5 5,-5.5 h 0.5 l 0.5,-0.5 v -0.5 -1 l 4.5,-3 8.5,-6.5 3,-1.5 2,-0.5 7,-4 7,-2.87 2.5,-0.63 2,-2 h 33.5 l 3,0.5 5,1.88 3,0.62 h 8.5 l 1,1 1,-1 1,1 10.25,1.13 0.25,1.37 0.5,0.5 1,-1 1,1 1.5,0.5 4,2 1.75,0.75 7.5,9.5 1.25,0.25 3.5,3 v 0.5 l 0.5,0.5 h 0.5 1 v 0.5 l 0.5,0.5 h 0.5 v 1.5 l 3,3 2.375,4.5 4.25,16 0.875,2 0.625,2 0.875,15 -2,12 -0.375,2 -2.625,8.5 -2,2 -1,2 -3,4 -2,3 -3,3.5 h -1.5 l -1.5,1.5 v 1.5 h -0.5 l -0.5,0.5 v 0.5 h -1.5 l -0.5,0.5 v 1.5 l -2,0.5 -6,4 -2,0.88 -2.5,0.62 -2,2 -1.5,0.5 -3,1.5 h -0.5 l -0.5,0.5 v 0.5 h -2.5 l -0.5,0.5 v 0.5"
           id="path913" />
      </g>
      <g
         id="g914">
        <path
           fill="#201c1c"
           fill-rule="evenodd"
           opacity="0.500008"
           d="m -397,1203 12,-2 2,1.5 1.5,2.5 1.25,2.75 -1.75,-0.12 -15,-4.63"
           id="path914" />
      </g>
      <g
         id="g915">
        <path
           fill="#201c1c"
           fill-rule="evenodd"
           opacity="0.500008"
           d="m -412,1200 h 0.5 l 0.5,0.5 v 0.5 h -0.5 l -0.5,-0.5 v -0.5"
           id="path915" />
      </g>
      <g
         id="g916">
        <path
           fill="#201c1c"
           fill-rule="evenodd"
           opacity="0.500008"
           d="m -483,1224 1.5,-1 4.5,-1.25 4.5,-0.75 1,-1 1,1 1,-1 h 6.5 l 5,5.5 0.25,1.25 1.25,0.25 2.5,2.5 0.375,1.5 0.375,3.88 -4.75,-0.38 -7,-1.87 -3,-1.25 -1.5,-0.38 -2,-2 -2.5,-0.5 -5,-2 -2,-1 -2,-1.5"
           id="path916" />
      </g>
      <g
         id="g917">
        <path
           fill="#201c1c"
           fill-rule="evenodd"
           opacity="0.500008"
           d="m -275,1299 v -1 h -1 v 1 h 1 m -163,112 -0.75,-0.25 -1.25,-4.25 -1,-1 1,-1 -1,-1 -1.25,-3.5 -1.125,-7 -0.625,-14 2,-1.5 2.375,-4.5 0.125,-3 -0.75,-2.87 -4.75,-0.88 -4.5,-1.25 -3,-3 h -1 l -2.5,-2.5 v -1 l -6.5,-6.5 -28.5,1 h -3.5 l -1,-1 -1,1 -1,-1 -10.5,-2 v -1.5 l -2.5,-2.5 -4.25,-2.25 -0.25,-1.75 0.25,-1.75 1.25,-0.25 5.5,-5.5 v -1 l 5,-5 v -2 l 3,-3 0.5,-1.5 4.75,-6.75 1.25,-0.25 4.5,-4.5 2.25,-4.25 1.5,-0.5 0.5,-1.5 3.25,-1.25 2.5,-2.5 v -4 l -3.5,-3.5 h -1 l -1.5,-1.5 v -1 l -2,-2.5 0.5,-2 1.125,-3 3.375,-6.5 1,-1 -0.5,-0.5 -4,1 -2,2 -3.5,0.5 -2.75,0.75 -0.25,0.75 h -0.5 l -10.5,-10.5 -0.25,-1.25 -1.25,-0.25 -4.5,-4 1,-2.5 1,-1 -0.5,-0.5 -2.5,-0.5 -5,-2 -1.5,-0.5 -1.5,-1.5 v -1 l -1,-1.5 h 4.5 l 1,-1 1,1 1,-1 4,-1 1,1 1,-1 8.5,-0.75 4.5,-1.25 1.5,1.5 1,4 2.5,2.5 3,1 1.5,-1.5 -1,-3 -1.5,-1.5 -1.25,-0.25 v -2.5 l 1.75,0.13 2.5,0.62 2,2 2.5,-2.5 -1.25,-3.25 -5.75,-1.75 -4.5,-0.5 -1.5,-1.5 -0.25,-1.5 -1.25,-5 -0.5,-7 3,-1.5 1.5,-0.5 0.5,-1 h 1.5 l 2,2 4,1 2,2 2.5,0.63 14,5.75 14,3.62 0.5,2 0.75,2 v 7 l -0.25,2 v 1 h -0.5 l -0.5,0.5 v 0.5 l -5,5.5 -0.5,1.5 -2,4 -0.75,1.75 -1.5,0.5 -1.75,5.75 -2.125,13 v 3 l 2.875,15 2.75,19 v 1.5 l 0.5,0.5 h 0.5 l 1,4.5 2,2 v 2 l 2,2 5,7 1.5,1.5 4.25,2.25 0.5,1.5 3.75,1.63 2.5,0.62 2,2 2.5,0.63 4,1.75 4,1.25 2,0.87 1.5,0.5 1,-1 2,2 5.5,0.5 4,1 3,0.5 v 0.5 l 0.5,0.5 h 1.5 l 2.5,3 6.5,1.38 10,-0.13 6.75,-2.5 0.25,-1.75 5,-1.37 6.5,-0.63 2,-2 3.5,-0.62 2,-0.88 2,-0.5 h 1.5 l 1,1 0.5,-0.5 v -1.5 h 0.5 l 0.5,-0.5 v -0.5 l 3,-1.5 1.5,-0.5 2,-2 2.5,-0.62 2,-0.88 6,-4 2,-0.5 h 0.5 l 1.5,-1.5 v -0.5 h 0.5 l 0.5,-0.5 v -0.5 h 1.5 l 1.5,-1.5 v -1.5 l 3,-3.5 2,-3 3,-4 1,-2 2,-2 2.625,-8.5 0.375,-2 3.5,-1 1.5,-1.5 1,-6 -4,-3.5 -0.875,-15 -0.625,-2 -0.875,-2 -4.25,-16 -2.375,-4.5 -3,-3 v -1.5 -0.5 l -0.5,-0.5 h -0.5 -1 v -0.5 l -0.5,-0.5 h -0.5 l -3.5,-3 -1.25,-0.25 -7.5,-9.5 -1.75,-0.75 -4,-2 -1.5,-0.5 -1,-1 -1,1 -0.5,-0.5 -0.25,-1.37 -10.25,-1.13 -1,-1 -1,1 -1,-1 h -8.5 l -3.5,-4 -7.25,0.13 -0.25,0.87 h -33.5 l -2,2 -2.5,0.63 -7,2.87 -7,4 -2,0.5 -12.5,-3 -0.5,-1 -0.5,-2 -2,-5 -0.5,-2.5 -2,-2 v -1 l -8,-8.5 1,-0.5 0.625,-6.5 1,-3 1.875,-4 0.5,-1.5 2,-2.5 h 3.5 l 1,1 1,-1 h 3 l 1,1 1,-1 1,1 9.5,0.5 14,2.13 3,0.75 5,0.62 v 0.5 l 0.5,0.5 h 1.5 l 5,0.63 13,3.12 11.75,3.5 0.5,1.5 2.25,0.25 2.5,-2.5 -0.625,-2.5 -3.375,-5.5 -4,-4.5 6.5,1 4.5,4.5 0.25,1.38 4.75,0.75 3,-0.13 4,-1 4,-0.5 h 1 v 0.5 l 0.5,0.5 h 0.5 1.5 l 3,3 3,1 1.5,1.5 0.25,1.25 4.25,1.25 1.5,2 v 4.5 l 1.5,1.5 h 1 l 2.5,-3 1.5,1 1.25,0.25 0.5,1.5 1.25,0.25 4,4 1,-1 h 1 l 1.5,-1.5 1,-6.5 2,-0.5 2,-1 2,-0.75 10,-0.37 5,1.62 0.5,2 0.875,2 3.125,11 0.5,3 -2,32.75 h 1.75 l 4.25,-6.25 1.25,-2.25 1.25,-0.25 2.5,-3 1.5,1 1.5,-0.5 6.5,-4.5 2.5,-1.5 2,-0.87 2.5,-0.63 2,-2 1.5,-0.5 2,-1 1.5,-0.5 2,-2 h 2.5 l 2.5,1 2.5,2.5 1.375,4.5 v 5 l -1,3 -4.75,9 -1.25,3 -2.375,3.5 -3,4 -3.5,5.5 -0.5,2 h -0.5 l -3.5,3.5 v 0.5 h -0.5 l -0.5,0.5 v 0.5 h -0.5 l -0.5,0.5 v 0.5 h -0.5 l -0.5,0.5 v 1.5 l -3,2.5 0.25,1.25 2.75,0.25 1.5,1 2.5,-0.5 3,-0.25 9,1.5 5.75,1.5 0.5,1.5 1.75,0.25 1,4.5 1,1 -1,1 -0.625,3.5 -0.375,1.5 -4.5,4.5 -1.5,0.5 -6,3 -7,2.88 -2.5,0.62 -2,2 -4.5,2.5 -6.5,4.5 -2.5,1.5 -8.75,6.75 -0.25,0.75 h -0.5 l -0.5,0.5 v 0.5 h -0.5 l -0.5,0.5 v 0.5 1.5 l 1.5,1.5 3,1 2,2 2.5,0.63 6.75,4.62 0.25,1.75 -1,3.5 -3.5,3.5 -1.5,0.38 -11,4.25 -6,3.87 -1.75,0.75 -0.25,0.75 h -0.5 l -1,-1 -1,1 -31.5,-0.87 -4,0.5 -1.75,0.62 v 2.5 l 1.5,0.5 0.75,1.75 3,6 0.5,2 -3.5,4 -3.5,1.25 -24,-1 -5,-1 -4,-1.62 -3,-0.63 h -0.5 l -1.5,-1.5 -1,-3 -1,-1 1,-1 -0.5,-0.5 -1.5,-0.37 -2.75,-0.38 -2.25,4.25 -6.5,6.5 h -1 l -2,2 h -2 l -2,2 h -1 l -2.5,2 h -2.5 l -1.5,1.5 v 0.5 l -3.5,4 h -2 l -3,3 h -1 l -2.5,2 -4.5,-1 -1,-1 -1,1 -1.5,0.38 -3.5,0.62 -1.5,1"
           id="path917" />
      </g>
      <g
         id="g918">
        <path
           fill="#201c1c"
           fill-rule="evenodd"
           opacity="0.500008"
           d="m -446,1196 0.25,-0.75 9.75,-2.62 7,-0.13 5,1.13 8,3 1.5,0.37 2.5,3 -34,-4"
           id="path918" />
      </g>
      <g
         id="g920">
        <path
           fill="#201c1c"
           fill-rule="evenodd"
           opacity="0.500008"
           d="m -522,1249 1,-6.5 4.5,-4.5 5.5,-1.5 5,-2 7,-3.5 1,11.5 2,2 -0.5,0.5 -4,1 -1,1 -1,-1 -19.5,3"
           id="path920" />
      </g>
    </g>
  </g>
</g>
</svg>
