<?xml version="1.0" encoding="UTF-8" standalone="no"?>
<svg
   width="231.02826"
   height="215.02025"
   viewBox="-702 0 231.02826 215.02025"
   version="1.2"
   id="svg924"
   xmlns="http://www.w3.org/2000/svg"
   xmlns:svg="http://www.w3.org/2000/svg"><defs
   id="defs924" />
<title
   id="title1">Notebook 3</title>
\n<g
   id="g943"
   transform="matrix(1.0949311,0,0,1.0249357,-523.23082,-184.48842)">
  <g
     id="g926">
    <g
       id="g3">
      <path
         fill="none"
         stroke="#000000"
         stroke-width="4"
         stroke-linecap="round"
         stroke-linejoin="round"
         d="m -158.647,195.051 -0.411,-0.625 -0.113,-1.278 0.154,1.521 -0.966,4.764 -0.303,4.618 0.025,2.802"
         id="path3" />
    </g>
    <g
       id="g4">
      <path
         fill="none"
         stroke="#000000"
         stroke-width="4"
         stroke-linecap="round"
         stroke-linejoin="round"
         d="m -158.378,223.888 0.169,-3.318 -0.234,-11.324 -1.041,-8.17 -1.108,-5.502 -0.678,-1.815 0.087,0.7 0.304,0.196 1.005,8.469 0.264,7.029 -0.017,0.203"
         id="path4" />
    </g>
    <g
       id="g5">
      <path
         fill="none"
         stroke="#000000"
         stroke-width="4"
         stroke-linecap="round"
         stroke-linejoin="round"
         d="m -157.878,233.762 -0.07,-4.737 0.246,-4.992 -0.866,-11.685 -0.281,-14.329 -0.499,16.47 0.008,2.726"
         id="path5" />
    </g>
    <g
       id="g6">
      <path
         fill="none"
         stroke="#000000"
         stroke-width="4"
         stroke-linecap="round"
         stroke-linejoin="round"
         d="m -159.377,215.051 0.135,-3.59 -0.104,-6.133 -0.24,5.628 0.117,5.614"
         id="path6" />
    </g>
    <g
       id="g7">
      <path
         fill="none"
         stroke="#000000"
         stroke-width="4"
         stroke-linecap="round"
         stroke-linejoin="round"
         d="m -156.987,238.483 0.364,-3.511 -0.249,0.283 0.298,0.696 -0.44,1.644 0.319,1.937 -0.233,5.014"
         id="path7" />
    </g>
    <g
       id="g8">
      <path
         fill="none"
         stroke="#000000"
         stroke-width="4"
         stroke-linecap="round"
         stroke-linejoin="round"
         d="m -150.602,382.184 -0.409,-2.523"
         id="path8" />
    </g>
    <g
       id="g9">
      <path
         fill="none"
         stroke="#000000"
         stroke-width="4"
         stroke-linecap="round"
         stroke-linejoin="round"
         d="m -156.529,195.481 0.163,-1.808 0.475,-0.677 8.719,1.181 4.743,0.334 6.045,-0.087 22.771,-1.111 32.0135,-2.151 17.1659,-1.589 -1.8005,-0.152 -3.6884,-1.176 -8.2178,-0.755 -14.8931,-0.508"
         id="path9" />
    </g>
    <g
       id="g10">
      <path
         fill="none"
         stroke="#000000"
         stroke-width="4"
         stroke-linecap="round"
         stroke-linejoin="round"
         d="m -131.264,186.048 3.865,0.617 13.116,0.364 26.0019,-0.662"
         id="path10" />
    </g>
    <g
       id="g11">
      <path
         fill="none"
         stroke="#000000"
         stroke-width="4"
         stroke-linecap="round"
         stroke-linejoin="round"
         d="m -79.2834,186.073 0.032,-0.002"
         id="path11" />
    </g>
    <g
       id="g12">
      <path
         fill="none"
         stroke="#000000"
         stroke-width="4"
         stroke-linecap="round"
         stroke-linejoin="round"
         d="m 14.9425,182.796 6.2597,0.916 -6.4592,-0.928"
         id="path12" />
    </g>
    <g
       id="g13">
      <path
         fill="none"
         stroke="#000000"
         stroke-width="4"
         stroke-linecap="round"
         stroke-linejoin="round"
         d="m -12.9657,183.172 6.74036,0.484 17.64234,1.535 3.0184,0.018 6.3727,1.821 -2.6052,-0.161 -3.4757,-0.86 -5.85867,-0.877 -8.524475,-0.652 -5.183955,0.008 -10.523,-1.025"
         id="path13" />
    </g>
    <g
       id="g14">
      <path
         fill="none"
         stroke="#000000"
         stroke-width="4"
         stroke-linecap="round"
         stroke-linejoin="round"
         d="m -25.7147,183.789 5.9569,0.295 26.24199,2.307 23.36441,2.673"
         id="path14" />
    </g>
    <g
       id="g15">
      <path
         fill="none"
         stroke="#000000"
         stroke-width="4"
         stroke-linecap="round"
         stroke-linejoin="round"
         d="M 29.7185,189.946 5.93884,188.585 -5.2326,187.521 -31.9478,184.362"
         id="path15" />
    </g>
    <g
       id="g16">
      <path
         fill="none"
         stroke="#000000"
         stroke-width="4"
         stroke-linecap="round"
         stroke-linejoin="round"
         d="m -37.3548,184.252 0.4758,0.01 35.35684,1.79 10.56714,0.878 4.31072,0.586 0.3676,0.315 -12.756259,-1.137 -20.251041,-1.002 -10.6222,-1.41"
         id="path16" />
    </g>
    <g
       id="g17">
      <path
         fill="none"
         stroke="#000000"
         stroke-width="4"
         stroke-linecap="round"
         stroke-linejoin="round"
         d="m -131.231,186.43 3.402,0.58 12.257,0.407 75.0111,-1.357 56.7095,0.477 3.0164,0.259 -2.5221,-0.149 -7.97804,-1.796 -7.0409,-0.411 -24.38916,-0.855"
         id="path17" />
    </g>
    <g
       id="g18">
      <path
         fill="none"
         stroke="#000000"
         stroke-width="4"
         stroke-linecap="round"
         stroke-linejoin="round"
         d="m -155.329,185.807 -5.043,0.525"
         id="path18" />
    </g>
    <g
       id="g19">
      <path
         fill="none"
         stroke="#000000"
         stroke-width="4"
         stroke-linecap="round"
         stroke-linejoin="round"
         d="m -160.097,188.734 0.692,0.011 10.655,-0.74 18.539,-1.673 0.585,-0.065"
         id="path19" />
    </g>
    <g
       id="g20">
      <path
         fill="none"
         stroke="#000000"
         stroke-width="4"
         stroke-linecap="round"
         stroke-linejoin="round"
         d="m 0.00411987,182.46 0.22592213,0.008 18.637358,1.265 3.3657,0.885 0.016,0.431 -1.519,0.308 -1.5573,-0.249 -6.6904,0.113 -9.26005,0.839 -21.09365,0.53 -15.9024,-0.054 -26.8005,-0.785 -10.141,0.047"
         id="path20" />
    </g>
    <g
       id="g21">
      <path
         fill="none"
         stroke="#000000"
         stroke-width="4"
         stroke-linecap="round"
         stroke-linejoin="round"
         d="m -120.554,186.357 -4.931,0.52 -16.893,0.615 13.875,-1.161"
         id="path21" />
    </g>
    <g
       id="g22">
      <path
         fill="none"
         stroke="#000000"
         stroke-width="4"
         stroke-linecap="round"
         stroke-linejoin="round"
         d="m -18.8943,183.86 0.4661,0.073"
         id="path22" />
    </g>
    <g
       id="g23">
      <path
         fill="none"
         stroke="#000000"
         stroke-width="4"
         stroke-linecap="round"
         stroke-linejoin="round"
         d="m -71.2277,386.127 3.4588,-0.898 10.5794,-0.973 0.7203,-0.472 0.1026,0.256 -0.891,0.107 -26.3355,-0.323 -13.1926,0.326 -34.3913,2.006 -5.814,0.78 -1.512,-0.139 -2.361,0.63 -0.116,-0.237 0.38,0.471 16.182,0.128 68.7008,-3.174 15.9945,-0.473 6.5117,0.403 6.4275,-0.079 0.9846,-0.226 -0.8259,-0.201 -11.831,-0.93 -11.5204,-10e-4 -8.1869,-0.356 -4.4043,0.213 -6.1991,-0.39 -8.6471,0.478 -6.9977,-0.099 -7.2689,0.662 -7.4089,-0.08 -9.0859,0.545 -8.658,0.124 -13.289,0.908 -8.503,1.109 -0.314,0.08 0.47,0.139 13.4,1.092 27.6535,-0.355 5.7537,0.199 12.6219,-0.479 6.6094,0.142 13.1344,-0.669 6.2784,0.264 15.2588,-0.725 22.7219,-0.246 17.64088,-0.572 2.57099,-0.283 0.36444,-0.422 -12.17615,-1.11 -24.09256,-0.64 -12.2157,-0.696 -40.0119,0.228 -39.101,1.551 -27.681,1.844"
         id="path23" />
    </g>
    <g
       id="g24">
      <path
         fill="none"
         stroke="#000000"
         stroke-width="4"
         stroke-linecap="round"
         stroke-linejoin="round"
         d="m -149.798,385.946 0.469,-0.002 4.22,-0.389 8.243,-0.156 13.75,-1.145 86.7751,-4.483 33.49385,-1.113 42.94875,-0.367 1.6102,-0.284 -1.0944,-0.316 -6.6261,-0.691 -37.51014,-0.95 -21.86776,-0.063 -23.4579,1.01 -44.0979,2.669 -9.2117,1.197 -12.579,1.098 -7.81,1.069 -3.74,1.019 -1.514,0.037 -0.69,0.408 0.019,0.263 0.794,0.247 9.056,0.815 11.402,-0.175 18.8224,-1.361 42.5764,-2.228 13.6461,-1.465 16.3704,-1.001 6.31181,-0.358 5.83014,0.095 23.73825,-1.666 2.2787,0.141 2.7907,-0.845 -0.3152,-0.276 -9.5877,-1.216 -14.0433,-0.102 -12.8998,0.345 -10.0651,-0.185 -21.0138,0.672 -47.8654,3.096 -10.8736,0.976 -25.84,2.766 -11.072,1.874 -2.63,0.713 9.709,0.215 3.785,-0.476 2.19,0.216 7.654,-0.215 6.164,-0.613 17.5963,-0.768 7.5106,-1.18 7.8096,-0.104 15.4481,-1.322 14.8822,-0.457 10.5802,-0.842 36.55332,-0.723 20.62248,-0.022 -7.6725,-0.638 -25.3354,0.754 -17.1796,0.197 -6.8916,-0.317 -44.8578,1.508 -30.5259,2.099 -19.678,1.673 -1.53,0.45 -5.531,0.148 -1.568,0.479 1.448,0.388 2.923,-0.216 19.666,0.386 81.5116,-4.793 32.24447,-1.021 16.58303,0.124 5.6637,-0.229 1.8837,0.285 1.9023,-0.352 -2.3933,-0.149 -1.4776,0.279 -1.8382,-0.541 -3.9759,-0.427 -9.09645,-0.413 -7.36145,0.304 -27.1619,-0.655 -15.9986,0.119 -12.4145,0.625 -0.6452,-0.32 -0.0172,0.229 4.0277,0.158 7.2507,0.923 9.4226,0.395 3.35,0.432"
         id="path24" />
    </g>
    <g
       id="g25">
      <path
         fill="none"
         stroke="#000000"
         stroke-width="4"
         stroke-linecap="round"
         stroke-linejoin="round"
         d="m 41.8193,364.929 6e-4,0.004"
         id="path25" />
    </g>
    <g
       id="g26">
      <path
         fill="none"
         stroke="#000000"
         stroke-width="4"
         stroke-linecap="round"
         stroke-linejoin="round"
         d="m 36.0602,190.798 -0.6973,-2.178 1.0046,5.37 0.7324,6.362 1.7066,23.066 0.5316,12.634 0.3151,-4.675 -2.77,-27.036 -1.3458,-9.752 -0.6843,-8.84 -0.3133,-0.624 -0.1052,1.121 0.2956,12.471 0.9238,12.696 1.9339,17.281 0.8083,11.228 0.137,4.496 -0.5135,17.983 0.3273,-12.732 -0.4439,-6.794 -4.139,-29.276 -0.8254,-12.921 0.2343,-3.878 1.0348,18.807 4.4594,40.69 0.6812,16.33 0.1658,19.316 0.6883,9.118 0.0854,-1.028 0.1028,0.538 -1.5795,-10.205 -0.5079,-13.211 -1.0123,-10.918 -1.5757,-24.625 -1.2207,-21.71 0.0381,-15.95 -0.8161,9.601 -0.0447,15.365 4.9992,52.682 2.4435,66.726 -0.3408,3.801 -0.0487,-3.861 -3.4546,-27.344 -0.8549,-12.084 -1.1063,-10.301 -3.1157,-44.749 0.2332,-10.803 0.8212,-4.14 -0.1817,2.919 0.9512,12.509 4.6597,42.003 2.3401,25.997 0.7724,12.423 1.0672,11.01 -0.0644,8.458 0.0987,-1.892 -1.6974,-9.868 -3.018,-22.428 -1.2699,-11.641 -1.1251,-15.154 -1.753,-54.283 0.1018,-7.238 0.6903,-10.517 0.898,-7.765 -0.2512,2.196 1.0127,17.43 2.1192,20.294 1.2603,7.662 2.4549,20.961 1.3851,15.467 1.9073,27.76 0.122,5.516 -0.3745,4.56 -1.2894,-13.796 -1.3698,-12.18 -1.449,-8.867 -3.2638,-31.441 -2.611,-34.284 -0.9819,-33.383 -0.6013,-9.495 1.4313,9.242 5.9835,51.018 1.3723,14.895 2.3313,33.324 0.214,0.374 -0.066,-0.778 0.3887,0.789 -0.2859,-1.372 -0.1849,-12.562 -0.7395,-9.733 -1.6723,-12.206 -2.5185,-14.463 -1.7524,-7.027 -4.0055,-21.301 -1.1476,-6.969 -0.4837,-8.183 0.0132,-3.138 0.2187,1.918 0.4217,18.307 0.5173,9.167 4.3138,47.304 2.6676,50.86 1.8023,18.486 0.2445,4.455 -0.0955,0.281 -0.1918,-0.517 0.3921,-1.645 0.4388,11.312 -0.3563,1.012 -0.1168,-0.52 -0.0731,0.905 -0.2463,-1.981 -0.1682,-23.175 0.1203,-4.092 0.4733,-3.141 0.1418,0.493 -0.2114,3.843 0.6168,5.366 0.3147,9.563 -0.438,7.972 -0.9336,6.608 0.1637,4.465 0.7682,3.815 0.6639,-5.918 0.5303,-9.74 -0.2104,-6.394 -1.4619,-12.631 -3.1361,-14.178 0.1582,-0.338 0.5537,4.615 1.069,23.708 2.3402,23.948 0.3495,2.168 0.4528,0.686 -0.238,-2.336 0.0746,0.432 0.1695,-0.209 0.8692,-2.759"
         id="path26" />
    </g>
    <g
       id="g600">
      <path
         fill="#000000"
         fill-rule="evenodd"
         d="m 5,349.375 -19.5,0.625 -1,1 -1,-1 -1,1 -26,1 -1,1 -0.5,-0.5 -0.25,-1.25 h -1.5 l -0.5,1.625 h -5.5 L -53,351.5 -50.5,349 h 6 l 1,1 0.5,-0.5 0.25,-1.375 17.25,-1.125 1,-1 1,1 h 1 l 1,-1 1,1 1,-1 35,-2 1,-1 1,1 1.25,0.25 L 19,346.5 17.5,348 5,349.375 M -41,350 v -1 h -1 v 1 h 1 m -8,1 v -1 h -1 v 1 h 1 m 13,0 v -1 h -1 v 1 h 1"
         id="path600" />
    </g>
    <g
       id="g601">
      <path
         fill="#000000"
         fill-rule="evenodd"
         d="m 30,368.375 -3.5,0.625 -3,-3 -33,-1 -1,1 -1,-1 -1,1 -50,3 -1,1 -1,-1 -1,1 -33,3 -1,-1 -1,1 h -9 l -1,1 -1,-1 -1,1 -3,-1 -1,1 -1,-1 h -1 l -1,1 -1,-1 -1,1 -1,-1 h -1 l -1,1 -1,-1 -1.25,-0.25 -0.5,-1.5 -1.25,-0.25 -0.5,-0.5 1.5,-1.5 h 1 l 2,2 1,-1 6.5,-0.75 2,0.25 h 2 l 1.5,-0.5 1,1 1,-1 h 11 l 1,-1 1,1 h 1 l 1,-1 1,1 1,-1 h 1 l 1,1 1,-1 h 3 l 1,-1 1,1 1,-1 59,-5 1,-1 1,1 1.5,-0.5 5,-0.125 1.5,-0.375 1,1 1,-1 15,1 1,-1 1,1 1,-1 7.5,0.625 6,-0.25 12.75,2.875 v 3.5 L 30,368.375 M -122,372 v -1 h -1 v 1 h 1 m 20,0 v -1 h -1 v 1 h 1"
         id="path601" />
    </g>
    <g
       id="g602">
      <path
         fill="#000000"
         fill-rule="evenodd"
         d="m -59.5,353 -12.5,0.75 -5.5,1.25 -1,-1 -1,1 -8.5,0.5 -8,1.25 -4,-0.625 -12.5,0.875 -1,-1 -1,1 -12,1 -1,1 -1,-1 -1,1 h -2 l -1,-1 -1,1 -1.25,-0.25 -0.25,-1.25 -1,-1 0.5,-0.5 11,-2 1,-1 1,1 1,-1 1,1 1,-1 h 1 l 2,2 0.5,-0.5 0.25,-1.5 54.75,-4.875 1.75,0.125 1.25,3.25 -1.5,1.5 m -66.5,3 v -1 h -1 v 1 h 1 m -7,1 v -1 h -1 v 1 h 1 m 2,1 v -1.5 l -1,-0.5 v 1 l 1,1 m 2,-1 v -1 h -1 v 1 h 1 m 39,-4 v -1 h -1 v 1 h 1 m -20,2 v -1 h -1 v 1 h 1 m 2,0 v -1 h -1 v 1 h 1"
         id="path602" />
    </g>
    <g
       id="g603">
      <path
         fill="#000000"
         fill-rule="evenodd"
         d="m 36.5,387 -2.5,-2.5 2,-2 v -1 l -1,-1 1,-1 -1,-1 1,-1 -0.5,-1.5 v -2 l 0.25,-1.75 -4.5,0.5 L 31,369.5 32.5,368 h 3 l 0.5,-0.5 -1,-1 v -29 l 1,-1 -1,-1 1,-3 1.5,-1.5 1.5,1.5 3,28 1,1 -1,1 1.5,9.5 -0.5,11.5 -2.5,2.5 -1,-1 -1,1 h -1 l -1,1"
         id="path603" />
    </g>
    <g
       id="g604">
      <path
         fill="#000000"
         fill-rule="evenodd"
         d="m -36.5,342 -1.5,-1.5 0.5,-0.5 1.25,0.25 0.25,1.25 -0.5,0.5"
         id="path604" />
    </g>
    <g
       id="g605">
      <path
         fill="#000000"
         fill-rule="evenodd"
         d="m -33,337 v -0.5 l 0.5,-0.5 0.5,1 h -1"
         id="path605" />
    </g>
    <g
       id="g606">
      <path
         fill="#000000"
         fill-rule="evenodd"
         d="m -32,337 15,-0.25 21,-3.375 10,-2.875 3.75,-0.25 0.25,2.25 -1.5,1.5 -4.5,2.375 -2.5,0.625 -1,-1 -1,1 -3.5,0.5 -4,1 -16,2.25 -18.5,0.25 -2.5,-2.5 1.5,-1.5 h 2.5 v 1.5 l 0.5,0.5 0.5,-0.5 V 337 m -1,3 v -1 h -1 v 1 h 1 m 41,-5 v -1 H 7 v 1 h 1"
         id="path606" />
    </g>
    <g
       id="g607">
      <path
         fill="#201c1c"
         fill-rule="evenodd"
         opacity="0.500008"
         d="m -11,324 0.25,-1 L 2,322 0.5,324 -1,324.25 H -9 L -11,324"
         id="path607" />
    </g>
    <g
       id="g608">
      <path
         fill="#201c1c"
         fill-rule="evenodd"
         opacity="0.500008"
         d="M 3,318 H 2 v -1 h 1 v 1"
         id="path608" />
    </g>
    <g
       id="g609">
      <path
         fill="#201c1c"
         fill-rule="evenodd"
         opacity="0.500008"
         d="m -43,285 h -1 v -1 h 1 v 1"
         id="path609" />
    </g>
    <g
       id="g610">
      <path
         fill="#201c1c"
         fill-rule="evenodd"
         opacity="0.500008"
         d="m 8,311 v 1.5 l -2.5,2.5 -4,1 -2,2 -7.5,0.625 -4,0.875 -5,-0.125 -3,0.625 -2,-1.5 -5,-2.875 -3.5,-0.625 -1.5,1.5 v 1 l -3,3 v 0.5 h -7.5 l -1,1 -0.5,-0.5 0.25,-1.5 -0.25,-22.5 1,-1 -1,-1 1,-1 0.125,-7.25 6.625,-1.5 0.25,-1.25 V 284 l 1,0.5 v 1 l 0.5,0.5 1,-1 26.5,-2 8.5,1 4.5,4.5 0.375,1.5 1.625,3 v 12 1 1 l -1,1.5 -1,1 1.5,1.5 H 8"
         id="path610" />
    </g>
    <g
       id="g611">
      <path
         fill="#201c1c"
         fill-rule="evenodd"
         opacity="0.500008"
         d="M -39.5,284 H -41 l 0.5,-1 h 1.5 l -0.5,1"
         id="path611" />
    </g>
    <g
       id="g612">
      <path
         fill="#201c1c"
         fill-rule="evenodd"
         opacity="0.500008"
         d="m -42,283 h -1 v -1 h 1 v 1"
         id="path612" />
    </g>
    <g
       id="g613">
      <path
         fill="#201c1c"
         fill-rule="evenodd"
         opacity="0.500008"
         d="m -25,280 h 1 l -0.5,1 -0.5,-1"
         id="path613" />
    </g>
    <g
       id="g614">
      <path
         fill="#201c1c"
         fill-rule="evenodd"
         opacity="0.500008"
         d="m -23,280 v -0.5 l 0.5,-0.5 h 4.5 v 0.5 l -0.5,0.5 H -23"
         id="path614" />
    </g>
    <g
       id="g615">
      <path
         fill="#201c1c"
         fill-rule="evenodd"
         opacity="0.500008"
         d="m -48,320 h -0.5 l -2.5,-2.5 -0.5,-1.5 -2.875,-6 -1,-3 -1,-5 0.125,-11 0.875,-3 0.875,-2 0.5,-1.5 3.5,-3.5 1.5,-0.375 3,-1.125 h 3 l 3,1 4,0.5 -0.5,1 -7,-1 -2.5,2.5 -1,31 -1,1 1,1 -1,1 1,1 -1,1.5"
         id="path615" />
    </g>
    <g
       id="g616">
      <path
         fill="#000000"
         fill-rule="evenodd"
         d="m -111,342 h -1 v -1 h 1 v 1"
         id="path616" />
    </g>
    <g
       id="g617">
      <path
         fill="#000000"
         fill-rule="evenodd"
         d="m -110,345.75 -2.5,0.25 -1,-1 -1,1 h -1 l -1,-1 -1,1 -3.25,-0.25 -0.25,-1.25 V 344 l -1,0.5 v 1.5 l -1,-0.5 V 344 l -1,0.5 -0.25,1.25 -3.25,0.25 -1.5,-1.5 1,-1 v -2 l 0.5,-0.5 1,1 16,1 2,-2 h 9 l 1,-1 1,1 1,-1 21,-2 1,-1 1,1 1,-1 7,-1 1.5,1.5 -1,3 -1.5,1.5 -1,-1 h -5 l -1,1 -1,-1 -1,1 -6,1 -1,-1 -1,1 -26.5,2.75 M -74,340 v -1 h -1 v 1 h 1 m -14,1 v -1 h -1 v 1 h 1 m 3,0 v -1 h -1 v 1 h 1 m -40,3 v -1 h -1 v 1 h 1 m 5,0 v -1 h -1 v 1 h 1 m 8,1 v -1 h -1 v 1 h 1"
         id="path617" />
    </g>
    <g
       id="g618">
      <path
         fill="#000000"
         fill-rule="evenodd"
         d="m -129,342 h -1 v -1 h 1 v 1"
         id="path618" />
    </g>
    <g
       id="g619">
      <path
         fill="#000000"
         fill-rule="evenodd"
         d="m -132.5,322 -1.25,-0.25 v -1.5 l 2.25,-0.25 0.5,0.5 -1.5,1.5"
         id="path619" />
    </g>
    <g
       id="g620">
      <path
         fill="#201c1c"
         fill-rule="evenodd"
         opacity="0.500008"
         d="m -132,302 h -1 v -1 h 1 v 1"
         id="path620" />
    </g>
    <g
       id="g621">
      <path
         fill="#000000"
         fill-rule="evenodd"
         d="m -42,283 v -1 h -1 v 1 h 1 m 2.5,1 0.5,-1 h -1.5 l -0.5,1 h 1.5 m -3.5,1 v -1 h -1 v 1 h 1 m 46,33 v -1 H 2 v 1 h 1 m -14,6 -9,0.5 -7,1 -8,-0.25 -1.5,-0.25 -1,-1 -1,1 h -4 l -1,-1 -0.5,0.5 v 1 l -0.5,0.5 -1,-1 -2.5,0.625 -1.75,0.125 -0.25,-3.25 2,-2.5 1,-1.5 -1,-1 1,-1 -1,-1 1,-1 1,-31 2.5,-2.5 7,1 0.5,-1 h 8.5 l 1,-1 h 1.5 l 0.5,1 0.5,-1 h 1 4.5 l 0.5,-0.5 V 279 l 10,-0.625 5,-1.125 4,0.625 11.75,-0.875 -0.25,4 -0.5,2.5 1,1 -1,1 0.75,9.5 -0.625,18 -1.375,3.75 L 9.5,317 H 9 l 0.5,1 4.25,0.125 L 14,320.5 12.5,322 10,322.5 7,322.625 2,322 -10.75,323 -11,324 M 8,307 v -1 L 9,305.5 8,305 V 293 281.125 L 1.5,281 l -1,1 -1,-1 -6.25,1.125 L -7,283 l -26.5,2 -1,1 -0.5,-0.5 v -1 l -1,-0.5 v 0.5 l -0.25,1.25 -6.625,1.5 -0.125,7.25 -1,1 1,1 -1,1 0.25,22.5 -0.25,1.5 0.5,0.5 1,-1 h 7.5 l 4,0.5 2.5,-0.5 1,1 1,-1 h 3 l 1,-1 1,1 1,-1 h 0.5 l 3,-0.625 5,0.125 4,-0.875 7.5,-0.625 2,-2 4,-1 2.5,-2.5 V 311 L 9,307.5 8,307"
         id="path621" />
    </g>
    <g
       id="g622">
      <path
         fill="#000000"
         fill-rule="evenodd"
         d="m 14,263.625 -1.5,0.375 -2,-2 h -2 l -1,1 -1,-1 -1,1 -5.5,-0.875 -22.5,0.875 -1,1 -1,-1 h -3 l -1,1 -1,-1 -1,1 -1.5,-0.5 h -2 l -1.5,0.5 -1,-1 -1,1 -3.25,-0.25 -0.25,-1.25 -0.5,-0.5 -1,1 -2.5,0.5 -3,1 -2.5,0.5 -0.5,-0.5 1,-1 -1,-1 1,-1 -1,-1 0.5,-0.5 h 12 l 1,-1 1,1 h 2 l 1,-1 1,1 1,-1 h 1 l 1,1 1,-1 h 7 l 1,1 1,-1 h 13 l 1,-1 1,1 6,-1 1,1 1,-1 2.5,0.625 2,0.25 11.5,-0.875 1.5,1.5 v 1 l -1.5,1.5 -2.5,0.5 -3,1.125 M -28,261 v -1 h -1 v 1 h 1 m -17,2 v -1 h -1 v 1 h 1"
         id="path622" />
    </g>
    <g
       id="g623">
      <path
         fill="#000000"
         fill-rule="evenodd"
         d="M 15.5,254 5,251.75 -6.5,251 l -1,-1 -1,1 -1,-1 -4,1 -1,-1 -1,1 h -4 l -1,-1 -1,1 -1,-1 -1.5,0.5 -2,0.25 -7.5,-0.75 -1,-1 -1,1 -9.5,-0.75 -3.75,-1.5 -0.25,-1.25 1.5,-1.5 h 2 l 1,1 1,-1 1,1 h 17 l 1,1 1,-1 6,1 1,-1 1,1 4,-1 1,1 1,-1 h 1 l 1,1 1,-1 1,1 h 2 l 1,-1 1,1 18.25,2.25 0.25,1.25 1,1 -2.5,2.5 M -46,247 v -1 h -1 v 1 h 1 m 9,2 v -1 h -1 v 1 h 1"
         id="path623" />
    </g>
    <g
       id="g624">
      <path
         fill="#201c1c"
         fill-rule="evenodd"
         opacity="0.500008"
         d="m -118,259 h -1 v -1 h 1 v 1"
         id="path624" />
    </g>
    <g
       id="g625">
      <path
         fill="#201c1c"
         fill-rule="evenodd"
         opacity="0.500008"
         d="m -117,258 h -1 v -1 h 1 v 1"
         id="path625" />
    </g>
    <g
       id="g626">
      <path
         fill="#201c1c"
         fill-rule="evenodd"
         opacity="0.500008"
         d="m -119,258 h -1 v -1 h 1 v 1"
         id="path626" />
    </g>
    <g
       id="g627">
      <path
         fill="#201c1c"
         fill-rule="evenodd"
         opacity="0.500008"
         d="m -104,257 h -1 v -1 h 1 v 1"
         id="path627" />
    </g>
    <g
       id="g628">
      <path
         fill="#201c1c"
         fill-rule="evenodd"
         opacity="0.500008"
         d="m -109.5,257 h -1.5 l 0.5,-1 h 1.5 l -0.5,1"
         id="path628" />
    </g>
    <g
       id="g629">
      <path
         fill="#201c1c"
         fill-rule="evenodd"
         opacity="0.500008"
         d="m -109,255 h 1 l -0.5,1 -0.5,-1"
         id="path629" />
    </g>
    <g
       id="g630">
      <path
         fill="#201c1c"
         fill-rule="evenodd"
         opacity="0.500008"
         d="m -114,255 h 1 l -0.5,1 -0.5,-1"
         id="path630" />
    </g>
    <g
       id="g631">
      <path
         fill="#201c1c"
         fill-rule="evenodd"
         opacity="0.500008"
         d="m -117,255 h 2 l -0.5,1 -1.5,-1"
         id="path631" />
    </g>
    <g
       id="g632">
      <path
         fill="#201c1c"
         fill-rule="evenodd"
         opacity="0.500008"
         d="m -122,256 v -0.5 l 0.5,-0.5 h 2.5 v 0.5 l -0.5,0.5 h -2.5"
         id="path632" />
    </g>
    <g
       id="g633">
      <path
         fill="#201c1c"
         fill-rule="evenodd"
         opacity="0.500008"
         d="m -107,255 0.25,-0.75 2.75,-0.5 8,0.25 -1.75,0.25 -0.5,1.5 -1.25,0.25 -0.5,-0.5 1,-1 -0.5,-0.5 -7.5,1"
         id="path633" />
    </g>
    <g
       id="g634">
      <path
         fill="#1c1818"
         fill-rule="evenodd"
         opacity="0.500008"
         d="m -95,228 h -1 v -1 h 1 v 1"
         id="path634" />
    </g>
    <g
       id="g635">
      <path
         fill="#201c1c"
         fill-rule="evenodd"
         opacity="0.500008"
         d="M -88.5,220 H -90 l 0.5,-1 h 1.5 l -0.5,1"
         id="path635" />
    </g>
    <g
       id="g636">
      <path
         fill="#201c1c"
         fill-rule="evenodd"
         opacity="0.500008"
         d="m -85,218 h -1 v -1 h 1 v 1"
         id="path636" />
    </g>
    <g
       id="g637">
      <path
         fill="#201c1c"
         fill-rule="evenodd"
         opacity="0.500008"
         d="m -90,218 h -1 v -1 h 1 v 1"
         id="path637" />
    </g>
    <g
       id="g638">
      <path
         fill="#201c1c"
         fill-rule="evenodd"
         opacity="0.500008"
         d="M -74.5,217 H -76 l 0.5,-1 h 1.5 l -0.5,1"
         id="path638" />
    </g>
    <g
       id="g639">
      <path
         fill="#201c1c"
         fill-rule="evenodd"
         opacity="0.500008"
         d="m -60,216 h -1 v -1 h 1 v 1"
         id="path639" />
    </g>
    <g
       id="g640">
      <path
         fill="#201c1c"
         fill-rule="evenodd"
         opacity="0.500008"
         d="m -62,216 h -1 v -1 h 1 v 1"
         id="path640" />
    </g>
    <g
       id="g641">
      <path
         fill="#201c1c"
         fill-rule="evenodd"
         opacity="0.500008"
         d="m -66,216 h -1 v -1 h 1 v 1"
         id="path641" />
    </g>
    <g
       id="g642">
      <path
         fill="#201c1c"
         fill-rule="evenodd"
         opacity="0.500008"
         d="m -71,216 h -1 v -1 h 1 v 1"
         id="path642" />
    </g>
    <g
       id="g643">
      <path
         fill="#201c1c"
         fill-rule="evenodd"
         opacity="0.500008"
         d="m -132,279 h -1 v -1 h 1 v 1"
         id="path643" />
    </g>
    <g
       id="g644">
      <path
         fill="#000000"
         fill-rule="evenodd"
         d="m -132,279 v -1 h -1 v 1 h 1 m 0,23 v -1 h -1 v 1 h 1 m -2,9 v -0.5 l 1,-1 -1,-1 -0.125,-26.5 -0.25,-2 -1.625,-5.5 0.5,-0.5 1,1 0.5,-0.5 v -1 l -2,-2 0.25,-2.25 1.25,-0.25 1,-1 2.5,2.5 -0.375,1.5 0.375,9.5 -1,1 1,1 v 9 l 1,1 -1,1 1,1 v 13 l 1,1 -1,1 v 4.5 1.5 l -1,1 1,1 v 1 l -0.5,0.5 -1,-1 -2.375,-0.25 -0.125,-4.25 1,-1 -1,-1 V 311"
         id="path644" />
    </g>
    <g
       id="g645">
      <path
         fill="#201c1c"
         fill-rule="evenodd"
         opacity="0.500008"
         d="m -87,325 h -6 L -95.75,324.25 -96,325 h -15 l -0.25,-0.875 -4.75,-0.875 -2,-0.75 -4.5,-2.5 -1.5,-1.5 v -1 l -1.5,-1.5 -4.5,-1 v -4.5 l 1,-1 -1,-1 v -13 l -1,-1 1,-1 -1,-1 v -9 l -1,-1 1,-1 -0.375,-9.5 0.375,-1.5 -2.5,-2.5 -1,1 -1.25,0.25 -0.25,2.25 2,2 v 1 l -0.5,0.5 -1,-1 -0.5,0.5 1.625,5.5 0.25,2 0.125,26.5 1,1 -1,1 v 0.5 h -0.5 l -4.5,-4.5 -1.25,-3.5 v -10 l 0.75,-2 2.5,-4.5 0.625,-2.5 -1,-3 -1.125,-5 0.125,-6 1.375,-4.5 6,-5.5 0.5,1 h 2 l 2,-2 1,1 1,-1 1,1 1.5,-0.5 h 2 l 2,0.375 12.5,-0.875 1,-1 1,1 1,-1 1,1 11.5,-1.625 5,0.625 h 1 1 l 2.5,1 2.5,2.5 2,4 2.5,2.5 h 0.5 l 3.375,27 0.625,13 v 1 3 1 l -2.5,7 -1.5,3 h -1 -0.5 l -0.5,0.5 v 0.5 h -9.5 l -1,1 H -86 l -0.5,-1 -0.5,0.5 v 0.5"
         id="path645" />
    </g>
    <g
       id="g646">
      <path
         fill="#201c1c"
         fill-rule="evenodd"
         opacity="0.500008"
         d="m -125,256 h 2 l -0.5,1 -1.5,-1"
         id="path646" />
    </g>
    <g
       id="g647">
      <path
         fill="#000000"
         fill-rule="evenodd"
         d="m -80,255 v -1 h -1 v 1 h 1 m -29.5,2 0.5,-1 h -1.5 l -0.5,1 h 1.5 m 5.5,0 v -1 h -1 v 1 h 1 m -15,1 v -1 h -1 v 1 h 1 m 2,0 v -1 h -1 v 1 h 1 m -1,1 v -1 h -1 v 1 h 1 m 48,1 v -1 h -1 v 1 h 1 m -16,65 h 0.5 l 1,-1 h 9.5 0.5 l 0.5,-0.5 V 323 h 1 l 3.875,0.75 0.875,-5.75 -0.125,-2 -0.625,-3 1,-0.5 -1,-0.5 v -3 l 1,-0.5 -1,-0.5 -0.625,-13 L -73,268 v -2.5 l -1,-1 1,-1 -1,-1 v -3 l 1,-1 -0.5,-0.5 -6,-1 -1,1 -1,-1 -1.25,0.25 L -83,258 h -1 l -0.5,-1 -0.5,0.5 v 0.5 l -5,-0.625 -11.5,1.625 -1,-1 -1,1 -1,-1 -1,1 -12.5,0.875 -2,-0.375 h -2 l -1.5,0.5 -1,-1 -1,1 -1,-1 -2,2 h -2 l -0.5,-1 1,-0.5 -1,-1 v -1 l 1.5,-1.5 h 4.5 l 1.5,1 0.5,-1 h 1 2.5 l 0.5,-0.5 V 255 h 2 l 1.5,1 0.5,-1 h 1 l 0.5,1 0.5,-1 h 4 l 0.5,1 0.5,-1 h 1 l 7.5,-1 0.5,0.5 -1,1 0.5,0.5 1.25,-0.25 0.5,-1.5 L -96,254 h 4.5 l 1,-1 1,1 1,-1 1,1 1,-1 h 4 l 1,1 1,-1 10,1 1.5,1.5 -0.75,8.5 4.75,32.5 -1,1 1,1 v 8 l 1,1 -1,1 0.25,1.5 0.125,10 -1.625,8 H -79.5 l -1,1 -1,-1 -9,1 -1,1 -1,-1 h -9 l -1,1 -1,-1 -19,1 -1.5,-1.5 -0.5,-1.5 -0.25,-1.75 L -111,325 h 15 3 6 1"
         id="path647" />
    </g>
    <g
       id="g650">
      <path
         fill="#201c1c"
         fill-rule="evenodd"
         opacity="0.500008"
         d="m -56,215 h -1 v -1 h 1 v 1"
         id="path650" />
    </g>
    <g
       id="g651">
      <path
         fill="#201c1c"
         fill-rule="evenodd"
         opacity="0.500008"
         d="m -58,210 h -1 v -1 h 1 v 1"
         id="path651" />
    </g>
    <g
       id="g652">
      <path
         fill="#201c1c"
         fill-rule="evenodd"
         opacity="0.500008"
         d="m -28,209 h -1 v -1 h 1 v 1"
         id="path652" />
    </g>
    <g
       id="g653">
      <path
         fill="#201c1c"
         fill-rule="evenodd"
         opacity="0.500008"
         d="m -23,208 h -1 v -1 h 1 v 1"
         id="path653" />
    </g>
    <g
       id="g654">
      <path
         fill="#201c1c"
         fill-rule="evenodd"
         opacity="0.500008"
         d="m -31,208 h -1 v -1 h 1 v 1"
         id="path654" />
    </g>
    <g
       id="g655">
      <path
         fill="#201c1c"
         fill-rule="evenodd"
         opacity="0.500008"
         d="m -18,207 h -1 v -1 h 1 v 1"
         id="path655" />
    </g>
    <g
       id="g656">
      <path
         fill="#201c1c"
         fill-rule="evenodd"
         opacity="0.500008"
         d="m -27,207 h -1 v -1 h 1 v 1"
         id="path656" />
    </g>
    <g
       id="g657">
      <path
         fill="#201c1c"
         fill-rule="evenodd"
         opacity="0.500008"
         d="m -33,207 h -1 v -1 h 1 v 1"
         id="path657" />
    </g>
    <g
       id="g658">
      <path
         fill="#000000"
         fill-rule="evenodd"
         d="m -37,214.625 -6.5,-0.625 -1,-1 -1,1 -3.25,-1.25 v -1.5 l 1.75,-0.75 2,-0.25 9.5,0.75 0.5,-0.5 -2,-2 0.25,-2.25 4.25,-1.25 1,-1 1,1 h 6 l 1,1 1,-1 h 3 l 1,-1 1,1 1.25,0.25 0.25,2.25 -0.5,0.5 -1,-1 -1,1 H -21 l 0.5,1 1.25,0.25 0.25,1.25 -2.5,2.5 -8.5,0.5 -7,1.125 M -33,207 v -1 h -1 v 1 h 1 m 6,0 v -1 h -1 v 1 h 1 m 9,0 v -1 h -1 v 1 h 1 m -13,1 v -1 h -1 v 1 h 1 m 8,0 v -1 h -1 v 1 h 1 m -5,1 v -1 h -1 v 1 h 1"
         id="path658" />
    </g>
    <g
       id="g659">
      <path
         fill="#1d1919"
         fill-rule="evenodd"
         opacity="0.500008"
         d="m -53,196 v -0.5 l 0.5,-0.5 h 3.5 v 0.5 l -0.5,0.5 H -53"
         id="path659" />
    </g>
    <g
       id="g660">
      <path
         fill="#201c1c"
         fill-rule="evenodd"
         opacity="0.500008"
         d="m -61,215 h -1 v -1 h 1 v 1"
         id="path660" />
    </g>
    <g
       id="g661">
      <path
         fill="#201c1c"
         fill-rule="evenodd"
         opacity="0.500008"
         d="m -62,214 h -1 v -1 h 1 v 1"
         id="path661" />
    </g>
    <g
       id="g662">
      <path
         fill="#201c1c"
         fill-rule="evenodd"
         opacity="0.500008"
         d="m -67,214 h -1 v -1 h 1 v 1"
         id="path662" />
    </g>
    <g
       id="g663">
      <path
         fill="#201c1c"
         fill-rule="evenodd"
         opacity="0.500008"
         d="m -63,213 h -1 v -1 h 1 v 1"
         id="path663" />
    </g>
    <g
       id="g664">
      <path
         fill="#201c1c"
         fill-rule="evenodd"
         opacity="0.500008"
         d="m -81,211 h -1 v -1 h 1 v 1"
         id="path664" />
    </g>
    <g
       id="g665">
      <path
         fill="#201c1c"
         fill-rule="evenodd"
         opacity="0.500008"
         d="m -63,211 -1,-1 v -1 l 1,0.5 v 1.5"
         id="path665" />
    </g>
    <g
       id="g666">
      <path
         fill="#201c1c"
         fill-rule="evenodd"
         opacity="0.500008"
         d="m -66,209 h -1 v -1 h 1 v 1"
         id="path666" />
    </g>
    <g
       id="g667">
      <path
         fill="#201c1c"
         fill-rule="evenodd"
         opacity="0.500008"
         d="m -78,209 h -1 v -1 h 1 v 1"
         id="path667" />
    </g>
    <g
       id="g668">
      <path
         fill="#000000"
         fill-rule="evenodd"
         d="m -58.5,217 -1,-1 -1,1 -3.5,0.625 -1.5,0.375 -1,-1 -1,1 -6.5,0.5 -7.5,1.5 -1,-1 -1,1 -12.25,1 -0.25,-3.5 0.5,-0.5 1,1 1,-1 12,-1 1,1 2,-2 h 4 l 2,-2 4,-1 1.5,-1.5 -0.5,-0.5 -2.5,0.625 -2,0.875 -2,0.125 -3,-1.25 -1.5,-0.375 -3,3 h -2 l -1,-1 -1,1 -2.5,-2.5 2,-2 0.25,-1.25 1.25,-0.25 2,2 1,-1 2.5,-0.5 3.75,-0.25 0.5,1.5 2.25,0.25 0.5,-0.5 -1,-1 0.5,-0.5 2.5,-0.625 4,0.375 8,-1.375 3.75,-0.125 -0.375,2.75 -0.375,1.5 -1.5,1.5 -4,1 H -61 l 0.5,1 h 6 l 1.5,1.5 -0.25,1.375 -4.25,0.125 -1,1 M -78,209 v -1 h -1 v 1 h 1 m 12,0 v -1 h -1 v 1 h 1 m 3,2 v -1.5 l -1,-0.5 v 1 l 1,1 m -18,0 v -1 h -1 v 1 h 1 m 18,2 v -1 h -1 v 1 h 1 m -4,1 v -1 h -1 v 1 h 1 m 5,0 v -1 h -1 v 1 h 1 m 1,1 v -1 h -1 v 1 h 1 m 3,-5 v -1 h -1 v 1 h 1 m 2,5 v -1 h -1 v 1 h 1 m -15,1 v -1 h -1 v 1 h 1 m 5,0 v -1 h -1 v 1 h 1 m 4,0 v -1 h -1 v 1 h 1 m 2,0 v -1 h -1 v 1 h 1 m -14.5,1 0.5,-1 h -1.5 l -0.5,1 h 1.5 m -15.5,1 v -1 h -1 v 1 h 1 m 5,0 v -1 h -1 v 1 h 1 m -3.5,2 0.5,-1 h -1.5 l -0.5,1 h 1.5"
         id="path668" />
    </g>
    <g
       id="g669">
      <path
         fill="#201c1c"
         fill-rule="evenodd"
         opacity="0.500008"
         d="m -113.5,212 h -2 l -1.5,-1.5 v -3 l 2.5,-2.5 h 1 l 2.5,2.5 -1,1 1,1 -2.5,2.5"
         id="path669" />
    </g>
    <g
       id="g670">
      <path
         fill="#000000"
         fill-rule="evenodd"
         d="m -118,202 h 0.5 l 0.5,-0.5 V 201 h 3 2 l 0.5,1 h 1 l 3.5,3.5 -0.75,4.5 -1.25,3.5 -2.5,2.5 -7,-1 -1.5,-1.5 -0.25,-1.5 v -6 l 0.5,-1.75 1.5,-0.5 0.25,-1.75 m 4.5,10 2.5,-2.5 -1,-1 1,-1 -2.5,-2.5 h -1 l -2.5,2.5 v 3 l 1.5,1.5 h 2"
         id="path670" />
    </g>
    <g
       id="g671">
      <path
         fill="#1d1919"
         fill-rule="evenodd"
         opacity="0.500008"
         d="m -122,203 v -1 -0.5 l 0.5,-0.5 h 4.5 v 0.5 l -0.5,0.5 h -0.5 -2.5 l -1,1 h -0.5"
         id="path671" />
    </g>
    <g
       id="g672">
      <path
         fill="#1e1919"
         fill-rule="evenodd"
         opacity="0.500008"
         d="m -114,201 v -0.5 l 0.5,-0.5 h 4.5 v 0.5 l -0.5,0.5 h -2.5 -2"
         id="path672" />
    </g>
    <g
       id="g673">
      <path
         fill="#1e1919"
         fill-rule="evenodd"
         opacity="0.500008"
         d="m -107,200 v -0.5 l 0.5,-0.5 h 4.5 v 0.5 l -0.5,0.5 h -4.5"
         id="path673" />
    </g>
    <g
       id="g674">
      <path
         fill="#1e1919"
         fill-rule="evenodd"
         opacity="0.500008"
         d="m -73,197 v -1 h 13 v 0.5 l -0.5,0.5 H -73"
         id="path674" />
    </g>
    <g
       id="g675">
      <path
         fill="#1f1b1b"
         fill-rule="evenodd"
         opacity="0.500008"
         d="m -58.5,217 1,-1 4.25,-0.125 0.25,-1.375 -1.5,-1.5 h -6 l -0.5,-1 h 0.5 l 4,-1 1.5,-1.5 0.375,-1.5 0.375,-2.75 -3.75,0.125 -8,1.375 -4,-0.375 -2.5,0.625 -0.5,0.5 1,1 -0.5,0.5 -2.25,-0.25 -0.5,-1.5 -3.75,0.25 -2.5,0.5 -1,1 -2,-2 -1.25,0.25 -0.25,1.25 -2,2 2.5,2.5 1,-1 1,1 h 2 l 3,-3 1.5,0.375 3,1.25 2,-0.125 2,-0.875 2.5,-0.625 0.5,0.5 -1.5,1.5 -4,1 -2,2 h -4 l -2,2 -1,-1 -12,1 -1,1 -1,-1 -0.5,0.5 0.25,3.5 12.25,-1 1,-1 1,1 7.5,-1.5 6.5,-0.5 1,-1 1,1 1.5,-0.375 3.5,-0.625 1,-1 1,1 m 21.5,-2.375 7,-1.125 8.5,-0.5 2.5,-2.5 -0.25,-1.25 -1.25,-0.25 -0.5,-1 h 2.5 l 1,-1 1,1 0.5,-0.5 -0.25,-2.25 -1.25,-0.25 -1,-1 -1,1 h -3 l -1,1 -1,-1 h -6 l -1,-1 -1,1 -4.25,1.25 -0.25,2.25 2,2 -0.5,0.5 -9.5,-0.75 -2,0.25 -1.75,0.75 v 1.5 l 3.25,1.25 1,-1 1,1 6.5,0.625 M -22,222 h -7 -0.5 l -0.5,0.5 v 0.5 l -1,-0.5 -2,-0.375 -33.5,1.875 -2,-2 -2.25,0.25 -0.5,1.5 -1.25,0.25 -1,1 -1,-1 -1,1 h -3 l -1,-1 -1,1 h -12 l -1,1 -1,-1 -1,1 -1,-1 -1,1 h -18.25 l -0.25,-1.5 -1.5,-1.5 -2.5,2.5 v 1 l -0.5,0.5 -1,-1 -1,1 -23.5,1 h -1 l -2,-2.5 v -1 l -1,-0.5 v -9 l 1,-0.5 v -1 l 2,-1.5 v 2.5 l 3.5,3.5 2.25,-0.25 0.5,-1.5 1.25,-0.25 1,1 0.5,-0.5 0.25,-1.25 1.5,-0.5 0.5,-1.5 5.75,0.25 3.5,-0.5 2,-2 1.25,-0.25 0.5,-1.75 0.75,-6 h 0.5 l 1,-1 h 2.5 l -0.25,1.75 -1.5,0.5 -0.5,1.75 v 6 l 0.25,1.5 1.5,1.5 7,1 2.5,-2.5 1.25,-3.5 0.75,-4.5 -3.5,-3.5 h -1 l -0.5,-1 h 2.5 l 0.5,-0.5 V 200 h 2 4.5 l 0.5,-0.5 V 199 h 3.5 l 0.5,-0.5 V 198 h 1 8.5 l 0.5,-0.5 V 197 h 13 2 12.5 l 0.5,-0.5 V 196 h 4.5 l 1,-1 1.5,1 h 3.5 l 0.5,-0.5 V 195 l 44,-3 10,0.625 7.5,1.375 1.5,1.5 0.25,1.375 5.75,0.625 5.5,1.5 3.5,3.5 0.25,1.5 v 9 l -0.25,1.5 -3.5,3.5 -5.5,1.25 -30,2.75 -4,-0.5 h -3 l -4,0.5 h -1"
         id="path675" />
    </g>
    <g
       id="g676">
      <path
         fill="#201c1c"
         fill-rule="evenodd"
         opacity="0.500008"
         d="m -147,212 v -0.5 l 0.5,-0.5 h 0.5 v 0.5 l -0.5,0.5 h -0.5"
         id="path676" />
    </g>
    <g
       id="g677">
      <path
         fill="#201c1c"
         fill-rule="evenodd"
         opacity="0.500008"
         d="m -141.5,214 -1.25,-0.25 0.125,-1.75 0.875,-2.75 1.25,-0.25 1.5,1.5 v 1 l -2.5,2.5"
         id="path677" />
    </g>
    <g
       id="g678">
      <path
         fill="#201c1c"
         fill-rule="evenodd"
         opacity="0.500008"
         d="m -127.5,209 -1.25,-0.25 -0.25,-1.25 2.5,-2.5 0.5,0.5 v 2 l -1.5,1.5"
         id="path678" />
    </g>
    <g
       id="g679">
      <path
         fill="#201c1c"
         fill-rule="evenodd"
         opacity="0.500008"
         d="m -138,204 h 3.5 l 1,-1 h 3.5 l -0.5,1 h -1 l -3.5,3.5 v 1.5 l -1,-0.5 v -2 l -2,-2.5"
         id="path679" />
    </g>
    <g
       id="g680">
      <path
         fill="#000000"
         fill-rule="evenodd"
         d="m -127.5,209 1.5,-1.5 v -2 l -0.5,-0.5 -2.5,2.5 0.25,1.25 1.25,0.25 m -14,5 2.5,-2.5 v -1 l -1.5,-1.5 -1.25,0.25 -0.875,2.75 -0.125,1.75 1.25,0.25 m 19.5,-11 -0.75,6 -0.5,1.75 -1.25,0.25 -2,2 -3.5,0.5 -5.75,-0.25 -0.5,1.5 -1.5,0.5 -0.25,1.25 -0.5,0.5 -1,-1 -1.25,0.25 -0.5,1.5 -2.25,0.25 -3.5,-3.5 V 212 h 0.5 l 0.5,-0.5 V 211 l -0.5,-2 -0.25,-2.75 4.25,-1.25 1,1 0.5,-0.5 0.25,-1.25 2.75,-0.25 2,2.5 v 2 l 1,0.5 v -1.5 l 3.5,-3.5 h 1 l 0.5,-1 0.25,-1.75 2.75,-0.75 3.75,-0.25 1.25,1.75 v 1"
         id="path680" />
    </g>
    <g
       id="g681">
      <path
         fill="#000000"
         fill-rule="evenodd"
         d="m -145,191 v -1 h -1 v 1 h 1 m 5,0 v -1 h -1 v 1 h 1 m 9,7 v -1 h -1 v 1 h 1 m -21,1 v -1 h -1 v 1 h 1 m 8,0 v -1 h -1 v 1 h 1 m -12,11 v -1 h -1 v 1 h 1 m 2,15 v -12.75 h -1.875 l 0.875,12.25 1,0.5 m 66,-30 v -1 h -1 v 1 h 1 m -21,1 v -1 h -1 v 1 h 1 m -11.25,37.875 V 231 h -16.25 l -1,-1 -1,1 h -1 l -1,1 -1,-1 -8.375,1.125 v 5.625 l 1.375,0.25 1,-1 1,1 1.5,-0.5 2,-0.875 4,-0.875 18.75,-1.875 M -154,241 v -1 h -1 v 1 h 1 m 59,-13 v -1 h -1 v 1 h 1 m 7.5,6 1,-1 14.25,-1.125 v -3.625 l -41.75,2.625 -1.75,0.375 v 1.625 l 6.25,0.125 1,-1 1,1 13,-1 2,2 1,-1 4,1 m 69,-2 0.5,-0.5 -1,-1 v -4 l -0.5,-0.5 -1,1 h -1 l -1,-1 -1,1 -1.5,-0.5 -2,-0.375 -40.875,1.875 v 4.75 H -66 l 8,-1.25 20,0.25 4.5,-0.75 1,1 1,-1 h 1 l 1,1 1,-1 10,1 m -56.5,2 v -1 h -1 v 1 h 1 m -35,1 v -1 h -1 v 1 h 1 m 89,-13 4,-0.5 h 3 l 4,0.5 0.5,1 1,-1 h 4 l 1,1 1,-1 22.5,0.75 7,1 1.75,0.5 v 2.5 l -1.25,0.25 -1,1 -1,-1 h -11 l -1,-1 -1,1 -1.5,-0.5 -2,-0.125 -3,0.375 -7.5,-0.75 -1,1 -1,-1 -1,1 -4,-1 -1,1 -1,-1 -1,1 h -2 l -1.5,1.5 1,1 v 1 l 1.5,1.5 1,-1 1,1 1,-1 h 7 l 1,-1 1,1 h 16 l 1,-1 1,1 1,-1 h 3 l 1,1 1,-1 4.25,1.25 0.25,2.25 -1.5,1.5 -1,-1 -3,1 -1,-1 -1,1 -1,-1 -1,1 h -15 l -1,-1 -1,1 -0.5,-0.5 v -1 l -0.5,-0.5 -1,1 -3,1 -1,-1 -1,1 h -6 l -1,1 -1,-1 -1,1 -11.5,-0.75 -6,0.5 -5.5,-0.75 -1,1 -1,-1 -1,1 -1,-1 h -6 l -1,1 -1,-1 -9.5,0.5 -7,1.125 -10,0.125 -1.5,0.25 -1,-1 -1,1 -18,-1 -1,1 -1,-1 -47,5 -1,1 -2,-2 -0.5,0.5 v 17 l 1,1 -1,1 1,1 -1,1 2,19 1,1 -1,1 1,1 1,12 -1,1 1,1 v 4 l -1,1 1,1 v 1 l -1,1 1,1 -0.25,24.5 2.25,17.5 1,1 -1,1 1,1 2,19 2,2 v 2 l -1.5,1.5 -2,-2 -1.25,0.25 0.375,3.75 0.625,2 h 43.25 l 1,1 1,-1 1,1 h 36 l 1,-1 1,1 28,-2 1,1 1,-1 5.5,0.75 2,-0.25 1.5,-0.5 1,1 1,-1 1,1 1,-1 1,1 h 1 l 1,-1 1,1 4,-1 1,1 1,-1 h 33 l 1,-1 1,1 h 1 l 1,-1 0.5,0.5 1,3 -1.5,1.5 h -9 l -0.5,0.5 1,1 v 1 L 21.5,387 17,386.25 h -1.75 l -0.5,1.75 -22.25,-1 -1,1 -1,-1 -1,1 -19.5,-0.125 -2,-0.375 -1.5,-0.5 -1,1 -1,-1 h -4 l -1.5,-1.5 0.25,-1.25 1.25,-0.25 h 0.5 l -0.5,-1 -8,1 -1,-1 -1,1 h -1 l -1,-1 -1,1 -10.5,0.25 -2,0.25 -1.5,0.5 -1,-1 -1,1 -1,-1 -1,1 h -1 l -1,-1 -1,1 -1,-1 -0.5,0.5 -0.25,1.5 -15.25,-1 -2,2 h -3 l -2,-2 -32.5,-0.125 -2,-0.25 -2.5,-0.625 -1,1 -1,-1 -1.5,0.375 -6,0.125 -2.5,0.5 -1.5,-1.5 v -3 l 1,-1 -1,-1 -0.5,-5.5 -0.875,-4 -1.625,-21.5 -1,-1 1,-1 -1,-1 1,-11 -1,-1 1,-1 -1,-1 1,-21 1,-1 -1,-1 1,-1 -1,-1 v -2 l 1,-1 -1,-1 v -3 l 1,-1 -1,-1 -1.25,-15.25 -1.5,-0.5 -0.5,-1.75 -0.75,-4.5 1,-1 -1,-1 -1,-27 -1,-1 1,-1 -5.75,-44.5 0.375,-4 0.375,-1.5 1.5,-1.5 1.5,1.5 v 1 l 1,1 -1,1 1,10 0.5,0.5 1,-1 2.25,-0.25 0.25,-1.25 -1,-1 1,-1 -1,-1 v -5 l 1,-1 -1,-1 1,-1 v -3 l 2.5,-2.5 h 3 l 1,-1 1,1 1,-1 22.5,1.75 7.5,-0.75 1,1 1,-1 28,-1 1,-1 1,1 19,-2 1,-1 1,1 h 4 l 1,-1 1,1 1,-1 h 12 l 1,-1 1,1 1,-1 37,-3 1,1 1,-1 h 1 l 1,1 1,-1 1,1 1,-1 7.5,0.75 6,-0.25 5.75,1.75 V 185 H 12.5 l -1,-1 -1,1 h -24 l -1,1 -1,-1 -1,1 -10.5,0.5 -11.5,1.5 -1,-1 -1,1 -1,-1 -1,1 -24,1 -1,1 -1,-1 -1,1 h -6 l -1,1 -1,-1 -1,1 h -12 l -1,1 -1,-1 -21,1 -1,1 -1,-1 h -1 l -1,1 -1,-1 -2.5,0.625 h -2 l -2.5,-0.625 -1,1 -1,-1 -17.5,-0.375 -1.5,0.375 -1,-1 -1,1 -1,-1 -0.5,0.5 0.125,5.25 2.625,0.5 0.25,1.25 v 0.5 l 1,-0.5 0.25,-1.375 19.25,-2.125 1,1 1,-1 11,-1 1,1 1,-1 h 6 l 1,-1 1,1 h 4 l 1,-1 1,1 1,-1 h 10 l 1,1 2,-2 1,1 h 1 l 1,-1 1,1 1,-1 h 1 l 1,1 1,-1 h 14 l 1,-1 1,1 h 1 l 1,-1 1,1 11.5,-1.75 4,0.5 6.5,-0.75 1,-1 1,1 h 1 l 1,-1 1,1 1,-1 h 10 l 1,-1 1,1 1,-1 9,-1 1,1 1,-1 1,1 1,-1 12,-1 1,1 1,-1 1,1 1,-1 8.5,0.625 7.5,1.375 1.5,1.5 -0.25,3.25 -4.25,1.25 -0.5,-0.5 1,-1 -1.5,-1.5 -7,-1 -1,1 -1,-1 h -1 l -1,1 -1,-1 h -3 l -1,1 -1,-1 -1,1 -12.5,1 -44,3 h -3.5 l -0.5,0.5 v 0.5 l -1.5,-1 -1,1 h -4.5 -13 -1.5 l -0.5,0.5 v 0.5 h -13 -8.5 l -0.5,0.5 v 0.5 h -1 l -0.5,-1 -1,1 h -12 l -1,1 -1,-1 -14,1 -1,1 -1,-1 -1,1 -10,1 -1,-1 -1,1 -7.25,0.125 -0.25,2.375 1,1 -1,1 -0.625,2.5 -0.125,2 0.75,5 v 9 3.5 l 0.5,0.5 h 2.5 l 0.5,1 0.5,-1 23.5,-1 1,-1 1,1 0.5,-0.5 v -1 l 2.5,-2.5 1.5,1.5 0.25,1.5 h 18.25 l 1,-1 1,1 1,-1 1,1 1,-1 h 12 l 1,-1 1,1 h 3 l 1,-1 1,1 1,-1 1.25,-0.25 0.5,-1.5 2.25,-0.25 2,2 33.5,-1.875 2,0.375 1,0.5 h 0.5 l 0.5,-0.5 V 222 h 7 l 0.5,1 0.5,-1 m 19,12 v -1 h -1 v 1 h 1 m -29,1 v -1 h -1 v 1 h 1 m -28,149 v -1 h -1 v 1 h 1 m -36,2 v -1 h -1 v 1 h 1 m 3,0 v -1 h -1 v 1 h 1 m 42,-4 v -1 h -1 v 1 h 1 m 42,2 v -1 h -1 v 1 h 1 m 8,0 v -1 h -1 v 1 h 1 m 3.5,0 0.5,-1 H 1.5 L 1,384 h 2.5 m 6.5,-1 v -1 H 9 v 1 h 1 m 1.75,0.75 0.25,-1.25 -0.5,-0.5 -1.5,1.5 0.5,0.5 1.25,-0.25 m 5,0 0.25,-1.25 -0.5,-0.5 -1.5,1.5 0.5,0.5 1.25,-0.25 M 20,383 v -1 h -1 v 1 h 1 m -14,1 v -1 H 5 v 1 h 1 m 8,0 v -1 h -1 v 1 h 1"
         id="path681" />
    </g>
  </g>
</g>
</svg>
