<?xml version="1.0" encoding="UTF-8" standalone="no"?>
<svg
   width="186.18225"
   height="151.51978"
   viewBox="-702 0 186.18225 151.51978"
   version="1.2"
   id="svg924"
   xmlns="http://www.w3.org/2000/svg"
   xmlns:svg="http://www.w3.org/2000/svg"><defs
   id="defs924" />
<title
   id="title1">Notebook 3</title>
\n<g
   id="g932"
   transform="matrix(0.96003248,0,0,0.87776466,-257.33571,-1328.9357)">
  <g
     id="g174">
    <path
       fill="none"
       stroke="#000000"
       stroke-width="4"
       stroke-linecap="round"
       stroke-linejoin="round"
       d="m -363.812,1537.1 0.191,-2.56 1.321,-5.35 -0.289,-1.84 -0.036,0.58 -0.421,0.34 0.079,-0.58 0.047,0.44 -0.366,0.38 0.529,0.41 0.326,1.01 0.182,3.8 0.442,1.3 -0.132,2.2 0.938,6.11 0.358,7.14 0.617,1.32 0.181,1.43 -0.264,1.32 0.397,4.32 0.926,3.41 0.054,4.55 0.871,2.02 -0.347,1.04 -0.024,2.5 0.022,1.9 0.528,1.84 -0.492,3.07 0.394,1.53 -0.413,3.37 0.584,3.73 0.668,1.21"
       id="path174" />
  </g>
  <g
     id="g175">
    <path
       fill="none"
       stroke="#000000"
       stroke-width="4"
       stroke-linecap="round"
       stroke-linejoin="round"
       d="m -366.897,1529.39 -0.512,-0.75 -0.649,-2.28 -0.964,-0.52 0.205,-1.55 -0.204,0.91 0.483,0.13 0.038,1.23 1.104,2.54 -0.089,2.01 1.342,5.91 0.157,3.38 1.211,7.73 0.699,1.97 1.491,11.13 3.176,15.38 1.468,4.83 3.512,16.19 0.948,2.09 2.854,15.16 0.173,3.23 1.605,6.01 0.77,8.69 0.373,1.13 0.495,9.89 0.24,0.2 -0.424,0.92 0.152,-0.43 -0.312,-0.26 0.383,-1.36 -0.295,-0.24 -0.62,-4.09"
       id="path175" />
  </g>
  <g
     id="g176">
    <path
       fill="none"
       stroke="#000000"
       stroke-width="4"
       stroke-linecap="round"
       stroke-linejoin="round"
       d="m -336.046,1578.6 -0.489,-0.24 -0.483,-0.95 -0.752,0.41 0.187,-0.48 -0.255,1.31 0.507,1.68 -0.158,1.61 0.396,5.12 -0.549,2.39 0.207,2.96 -0.843,9.57 0.23,0.79 -0.074,0.94 -0.604,1.08 -0.722,5.42 -1.032,4.85 0.454,2.33 -0.843,2.27 -0.04,2.69 -0.69,2.4 -0.125,2.77 -0.876,4.49 -0.108,4.14 0.643,-2.11 0.058,0.84 0.171,-0.13 1.655,-16.19 -0.14,-2.26 0.535,-7.47 0.389,-3.16 0.934,-2.91 -0.06,-2.84 0.449,-3.6 0.811,-2.91 0.363,-5.89 0.949,-2.57 -0.105,-1.34 0.713,-5.25 -0.209,-1.27 3.101,-9.08 -0.339,-0.22 0.214,0.11 -0.606,0.86 -0.315,1.97 -1.097,1.84 0.093,0.92 -2.034,6.55 -1.604,7.84 -1.086,3.3 -0.546,6.78 -0.899,4.7 -0.127,6.63 -0.716,3.12 -0.382,8.55 -1.356,11.98 -0.09,4.68 0.094,-0.2 0.192,0.53 -0.442,0.12 0.288,-0.14 0.415,-3.38 0.578,-1.26 0.918,-4.66 -0.012,-2.67 0.532,-1.26 0.916,-4.57 0.208,-3.26 1.188,-4.05 0.656,-3.8 -0.217,-3.47 0.981,-3.13 0.709,-6.39 2.025,-6.96 -0.074,-3.15 1.632,-6.6 0.377,-5.47 0.573,-0.77 0.124,-0.79 -0.487,-0.6 -0.371,-1.53 -0.463,-0.16 -0.354,-0.89 0.063,1.54 -0.454,0.32 -0.222,2.19 -3.146,14.49 -2.355,17.1 -1.187,12.74 -0.928,3.94 -0.51,5.56 -0.932,4.5 -0.348,5.07 -0.828,5.09 -0.351,7.92 0.382,1.03 -0.218,0.28 0.509,-0.12 -0.012,-1.07 0.602,-0.73 0.339,-3.8 0.87,-2.62 0.181,-3.22 1.11,-6.03 1.073,-8.82 1.032,-3.74 0.782,-7.55 1.928,-11.99 -0.039,-1.78 0.403,-1.92 0.805,-1.86 1.475,-9.77 2.321,-8.79 -0.191,-1.59 0.241,-1.47 0.774,-1.39 0.381,-1.95 0.671,-1.51 -0.182,-2.11 0.407,-2.06 -0.55,-0.19 -0.24,1.88 -1.753,4.48 -3.331,16.84 -2.76,20.68 -1.246,14.63 -1.501,10.57 -0.9,9.26 -0.917,2.87 -0.946,9.44 -0.849,0.69 0.442,1.34 0.324,-0.92 -0.371,-0.56 0.394,-0.38 0.119,0.83 0.244,-0.27 0.075,-1.3 0.431,-0.53 -0.402,-1.42 1.031,-2.44 1.614,-10.62 0.553,-1.74 0.167,-3.52 2.792,-17.73 1.542,-5.7 1.702,-9.03 1.291,-3.92 1.547,-10.22 1.193,-3.83 0.015,-1.9 1.023,-7.14 0.789,-2.62 0.13,-4.42 -1.197,-0.35 -0.746,0.89 -0.77,1.74 -1.061,4.14 -1.889,5.05 -0.816,4.43 -1.157,3.56 -2.163,12.42 -0.525,1.19 -5.269,37.93 -0.269,3.45 0.271,3.19 -0.443,1.33 -0.602,7.78 0.032,3.84 0.62,1.7 -0.258,0.7 -0.007,1.06 0.372,0.73 -0.197,0.21 0.1,-1.15 0.109,0.56 -0.211,-0.16 0.334,-0.12 -0.181,-1.64 0.831,-3.48 0.425,-0.58 -0.065,-2.4 0.731,-1.46 1.174,-5.58 0.244,-3.84 1.661,-6.44 0.829,-4.51 0.351,-4.43 0.773,-2.44 0.949,-5.21 1.223,-9.49 1.76,-9.09 0.346,-4.24 4.016,-24.24 -0.701,-0.62 -2.914,4.51 -1.921,6.59 -0.927,2.08 -1.671,9.36 -0.85,2.81 -0.63,4.92 -1.221,4.51 0.041,2.24 -1.588,9.87 -0.566,6.67 -0.492,2.87 -1.155,3.57 -0.7,6.57 -0.734,2.47 -0.783,6.4 -0.768,2 -0.423,4.32 0.071,1.49 0.263,0.07 0.449,-0.82 0.279,-1.68 1.056,-1.5 -0.162,-0.82 0.701,-3.05 1.116,-2.51 0.307,-2.98 0.893,-4.44 1.059,-3.06 0.006,-1.45 2.861,-14.65 5.706,-24.5 2.832,-15.8 -0.132,-1.65 0.488,-1.74 -0.318,-3.43 -0.414,-0.77 -0.022,0.31 0.377,-0.4 -0.04,0.93 0.283,-0.57 -0.342,0.4 0.245,0.15 -0.239,1.15 0.689,3.71 0.025,2.07 1.305,2.69 1.259,5.45 2.361,5.81 0.521,3.2 1.533,2.65 1.644,5.7 2.267,4.7 1.102,4.79 2.468,6.01 0.437,1.95 2.445,5.01 0.5,2.45 0.288,-0.24 0.53,0.25 0.359,2.08 0.663,1.02 -0.141,0.33 0.461,-0.09 h -0.288 l -0.306,-1.76 0.135,-0.47 -0.1,0.61 0.428,0.16 -0.22,0.08 -0.125,-0.95 -0.073,0.42 -0.428,-0.27 -0.194,-1.89 -0.474,-0.5 -1.038,-3.68 -1.165,-1.53 -0.545,-2.42 -2.987,-7.59 -5.348,-11.65 -0.791,-2.91 -1.596,-3.84 -1.217,-5.56 -0.499,-1.23 -0.477,-0.08 -0.392,-0.82 -0.289,-4.5 -1.584,-3.54 0.031,-2.03 -0.416,-0.35 -0.236,0.55 -0.09,-0.52 0.688,-0.15 -0.419,0.15 0.019,0.76 0.378,0.52 -0.156,0.81 0.972,0.9 0.031,0.7 3.322,8.03 6.101,17.7 2.984,6.65 1.359,4.5 3.115,6.62 1.378,2.12 1.431,4.36 3.444,7.64 1.277,2.04 0.605,0.13 0.526,0.55 0.534,1.29 0.264,1.9 3.994,6.02 -0.238,-0.92 -0.246,0.42 -0.205,-1.52 -0.306,0.79 -0.101,-2.1 -0.141,0.5 -0.408,-0.82 -0.609,-2.83 -0.336,0.21 -1.613,-1.72 -0.965,-3.99 -0.947,-1.08 -1.688,-4.73 -1.857,-3.04 -1.998,-6.44 -1.629,-1.79 -0.687,-1.26 -0.777,-2.83 -3.728,-7.23 -1.408,-6.14 -2.313,-4.09 -0.167,-1.62 -2.002,-6.07 -1.547,-3.07 -1.596,-6.04 -1.555,-2.55 -0.113,-1.34 -1.141,-2.79 -0.328,-2.07 -1.194,-2.55 -0.155,-1.24 -0.665,-0.97 5.408,23.57 1.883,6.48 5.955,18.15 2.605,6.81 3.845,8.71 1.498,4.61 0.854,1.05 1.974,4.31 1.888,5.2 3.035,4.35 1.4,3.76 0.472,2.86 0.435,0.98 1.006,0.98 -0.36,0.36 0.143,1.28 0.721,0.19 -0.493,0.32 -0.342,-0.37 0.225,-0.46 -0.285,-0.76 0.322,-0.29 -0.629,-0.7 -0.328,-4.56 -0.686,-3.04 -0.776,-1.63 -0.315,-2.06 -0.98,-3.02 -1.109,-2.29 -0.927,-5.26 -1.553,-2.33 -0.235,-2.86 -1.753,-4.92 -1.526,-7.64 -1.737,-2.71 0.157,-1.38 -1.687,-4.93 -2.723,-5.87 -0.341,-1.85 -1.57,-2.84 -0.644,-2.62 -1.651,-4.17 -2.252,-3.71 -2.54,-6.28 -1.426,-4.46 -1.301,-2.27 -0.974,-3.26 -0.158,0.34 0.16,0.27 0.097,-0.27 0.107,0.54 -0.248,0.34 0.87,1.62 0.586,2.05 0.712,1.16 0.768,0.08 0.775,1.23 1.636,7.9 2.883,6.62 1.985,5.54 1.396,5.25 4.053,10.11 1.334,5.07 1.319,2.13 2.111,5.55 2.198,3.1 2.81,8.11 2.54,3.8 2.24,5.61 1.649,2 -0.052,0.85 2.221,3.67 0.787,1.93 0.829,0.7 -0.316,0.7 -0.414,-0.27 0.571,-0.34 -0.392,0.01 -0.425,-0.68 0.125,-0.34 -0.225,0.3 -1.181,-5.49 -1.297,-2.15 -1.948,-8.14 -0.431,-1.02 -0.376,-0.02 -0.448,-0.83 -0.922,-3.66 -2.442,-5.65 -1.201,-5.34 -1.948,-3.12 -1.421,-5.72 -1.306,-3.31 -1.345,-2.3 -2.328,-5.98 -1.49,-1.91 -1.009,-3.76 -3.166,-6.61 -1.58,-4.49 -2.646,-5.57 -0.675,-2.69 -2.09,-4 -0.627,-2.97 -1.623,-2.62 0.038,-1.19 -0.483,-0.84 -0.592,-0.03 0.58,0.19 -0.353,0.81 0.387,0.95 -0.639,0.34 0.062,0.52 1.001,1.13 1.397,5.76 1.487,4.21 1.941,7.99 0.733,5.34 1.145,2.8 5.112,17.35 3.739,10.34 1.4,4.98 5.897,14.98 1.591,2.8 2.769,6.57 3.505,5.55 0.112,0.84 0.83,0.59 1.403,3.98 0.349,-0.58 0.016,1.19 0.802,0.98 -0.846,0.42 -0.108,-0.56 -0.249,-0.01 -0.009,0.65 0.325,-0.61 -0.179,-0.14 0.186,0.57 0.024,-0.94 -0.047,1 0.475,-1.22 -0.359,-0.76 -0.159,0.47 -0.002,-1.7 -0.438,-0.79 -0.349,0.13 0.112,-1.2 -0.653,-0.64 -0.353,-1.33 -0.534,-0.34 -0.306,0.19 -0.14,-0.47 0.46,-0.24 -0.052,-0.29 -0.499,-0.2 -0.511,-1.08 0.253,-0.43 -0.471,-2.32 0.809,-0.9 -0.365,-0.47 0.176,-2.34"
       id="path176" />
  </g>
  <g
     id="g177">
    <path
       fill="none"
       stroke="#000000"
       stroke-width="4"
       stroke-linecap="round"
       stroke-linejoin="round"
       d="m -281.052,1539.36 -0.575,-0.67 0.568,-0.19 -0.533,-0.18 -0.232,0.85 -0.006,6.6 1.26,33.56 -0.487,14.27 -1.178,10.4 -2.906,19.49 -0.972,12.12 0.418,0.95 -0.274,1.81 0.449,-0.06 -0.215,-0.34 0.453,-0.58 -0.515,-1.08 0.243,-0.31 0.473,-7.09 -0.311,-1.5 0.09,-1.53 0.448,-1.45 0.568,-9.49 0.777,-6.82 -0.26,-3.69 0.472,-1.81 0.351,-5.59 -0.21,-5.73 0.814,-7.71 -0.339,-4.5 0.458,-2.19 0.681,-8.53 0.03,-4.88 1.064,-7.92 0.888,-13.09 -0.379,-3.78 -0.391,-0.46 -0.342,1.22 -0.236,-0.43 -1.68,8.02 -2.758,23.14 -0.957,13.88 -0.202,12.48 -0.832,15.19 -0.693,5.94 -0.529,12.18 -0.9,5.19 0.048,4.59 -0.651,7.91 0.138,6.15 0.374,1.14 -0.333,2.66 0.194,-1.32 0.556,-0.8 -0.29,-0.36 0.039,-1.06 0.814,-1.31 0.359,-4.18 0.795,-2.67 0.582,-5.18 1.537,-6.03 0.661,-5.46 1.116,-5.27 1.121,-10.32 0.79,-4.05 0.858,-9.26 0.772,-4.4 1.073,-10.35 0.038,-3.9 1.242,-10.31 0.908,-14.11 -0.247,-13.38 -0.769,-5.33 -0.83,1.48 0.085,0.96 -2.521,10.3 -1.342,7.71 -3.984,31.19 -1.798,32.96 -0.492,2.25 -0.034,9.86 -0.639,5.92 0.441,6.03 -0.597,1.59 -0.044,1.44 0.458,1.31 0.106,2.77 -0.657,2.33 0.586,1.2 -0.551,0.24 0.311,-0.01 0.395,-0.69 0.08,-2.13 1.487,-4.88 5.613,-31.13 1.735,-15.7 1.118,-17.82 0.435,-12.37 -0.145,-9.7 -0.347,-8.03 -1.605,-12.21 -0.273,-5.37 -0.421,-1.91 0.159,-1.89 -0.447,0.86 0.155,7.48 -1.082,8.6 -1.889,24.61 10e-4,3.62 -1.242,18.05 0.352,9.77 -1.014,12.83 0.453,5.15 -0.467,2.6 -0.308,9.83 0.544,3.82 -0.383,1.88 -0.131,5.63 0.451,2.75 -0.735,5.71 0.247,1.34 -0.139,2.11 0.122,0.43 0.099,-0.57 -0.305,-0.21 0.265,-0.97 -0.166,-1.45 1.092,-1.9 2.064,-12.74 1.747,-14.94 0.844,-13.25 0.437,-22.44 -0.254,-5.08 0.435,-38.46 -0.551,-5.09 -0.051,-0.25 -0.461,0.01 0.334,0.97 -0.601,1.45 0.267,0.47 0.073,2.8 -0.541,3.31 0.096,4.46 -0.528,8.95 -0.715,6.46 -0.704,12.97 -0.879,6.58 -2.03,30.23 -0.602,4.45 -0.366,8.02 0.205,1.49 -0.517,2.74 -0.242,7.27 0.58,-0.26 0.424,-3.77 1.616,-3.39 1.049,-6.68 1.562,-5.25 2.023,-11.54 1.694,-6.18 5.821,-38.37 1.217,-11.73 0.001,-2.22 -0.457,-2.81 -0.29,0.68 -1.974,1.25 -2.856,3.09 -1.078,0.38 -2.086,3.75"
       id="path177" />
  </g>
  <g
     id="g178">
    <path
       fill="none"
       stroke="#000000"
       stroke-width="4"
       stroke-linecap="round"
       stroke-linejoin="round"
       d="m -445.281,1542.5 -1.197,-4.29 0.251,0.2 -0.003,0.96 -0.371,0.92 0.208,2.15 -0.773,10.38 -0.264,3 -0.793,3.56 0.462,6.99 -0.438,2.63 0.924,6.3 -0.288,1.89 0.68,2.82 -0.209,1.01 0.361,1.2 0.591,0.46 -0.27,0.15 -0.108,-0.35 -0.079,0.28 0.473,0.34 -0.193,0.13 -0.371,-0.58 0.745,-0.19 -0.457,0.08 -0.232,-0.27 0.226,-0.31 -0.65,-2.51 0.371,-1.66 -0.787,-4.41 -0.465,-9.51 0.59,-2.77 -0.372,-1.46 -0.605,-11.96 -0.412,-2.63 0.325,-3.18 -0.602,-5.71 -0.748,-2.75 0.098,-2.49 -0.539,-4.19 -0.279,-0.35 -0.424,0.18 0.082,1.4 0.53,0.59 -1.127,8.36 0.005,7.85 -0.536,10.29 -0.582,2.79 -0.125,2.63 0.785,4.72 0.586,7.13 1.872,10.35 0.892,2.7 0.518,5.24 0.55,1.45 0.164,4.18 -0.033,-0.52 -1.03,-0.51 0.297,-0.25 0.134,0.6 0.022,-0.74 -0.466,-0.17 -0.234,-0.66 0.206,-0.34 0.181,0.34 0.247,-0.66 -1.257,-1.13 0.638,-0.72 0.292,-3.21 -0.379,-2.91 0.035,-8.21 -0.954,-3.42 0.243,-1.8 -0.388,-8.37 -3.204,-37.52 -0.149,-3.39 0.534,0.47 -0.195,4.94 0.644,1.39 -0.927,12.73 0.059,8.01 -0.562,5.48 0.373,10.05 -0.346,3.34 0.416,6.52 -0.476,2.24 0.483,0.86 0.601,4.03 0.176,4.23 -0.317,0.25 -0.083,1.77 0.303,0.29 -0.598,0.76 0.268,-0.15 -0.163,-0.86 0.667,-0.21 -0.324,-0.08 -0.12,-1.42 0.388,-0.71 -0.112,-5.21 1.161,-2.49 -0.549,-1.26 0.005,-5.78 0.754,-2.62 -0.387,-6.38 0.758,-3.17 -0.593,-7.93 0.231,-2.8 -0.375,-4.28 0.208,-3.4 -0.045,-0.46 -0.837,-0.32 0.415,0.24 0.224,0.92 0.108,1.23 -0.562,0.74 0.467,0.3 0.663,7.67 -0.201,2.82 1.076,6.75 1.603,4.86 0.244,-0.47 0.048,1.02 0.624,1.25 -0.409,2.45 -0.579,0.13 0.324,0.03 -0.117,0.84 0.215,0.13 -0.014,-0.76 -0.5,-0.09 0.206,-1.24 -0.668,-0.97 0.507,-1.89 -0.411,-7.95 0.188,-8.77"
       id="path178" />
  </g>
  <g
     id="g179">
    <path
       fill="none"
       stroke="#000000"
       stroke-width="4"
       stroke-linecap="round"
       stroke-linejoin="round"
       d="m -448.194,1536.5 0.366,-3.38 0.024,-5.67 0.608,-3.57 -1.269,-6.48 0.81,-0.02 -0.612,0.39 0.28,0.28 -0.097,0.99 0.276,0.1 -0.254,0.95 0.062,-0.65 0.32,0.27 1.001,1.63 5.714,15.59 3.897,9.15 0.974,1.27 1.281,2.99 3.01,4.42 6.996,7.19 2.233,1.65 1.4,1.63 1.486,0.59 1.332,1.89 1.52,1.4 0.649,0.18 0.809,1.95 0.996,1.21 0.028,0.52 0.599,-1.03 0.091,1.76 0.796,0.69 -0.066,-0.71 0.241,-0.14 0.114,1.62 -0.043,-0.98 -0.034,0.52 -0.554,-0.02 0.316,0.19 -0.209,-0.24 -0.19,0.45 0.262,0.12 0.173,-0.52 -0.573,0.04 0.508,-0.04 -0.366,0.17 -0.23,-0.98 -1.156,-0.82 -0.004,-0.38 -0.272,0.18 -1.092,-1.96 -1.587,-1.33 -0.248,-0.89 -1.461,-2.25 -1.787,-1.69 -0.23,-0.84 -0.926,-0.74 -0.9,-2.25 -1.667,-1.72 -2.002,-4.08 -1.52,-2.31 -1.905,-5.11 -0.694,-0.52 -0.914,-2.46 -0.923,-1.33 -1.488,-3.54 -3.353,-6.32 -1.063,-4.62 -0.628,-0.41 -2.096,-5.53 -1.519,-0.21 -0.372,-0.58 -0.357,0.82 0.211,1.43 1.151,2.34 0.399,1.68 0.612,0.46 1.233,3.96 2.855,4.35 0.76,2.33 1.003,1.8 0.82,0.23 0.96,1.09 1.042,2.59 1.37,1.74 1.134,2.15 2.443,2.77 3.36,4.65 2.389,4.03 3.181,2.44 1.327,1.52 0.628,1.5 1.164,1.06 2.069,2.89 2.603,2.23 3.574,4.66 2.528,1.53 0.22,0.73 3.838,3.57 1.895,3.42 -0.122,0.93 0.65,0.29 -0.317,0.1 0.05,-0.99 -0.667,0.26 0.331,0.02 0.003,-0.26 -0.492,0.16 0.349,-0.07 -0.084,-0.22 -1.241,-0.63 0.285,-0.3 -0.31,0.11 -0.457,-0.99 -1.454,-1.38 -2.27,-3.7 -1.733,-1.48 -1.044,-2.09 -0.857,-1 -1.854,-1.2 -1.449,-1.85 -4.782,-4.71 -1.881,-2.38 -0.818,-2.01 -1.009,-1.5 -0.886,-0.4 -0.848,-1.06 -3.172,-5.77 -0.852,-0.36 -3.16,-4.63 -1.387,-4.4 -0.787,-0.45 -0.752,-1.3 -2.693,-6.41 -3.026,-4.87 -0.822,-2.35 -0.9,-0.38 -0.431,-1.94 -0.157,1.86 -0.289,0.43 0.782,0.73 -0.18,0.37 0.23,0.33 0.496,0.15 -0.369,0.13 0.104,0.25 0.639,0.25 1.205,2.8 0.582,0.02 0.643,2.25 2.893,5.61 2.241,3.11 1.444,3.99 1.481,1.97 2.372,4.78 2.763,3.74 2.087,3.77 3.535,5.31 1.321,1.44 1.767,2.96 3.683,4.39 2.108,1.65 1.194,1.49 3.629,2.38 2.059,2.55 1.449,0.83 -0.135,0.61 0.794,0.6 -0.338,-0.57 -0.336,0.2 0.465,0.12 -0.356,-0.01 -0.048,-1.35 -0.5,0.67 0.156,0.99 -0.112,-0.26 0.326,-0.07 -0.333,0.8 -0.237,-0.89 0.193,-0.44 -0.63,-1.51 -0.174,-4.73 0.081,-2.81 0.843,-1.9"
       id="path179" />
  </g>
  <g
     id="g180">
    <path
       fill="none"
       stroke="#000000"
       stroke-width="4"
       stroke-linecap="round"
       stroke-linejoin="round"
       d="m -388.18,1540.64 -0.489,-0.3 -0.363,0.25 -0.176,-1.45 -0.72,-0.69 -0.121,0.46 0.135,-0.49 0.005,0.32 0.498,0.17 -0.241,1.75 0.545,1.54 -0.233,1.25 0.555,8.18 -0.081,9.43 0.549,3.99 0.207,11.68 1.634,10.54 0.199,-0.24 0.24,0.44 -0.187,0.98 0.419,2.37 0.309,-0.06 0.302,1.71 0.225,-0.15 -0.119,0.47 0.149,-0.34 -0.421,-1.48 0.364,-3.16 -0.871,-4.32 0.31,-1.23 -0.154,-1.28 -0.657,-1.16 -0.882,-4 -0.226,-1.16 0.312,-1.26 -0.149,-1.29 -0.672,-1.46 -1.015,-4.08 0.346,-1.49 -0.13,-1.58 -0.743,-1.36 -1.386,-6.05 -0.816,-6.87 -1.29,-4.16 -0.655,-8.59 0.23,-2.6 -0.873,-7.64 -0.447,-0.23 0.239,0.08 0.01,-0.28 0.107,1.27 -0.447,0.39 0.376,1.84 -0.534,2.18 0.331,1.34 0.052,6.38 -0.527,4.95 0.581,12.66 -0.656,4.66 0.619,2.14 2.07,12.71 1.003,3.38 0.509,3.08 0.277,-0.08 0.503,2.58 0.427,1.39 0.054,-0.49 0.156,2.6 -0.153,0.46 -0.1,-0.48 -0.115,0.86 -0.077,-0.86 -0.201,0.32 -0.147,-0.46 0.296,-0.8 -0.289,-4.39 0.064,-16.89 -0.659,-3.53 0.389,-6.3 -0.471,-3.83 0.389,-8.71 -0.94,-4.13 0.516,-6.89 -0.494,-3.37 0.511,-4.35 0.739,-0.84 0.035,-0.76 -0.664,-0.32 0.426,0.89 -0.615,1.8 0.473,0.75 -0.533,0.41 0.307,3.08 -0.474,9.09 0.621,2.19 0.13,2.2 -0.466,2.2 -0.358,8.7 0.423,4.19 -0.212,7.19 0.869,2.78 -0.206,1.29 0.14,4.88 0.428,1.69 -0.011,2.55 -0.29,0.13 0.221,1.63 -0.661,0.12 0.513,-0.06 -0.195,-0.38 0.359,-0.79 0.076,0.35 0.198,-0.99 -0.282,-9.57 0.555,-3.19 -0.305,-1.49 -0.01,-4.78 0.292,-4.63 -0.142,-6.16 0.359,-3.11 -0.166,-7.35 1.304,-12.87 -0.08,-3.2 0.694,-1.89 0.136,-2.09 -0.24,-0.13 0.157,-0.91 -0.054,0.74 -0.676,0.45 0.309,0.77 -0.101,-0.66 -0.008,0.73 -0.531,0.98 0.207,0.75 0.077,-0.28 0.156,0.2 0.057,0.87 -0.845,0.78 -0.218,1.06 0.614,1.17 0.17,2.79 -0.737,8.5 -0.051,8.62 -1.042,4.33 0.312,4.27 -0.025,5.74 -0.407,3.51 0.235,5.68 -0.216,6.64 0.338,0.9 -0.459,1.51 0.236,1.91 -0.431,1.52 0.559,0.11 -0.391,0.01 0.351,-0.74 -0.298,-0.99 0.314,-0.52 -0.236,-0.31 0.184,-5.59 1.413,-13.16 0.275,-8.31 0.464,-2.06 0.266,-3.96 -0.094,-3.6 1.079,-7.52 -0.493,-3.45 -0.094,-10.94 0.562,-2.74 -0.301,-0.34 -0.475,2.8 0.339,0.79 -0.348,0.49 -0.101,1.95 0.11,6.59 -0.902,4.8 -0.552,5.03 0.257,2.37 -0.165,2.32 -0.674,2.43 -0.919,9.46 0.581,4.4 -0.451,1.6 -0.233,5.73 0.688,2.97 -0.143,4.9 -0.503,1.26 0.721,1.88 -0.21,3 0.461,2.6 -0.451,0.42 0.019,0.41 0.431,0.17 0.218,0.66 -0.311,-0.02 0.45,-0.7 -0.23,-0.54 1.008,-5.31 -0.018,-2.48 1.51,-6.72 0.03,-3.26 1.128,-6.74 -0.214,-3.28 0.665,-7.07 0.743,-3.22 -0.256,-9.94 -0.49,-2.7 -0.222,-4.04 -0.385,-0.56 -0.07,-2.25 -0.615,4.09 -0.731,0.76 0.087,1.38 -0.399,0.41 -0.226,3.13 -1.193,3.8 -1.275,8.88 -0.702,2.41 -0.38,2.38 -0.543,10.23 -0.598,3.56 0.66,8.46 0.554,3.67 0.509,0.48 -0.516,0.93 1.176,1.8 0.301,-0.16 0.622,0.48 0.529,1.22 0.319,-0.39 0.843,-0.06 1.956,0.25 1.507,-0.76"
       id="path180" />
  </g>
  <g
     id="g181">
    <path
       fill="none"
       stroke="#000000"
       stroke-width="4"
       stroke-linecap="round"
       stroke-linejoin="round"
       d="m -276.852,1537.89 -1.038,-3.02 -0.41,-3.1 0.218,-0.03 0.184,1.12 0.092,-0.27 -0.442,0.54 0.331,0.61 -0.295,0.68 0.226,0.26 -0.041,2.74 -0.723,2 0.196,1.17 -0.391,3.08 -0.754,2.91 -0.31,5.91 0.185,1.33 -0.655,2.63 -0.565,11.83 0.438,1.95 -0.426,3.66 0.321,1.96 -0.191,2.77 0.273,0.87 -0.254,0.72 0.23,0.09 -0.2,-0.58 0.317,-0.3 -0.302,-3.64 0.319,-1.94 -0.036,-6.83 1.022,-15.83 -0.302,-1.72 0.324,-7.9 0.58,-5.78 -0.16,-1.76 0.144,1.12 -0.694,4.81 0.278,3.44 -0.45,3.53 -0.75,16.52 0.496,7.41 0.555,2.27 0.248,3.77 -0.231,0.56 0.472,1.03 0.011,1.86 -0.242,0.29 0.255,0.3 -0.41,-0.15 0.374,-0.66 -0.597,-0.78 0.486,-0.69 -0.294,-0.58 0.899,-2.03 0.316,-3.36 0.928,-2.45 0.047,-4.86 0.982,-5.78 0.012,-6.66 -0.872,-3.68 -0.52,0.02 -3.522,3.45 -1.297,1.99"
       id="path181" />
  </g>
  <g
     id="g182">
    <path
       fill="none"
       stroke="#000000"
       stroke-width="4"
       stroke-linecap="round"
       stroke-linejoin="round"
       d="m -326.465,1582.26 -0.386,-3.63 0.386,-0.85 0.065,-2.33 0.45,-0.84 0.288,0.52 -0.727,0.4 0.43,0.14 0.033,0.6 -0.051,0.44 -0.28,-0.01 -0.075,1.32 -0.241,0.73 -0.024,-0.37 -0.893,1.3 -0.773,2.66 -2.44,5.37 -4.392,14.83 -3.472,10.01 -0.091,1.33 -0.275,0.24 -0.877,3.98 -0.445,0.31 0.243,0.62 -0.094,-0.33 -0.293,0.52 0.185,-1.17 0.015,0.45 -0.514,-0.1 0.37,-0.12 0.269,-0.99 -0.327,-0.49 0.316,-0.33 0.446,-2.46 -0.518,-0.87 -0.129,-1.12 0.919,-2.13 0.873,-4.03 -0.076,-2.53 1.652,-5.17 -0.009,-2.48 1.754,-6.12 0.157,-2.51 2.382,-8.9 0.058,-0.34 -0.495,-0.54 0.46,-0.01 0.235,0.8 -0.413,1.41 0.313,0.85 -0.825,1.1 -0.408,3.58 -1.671,5.65 -0.595,6.7 -2.104,11.48 -0.663,12.81 -0.532,1.65 0.281,7.72 0.089,-0.71 0.199,0.18 10e-4,1.05 -0.419,-2.5"
       id="path182" />
  </g>
  <g
     id="g183">
    <path
       fill="none"
       stroke="#000000"
       stroke-width="4"
       stroke-linecap="round"
       stroke-linejoin="round"
       d="m -362.739,1563.33 -1.732,-3.22 -0.367,-1.93 -2.027,-5.02 -0.497,-3.25 -0.352,1.26 0.651,1.1 -0.179,0.72 0.81,3.87 -0.03,3.77 0.52,6.2 2.482,17.74 1.043,5.39 1.541,4.96 0.163,2.55 1.202,4.9 2.492,6.63 2.464,10.55 1.564,3.64 2.748,14.34 1.37,4.32 0.467,5.12 -0.327,1 -0.64,-0.78 0.258,-0.95 -0.521,-1.02 -0.464,-3.27 -1.009,-2.18 -0.029,-2.4 -0.744,-3.85 -0.205,-3.01 -2.668,-16.67 0.036,-2.95 -1.266,-4.52 -0.607,-4.96 -2.057,-9.01 -5.075,-31.63 -1.453,-5.75 0.48,3.19 -0.268,1.28 0.296,1.02 0.187,-0.4 0.301,0.45 0.194,1.76 -0.283,1.74 0.272,1.96 1.609,6.2 0.809,6.78 0.009,3.06 2.62,14.74 -0.168,3.03 0.35,2.83 1.049,2.63 3.526,15.82 2.285,8.06 0.211,4.12 1.595,6.61 0.631,1.4 1.338,7.04 0.252,4.85 0.525,1.13 -0.529,1.15 0.247,0.09 -0.243,-0.95 0.577,-0.75 -0.242,-0.43 0.023,-6.4 -0.559,-7.1 0.347,-4.4 -0.733,-3.54 -1.642,-14.38 -2.459,-14.39 -0.966,-3.56 -1.984,-10.61 -2.981,-11.48 -0.388,0.11 -0.361,-0.45 -0.304,-2.19 -0.398,-0.35 0.383,4.06 0.819,1.83"
       id="path183" />
  </g>
  <g
     id="g184">
    <path
       fill="none"
       stroke="#000000"
       stroke-width="4"
       stroke-linecap="round"
       stroke-linejoin="round"
       d="m -404.09,1626.65 -0.612,-1.35 0.318,-0.69 -0.496,-1.5 0.355,-0.3 -0.29,-0.09 0.059,-1.37 0.018,0.4 0.451,0.17 -0.23,-0.54 -0.084,0.74 0.621,0.22 -0.43,0.36 -0.607,-0.16 -0.909,-1.5 -1.505,-1.45 -3.94,-2.47 -0.565,-1.31 -0.319,0.41 -0.427,-0.04 -1.296,-0.95 -0.531,0.29 -1.954,-0.6 -1.11,-1.42 -0.513,0.38 -1.553,-0.17 -1.412,-1.25 -1.345,0.46 -2.284,0.09 -0.708,-0.52 -0.878,-0.14 -2.603,0.98 -1.661,-0.26 -0.781,0.21 -1.122,0.92 -1.726,0.71 -0.832,-0.41 -0.906,0.14 -1.61,1.48 -0.658,1.22 -3.534,2.46 -0.551,1.32 -4.629,4.78 -0.99,1.87 -1.478,4.17 -0.483,-0.01 -0.774,0.87 -2.061,4.93 -1.856,3.49 -0.596,1.46 -0.916,5.75 -0.581,1.36 -0.166,1.4 0.427,5.92 -0.511,1.07 -0.069,1 1.894,2.51 1.39,3.44 2.339,3.58 1.664,1.81 0.765,1.96 2.263,2.34 4.442,3.18 6.183,3.1 11.236,0.85 8.76,-1.44 3.737,-1.55 0.682,-0.58 1.74,-0.26 0.957,-1.02 5.998,-3.94 1.699,-1.84 3.523,-2.55 3.033,-3.86 1.084,-0.74 3.085,-3.6 0.843,-2.96 -0.26,-2.53 -0.955,-3.69 0.204,-1.43 -1.018,-4.14 -0.845,-1.42 -0.281,-1.96 -0.758,-1.02 -0.95,-3.57 -0.429,-0.11 -0.364,-0.71 0.091,-0.71 -1.588,-4.21 -1.211,-0.12 -0.133,-1.02 -0.894,-0.54 -1.27,-2.85 -0.574,0.17 -0.651,-0.62 -0.232,-0.84 -1.874,-2.75 -1.325,-0.39 -0.582,-0.88 -0.896,-0.35 -1.605,-1.36 -1.937,-0.43 -1.963,-0.99 -5.947,-1.88 -4.938,0.07 -5.575,2.55 -3.956,3.67 -5.316,9.2 -0.043,1.74 -1.827,9.25 -0.289,5.29 0.036,7.48 2.515,8.48 1.46,3.03 0.579,2.43 0.833,1.76 0.783,0.26 3.18,3.27 1.608,2.5 1.098,0.99 1.009,-0.21 3.433,1.52 0.856,1.57 1.24,0.87 1.068,-0.64 4.498,0.51 1.125,0.51 6.18,-1.75 2.664,-0.26 7.169,-4.1 1.902,-2.55 2.495,-2.05 1.427,-1.88 0.524,-1.82 4.127,-4.49 0.88,-2.45 0.687,-0.68 -0.301,-1.38 0.993,-3.43 -0.549,-3.29 0.571,-0.78 -0.168,-0.91 -0.748,-0.83 -0.638,-3.16 0.199,-1.96 -1.738,-4.94 0.598,-0.96 0.073,-1.11 -0.912,-0.93 -0.403,-1.04 -2.043,-6.75 -1.61,-3.46 -0.342,-2.66 -3.215,-5.57 -0.686,-1.76 -1.669,-1.44 -2.727,-2.13 -2.542,-1.49 -3.988,-0.63 -3.483,0.55 -8.004,2.88 -2.182,1.97 -3.623,2.01 -0.857,1.11 -1.952,1.4 -5.208,4.91 -2.751,3.8 -0.549,1.27 -1.436,1.63 -1.558,5.01 -1.614,3.92 -0.291,8.36 0.377,5.22 1.093,4.96 1.416,3.93 3.648,6.51 3.322,1.98 2.78,2.29 0.971,-0.19 3.438,0.33 0.774,0.78 1.203,0.2 1.25,-0.52 4.025,-0.71 1.205,-0.02 1.173,0.55 1.34,-0.23 2.071,-1.64 2.887,-1.2 1.331,0.62 1.394,-0.26 3.058,-3.42 1.012,-0.78 2.432,-0.93 0.975,-1 0.937,-1.13 -0.183,-1.02 0.498,-0.94 1.323,-0.81 0.779,0.27 0.757,-0.46 1.169,-2.53 -0.052,-1.1 0.337,-0.89 0.86,-0.72 1.447,-2.14 -0.139,-1.41 0.888,-3.31 -0.784,-1.34 -0.569,-2.98 -2.869,-5.75 -0.244,-1.07 -1.641,-2.06 -2.014,-3.2 -1.011,-2.29 -3.376,-5.04 -1.719,-3.86 -3.247,-3.16 -2.645,-2.34 -2.511,-1.34 -2.232,-0.07 -2.066,-1.33 -4.483,-0.25 -2.636,0.61 -1.152,-0.29 -2.198,1.14 -1.954,0.34 -1.803,0.87 -2.226,2.23 -0.958,-0.01 -2.931,1.61 -3.952,4.3 -4.24,9.61 -0.285,9.56 0.429,5.18 1.332,8.22 0.789,1.26 3.33,10.74 3.805,6.51 2.088,2.66 1.014,1.12 1.39,-0.16 1.37,0.51 1.281,1.53 1.546,0.78 2.852,1 5.261,0.78 4.273,-0.05 2.646,-1.08 1.421,0.04 5.643,-1.38 0.701,0.35 1.189,-0.43 1.177,-1.33 4.015,-2.78 2.279,-2.37 0.772,-1.4 0.234,-1.27 0.777,-1.11 1.056,-1.13 0.4,0.39 0.624,-0.68 0.519,-3.69 1.22,-3.68 0.348,-2.33 -0.367,-2.14 0.624,-2.99 -0.732,-2.13 -0.103,-1.75 -0.727,-2.96 -1.198,-2.32 -0.115,-1.18 -1.402,-3.57 -1.861,-2.29 -0.724,-1.25 -0.348,-1.42 -1.976,-2.98 -2.184,-2.31 -0.512,-1.17 -1.623,-1.29 -1.673,-2.79 -2.811,-3.04 -3.285,-2.25 -2.986,-1.41 -2.492,-2.05 -3.817,-0.73 -1.828,-0.8 -3.851,1.09 -2.768,0.29 -3.655,2.17 -2.237,1.95 -0.943,0.14 -3.143,3.17 -1.631,2.92 -0.732,0.41 -0.64,0.9 -1.098,2.37 -1.164,4.46 -0.818,1.57 -0.901,4.09 -0.389,4.25 0.995,7.43 3.659,6.82 2.993,4.31 6.05,5.28 1.081,0.56 1.596,0.25 2.55,1.22 3.313,0.58 1.734,-0.14 3.089,0.8 4.848,-1.17 1.23,-0.42 1.553,-1.66 1.725,-1.12 1.532,0.37 5.077,-1.91 2.427,-2.77 2.205,-0.55 2.476,-1.36 1.822,-3.55 0.616,-0.05 1.846,-1.74 1.293,-3.18 2.101,-3.22 0.064,-1.93 1.14,-4.66 -0.137,-5.71 -0.877,-3.54 -0.947,-1.55 -0.502,-2.19 -3.617,-7.25 -3.309,-4.25 -2.167,-1.67 -0.538,-0.8 -2.925,-1.65 -3.398,-1.74 -5.199,-1.18 -4.756,-0.61 -2.369,0.51 -4.214,0.23 -4.412,1.69 -3.783,2.33 -0.691,0.9 -1.573,1.03 -1.921,2.47 -1.382,2.41 -1.394,1.54 -3.276,9.76 -0.853,5.53 -0.385,9.44 1.135,12.34 0.722,3.25 2.258,7.05 3.745,3.35 1.665,2.5 0.954,-0.18 3.301,0.84 0.777,0.96 1.005,0.54 0.956,-0.56 4.33,-0.63 1.082,0.17 1.151,-0.42 2.979,-2.24 4.232,-1.31 2.354,-2.51 1.536,-2.16 2.884,-2.07 0.993,-1.09 0.928,-1.36 0.511,-2.66 1.983,-2.29 1.972,-3.91 0.254,-2.12 1.316,-3.68 -0.472,-4.6 0.224,-0.84 -0.82,-1.77 -1.028,-3.88 -3.577,-6.52 0.065,-1.31 -0.556,-1.27 -1.191,-1.24 -3.733,-6.61 -3.56,-3.38 -2.17,-1.5 -0.143,-0.85 -0.756,-0.72 -1.522,-0.57 -2.116,-1.99 -0.968,-0.14 -1.91,-0.91 -0.987,-0.88 -1.034,0.03 -0.784,0.62 -0.784,-0.2 -3.994,1.2 -2.522,1.7 -2.8,2.87 -2.554,5.03 -1.179,3.97 -1.174,10.24 0.712,11.52 1.147,5.46 1.875,6.24 1.334,1.83 2.702,5 0.72,0.85 1.905,0.93 2.298,2.55 0.832,0.56 1.907,0.22 1.966,0.94 3.003,0.72 2.244,-0.7 2.224,0.29 3.844,-0.51 8.133,-4.38 2.43,-2.99 2.1,-2.01 0.358,0.6 0.655,-0.52 1.767,-6.53 0.241,-2.03 -0.763,-0.84 -0.094,-0.85 0.544,-0.79 0.002,-1.75 -0.767,-1.96 -0.787,-4.65 -1.596,-2.25 0.066,-1.14 -0.459,-0.24 -0.389,-0.8 -0.469,-1.68 -2.387,-3.58 -0.431,-1.41 -1.509,-1.67 -0.656,-1.25 -2.291,-2.31 -0.703,-1.25 -4.506,-3.67 -3.724,-2.22 -3.143,-1.54 -3.429,-1.07 -3.862,0.18 -4.132,0.68 -3.749,2.1 -1.218,1.22 -1.38,1.93 -0.71,2.02 -1.517,2.54 -2.613,7.54 -1.417,7.04 -0.215,9.57 1.298,8.21 1.296,4.11 2.232,5.22 2.804,3.4 2.082,1.76 5.177,2.47 3.079,0.35 2.195,0.72 4.242,-1.8 2.08,-1.62 3.392,-1.6 1.713,-1.54 2.344,-3.15 1.152,-0.25 2.04,-1.88 0.985,-1.04 1.795,-3.56 2.939,-3.5 0.261,-3.24 0.506,-1.68 0.155,0.32 0.904,-1.66 -0.404,-2.55 -0.337,-0.47 0.091,-1.49 -1.014,-1.55 -0.618,-2.48 -0.085,-2.11 -1.271,-2.98 -4.157,-8.35 -1.569,-1.83 -0.89,-2.72 -4.754,-5.54 -1.828,-1.38 -1.617,-1.84 -2.888,-1.16 -1.574,0.4 -0.6,-0.47 -1.888,0.16 -1.575,0.78 -3.362,0.75 -1.535,2.88 -0.477,-0.36 -1.748,0.94 -1.197,2.05 -2.418,3.05 -1.591,6.37 -0.147,6.72 -0.6,3 1.119,3.44 0.923,5 3.185,9.34 1.69,3.15 5.319,5.07 2.655,0.63 1.577,0.08 1.703,0.58 3.239,-0.56 1.665,0.26 2.727,-1.24 1.406,-1.16 1.637,-0.32 3.448,-3.58 0.648,0.06 0.672,-0.56 1.17,-2.8 0.133,-2.12 1.606,-2.22 0.267,-2.4 1.234,-2.69 0.782,-3.49 -0.475,-2.17 0.408,-0.99 0.179,-2.57 -1.374,-6.75 -3.525,-7.15 -2.31,-3.56 -2.859,-2.71 -7.915,-4.69 -2.798,-0.99 -4.248,-0.42 -2.618,0.18 -1.199,-0.76 -1.246,0.01 -3.829,2.52 -2.558,0.06 -2.164,2.51 0.039,1.04 -0.516,1.21 -1.555,1.3 -1.206,0.35 -0.969,1.18 -0.828,2.07 -1.011,4.14 -1.629,3.55 -1.672,6.28 0.555,2.13 0.108,2.21 -0.798,2.25 -0.622,6.53 0.56,8.66 0.774,5.9 2.051,7.02 1.962,3.73 0.867,0.99 1.029,0.88 1.886,0.81 1.634,1.55 2.016,0.56 1.833,-0.09 2.735,0.53 2.16,-0.25 1.037,-0.89 3.024,-1.18 2.302,-1.77 1.212,-0.53 3.51,-3.25 1.431,-2.52 1.364,-1.33 3.314,-4.59 3.017,-5.39 0.747,-0.79 3.104,-6.06 1.461,-4.08 1.389,-5.84 -0.756,-5.32 -3.117,-6.38 -0.554,0.39 -0.609,-0.48 -0.498,-1.72 -2.553,-3.12 -1.31,-0.39 -1.564,-2.35"
       id="path184" />
  </g>
  <g
     id="g185">
    <path
       fill="none"
       stroke="#000000"
       stroke-width="4"
       stroke-linecap="round"
       stroke-linejoin="round"
       d="m -271.65,1553.2 0.247,-5.91 -0.277,-0.97 0.437,-1.16 -0.281,-0.88 -0.351,0.95 0.248,1.09 -0.393,1.19 0.389,3.58 -0.343,2.68 0.384,11.15 -0.161,7.41 -0.64,8.94 -4.336,26.78 -0.828,3.14 0.313,0.39 -0.183,-0.65 1.064,-5.08 -0.412,-2.04 0.579,-1.35 0.742,-5.35 0.057,-2.9 1.327,-8.6 -0.245,-3.44 0.566,-6.92 -0.298,-2.71 -0.051,-7.96 -0.478,-3.05 -1.314,-18.86 -0.396,1.69 0.487,0.52 0.01,0.63 -0.362,0.6 -0.477,2.69 -0.392,4.79 -1.936,10.73 0.021,5.59 -0.707,3.13 -0.983,11.79 0.136,14.18 0.599,4.69 -0.012,6.87 -0.207,7.69 -0.594,8.06 -0.452,1.86 -0.032,3.23 1.013,-7.44 0.172,-3.67 3.178,-23.45 0.121,-12.38 0.367,-4.61 -0.049,-26.6 0.386,-1.92 -0.129,-7.65 0.466,-2.71 -0.496,0.21 0.418,0.79 -0.031,4.55 -0.676,2.24 0.327,3.23 -0.319,6.62 -0.736,4.95 -0.2,10.49 -0.624,5.18 0.577,10.81 -0.312,4.07 0.701,6.38 -0.088,7.72 0.401,1.11 -0.842,4.44 0.132,1.11 -0.532,0.97 0.522,-0.11 -0.407,-0.25 0.623,-5.4 0.747,-2.33 2.3,-14.3 2.603,-22.69 10e-4,-17.12 -0.073,-0.98 -0.72,-1.09 -0.277,-1.8 -0.104,1.15 -0.678,1.79 -0.231,-0.21 -0.174,1.74 -1.203,3.05 -0.836,4.1"
       id="path185" />
  </g>
  <g
     id="g186">
    <path
       fill="none"
       stroke="#000000"
       stroke-width="4"
       stroke-linecap="round"
       stroke-linejoin="round"
       d="m -319.019,1579.44 -1.791,-2.47 -0.597,-2.17 -0.269,-0.36 -0.126,0.4 -0.173,-0.16 -0.021,-1.93 0.819,0.02 -0.155,0.64 0.353,1.58 2.132,6.54 0.581,3.76 1.32,4.21 1.837,9.04 2.992,10.6 0.311,4.02 0.887,1.94 1.64,5.94 4.785,14.57 2.507,6.65 1.023,3.83 0.123,-0.42 -0.154,1.59 0.028,-1.64 0.033,0.92 -0.364,0.08 0.04,-0.91 -0.028,0.48 -0.183,-0.23 -0.02,-1.08 -0.555,-1.02 -0.522,-3.24 -0.716,-0.98 -0.927,-4.04 -1.745,-3.86 -0.752,-3.75 -1.438,-3.09 -0.061,-1.33 -0.794,-1.82 -0.455,-3.08 -1.412,-2.7 -1.157,-5.13 -1.205,-2.9 -0.142,-1.54 -0.422,-0.2 -0.373,-1 -0.22,-2.2 0.244,-1.75 -0.367,-1.56 -0.66,-1.51 -1.529,-6.45 -2.349,-6.18 -0.195,-2.35 -0.703,-1.13 -1.197,-5 -1.433,-4.17 0.159,-1.11 -0.875,-1.42 0.229,-0.11 0.065,0.66 0.77,0.61 -0.291,0.34 0.149,1.52 0.987,1.86 0.148,1.37 1.036,2.19 0.388,2.33 4.044,14.79 0.891,5.17 5.973,19.26 1.357,5.89 0.738,0.65 1.69,4.6 0.936,3.78 1.945,4.36 0.884,4.08 1.178,2.31 1.649,7.85 -0.162,0.51 -0.175,-0.17 -0.139,-2.62 -0.448,-0.79 -0.579,-3.46 -1.484,-3.64 -0.822,-5.7 -1.062,-1.24 -0.365,-1.23 -0.641,-5.08 -2.001,-4.85 -0.886,-6.54 -1.482,-2.28 -0.594,-1.68 0.262,-1.7 -0.677,-4.24 -2.124,-6.28 -1.345,-7.5 -1.453,-3.37 0.068,-1.67 -1.414,-6.52 -1.157,-2.67 -0.945,-4.32 -0.985,-2.16 -0.493,0.24 0.327,0.25 0.423,1.85 0.468,0.21 -0.229,0.09 0.073,0.8 0.791,2.44 0.757,8.12 1.175,3.71 0.134,3.45 1.648,8.47 0.351,-0.18 0.328,0.69 0.238,1.9 1.008,3.04 0.606,0.96 0.755,2.9 0.803,1.42 0.525,0.19"
       id="path186" />
  </g>
  <g
     id="g187">
    <path
       fill="none"
       stroke="#000000"
       stroke-width="4"
       stroke-linecap="round"
       stroke-linejoin="round"
       d="m -357.486,1525 -0.408,-1.06 -0.504,-0.31 -0.172,0.22 -0.261,-0.51 -0.512,-0.14 -0.053,-0.46 -0.223,1.05 0.007,-0.68 0.277,-0.08 -0.231,-0.24 0.072,0.84 0.28,-0.66 -0.282,0.79 -0.03,-0.5 0.631,-0.12 -0.282,-0.15 -0.217,0.33 0.364,-0.29 -0.117,-0.4 -0.084,0.19 0.542,0.08 -0.297,-0.29 -0.033,0.31 1.284,0.5 0.968,0.88 0.353,-0.18 -0.016,0.22 3.648,0.32 1.588,-0.6 0.063,0.56 0.058,-0.45 -0.754,-0.11 0.187,-0.38 0.029,0.69 -0.294,-0.3 -0.263,0.95 -0.831,-0.89 -0.772,0.47 -2.353,-0.41 -1.079,0.58 -2.027,0.16 -1.067,0.77 -1.834,0.69 -0.765,-0.4 -1.175,1.06 -0.514,-0.53 -0.356,0.71 -0.274,0.19 -0.103,-0.42 0.1,0.28 -0.435,0.02 0.41,0.06 0.229,-1.09 0.342,0.88 0.379,-0.94 0.1,0.52 -0.407,0.28 0.226,0.13 0.235,-0.82 0.243,0.7 -0.343,0.2 0.73,0.19 0.11,0.46 0.666,0.43 1.527,0.01 0.84,0.4 0.921,-0.17 0.583,-0.48 2.78,-0.31 1.577,-0.94 0.579,-1.43 0.65,-0.05 -0.111,-0.78 0.037,0.31 -0.395,0.12 -0.133,-0.54 -0.166,0.27 0.317,0.1 -0.329,0.08 -0.103,-0.68 -0.372,0.3 0.149,0.2 -0.841,-0.44 -1.062,0.66 -0.608,-0.43 -1.978,0.23 -2.242,0.46 -0.505,1.06 -0.655,0.34 -0.347,-0.48 -1.59,0.47 -0.682,1.4 -1.237,-0.45 -0.172,1.39 -0.342,0.35 0.257,-1.32 0.137,0.93 0.261,-0.98 0.425,-0.43 0.169,0.47 0.046,-0.39 0.47,-0.28 0.121,0.44 1.018,-0.2 3.991,0.56 2.215,-0.27 0.517,-0.33 1.141,0.31 2.136,-0.62 0.902,-0.73 1.41,-0.04 0.876,-1.14 0.368,0.35 0.535,-0.07 0.257,-0.82 0.041,0.28 -0.569,-0.03 0.359,0.02 0.128,-0.66 -0.207,0.71 -1.358,0.18 -0.4,-0.1 0.221,-0.36 -0.293,0.4 -1.274,-0.81 -1.658,0.12 -1.969,0.28 -1.395,0.58 -0.275,0.49 0.444,-0.02 -0.03,-0.28 0.422,0.09 -0.029,0.29 1.092,-0.23 1.452,0.86 1.003,-0.54 0.53,0.6 2.511,0.54"
       id="path187" />
  </g>
  <g
     id="g188">
    <path
       fill="none"
       stroke="#000000"
       stroke-width="4"
       stroke-linecap="round"
       stroke-linejoin="round"
       d="m -277.656,1526.19 -1.119,-1.68 -0.375,0.27 0.125,0.43 -0.364,0.13 -0.89,0.05 -0.493,-0.85 -0.002,0.49 -1.074,-0.14 -1.181,0.66 -0.451,-0.32 -1.616,-0.02 -1.508,-0.51 -1.103,0.36 -2.456,0.03 -0.629,-0.64 -0.724,-0.1 -0.666,0.65 -1.284,0.53 -2.241,0.18 -3.078,1.8 -0.809,-0.31 -0.972,1.22 -0.04,-0.38 0.26,0.47 0.371,0.02 0.507,-1.39 0.055,0.52 0.488,0.03 0.348,-0.45 -0.115,0.36 0.356,0.34 0.464,-0.92 0.112,0.56 1.016,0.76 0.676,-0.19 1.049,0.33 1.104,0.84 3.35,-0.27 0.516,0.95 0.714,0.4 0.509,-0.73 1.904,-0.2 0.697,0.67 0.386,-0.66 0.969,-0.34 0.292,0.54 0.26,-0.53 -0.072,0.23 -1.487,-0.69 -0.043,-0.27 -0.045,0.54 -0.475,-0.24 -0.307,-0.74 -3.407,-1.42 -1.911,-0.35 -0.56,-0.55 -4.724,-0.27 -2.106,0.36 -1.94,1.09 -0.229,1.38 -0.381,0.41 0.183,-0.67 -0.367,0.05 0.338,0.4 0.821,-1.01 0.299,1 0.576,-0.68 0.296,0.54 2.06,-0.21 1.938,0.75 2.547,0.5 4.341,-0.62 3.261,0.06 1.082,-0.43 2.776,-0.3 0.822,-0.69 1.387,-0.29 0.412,-1.33 -0.199,0.61 -0.222,-1.53 -0.274,0.96 -0.576,0.43 -0.082,-1.17 -0.112,0.67 -0.563,0.28 -0.388,-1.65 -0.211,0.84 -1.266,0.26 -0.742,-0.58 -0.452,0.27 -1.517,-0.01 -1.265,-0.65 -3.283,1.06 -1.451,0.15 -2.982,1.16 -3.207,1.87 -0.86,1.46 -0.551,0.04 -0.317,1.53 0.075,-0.3 0.754,-0.19 0.133,1.08 -0.028,-0.72 0.958,-0.06 0.356,0.73 0.13,-0.27 1.225,0.64 0.523,-0.23 -0.211,0.28 0.321,0.21 1.236,0.3 1.059,-0.35 0.82,0.51 1.553,0.1 1.421,-0.38 0.862,0.26 3.253,-0.03 1.71,-0.72 0.546,0.36 0.571,-0.07 1.354,-1.06 0.581,0.5 0.241,-0.28 0.329,-0.54 -0.088,-0.53 0.212,-0.17 0.088,0.27 0.103,-0.38 -0.307,-0.3 -0.162,0.67 0.229,-0.36 -0.681,-0.09 -0.635,-0.5 -0.46,0.45 0.112,-0.48 -0.788,-0.52 -0.604,0.9 -0.096,-0.58 -0.773,-0.36 -0.503,0.63 -1.015,-0.62 -0.282,0.88 -0.65,-0.43 -0.685,1.11 0.142,1.04 -0.314,0.32 0.65,1.12 0.594,-0.75 0.714,0.83 0.486,-0.98 0.079,0.57 0.486,0.4 0.375,-0.63 0.934,0.44 0.574,-1.43 0.134,0.58 0.683,-0.08 0.15,-1 0.882,0.42 0.202,-1.05 0.884,0.16 0.306,-0.18 -0.236,-0.11 0.07,0.29 -0.003,-0.47 0.676,-0.24 -0.293,-0.05 -0.075,0.3 -0.177,-0.37 -0.323,0.22 0.448,0.15 -1.126,1.18 0.675,2.11 0.801,5.82 -0.14,1.65 0.804,3.29 -0.118,1.56 0.786,2.19 -0.153,1.11 0.708,1.99 -0.477,0.8 0.54,1.57 -0.531,0.2 0.419,0.22 0.041,0.67 0.185,-1.26 0.169,0.74 0.104,-0.73 -0.345,-0.41 0.417,-1.7 0.082,0.59 0.255,-4.86 0.687,-4 -0.187,-8.34 -0.577,-0.68 0.119,-0.59 0.113,0.92 -0.615,0.11 0.198,-0.46 -0.264,1.16 0.253,-0.06 0.358,1.36 0.014,10.89 0.659,2.15 -0.344,0.81 -0.055,1.71 0.598,5.09 0.015,-0.37 0.529,-0.34 -0.308,-0.45 0.505,-0.38 -0.258,-0.15 -0.049,0.65 -0.005,-0.65 0.543,-0.54 -0.259,-0.36 -0.004,-2.19 0.655,-1.83 0.54,-7.59 0.043,-2.18 -0.541,-0.92 0.422,-3.22 -0.654,-9.01 -0.329,2.49 0.415,6.4 -0.234,7.88 -1.262,13.97 -0.577,0.78 0.176,0.37 -0.643,2.33 -0.462,-0.16 1.091,-1.05 -0.22,-0.19 0.366,-2.27 -0.264,-2.19 0.458,-5.72 0.371,-3.85 0.552,-1.52 -0.363,-1.72 0.677,-4.68 -0.211,-4 0.597,-0.66 0.164,-0.72 -0.489,-0.67 0.391,-3.93 -0.138,-2.28 0.658,-0.37 -0.544,0.12 -0.371,3.83 0.362,2.11 0.35,9.43 -0.281,8.33 0.448,13.6 -0.445,3.07 0.188,2.43 -0.348,4.83 0.078,1.28 0.18,-1.08 0.318,1.25 -0.024,-1.22 0.376,-0.92 -0.162,0.46 -0.26,-2.6 0.309,-7.81 0.462,-2.27 0.54,-9.89 -0.218,-2.42 0.367,-1.02 0.114,-3.27 -0.375,-5.46 -0.449,-0.78 -0.189,-2.66 -0.67,-0.34 0.363,0.09 0.004,0.47 -0.623,0.66 0.645,2.27 -0.857,1.98 -0.453,5.49 -1.294,6.61 -0.508,4.37 -0.507,4.68 0.184,1.73 -0.645,3.56 -0.802,14.97 0.176,1.91 -0.722,3.61 0.059,1.65 -0.85,3.84 0.277,1.08 -0.406,0.5 -0.117,0.98 0.372,0.71 -0.457,0.52 0.418,-0.24 -0.222,-2.5 0.241,-0.46 -0.051,0.57 0.315,-0.04 -0.232,-2.4 1.417,-8.49 0.776,-2.55"
       id="path188" />
  </g>
  <g
     id="g189">
    <path
       fill="none"
       stroke="#000000"
       stroke-width="4"
       stroke-linecap="round"
       stroke-linejoin="round"
       d="m -274.62,1548.35 -1.348,-2.15 -0.601,-1.85 -0.596,-4.69 0.302,-0.64 0.502,0.92 1.125,15.81 -0.345,3.91 0.138,7.72 -0.557,4.32 0.32,8.93 -0.422,3.24 0.182,5.4 -0.36,2.77 -0.038,5.05 0.419,1.16 -0.372,2.24 -0.015,6.47 -0.53,5.4 0.437,1.62 -0.368,0.77 -0.08,3.28 0.369,-0.58"
       id="path189" />
  </g>
  <g
     id="g190">
    <path
       fill="none"
       stroke="#000000"
       stroke-width="4"
       stroke-linecap="round"
       stroke-linejoin="round"
       d="m -322.921,1580.14 0.326,-5.26 0.199,-0.81 0.293,0.2 0.066,-0.65 -0.195,0.85 0.487,2.49 0.739,0.7 0.734,3.25 0.853,0.57 0.255,0.65 0.331,2.92 1.435,1.47 0.367,2.6 0.704,0.11 0.244,0.44 0.008,1.3 0.543,0.59 0.09,1.23 0.393,0.26 -0.41,0.31 0.283,0.59 -0.099,-0.75 -0.304,-0.06 0.03,0.33 -0.582,-1.21 -0.674,-0.45 -1.148,-2.73"
       id="path190" />
  </g>
  <g
     id="g191">
    <path
       fill="none"
       stroke="#000000"
       stroke-width="4"
       stroke-linecap="round"
       stroke-linejoin="round"
       d="m -366.608,1543.87 -0.955,-2.43 -0.286,-2.73 -0.159,-0.27 -0.104,0.4 -0.128,-0.45 -0.039,-1.11 0.362,-0.36 -0.117,-0.49 -0.341,-0.41 -0.117,0.18 -0.12,-2.18 -0.565,-0.81 0.57,-0.06 -0.468,0.61 0.246,0.32 -0.133,0.62 0.999,6.12 1.032,4.01 1.122,10.26 1.922,11.16 4.733,23.49 2.54,19.26 0.35,-0.15 -0.215,-0.53 0.274,-0.2 -0.25,-0.4 0.224,-1.39 -0.227,0.28 0.221,-0.13 -0.409,-2.37 0.103,-1.6 -0.602,-3.82 -0.554,-1.23 0.087,-1.9 -1.022,-5.66 -0.626,-6.56 -0.648,-2.48 -0.346,-5 -1.285,-5.06 -0.615,-6.1 -0.947,-2.59 -1.152,-9.3 -1.582,-4.62 -0.227,-5.18 -1.202,-3.2 0.361,-1.03 -0.054,-3.07 -0.476,-0.78 0.753,-1.18 -0.465,-0.13 0.314,0.04 0.461,1 0.374,5.55 0.674,3.22 0.486,8.7 0.828,5.37 1.303,13.28 1.231,5.78 0.183,2.74 1.34,7.13 1.716,7.02 1.403,7.77 1.488,3.33 0.681,6.68 0.341,0.26 1.45,7.47 0.689,1.95 0.603,6.86 0.231,-2.59 0.523,-0.99 -1.454,-12.35 -0.087,-4.89 -3.277,-18.27 -0.399,-3.61 -6.409,-21.86 -0.67,-4.27 -2.516,-7.62 -0.513,-3.32 -1.2,-4.34 -0.979,-1.46 -0.093,-2.19 -0.008,0.54 -0.42,-0.04 0.669,0.73 0.181,0.58 -0.338,0.31 1.145,1.86 0.127,1.53 0.984,2.51 1.463,5.77 -0.14,2.44 0.351,2.63 1.023,2.72 0.592,2.9 2.434,15.54 2.39,10.5 0.395,4.56 2.938,9.88 0.402,3.39 1.52,6.65 1.033,9.47 0.804,1.36 0.274,1.56 -0.386,1.55 0.391,4.24 0.6,2.68 0.382,5.91 0.798,1.97 -0.518,3.54 -0.353,0.66 0.061,1.42 0.276,-0.84 -0.006,0.62 -0.04,-1.85 0.378,-0.81 -0.038,-2.09 1.611,-7.58"
       id="path191" />
  </g>
  <g
     id="g192">
    <path
       fill="none"
       stroke="#000000"
       stroke-width="4"
       stroke-linecap="round"
       stroke-linejoin="round"
       d="m -452.142,1523.51 -2.162,-0.04 -0.351,-0.25 -0.874,0.27 -0.107,-0.84 -0.044,0.3 0.479,0.2 0.037,-0.37 0.041,0.23 0.879,0.11 -0.272,0.13 0.168,-0.23 -0.054,0.51 -0.287,-0.07 0.323,0.27 0.506,-0.1 2.107,0.88 h 1.068 l 0.938,0.57 1.462,-0.14 1.181,0.26 2.555,-1.24 0.008,-0.8 -0.092,0.41 -0.467,-0.86 -0.062,0.8 -0.427,0.25 -0.053,-1.85 -0.49,1.27 0.201,0.37 -0.406,-1.27 -0.288,1.06 -0.646,0.29 -0.758,-1.44 -0.362,0.57 -0.866,0.05 -1.739,-0.51 -1.608,0.12 -0.715,-0.55 -1.679,0.17 -0.321,0.43 -0.527,-0.38 -1.333,0.09 -0.297,0.49 -1.067,-0.21 0.28,1.05 0.003,-0.5 -0.978,-0.03 0.455,0.12 0.14,0.52 0.396,-0.62 -0.685,-0.01 0.54,-0.12 0.765,1.54 0.136,-0.78 0.424,-0.12 -0.215,-0.18 0.889,0.41 2.505,-0.3 0.74,0.63 2.497,0.37 2.373,-0.1 3.361,-0.82 2.659,-1.14 -0.003,-0.3 0.906,-0.59 -0.388,-0.06 -0.004,-0.32 -0.578,-0.21 -0.598,0.38 -0.522,-0.24 -0.002,-0.6 -0.119,0.58 -1.05,-0.65 -0.813,0.27 -0.387,-0.38 -2.127,-0.67 -1.042,0.21 -2.348,-0.43 -1.188,0.55 -0.525,-0.28 -2.168,-0.03 -0.797,0.67 -1.512,0.14 -0.595,0.7 -1.457,0.43 -0.213,0.44 0.275,0.15 -0.019,-0.54 0.132,0.58 1.089,0.28 0.183,-0.89 1.205,1.34 0.674,-1.25 0.358,1.2 1.019,0.35 0.601,-1.17 0.638,1.08 1.531,0.58 1.05,-1.05 0.492,0.45 1.337,-0.17 0.603,0.43 0.678,-0.03 1.531,-1.34 1.276,-0.13 0.867,-0.81 0.157,-0.63 1.192,-0.48 0.418,-0.61 -0.223,-0.3 0.25,0.58 0.123,-0.49 -0.839,-0.1 -0.585,-0.58 -2.511,-0.89 -0.885,0.18 -2.423,-0.49 -0.989,0.49 -0.5,-0.3 -1.693,0.1 -3.323,0.82 0.309,0.29 -0.661,0.17 -0.718,0.88 -0.145,-0.31 -0.314,0.24 -0.033,0.56 -0.078,-0.25 0.381,-0.12 -0.038,1.11 0.457,-0.99 0.278,0.68 0.043,-0.37 0.813,0.02 0.468,0.47 1.419,0.42 0.743,0.77 1.711,0.03 0.827,0.38 3.311,-0.31 2.018,-0.84 0.759,0.2 1.675,-1.41 0.535,-0.08 -0.274,-1.09 -0.281,0.53 0.26,0.08 -0.536,0.19 -0.11,-0.82 -0.416,0.88 -0.15,-0.77 -0.192,0.08 -0.059,0.76 -0.219,-0.24 0.326,-0.02 -0.472,0.01 -0.62,-1.24 -0.881,0.43 -1.207,-1.01 -2.78,0.72 -1.231,-1.16 -0.481,0.67 -2.591,0.82 -1.373,1 -0.493,-0.54 -0.167,0.41 -1.206,0.52 0.328,0.07 -0.078,0.59 -0.898,-0.03 0.411,0.39 -0.04,0.39 0.189,-0.28 -1.398,0.05 0.776,-0.05 0.296,0.92 0.435,-0.53 -0.152,-0.4 0.909,-0.32 0.947,0.43 0.708,-0.42 1.504,0.74 1.482,0.3 6.161,-0.59 8.657,-2.92 1.703,-1.19 -0.271,-0.08 -0.074,0.37 -0.339,-0.29 -0.671,0.11 -0.327,0.64 -0.325,-0.33 -0.304,1.42 0.025,-0.76 -1.044,-0.5 -0.045,0.45 -0.699,-0.74 -1.22,-0.59 -0.971,0.74 -0.773,-0.6 -1.373,-0.09 -1.059,0.75 -3.005,-0.35 -1.162,0.92 -0.617,-0.21 -2.646,0.24 -2.21,0.84 -1.491,1.31 -1.916,0.76 -0.477,-0.21 -0.391,0.46 0.46,0.33 -0.567,-0.52 -0.131,0.61 0.482,0.08 -0.355,0.65 1.135,-0.11 -0.427,-1 0.014,-1.08 0.058,1.24 0.74,0.44 -0.15,0.21 0.316,-0.66 -0.121,1.34 0.507,0.23 0.743,-0.51 0.314,0.8 1.449,0.79 3.333,0.22 2.644,-0.66 2.098,0.04 3.76,-1.95 0.108,0.2 0.202,-0.33 -0.712,0.05 -0.148,0.29 0.044,-0.24 -0.547,-0.08 -0.086,0.28 0.072,-0.31 -0.781,-0.11 0.086,-0.4 -0.281,-0.09 0.224,-0.09 -1.405,-0.91 -1.895,-0.04 -1.114,-0.43 -2.83,0.91 -1.359,-0.49 -1.709,0.18 -1.025,0.44 -1.941,-0.04 -0.457,0.86 -0.528,0.23 -0.248,-0.53 -0.92,-0.03 -0.252,0.53 -0.312,-0.33 0.276,-0.08 -0.132,0.69 -0.081,-0.53 0.195,-0.06 -0.018,0.75 0.072,-0.4 0.631,-0.27 0.307,0.66 0.758,-0.28 0.485,0.4 h 1.563 l 0.82,0.33 2.047,-0.38 0.791,0.3 1.502,-0.31 0.988,-0.99 0.426,0.39 1.405,-0.13 0.585,-0.99 1.484,0.45 -0.127,-0.92 -0.42,0.46 0.212,0.21 -0.304,0.08 -0.083,-0.87 -0.339,0.56 0.333,0.32 -0.119,-0.56 -0.036,1.05 0.968,2.01"
       id="path192" />
  </g>
  <g
     id="g193">
    <path
       fill="none"
       stroke="#000000"
       stroke-width="4"
       stroke-linecap="round"
       stroke-linejoin="round"
       d="m -449.62,1587.08 -0.163,-0.38 -1.052,1.24 -0.13,-0.86 -0.331,-0.27 -0.205,0.73 0.199,0.21 -0.088,-0.41 -0.017,0.47 0.59,0.04 -0.168,0.23 0.125,-1.07 -0.052,0.44 0.513,0.03 -0.031,0.22 0.319,-0.22 -0.098,0.26 -0.033,-0.31 -0.592,-0.13 0.497,0.53 -0.059,-0.41 0.595,-0.26 0.379,0.25 0.268,-0.23 -0.436,-0.1 0.152,-0.15 0.702,-0.08 0.362,0.69 0.606,0.2 0.789,-1.05 3.514,-1.27 h 2.345 l 1.138,-0.84 1.216,-0.37 -0.629,0.01 0.339,-0.87 -0.194,0.42 0.294,0.13 -0.891,0.03 -0.905,0.66 -0.574,-0.07 -0.388,0.6 -0.392,0.17 -0.301,-0.46 -1.268,-0.07 -1.166,1.07 -2.231,-0.9 -0.6,-0.02 -1.495,0.71 -0.551,-0.33 -2.106,0.18 -2.431,0.91 -0.85,1.42 -0.219,-0.36 -0.958,0.13 -0.548,1.03 -0.066,0.92 0.25,-0.37 -0.318,0.09 0.345,0.35 0.387,-0.29 0.416,0.61 0.52,-0.02 -0.193,0.21 0.535,-0.64 0.762,1.1 0.55,-0.46 0.551,0.79 1.073,0.46 0.684,-0.76 0.244,0.47 1.692,0.25 0.706,-0.83 1.422,0.47 1.58,-0.74 1.506,-0.18 0.441,-0.21 0.271,-0.91 1.186,-0.02 -0.331,0.06 -0.313,-1.13 -0.434,0.6 0.408,0.29 -0.681,-0.18 -0.592,0.48 0.722,0.2 -0.811,0.59 -1.104,-0.17 -0.526,1.06 -0.129,-0.6 -0.669,-0.27 -0.816,-0.07 -0.366,0.29 -0.721,-0.54 -2.04,-0.26 -0.768,0.35 -1.361,-0.14 -0.321,0.36 -2.322,0.62 0.198,0.21 -0.096,-0.41 -0.069,0.74 -0.493,0.59 -0.027,-0.52 0.29,0.8 -0.824,0.26 0.562,-0.03 0.095,0.44 0.628,0.09 -0.487,0.22 1.826,0.69 0.403,-0.49 1.739,1.01 0.74,0.92 0.365,-0.27 1.959,0.1 0.268,1.02 0.466,0.13 0.494,-0.85 1.386,-0.19 1.052,0.82 1.468,-1.62 1.108,-0.67 0.474,0.84 0.628,-0.03 1.141,-2.31 0.411,0.05 0.215,0.46 0.151,-0.26 0.182,-0.59 -0.248,-0.73 -0.25,0.34 -0.398,-0.23 -0.255,0.53 -0.843,-0.29 0.104,-0.2 -0.387,0.34 -1.607,-0.52 -0.237,-0.37 -2.943,-0.25 -1.077,-0.47 -2.806,0.22 -0.403,-0.88 -0.712,-0.11 -0.495,0.71 -1.38,0.56 -1.141,-0.93 -0.929,1.43 0.415,0.29 -0.196,0.4 -0.877,0.31 -0.22,-0.8 -0.505,0.03 -0.31,0.88 0.31,0.81 -0.272,0.27 -0.247,-0.77 -0.255,0.05 -0.563,1.27 1.091,0.18 -0.622,0.33 -0.049,-0.62 0.045,0.52 0.395,-0.08 -0.13,-0.2 0.765,0.07 -0.138,0.18 0.153,-0.23 0.987,0.58 1.728,0.41 0.619,0.52 1.931,-0.33 1.212,0.3 1.109,-0.85 2.093,-0.31 0.528,-0.56 0.652,-0.15 -0.341,-0.35 0.083,-0.37 0.985,-0.25 0.706,0.35 0.575,-0.14 0.432,-0.6 0.053,-0.92 0.54,-0.3 0.114,-0.51 0.176,0.14 -0.749,0.04 0.108,-0.86 -0.478,0.76 -0.196,-0.81 -0.206,0.73 -0.712,0.17 -0.617,-1.19 -0.353,0.27 -1.103,-0.28 -0.413,0.48 -0.502,-0.08 -0.367,-0.62 -0.678,-0.27 -0.533,-0.18 -1.027,0.37 -1.374,-0.84 -0.736,-0.08 -1.11,0.62 -1.316,-0.5 -0.625,1.17 -0.996,-0.44 -0.213,0.88 -0.362,0.31 0.116,-0.5 -0.421,0.07 -0.084,0.56 -0.118,-0.3 0.294,-0.16 0.108,1.52 0.254,-0.89 -0.483,-0.16 0.358,0.68 0.311,-0.46 -0.479,0.04 0.628,-0.32 0.444,1.02 0.525,-0.4 -0.459,-0.03 0.86,-0.27 1.016,0.52 0.501,-0.37 0.946,1.07 5.094,-1.02 1.099,-1.04 2.001,-0.46 0.187,-1.19 -0.042,0.31 0.394,0.09 -1.293,0.44 -0.135,-0.85 -0.428,-0.34 -0.22,0.54 0.44,0.36 -0.861,-1.08 -0.943,0.66 0.043,0.26 -3.435,0.28 -3.196,0.88 -1.089,1.12 -1.248,0.25 -0.353,0.35 0.67,0.01 -0.396,-0.13 0.638,-0.65 -0.02,0.28 0.611,0.06 1.08,-0.69 1.313,0.56 1.096,-0.45 2.515,0.09 1.716,-1.29 0.657,0.4 1.569,-0.2 2.386,-0.86 2.649,-0.21 2.851,-1.19"
       id="path193" />
  </g>
  <g
     id="g194">
    <path
       fill="none"
       stroke="#000000"
       stroke-width="4"
       stroke-linecap="round"
       stroke-linejoin="round"
       d="m -388.494,1524.08 -0.397,-0.8 0.113,0.44 0.018,-0.35 0.342,-0.11 -0.268,-0.21 0.182,-0.35 0.693,0.24 -0.264,0.07 -0.112,-0.73 -0.513,0.86 -0.213,-1.62 -0.333,1.14 -0.412,-0.26 -1.549,0.46 -0.636,-0.9 -0.251,0.44 -0.661,-0.12 -0.732,0.46 -0.284,-0.39 -1.184,-0.09 -0.194,0.74 -0.381,-0.59 -0.755,-0.33 -0.487,1.17 -0.168,-1.03 -0.27,-0.1 -0.196,0.69 -0.083,-0.79 -0.109,0.7 0.045,-0.51 0.427,-0.07 -0.224,-0.32 -0.042,0.29 1.005,-0.04 -0.231,0.05 0.278,0.34 h 1.51 l 0.786,0.58 1.146,-0.03 1.786,0.51 3.584,0.04 0.321,-0.28 -0.434,-0.09 0.461,-0.03 -0.071,-0.28 -0.653,0.17 0.189,0.72 -0.208,0.31 0.142,-0.52 -1.007,-0.24 0.362,-0.25 -0.441,-0.42 -0.255,0.22 -1.484,-0.43 -0.843,-0.56 -3.332,-0.18 -3.773,0.43 -1.855,0.99 -3.438,0.8 -1.098,0.71 -1.654,0.54 -0.14,-0.34 -0.152,0.64 0.41,0.15 0.169,-0.53 0.551,0.36 0.403,-1.26 0.05,0.6 0.545,0.5 0.511,-1.5 1.271,2.05 0.454,-0.78 0.66,-0.28 0.403,1.11 1.001,0.37 1.208,-0.91 1.255,0.53 1.612,0.11 1.215,-0.7 2.658,-0.39 1.782,-0.91 0.42,-0.54 1.37,-0.3 2.209,-1.4 0.233,-0.64 0.415,-0.11 -0.663,-0.33 0.049,1.06 -0.105,-1.04 -0.324,1.29 -0.102,-0.87 0.554,-0.34 -0.141,-0.38 -0.496,-0.29 -0.304,0.68 -0.235,-0.46 0.182,-0.97 -1.961,-1.49 0.301,-0.2 -0.244,-0.29 -2.431,-0.11 -1.1,-0.56 -1.482,-0.21 -2.338,0.14 -3.089,0.82 -2.811,1.54 -3.127,2.96 0.622,0.3 -0.332,-0.17 -0.132,0.4 0.496,0.01 0.138,0.5 0.505,0.04 0.025,-0.54 0.757,1.34 -0.308,-0.28 0.019,0.28 1.462,0.36 -0.353,0.15 1.424,0.14 0.761,0.6 1.051,-0.35 h 1.746 l 1.253,-0.77 2.483,-0.62 2.433,-1.13 1.113,-0.09 1.644,-0.95 0.645,-0.72 0.805,-0.25 0.087,-0.71 -0.445,0.36 -0.554,-1.1 -0.127,0.31 0.263,0.07 -0.481,0.11 -0.328,-1.59 -0.48,0.8 -0.372,-1.71 -0.459,1.16 -1.053,0.57 -0.56,-1.78 -0.04,1 -1.24,0.89 -0.485,-0.58 -0.522,1.06 -0.982,0.71 -0.043,0.49 -0.463,-0.34 -0.225,0.55 -1.162,0.77 -0.078,0.92 -0.731,0.54 -0.061,0.71 0.613,-1.09 0.506,1.03 0.606,0.01 0.466,1.03 0.19,-0.45 0.802,-0.17 0.554,0.37 1.631,-0.08 0.363,0.45 0.252,-0.24 2.008,0.06 1.006,-0.29 0.656,-0.54 1.755,-0.22 1.037,-0.82 -0.372,-0.09 0.283,-0.17 0.008,0.42 -0.04,-0.25 -0.593,0.02 0.299,-0.15 -0.127,0.25 -0.376,-0.46 -0.784,0.13 0.357,-0.17 0.118,0.43 -0.569,0.28 0.198,0.63 -0.837,0.89 0.163,1.55 -1.372,7.82 -0.033,7.11 -0.431,3.09 0.578,5.84 0.772,2.89 0.568,5.16 0.873,4.69 0.21,-0.17 0.168,0.63 0.732,5.43 0.155,-0.29 0.216,0.27 0.757,8 0.795,1.59 -0.925,3.15 -0.538,0.15 0.229,-0.07 -0.019,0.25 0.079,-0.44 -0.344,-0.4 0.366,0.44 0.338,-1.16 0.02,1.04 0.331,-1.59 -1.048,-1.03 0.024,-2.15 -0.724,-2.99 -0.268,0.1 -0.107,-0.52 0.403,-2.8 -1.42,-3.46 0.006,-4.27 -1.147,-5.73 0.695,-1.02 0.053,-1.01 -0.658,-0.88 -0.226,-1.45 0.502,-2.61 -0.313,-3.64 0.451,-0.77 -0.289,-0.77 -0.128,0.28 0.707,0.42 -0.513,0.82 0.59,0.58 -1.052,1.36 0.785,1.38 -0.405,0.76 -0.357,4.26 0.438,3.55 -0.849,11.38 0.353,1.78 0.167,8.15 1.156,6.32 -0.126,1.9 0.451,0.91 0.502,2.83 -0.204,1.17 0.476,1.19 0.419,3.3 -0.177,0.99 0.251,0.14 0.128,-2.2 -0.492,-0.91 -0.231,-4.79 -0.682,-3.95 -1.108,-4.04 -0.275,-3.21 -0.206,0.27 -0.252,-0.51 -0.522,-2.84 -0.824,-0.62 -0.081,-1.38 0.017,0.41 -0.58,-0.1 0.323,0.2 -0.418,0.13 0.398,0.8 -0.427,0.08 h 0.273 l 0.251,0.99 -0.175,0.58 0.801,3.23 -0.037,1.79 0.785,4.34 -0.22,1.52 1.149,3.2 0.371,2.18 0.631,0.02 -0.445,0.24 0.137,0.5 0.558,-0.04 -0.343,-0.07 -0.134,0.67 -0.112,-0.25 0.893,0.12 -0.799,-0.13 0.256,-0.14 -0.214,-0.36 -0.173,0.43 -0.109,-0.18 1.047,0.05 -0.48,-0.02 -0.097,0.28 -0.453,-0.23 -0.095,0.33 -0.149,-0.17 0.361,-0.07 -0.142,0.27 -0.193,-0.16 0.371,-0.11 -0.171,0.28 -0.112,-0.23 0.357,-0.04 -0.022,-0.57 -0.149,-0.26 0.006,0.25 -0.467,0.08 0.416,0.01 -0.052,-0.57 -0.284,0.41 0.212,0.29 -1.374,0.31 h 0.664 l 0.425,0.66 0.589,-0.05 -0.246,0.18 0.565,3.14 -0.269,0.7 -0.044,-0.71 -0.008,1.29 0.021,-0.94 0.034,0.62 0.215,-0.03 -0.261,0.09 -0.077,-0.91 -0.033,0.63 0.439,-0.11 -0.344,-0.48 -0.24,0.35 -0.192,-0.92 -0.072,0.77 -0.069,-0.25 -0.573,0.04 0.079,0.75 -0.142,-0.63 -0.843,-0.26 -0.227,1.17 0.02,-1.06 -1.992,-0.93 -0.29,0.5 -0.505,-1.39 -1.571,-1.07 0.035,-0.47 -0.248,0.7 -0.416,-2.39 -1.669,-1.85 -0.354,-1.56 -1.207,-2.12 -0.266,0.17 -0.256,-0.25 -0.061,-1.49 -1.022,-0.63 0.021,-0.54 -0.775,-0.16 -0.242,-0.59 -0.217,0.08 h 0.458 l -0.521,0.32 0.176,0.4 0.425,0.06 -0.2,0.24 h 0.719 l -0.525,0.08 -0.029,-0.52 0.092,0.27 0.667,0.07 0.113,0.23 -0.412,-0.17 -0.089,0.45 0.957,0.54 -0.188,0.37 0.738,1.54 1.245,1.26 1.292,2.63 1.39,1.14 1.192,2.7 0.449,-0.16 0.476,0.87 2.077,1.76 1.159,0.47 0.512,0.54 0.772,-0.09 0.114,0.25 -0.328,-0.08 0.019,-0.34 -0.436,0.25 -0.252,-0.21 0.255,-0.27 -0.459,-0.11 0.311,-0.77 -0.088,0.35 0.209,-0.1 -1.001,-1.52 -1.544,-0.89 -0.266,-1.69 -0.661,-1.1 -0.442,0.45 -0.596,-0.4 -1.457,-3.12 -1.073,-0.1 -1.439,-1.32 -1.05,-2.91 -0.473,0.35 -0.84,-0.4 -1.63,-2.68 -1.593,-1.37 -2.385,-2.91 -0.446,-1.1 0.508,-0.36 -0.35,0.11 -0.018,0.44 -0.259,-0.29 0.297,0.7 -0.596,-0.1 0.412,0.46 0.11,0.93 0.298,-0.43 -0.289,0.06 0.441,0.1 0.78,2.14 0.291,-0.35 0.466,0.29 0.032,1.06 1.166,2.15 1.188,1.2 0.577,1.46 0.622,0.56 0.998,1.86 1.399,0.79 1.546,2.71 1.827,1.16 0.97,1.42 1.537,0.55 -0.032,0.58 1.105,0.08 -0.222,0.3 -0.125,-0.32 0.49,-0.02 -1.172,-0.8 0.489,0.08 -0.261,-0.49 -0.351,0.09 0.326,-0.1 -0.206,-0.76 -0.258,-0.1 -0.077,0.28 -0.486,-0.39 -1.786,-3.09 -1.519,-1.26 0.05,-0.61 -1.947,-2.27 -2.604,-3.83 -1.678,-1.37 -0.676,-1.45 -1.605,-1.55 -1.423,-2.14 -5.996,-5.19 -0.203,-0.56 -0.22,0.83 0.716,0.8 0.286,-0.28 0.516,1.03 0.169,-1.11 0.305,-0.15 0.155,1.17 1.212,1.57 0.637,-0.54 2.678,4.66 0.397,-0.38 0.551,0.12 0.374,1.33 -0.21,0.77 1.292,1.18 0.325,0.89 0.955,0.58 0.264,0.73 1.693,1.2 1.66,-0.04 0.349,0.73 0.498,0.25 0.693,-0.51 0.498,0.69 0.3,-0.43 -0.172,0.15 0.229,0.01 0.483,1.49 0.092,-0.57 0.226,0.07 -0.148,0.17 1.415,1.32"
       id="path194" />
  </g>
  <g
     id="g195">
    <path
       fill="none"
       stroke="#000000"
       stroke-width="4"
       stroke-linecap="round"
       stroke-linejoin="round"
       d="m -401.489,1625.78 -0.134,-0.57 -0.457,-0.23 0.015,0.27 -0.424,-0.81 0.158,-0.22 -0.074,1.43 0.241,-0.97 -0.697,-0.72 0.299,0.95 0.252,-0.81 -0.497,-0.48 0.194,-0.18 0.129,0.79 0.212,-0.91 -0.428,-0.5 -0.002,0.3 -0.002,-0.61 -1.143,-1.68 -3.725,-2.28 -9.662,-2.31 -7.018,-0.41 -1.806,0.88 -3.031,0.25 -2.664,1.49 -0.875,-0.23 -0.835,0.28 -1.681,1.53 0.224,0.65 -0.269,0.72 -1.159,0.67 -2.297,2.79 -2.402,4.44 -1.414,4.42 -0.057,2.81 -1,6.48 -0.061,6.44 0.457,5.31 0.441,1.59 3.314,8.26 0.806,1.15 1.108,0.99 0.972,0.2 0.877,0.59 0.788,1.29 1.638,1.65 1.034,0.65 3.159,1.08 2.078,1.54 1.2,0.19 2.558,-0.25 1.117,0.39 3.778,0.1 4.781,-1.17 3.726,-1.66 8.834,-5.08 1.034,-0.03 1.161,-0.71 1.172,-1.57 5.199,-4.24 3.099,-3.4 0.759,-0.61 0.412,0.71 0.62,-0.32 1.199,-3.89 0.724,-0.08 0.378,-2.08 -0.19,-1.01 0.411,-3.35 -1.094,-3.79 -0.998,-2.26 -1.562,-1.69 -0.098,-0.76 -0.955,-0.79 -1.094,-2.31 -1.006,-0.92 -0.747,-0.97 -0.276,-0.98 -1.273,-1.14 -2.711,-3.53 -0.388,-0.97 -1.525,-0.78 -1.37,-2.42 -5.9,-3.98 -3.862,-1.62 -2.051,0.3 -1.792,-1.04 -3.305,-0.54 -4.968,0.68 -2.255,1.33 -0.029,0.41 -1.947,0.92 -5.156,5.99 -1.708,3.43 -0.962,1.12 -0.938,3.13 -1.104,1.74 -1.787,5.05 -2.243,12.09 0.714,3.63 -0.533,3.33 0.262,3.35 1.372,3.33 0.87,4.42 1.069,2.26 2.163,1.85 1.239,2.01 7.682,3.34 10.511,-1.28 3.528,-1.19 2.79,-2.1 1.307,-0.15 3.935,-2.34 2.27,-2.34 2.248,-1.36 2.694,-2.79 1.713,-3.67 0.547,0.15 1.22,-1.98 0.758,-2.43 0.554,-0.63 0.493,-4.41 -0.932,-4.17 -0.926,-1.64 -1.202,-3.5 -1.105,-1.55 -0.565,-1.96 -0.769,-0.7 -2.43,-4.66 -5.307,-7.06 -1.358,-2.5 -1.095,-0.2 -1.017,-0.91 -0.967,-1.7 -3.993,-2.75 -2.241,-0.23 -2.256,-1.66 -3.624,-1.55 -0.954,1.08 -1.114,0.1 -0.947,-1.33 -3.842,-0.86 -1.815,0.81 -1.843,-0.36 -2.165,0.8 -2.354,1.58 -2.338,1 -2.314,1.7 -5.809,7.05 -3.695,10.76 -0.591,8.26 0.209,2 -0.603,3.92 1.042,3.77 2.911,8.07 1.154,0.37 0.999,0.98 0.952,1.98 1.544,1.39 1.499,2.19 3.07,0.72 2.775,2.24 3.566,1.25 0.909,0.65 2.617,-0.2 1.307,0.8 4.564,0.41 8.012,-1.33 3.033,-1.46 3.457,-2.25 3.655,-2.81 4.455,-4.01 4.652,-6.16 2.25,-4.32 0.077,-1.17 -0.68,-1.29 0.254,-0.67 -0.458,-2.07 -1.121,-1.97 -1.976,-4.91 -1.97,-2.24 -0.239,-1.1 -1.256,-2.29 -4.336,-5.94 -2.131,-3.57 -5.03,-4.54 -1.121,-2.16 -1.415,-1.6 -1.219,0.1 -1.169,-0.59 -4.61,-3.64 -2.441,0.8 -3.448,0.6 -1.234,-0.46 -1.189,0.15 -4.13,2.67 -2.294,0.59 -6.408,7.17 -1.719,2.9 -1.381,3.13 -2.291,6.98 -0.093,3.32 -0.757,6.15 0.14,2.95 1.257,3.53 0.58,4.21 1.132,3.02 1.806,3.05 1.692,3.87 1.159,1.37 1.106,0.76 0.463,0.95 2.98,1.67 1.17,1.54 1.38,1.11 9.301,2.22 4.546,-0.05 4.085,-0.93 2.907,-1.68 4.625,-3.39 3.973,-5.13 0.526,-1.26 0.994,-1.24 0.368,-1.43 -0.106,-1.27 0.792,-5.56 -0.84,-4.83 0.405,-1.01 -1.032,-2.29 -0.184,-1.85 -0.888,-2.12 -0.75,-3.54 -1.129,-3.08 -1.173,-2.13 0.229,-1.18 -0.363,-1.26 -1.23,-1.11 -1.785,-2.95 -1.515,-1.37 -0.252,-0.81 -2.248,-3.32"
       id="path195" />
  </g>
  <g
     id="g196">
    <path
       fill="none"
       stroke="#000000"
       stroke-width="4"
       stroke-linecap="round"
       stroke-linejoin="round"
       d="m -341.758,1670.58 -0.24,-1.35 0.599,-0.36 3.107,-0.69 8.276,-0.69 4.238,-0.78 2.154,-1.19 -0.184,-0.46 -1.931,0.04 -0.35,0.42 -0.724,-0.4 -1.947,-0.24 -1.142,0.69 -0.707,-0.41 -2.358,-0.11 -0.819,0.8 -0.971,0.29 -0.812,-0.48 -3.227,0.1 -1.483,0.96 -2.646,-0.48 -1.542,0.11 -1.5,0.88 -0.696,-0.42 -1.577,-0.07 -0.874,0.06 -0.936,0.81 -1.697,-0.3 2.936,1.52 1.505,0.37 0.803,-0.71 2.907,1 1.056,-0.67 0.897,0.57 1.435,0.11 0.526,-1.01 0.57,0.52 1.26,0.06 0.309,-0.66 -0.02,0.33 0.292,-0.03 0.011,-0.64 -1.798,0.2 -1.357,-0.32 -5.731,-0.02 -3.352,0.19 -2.089,0.58 -4.781,-0.6 1.229,-0.3 0.835,0.91 0.435,-0.31 0.221,0.46 2.646,1.84 1.07,0.54 1.813,0.14 0.473,0.7 0.643,0.19 0.45,-0.54 1.396,-0.35 1.222,0.48 2.335,-1.28 0.271,0.39 0.386,-0.02 0.616,-1.59 -0.427,-0.08 -0.07,-0.37 -0.253,0.2 -0.823,-1 -1.616,-0.75 -0.855,0.43 -0.903,-0.87 -1.66,-0.31 -8.15,0.04 -0.851,0.41 -0.312,-0.16 -0.395,0.4 2.726,0.08 0.59,-0.45 0.611,0.36 3.558,0.1 0.911,-0.53 1.428,0.14 4.407,-1.14 0.102,-0.72 0.508,-0.59 -0.61,-0.43 -0.012,-0.76 -0.923,-0.38 -0.579,-0.76 -2.813,0.23 -0.796,-0.43 -0.878,-0.01 -3.603,1.24 -1.486,-0.06 -2.88,1.73 -0.471,-0.37 -0.494,0.09 -1.083,1.48 -0.616,0.09 -0.471,0.89 0.277,-0.25 0.934,0.84 0.592,-0.16 0.599,0.48 h 1.391 l 0.291,1.08 0.508,0.29 0.768,-1.29 1.026,0.44 0.579,-0.17 0.427,-0.91 1.241,-0.5 0.406,0.83 0.575,0.05 0.414,-0.97 0.581,-0.32 0.045,-0.73 1.101,0.34 0.808,-1.63 0.802,-0.23 0.398,-0.46 -2.116,0.42 -2.233,-0.26 -6.295,1.04 -0.6,0.38 -0.92,0.1 -0.968,-0.34 -1.039,0.7 -1.02,-0.57 -0.591,0.34 0.182,0.18 -1.281,-0.05 -0.325,0.59 -0.298,-0.54 -0.129,0.35 0.598,0.26 -0.336,0.04 0.06,0.42 0.4,-0.06 -0.018,-0.33 0.831,-0.11 6.743,-3.68 1.244,-1.29 2.582,-1.64 0.361,-0.81 0.744,-0.35 0.97,-1.24 1.445,-0.7 0.373,-1.05 -0.282,-1.06 -0.327,-0.3 -0.315,0.66 -0.582,-1.19 -0.412,0.89 -0.766,0.25 -0.314,-0.64 -0.508,0.03 -0.343,0.67 -1.455,0.79 -1.04,-0.12 -3.813,3.48 -0.533,1.37 -0.914,1 -0.316,1.53 -0.501,0.07 0.154,1.46 -0.285,0.19 0.433,0.46 0.106,0.79 0.326,-0.25 -0.286,-0.04 0.604,-0.07 0.485,1.06 0.327,-0.72 -0.339,-0.44 0.633,0.41 0.525,-0.82 -0.357,-0.3 0.067,-0.4 1.278,-0.33 0.359,-0.77 0.805,-0.57 0.064,-1.16 1.82,-2.6 1,-3.02 0.662,-0.61 0.126,-1.31 0.713,-1.44 0.747,-0.65 0.19,-0.8 0.727,-0.43 -0.867,0.1 0.046,0.56 -0.87,0.79 0.513,0.58 -0.58,0.39 -0.172,-0.2 -0.703,2.33 0.21,1.61 -0.422,0.79 -0.509,2.65 0.642,3.79 -0.29,0.64 0.122,0.61 0.47,0.48 0.578,1.95 1.309,1.75 -0.048,0.36 1.335,0.69 1.232,0.07 3.882,1.35 1.179,0.64"
       id="path196" />
  </g>
  <g
     id="g197">
    <path
       fill="none"
       stroke="#000000"
       stroke-width="4"
       stroke-linecap="round"
       stroke-linejoin="round"
       d="m -287.36,1670.51 -0.287,-3.45 -1.412,-0.4 -0.55,-0.79 -0.263,0.31 -1.002,-0.08 -0.566,-0.55 -1.812,0.2 -0.615,-0.49 -1.825,0.37 -0.726,-0.27 -2.52,0.63 0.015,0.76 0.066,-0.56 0.403,0.71 0.423,-0.38 0.368,1.28 0.163,-0.53 0.418,-0.09 0.343,1.08 0.596,-0.23 3.44,1.19 1.692,0.23 3.248,-1.04 0.824,-0.87 -0.398,-0.69 -0.895,-0.43 -1.42,0.22 -0.659,-0.45 -1.172,0.42 -3.75,-0.21 -3.646,0.69 -1.688,0.99 -1.873,0.3 -1.115,0.72 0.376,0.72 2.815,1.9 2.689,1.01 1.716,0.25 4.862,-0.31 1.167,-0.9 2.524,0.06 0.937,-1.62 0.265,0.55 0.797,0.1 0.227,-0.98 0.094,0.53 -0.279,0.03 0.215,-1.45 -0.009,0.39 -0.309,-0.1 -0.107,-0.54 -0.945,-0.16 -0.373,-0.58 -2.226,-0.04 -3.59,-0.65 -1.436,0.46 -3.677,-0.08 -1.296,0.69 -0.578,-0.35 -1.975,0.07 -0.771,0.67 -1.227,-0.22 -0.479,1.45 -0.068,-0.52 0.274,-0.1 -0.456,-0.09 0.165,0.35 0.604,-0.27 0.31,0.69 0.097,-0.29 0.758,-0.01 2.309,0.88 3.482,0.19 2.079,-0.07 3.452,-0.7 0.823,0.24 0.491,-0.55 h 1.467 l 0.931,-1.25 -0.646,-0.42 -1.1,-0.02 -0.616,0.32 -2.101,-0.86 -3.724,-0.36 -1.337,0.36 -3.362,-0.13 -2.614,0.92 -1.182,0.76 -0.021,-0.55 0.173,0.46 0.565,0.18 0.239,-0.32 0.906,0.47 0.615,-0.8 0.248,0.6 1.337,0.41 1.054,-0.62 1.371,0.39 1.424,-0.04 2.487,-1.14 0.766,0.26 1.948,-0.27 1.399,-0.88 2.731,-0.58 1.093,-1.48 0.377,0.31 0.907,0.01 0.494,-0.55 -0.976,-0.58 -0.367,1.21 0.204,-0.82 -0.604,-0.24 -0.269,0.55 -0.442,-0.69 -1.318,-0.5 -1.13,0.48 -0.816,-0.27 -3.302,0.52 -1.785,0.89 -0.772,-0.06 -3.924,1.29 -2.298,1.3 -2.049,1.9 2.937,1.33 2.639,0.21 1.298,0.49 3.518,-0.71 1.689,0.55 0.807,-0.63 2.259,-0.69 1.732,0.36 2.895,-1.39 1.702,-0.12 1.768,-1.04 0.598,0.22 0.968,-1.27 -0.551,-0.93 -1.579,-0.92 -3.965,-1.33 -4.55,-0.07 -2.192,-0.34 -5.279,0.9 -0.884,-0.76 -1.04,-0.1 -0.858,0.85 -2.099,0.89 -1.302,-0.87 -1.895,2.24 -0.406,0.23 -0.134,-0.8 -0.254,-0.07 -0.061,0.89 -0.434,0.34 0.428,0.43 0.148,-1.12 0.424,1.62 0.333,0.26 0.601,-0.33 0.471,1.16 3.746,1.08 6.685,0.55 3.876,-0.67 2.34,0.26 2.303,-0.96 0.502,0.74 0.607,0.19 0.408,-0.69 1.036,-0.67 0.609,0.26 1.019,-1.16 0.29,0.51 0.08,-0.46 0.589,-0.18 -0.287,-0.65 0.397,-0.09 h -0.64 l 0.159,-0.44 -1.053,-0.59 -3.992,-1.27 -5.618,0.33 -1.622,0.51 -1.39,-0.02 -3.166,0.96 -0.658,1.07 0.928,0.82 -0.072,0.45 1.568,1.12 1.978,0.29 1.124,1.27 0.608,-0.4 3.841,0.13 2.96,-0.31 1.05,0.33 2.142,-0.9 1.179,0.08 0.361,-0.74 -0.441,-1.71 -0.366,0.65 -0.411,-0.7 h -1.784 l -0.349,-1.04 -0.679,-0.52 -0.48,0.79 -1.1,0.28 -1.207,0.17 -1.364,-0.53 -1.654,0.84 -3.89,0.42 -0.528,0.53 -2.037,0.52 -0.3,0.52 -1.824,0.24 -0.143,0.6 0.282,0.02 0.331,1.02 0.664,-0.65 0.36,0.7 0.394,-0.6 2.63,0.15 8.25,-2.04 2.195,-0.76 1.443,-1.12 1.326,-0.42 0.385,-0.8 1.153,-0.51 0.725,-1.4 0.067,0.39 0.028,-0.79 -0.328,-0.24 -0.509,-2.21 -0.448,-0.39 -0.18,0.17 -1.9,-1.91 -0.179,0.16 -0.842,-1.49 0.05,-0.9 -0.759,-2.98 0.251,-0.36 -0.222,-0.59 -0.192,0.26 0.041,-0.48 -0.066,0.53 -0.392,0.14 0.179,0.41 -0.106,-0.81 0.071,1.21 -0.325,0.36 -0.818,3.79 -0.406,4.32 -0.497,1.36 0.573,4.93 -0.532,0.5 0.69,0.31 -0.311,-0.01 0.209,-0.07 0.052,0.49 0.232,-0.63 -0.441,-0.32 0.221,0.34 0.096,-0.66 -0.392,-0.75 0.787,-1.03 -0.036,-1.02 1.01,-4.61 0.512,-1.77 0.826,-1.42 0.136,-2.73 0.703,-1.62 0.526,-3.31 0.69,-0.99 -0.114,-0.46 0.935,-3.24 -0.036,-1.13 0.271,-0.16 -0.775,0.21 0.099,0.23 -0.919,0.92 -0.845,2.09 -1.113,1.45 -0.594,2.46 -1.006,1.54 -0.329,2.48 -0.067,-0.31 -0.423,0.43 0.18,1.31 -0.278,1.31 -0.063,-0.33 -0.474,0.37 -0.657,-0.59 -0.241,-4.83 -0.002,0.83 -0.52,0.14 0.268,0.32 0.067,-0.98 -0.141,1.11 -0.449,0.31 0.159,0.37 0.048,-0.59 0.187,1.06 -0.786,0.23 -0.162,0.52 0.303,0.25 -0.296,0.12 -0.308,1.25 -0.822,1.18 -0.587,2.06 -0.953,1.05 0.195,0.43 -0.616,2.42 0.691,3.05 0.395,-0.37 -0.407,-0.09 0.159,0.28 -0.038,-0.51 -0.04,0.77 0.013,-0.41 0.468,-0.36 -0.376,-0.11 -0.069,0.35 -0.869,-1.13 -0.137,0.25 0.394,-0.02 -0.737,0.27 -0.355,-0.23 -2.835,0.08 -3.737,1.24"
       id="path197" />
  </g>
  <g
     id="g198">
    <path
       fill="none"
       stroke="#000000"
       stroke-width="4"
       stroke-linecap="round"
       stroke-linejoin="round"
       d="m -350.24,1655.44 -0.582,-2 -0.554,-0.31 -1.139,1.91 0.03,1.05 -0.987,1.18 -1.255,6.66 0.346,3.27 0.739,0.96 0.353,-0.18 -0.738,-1.43 0.324,-0.12 -0.356,-0.15 -0.326,-3.71 0.334,-0.74 -0.704,-2.97 0.256,-1.04 -0.673,-2.78 0.096,-1.42 -0.687,-3.58 0.232,-0.8 -0.395,-2.82 0.299,-4.23 -0.197,-0.44 0.472,-0.78 -0.025,-1.7 0.108,0.21 -0.685,0.5 0.26,0.17 0.054,1.24 -0.419,0.65 -0.436,3.78 -0.783,2.1 0.185,1.08 -0.691,5.59 0.537,3.38 0.242,0.42 0.309,-0.03 0.614,2.25 0.224,0.13 -0.244,-0.38 0.464,-0.01 -0.606,-0.42 0.316,-1.05 -0.192,-1.04 0.664,-6.21 -0.318,-1.39 0.803,-4.74 0.662,-1.35 0.605,-2.7 -0.002,-1.84 0.613,-0.69 1.769,-7.93 -0.095,-0.57 -1.059,3.21 -0.756,5.92 -0.989,3.62 0.118,2.88 -0.66,3.52 -0.027,2.41 0.741,1.71 -0.364,0.15 0.03,1.73 0.685,1.15 -0.543,0.43 -0.429,1.39 0.229,0.7 -0.24,-0.35 -0.041,0.76 -0.383,0.33 0.329,0.31 -0.728,-0.08 0.415,-1.03 -0.221,-0.35 0.527,-0.95 -0.217,-1.13 0.747,-3.42 -0.562,-0.89 -0.021,-0.89 0.521,-0.66 0.554,-4.75 0.715,-1.41 0.481,-2.03 -0.48,-1.99 0.661,-0.93 1.187,-3.86 1.485,-6.52 0.415,-3.38 -0.355,-0.21 -0.821,5.01 -2.624,11.55 -0.141,6.67 0.681,5.95 0.346,0.87 -0.148,3.18 -0.178,0.72 0.089,-0.44 -0.272,-0.02 -0.062,-1.34 0.293,-0.3 -0.408,-1.01 0.133,-3.31 -0.398,-3.88 0.451,-1.65 -0.316,-0.85 0.086,-3.42 0.356,-5.97 0.666,-2.1 -0.169,-1.03 0.543,-4.58 0.704,-2.25 -0.033,-4.71 0.388,-1.91 -0.303,-0.91 0.015,-2.94 -0.125,0.41 -0.364,-0.06 0.173,0.39 -0.213,-0.35 -0.144,2.47 -0.42,0.52 -0.165,1.14 -0.841,1.14 -0.305,1.22 0.186,1.03 -1.406,6.5 -0.094,6.59 -0.414,2.32 0.479,1.05 0.626,5.19 1.515,6.21 -0.448,0.62 0.39,0.95 -0.426,0.36 0.502,0.26 -0.291,0.04 -0.041,-0.28 -0.189,0.26 0.223,-0.91 0.497,-0.17 -0.304,-1.02 0.293,-0.54 -1.013,-23.67 0.963,-14 0.322,-7.78 -0.225,-1.78 0.218,-0.43 -0.396,-0.39 -0.124,2.08 0.296,0.41 -0.321,0.36 -0.751,3.05 -0.079,2.18 -0.69,1.13 -0.991,4.43 0.03,2.98 -0.936,4.22 -0.147,3.19 0.335,2.45 -0.278,0.79 0.022,2.99 0.518,1.78 0.089,3.02 0.392,0.92 -0.321,2.84 -0.143,-0.59 -0.266,0.32 0.156,-0.27 0.136,0.37 0.106,-0.3 -0.373,-0.49 0.496,-1.56 -0.679,-1.37 0.339,-0.77 -0.001,-2.37 -0.623,-5.79 -0.732,-1.51 -0.003,-1.66 -2.849,-19.14 -0.724,-2.67 0.105,-2.43 -0.459,-1.06 0.197,0.36 -0.229,0.78 0.52,0.71 -0.602,4.33 1.278,22.77 1.408,9.83 1.036,4.4 -0.13,0.83 0.685,1.5 0.265,-0.02 -0.196,-0.79 0.003,0.35 0.385,-0.32 -0.427,-0.91 0.609,-0.42 -0.417,-0.27 -0.025,-2.2 0.525,-1.49 -0.355,-3.21 0.349,-1.39 -0.381,-3.81 -0.433,-0.92 0.284,-1.63 -0.757,-4.75 -0.376,-6.35 -0.411,-1.02 0.199,-2.47 -0.235,-3.98 -0.372,-2.06 -0.094,-4.64 -0.489,-1.11 0.316,-0.5 -0.042,-0.94 h -0.545 l 0.645,1.13 -0.308,0.49 0.508,0.22 0.607,1.28 0.439,0.21 3.272,4.45 5.638,5.2"
       id="path198" />
  </g>
  <g
     id="g199">
    <path
       fill="none"
       stroke="#000000"
       stroke-width="4"
       stroke-linecap="round"
       stroke-linejoin="round"
       d="m -321.857,1570.29 -0.911,-0.02 -1.093,-0.61 -1.199,0.19 0.678,0.22 -0.305,-0.2 -0.219,0.29 -0.041,-0.34 -0.58,-0.21 -0.144,0.5 -0.58,-0.93 -0.383,0.92 -0.052,-0.6 0.296,-0.16 -0.207,-0.29 -0.214,0.56 0.155,-0.76 -0.21,0.22 -0.03,-0.55 -0.044,0.42 -0.06,-0.32 -1.933,0.58 -0.513,-0.34 -0.683,0.32 0.149,0.18 -0.319,-0.55 -0.259,0.59 0.225,-0.63 0.108,0.31 -0.345,0.06 0.383,0.08 0.382,-0.95 -0.071,0.68 0.43,0.09 0.463,-0.51 0.195,0.35 0.97,-0.24 1.27,0.21 0.643,-0.91 0.374,0.46 1.924,-0.25 -0.375,0.18 -1.108,-0.3 -0.658,0.48 -0.401,-0.53 -0.904,0.02 -0.823,-0.44 -1.526,0.4 -0.397,-0.52 -0.548,-0.1 -0.568,0.84 -1.032,0.51 -0.803,-0.67 -1.857,1.51 -0.497,-0.68 -0.021,0.73 0.503,-0.12 0.234,-0.42 0.437,0.23 0.24,-0.58 0.179,0.68 0.885,-0.18 0.522,0.52 0.264,-0.31 1.081,0.05 0.462,0.5 2.466,-0.5 0.363,0.86 0.543,0.35 0.413,-0.66 1.317,-0.37 0.481,0.75 1.251,-1.13 0.095,1.25 -0.093,-0.63 0.322,-0.17 -0.35,-0.33 -0.353,0.27 -0.824,-0.58 -0.395,0.4 -0.245,-0.41 -1.463,-0.49 -0.963,-0.88 -1.566,-0.16 -1.058,-0.61 -1.65,0.11 -0.627,-0.81 -0.362,-0.02 0.004,0.41 -1.299,0.2 -0.669,-1.06 -0.223,0.61 0.366,0.12 -0.091,0.24 -0.572,0.13 -0.731,-1.12 -1.709,1.35 -0.238,-0.47 0.098,0.37 -1.084,0.32 0.839,-0.33 1.109,0.58 2.887,0.58 1.673,-0.26 2.845,0.26 0.746,0.41 8.581,-1.22 0.351,-0.09 -0.037,-0.46 -1.692,0.4 -0.479,-0.43 -0.249,0.22 -1.208,-0.62 -5.279,-0.49 -0.631,0.08 -1.312,1.24 -1.157,-0.58 -1.25,0.02 -0.967,0.76 -2.09,-0.39 -0.774,0.97 -0.218,-0.44 -0.566,-0.04 -0.309,0.91 -0.067,-0.38 0.852,-0.25 0.282,0.41 0.904,0.03 0.033,0.93 0.465,-0.14 0.724,0.54 3.412,0.41 0.984,-0.43 0.614,0.36 1.444,0.06 1.29,-0.85 3.21,0.39 3.468,-0.48 0.888,-0.8 0.56,0.34 0.083,-0.67 -0.068,0.53 -1.704,0.15 -0.495,-0.06 -0.458,-0.92 -0.204,0.38 -3.381,-0.76 -2.024,0.01 -1.221,-0.33 -2.471,0.33 -1.35,0.64 -2.528,0.54 -0.786,-0.05 -1.871,0.95 0.306,0.19 h -0.361 l -0.03,0.79 1.141,1.54 2.326,1.07 4.013,0.67 4.998,-0.19 1.296,0.48 2.913,-0.74 0.447,0.62 0.591,0.17 0.494,-0.63 1.166,-0.61 0.575,0.64 0.761,-1.27 -0.01,0.66 -0.059,-0.81 -0.351,-0.25 -0.353,0.29 -0.917,-1.27 -0.58,0.3 -0.363,-0.99 -1.176,-0.93 -3.101,-1.42 -1.23,0.27 -2.795,-1.2 -2.693,0.07 -1.282,-0.33 -2.586,0.68 -0.329,-0.57 -0.439,-0.05 -0.326,0.58 -0.773,0.23 -0.817,-0.83 -1.247,1.41 -0.244,-0.77 0.143,0.6 -0.631,0.34 0.472,0.11 0.182,-1.03 0.279,0.74 -0.19,0.2 0.376,0.18 0.175,-0.28 0.277,0.28 -0.393,0.13 0.619,-0.13 0.289,0.25 -0.184,0.23 0.974,0.13 0.601,0.51 3.708,1.01 3.51,-0.29 1.46,0.69 0.637,-0.45 2.178,-0.47 1.327,0.15 2.666,-1.06 0.638,-0.62 1.39,0.11 -0.665,-0.12 -0.352,-0.43 -0.788,0.35 -0.552,-0.65 -0.942,0.02 -3.079,-1.33 -3.974,-0.71 -4.319,0.1 -3.372,0.74 -1.746,0.78 -0.487,0.83 -0.578,0.31 -0.465,-0.22 -0.877,0.35 -0.462,1.36 -0.121,-0.31 -0.187,0.14 -0.005,0.58 0.053,-0.61 -10e-4,0.44 0.523,0.36 0.189,1.35 0.12,-0.32 0.414,0.04 0.444,1.16 0.352,-0.38 1.041,-0.11 0.323,0.34 4.013,-0.54 1.06,-0.6 5.039,-0.87 2.876,-0.89 2.054,-1.4 1.765,-0.11 0.849,-1.14 0.287,0.33 -0.06,-1.11 -0.301,0.82 -0.751,0.39 -0.01,-1.15 -0.033,1 -1.05,0.34 0.062,-1.19 0.131,0.63 -0.764,-0.09 0.148,-1.12 0.064,0.49 -0.779,0.15 0.139,0.3 -1.421,1.3"
       id="path199" />
  </g>
  <g
     id="g200">
    <path
       fill="none"
       stroke="#000000"
       stroke-width="4"
       stroke-linecap="round"
       stroke-linejoin="round"
       d="m -359.903,1522.07 -0.303,1.98 0.157,-0.62 0.09,0.28 0.544,-0.73 -0.379,-0.43 0.186,-0.11 -0.795,-0.1 -1.505,-0.86 -2.104,-0.47 -0.655,-0.03 -0.751,0.52 -2.088,-0.19 -0.965,0.56 -0.971,-0.26 -0.539,0.56 -0.413,-0.35 -0.276,0.42 0.37,-0.35 -0.124,-0.39 0.565,0.28 -0.016,0.57 0.563,0.31 2.251,0.83 1.749,-0.12 1.247,0.78 0.94,-0.72 4.123,-1.43 0.714,-0.19 0.388,0.44 0.25,-0.64 -0.057,0.37 -0.133,-0.34 -0.864,-0.21 -0.224,0.46 -0.272,-0.37 -0.387,0.73 0.016,-0.74 -0.482,-0.36 -0.852,-0.15 -0.977,-0.77 -0.688,0.4 -1.775,-0.85 -0.822,0.63 -0.398,-0.26 -0.724,0.72 -0.303,-0.23 0.007,0.33 -0.451,0.12 0.213,0.17 -0.114,-0.68 -0.433,0.66 0.152,0.19 -0.228,-1.04 0.149,0.72 -0.444,0.31 0.294,0.28 0.009,-0.35 0.007,0.68 -0.292,0.21 0.749,0.79 -0.241,0.19 0.92,-0.17 0.634,0.7 1.287,0.25 0.459,0.79 0.781,-0.49 0.799,0.1 2.042,-0.5 0.644,0.18 2.158,-0.56 0.426,-0.18 0.232,-0.74 -0.087,0.23 0.257,0.01 -0.449,-0.14 -0.808,0.47 -3.936,-1.19 -1.964,0.14 -2.283,0.42 -0.454,0.55 0.077,0.9 0.094,-0.56 -0.453,0.19 0.568,0.71 0.71,-0.78 0.388,1.01 0.199,-0.6 0.532,-0.19 0.32,0.61 0.717,-0.49 2.242,0.37 2.957,-0.23 1.505,-0.62 h 1.158 l 0.082,-0.51 h 0.388 l 0.055,-0.69 -0.003,-0.45 -0.039,0.42 -0.419,0.22 -0.114,-1.19 -0.161,0.75 -0.523,0.08 -0.315,0.02 -0.187,-0.87 -0.043,0.4 -1.158,-0.05 -0.006,-1.36 -0.366,0.8 -1.084,0.21 -0.446,-0.47 -0.155,0.36 -1.03,0.46 -0.487,-0.4 -0.155,0.6 -0.633,0.44 -0.1,-0.25 -0.095,0.51 0.941,0.8 -0.117,0.55 0.824,1.15 2.923,1.89"
       id="path200" />
  </g>
  <g
     id="g201">
    <path
       fill="none"
       stroke="#000000"
       stroke-width="4"
       stroke-linecap="round"
       stroke-linejoin="round"
       d="m -453.754,1521.28 1.36,-0.33 1.046,-0.65 0.623,0.05 0.96,-0.77 0.372,0.22 0.228,-0.82 0.41,0.03 0.213,-0.61 0.206,0.3 0.952,-0.4 -0.538,-0.03 0.46,0.1 -0.411,-0.35 -0.078,0.26 0.431,0.07 -0.23,0.09 -0.201,-0.43 -0.281,0.35 -0.444,-0.74 -0.598,0.49 -0.811,0.12 -6.868,-0.1 -4.225,0.43 1.933,0.21 -0.183,0.2 1.334,0.64 2.027,0.46 1.602,-0.33 2.615,0.6 1.384,-0.62 0.655,0.26 2.09,-0.09 1.123,-1.08 2.285,0.22 0.723,0.38 0.855,-0.31"
       id="path201" />
  </g>
  <g
     id="g202">
    <path
       fill="none"
       stroke="#000000"
       stroke-width="4"
       stroke-linecap="round"
       stroke-linejoin="round"
       d="m -416.953,1623.78 -0.893,0.99 -0.193,-0.22 -0.054,0.35 0.258,0.02 -0.219,-0.06 0.089,-1.15 0.292,-0.43 0.006,0.55 h 0.591 l -0.029,-0.87 0.579,-0.11 0.082,-0.46 0.454,0.11 1.581,-2.74 -0.34,-0.29 -0.382,1.1 -0.223,-0.16 0.241,-0.15 -0.13,0.96 0.04,-0.41 -0.445,-0.1 0.269,-0.1 0.022,0.46 0.135,-0.38 -0.631,-0.77 0.374,-0.04 0.133,-0.35 -0.686,-0.5 0.305,-0.16 0.019,-0.73 -0.321,-1.09 -0.5,-0.26 -0.056,-0.86 -0.439,-0.27 -0.231,0.21 -0.202,-0.79 -0.643,-0.21 -0.551,-0.91 -1.374,-0.86 -1.188,-0.57 -0.478,0.53 -0.225,-0.36 0.226,-0.21 -0.947,0.06 -0.779,-0.41 0.068,-0.45 -0.043,0.46 -0.34,-0.15 0.338,0.38 0.179,-0.17 -0.287,-0.06 0.531,-0.22 h -0.769 l -0.243,-0.82 -0.104,0.39 -1.615,-0.11 -0.541,-0.98 -0.335,0.47 0.21,0.06 -0.601,0.07 -0.062,-0.82 -0.327,-0.31 -0.131,0.82 -0.466,-0.81 -0.294,0.6 0.433,0.19 -0.482,0.08 -0.36,-1.25 -0.333,0.65 0.46,0.19 -0.636,0.17 0.581,0.08 -0.654,-0.02 0.34,0.25 0.754,-0.09 0.885,1.07 1.144,0.09"
       id="path202" />
  </g>
  <g
     id="g829">
    <path
       fill="#000000"
       fill-rule="evenodd"
       d="m -379,1655.5 -2,2.5 1,1.5 -1.5,1.5 h -1 l -1.5,1.5 1,1 -0.5,0.5 -1.25,0.25 -2.25,4.25 -3.5,3.5 -1.25,0.25 -0.25,1.25 -1.5,1.5 -8,5 -2.5,1.38 -3,1 -6,1.12 h -6 l -9,-1.25 -2,-0.75 -2,-1 -1.5,-0.5 -2,-2 -4,-1 -7.5,-7.5 -0.5,-1.5 -4,-6 -1,-2 -0.5,-1.5 -2,-2 v -2 l -2,-2 0.75,-13.5 0.75,-3 1.875,-5 0.625,-2.5 2,-2 0.5,-1.5 1,-2 0.75,-1.75 4.25,-2.25 4,-4 2.5,-0.62 5,-1.88 10,-2.62 15,-0.13 3,-0.37 1.5,-0.38 1,-1 1,1 h 1 l 1,-1 1,1 3,1 1.5,1.5 v 1 l 1.5,1.5 1.25,0.25 5.625,10.75 0.625,2.5 2,2 1.5,6.5 1.875,5 0.25,4 -0.625,6.5 -1,1 1,1 v 1 l 1,1 m -34,24 4,-1 3.5,-0.5 2,-2 1.5,-0.5 5.5,-3.5 5.5,-5.5 1.25,-3.25 1.5,-0.5 1.25,-3.25 2,-2 v -7 l 1,-1 -1,-1 1,-1 -0.625,-6.5 -0.875,-4 -1,-3 -0.5,-2.5 -2,-2 -0.625,-2.5 -1.875,-4 -0.5,-1.5 -1,-0.5 -0.25,3.75 -3.25,0.25 -1.5,-1.5 -0.5,-1.5 -2.5,-4.5 -2.5,-2.5 -9.5,-1.5 h -6 l -13,3.13 -2.5,0.37 -2,2 h -2 l -4,4 h -1 l -2.5,2.5 -2.375,4.5 -0.625,2.5 -2,2 -0.625,3.5 -0.625,2 v 10 l 0.875,3 2.75,5 0.625,2.5 3,3 0.5,1.5 6.75,8.75 3.75,0.88 6,2.75 3,1 12,1.12 m 17,-62.5 v -1 h -1 v 1 h 1 m 1,1 v -1 h -1 v 1 h 1 m 2,2 v -1 h -1 v 1 h 1"
       id="path829" />
  </g>
  <g
     id="g830">
    <path
       fill="#000000"
       fill-rule="evenodd"
       d="m -287.5,1670 h -2 l -2,-2 -1.25,-0.25 -0.25,-2.25 -5,-5 -2,-4 -2,-2 -0.625,-2.5 -0.75,-2 -0.625,-2.5 -3,-3 -0.5,-1.5 -6,-12 -0.5,-1.5 -2,-2 -0.625,-3.5 -3.75,-8 -0.625,-3.5 -2,-2 -0.5,-2.5 -3.5,-10.5 -2.5,-2.5 -0.5,0.5 v 1 l 1,1 -1,1 -2,31 -1,1 1,1 v 1 l -1,1 1,1 -1,1 -1,18 -1,1 1,1 -2,16 -1.5,1.5 -2.25,-0.25 -0.75,-1.75 -1,-2 -0.75,-2 -3.375,-13 -0.75,-2 -1.125,-4 -2,-12 -9,-48 -4.875,-37 -4.625,-17.5 -2,-2 1,-6 1.5,-1.5 2.25,0.25 0.25,1.25 1,1 -1,1 1,1 0.625,5.5 4.625,18 3.25,24 0.5,9.5 1,1 -1,1 1,1 0.5,6.5 3,17 7.5,36.5 1,1 -1,1 1,1 2,7 v 0.5 l 1,-0.5 v -2 l 1,-1 -1,-1 6.75,-73.5 0.5,-1.75 h 3.625 l 0.625,5.75 1,4 2,5 3.875,9 0.625,3.5 2,2 1.5,5.5 2.5,6.5 2,2 0.625,3.5 0.375,1.5 2,2 v 2 l 2,2 v 2 l 2,2 0.5,1.5 5.875,11 0.625,2.5 2,2 1,2 2.5,3.5 1.5,2.5 1.5,1.5 1.25,-0.25 0.75,-1.75 1,-2 0.75,-2 2,-7 2.375,-18 -0.25,-4 -0.375,-1.5 1,-1 -1,-1 2.75,-88.5 0.5,-3.75 3.25,-0.25 2.5,2.5 1,6 -1.5,1.5 h -1 l -1,-1 -0.5,0.5 v 6 l -1,1 1,1 -1,17 -1,1 1,1 -1,1 1,3 -1,1 1,1 -1,4 1,1 -1,1 v 1 l 1,1 -1,1 1,1 v 1 l -1,1 1,1 -1,1 0.25,1.5 0.75,41.5 -1,1 1,1 -1,1 -0.5,10.5 -1.25,7 -3.25,11.5 -2,2 v 1 l -2.5,2.5 m 11.5,-130 v -1 h -1 v 1 h 1"
       id="path830" />
  </g>
  <g
     id="g831">
    <path
       fill="#000000"
       fill-rule="evenodd"
       d="m -390,1593.25 -4.5,0.75 -2.5,-2.5 -0.25,-1.25 -5.5,-3.5 -11.75,-13.75 -2,-3 -1,-2 -10,-15 -12.5,-16.5 -2.5,-2.5 -1,1 -1.25,0.25 -0.875,3.75 v 2 l 0.625,2.5 -1,1 1,1 1,32 -1,1 1,1 v 8 l -1,1 1,1 -1,1 1,4 -1.5,1.5 -2.25,-0.25 -0.25,-1.25 -2,-2 0.5,-3.5 -0.5,-14.5 2,-2 v -4 l -1,-1 1,-1 -1,-1 v -5 l 1,-1 -1,-1 v -2 l -1,-1 1,-1 v -2 l -1,-1 1,-1 -1,-1 0.5,-1.5 0.25,-2 0.25,-10.5 -1,-1 1,-1 1,-11 1.5,-1.5 h 1 l 1.5,1.5 v 3 l 3,3 3,5 1.5,1.5 h 1 l 1.5,1.5 0.25,1.25 1.5,0.5 0.75,1.75 6,8 11,17 1,2 4.5,6.5 4.5,4.5 h 1 l 1.5,1.5 v 1 l 2.5,2.5 h 1 l 1.5,1.5 0.25,1.25 2.75,1.75 2.75,1.25 1.625,-4.75 1.625,-9.5 1,-1 -1,-1 1.25,-9.5 1.75,-35.75 -1.875,-0.5 0.875,-11.25 1.5,-1.5 h 2 l 1.5,1.5 v 8 l 1,1 -1,1 -0.875,16.5 0.75,4 -3.5,35 -2,8 -1.625,3.75 -1.75,0.5 M -443,1533 v -1 h -1 v 1 h 1"
       id="path831" />
  </g>
</g>
</svg>
