<?xml version="1.0" encoding="UTF-8" standalone="no"?>
<svg
   width="235.82324"
   height="207.06445"
   viewBox="-702 0 235.82324 207.06445"
   version="1.2"
   id="svg924"
   xmlns="http://www.w3.org/2000/svg"
   xmlns:svg="http://www.w3.org/2000/svg"><defs
   id="defs924" />
<title
   id="title1">Notebook 3</title>
\n<g
   id="g939"
   transform="matrix(1.2859519,0,0,1.0651164,-1127.5483,-865.48636)">
  <g
     id="g938">
    <g
       id="g929">
      <g
         id="g43">
        <path
           fill="none"
           stroke="#000000"
           stroke-width="4"
           stroke-linecap="round"
           stroke-linejoin="round"
           d="m 400.109,834.78 0.603,-0.023 -0.074,-0.394 0.146,0.464 -0.397,0.485 -0.213,-0.138 -0.112,0.638 -0.142,-0.345 -0.971,-0.108 -0.306,0.303 -1.158,-0.348 -0.603,0.756 -0.232,-0.365 -1.367,-0.006 -0.596,0.409 -0.793,0.048"
           id="path43" />
      </g>
      <g
         id="g44">
        <path
           fill="none"
           stroke="#000000"
           stroke-width="4"
           stroke-linecap="round"
           stroke-linejoin="round"
           d="m 350.125,867.262 -0.144,1.068 0.263,2.458 0.891,1.673 0.115,0.9 0.364,0.052 0.015,0.758 0.371,-0.317 -0.012,0.776 0.275,-0.519 0.011,0.987 0.059,-0.471 0.178,0.461 0.569,-0.093 1.606,3.107 0.325,-0.35 0.144,0.165 0.307,1.268 0.546,-0.083 0.602,1.094 0.535,-0.551 0.978,1.442 3.847,1.91 0.298,0.612 2.829,1.245 0.5,-0.247 0.313,0.54 3.006,1.803 1.574,0.43 0.897,-0.354 1.024,0.629 0.584,-0.241 0.937,0.545 0.748,-0.224 0.779,0.551 0.538,-0.423 0.176,0.389 2.483,1.583 1.296,0.122 0.698,0.889 0.673,-0.47 0.759,-0.045 0.559,0.683 1.976,-0.62 0.57,0.35 1.258,-0.55 0.539,0.649 1.784,-0.705 0.528,0.409 1.582,-0.337 0.444,0.407 0.936,-0.03 0.528,0.612 1.344,0.269 3.795,0.658 2.43,-0.163 1.082,0.215 0.406,0.451 0.886,-0.141 5.344,2.226 1.715,0.062 0.597,-0.378 1.094,0.217 0.851,-0.535 0.733,0.494 0.618,-0.741 0.569,0.879 0.33,-0.908 0.871,1.383 0.451,-0.589 0.744,1.055 0.366,-0.617 0.897,1.325 0.471,-0.611 0.415,0.688 1.893,0.783 1.147,-0.038 0.165,-0.259 0.895,1.011 0.798,-0.128 0.142,0.323 0.176,-0.21 0.283,0.559 0.094,-0.393 0.383,0.015 0.387,0.862 0.512,-0.814 2.802,0.601 0.549,0.778 0.223,-0.373 0.728,-0.144 0.518,0.296 1.057,-0.432 0.403,0.479 1.008,-0.285 0.268,0.561 0.755,-0.467 0.28,0.476 0.083,-0.305 0.587,-0.153 -0.121,0.329 0.24,-0.271 0.197,0.51 0.26,-0.534 1.006,-0.014 0.285,0.541 1.011,-0.315 0.288,-0.384 0.745,0.436 0.474,-0.436 0.492,0.143 0.246,-0.671 0.088,0.408 1.021,0.267 0.297,-0.822 0.628,1.067 0.98,-0.133 0.249,-0.43 0.399,0.353 1.047,-0.288 -0.1,0.215 0.175,-0.324 0.457,1.462 -0.135,-0.697 0.307,0.182 0.555,-0.832 0.306,0.65 -0.088,-0.578 0.356,0.019 -0.005,-0.36 0.238,0.254 0.858,-0.319 -0.072,-0.383 -0.217,0.491 0.009,-0.599 -0.022,0.839 1.204,-2.274 0.084,0.267 0.384,-0.213 0.322,-0.79 0.928,-0.316 0.505,-1.494 0.158,0.357 0.825,-0.319 0.58,-0.952 1.07,-0.285 0.581,-1.051 0.37,0.135 1.497,-1.128 1.11,-0.371 3.226,-2.795 0.633,-0.105 1.223,-1.457 0.953,-0.429 0.868,-1.204 0.703,0.398 0.364,-0.146 0.605,-1.21 1.047,-0.146 1.091,-1.257 0.803,0.146 1.292,-1.447 1.692,-0.86 1.89,-2.203 2.041,-1.422 3.343,-3.063 0.544,-0.137 3.5,-2.845 0.577,-0.019 0.5,-0.752 0.888,-0.727 0.636,-0.047 1.409,-1.542 0.802,-0.206 1.29,-0.963 0.605,0.224 1.595,-1.212 0.426,0.028 4.038,-3.324 0.784,-0.323"
           id="path44" />
      </g>
      <g
         id="g45">
        <path
           fill="none"
           stroke="#000000"
           stroke-width="4"
           stroke-linecap="round"
           stroke-linejoin="round"
           d="m 468.034,839.005 -0.539,0.205 -1.932,-0.486 -0.698,0.566 -0.246,-0.413 -1.108,-0.261 -0.491,0.475 -1.125,-0.905 -0.607,0.315 -1.09,-0.799 -5.196,-0.981 -0.451,-0.67 -0.517,0.12 -1.575,-0.46 -1.018,0.192 -0.354,-0.14 -0.234,-0.818 -0.34,-0.115 -0.333,0.497 -0.476,-0.896 -0.329,0.597 -0.434,-0.604 -0.837,0.586 -0.371,-0.578 -0.445,0.271 -0.568,-0.409 -1.652,-0.135 -1.977,-1.073 -3.061,-0.525 -0.395,0.187 -1.028,-0.411 -0.284,-0.66 -1.56,0.141 -0.534,-0.218 -0.123,-0.44 -1.529,-0.33 -0.716,0.146 -0.798,-0.66 -0.451,0.662 -0.37,-0.753 -0.324,0.57 -1.244,-1.186 -0.367,0.367 -0.145,-0.407 -0.767,-0.379 -0.348,0.489 -0.107,-0.456 -0.575,-0.289 -0.328,0.584 -0.592,-1.012 -0.734,-0.173 -0.229,0.558 0.023,-0.386 -2.548,-0.532 -0.55,-0.614 -3.506,-0.459 -0.791,-0.424 -0.142,-0.609 -0.57,0.637 -1.297,-0.687 -0.367,0.235 -2.222,-0.619 -0.835,0.056 -0.334,-0.445 -0.565,0.534 -0.249,-0.393 -1.049,0.993 -0.412,-0.375 -0.894,0.621 -0.502,-0.72 -0.157,0.453 -0.718,0.34 -0.29,-0.542 -0.784,0.956 -0.272,-0.555 -0.111,0.419 -0.959,0.25 -0.594,0.645 -0.481,-0.023 -1.537,1.22 -1.321,0.348 -0.614,0.48"
           id="path45" />
      </g>
      <g
         id="g46">
        <path
           fill="none"
           stroke="#000000"
           stroke-width="4"
           stroke-linecap="round"
           stroke-linejoin="round"
           d="m 352.735,866.401 -0.027,0.196 -0.242,0.471 -0.066,-0.743 0.317,0.987 -0.258,0.259 0.077,-0.769 0.026,0.826 -0.018,-0.471 -0.393,1.363 0.138,0.668 0.545,1.563 0.404,-0.007 -0.062,0.762 0.507,0.398 -0.468,1.303 h 0.447 l -0.122,-0.298 0.741,0.615 1.149,2.935 0.181,0.252 0.185,-0.334 0.113,0.704 0.431,-0.194 0.4,1.25 0.151,-0.554 0.642,0.172 0.357,0.988 0.162,-0.361 0.657,-0.01 0.202,0.644 0.13,-0.248 0.667,0.265 0.381,0.646 1.358,0.277 0.303,0.541 1.162,0.297 1.021,0.681 0.543,-0.025 1.151,0.902 0.601,-0.196 0.97,0.784 0.539,-0.288 1.492,1.163 1.419,0.304 0.617,-0.762 1.319,0.795 0.741,-0.412 2.763,0.976 2.155,0.178 1.876,0.871 2.561,0.237 3.174,1.395 0.379,-0.45 0.647,0.794 0.372,-0.527 0.698,1.028 0.498,-0.251 0.662,0.567 0.642,-0.846 1.317,1.084 0.682,-0.075 1.501,0.659 5.184,0.432 0.686,0.637 1.405,-0.242 0.61,0.83 1.653,-0.756 0.542,0.911 0.23,-0.543 0.867,-0.374 0.47,0.94 0.66,-0.72 0.879,-0.326 0.185,0.582 0.461,0.19 0.281,-0.546 0.666,-0.246 0.67,0.38 1.56,-0.686 0.75,0.614 0.354,-0.337 3.271,-0.456 1.918,0.321 1.353,-0.163 0.622,0.459 0.308,-0.282 0.4,0.421 -0.011,-0.301 0.163,0.129 0.072,0.388 0.651,-0.111 0.866,0.738 3.64,-0.007 2.44,0.668 0.42,-0.471 0.774,0.567 1.555,0.273 0.573,-0.336 0.788,0.54 0.522,-0.873 0.143,0.521 0.771,0.193 0.447,-0.999 0.466,0.626 0.672,0.197 0.458,-1.246 0.151,0.652 0.819,0.623 0.322,-0.293 1.793,0.182 0.405,0.437 0.479,-0.572 0.42,0.412 0.307,-0.528 0.663,-0.293 0.65,0.921 0.373,-0.943 0.632,0.181 1.073,-0.757 0.676,0.503 0.836,-1.355 0.902,-0.317 1.606,-1.402 4.808,-2.45 0.557,0.346 3.234,-2.659 0.899,-0.298 1.067,-0.892 0.189,0.341 1.543,-2.232 0.863,-0.534 0.459,0.312 4.152,-3.538 0.63,-1.074 0.208,0.213 0.6,-0.196 0.67,-0.901 3.134,-1.318 0.525,-1.089 1.208,0.194 0.387,-1.02 0.156,0.458 0.786,-0.144 0.354,-0.773 0.652,-0.131 0.693,-1.155 0.203,0.227 0.873,-0.143 0.365,-0.535 1.1,-0.384 1.114,-1.123 1.037,-0.432 0.841,-1.055 1.012,-0.155 2.321,-2.461 0.646,-0.151 0.702,-1.136 2.03,-1.445 0.731,0.112 2.147,-0.896 1.138,-1.648 1.653,-0.766 2,-2.187"
           id="path46" />
      </g>
      <g
         id="g47">
        <path
           fill="none"
           stroke="#000000"
           stroke-width="4"
           stroke-linecap="round"
           stroke-linejoin="round"
           d="m 352.742,868.344 -0.429,-1.736 -0.013,0.3 -1.08,-0.799 -0.157,-0.68 -0.485,-0.284 0.123,0.958 0.239,-0.338 -0.461,2.732 -0.801,2.244 -0.966,6.596 0.009,7.351 0.696,9.944 -0.536,9.655 1.525,6.897 0.283,2.938 -0.457,6.47 0.32,3.167 -0.197,1.239 0.273,-0.383 0.182,0.233 0.337,2.72 2.608,7.876 0.404,4.966 -0.477,4.581 0.248,0.723 -0.23,1.795 0.425,0.842 -0.249,0.969 0.174,3.27 0.621,4.509 0.315,5.744 0.272,0.408 -0.077,1.315 0.564,3.387 0.358,0.256 0.137,2.918 0.481,-0.006 -0.17,-0.25 0.33,0.799 -0.165,0.994 0.201,-0.462 0.345,1.232 -0.149,0.522 0.175,-0.645 0.275,2.145 0.159,-0.185 0.271,0.905 -0.239,0.8 0.352,0.231 0.241,1.386 -0.278,0.544 0.868,2.012 -0.027,1.222 0.47,0.666 0.04,-0.538 0.128,1.574"
           id="path47" />
      </g>
      <g
         id="g48">
        <path
           fill="none"
           stroke="#000000"
           stroke-width="4"
           stroke-linecap="round"
           stroke-linejoin="round"
           d="m 441.774,986.053 0.098,-2.691 -0.417,-2.194 -0.058,-6.503 -0.174,0.774 -0.396,-4.527 -0.739,-3.532 0.136,-0.845 -0.972,-3.703 0.043,-1.625 -0.401,-0.873 -0.072,-2.268 -0.377,-0.745 0.045,-2.231 -0.619,-0.812 0.255,-0.511 -0.341,-3.667 -0.564,-1.466 -0.367,-3.598 0.188,-1.487 -0.532,-3.442 -0.107,-3.05 0.319,-0.539 -0.475,-3.4 0.39,-0.622 -0.711,-3.78 -0.322,-7.877 -0.574,-3.577 -0.237,-0.342 0.044,0.755 -0.177,-0.249 -0.037,-1.385 -0.15,0.299 -0.086,-0.287 -0.649,-4.662 0.091,-3.332 -0.557,-2.797 0.017,-1.884 -0.28,0.038 -0.343,-1.603 0.102,-3.914 -0.421,-0.953 0.12,-1.503 -0.723,-3.392 0.062,-2.007 -0.391,-0.364 0.399,-0.178 -0.336,0.043 0.355,0.149 0.149,7.433 0.966,6.513 0.186,4.637 0.669,3.567 -0.161,8.338 0.42,2.02 0.054,5.142 0.383,0.994 -0.186,1.745 0.454,0.961 -0.255,2.515 0.493,3.666 -0.005,2.533 0.323,0.624 -0.274,0.742 -0.239,5.867 -0.273,0.503 0.216,7.131 -0.333,0.906 0.332,0.371 0.213,1.341 0.076,6.92 0.074,-0.572 0.326,2.669 0.736,2.302 0.019,1.463 0.476,0.954 0.576,5.425 0.259,0.06 0.845,3.686 0.176,-0.48 0.397,1.452 -0.053,0.798 0.974,3.119 0.062,0.463"
           id="path48" />
      </g>
      <g
         id="g49">
        <path
           fill="none"
           stroke="#000000"
           stroke-width="4"
           stroke-linecap="round"
           stroke-linejoin="round"
           d="m 356.401,980.245 0.006,-0.036 -0.332,-0.307 -0.381,-2.705 -0.84,-2.607 0.017,-1.228 -1.697,-5.494 0.083,-1.042 -0.503,-0.684 -0.284,-1.36 -0.1,0.291 -0.138,-0.279 -0.386,-3.011 -1.243,-3.93 0.054,-1.758 -1.097,-5.7 -1.178,-14.008 -0.732,-5.761 -0.735,-3.116 0.1,-1.452 -0.581,-1.761 0.014,-4.658 -0.524,-1.045 0.239,-1.618 -0.313,-0.634 0.415,-2.131 -0.451,-0.582 0.213,-2.138 -0.242,-2.441 -0.571,-0.781 -0.178,-1.351 -0.645,-1.401 -0.753,-4.184 -0.079,-5.813 0.364,-0.989 -0.12,-1.73 0.409,-0.848 -0.181,-1.621 0.873,-9.177 -0.351,-2.841 0.089,0.47 0.218,-0.956 -0.087,-1.291 0.27,-0.461 0.013,0.66 -0.029,-1.196 0.533,-0.995 0.324,0.323 0.601,-1.354 1.514,-1.273 1.155,-0.047 -0.028,0.251 0.407,-0.282 0.832,0.473 0.14,-0.368 0.259,0.207 1.272,-0.183 1.289,0.904 1.72,0.309 3.932,1.608 3.563,0.956 0.313,-0.152 2.778,1.367 0.256,-0.52 0.107,0.584 0.561,0.481 0.337,-0.424 0.757,1.35 0.254,-0.534 0.398,1.239 0.411,-0.362 0.989,1.495 0.309,-0.569 0.465,-0.05 0.545,1.117 2.226,1.306 1.401,0.42 -0.005,0.568 0.279,0.156 0.195,-0.381 0.895,0.097 0.271,0.757 0.856,-0.523 0.02,1.069 0.358,0.432 0.116,-0.729 0.614,-0.261 0.279,1.05 1.113,-0.76 0.287,-0.051 0.422,0.532 1.553,-0.412 3.736,1.849 5.786,2.169 1.002,0.116 0.612,-0.392 1.867,1.142 2.257,0.347 0.904,0.615 2.12,0.166 0.659,0.565 0.558,-0.223 1.53,0.508 1.158,-0.039 1.906,0.71 0.303,-0.193 0.862,0.608 0.752,-0.043 1.019,0.723 0.605,-0.413 1.067,0.809 0.541,-0.609 0.796,1.077 0.499,-0.76 0.516,1.237 0.034,-1.124 0.217,1.894 0.451,0.899 1.529,1.321 0.231,0.836 1.568,0.384 0.282,1.002 0.273,-0.412 0.797,-0.171 0.15,0.955 0.218,-0.849 0.52,0.382 0.153,-0.461 0.337,-0.06 0.308,0.567 0.915,-0.53 0.536,0.245 0.371,0.9 0.167,-0.424 0.72,0.317 0.364,-0.421 0.158,0.632 0.165,-0.559 0.595,-0.188 0.037,0.552 0.534,-0.674 0.005,0.388 0.014,-0.315 0.335,-0.016 0.073,0.486 0.052,-0.322 1.194,-0.438 0.49,0.321 1.55,-0.037 1.863,-0.548 1.151,0.164 1.111,-0.746 1.57,0.142 0.367,-0.965 0.221,0.591 0.097,-1.161 0.119,1.279 0.154,-1.124 0.2,0.832 -0.225,0.311 0.167,-0.454 -0.082,0.219 0.399,0.121 -0.2,-0.112 0.119,0.619 -0.055,-0.258 0.426,-0.131 -0.002,0.358 -0.375,-0.42 0.172,-0.487 -0.119,0.554 -0.329,-0.026 0.247,-0.209 -0.201,0.204 0.271,-0.037 0.046,0.394 -0.049,-0.326 0.262,0.017 0.042,0.795 0.068,-0.497 -0.134,1.21 0.539,5.556 -0.251,0.771 0.102,4.369 -1.485,7.797 0.153,2.387 -0.293,0.977 0.343,2.348 -0.416,0.714 0.49,2.399 -0.006,2.476 0.352,0.531 -0.274,0.525 0.18,3.177 -0.33,2.264 0.3,1.282 -0.217,2.667 0.183,3.62 1.26,5.822 0.524,0.764 0.215,1.632 0.451,0.745 0.09,2.199 0.751,2.501 -0.205,0.726 0.464,1.566 -0.187,0.827 0.412,0.661 -0.16,11.265 1.142,8.409 -0.262,2.613 0.078,2.381"
           id="path49" />
      </g>
      <g
         id="g50">
        <path
           fill="none"
           stroke="#000000"
           stroke-width="4"
           stroke-linecap="round"
           stroke-linejoin="round"
           d="m 500.586,895.46 -0.047,-2.529 0.283,-0.807 -0.282,-1.623 0.404,-0.641 -0.397,-0.981 -0.048,-2.652 0.42,-0.779 -0.223,-0.514 0.038,-3.498"
           id="path50" />
      </g>
      <g
         id="g51">
        <path
           fill="none"
           stroke="#000000"
           stroke-width="4"
           stroke-linecap="round"
           stroke-linejoin="round"
           d="m 501.644,884.245 -0.688,9.06 -0.043,2.852"
           id="path51" />
      </g>
      <g
         id="g52">
        <path
           fill="none"
           stroke="#000000"
           stroke-width="4"
           stroke-linecap="round"
           stroke-linejoin="round"
           d="m 505.746,954.751 1.109,4.696"
           id="path52" />
      </g>
      <g
         id="g53">
        <path
           fill="none"
           stroke="#000000"
           stroke-width="4"
           stroke-linecap="round"
           stroke-linejoin="round"
           d="m 497.021,892.516 -0.202,-1.921 0.071,-2.001 -0.555,-3.038 0.2,-0.433 -0.421,-0.685 -0.063,-1.77 -0.569,-1.63 0.373,-1.002 -0.361,-0.44 -0.758,-3.3 -0.689,-4.581 -0.346,-7.712 -0.208,-0.722 -0.307,0.041 -0.091,-1.14 -0.382,-1.138 -0.142,0.174 -0.392,-2.542 -1.433,-3.274 0.181,-0.383 -0.689,-1.705 -0.123,-1.511 -0.327,0.064 0.239,-0.156 -0.389,-0.656 -0.314,0.243 -0.087,-1.055 -0.421,0.714 0.046,-0.472 -0.19,0.393 -0.833,-1.375 -0.439,-0.083 0.072,-0.503 -1.076,-1.312 -0.717,-1.909 -0.372,-0.187 -0.064,-0.744 -0.089,0.546 -0.157,-0.82 -0.112,1.12 0.058,-0.539 0.207,0.949 0.114,-0.306 -0.014,0.427 0.089,-0.317 1.448,2.17 1.25,0.968"
           id="path53" />
      </g>
      <g
         id="g54">
        <path
           fill="none"
           stroke="#000000"
           stroke-width="4"
           stroke-linecap="round"
           stroke-linejoin="round"
           d="m 341,873.936 -0.2,1.051 -0.023,2.734 0.095,0.185 0.031,-0.457 0.393,-0.034 -0.005,0.412 0.498,0.218 -0.007,1.439 0.062,-0.299 0.2,0.11 1.453,1.4 3.551,2.179 4.24,1.249 2.11,0.28 1.129,0.95 0.549,-0.207 3.021,0.599 5.945,1.981 2.817,0.524 1.104,0.964 0.529,-0.37 2.637,0.131 2.82,-0.36 1.043,0.573 1.603,-0.578 4.633,-0.391 2.57,0.32 1.183,-0.743 0.85,0.71 1.399,-0.062 1.972,1.005 0.835,-0.374 1.413,0.827 0.686,-0.452 1.527,1.064 0.762,-0.624 0.295,0.571 3.387,1.219 0.63,-0.419 0.52,0.413 2.505,0.33 0.983,0.506 1.662,0.04 0.607,0.517 1.419,-0.05 0.667,0.608 2.466,-0.305 2.709,0.087 2.287,0.512 0.685,-0.219 0.831,0.561 0.476,-0.204 0.63,1.394 1.733,-0.35 0.184,0.602 0.18,-0.484 0.796,0.043 0.313,0.392 0.68,-0.524 0.366,1.002 0.37,-1.135 0.277,0.552 0.603,-0.881 0.109,0.613 0.148,-0.695 0.578,0.242 0.529,-0.548 0.332,0.369 0.971,-0.172 0.895,-0.65 2.956,-0.647 1.141,-0.888 2.087,-0.592 0.992,-1.103 0.348,0.194 1.201,-0.364 0.563,-1.314 1.383,0.023 0.707,-1.16 1.416,-0.095 0.613,-1.049 0.566,0.102 1.041,-0.417 0.572,-0.738 1.025,-0.316 5.089,-4.145 0.669,-1.07 0.83,-0.356 4.175,-3.569 2.626,-1.4 1.445,-1.213 2.347,-1.002 1.238,-1.501 1.726,-0.49 0.958,-1.436 0.393,0.288 0.429,-0.158 0.684,-0.363 0.753,-1.131 2.212,-0.68 1.085,-1.142 0.539,0.068 1.886,-1.01 3.61,-2.81 0.855,-0.319 1.568,-1.607 0.455,-0.244 0.755,0.213 0.489,-0.342 1.592,-1.829 0.428,0.153 0.432,-0.251 1.607,-2.263 3.358,-2.263 1.103,-1.347 1.066,-0.189 4.067,-1.998"
           id="path54" />
      </g>
      <g
         id="g56">
        <path
           fill="none"
           stroke="#000000"
           stroke-width="4"
           stroke-linecap="round"
           stroke-linejoin="round"
           d="m 410.374,823.282 0.727,-0.197 2.863,-0.248 2.094,0.593 0.933,-0.483 3.921,-0.453 0.022,-10e-4"
           id="path56" />
      </g>
      <g
         id="g57">
        <path
           fill="none"
           stroke="#000000"
           stroke-width="4"
           stroke-linecap="round"
           stroke-linejoin="round"
           d="m 494.295,859.982 -4.532,1.542 -0.666,0.887 -3.067,0.971 -1.096,1.395 -0.533,-0.246 -1.449,0.289 -0.647,0.142 -0.503,0.538 -1.595,0.272 -0.373,1.017 -0.249,-0.194 -1.143,0.465 -2.402,1.554 -0.21,0.556 -4.118,3.948 -0.756,1.258 -0.26,-0.234 -4.217,2.306 -1.001,0.895 -0.402,-0.09 -2.074,1.757 -2.101,1.096 -0.98,1.198 -0.457,-0.213 -2.709,1.629 -1.643,0.531 -0.69,0.811 -0.26,-0.159 -3.113,1.211 -0.679,-10e-4 -1.489,0.946 -0.269,-0.523 -0.367,-0.038 -0.19,0.549 -0.699,0.381 -0.647,-0.362 -1.918,1.251 -0.855,-0.133 -1.666,1.34 -0.888,-0.516 -2.566,1.961 -0.535,-0.392 -0.601,0.033 -0.51,0.675 -1.085,0.594 -3.326,1.233 -0.911,-0.334 -1.475,0.749 -5.463,0.981 -1.115,0.615 -1.509,-0.306 -0.622,0.723 -0.714,-0.412 -1.512,-0.209 -3.559,0.26 -2.763,-0.374 -0.41,0.274 -1.117,-0.058 -1.339,-0.391 -1.654,0.088 -7.33,-0.979 -0.976,-0.019 -0.261,0.502 -0.439,0.067 -0.316,-0.421 -1.324,-0.428 -0.873,0.218 -1.245,-0.659 -0.468,0.617 -0.514,0.132 -0.318,-0.684 -0.997,-0.505 -0.614,0.567 -0.351,-0.212 -1.236,-1.447 -0.326,0.598 -0.465,0.088 -0.24,-0.808 -0.979,-0.71 -0.751,0.105 -1.934,-1.339 -0.998,0.009 -1.92,-1.044 -5.393,-1.113 -6.451,-0.698 -1.529,-0.867 -0.548,0.256 -1.99,-0.271 -0.607,-0.754 -1.572,-0.059 -0.546,-1.475 -0.416,0.058 -0.333,0.51 -1.478,-0.04 -0.171,-0.61 -0.467,-0.277 -0.371,0.367 -1.219,0.132 -0.751,-0.792 -0.787,0.356 -1.195,0.027 -0.714,-0.916 -0.419,0.158 -4.188,-1.317 -1.182,-0.722 -1.14,-1.294 -1.484,-0.617 -1.316,-1.072 -4.118,-1.67 -0.724,-0.618 -0.466,-1.273 -0.049,-0.018"
           id="path57" />
      </g>
      <g
         id="g58">
        <path
           fill="none"
           stroke="#000000"
           stroke-width="4"
           stroke-linecap="round"
           stroke-linejoin="round"
           d="m 409.095,824.598 1.183,-0.298 0.81,0.187 0.244,-0.626 0.318,0.438 0.25,-0.728 0.347,1.258 0.352,-0.885 0.378,1.114 2.157,1.943"
           id="path58" />
      </g>
      <g
         id="g59">
        <path
           fill="none"
           stroke="#000000"
           stroke-width="4"
           stroke-linecap="round"
           stroke-linejoin="round"
           d="m 350.51,872.794 -0.519,-2.608 -0.169,0.173 -0.111,-0.533 -0.098,0.342 -0.419,-0.129 -0.764,-0.629 -0.233,-1.023 -1.012,0.258 0.015,-0.532 -0.05,-0.033"
           id="path59" />
      </g>
      <g
         id="g60">
        <path
           fill="none"
           stroke="#000000"
           stroke-width="4"
           stroke-linecap="round"
           stroke-linejoin="round"
           d="m 448.313,986.713 0.06,-0.823 0.535,-0.993 -0.188,-4.383 0.366,-2.624 -0.324,-1.072 0.021,-2.538 -0.495,-0.562 0.279,-3.023 -0.274,-0.838"
           id="path60" />
      </g>
      <g
         id="g61">
        <path
           fill="none"
           stroke="#000000"
           stroke-width="4"
           stroke-linecap="round"
           stroke-linejoin="round"
           d="m 445.779,956.298 -0.029,0.312 -0.204,-0.151 -0.489,-2.742 -0.206,0.192 -0.097,-2.36 -0.796,-4.049 0.14,-1.339 -0.566,-1.626 -0.574,-3.977 -0.546,-10.549 -0.364,-1.148 0.152,-1.385 -0.795,-6.049 -0.062,-5.652 0.25,-1.841 -0.883,-9.143 -0.318,-0.678 0.215,-0.528 -0.397,-1.724 0.172,-0.869 -0.367,-1.553 -0.288,0.165 0.311,-0.316 -0.948,-0.926 -1.85,-3.268 -1.874,-2.085 -0.726,-2.016 -0.287,0.173 0.194,-0.895 -0.182,0.697 0.119,-0.278 0.049,0.541 0.137,-0.444 0.843,5.856 1.783,18.298 2.535,17.103 0.782,16.043 -0.003,4.847 -0.303,1.568 0.238,3.696 -0.269,1.398 0.379,2.678 -0.32,1.305 0.377,3.194 -0.21,1.94 0.332,0.649 -0.184,3.053 0.245,2.952 0.411,0.608 -0.025,1.708 0.805,4.039 -0.488,4.38"
           id="path61" />
      </g>
      <g
         id="g62">
        <path
           fill="none"
           stroke="#000000"
           stroke-width="4"
           stroke-linecap="round"
           stroke-linejoin="round"
           d="m 504.662,960.936 0.138,-1.091 0.065,0.3 0.46,-0.377 0.126,-3.655 0.332,-0.309 -0.057,-3.929 0.714,-4.171 -0.068,-2.959 -0.378,-1.571 0.339,-5.384 -0.434,-1.166 0.377,-0.361 0.101,-3.493 0.558,-2.002 -0.234,-1.176 0.435,-1.337 0.531,-4.702 -0.28,-12.952 0.331,-0.922 -0.217,-0.672 0.339,-1.78 -0.051,-1.106"
           id="path62" />
      </g>
      <g
         id="g63">
        <path
           fill="none"
           stroke="#000000"
           stroke-width="4"
           stroke-linecap="round"
           stroke-linejoin="round"
           d="m 507.064,903.149 0.009,3.703 1.697,16.012 -0.37,3.001 0.295,8.139 0.496,2.204 -0.079,1.918 0.421,1.464 0.079,2.892 0.436,0.39 0.665,3.123 0.25,0.127 0.438,5.162 0.63,1.89 0.274,3.01"
           id="path63" />
      </g>
      <g
         id="g64">
        <path
           fill="none"
           stroke="#000000"
           stroke-width="4"
           stroke-linecap="round"
           stroke-linejoin="round"
           d="m 415.435,821.291 1.429,-3.271 0.868,-0.97 0.301,-2.479 -0.012,0.978 -0.238,-0.475 -0.301,0.67 -0.083,-0.395 -1.44,0.128 -4.481,1.514 -1.407,0.188 -0.282,-0.229 -2.105,0.747 -0.515,-0.362 -1.199,0.39 -0.558,-0.283 -1.816,0.694 -0.704,-0.209 -4.11,2.237 -0.907,-0.133 -1.984,1.537 -0.917,-0.012 -1.277,0.601 -0.89,0.863 -2.176,0.802 -0.837,1.108 -0.318,-0.313 -1.167,0.317 -0.616,1.132 -1.828,0.193 -0.834,0.986 -0.359,-0.173 -1.084,0.434 -0.775,0.876 -2.072,0.81 -1.019,1.14 -1.626,0.74 -4.628,3.319 -1.555,0.413 -1.044,1.002 -1.058,0.387 -1.08,1.433 -1.75,0.934 -1.437,1.541 -1.011,0.282 -4.279,3.348 -3.303,3.356 -3.622,2.874 -2.157,1.334 -1.555,0.483 -1.235,1.268 -0.265,-0.241 -0.681,1.02 -1.191,0.887 -0.342,0.043 -0.261,-0.466 -0.368,0.245 -0.245,0.824 -1.149,1.077 -0.165,-0.509 -0.331,0.053 -0.199,0.84 -1.135,1.467 -0.773,0.23 -2.018,2.703"
           id="path64" />
      </g>
      <g
         id="g65">
        <path
           fill="none"
           stroke="#000000"
           stroke-width="4"
           stroke-linecap="round"
           stroke-linejoin="round"
           d="m 339.709,860.262 1.747,-1.291 9.429,-9.544 7.229,-5.53 2.883,-2.726 2.723,-1.367 1.274,-1.42 2.133,-0.55 2.825,-2.026 3.073,-1.213 2.303,-1.56 3.211,-0.922 1.417,-1.388 0.692,0.208 2.523,-0.484 1.34,-0.736 4.197,-1.316 1.756,-1.587 0.953,0.047 5.433,-1.809 10.862,-4.78 1.382,-0.314 1.741,-1.009 0.653,-0.124 0.399,0.304 0.119,0.223 -0.476,0.384 0.081,-0.993 0.256,0.716 -0.38,0.096 -0.226,-0.342 -2.398,1.15 -1.252,0.76 -1.394,1.492 -4.466,2.139 -1.004,1.119 -1.115,0.659 -1.073,-0.037 -3.727,1.317 -2.64,1.534 -6.547,1.703 -2.466,1.974 -1.135,-0.243 -2.527,0.672 -3.368,1.735 -5.643,1.801 -2.01,1.669 -0.934,-0.042 -1.75,0.708 -5.23,2.788 -3.502,3.352 -5.207,5.732 -1.711,1.352 -0.35,-0.225 -0.46,0.31 -0.353,0.913 -2.749,3.744 -0.726,0.676 -0.537,0.01 -2.331,2.777 -1.99,1.773 -0.859,0.45"
           id="path65" />
      </g>
      <g
         id="g66">
        <path
           fill="none"
           stroke="#000000"
           stroke-width="4"
           stroke-linecap="round"
           stroke-linejoin="round"
           d="m 340.286,881.42 0.955,0.061 1.938,0.731 3.495,0.427 4.653,-0.982 1.401,0.154 2.587,-0.95 1.357,0.423 2.916,-1.366 1.208,0.252 1.917,-0.626 2.08,-0.035 0.52,0.453 2.676,-0.107 0.67,-0.306 1.301,0.419 0.824,-0.421 0.251,0.445 0.84,0.371 0.613,-0.302 1.098,0.822 0.443,-0.828 0.545,-0.25 0.334,0.788 0.898,0.42 0.508,-1.165 0.846,1.686 0.589,-1.04 0.138,0.764 1.195,1.427 2.649,0.53 0.177,0.302 0.656,-0.313 0.011,0.203 0.013,-0.336 -0.185,0.738 -0.179,-0.413 0.187,-0.14 -0.105,0.774 -0.682,-1.359 -1.947,0.082 -1.838,-0.826 -4.207,-0.864 -0.85,0.587 -0.956,0.082 -0.79,-0.56 -0.929,-0.071 -9.972,0.432 -2.143,0.596 -4.579,-0.539 -1.822,0.503 -2.723,-0.912 -0.626,0.45 -0.579,-0.017 -1.939,-1.246 -0.85,0.099 -1.517,-1.604 -0.704,0.05 -0.218,-0.536 -2.315,-1.847"
           id="path66" />
      </g>
      <g
         id="g67">
        <path
           fill="none"
           stroke="#000000"
           stroke-width="4"
           stroke-linecap="round"
           stroke-linejoin="round"
           d="m 338.5,848.604 0.363,-0.473 2.231,-0.907 0.891,-1.293 0.341,0.18 0.889,-0.448 1.674,-1.427 4.605,-2.996 0.906,-0.265 2.122,-1.707 0.983,0.114 1.738,-1.475 2.305,-1.035 0.532,-0.66 1.91,-1.148 h 1.282 l 1.952,-1.202 1.523,-0.494 0.521,0.331 0.688,-0.138 0.678,-0.641 2.862,-1.396 1.462,-0.199 2.842,-1.392 0.706,0.442 0.747,-0.035 1.917,-1.849 3.781,-2.311 2.34,-0.782 2.851,-2.088 2.592,-0.867 3.771,-1.86 0.896,-0.014 1.208,-0.594 0.603,0.317 1.553,-0.433 0.421,0.695 1.579,-1.165 3.764,-0.741 0.68,0.421 1.336,-0.74 3.154,-0.379 0.58,-0.438 0.656,0.203 0.207,-0.37 0.904,0.173 0.177,-0.546 0.509,0.151 0.596,-0.879 0.938,0.581 0.211,-0.868 0.395,-0.321 0.219,0.637 0.845,0.226 0.321,-0.336 1.187,0.803 0.474,-0.818 0.427,0.683 0.876,0.14 0.616,0.549 0.682,0.218 0.443,-0.242 1.772,1.308 2.884,0.871 0.778,1.229 0.289,-0.444 0.994,0.045 2.519,1.396 1.373,0.437 0.825,-0.22 1.925,0.969 3.636,0.753 6.205,2.239 0.963,0.043 0.392,0.515 1.281,0.152 0.529,0.853 1.737,-0.224 0.267,0.76 0.473,0.221 0.29,-0.539 0.739,-0.024 0.751,0.576 0.699,-0.402 1.196,-0.117 0.942,0.737 0.501,-0.46 1.747,-0.377 0.876,0.216 2.061,-0.342 4.501,0.485 0.564,-0.185 2.654,0.877 0.718,-0.616 0.206,0.426 0.871,0.445 0.461,-0.718 0.228,0.904 1.222,0.435 0.689,0.874 0.482,0.216 0.658,-0.35 0.694,0.832 3.181,1.247 6.042,1.731 0.728,-0.116 4.12,3.012 0.976,0.461 0.665,-0.213 1.545,0.754 0.459,-0.141 2.366,1.356 0.13,0.506 0.606,-0.169 0.035,0.905 0.116,-0.74 -0.122,0.623 -0.124,-0.921 -0.126,0.443 0.149,-0.411 -1.034,-0.483 0.22,-0.137 -0.653,-0.487 -0.714,0.05 -1.464,-0.817 -1.794,-0.263 -2.033,-0.896 -11.842,-1.698 -10.922,-2.917 -8.062,-3.929 -12.428,-3.525 -2.329,-0.774 -1.175,-0.783 -2.081,-0.094 -0.914,-0.798 -0.286,0.329 -0.955,-0.139 -0.756,-1.173 -1.194,0.231 -0.452,-0.903 -0.417,0.404 0.04,-1.136 0.367,1.121 0.145,-0.625 0.378,0.984 6.36,4.099 0.693,0.728 3.726,0.945 1.954,1.251 2.028,-0.126 5.512,1.165 5.396,0.329 1.136,0.829 1.281,0.349 1.164,-0.311 5.932,0.838 3.23,0.858 1.555,0.786 4.299,0.497 7.701,2.07 4.038,0.54 3.281,-0.415 2.052,0.337 0.75,0.708 1.064,-0.267 1.341,0.167 1.32,0.959 0.753,1.379 0.99,3.559 -0.304,1.963 -0.725,1.266 0.007,0.527 -0.082,-0.672 0.329,0.873 -1.283,1.836 0.052,0.341 -1.027,0.709 -0.12,0.694 -1.015,0.726 -0.021,0.538 -0.651,0.423 -0.23,0.657 -0.483,0.311 -0.304,-0.347 -0.595,1.62 -1.151,1.612 -0.899,0.518 -0.516,-0.103 -0.84,1.443 -2.262,2.036 -2.438,1.753 -2.179,1.088 -0.67,0.926 -0.807,0.138 -1.712,1.838 -2.53,1.158 -1.001,1.723 -0.397,-0.297 -1.415,0.615 -0.765,1.591 -0.761,-0.221 -1.137,0.601 -0.792,1.504 -0.234,-0.335 -1.109,0.619 -0.706,0.831 -2.139,1.325 -0.935,1.229 -1.938,0.923 -2.913,2.226 -2.133,0.96 -2.353,1.675 -3.836,1.504 -3.648,2.063 -1.993,0.11 -3.565,1.912 -0.587,-0.557 -0.763,-0.022 -1.637,1.855 -1.149,-0.23 -1.573,1.591 -0.712,-0.677 -0.455,1.456 0.571,0.054 0.097,-0.605 0.185,0.312 0.144,-0.379 2.238,-0.192 0.73,-0.341 1.506,-1.509 2.438,-0.656 0.637,-0.958 0.822,-0.436 0.605,0.346 2.202,-0.633 1.442,-1.041 4.238,-1.592 1.949,-1.692 0.831,-0.059 3.31,-1.61 4.82,-3.84 2.623,-2.758 0.469,0.305 0.463,-0.288 1.469,-1.978 1.265,-0.716 2.011,-2.249 0.763,0.015 1.393,-1.752 1.224,-0.319 1.325,-1.609 0.443,0.53 0.419,-0.206 1.388,-2.193 1.015,-0.246 2.014,-1.979 0.974,-0.043 2.003,-2.149 3.646,-2.812 0.655,-1.03 1.851,-1.263 1.49,-1.955 -0.089,-0.585 0.865,-0.464 0.34,-1.33 0.737,-0.305 1.105,-2.015 0.792,-0.367 0.169,-0.683 0.593,-0.208 0.109,-0.729 0.87,-1.081 0.277,-2.95 -0.162,0.208 -0.177,-0.447 -0.379,0.048 -0.34,-0.831 -0.063,0.297 -0.583,-0.495 -0.698,0.138 -0.536,-1.259 -1.103,0.009 -0.646,-1.297 -0.253,0.444 -0.734,-0.028 -7.149,-1.521 -0.593,0.008 -0.7,0.666 -2.266,-0.917 -0.633,0.211 -1.526,-0.504 -3.295,-0.308 -0.882,-0.515 -0.488,0.239 -5.65,0.006 -1.055,0.509 -1.677,-0.623 -2.869,-0.501 -4.949,-0.07 -7.46,-0.743 -1.794,0.159 -3.16,-0.567 -1.663,0.095 -3.103,-0.763 -1.47,0.384 -3.476,-1.354 -1.65,0.309 -2.795,-1.257 -2.088,0.945 -2.003,-0.96 -3.147,-0.788 -2.078,0.141 -2.12,-0.776 -5.281,-0.672 -4.017,-1.225 -1.792,0.145 -0.825,-0.588 -3.201,-1.204 -3.803,-2.26 -1.175,-0.899 -0.066,-1.916 0.397,0.868 0.316,-1.064 0.096,0.758 0.875,0.725 1.97,0.326 1.006,-0.606 3.063,1.23 3.892,0.718 8.146,0.55 6.229,-0.224 3.121,0.327 1.655,0.566 2.574,0.002 1.401,-0.627 2.598,1.119 1,0.012 2.221,1.199 1.023,-0.232 2.928,1.793 1.388,0.028 0.626,0.607 2.128,1.001 13.544,3.529 3.501,0.46 1.419,0.856 3.791,0.563 1.327,0.864 0.607,-0.177 1.67,0.548 0.631,-0.131 1.118,1.14 0.535,-0.221 1.299,0.455 1.103,1.49 0.419,-0.485 1.298,-0.049 0.775,0.384 1.653,0.159 0.798,1.023 0.365,-0.266 1.288,0.063 0.554,0.408 1.621,0.216 5.348,1.738 1.093,0.087 0.406,-0.656 1.24,1.081 0.509,-0.324 0.173,0.367 0.456,0.026 0.374,-0.564 0.078,0.504 0.403,0.09 0.163,0.419 -0.335,0.063 -0.133,-0.296 -0.483,1.539 -0.219,0.295 -0.266,-0.154 -0.492,1.622 -0.486,0.844 -0.322,0.006 -0.202,1.429 -0.197,0.376 -0.282,-0.061 -0.288,1.418 -0.223,0.316 -0.31,-0.331 -1.428,2.888 -0.858,0.942 -0.05,0.973 -1.231,1.08 -0.142,1.224 -1.148,1.2 -0.746,2.347 -0.222,-0.403 -1.621,1.646 -1.706,0.408 -0.578,0.931 -1.564,0.635 -3.827,3.96 -1.32,0.448 -1.14,0.951 -3.999,2.271 -1.688,0.551 -2.52,1.767 -5.485,2.507 -1.513,0.393 -3.474,2 -1.494,1.318 -1.455,0.209 -2.846,1.528 -4.169,0.965 -1.692,0.985 -4.785,1.045 -8.957,4.686 -2.006,1.371 -1.494,0.734 -1.267,0.204 -2.833,1.944 -0.341,-0.399 -0.354,0.063 -0.257,0.674 -0.907,0.728 -0.447,-0.285 -0.345,0.791 -0.135,-0.708 0.578,1.372 0.446,-0.42 0.16,0.41 0.343,-0.145 0.012,0.436 0.227,-0.38 2.642,-0.559 0.824,0.404 2.622,-0.64 -0.499,0.123 -0.093,0.445 -0.246,-0.485 -0.683,-0.286 -0.146,0.543 -0.288,-0.713 -0.458,0.13 -1.267,-1.189 -0.278,0.637 -0.484,0.032 -0.336,-0.641 -1.012,-0.558 -0.987,0.107 -1.624,-1.263 -3.795,-1.411 -2.087,-0.173 -6.666,-1.429 -0.576,-0.35 -9.439,-0.243 -0.695,-0.536 -0.885,-0.176 -0.854,0.415 -2.974,0.234 -2.041,-0.963 -4.755,0.708 -1.593,-0.764 -0.735,0.401 -2.233,0.104 -1.302,-1.085 -1.392,0.617 -2.282,0.141 -1.111,-0.573 -2.037,0.129 -1.064,-0.6 -2.594,0.01 -0.912,-0.476 -0.985,0.184 -4.39,-0.316 -3.264,-0.948 -0.554,0.269 -1.041,-0.609 -2.073,-0.318 -0.633,-0.463 -1.212,0.051 -0.725,-0.376 -1.707,0.169 -0.946,-0.567 -1.812,0.209 -2.884,-0.598 -0.677,-0.594 -3.459,-1.51 -0.602,0.232 -1.233,-1.467 -0.472,0.227 -0.956,-1.82 -1.056,-0.361 -0.654,-0.915"
           id="path67" />
      </g>
      <g
         id="g68">
        <path
           fill="none"
           stroke="#000000"
           stroke-width="4"
           stroke-linecap="round"
           stroke-linejoin="round"
           d="m 339.28,852.985 5.44,-4.139 5.627,-3.069 3.792,-2.642 3.279,-1.325 7.079,-3.684 2.151,-1.246 1.465,-1.346 3.387,-1.61 1.599,-1.462 0.701,0.114 2.261,-0.863 1.453,-1.157 3.348,-0.938 0.698,-1.086 0.81,-0.608 0.646,0.389 2.351,-0.4 1.142,-1.299 1.899,0.256 1.363,-0.266 1.4,-1.093 0.611,0.32 2.409,-0.201 6.093,-1.312 1.592,-0.693 4.737,-1.199 3.454,-1.637 1.09,0.12 2.404,-1.404 0.913,0.251 1.189,-1.286 0.532,-0.118 0.644,0.735 0.214,-0.819 0.329,-0.109 0.495,0.767 0.22,-0.653 -0.716,-0.485 0.001,0.286 0.554,0.029 -0.09,0.352 0.227,-0.327 -0.257,0.087 0.468,0.562 0.5,-0.14 0.631,0.868 0.3,-0.367 0.825,0.047 0.871,0.483 2.225,0.102 1.044,0.822 0.484,-0.26 4.774,0.605 0.919,-0.152 2.786,0.779 1.139,-0.142 1.971,0.635 0.448,0.018 0.467,-0.634 0.522,-0.056 1.533,0.888 3.045,0.608 1.254,-0.828 0.385,0.533 1.341,0.414 0.301,-0.774 0.546,-0.274 0.425,0.725 4.708,1.456 6.085,0.497 1.94,0.686 2.259,-0.121 3.245,0.552 2.858,0.064 1.591,0.497 1.08,-0.403 2.952,1.557 2.739,-0.059 6.7,1.686 1.714,0.955 0.643,0.874 0.307,-0.191 0.763,0.441 0.522,1.032 1.132,0.071 0.651,0.965 0.317,-0.436 0.782,0.153 0.438,1.168 0.477,-0.378 0.705,0.052 0.45,0.516 0.3,-0.198 1.045,0.306 0.147,0.424 0.716,0.348 0.379,0.82 0.829,0.37 0.715,0.921 -0.082,0.346 0.5,-0.1 0.669,0.841 0.572,0.439 0.041,-0.239 0.838,1.222 -0.347,4.097 -2.582,4.14 -2.005,1.251 -0.917,1.213 -1.093,0.632 -0.695,1.162 -1.243,0.641 -1.391,1.429 -1.126,0.572 -0.293,-0.148 -0.618,0.8 -3.807,2.757 -0.51,-0.558 -1.367,1.873 -0.595,0.222 -0.334,0.969 -1.226,0.711 -2.151,2.257 -0.719,1.46 -0.334,-0.221 -0.969,0.564 -0.848,1.345 -1.443,0.315 -1.264,1.495 -0.323,-0.291 -0.847,0.576 -0.634,1.418 -0.625,-0.093 -1.267,0.618 -0.756,1.403 -0.325,-0.13 -2.531,2.464 -1.956,1.253 -0.782,1.472 -1.618,0.91 -1.822,1.921 -6.17,3.552 -1.375,-0.037 -3.657,2.379 -5.005,1.91 -0.64,-0.377 -0.529,0.879 0.409,-0.742 0.431,-0.086 -0.213,-0.233 0.227,-0.919"
           id="path68" />
      </g>
      <g
         id="g69">
        <path
           fill="none"
           stroke="#000000"
           stroke-width="4"
           stroke-linecap="round"
           stroke-linejoin="round"
           d="m 346.619,942.716 -0.134,-1.5 0.337,-4.386 -0.165,-5.326 -0.561,-6.665 -0.817,-3 -0.258,-3.38 -1.054,-1.717 -0.352,-3.011 -1.367,-2.602 -0.175,-0.746"
           id="path69" />
      </g>
      <g
         id="g70">
        <path
           fill="none"
           stroke="#000000"
           stroke-width="4"
           stroke-linecap="round"
           stroke-linejoin="round"
           d="m 437.727,985.767 0.18,-2.94 -0.616,-3.998 0.217,-5.122 0.452,-3.432 1.501,-6.163 -0.055,-1.395 1.128,-7.45 2.015,-8.906 0.304,-3.29 0.492,-1.246 0.061,-2.725 0.506,-1.258 -0.093,-6.578 0.302,-2.315 -0.245,-3.516 -0.636,-3.159 0.266,-6.017 -0.328,-1.315 0.311,-2.483 -0.47,-2.676 0.046,-3.03 -2.277,-7.583 -0.162,-0.171 -0.237,0.457 -1.105,-3.38 -0.108,0.757 -0.259,0.082 -0.244,-1.84 -0.167,0.9 -0.212,-1.688 -0.633,-0.233 -0.234,-1.344 -0.187,0.316 -0.444,-0.878 -0.049,0.623 -0.064,-0.286 -0.212,0.377 0.249,2.329 -0.487,5.363 0.504,3.68 -0.111,1.696 2.629,9.056 1.208,10.196 0.081,3.462 0.457,1.422 -0.277,0.242 0.136,3.846 -0.291,4.089 0.422,1.562 -0.273,-0.12 -0.307,7.16 0.323,12.291 -0.883,12.897 0.002,6.089 0.255,0.803 -0.134,5.964 -0.302,0.524 0.017,0.241 0.22,-0.194 -0.033,0.386"
           id="path70" />
      </g>
      <g
         id="g71">
        <path
           fill="none"
           stroke="#000000"
           stroke-width="4"
           stroke-linecap="round"
           stroke-linejoin="round"
           d="m 506.512,906.176 -0.023,-4.861 -0.419,-4.649 -0.32,-0.86 -1.004,-19.605 -0.15,-1.145 -0.083,0.283 -1.402,-3.272 -0.193,-1.971 -0.115,0.191 -0.203,-0.263 -0.44,-2.655 -0.379,-0.495 -1.083,-7.381 0.318,-1.866 -0.362,-1.09 -0.071,-1.96 -0.552,-0.634 -0.313,-1.178 0.023,-1.535 -0.588,-1.021 0.063,-0.898 -0.826,-0.865 0.137,-0.37 -0.517,-1.14 -0.169,-1.842 0.21,-1.097 0.183,-0.362 0.047,0.416 0.265,-0.598 -0.082,1.006 0.392,0.576 0.396,3.64 0.56,1.026 0.049,4.517 0.775,8.936 1.75,14.386 0.171,5.194 0.834,6.02 0.107,11.257"
           id="path71" />
      </g>
      <g
         id="g72">
        <path
           fill="none"
           stroke="#000000"
           stroke-width="4"
           stroke-linecap="round"
           stroke-linejoin="round"
           d="m 502.299,899.124 -0.551,-7.37 0.196,-1.687 -0.522,-4.829 0.215,-2.081 -0.594,-4.223 0.207,-2.486 -0.527,-15.571 0.654,-15.591 -0.424,1.738 0.535,4.625 -0.379,11.262 0.353,2.436 -0.346,5.611 0.558,4.056 0.647,12.109 2.191,14.605 -0.119,0.964"
           id="path72" />
      </g>
      <g
         id="g73">
        <path
           fill="none"
           stroke="#000000"
           stroke-width="4"
           stroke-linecap="round"
           stroke-linejoin="round"
           d="m 506.133,928.735 0.08,0.654 0.75,12.157 -0.643,13.806 -0.633,2.296 0.413,2.085 -0.159,-0.478 -0.145,1.238 0.015,0.047"
           id="path73" />
      </g>
      <g
         id="g74">
        <path
           fill="none"
           stroke="#000000"
           stroke-width="4"
           stroke-linecap="round"
           stroke-linejoin="round"
           d="m 415.148,852.306 -1.589,-0.981 -0.163,-0.635 -0.744,-0.681 -0.157,-0.784 -0.73,-0.213 -0.154,-0.866 -0.274,-0.188 -0.137,0.288 -0.896,0.184 -0.545,-0.604 -0.896,0.321 -0.825,-0.791 -0.777,0.866 -0.014,0.404 -1.038,0.035 -1.388,1.576 -0.85,0.324 -2.086,3.366 -0.407,2.728 0.744,2.11 0.27,0.32 0.599,-0.242 1.232,1.805 0.261,-0.804 0.424,-0.103 0.483,1.287 0.703,-0.731 0.16,0.434 0.592,0.278 0.547,-0.939 0.167,0.39 0.346,-0.032 1.029,-1.215 0.601,-0.26 0.834,-0.798 0.629,-1.459 0.644,-0.192 1.003,-1.011 1.435,-3.715 -0.018,-0.94 -0.432,-0.667 -0.13,0.319 -0.071,-0.871 -0.567,-0.84 -0.138,0.831 -0.295,-1.066 -0.631,-0.431 -0.337,0.56 -0.96,-0.81 -0.518,0.838 -0.205,-0.34 -0.792,0.435 -3.823,4.609 -0.266,2.193 -0.484,0.994 0.294,1.88 -0.268,0.662 1.032,1.29 0.286,-0.244 0.811,0.796 0.315,-0.315 1.16,0.515 1.568,-0.227 0.582,0.386 0.187,-0.579 0.667,-0.371 0.711,-1.338 1.008,-0.673 1.565,-2.281 0.992,-2.787 -0.094,-0.873 0.415,-0.649 -0.564,-2.225 -0.856,-1.036 -0.377,-1.244 -1.13,-0.946 -0.185,-0.637 -0.297,-0.162 -0.541,0.305 -0.397,-1.062 -0.291,1.587 -0.476,-0.751 -1.164,2.802 -0.281,-0.265 -0.383,0.153 -2.227,4.01 -0.958,2.639 -0.041,2.663 0.031,-0.268 0.478,0.814 -0.006,0.816 0.246,-0.417 0.546,0.043 0.544,-0.378 0.386,0.676 0.333,-0.498 1.79,-0.285 1.581,-1.039 0.139,-0.386 0.878,-0.23 1.009,-0.776 0.988,-1.72 1.734,-2.05 -0.18,-0.405 0.287,0.028 0.17,-0.992 -0.528,-1.034 -0.639,-0.229 -0.049,0.463 -0.326,-0.59 -0.547,0.036 -0.571,0.969 -1.024,-0.762 -0.212,0.533 -0.541,-0.325 -0.256,0.178 -0.744,1.365 -0.426,0.067 -1.117,1.487 -0.388,1.669 0.384,1.178 0.566,0.93 0.244,-0.215 0.373,1.1 0.202,0.19 0.135,-0.716 0.279,-0.076 0.429,1.023 0.448,-1.245 0.745,1.071 0.428,-0.639 0.202,0.316 0.461,-0.087 0.368,-0.686 1.105,-0.407 0.422,-1.624 0.109,0.449 0.81,-0.594 0.391,-1.26 0.042,-1.749 -0.091,0.353 -0.178,-0.125 0.287,-0.069 -1.094,-0.695 -0.305,0.263 -0.857,-0.802 -0.292,0.306 -1.515,0.022 -2.121,1.868 -0.812,0.452 -0.229,-0.214 -1.018,2.63 0.162,0.869 -0.487,0.658 0.582,-0.394 0.828,1.553 3.513,1.988"
           id="path74" />
      </g>
      <g
         id="g75">
        <path
           fill="none"
           stroke="#000000"
           stroke-width="4"
           stroke-linecap="round"
           stroke-linejoin="round"
           d="m 356.786,885.135 -0.431,-0.025 0.174,-0.458 0.247,0.652 0.272,-0.8 0.251,0.156 -0.333,-0.168 0.457,-0.209 0.144,0.3 0.149,-0.243 -0.182,-0.13 -0.052,0.476 -0.337,-0.694 -0.194,0.238 -0.435,-0.247 -0.451,0.558 -0.918,-0.771 -1.655,0.368 -0.533,-0.342 -2.128,1.054 -0.344,-0.754 -0.582,-0.202 -0.352,0.81 -1.258,0.756 -0.56,-0.768 -0.92,0.971 -0.491,-1.148 -0.082,0.593 -0.427,0.278 -0.063,-0.83 -0.385,0.728 -0.046,-1.123 0.082,0.688 -1.102,0.922 -0.081,-0.283 -1.292,1.941 -0.487,0.223 -1.289,4.22 0.162,0.684 -0.354,1.32 -0.332,4.623 0.392,1.207 -0.592,6.351 0.358,1.295 -0.023,2.847 1.221,6.911 1.256,9.901 -0.108,2.222 0.566,2.116 0.24,3.708 1.217,9.037 0.429,0.769 0.529,6.233 0.227,0.02 0.206,2.514 -0.293,1.29 0.308,1.976 -0.22,1.19 0.229,0.031 0.265,1.187 -0.542,0.681 0.434,0.031 -0.021,1.225 0.827,1.531 -0.356,0.814 0.649,1.825 -0.027,1.33 1.202,3.84 0.193,-0.588 0.325,2.659 0.255,0.317 0.04,-0.938 -0.1,0.56 -0.306,-0.635 0.29,-0.263 -0.799,-4.801"
           id="path75" />
      </g>
      <g
         id="g76">
        <path
           fill="none"
           stroke="#000000"
           stroke-width="4"
           stroke-linecap="round"
           stroke-linejoin="round"
           d="m 342.03,892.056 -0.593,-1.199 -0.426,-2.045 -0.028,-4.725 0.047,2.324 -1.269,5.973 -0.837,8.46 -0.283,12.128 0.903,13.258 1.242,10.895 2.734,18.877 0.4,7.662 1.274,10.808 0.378,-0.436 0.323,2.422 0.302,-0.714 0.025,-1.862"
           id="path76" />
      </g>
      <g
         id="g77">
        <path
           fill="none"
           stroke="#000000"
           stroke-width="4"
           stroke-linecap="round"
           stroke-linejoin="round"
           d="m 340.69,892.314 -1.325,-5.108 0.216,-1.312 0.134,2.949 0.349,0.766 0.752,21.398 1.005,7.541 1.38,20.245 1.002,9.033 0.683,2.134 0.647,6.628 0.559,1.441 0.508,4.864 0.952,4.676 -0.052,1.839 0.622,0.996 0.127,3.073 0.682,2.087"
           id="path77" />
      </g>
      <g
         id="g78">
        <path
           fill="none"
           stroke="#000000"
           stroke-width="4"
           stroke-linecap="round"
           stroke-linejoin="round"
           d="m 351.6,852.101 -0.114,-0.756 0.062,0.602 0.235,-0.386 0.237,0.547 0.622,-0.059 0.225,-0.354 0.024,0.249 -0.011,-0.383 -0.304,0.456 -0.782,-0.408 -0.863,0.35 -0.271,-0.504 -1.252,0.787 -0.153,-0.882 -0.398,-0.142 -0.244,0.811 -1.319,0.926 -0.846,-0.293 -0.788,1.061 -1.599,0.969 -0.376,-0.46 -0.533,0.201 -0.411,0.995 -1.44,1.514 -1.164,0.599 -0.574,1.24 -0.552,0.749 -0.388,0.005 -0.743,1.372 -0.09,1.952 -0.406,0.036 0.253,0.302 -1.092,2.773 0.229,0.356 -0.245,-0.015 -0.196,0.928 0.312,-0.418 0.533,2.603 0.099,-0.439 0.405,1.5 0.546,-0.067 0.629,0.78 0.238,-0.139 1.242,1.799 1.02,0.077 0.334,0.813 0.201,-0.223 0.657,0.136 0.549,0.552 0.857,-0.458 0.316,0.397 0.999,-0.534 0.54,0.428 1.612,0.15 2.007,0.938 1.109,-0.256 0.53,0.34 1.691,0.081 1.186,-1.12 1.194,0.761 1.34,0.15 3.604,-0.277 0.841,-0.501 0.631,0.258 0.656,-1.154 0.56,0.573 -0.256,0.138 0.188,0.239 -0.201,0.104 0.005,-0.45 -0.083,0.334 0.378,0.167 -0.154,0.321 0.707,-0.321 -0.056,0.305 -0.207,-0.933 0.14,0.578 -0.189,-0.538 -0.059,0.727 -0.305,0.189 -0.125,-0.372 -0.57,0.314 -0.25,-0.194 -0.548,0.843 -0.204,-0.67 -0.836,-0.367 -0.745,0.644 -0.404,-0.068 -0.335,-0.536 -1.144,-0.536 -0.587,1.042 -0.764,0.131 -0.404,-1.032 -1.544,-0.507 -0.942,0.666 -1.028,-0.848 -1.524,-0.669 -1.095,0.447 -0.521,-0.599 -1.456,-0.422 -0.897,0.482 -2.1,-0.762 -1.009,0.739 -0.346,-0.42 -2.355,-0.422 -1.285,-0.856 -0.796,0.24 -1.681,-0.907 -1.283,-0.302 -0.22,-0.504 -1.181,0.194 0.083,-0.637 0.144,0.375 -0.222,0.09 0.177,-0.445 0.277,0.047 0.546,0.786 0.406,-0.369 4.401,1.584 6.31,1.491 8.091,1.342 0.888,0.479 2.152,-0.186 -0.302,0.517 -0.783,-1.049 -0.605,-0.023 -0.13,-0.992 -0.061,0.583 -0.628,-0.101 -0.337,-1.163 -0.435,0.483 -0.809,-0.331 -0.266,-1.22 -0.532,-0.7 -0.353,0.629 -2.95,-1.025 -2.254,-0.262 -1.23,-0.951 -2.29,-0.214 -0.599,0.268 -2.453,-0.649 -0.693,0.541 -1.332,-0.733 -0.228,0.978 -0.275,0.089 -0.1,-0.804 -0.397,-0.176 -0.357,0.647 -0.054,-0.529 0.318,-0.257 -0.211,1.039 0.341,-1.466 0.277,-0.305 -0.077,0.829 -0.052,-0.82 0.564,-1.934 2.551,-3.695 0.782,-2.033 1.098,-1.143 0.276,-0.872 0.91,-1.09 1.183,-0.572 -0.253,-0.316 0.607,-0.576 0.608,0.162 1.094,-0.69 0.068,-0.366 0.364,0.081 0.496,-0.805 1.355,-0.931 0.793,-1.379 0.637,-0.013 0.677,-1.021 1.984,-1.484 0.902,-1.137 4.04,-3.011 5.133,-2.513 0.788,-1.115 0.392,0.117 1.193,-0.793 0.86,-1.303 5.015,-2.233 1.671,-1.712 0.27,0.242 1.013,-0.281 0.82,-1.582 0.257,0.576 1.278,-0.01 0.598,-0.989 2.256,0.152 0.666,-0.886 0.366,0.219 1.477,-0.333 3.385,-1.39 5.265,-1.418 1.905,0.079 2.359,-0.923 3,-0.627 1.551,-0.991 1.148,0.387 0.797,-0.276 1.737,0.328 2.087,-1.115 2.806,0.596 1.075,-0.277 1.352,-0.858 6.415,-0.731 1.21,0.336 0.615,-0.409 2.04,-0.34 1.281,0.361 3.223,-0.714 0.616,0.844 0.722,0.191 0.633,-0.746 2.078,-0.299 0.816,1.113 0.846,-0.766 1.395,-0.32 0.7,0.617 0.356,-0.39 1.548,0.039 0.453,0.889 0.417,0.125 0.281,-0.389 0.819,-0.078 0.212,0.542 0.425,0.142 0.309,-0.297 1.18,0.206 0.798,0.596 1.583,0.385 0.909,0.914 0.423,-0.202 1.995,0.324 1.97,0.658 1.37,-0.038 3.084,0.742 1.01,-0.47 0.575,0.446 1.703,0.409 0.901,-0.141 0.481,0.452 1.822,0.445 0.721,-0.208 0.596,0.681 3.728,1.927 0.364,-0.54 0.497,-0.064 0.351,0.728 1.175,0.719 0.823,1.019 1.232,0.528 0.582,0.237 1.002,-0.238 2.074,1.025 5.175,1.16 0.939,0.736 2.489,-0.6 0.966,0.537 0.579,-0.322 0.936,0.687 0.447,-0.842 0.677,1.424 0.302,-0.518 0.47,1.32 0.175,-0.301 0.795,1.81 0.013,0.716 0.506,0.305 -0.298,1.541 -0.369,0.006 -0.209,2.304 -0.285,0.477 0.072,-0.619 -0.154,2.586 0.024,-0.338 0.231,0.355 -0.607,1.05 -0.541,2.102 -0.647,0.315 -1.068,1.761 -0.591,0.188 -0.941,1.648 -0.594,0.181 -0.569,0.662 0.034,0.532 -0.282,-0.52 -0.375,0.155 -0.221,0.818 -0.494,0.4 0.18,0.572 -1.221,0.906 0.066,0.506 -0.217,-0.21 -0.83,0.799 -0.247,0.825 -2.729,2.089 -1.895,0.933 -1.25,1.514 -2.324,1.438 -0.989,1.265 -2.729,1.405 -0.84,0.917 -1.303,0.565 -0.03,-0.531 -0.393,-0.146 -0.588,1.199 -1.174,1.012 -0.173,-0.39 -0.408,0.012 -0.735,1.089 -1.021,0.564 -0.753,-0.006 -2.449,1.645 -0.99,-0.187 -1.564,1.401 -2.79,1.133 -2.24,1.279 -1.407,1.271 -3.352,1.486 -0.604,1.531 -0.771,0.865 -0.477,-0.705 -1.37,0.296 -0.463,0.209 -0.845,1.44 -1.061,-0.201 -1.503,0.711 -0.518,1.393 -0.682,0.54 -0.323,-0.771 -1.399,0.054 -0.874,1.044 -0.653,-0.423 -1.092,-0.118 -0.913,1.007 -0.419,-0.494 -1.524,0.048 -0.34,-0.24 -2.789,0.288 -0.647,0.539 -1.235,-0.35 -1.161,0.233 -2.986,-0.583 -2.018,0.056 -1.555,-0.555 -2.215,0.252 -1.168,-0.902 -2.531,0.462 -0.826,-10e-4 -1.237,-0.682 -2.182,0.277 -1.191,-0.938 -1.091,0.447 -1.924,0.063 -2.588,-0.772 -1.136,0.254 -1.368,-0.785 -1.156,-0.368 -1.197,0.08 -3.707,-1.486 -0.319,-0.434 -2.787,-1.378 -2.828,-0.17 -1.683,-1.243 -0.491,-0.103 -0.365,0.294 -1.331,-0.254 -1.451,-0.948 -1.906,0.196 -0.416,-1.075 -0.658,-0.334 -0.435,0.817 -1.478,0.201 -0.811,-1.556 -0.916,0.797 -1.641,0.425 -1.281,-1.008 -0.62,0.446 -1.912,-0.076 -0.841,-0.546 -2.255,-0.203 -2.321,-0.841 -0.805,0.327 -0.369,-0.473 -1.433,-0.525 -0.924,0.419 -0.909,-1.011 -0.46,0.755 -0.531,0.1 -0.399,-0.727 -0.784,-0.338 -0.966,1.082 -1.685,-1.484 -0.577,0.865 -0.599,0.201 -0.369,-0.81 -0.972,-0.588 -0.617,0.126 -1.036,-1.223 -0.578,0.249 -2.801,-2.051 -0.526,0.064 -2.29,-0.962 -0.353,0.169 -2.318,-1.117 0.008,-0.229 -0.233,0.448 -0.152,-0.475 -1.647,-0.955 -0.084,-0.504 -0.129,0.51 -0.111,-0.534 -0.201,0.274 -0.049,-0.774 -0.463,-0.385 -0.211,0.191 -0.297,-0.573 -0.237,0.621 0.232,-0.918 0.542,1.396 -0.026,1.036 1.156,4.815 0.243,2.865 1.078,1.919 1.338,4.732 0.482,3.174 2.07,5.267 0.481,2.724 1.198,3.481 0.941,6.256 0.811,2.144 0.376,2.306 0.9,1.697 0.07,0.86 0.301,0.086 0.238,-0.136 -0.603,-0.162 -0.114,-1.718 -0.36,-0.715 -0.148,-4.751 -0.99,-5.022 -1.438,-4.579 -0.237,0.077 -0.33,-0.623 -0.509,-2.505 -3.389,-9.331 -2.655,-9.983 -1.206,-2.283 -0.642,-4.21 1.376,10.419 0.36,9.651 0.672,3.354 3.317,25.383 1.726,10.375 0.282,4.423 0.865,3.684 3.065,20.143 1.301,2.966 0.322,2.089 0.94,1.992 0.214,2.005 0.449,0.962 0.272,-0.025 -0.105,0.231 -0.035,-1.304 0.082,0.856 1.487,-2.868 0.279,0.666 0.394,0.111 0.663,-1.269 1.417,-0.978 2.032,0.793"
           id="path78" />
      </g>
      <g
         id="g79">
        <path
           fill="none"
           stroke="#000000"
           stroke-width="4"
           stroke-linecap="round"
           stroke-linejoin="round"
           d="m 349.585,978.436 -1.474,-0.164 -0.424,-0.443 0.184,-0.283 0.159,0.87 0.135,-0.639 0.236,-0.217 0.269,0.434 0.579,-0.908 0.319,0.765 0.324,-0.773 0.183,0.994 0.373,-0.608 2.219,-0.432 0.779,0.05 0.745,0.785 2.48,0.113 3.266,1.263 0.734,0.88 2.172,1.198 2.641,3.428 1.02,0.326 0.502,-0.471 2.247,1.659 0.34,-0.259 0.826,0.179 0.448,-0.372 0.696,0.484 1.297,0.232 0.679,0.754 0.781,-0.334 1.987,0.254 1.355,0.636 0.621,-0.059 2.059,1.107 0.245,-0.428 0.062,0.39 -0.108,-0.482 -0.209,0.551 -0.194,-0.414 0.01,0.369 -0.238,-1.086 -0.169,0.463 -0.622,0.134 -0.222,-0.952 -0.049,0.438 -0.624,-0.052 -0.256,-1.308 -0.533,0.482 -1.185,-0.123 -0.715,-1.057 -0.378,0.368 -1.889,-0.136 -0.86,-0.533 -2.373,-0.363 -1.184,-0.785 -3.381,-0.574 -1.589,0.121 -3.223,-0.903 -1.574,0.465 -5.091,-2.631 -2.4,-0.474 -1.268,0.481 -1.883,-1.123 -0.263,0.585 0.275,-0.317 0.487,0.161 -0.035,-0.349 1.047,1.197 0.359,1.152 0.261,-0.164 1.542,0.63 0.824,0.786 2.043,0.27 0.431,1.195 0.65,0.714 0.569,-0.685 2.006,0.024 2.084,0.828 0.715,-0.247 3.832,0.452 1.585,-0.152 3.106,0.742 3.726,-0.061 1.131,0.48 0.52,-0.25 2.776,0.248 1.672,-0.254 0.555,0.497 1.23,-0.231 0.463,-0.421 0.929,0.335 0.383,-0.511 1.074,0.844 0.685,-0.681 0.303,0.478 0.884,0.299 0.799,-0.835 0.217,0.638 1.124,0.764 1.575,0.426 0.703,-0.689 1.429,0.954 3.503,0.449 0.871,0.622 0.783,-0.477 1.229,1.105 1.479,0.283 0.754,0.733 1.248,-0.291 0.787,0.679 0.838,-0.212 0.262,0.318 0.396,-0.29 1.07,0.339 0.576,-1.205 0.204,0.701 0.822,0.511 0.364,-0.533 0.612,0.625 0.817,0.145 0.198,-0.807 0.388,-0.289 0.226,0.691 0.595,0.322 0.706,-0.054 1.439,0.904 0.512,-0.329 1.691,1.226 3.601,0.38 0.207,0.585 0.44,0.23 0.271,-0.447 0.97,-0.033 0.559,0.86 0.449,-0.026 0.356,-0.488 1.066,-0.182 0.632,0.977 0.202,-0.527 0.96,-0.332 0.427,0.972 0.493,-0.729 0.731,-0.298 0.62,0.347 0.785,-0.184 1.036,0.573 0.996,-0.069 0.379,0.698 0.979,0.148 0.214,-0.299 0.785,0.433 0.569,-0.297 1.985,0.765 0.676,-0.906 0.477,0.733 0.821,-0.369 0.38,0.496 0.474,-0.993 0.24,1.379 0.805,0.234 0.425,-0.39 0.507,0.05 0.158,0.329 0.198,-0.37 1.441,-0.525 0.226,0.343 1.019,-0.573 0.145,-0.63 0.519,0.113 -0.028,-0.38 0.344,0.089 -0.12,-1.106 -0.231,0.674 -0.08,-0.393 -0.19,0.19 0.296,-2.615 -1.38,-6.962 -0.655,-1.337 -0.137,0.49 -0.598,-4.088 0.175,-1.475 -0.137,0.386 -0.132,-0.96 0.239,-0.605 -0.356,-1.518 -0.616,1.473 0.264,-0.024 -0.037,0.512 0.732,1.525 0.019,1.183 0.993,2.796 -0.15,0.558 0.491,2.955 0.191,-0.265 0.537,1.817 -0.47,0.386 0.128,0.935 0.255,-0.351 0.007,0.497 0.213,-0.093 -0.327,0.239 0.237,0.061 -0.169,0.187 -0.188,-1.16 0.092,-1.812 -0.029,0.473 -0.262,-0.723 -0.099,-1.947 -0.778,-1.38 -0.695,-5.827 -0.202,0.401 -0.659,-0.739 0.128,-0.366 0.07,0.717 0.012,-0.513 0.465,0.769 -0.221,0.546 0.445,1.477 -0.173,3.103 0.621,1.357 -0.265,1.389 0.371,2.247 -0.262,1.932 0.438,0.266 -0.213,-0.225 -0.012,1.567 -0.447,0.773 -0.162,-0.433 0.053,0.428 -0.352,-0.036 0.031,-0.487 -0.424,-0.081 -0.491,-2.983 -0.62,-1.1 -0.36,-3.855 1.294,-22.107 0.233,-10.81 -0.407,-19.839 -0.497,-4.218 -0.202,0.4 -0.178,-0.889 -0.336,-0.107 -0.079,0.246 -0.16,-0.663 -0.053,0.522 0.105,-0.225 -0.386,0.012 0.279,0.271 0.069,-0.382 0.033,0.44 -0.427,0.736 -0.394,4.054 -0.577,1.675 -0.313,18.298 0.568,7.768 1.34,9.508 0.506,1.396 0.09,3.641 0.378,0.548 0.021,2.497 0.416,1.096 -0.055,2.123 0.407,0.818 0.1,4.819 0.133,0.367 0.208,-0.335 0.893,5.183 -0.041,-0.714 -0.348,-0.008 -0.025,0.533 -0.139,-0.595 -0.036,1.023 -0.196,-0.604 -0.15,0.953 0.017,-0.302 -0.306,0.23 -1.376,2.62 -0.59,0.341 -0.922,1.449 -1.7,1.036 -1.53,-0.02 -0.803,0.428 -1.591,0.015 -0.215,-0.602 -0.49,-0.128 -0.333,0.545 -1.456,-0.026 -0.734,-0.623 -0.633,0.416 -4.082,0.292 -0.691,-0.621 -0.59,0.56 -1.438,0.193 -0.394,0.492 -0.869,-0.345 -0.588,0.173 -1.955,-0.822 -2.903,-1.802 -1.786,-0.139 -0.835,-0.617 -1.094,-0.044 -0.71,-0.576 -2.438,-0.466 -0.721,-1.106 -0.679,0.668 -0.661,0.141 -0.508,-0.485 -1.314,0.565 -0.813,-1.744 -0.22,0.968 -1.069,0.473 -0.675,-0.835 -0.298,0.544 -1.133,0.658 -0.783,-1.089 -0.224,0.518 -0.592,0.064 -0.981,-0.345 -1.509,0.158 -0.407,-0.644 -1.485,-0.051 -0.425,0.43 -0.469,-0.658 -1.049,-0.244 -0.692,0.436 -0.448,-0.602 -0.922,-0.395 -0.428,1.182 -0.469,0.193 -0.248,-0.9 -0.858,-0.305 -0.469,0.216 -0.361,0.73 -0.814,-0.943 -1.178,-0.722 -0.974,0.282 -0.401,-0.441 -1.247,-0.229 -0.878,0.737 -2.153,-1.949 -2.416,-0.01 -1.627,-1.091 -1.9,-0.665 0.09,-0.283 -1.922,-0.46 -0.685,0.309 -2.297,-1.37 -2.112,-0.347 -0.571,0.733 -0.26,-0.539 -1.296,-0.823 -0.701,0.352 -1.52,-0.386 -0.872,0.796 -0.345,-0.411 -1.286,-0.134 -0.738,0.475 -1.803,-0.442 -0.598,0.425 -1.18,-0.86 -0.355,0.319 -0.751,-0.481 -0.534,0.135 -0.848,-0.339 -0.119,-0.609 -0.769,0.04 -0.318,-0.65 -0.507,0.673 0.103,0.403 0.118,-1.192 -0.007,1.009 0.089,-0.543 0.233,0.837 0.312,-1.053 0.819,1.784 1.045,-0.246 0.456,0.816 2.488,1.893 6.257,2.338 11.331,1.629 6.231,0.55 3.306,0.98 3.297,-0.454 4.878,-0.123 1.37,-0.766 1.561,-0.279 1.521,0.465 5.644,0.025 2.113,0.485 3.967,0.075 0.381,-0.619 0.627,-0.16 0.508,0.552 2.629,0.598 2.007,0.122 0.696,-0.378 6.496,0.738 0.828,1.135 0.256,-0.45 1.197,-0.115 0.415,0.511 0.773,-0.516 0.277,1.317 0.24,-1.07 0.548,-0.195 0.277,0.979 0.505,-1.104 0.253,0.706 0.319,-10e-4 1.071,1.596 0.741,0.448 0.546,0.978 0.684,-0.282 0.543,0.733 0.352,-0.871 0.479,1.33 0.337,-0.665 0.345,0.358 0.069,-1.09 0.356,-0.344 0.057,0.679 0.582,0.401 0.858,-1.344 0.568,0.253 1.198,-0.62 -0.243,0.113 -0.107,-0.512 0.508,-0.157 -0.281,-0.081 0.391,-0.843 -0.175,-1.03 0.241,-2.003 0.337,-0.589 -0.166,-1.98 0.24,-3.473 0.103,0.291 0.158,-0.382 -0.073,-2.033 -1.537,9.9 0.087,2.992 0.842,1.27 -0.173,1.46 0.304,2.175 0.202,-0.492 0.073,0.562 -0.013,-0.32 -0.245,0.04 0.241,-0.361 -0.277,0.075 0.408,0.008 -0.042,-0.704 0.699,-0.171 0.525,-0.663 0.649,0.392 2.755,-0.517 -0.316,-0.092 -0.166,0.461 -0.017,-0.906 -0.008,0.56 -0.414,-0.526 -0.061,0.666 -0.064,-0.729 -0.189,0.614 -0.588,0.154 -0.221,-0.431 -0.949,0.867 -0.43,-0.931 -0.763,1.388 0.15,-0.344 0.199,0.33 0.007,0.663 0.1,-0.36 0.227,0.23 0.024,-0.632 0.056,1.259 0.542,-1.285 0.325,-0.193 0.299,0.328 0.226,-0.399 1.506,-0.446 0.686,0.119 2.536,-1.657 0.375,-0.886 0.73,-0.512 0.715,-0.031 5.209,-2.064 5.786,-3.019 5.545,-2.457 0.631,-0.393"
           id="path79" />
      </g>
      <g
         id="g80">
        <path
           fill="none"
           stroke="#000000"
           stroke-width="4"
           stroke-linecap="round"
           stroke-linejoin="round"
           d="m 462.883,987.063 -0.7,0.261 -1.074,0.818 -0.737,-0.29 -0.661,0.146 -0.543,0.794 -3.12,2.569 -0.013,0.368 -0.057,-0.633 0.461,0.613 0.29,-0.422 0.233,0.192 0.819,-0.607 1.772,-0.088 3.44,-2.441 0.484,-0.457"
           id="path80" />
      </g>
      <g
         id="g81">
        <path
           fill="none"
           stroke="#000000"
           stroke-width="4"
           stroke-linecap="round"
           stroke-linejoin="round"
           d="m 458.514,985.09 -7.138,4.111 -8.06,4.322 -1.353,0.226 -1.842,2.084 0.591,0.167 0.321,-1.394 0.19,0.702 0.491,0.136 0.236,-0.75 0.385,0.449 0.859,0.131 0.633,-0.756 0.491,0.198 1.07,-0.359 2.163,-1.498 5.006,-2.54 2.586,-2.371 1.12,-0.132 2.333,-1.103 1.299,-0.693"
           id="path81" />
      </g>
      <g
         id="g82">
        <path
           fill="none"
           stroke="#000000"
           stroke-width="4"
           stroke-linecap="round"
           stroke-linejoin="round"
           d="m 459.385,985.565 -3.525,2.595 -3.789,3.292 -8.919,6.401 -0.403,-0.108 -1.307,1.011 -0.424,-0.947 -0.069,0.695 -0.392,0.413 -0.066,-0.61 -0.074,1.135 0.254,-1.691 0.08,1.354 -0.011,-0.764 -0.401,1.58 0.087,-0.509 -0.003,0.53 0.348,-0.376 -0.164,0.464 -0.009,-0.559 0.315,-0.232 -0.273,0.801 0.131,-0.713 -0.314,0.783 -0.069,-0.762 -0.414,-0.175 -0.217,0.302 -0.247,-0.297 0.079,-0.786 -0.308,0.568 -0.676,-0.14 -1.916,0.542 -0.867,-0.167 0.091,0.905 0.081,-0.45 -0.323,-0.194 0.658,-0.382 -0.328,-0.046 0.452,0.64 0.087,-0.437 0.367,-0.317 -0.018,0.382 0.154,-0.572 -0.01,0.285 0.28,-1.303 0.158,0.36 0.054,-0.498 -0.065,0.231 0.352,-0.119 -0.26,-2.003 0.473,-1.589 -0.352,-0.245 0.578,-1.43 -0.096,-0.931 0.339,-1.004 -0.226,-0.649 0.36,-2.399 -0.211,-2.757 1.109,-14.378 0.546,-1.42 -0.247,-1.453 0.145,-2.762 -0.439,-2.319 0.522,-0.786 -0.36,-2.29 -0.141,0.349 -0.52,-1.852 -0.093,-1.401 -0.237,0.69 0.16,-0.404 0.108,2.683 -0.466,7.514 0.176,5.169 -0.228,5.562 0.781,5.797 0.316,4.601 -0.183,2.784 0.293,2.447 0.575,1.265 -0.206,0.627 0.226,-0.344 0.137,0.573 -0.269,0.306 0.3,-0.921 0.034,1.057 -0.404,0.54 0.257,-0.003 -0.074,1.141 0.212,-0.725 -0.058,1.455 -0.415,1.502 -0.229,-0.104 -1.538,2.387 -1.943,0.92 -0.431,0.49 -2.531,0.48 -1.268,0.74 -1.072,-0.35 -1.478,0.74 -0.128,-0.93 -0.442,-0.4 -0.144,0.75 -0.488,0.15 -0.272,-1.04 -0.771,1.12 -0.324,-0.81 -0.074,0.49 -0.465,0.23 -1.59,0.26 -0.558,-0.52 -1.332,-0.15 -0.745,0.54 -0.206,-0.49 -1.214,-0.47 -0.546,0.48 -0.589,-0.78 -0.96,-0.46 -0.972,0.15 -1.305,-0.77 -0.833,0.73 -1.382,-1.5 -1.107,0.06 -1.153,-0.98 -0.899,0.4 -2.014,-1.743 -6.53,-1.727 -1.291,0.332 -3.796,-0.867 -0.71,0.237 -2.463,-0.268 -5.2,0.133 -1.558,1.031 -0.804,-0.43 -2.444,-0.053 -0.456,-0.275 -5.988,0.339 -3.543,-0.42 -0.526,-0.492 -1.353,0.101 -2.819,-0.987 -2.35,-0.415 -4.052,-0.416 -0.721,0.313 -2.032,-0.828 -1.672,-0.235 -0.334,0.32 -1.029,-0.346 -0.354,-1.069 -0.364,0.325 -0.503,-0.92 -0.085,0.457 -0.418,0.006 -0.049,-0.643 -0.263,-0.43 -0.244,0.39 -0.221,-0.816 0.002,0.828 -0.1,-0.502 -0.112,0.402 0.085,-0.314 0.111,0.634 -0.435,0.173 0.318,-0.72 -0.081,0.823 0.181,-0.267 -0.335,0.288 0.326,-0.288 0.449,0.245 0.658,1.28 0.332,-0.475 0.893,0.285 1.282,1.126 10.843,1.701 2.579,0.853 5.117,0.274 0.992,-0.618 1.241,-0.236 1.165,0.497 5.945,0.603 7.82,-0.078 2.158,0.528 16.264,0.785 1.241,0.332 2.212,-0.317 0.683,1.044 0.795,0.41 0.514,-0.75 3.456,-0.551 0.685,0.781 0.221,-0.28 0.554,0.04 0.317,0.7 0.775,-0.36 1.165,0.39 0.199,-0.27 0.407,0.45 1.172,-0.08 0.441,0.45 0.871,0.23 0.348,-0.42 1,0.55 0.657,-0.33 0.736,0.94 0.73,-1.06 0.365,1.04 0.543,-1.5 0.507,1.54 0.602,-0.54 0.605,0.6 0.394,-1.35 0.854,1.62 3.471,-0.82 0.812,-0.06 0.161,0.68 0.53,-0.56 0.856,0.02 0.519,-0.35 0.082,0.48 0.698,-0.51 0.042,-1.26 -0.04,0.57 0.819,-0.03 0.37,-0.85 0.144,0.44 0.696,0.01 0.23,-0.33 0.732,-0.12 0.315,-0.724 0.524,-0.199 0.669,0.528 0.77,-1.223 0.404,0.102 0.79,-0.908 0.115,-0.528 0.338,0.668 0.34,-0.036 0.251,-0.82 1.411,-1.289 0.247,0.593 0.398,0.039 0.634,-1.146 0.746,-0.643 0.432,0.109 0.972,-1.2 0.385,0.709 0.243,-0.172 0.488,-1.047 2.111,-1.865 1.326,-0.323 1.313,-1.319 0.697,0.059 1.696,-1.654"
           id="path82" />
      </g>
      <g
         id="g83">
        <path
           fill="none"
           stroke="#000000"
           stroke-width="4"
           stroke-linecap="round"
           stroke-linejoin="round"
           d="m 496.343,891.881 0.097,-1.301 -0.685,-7.117 -0.19,-11.121 -0.681,-3.462 0.012,-1.547 -0.898,-2.977 0.03,-2.328 -0.347,-0.72 0.242,-2.126 -0.359,-2.764 0.297,-1.049 -0.362,-1.431 0.549,-0.826 -0.731,-2.096 0.143,-0.816 -0.727,-4.268 -0.086,-2.638 -0.241,-0.231 -0.176,-2.439 -0.47,-1.107 0.236,-0.258 -0.132,0.392 -0.174,-0.447 0.145,-1.527 0.899,5.827 0.246,5.908 1.007,7.763 0.527,1.079 0.922,6.054 1.792,7.593 2.26,14.537 0.024,2.414 0.658,3.344 -0.18,1.36 0.906,3.135"
           id="path83" />
      </g>
      <g
         id="g84">
        <path
           fill="none"
           stroke="#000000"
           stroke-width="4"
           stroke-linecap="round"
           stroke-linejoin="round"
           d="m 405.199,927.009 0.279,0.584 0.07,-0.516 1.23,-1.173 0.122,-0.973 -0.051,0.397 0.29,0.102 -0.352,-0.006 0.095,-0.191 0.035,0.345 -0.51,0.254 0.063,-0.3 0.038,0.613 -0.385,-0.141 -2.593,4.073 -0.637,2.602 0.094,1.753 1.048,1.437 1.304,0.686 0.481,-0.916 0.167,0.525 0.692,0.127 0.398,-0.583 0.105,0.253 0.799,-0.239 0.338,-1.711 0.1,0.519 0.268,-0.13 0.558,-3.696 0.056,-3.919 -0.449,-1.629 -0.404,0.056 -0.639,-0.667 -0.147,0.93 -0.136,-0.279 -0.223,0.142 -0.476,1.436 -0.536,0.058 -1.457,2.207 -1.552,3.089 -0.451,2.902 0.345,1.944 2.51,1.454 0.277,-0.247 0.854,0.155 1.363,-0.644 0.636,0.539 1.178,-1.667 0.377,-1.404 0.251,0.782 0.628,-3.874 -0.083,-2.453 -0.637,-1.811 -0.426,0.052 -0.727,-1.361 -0.577,-0.009 -1.178,-0.905 -1.328,0.303 -1.261,1.176 -0.335,-0.129 -0.633,2.032 -0.827,1.183 -0.041,-0.273 -0.266,0.23 -0.642,2.471 -0.17,2.731 0.168,-0.187 0.063,0.828 0.538,0.907 0.294,-0.296 0.808,1.318 2.848,-0.405 1.525,-1.528 0.244,-1.509 0.115,0.195 0.626,-0.917 -0.021,-1.167 0.641,-0.469 -1.423,-4.332 -0.097,0.206 -0.555,-0.455 -0.229,-0.729 -0.887,0.705 -0.265,-0.422 -0.098,0.503 -1.215,1.175 -1.959,4.083 -0.317,3.665 0.173,-0.368 0.399,0.499 0.397,-0.227 0.453,0.829 0.158,-0.391 1.282,-0.765 0.512,0.062 0.059,0.265 0.466,-1.105 0.747,-0.542 0.379,0.105 0.263,-0.563 -0.136,-0.654 0.618,-1.488 -0.127,-0.604 0.47,-1.608 -0.35,-0.668 0.126,-0.959 -0.465,-2.378 -0.383,-0.977 -0.809,-0.696 -0.023,0.611 -0.37,0.021 -0.393,-1.671 -0.707,-1.033 -0.34,0.252 -0.203,-0.27 -0.787,-0.018 -0.305,1.214 -0.049,-0.397 -0.481,0.176 -0.281,1.067 -1.048,0.96 -0.555,1.277 -0.094,1.618 -1.198,4.256 0.367,1.453 0.33,0.289 0.262,-0.377 0.622,0.589 0.602,-0.929 0.165,0.677 0.661,0.34 0.343,-1.217 0.7,1.259 0.601,-1.424 0.14,0.708 0.477,0.014 0.427,-1.856 0.269,0.961 0.384,-0.02 0.291,-1.424 0.062,0.288 0.27,-0.313 0.559,-3.454 -1.712,-3.456 0.269,-0.485 -0.517,-0.312 -0.888,-1.47 -0.586,0.411 -1.244,-1.512 -1.308,-0.577 -0.386,0.282 -0.615,-0.612 -1.729,1.338 -1.679,2.373 -0.745,2.121 -1.18,5.471 0.328,3.182 1.002,1.586 0.82,0.44 0.772,1.912 0.383,-0.647 0.895,-0.06 0.445,0.068 0.442,0.635 0.48,0.013 1.768,-1.312 0.63,0.316 1.264,-1.583 0.327,-0.032 0.162,0.349 1.347,-2.787 0.059,0.315 0.333,-0.224 0.492,-3.646 -0.298,-2.332 -2.04,-3.714 -0.668,0.166 -0.58,-0.559 -0.877,-0.18 -0.511,0.515 -1.324,-0.371 -0.273,-0.368 -0.513,0.938 -1.569,0.631 -0.155,0.698 -0.769,0.454 0.401,2.069 0.254,-0.468 0.229,0.086 0.859,2.254"
           id="path84" />
      </g>
      <g
         id="g85">
        <path
           fill="none"
           stroke="#000000"
           stroke-width="4"
           stroke-linecap="round"
           stroke-linejoin="round"
           d="m 378.944,966.235 -0.61,-0.093 -0.917,-0.808 -0.141,0.677 -0.182,-0.152 -0.638,-1.897 0.1,-2.425 -0.258,-0.114 -0.009,0.381 -0.327,-0.139 0.104,-0.436 -0.785,2.984 -0.238,4.957 0.576,1.266 1.209,0.677 0.915,-0.359 0.144,-0.338 0.414,0.106 1.408,-1.238 0.476,-1.424 0.566,-0.625 1.097,-5.742 0.013,-5.179 -0.166,-1.098 -0.062,0.46 -0.483,-0.585 -0.259,-1.763 -0.416,0.466 -0.868,-0.086 -0.659,-1.401 -0.31,0.446 -2.152,0.394 -2.432,1.678 -2.531,2.43 -2.02,4.753 -0.111,1.077 0.367,1.029 0.635,0.996 0.237,1.179 0.814,0.644 2.557,0.836 2.473,-0.359 1.262,-1.132 0.448,0.037 1.777,-1.035 2.28,-2.466 1.285,-2.92 0.261,0.619 0.194,-0.157 0.794,-4.01 -0.302,-1.511 -0.05,0.573 0.015,-1.455 -1.405,-1.741 -0.836,-0.628 -0.527,0.52 -1.126,-1.23 -0.665,0.912 -0.276,-0.209 -0.745,0.196 -0.985,1.502 -0.355,-0.203 -0.91,0.463 -2.385,2.292 -1.113,2.282 -0.378,0.214 -0.698,4.077 0.209,-0.103 0.38,2.341 0.859,2.065 0.538,-0.256 0.703,1.588 0.804,0.441 1.103,-0.1 0.767,-0.851 1.128,-0.031 2.253,-1.682 1.922,-2.019 0.049,-0.82 1.228,-2.287 0.275,-1.98 -0.835,-1.868 -0.371,-1.891 -0.175,0.512 -0.306,-0.096 -0.811,-1.083 -1.602,-0.668 -0.688,-2.383 -0.138,1.019 -0.675,0.371 -0.392,-0.855 -0.555,1.518 0.135,0.735 -0.462,-0.505 -0.686,1.785 -0.309,0.154 -0.657,2.571 -0.208,4.535 0.112,0.702 0.066,-0.392 0.862,1.718 0.861,-0.083 0.016,0.948 0.419,0.245 0.173,-0.795 0.81,0.014 0.197,0.791 0.528,-1.004 0.663,-0.413 0.176,0.438 0.778,-1.281 0.231,0.417 0.527,-1.448 2.013,-2.554 1.384,-2.591 -0.299,-1.224 -1.445,-1.71 -1.969,-0.135 -0.449,0.641 -0.258,-0.293 -1.976,0.797 -1.745,1.988 -0.131,1.422 -0.459,1.014 -0.204,-0.226 -0.806,0.969 -0.183,1.625 0.299,2.814 1.067,1.884 2.3,0.76 0.46,-0.777 0.21,0.431 0.576,-0.093 1.475,-0.835 0.302,-1.547 0.11,0.334 0.69,-0.607 1.105,-2.972 0.025,-2.472 -0.132,0.348 -0.693,-0.13 0.135,-1.132 -0.288,-0.682 -0.119,0.731 -0.579,0.314 -0.125,-0.855 -0.453,1.102 -0.617,0.431 -0.136,-0.642 -1.225,1.569 -0.129,-0.162 -0.666,0.669 -0.399,-0.525 0.064,1.2 0.078,-0.36 0.519,0.089 0.007,-0.897 0.38,-0.248 0.203,0.715 2.572,0.783 4.9,-1.451"
           id="path85" />
      </g>
      <g
         id="g86">
        <path
           fill="none"
           stroke="#000000"
           stroke-width="4"
           stroke-linecap="round"
           stroke-linejoin="round"
           d="m 479.339,905.272 -0.35,0.342 -0.114,-0.672 0.505,-1.814 0.706,-0.876 -0.021,-0.867 -0.42,0.465 -0.054,-0.318 -0.581,-0.108 -0.087,0.946 -0.314,0.143 -0.1,-0.7 -0.306,-0.137 -0.083,0.704 -0.406,-0.404 -0.287,1.212 -0.123,-0.437 -0.842,0.513 -1.418,2.363 -1.028,3.519 0.053,1.464 0.684,0.514 0.463,-0.003 0.158,-0.338 0.482,0.533 0.754,0.049 0.334,-0.449 1.248,0.455 0.346,-1.002 0.126,0.431 0.788,-0.235 -0.09,-0.883 0.864,0.122 0.161,-0.948 1.549,-2.171 0.401,-1.937 0.109,-2.025 -0.461,-2.473 -0.11,-0.491 -0.709,-0.219 -0.002,0.429 -0.013,-0.218 -0.481,0.198 0.033,-0.388 -0.054,0.412 -0.458,0.128 -0.018,-0.257 -0.749,1.201 -0.227,-0.225 -1.103,5.273 0.067,2.889 0.271,0.7 0.428,0.835 0.39,-0.382 0.563,0.156 0.573,1.3 0.085,-0.878 0.384,-0.3 0.13,0.496 0.264,-1.161 0.163,0.383 0.545,-0.996 0.417,0.239 0.882,-1.559 0.724,-0.288 0.816,-1.54 0.913,-0.656 0.511,-0.828 -0.092,-0.924 0.712,-1.29 -0.28,-0.662 0.123,-1.535 -0.909,-1.936 -1.956,-2.413 -0.651,0.36 -0.669,1.006 -0.209,-0.214 -1.05,0.512 -1.04,1.312 -2.612,4.82 -1.961,5.916 -0.377,2.865 1.194,0.781 1.002,1.227 1.963,0.498 0.276,-0.727 0.342,-0.109 0.275,0.347 0.579,-0.269 1.062,-1.406 1.533,-1 0.361,-1.605 0.66,-1 0.405,0.263 1.265,-1.205 0.661,-2.489 0.423,-0.145 0.43,-0.904 0.13,-2.109 -0.355,-2.233 -0.25,0.102 -0.443,-0.62 -0.464,-1.348 -0.228,0.169 -1.563,-0.832 -2.572,1.872 -2.923,4.385 -1.231,4.305 1.789,3.798 0.915,0.161"
           id="path86" />
      </g>
      <g
         id="g87">
        <path
           fill="none"
           stroke="#000000"
           stroke-width="4"
           stroke-linecap="round"
           stroke-linejoin="round"
           d="m 476.696,936.116 -0.52,-0.742 -0.235,0.318 -0.604,-0.157 0.062,-1.623 0.02,0.487 0.363,0.241 0.139,-1.213 -0.059,0.214 -0.539,-0.282 -1.138,0.728 -0.231,-0.316 -0.036,0.476 -1.522,2.094 -0.278,1.035 -0.126,-0.292 -0.201,0.286 -0.719,2.366 0.157,3.697 0.432,0.959 2.085,-0.253 0.129,-0.309 0.49,0.354 2.585,-3.815 0.242,0.177 0.319,-0.295 0.923,-2.918 0.162,-0.233 0.133,0.326 0.123,-0.344 0.018,-3.039 -0.504,-1.376 -0.07,0.64 -0.476,-1.872 -0.416,-0.719 -0.367,0.803 -0.028,-0.724 -0.591,-0.611 -0.363,0.498 -0.401,-0.405 -0.692,-0.044 -0.536,1.055 -0.267,-0.241 -1.217,0.666 -0.93,1.227 -1.695,1.372 -1.823,3.137 0.042,1.049 -0.766,2.528 0.197,1.046 0.524,0.764 0.87,0.614 0.834,0.148 -0.076,-0.715 0.251,-0.131 0.121,0.663 2.828,-0.018 1.323,-0.745 1.371,-1.548 0.372,-1.189 1.368,-1.473 1.039,-1.85 -0.004,-1.526 -0.05,0.331 -0.276,-0.167 0.149,-0.329 -0.858,-0.593 -0.198,-0.989 -0.839,-0.475 -0.204,-1.245 -0.748,0.582 -0.04,-1.242 -0.34,-0.203 -0.19,1.375 -0.321,-0.93 -1.18,2.254 -0.226,-0.891 -0.368,0.053 -0.643,1.722 -0.014,1 -1.655,3.114 -0.384,2.142 0.268,1.691 0.81,0.611 0.34,0.89 1.05,-0.267 1.304,0.137 0.491,0.374 0.666,-0.508 0.497,0.243 0.586,-0.697 -0.228,-0.251 0.202,-0.239 0.659,-0.152 1.06,-1.081 0.591,-1.361 0.837,-0.229 0.612,-1.286 0.011,-1.072 0.651,-0.813 0.332,-2.654 -0.15,-0.668 -0.556,-0.334 -0.36,-1.357 -1.854,-2.011 -0.096,1.103 -0.459,0.466 -0.158,-0.948 -0.601,-0.031 -0.545,0.603 -0.455,-0.128 -0.701,0.35 -0.726,1.845 -0.329,-0.187 -0.386,0.392 -1.132,2.449 -1.226,1.652 -0.585,1.816 -0.144,-0.223 -0.276,0.499 -0.212,2.63 0.615,-0.066 0.556,0.421 0.271,-0.446 0.513,0.292 0.562,-1.047 0.154,0.513 0.779,-0.25 0.328,-1.24 0.191,0.365 0.898,-0.107 0.894,-2.016 0.265,0.126 1.112,-1.178 0.436,-1.907 0.505,-0.117 0.607,-0.831 0.284,-1.839 -1.088,-2.133 -0.339,0.006 -0.401,-0.61 -0.607,0.382 -0.137,0.516 -0.798,0.312 -1.407,1.922 -0.246,1.605 0.146,0.431 0.136,-0.416 0.279,0.623 0.183,2.096"
           id="path87" />
      </g>
      <g
         id="g88">
        <path
           fill="none"
           stroke="#000000"
           stroke-width="4"
           stroke-linecap="round"
           stroke-linejoin="round"
           d="m 464.169,962.217 -0.739,-0.731 -0.334,0.23 -0.1,-0.373 0.065,-0.76 0.832,-1.171 0.289,0.395 -0.37,0.351 -0.067,-0.559 0.058,0.745 -0.501,0.407 -0.385,1.007 -0.35,-0.555 -0.094,1.936 -0.663,1.441 -0.504,2.664 0.315,1.038 0.594,-0.604 0.403,0.445 1.536,0.152 0.051,-1.063 0.381,-0.435 0.114,0.591 0.453,0.054 0.604,-0.971 0.642,-0.087 0.98,-0.878 0.205,-1.391 0.355,-1.041 0.184,0.377 0.17,-0.363 0.19,-1.196 -0.123,-3.043 -0.429,-1.58 -1.026,-1.809 -0.207,0.246 -0.252,-0.247 -0.179,0.443 -0.504,-0.478 -1.183,1.136 -1.01,0.089 -0.983,2.283 -0.196,-0.412 -0.988,0.982 -0.54,2.064 -0.41,0.174 -0.738,1.183 -0.579,1.914 -0.001,1.665 1.128,1.837 2.579,0.04 -0.155,-0.139 0.636,-0.063 1.372,-1.705 1.653,-1.285 0.171,-0.838 0.811,-0.34 1.64,-3.611 -0.073,-0.826 0.202,0.846 0.012,-2.228 -0.416,-0.444 -0.028,-1.282 -0.424,-0.692 -0.345,0.255 -0.56,-1.677 -0.457,0.445 -0.467,-1.076 -1.151,-0.044 -2.259,2.079 -2.763,3.716 -0.824,2.124 -0.763,0.644 -0.566,2.374 0.268,-0.237 0.45,1.489 0.414,-1.111 0.267,0.997 0.606,0.699 0.556,-0.689 0.622,0.694 0.382,-1.09 0.496,0.861 0.691,-0.519 0.248,0.228 1.075,-0.326 2.306,-1.957 1.134,-2.031 0.97,-0.998 -0.046,-0.697 0.698,-1.55 -1.132,-3.065 -0.231,0.297 -1.973,-0.282 -1.07,0.488 -0.87,-0.108 -1.703,1.708 -0.646,0.164 -1.586,2.288 -0.811,2.518 -0.019,0.833 1.289,1.104 0.398,1.138 0.586,0.26 0.362,-0.743 1.17,0.018 0.987,0.663 1.114,-0.524 2.502,-0.279"
           id="path88" />
      </g>
      <g
         id="g89">
        <path
           fill="none"
           stroke="#000000"
           stroke-width="4"
           stroke-linecap="round"
           stroke-linejoin="round"
           d="m 457.909,990.936 -3.835,3.042 -0.594,0.997 0.237,0.142 8.407,-1.409 4.581,-2.133 0.911,0.137 0.973,-0.343 4.078,-3.034 2.209,-0.531 1.052,-0.632 4.42,-3.741 1.811,-0.548 0.953,-1.214 3.09,-2.506 2.06,-0.504 3.488,-3.318 2.505,-1.113 2.63,-1.963 0.924,0.239 0.926,-0.821 -0.047,0.566 -2.028,0.255 -0.443,0.602 -1.166,0.147 -1.317,0.733 -8.326,2.513 -1.715,1.051 -5.019,1.225 -11.187,3.984 -3.341,2.285 -2.175,2.939 0.581,0.445 1.16,0.014 0.697,-0.63 0.372,0.315 1.686,-0.092 1.174,-0.73 1.317,-0.066 2.166,-0.81 1.683,-1.493 1.895,-0.396 1.753,-0.986 2.081,-1.949 1.996,-0.534 2.926,-1.638 1.025,-1.424 1.135,-0.947 0.963,0.152 2.701,-1.484 1.381,-1.635 3.465,-1.963 0.553,-1.362 0.707,-0.683 0.482,0.331 1.928,-0.825 0.608,-1.294 1.426,0.129 0.185,-1.168 -0.346,0.715 -0.37,-0.117 -0.042,0.302 -0.201,-0.407 0.275,-1.542 -0.42,0.15 0.241,0.244 -0.354,-0.222 0.423,-0.726 -0.254,-0.225 0.42,-0.574 0.643,-2.935 1.579,-2.843 0.146,0.328 0.158,-0.156 0.485,-2.055 0.2,0.069 1.021,-4.56 0.231,-2.951 -0.204,-3.939 0.203,-1.832 -0.566,-5.439 0.133,-3.035 -0.608,-5.34 0.645,-10.147 -0.87,-13.47 -0.514,-1.965 -0.201,-3.613 -0.833,-4.363 0.052,-1.601 -0.176,-0.705 -0.647,-0.691 -0.44,-2.931 -0.802,-1.317 -0.218,-1.085 -0.452,-0.387 0.027,1.016 -0.403,0.866 0.395,2.029 0.473,10.128 0.921,6.789 1.131,5.968 0.646,2.408 0.634,1.034 0.87,5.906 0.536,1.357 0.547,6.284 -0.211,9.538 -0.657,3.265 -0.51,0.692 0.109,0.965 0.156,-0.738 -0.254,-0.548 0.398,-0.516 -0.169,-0.884 0.174,0.357 0.237,-1.546 -0.465,-1.603 0.016,-5.82 -0.827,-10.033 -0.589,-14.749 -0.508,-2.571 -0.307,-6.818 -1.114,-6.155 0.042,-2.031 -0.685,-2.362 -0.176,-1.799 0.229,-0.966 -0.285,-0.468 0.176,4.522 1.174,10.366 0.31,7.039 2.254,16.74 1.498,16.859 1.572,9.134 1.856,5.638 0.129,-0.324 0.14,0.283 0.211,1.792 0.658,1.021 0.09,-0.433 0.113,1.739 0.009,-1.139 -0.228,0.309 -0.683,-1.212 -1.113,-3.135 -1.939,-10.024 -0.093,-2.859 -0.406,-0.386 0.181,-0.695 -0.333,-0.083 0.395,-0.229 0.2,0.824 -0.358,0.298 0.506,0.452 0.498,4.14 0.064,8.238 -1.116,6.877 -0.884,1.612 -0.148,0.908 -1.066,0.954 -0.422,1.993 -0.056,-0.574 -0.305,0.25 -0.421,1.618 -0.342,-0.518 -0.624,-0.111 -0.202,0.45 -0.687,0.1 -0.605,0.993 -1.059,0.135 -0.416,1.034 -0.278,-0.229 -0.712,0.173 -0.747,0.675 -1.578,0.244 -0.633,0.931 -2.963,1.722 -2.096,1.898 -0.635,-0.144 -0.493,0.259 -1.828,2.422 -4.385,2.497 -0.692,-0.421 -0.604,0.057 -1.456,1.974 -5.911,3.964 -2.119,1.143 -1.099,0.259 -1.451,1.084 -1.355,0.364 -2.396,1.435 -1.008,0.212 -0.51,-0.323 -0.173,0.625 -0.274,-0.252 -0.081,0.337 0.248,-0.044 0.347,-1.748 0.243,1.02 0.434,-1.456 0.126,0.669 0.623,0.155 0.585,-0.832 2.915,-0.7 1.557,-1.812 0.783,0.179 3.806,-1.612 5.567,-3.408 1.23,-0.394 2.351,-2.045 4.927,-2.818 1.093,-0.127 1.026,-0.558 1.033,-1.187 3.066,-2.396 1.753,-0.551 3.259,-3.714 0.992,-1.575 -0.174,-0.276 -0.162,0.701 -0.691,-0.151 -2.48,0.425 -0.546,0.213 -0.521,0.977 -0.938,-0.179 -1.231,0.384 -1.74,1.298 -3.329,1.271 -2.799,2.445 -4.047,2.353 -2.861,2.417 -2.211,1.406 -1.791,1.981 -5.316,2.982 -1.595,1.826 -3.88,2.144 -0.565,1.432 -0.828,0.975 -0.64,-0.109 -0.689,0.391 -5.964,4.763 -2.686,2.923 -0.392,0.75 0.239,0.02 0.916,-1.051 1.161,-0.445 0.569,-0.895 0.877,-0.476 3.53,-3.488 0.758,-0.13 2.369,-1.829 1.779,-2.093 4.809,-3.195 0.954,-1.764 1.197,-1.287 1.015,-0.028 3.182,-2.187 2.266,-2.767 1.109,-0.306 2.137,-1.322 2.237,-1.76 2.281,-2.467 1.124,-0.402 2.99,-2.732 1.699,-2.322 1.681,-0.798 2.112,-1.663 1.163,-1.793 1.622,-1.251 0.045,-1.286 -0.272,0.113 -0.557,-1.035 -0.767,0.99 -1.576,0.171 -1.816,1.402 -1.51,0.288 -1.499,0.922 -3.227,3.115 -2.664,1.843 -2.736,2.639 -5.004,2.908 -1.12,-0.035 -1.058,0.606 -1.073,1.391 -3.638,2.984 -2.169,1.307 -5.25,4.869 -0.955,0.161 -0.84,0.613 -5.752,6.053 -1.524,2.589 0.417,0.586 1.73,-0.312 0.402,0.593 0.516,0.079 0.405,-0.742 2.269,-1.76 1.342,-0.3 2.898,-2.836 0.789,0.11 0.865,-0.377 0.854,-1.239 3.051,-2.335 2.116,-0.407 2.107,-2.359 3.414,-3.049 2.252,-0.808 1.025,-1.45 3.174,-3.168 2.998,-2.269 9.964,-10.786 1.485,-2.579 -0.566,-0.271 -0.983,0.713 -0.898,0.093 -4.432,2.595 -2.366,1.972 -2.225,0.577 -4.356,4.006 -8.615,5.696 -2.616,0.582 -6.089,6.164 -1.941,1.308 -3.213,3.141 -5.168,5.793 -0.896,1.476 -0.606,-0.137 -0.435,0.31 -1.285,2.169 -0.523,0.167 -0.929,1.589 -0.571,0.206 0.339,0.493 -0.385,-0.636 -0.108,0.856 0.304,-0.738 1.269,-0.189 0.431,-0.912 0.679,-0.546 0.666,0.351 0.712,-0.164 7.575,-3.675 2.06,-2.127 1.099,-0.227 4.308,-2.61 2.285,-1.916 4.642,-3.011 6.449,-5.403 0.999,0.464 0.995,-0.577 0.923,-1.645 2.978,-2.716 1.568,-0.793 1.341,-1.838 1.585,-1.569 0.602,-0.184 0.42,-0.803 -0.261,1.03 -0.193,-0.309 -0.725,0.241 -0.671,-0.483 -0.647,0.619 -1.125,0.345 -0.858,1.202 -3.608,1.123 -3.033,2.26 -5.134,2.777 -4.025,3.019 -3.585,2.008 -8.197,6.245 -2.439,1.226 -2.51,2.191 -0.225,1.331 -0.503,0.889 -0.277,-0.477 -1.781,0.68 -1.303,1.263 -1.5,0.703 -0.921,1.079 -7.063,4.115 -0.928,0.22 -0.814,-0.19 -0.155,-2.533 -0.327,0.971 -0.126,-1.597 -0.084,1.197 -0.436,0.564 -0.085,-0.953 -0.087,0.409 -0.217,-0.136 -10e-4,-1.562 -0.101,0.453 -0.177,-0.56 1.413,-8.884 -0.364,-1.766 0.144,-2.174 0.542,-0.826 0.184,-1.317 0.448,-0.588 0.389,0.196"
           id="path89" />
      </g>
      <g
         id="g90">
        <path
           fill="none"
           stroke="#000000"
           stroke-width="4"
           stroke-linecap="round"
           stroke-linejoin="round"
           d="m 441.582,957.551 -2.629,-3.699 -1.239,-2.933 -1.742,-6.945 -0.094,-3.09 0.416,-5.62 0.23,-0.303 0.25,1.587 -0.072,12.113 0.529,12.263 1.163,11.795 1.05,6.243 0.38,4.847 1.122,4.884 -0.129,0.559 0.227,0.099 -0.342,-0.97 0.104,-1.013 1.529,-5.43 2.074,-12.966 -0.102,-8.279 -1.671,-9.817 -0.846,-2.009 -1.229,-4.953 -0.687,-0.738 -1.127,-2.343 -1.01,-1.044 -0.667,1.377 0.44,1.979 0.12,-0.623"
           id="path90" />
      </g>
      <g
         id="g91">
        <path
           fill="none"
           stroke="#000000"
           stroke-width="4"
           stroke-linecap="round"
           stroke-linejoin="round"
           d="m 369.438,840.377 -0.322,-1.506 0.162,-0.81 -0.462,-0.536 -1.169,-0.01 -1.016,0.811 -0.436,-0.173 -0.891,0.559 -1.417,0.121 -1.308,1.084 -1.601,0.059 -0.88,0.404 -0.547,0.94 -0.727,0.51 -0.522,-0.291 -1.2,0.45 -2.249,2.019 -1.146,0.322 -0.884,0.867 -0.644,1.447 -0.816,0.754 -0.528,-0.322 -2.757,2.707 -4.233,5.52 -0.063,1.35 0.318,-0.281 0.504,0.197 0.704,-0.525 0.479,0.087 2.103,-2.641 0.618,0.037 2.872,-3.229 1.684,-0.893 4.352,-3.599 0.983,-0.495 2.884,-2.944 -0.132,-0.214 -1.531,0.742 -0.784,-0.164 -1.855,1.076 -1.254,0.186 -3.448,3.444 -0.611,-0.057 -0.677,0.577 -2.542,3.621 -0.971,0.034 -1.893,3.525 -0.173,-0.429 -0.343,0.355 -0.992,3.648 -0.222,2.248 0.153,-0.288 0.453,1.019 -0.109,0.484 0.161,0.301 0.395,-0.063 -0.08,0.256 0.072,-0.381 0.553,-0.16 -0.039,0.505 -0.042,-0.618 0.304,-0.35 -0.226,0.177 -0.198,-0.471 0.205,-0.142 -0.03,0.913 -0.17,-1.255 0.26,-0.044 -0.046,0.28 0.073,-0.313 0.001,0.535 -0.834,1.091 0.098,0.68 -0.521,2.013 -0.452,0.485 0.031,0.912 -0.466,0.447 -0.026,0.754 -0.05,-0.369 -0.228,0.419 -1.246,3.806 0.03,1.928 0.382,-0.218 0.264,0.237 0.595,-0.729 0.263,0.219 0.544,-0.284 0.237,-0.826 0.541,-0.275 0.341,-1.401 1.474,-1.867 0.566,-2.412 1.095,-2.37 -0.145,-0.487 1.343,-7.841 0.769,-2.261 0.361,-0.257 -0.055,-0.816 0.174,0.343 0.261,-0.234 0.116,-0.647 0.037,0.501 0.475,0.208 -0.083,-0.421 0.233,0.248 0.414,-0.205 0.609,-1.212 0.546,0.113 0.872,-0.366 0.838,-1.443 0.424,0.129 1.446,-0.641 1.913,-1.456 2.847,-0.815 1.44,-1.248 2.941,-0.884 0.593,0.114 3.085,-1.589 1.101,0.032 2.434,-1.541 0.419,0.644 0.525,0.04 0.341,-0.76 0.81,-0.659 0.375,0.744 0.458,-0.835 0.841,-0.538 0.446,0.307 1.719,-1.138 0.663,0.435 4.663,-2.861 0.988,0.064 1.039,-0.697 2.555,-0.93 0.333,-0.404 3.419,-1.232 0.485,-0.435 1.079,-0.083 0.869,-0.645 0.193,0.378 0.247,-0.691 0.649,-0.353 0.359,0.457 1.404,-1.43 0.19,0.324 0.423,-0.01 0.287,-0.644 1.125,-0.866 0.452,0.358 0.622,-0.941 1.618,-1.248 1.316,-0.452 0.19,0.21 0.871,-0.769 1.98,-0.908 0.846,-1.143 0.828,-0.181 0.295,-0.602 1.414,-0.243 0.162,-0.905 0.787,0.406 0.591,-1.992 0.156,0.675 0.571,0.058 0.304,-1.166 0.114,0.472 0.614,0.394 0.777,-0.214 0.211,-0.817 1.917,-0.215 0.029,0.377 0.077,-0.308 -0.364,-0.217 0.185,-0.174 -0.388,0.364 0.038,-0.639 -0.523,0.798 -0.677,0.2 -0.354,-0.915 -0.924,1.318 -4.203,2.474 -0.511,0.609 -1.336,0.461 -3.895,2.411 -2.516,0.688 -1.286,1.11 -0.601,-0.125 -1.638,0.657 -1.325,1.357 -2.964,0.34 -1.53,0.92 -0.687,-0.17 -1.689,0.589 -1.745,1.489 -0.431,-0.197 -1.584,0.483 -0.942,1.336 -0.382,-0.288 -1.496,0.414 -0.846,0.937 -1.562,0.514 -0.702,1.164 -0.33,-0.159 -1.628,0.719 -1.849,1.215 -0.676,-0.048 -5.063,3.839 -2.387,0.844 -0.628,-0.073 -1.681,1.647 -1.16,0.58 -0.475,-0.528 -0.479,1.049 -2.07,1.333 -0.599,-0.051 -2.896,2.95 -0.4,-0.046 -0.707,0.922 -0.487,-0.019 -0.671,0.948 -0.308,-0.646 -0.662,2.057 -0.24,-0.355 -0.362,1.119 -0.816,0.923 -0.439,-0.529 -0.372,1.155 -0.553,0.776 -0.328,-0.215 -0.007,0.576 -1.007,1.14 0.457,0.488 0.181,2.555 0.569,0.512 0.061,4.317 -0.021,-0.8 0.047,0.469 0.34,0.053 -0.135,0.756 0.286,0.054 0.2,1.203 -0.319,0.398 0.687,1.169 1.426,1.164 1.642,0.805 0.296,-0.193 0.754,0.742 1.283,-0.086 0.822,-0.659 2.174,1.136 1.409,-0.152 0.507,0.38 0.901,-0.357 1.959,0.47 0.571,0.423 0.356,-0.457 0.187,0.534 1.284,0.333 1.85,1.47 0.978,0.184 0.492,-1.056 0.765,0.996 0.328,-0.984 0.334,-0.083 0.218,0.841 0.619,0.431 0.26,-0.429 0.528,1.03 0.365,-1.362 0.455,1.082 0.742,0.239 1.262,1.326 0.503,-0.217 1.441,0.739 0.531,0.972 0.276,-0.22 0.981,0.179 0.519,0.759 0.542,-0.414 0.842,0.048 0.362,0.619 0.151,-0.349 1.084,-0.102 0.276,0.555 0.823,-0.195 0.611,0.813 0.85,0.114 0.759,-0.39 1.689,1.375 3.606,0.22 2.96,1.031 1.269,-0.289 0.725,0.321 1.705,-0.067 0.272,0.961 0.42,0.208 0.291,-0.772 0.792,-0.124 0.424,0.663 1.037,-0.778 0.595,0.691 0.186,-0.438 0.757,0.104 0.296,0.656 1.072,-0.339 0.319,0.628 0.147,-0.373 1.123,0.571 0.875,-0.148 0.452,0.491 1.038,-0.237 1.378,0.351 0.45,-0.336 0.996,0.386 0.564,-0.68 0.162,0.52 0.747,0.397 0.386,-0.79 0.128,0.534 0.73,0.692 0.451,-0.649 0.15,0.625 0.594,0.267 0.231,-0.319 0.964,0.683 0.455,-0.439 1.127,0.59 1.715,-0.125 3.948,-0.888 1.044,0.231 0.94,-0.569 0.711,0.429 1.787,-1.592 0.253,0.248 0.872,-0.228 0.517,-1.243 0.941,0.549 0.767,-1.525 0.17,0.683 0.74,0.142 0.488,-0.895 0.206,0.316 0.91,0.14 0.484,-0.722 1.457,-0.035 0.491,-0.805 1.7,-1.08 1.319,-1.49 0.228,0.435 0.371,-0.092 1.235,-1.832 0.443,-0.296 0.307,0.532 0.49,-0.066 0.422,-0.828 1.254,-1.134 0.296,0.746 0.466,-0.005 0.804,-1.826 0.419,0.012 0.279,0.476 1.587,-2.007 0.461,0.365 0.496,-0.053 0.376,-0.713 1.215,-1.044 1.192,-0.326 1.023,-1.375 2.978,-1.641 2.128,-1.875 0.646,0.074 1.288,-0.994 0.785,-1.181 1.133,-0.494 1.791,-1.663 1.232,-0.536 0.127,-0.605 1.319,-0.782 5.563,-6.561 2.7,-2.289 0.574,0.046 1.063,-1.732 1.452,-0.567 0.551,-0.919 1,-0.416 0.73,-1.387 0.141,0.228 0.821,-0.31 0.497,-1.341 0.146,0.535 0.692,0.219 0.363,-0.841 0.756,0.621 0.53,-1.064 0.548,0.681 1.299,-0.338 -0.135,-0.846 0.336,-0.173 0.131,0.218 0.41,-0.461 -0.219,-0.224 0.159,-0.861 0.477,0.077 -0.054,-0.29 0.516,-0.184 -0.227,-0.438 0.147,-0.398 0.27,0.307 0.385,-0.732 0.022,0.299 0.161,-1.303 0.037,0.802 0.176,-0.935 0.362,-0.358 -10e-4,0.628 0.002,-1.328 0.448,-0.663 -0.033,-0.979 0.424,-0.478 0.21,-1.122 -0.249,-0.872 -0.067,0.31 0.105,-0.684 -1.399,-1.057 -0.636,-0.089 -0.996,-1.229 -0.262,0.322 -0.962,-0.256 -0.809,-0.748 -2.176,0.046 -1.095,-0.402 -4.454,-0.331 -0.658,-0.232 -1.075,-1.312 -0.408,0.481 -1.549,0.415 -2.039,-0.225 -0.492,-0.465 -0.925,0.33 -0.188,-0.242 0.364,-0.108 0.497,0.379 0.173,-0.282 -0.321,-0.051 0.497,-0.347 2.428,0.808"
           id="path91" />
      </g>
    </g>
  </g>
</g>
</svg>
