<?xml version="1.0" encoding="UTF-8" standalone="no"?>
<svg
   width="279.96121"
   height="206.9834"
   viewBox="-702 0 279.96121 206.9834"
   version="1.2"
   id="svg924"
   xmlns="http://www.w3.org/2000/svg"
   xmlns:svg="http://www.w3.org/2000/svg"><defs
   id="defs924" />
<title
   id="title1">Notebook 3</title>
\n<g
   id="g946"
   transform="matrix(1.0439108,0,0,1.1402291,-111.04836,-185.05577)">
  <g
     id="g925">
    <g
       id="g27">
      <path
         fill="none"
         stroke="#000000"
         stroke-width="4"
         stroke-linecap="round"
         stroke-linejoin="round"
         d="m -531.959,311.925 -1.131,0.757 -0.278,-0.262 0.404,-0.404 -0.386,-0.132 -2.192,-0.28 -2.745,0.12 -7.855,2.396 -11.107,5.299 -2.726,1.82 -1.834,1.731 -1.813,2.419 -0.472,2.946 0.501,1.415 2.028,1.981 4.369,1.863 5.35,1.805 2.066,0.332 3.811,-0.076 3.186,-0.929 4.672,-3.737 1.819,-2.622 2.436,-4.572 0.294,-1.342 0.224,-3.854 -0.255,-2.805 -0.465,-1.346 -2.003,-2.555 -1.745,-1.596 -0.762,-0.325 -3.301,-0.304 -4.773,1.11 -4.92,2.254 -3.899,3.268 -3.356,4.729 -2,5.056 -0.202,2.434 0.339,2.798 0.896,1.366 3.758,2.087 4.083,1.598 3.282,0.402 4.891,0.007 1.972,0.439 4.085,-1.288 2.829,-1.432 3.138,-3.57 0.771,-1.661 0.312,-5.063 -1.091,-4.047 -1.735,-2.5 -2.806,-1.166 -2.293,-0.068 -3.396,0.499 -6.117,2.174 -6.997,3.959 -2.648,2.088 -2.896,2.926 -1.64,2.019 -0.625,2.079 0.311,1.41 1.273,2.07 2.758,1.17 4.293,0.012 4.283,-1.174 1.894,-1.095 2.207,-1.704 3.025,-3.427 1.755,-3.768 1.014,-3.505 0.376,-2.378 -0.779,-1.662 -1.057,-0.833 -2.261,-0.725 -5.524,1.862 -5.319,4.03 -2.502,2.628 0.051,1.006 0.838,1.308 2.022,0.969 2.429,-0.015 5.493,-1.031"
         id="path27" />
    </g>
    <g
       id="g28">
      <path
         fill="none"
         stroke="#000000"
         stroke-width="4"
         stroke-linecap="round"
         stroke-linejoin="round"
         d="m -523.869,268.062 -0.705,0.259 -1.742,-0.174 -0.1,-0.636 -0.359,-0.174 -0.231,0.24 -0.734,-0.512 0.172,-0.452 -0.665,-0.041 -0.283,-0.346 -1.388,-0.144 -0.242,0.232 -0.234,-0.427 -0.621,0.067 0.248,-1.411 -0.202,-1.432 -0.253,-0.032 0.118,-1.218 0.331,-0.354 -0.227,-1.318 0.243,-0.376 -0.072,-1.468 0.325,-0.702 0.159,0.535 1.472,-3.542 0.258,0.078 1.666,-1.323 0.979,0.171 2.015,-2.196 3.051,-1.543 2.873,-0.798 2.119,0.021 1.135,-0.687 4.391,-1.497 12.726,-3.415 6.824,-1.016 2.793,0.161 4.454,-0.731 4.524,-10e-4 4.585,1.183 4.689,2.413 0.503,0.762 3.546,2.739 1.493,1.914 -0.003,0.745 1.011,1.807 0.231,2.993 -0.468,2.758 -1.572,4.584 -1.567,3.436 -1.536,2.414 -5.3,6.412 -1.963,1.574 -1.667,2.041 -1.442,0.556 0.046,0.318 -0.815,0.815 -2.332,0.852 -2.325,1.716 -2.142,0.475 -1.902,0.983 -6.455,1.453 -4.365,0.527 -9.366,-0.215 -6.936,-1.334 -3.911,-1.537 -1.36,-0.077 -1.162,-1.885 0.081,-1.593 -0.607,-0.189 -0.208,-0.44 0.854,-1.114 0.145,-0.994 1.641,-1.697 -0.352,-0.232 0.176,-0.396 11.467,-5.84 2.104,-0.445 1.708,-1.024 3.165,-1.213 7.259,-2.198 3.488,-0.276 2.412,-0.73 9.688,-1.428 10.907,-1.163 5.167,-0.085 4.043,1.072 2.073,0.96 2.739,2.078 2.455,2.645 0.612,2.229 0.639,1.101 0.027,1.846 0.873,3.858 -0.401,1.025 0.177,0.937 -1.166,1.961 -0.006,0.998 -2.654,3.936 -1.909,1.397 -1.205,1.692 -2.018,1.429 -2.187,2.142 -1.348,0.369 -6.073,3.157 -5.08,1.985 -9.395,1.524 -7.426,0.457 -5.195,-0.612 -1.953,-0.587 -0.693,-0.925 -0.75,0.14 -1.817,-0.479 -3.419,-1.82 -0.356,-1.089 -2.638,-1.582 -1.379,-1.699 0.136,-0.387 -0.876,-1.72 -0.202,-2.013 0.864,-1.973 2.227,-2.847 3.603,-3.161 6.728,-4.387 9.209,-4.08 6.342,-2.039 2.783,-1.244 8.131,-2.22 1.303,-0.892 1.592,-0.584 10.311,-1.036 9.998,-0.207 5.807,1.027 5.69,1.656 3.415,2.125 2.151,2.432 1.574,0.704 0.034,0.643 1.602,3.179 -0.222,1.382 -1.93,1.825 -7.241,0.816 -1.746,0.464 -4.413,0.217 -1.544,0.58 -6.539,0.031 -2.299,0.564 -2.518,-0.322 -2.369,0.02 -0.991,0.294 -1.494,-0.155 -4.552,-1.131 -2.152,0.274 -3.877,-1.577 -0.675,-0.694 -5.139,-2.516 -2.157,-2.565 -2.715,-5.311 -1.406,-4.529 0.666,-5.492 3.104,-5.744 2.709,-3.65 1.458,-1.098 2.111,-2.539 1.776,-1.52 2.818,-1.135 1.899,-1.421 4.19,-1.951 3.84,-0.693 1.313,-0.696 5.066,-1.523 4.172,-0.682 5.335,-1.461 13.733,-1.761 6.728,-0.069 4.823,0.552 5.622,2.108 4.533,3.309 2.057,2.409 1.348,2.275 0.286,2.48 -0.728,3.698 -2.62,2.489 -3.639,1.655 -13.383,2.506 -16.676,1.452 -14.186,0.579 -11.274,-0.348 -8.72,-1.352 -4.071,-0.961 -6.601,-2.505 -3.482,-2.475 -2.059,-2.042 -0.412,-0.853 -1.391,-4.533 -0.204,-3.052 0.356,-1.998 2.71,-4.077 3.93,-4.107 8.422,-5.484 6.575,-3.67 9.873,-2.916 13.45,-1.765 14.898,-0.293 9.681,1.061 4.468,1.197 4.899,1.835 1.053,1.275 2.694,1.838 1.439,3.734 -2.048,3.501 -3.681,1.871 -6.534,2.38 -1.961,0.398 -9.778,0.651 -5.344,-0.453 -1.567,0.202 -7.218,-0.201 -6.423,-0.629 -6.72,-1.631 -3.962,-1.897 -3.859,-3.194 -0.139,-1.718 -1.145,-1.809 -0.291,-1.799 0.631,-4.856 0.597,-2.115 1.927,-2.087 0.24,-1.075 2.224,-3.121 2.635,-1.615 3.698,-3.01 2.927,-1.839 5.309,-2.626 7.572,-2.958 13.253,-3.557 19.841,-3.902 10.997,-0.923 10.341,0.329 13.997,2.36 9.012,3.421 2.624,1.414 2.846,2.812 1.797,3.147 0.655,1.91 0.25,1.596 -0.575,1.585 0.139,0.419 -2.177,3.424 -7.893,3.619 -5.335,1.719 -3.673,1.605 -10.536,1.755 -11.868,1.063 -8.269,0.536 -16.323,-0.473 -6.839,-1.239 -3.726,-2.59 -0.905,-1.357 -0.368,-1.214 -0.04,-1.829 0.088,-0.67 1.71,-2.395 2.613,-1.76 4.226,-2.025 9.829,-3.084 6.412,-1.248 9.772,-0.645 5.136,0.033 12.695,1.386 4.953,0.908 12.204,3.306 4.261,1.626 8.324,4.667 10.284,9.096 3.256,6.905 0.106,1.084 -1.401,6.017 -4.335,5.45 -3.466,3.085 -8.24,5.959 -5.135,2.914 -5.516,2.577 -5.913,2.093 -9.761,2.066 -8.327,0.978 -17.175,1.036 -10.215,0.105 -5.433,-0.515 -6.425,-1.66 -4.453,-2.309 -0.454,-0.713 -0.402,-1.993 1.432,-0.849 0.492,-0.651 5.009,-0.872 2.74,-0.802 10.867,-0.222 12.049,1.97 8.384,2.612 5.476,2.363 3.602,2.144 2.847,2.75 1.377,2.414 0.052,2.051 -0.479,2.279 -2.211,2.967 -3.821,3.247 -2.472,1.627 -7.729,3.457 -8.632,2.835 -14.917,2.027 -10.095,0.496 -16.1,0.115 -21.072,-0.781 -11.726,-1.118 -5.376,-0.074 -15.765,-2.955 -7.894,-2.415 -4.46,-1.718 -4.765,-1.276 -8.579,-4.425 -4.581,-3.427 -3.791,-4.464 -2.009,-6.39 -0.476,-2.939 0.959,-8.775 1.431,-4.172 2.647,-4.893 2.519,-1.937 4.929,-1.786 4.236,-0.877 7.279,-0.904 7.512,0.095 2.598,0.327 1.3,0.756 3.031,0.765 1.19,1.293 0.181,0.539 -0.23,0.387 -0.972,0.282 -0.208,0.544 -3.35,0.639 -2.007,0.965 -7.491,0.745 -5.939,-0.53 -5.278,-1.864 -0.396,-1.13 -1.556,-0.921 -1.736,-2.491 -0.356,-0.791 -0.325,-3.069 1.128,-4.068 1.85,-3.888 0.806,-1.376 2.251,-2.572 6.304,-6.035 7.152,-5.623 7.113,-4.776 9.56,-4.799 20.684,-7.878 3.597,-0.927 12.971,-0.854 11.79,1.031 11.143,2.847 5.973,2.525 9.423,5.431 2.308,3.162 0.945,2.247 -1.656,3.815 -5.807,4.679 -2.805,0.795 -6.754,2.743 -5.651,1.282 -5.615,0.671 -8.857,-0.393 -8.142,-1.683 -5.68,-2.123 -4.801,-2.947 -3.318,-3.436 -2.429,-5.372 -0.261,-1.106 0.338,-3.538 1.247,-4.985 4.107,-9.219 4.228,-3.616 7.447,-4.656 7.166,-2.264 7.537,-1.824 15.226,-1.872 6.172,-1.147 18.574,0.509 17.396,2.827 9.54,3.268 12.63,5.677 7.123,4.546 1.933,1.793 1.634,2.609 0.694,2.197 -0.416,2.532 -1.127,1.987 -2.017,1.588 -4.942,1.636 -8.69,0.675 -11.115,-1.081 -6.362,-1.702 -4.036,-1.676 -3.203,-2.08 -2.077,-2.346 -0.932,-3.465 0.029,-1.715 0.715,-2.433 2.239,-3.284 3.67,-2.152 4.387,-1.72 5.458,-1.102 7.906,-0.312 6.751,0.689 6.582,1.39 5.416,2.22 5.63,2.907 7.136,5.335 5.067,4.475 9.242,13.088 2.747,5.597 2.083,7.243 -0.104,5.465 -0.655,3.414 -1.253,3.437 -1.759,3.266 -5.3,6.202 -1.542,1.454 -7.297,5.344 -4.215,2.673 -6.429,3.463 -9.58,3.575 -12.113,2.111 -8.398,0.529 -11.825,-0.103 -10.845,-0.796 -10.508,-1.28 -8.999,-2.177 -2.901,-2.489 -0.087,-0.432 1.097,-0.772 0.226,-0.613 2.795,-0.578 1.52,-0.84 8.491,-2.043 16.105,-0.69 13.375,1.065 7.606,2.544 6.411,3.303 4.652,3.593 1.334,2.018 0.611,4.511 -1.383,3.658 -2.85,3.491 -3.255,2.743 -6.839,3.504 -6.006,2.184 -5.096,0.854 -2.145,0.796 -7.194,1.034 -16.991,1.013 -5.137,-0.282 -8.693,0.198 -12.302,-0.842 -4.381,-0.57 -8.521,-1.784 -5.187,-1.803 -1.968,-2.226 0.857,-1.475 1.522,-0.564 9.558,-0.651 8.571,-0.082 23.894,1.23 19.8,2.381 10.651,2.005 7.215,2.266 1.518,1.378 0.289,2.174 -3.527,3.663 -12.138,4.759 -13.836,3.253 -11.71,1.392 -1.847,0.791 -1.92,0.335 -2.141,-0.408 -10.463,0.011 -12.348,-0.941 -4.777,0.058 -15.639,-1.877 -7.792,-1.566 -4.068,-1.262 -4.435,-2.225 -3.973,-2.619 -2.7,-2.916 -1.207,-3.063 -0.027,-2.953 3.428,-3.453 2.645,-1.838 3.719,-2.019 8.553,-3.815 10.612,-3.108 13.194,-2.287 10.786,-1.456 20.401,-1.596 7.458,-0.41 7.775,0.28 3.989,-0.257 14.863,0.469 11.099,1.288 9.567,1.559 5.072,1.749 4.057,1.005 3.035,1.33 2.551,2.198 1.162,1.706 0.313,0.783 -0.215,2.186 -1.123,2.778 -2.628,2.434 -1.977,1.192 -10.594,3.72 -4.075,0.532 -2.097,0.923 -6.889,1.625 -8.168,1.259 -11.774,1.552 -6.232,0.324 -32.961,3.384 -5.108,0.068 -2.728,-0.635 -0.291,-0.968 0.209,-0.411 1.89,-1.707 10.952,-3.078 12.058,-1.985 5.725,-1.286 23.468,-0.657 13.227,1.056 5.868,0.039 12.824,2.456 3.686,0.406 8.678,3.04 2.854,3.397 -0.892,1.444 -1.35,1.329 -3.923,0.992 -9.351,0.579 -10.285,-0.148 -14.124,-1.239 -12.805,-2.501 -7.218,-3.104 -6.509,-3.634 -4.062,-3.683 -2.139,-2.749 -2.344,-4.022 -0.849,-3.117 -0.556,-5.374 0.038,-5.358 1.054,-14.94 1.332,-10.624 1.113,-3.502 2.783,-5.777 1.687,-2.177 3.338,-2.818 5.593,-1.996 5.691,-1.371 5.543,-0.814 6.494,-0.259 5.847,0.591 7.071,1.861 5.262,1.949 7.762,3.68 2.59,1.603 4.878,4.601 2.515,3.5 0.563,3.044 -0.515,1.467 -1.457,1.787 -2.438,1.5 -5.458,2.562 -11.547,3.578 -12.797,1.575 -13.638,0.181 -5.549,0.434 -13.348,-0.476 -6.34,0.317 -23.14,-2.308 -13.556,-2.498 -8.24,-1.914 -12.625,-4.712 -1.828,-0.928 -5.792,-4.121 -5.028,-5.185 -1.951,-3.078 -0.401,-1.228 0.326,-6.339 3.247,-6.2 2.666,-3.18 5.931,-4.431 6.868,-3.713 10.586,-4.032 7.604,-1.978 8.362,-1.637 2.534,-0.958 8.219,-2.041 11.021,-1.31 7.327,0.006 9.996,2.029 1.58,0.636 2.842,1.976 1.568,0.706 3.1,2.38 0.551,1.792 1.17,1.336 0.495,1.61 -0.549,0.606 -0.188,1.336 -0.519,0.772 -1.868,1.08 -2.591,0.839 -2.027,0.147 -3.104,0.787 -2.016,-0.045 -0.598,-0.394 0.342,-0.542 -0.167,-0.329 1.506,-1.696 1.926,-1.315 6.654,-3.018 7.441,-2.471 6.182,-1.207 6.458,-0.83 8.825,0.085 4.472,0.324 6.508,1.324 6.173,2.063 10.791,5.407 8.274,5.641 9.164,8.074 9.351,10.755 1.862,4.626 1.149,4.151 0.277,1.321 -0.484,2.885 -1.287,4.19 -3.61,5.837 -4.835,5.789 -4.39,4.058 -8.048,6.14 -11.773,7.615 -4.598,2.234 -5.341,2.096 -15.317,5.152 -5.784,2.274 -12.911,2.588 -9.131,0.886 -5.58,0.161 -3.829,-0.67 -2.551,-1.057 -1,-1.723 0.245,-1.077 2.197,-1.787 4.309,-1.822 7.076,-1.136 5.571,-0.287 9.397,0.823 5.008,1.273 3.877,2.035 2.053,1.882 4.03,4.956 0.526,0.975 0.79,3.425 0.139,2.576 -0.908,4.109 -1.324,1.941 -1.944,2.469 -2.057,1.949 -3.661,2.324 -3.958,0.976 -4.85,0.694 -10.778,0.104 -31.061,-2.984 -10.405,-0.482 -11.017,-0.941 -8.55,-1.246 -1.91,-0.716 -0.931,-0.788 -0.36,-1.62 0.122,-0.821 3.354,-2.679 4.627,-1.504 6.139,-1.238 9.712,0.175 10.301,1.964 5.855,2.724 1.933,2.174 1.244,2.353 0.142,2.532 -0.527,0.841 -0.314,1.453 -0.882,1.437 -1.77,1.477 -1.445,0.964 -2.396,0.721 -4.353,0.567 -3.899,0.041 -10.5,-1.361 -9.488,-2.565 -8.056,-2.91 -3.503,-1.619 -4.847,-3.06 -4.471,-3.699 -4.753,-5.88 -1.925,-3.059 -2.85,-3.644 -5.599,-10.095 -2.207,-5.447 -0.97,-3.87 -1.637,-4.599 0.175,-1.888 -0.423,-9.681 1.728,-11.14 0.402,-1.753 2.099,-4.59 1.591,-2.752 1.168,-1.282 2.325,-2.443 2.667,-1.991 5.049,-2.659 8.961,-3.881 14.338,-3.127 21.876,-3.15 20.455,-0.744 14.15,0.693 21.168,1.402 10.588,2.146 2.338,1.243 1.05,1.005 -0.817,1.176 -3.379,2.049 -2.027,0.657 -7.746,1.5 1.895,-0.288 1.652,0.279 5.732,1.683 6.732,3.357 2.372,1.738 4.938,5.144 4.794,7.526 4.163,7.717 0.908,2.885 -0.132,3.008 -0.636,1.38 -3.935,3.582 -5.419,2.213 -2.355,1.689 -7.558,1.655 -6.174,-0.305 -5.54,-2.834 -3.191,-4.265 0.295,-5.704 1.605,-4.798 3.78,-5.66 4.163,-4.438 6.607,-5.132 3.5,-2.31 7.421,-3.917 4.39,-1.621 4.585,-1.038 6.881,-1.03 4.42,-0.316 12.521,1.494 3.396,1.202 3.412,1.97 2.938,0.94 2.344,1.56 2.352,2.896 0.988,1.831 0.533,1.966 0.042,2.533 -1.4,5.085 -1.83,3.333 -3.307,4.238 -6.507,4.537 -10.348,4.071 -14.057,3.844 -9.186,1.158 -12.766,0.375 -10.291,-0.231 -8.633,-0.482 -17.556,-1.633 -13.495,-2.137 -6.727,-1.861 -3.644,-1.479 -3.887,-2.608 -3.724,-3.156 -3.877,-4.616 -1.933,-3.73 -0.897,-3.991 0.043,-5.874 3.951,-6.643 3.606,-2.569 0.979,-1.573 3.787,-1.247 0.075,-0.607 0.216,0.304 -0.395,0.706 -3.885,1.901 -2.764,0.476 -3.769,1.745 -23.458,8.768 -15.227,5.021 -9.386,2.713 -5.166,1.268 -9.264,1.384 -7.569,0.033 -6.269,-1.347 -3.468,-1.452 -1.923,-2.042 -1.716,-3.061 -0.286,-1.078 0.31,-0.966 0.269,-4.94 1.111,-3.775 1.22,-2.579 -0.123,-1.752 0.524,-1.76 1.48,-1.438 7.168,-10.592 6.272,-6.774 2.438,-3.375 7.568,-5.537 5.521,-3.571 13.021,-5.87 2.939,-0.912 5.018,-0.672 5.989,0.812 4.621,2.514 3.562,4.301 1.454,3.833 0.516,2.497 -0.252,2.856 -1.791,3.872 -3.616,4.524 -6.703,6.271 -24.818,17.74 -5.813,3.326 -5.43,2.421 -6.144,2.042 -11.392,2.05 -2.033,0.103 -9.957,-0.876 -2.91,-1.764 -2.725,-2.531 -1.263,-1.699 -0.37,-0.813 0.134,-0.907 -0.612,-2.612 0.447,-3.239 2.07,-2.163 0.887,-2.635 1.93,-2.748 5.727,-5.222 6.412,-3.835 8.054,-3.76 11.819,-4.048 12.877,-3.275 19.121,-3.235 16.277,-1.154 13.114,-0.19 11.357,0.788 4.682,0.834 3.203,1.076 1.683,1.063 0.867,1.245 0.067,0.633 -0.007,1.346 -0.296,0.505 -1.938,1.937 -1.806,1.314 -9.722,4.745 -17.062,5.298 -10.694,2.383 -7.567,1.282 -13.43,0.371 -6.97,-0.339 -6.505,-1.199 -4.28,-1.193 -2.775,-1.639 -1.255,-1.26 -1.286,-2.493 1.451,-5.921 8.169,-9.61 19.806,-13.282 7.663,-3.644 5.584,-1.864 12.365,-3.416 13.584,-1.873 6.812,-0.569 9.267,0.048 5.742,0.243 5.591,0.715 8.321,1.768 7.088,2.141 7.257,3.343 4.18,2.407 4.295,4.73 0.088,0.446 -0.706,1.813 -1.068,1.459 -0.602,0.359 -4.032,1.257 -2.452,-0.26 -1.506,0.297 -2.888,-0.047 -5.691,-0.75 -4.282,-0.97 -4.428,-2.411 -1.681,-1.485 -0.657,-0.813 -0.506,-2.049 -0.615,-0.746 -1.092,-2.644 -0.503,-4.153 0.174,-1.304 1.417,-2.603 1.604,-1.892 3.09,-1.972 3.266,-0.573 2.778,0.228 3.686,1.268 4.918,3.682 2.849,3.593 4.353,6.114 3.973,8.015 2.416,4.132 5.324,12.559 1.7,6.01 1.546,8.043 -0.088,3.594 -0.465,3.74 -1.576,5.546 -3.698,6.062 -2.641,2.834 -3.1,2.499 -9.436,5.502 -13.558,1.836 -17.434,-1.792 -10.522,-3.101 -9.033,-6.132 -3.545,-5.058 -0.95,-2.548 -0.194,-1.499 0.359,-1.654 1.063,-1.078 2.16,-1.362 3.461,-1.248 4.181,-0.882 6.784,-0.033 4.056,0.715 3.871,1.489 5.232,3.78 3.477,3.571 1.523,3.436 0.346,2.937 -1.99,5.913 -1.624,2.245 -3.668,3.387 -6.153,3.419 -6.598,2.759 -8.174,2.42 -7.016,1.17 -10.925,0.039 -6.257,-0.417 -6.953,-0.738 -16.911,-2.793 -19.87,-4.848 -12.879,-2.576 -7.483,-1.895 -10.38,-3.179 -4.736,-2.225 -0.698,-0.831 0.398,-1.878 0.694,-0.949 2.498,-1.601 4.013,-1.622 1.584,-1.211 12.329,-2.611 10.349,-1.047 11.135,0.391 9.679,1.94 9.929,2.81 12.855,5.242"
         id="path28" />
    </g>
    <g
       id="g29">
      <path
         fill="none"
         stroke="#000000"
         stroke-width="4"
         stroke-linecap="round"
         stroke-linejoin="round"
         d="m -547.725,338.942 -0.357,-5.079 -3.974,4.334 -5.334,3.541 -0.582,0.087 6.454,-7.125 3.761,-2.96 2.356,-1.409 2.649,-0.339 2.059,0.423 1.216,0.716 0.458,1.032 -1.563,3.192 -2.525,1.282 -5.102,1.222 -2.562,-0.242 -1.789,-0.873 -0.566,-0.487 -0.502,-1.182 -0.247,-1.167 0.175,-0.97 0.93,-1.65 2.245,-1.674 5.547,-1.376 4.184,0.062 12.056,2.01 0.442,0.529 2.528,0.325 1.161,0.59 -0.338,0.527 -2.668,1.248 -3.768,1.408 -2.847,0.629 -7.705,0.523 -4.735,-0.515 -2.706,-1.819 -1.274,-1.524 -0.126,-1.482 0.559,-1.388 1.965,-2.893 2.705,-1.639 2.113,-0.66 3.394,0.356 2.646,0.803 3.388,1.581 1.582,1.187 0.663,1.206 0.659,-0.095 0.077,0.736 -0.752,0.292 -0.176,-0.316 -4.042,0.209 -0.53,-0.275 0.154,-0.36 0.469,-0.076"
         id="path29" />
    </g>
  </g>
</g>
</svg>
